<?xml version="1.0" encoding="UTF-8" standalone="no"?>
<svg
   xmlns:dc="http://purl.org/dc/elements/1.1/"
   xmlns:cc="http://creativecommons.org/ns#"
   xmlns:rdf="http://www.w3.org/1999/02/22-rdf-syntax-ns#"
   xmlns:svg="http://www.w3.org/2000/svg"
   xmlns="http://www.w3.org/2000/svg"
   viewBox="0 0 138.66667 116"
   height="116"
   width="138.66667"
   xml:space="preserve"
   id="svg2"
   version="1.1"><metadata
     id="metadata8"><rdf:RDF><cc:Work
         rdf:about=""><dc:format>image/svg+xml</dc:format><dc:type
           rdf:resource="http://purl.org/dc/dcmitype/StillImage" /></cc:Work></rdf:RDF></metadata><defs
     id="defs6"><clipPath
       id="clipPath18"
       clipPathUnits="userSpaceOnUse"><path
         id="path16"
         d="M 0,87 H 104 V 0 H 0 Z" /></clipPath><clipPath
       id="clipPath66"
       clipPathUnits="userSpaceOnUse"><path
         id="path64"
         d="m 33.2,35 h 5 v -2.7 h -5 z" /></clipPath><clipPath
       id="clipPath90"
       clipPathUnits="userSpaceOnUse"><path
         id="path88"
         d="m 52.4,51.5 h 3.3 v -2.8564 h -3.3 z" /></clipPath><clipPath
       id="clipPath110"
       clipPathUnits="userSpaceOnUse"><path
         id="path108"
         d="m 52.2,51.7 h 1.7 v -1.4 h -1.7 z" /></clipPath><clipPath
       id="clipPath162"
       clipPathUnits="userSpaceOnUse"><path
         id="path160"
         d="m 40.9,52 h 4.3 v -2.9 h -4.3 z" /></clipPath><clipPath
       id="clipPath190"
       clipPathUnits="userSpaceOnUse"><path
         id="path188"
         d="m 35.5,39.1 h 8.1 v -2.0444 h -8.1 z" /></clipPath><clipPath
       id="clipPath306"
       clipPathUnits="userSpaceOnUse"><path
         id="path304"
         d="m 34.9,65.0285 h 2.4181 V 63.7704 H 34.9 Z" /></clipPath><clipPath
       id="clipPath326"
       clipPathUnits="userSpaceOnUse"><path
         id="path324"
         d="m 37.5737,67.5 h 1.2135 v -2.1794 h -1.2135 z" /></clipPath><clipPath
       id="clipPath394"
       clipPathUnits="userSpaceOnUse"><path
         id="path392"
         d="m 39.3827,45.619 h 3.7327 V 42.2 h -3.7327 z" /></clipPath><clipPath
       id="clipPath410"
       clipPathUnits="userSpaceOnUse"><path
         id="path408"
         d="M 26,25.1 H 55.6 V 22.3 H 26 Z" /></clipPath></defs><g
     transform="matrix(1.3333333,0,0,-1.3333333,0,116)"
     id="g10"><g
       id="g12"><g
         clip-path="url(#clipPath18)"
         id="g14"><g
           transform="translate(41.2,86.2)"
           id="g20"><path
             id="path22"
             style="fill:#70ad47;fill-opacity:1;fill-rule:nonzero;stroke:none"
             d="m 0,0 32.9,-1.8 c 2.5,-0.1 4.4,-2.3 4.2,-4.7 l -2.8,-50.8 c -0.1,-2.5 -2.3,-4.4 -4.7,-4.2 l -32.8,1.7 c -2.5,0.1 -4.4,2.3 -4.2,4.7 l 2.7,50.9 C -4.6,-1.7 -2.4,0.2 0,0" /></g><g
           transform="translate(41.2,86.2)"
           id="g24"><path
             id="path26"
             style="fill:none;stroke:#245080;stroke-width:1;stroke-linecap:butt;stroke-linejoin:miter;stroke-miterlimit:4;stroke-dasharray:none;stroke-opacity:1"
             d="m 0,0 32.9,-1.8 c 2.5,-0.1 4.4,-2.3 4.2,-4.7 l -2.8,-50.8 c -0.1,-2.5 -2.3,-4.4 -4.7,-4.2 l -32.8,1.7 c -2.5,0.1 -4.4,2.3 -4.2,4.7 l 2.7,50.9 C -4.6,-1.7 -2.4,0.2 0,0 Z" /></g><g
           transform="translate(4.9,59.1)"
           id="g28"><path
             id="path30"
             style="fill:#ffc000;fill-opacity:1;fill-rule:nonzero;stroke:none"
             d="m 0,0 31.4,10 c 2.4,0.8 4.9,-0.6 5.7,-2.9 l 15.4,-48.5 c 0.8,-2.4 -0.6,-4.9 -2.9,-5.7 l -31.4,-10 c -2.4,-0.8 -4.9,0.6 -5.7,2.9 L -2.9,-5.7 C -3.7,-3.3 -2.4,-0.8 0,0" /></g><g
           transform="translate(4.9,59.1)"
           id="g32"><path
             id="path34"
             style="fill:none;stroke:#245080;stroke-width:1;stroke-linecap:butt;stroke-linejoin:miter;stroke-miterlimit:4;stroke-dasharray:none;stroke-opacity:1"
             d="m 0,0 31.4,10 c 2.4,0.8 4.9,-0.6 5.7,-2.9 l 15.4,-48.5 c 0.8,-2.4 -0.6,-4.9 -2.9,-5.7 l -31.4,-10 c -2.4,-0.8 -4.9,0.6 -5.7,2.9 L -2.9,-5.7 C -3.7,-3.3 -2.4,-0.8 0,0 Z" /></g><g
           transform="translate(66.9,69.1)"
           id="g36"><path
             id="path38"
             style="fill:#00b0f0;fill-opacity:1;fill-rule:nonzero;stroke:none"
             d="m 0,0 31.6,-9.3 c 2.4,-0.7 3.7,-3.2 3,-5.6 L 20.1,-63.7 c -0.7,-2.4 -3.2,-3.7 -5.6,-3 l -31.6,9.3 c -2.4,0.7 -3.7,3.2 -3,5.6 L -5.6,-3 c 0.7,2.4 3.2,3.7 5.6,3" /></g><g
           transform="translate(66.9,69.1)"
           id="g40"><path
             id="path42"
             style="fill:none;stroke:#245080;stroke-width:1;stroke-linecap:butt;stroke-linejoin:miter;stroke-miterlimit:4;stroke-dasharray:none;stroke-opacity:1"
             d="m 0,0 31.6,-9.3 c 2.4,-0.7 3.7,-3.2 3,-5.6 L 20.1,-63.7 c -0.7,-2.4 -3.2,-3.7 -5.6,-3 l -31.6,9.3 c -2.4,0.7 -3.7,3.2 -3,5.6 L -5.6,-3 c 0.7,2.4 3.2,3.7 5.6,3 z" /></g><g
           transform="translate(24.4,75.9)"
           id="g44"><path
             id="path46"
             style="fill:#ffffff;fill-opacity:1;fill-rule:nonzero;stroke:none"
             d="m 0,0 h 32.6 c 2.5,0 4.5,-2 4.5,-4.5 v -50.7 c 0,-2.5 -2,-4.5 -4.5,-4.5 H 0 c -2.5,0 -4.5,2 -4.5,4.5 V -4.5 C -4.5,-2 -2.5,0 0,0" /></g><g
           transform="translate(24.4,75.9)"
           id="g48"><path
             id="path50"
             style="fill:none;stroke:#245080;stroke-width:1;stroke-linecap:butt;stroke-linejoin:miter;stroke-miterlimit:4;stroke-dasharray:none;stroke-opacity:1"
             d="m 0,0 h 32.6 c 2.5,0 4.5,-2 4.5,-4.5 v -50.7 c 0,-2.5 -2,-4.5 -4.5,-4.5 H 0 c -2.5,0 -4.5,2 -4.5,4.5 V -4.5 C -4.5,-2 -2.5,0 0,0 Z" /></g><g
           transform="translate(50.3,64.1)"
           id="g52"><path
             id="path54"
             style="fill:#ad5c49;fill-opacity:1;fill-rule:nonzero;stroke:none"
             d="m 0,0 c 1.2,-3.4 0.8,-4.6 0.9,-5.4 0.3,-1.3 0.8,-1.5 0.9,-2.7 0.2,-2.6 -2.3,-4.8 -3.6,-4.9 0.4,0.8 0.5,1.8 0.4,2 -0.3,-0.9 -0.7,-2 -1,-2.1 -1.9,-1 -3.9,-1.5 -7.1,-1.4 -2.6,0.1 -6.2,0.7 -8.4,2.4 -0.4,0.3 -0.5,1.4 -0.3,2.7 -0.9,-1.3 -0.4,-2.1 -0.6,-2 -1,1.1 -1.5,3.6 0.4,5.6 2.3,2.2 0.7,2.9 4.1,6.8 C -9.8,1 -1.5,0.4 0,0" /></g><g
           transform="translate(30.6,35.9)"
           id="g56"><path
             id="path58"
             style="fill:#ffc19f;fill-opacity:1;fill-rule:nonzero;stroke:none"
             d="M 0,0 -1.5,-2.7 C 2.6,-4.1 4.7,-5 5.7,-4.1 5.8,-4 7.7,-2.7 8,-2 7.8,-0.9 5.7,1 5.6,1 5.5,1 4.2,-0.6 4.2,-0.6 4.1,-1.4 1.6,-0.4 0,0" /></g><g
           id="g60"><g
             id="g62" /><g
             id="g74"><g
               style="opacity:0.19000202"
               id="g72"
               clip-path="url(#clipPath66)"><g
                 id="g70"
                 transform="translate(38.2,33.5)"><path
                   id="path68"
                   style="fill:#4c0606;fill-opacity:1;fill-rule:nonzero;stroke:none"
                   d="M 0,0 C -1.7,0.6 -2.6,0.9 -4.3,1.3 L -5,1.5 c 0.2,-1.1 1,-1.9 2.5,-2.5 0.7,-0.2 0.8,-0.2 1.5,-0.2 z" /></g></g></g></g><g
           transform="translate(54.1,48.2)"
           id="g76"><path
             id="path78"
             style="fill:#ffc19f;fill-opacity:1;fill-rule:nonzero;stroke:none"
             d="m 0,0 c 0.1,0.1 -1.4,1.4 -1.5,1.2 -1.7,-1.5 -4.9,-3.5 -5.4,-3.9 0,0 1.1,-1.9 2.4,-1.6 1.2,0.4 1.9,1.4 4.5,4.3" /></g><g
           transform="translate(52.8,51.5)"
           id="g80"><path
             id="path82"
             style="fill:#ffc19f;fill-opacity:1;fill-rule:nonzero;stroke:none"
             d="m 0,0 c 0.6,0.1 1.1,0.1 1.1,0 0.8,-0.6 1.6,-1.3 2.1,-1.5 -0.7,-1.4 -1.6,-1.9 -2,-2 -0.6,-0.2 -1.5,0.1 -1.8,0.8 -0.2,0.3 -0.3,1.1 -0.1,2.3 0.1,0.1 0.5,0.2 0.7,0.4" /></g><g
           id="g84"><g
             id="g86" /><g
             id="g98"><g
               style="opacity:0.13999903"
               id="g96"
               clip-path="url(#clipPath90)"><g
                 id="g94"
                 transform="translate(53.2,49)"><path
                   id="path92"
                   style="fill:#6b1808;fill-opacity:1;fill-rule:nonzero;stroke:none"
                   d="M 0,0 C 0.8,-0.8 2,-0.1 2.5,0.6 2.3,0.7 1.1,1.4 1.1,2.5 0.3,2.5 -0.5,1.4 -0.8,1.5 -0.3,1.3 0.2,0.7 0,0" /></g></g></g></g><g
           transform="translate(56.1,50.7)"
           id="g100"><path
             id="path102"
             style="fill:#ffc19f;fill-opacity:1;fill-rule:nonzero;stroke:none"
             d="m 0,0 c -0.2,0.1 -0.4,0 -0.7,-0.2 0.2,0.3 0.3,0.6 0.2,0.8 -0.2,0.2 -0.6,0.1 -0.9,-0.3 0.2,0.4 0.2,0.7 0.1,0.9 -0.2,0.2 -0.6,0 -0.9,-0.3 0,0.3 0.1,0.7 -0.1,0.8 -0.4,0.1 -0.7,-0.3 -0.9,-0.8 -0.2,-0.5 -0.2,-1.2 0.1,-1.3 0.1,-0.1 0.4,0.1 0.5,0.4 0,-0.2 0,-0.3 0.1,-0.4 0.2,-0.1 0.5,0 0.7,0.2 -0.1,-0.3 -0.2,-0.5 -0.1,-0.6 0.1,-0.1 0.4,-0.1 0.8,0.2 -0.1,-0.2 -0.2,-0.5 -0.1,-0.6 0.1,-0.1 0.4,-0.2 0.9,0.2 0.3,0.3 0.5,0.9 0.3,1" /></g><g
           id="g104"><g
             id="g106" /><g
             id="g118"><g
               style="opacity:0.13999903"
               id="g116"
               clip-path="url(#clipPath110)"><g
                 id="g114"
                 transform="translate(53.9,51.1)"><path
                   id="path112"
                   style="fill:#6b1808;fill-opacity:1;fill-rule:nonzero;stroke:none"
                   d="m 0,0 c 0,-0.3 -0.2,-0.8 -0.7,-0.8 -0.5,0 -1,0.3 -1,0.7 0,0.3 0.4,0.7 0.9,0.7 C -0.3,0.6 0,0.4 0,0" /></g></g></g></g><g
           transform="translate(53.9,51.1)"
           id="g120"><path
             id="path122"
             style="fill:#ffc19f;fill-opacity:1;fill-rule:nonzero;stroke:none"
             d="m 0,0 c 0,-0.3 -0.4,-0.6 -0.9,-0.7 -0.5,0 -1,0.2 -1,0.5 0,0.3 0.4,0.6 0.9,0.7 C -0.4,0.6 0,0.3 0,0" /></g><g
           transform="translate(48.3,43.5)"
           id="g124"><path
             id="path126"
             style="fill:#ed3b61;fill-opacity:1;fill-rule:nonzero;stroke:none"
             d="m 0,0 c -1.2,0.4 -3.5,0.9 -4.8,1.3 0.3,1.5 2.2,4 2.2,4 C -0.6,4.6 0.3,4.2 1,3.9 0.8,2.9 0.3,1.1 0,0" /></g><g
           transform="translate(43.3,29.7)"
           id="g128"><path
             id="path130"
             style="fill:#ffc19f;fill-opacity:1;fill-rule:nonzero;stroke:none"
             d="M 0,0 H 3.1 C 2.4,4.2 2.3,6.7 1,7.2 0.8,7.3 -1.3,8.1 -2,8.1 -2.9,7.4 -3.6,4.7 -3.5,4.6 c 0,-0.1 2,-0.4 2,-0.5 0,0 1,-2.6 1.5,-4.1" /></g><g
           transform="translate(34.1,40)"
           id="g132"><path
             id="path134"
             style="fill:#68295f;fill-opacity:1;fill-rule:nonzero;stroke:none"
             d="m 0,0 c -0.3,-0.2 -2,-3.3 -2.4,-3.6 -0.1,-0.1 1.3,-1.5 2.2,-2.3 0.7,-0.9 3.2,-2.4 5.9,-1 0.9,0.5 0.8,1.9 1.1,3 0.4,1.6 3.7,0.8 2.1,1.4 -0.8,0.3 -3,0.8 -3.3,1 -0.3,0.1 -0.5,0.4 -0.5,0.7 z" /></g><g
           transform="translate(43.5,37.3)"
           id="g136"><path
             id="path138"
             style="fill:#ed3b61;fill-opacity:1;fill-rule:nonzero;stroke:none"
             d="M 0,0 C -3.6,1.3 -4.3,0.1 -7.5,0.8 -8.4,1 -9.7,1.6 -10,2.4 c 0,0 3.6,8.9 4.5,10.9 1,0 2.5,-0.1 3.8,-0.4 1.6,-0.4 3,-0.9 4,-1.3 C 2.2,9.8 -0.1,3.1 0,0" /></g><g
           transform="translate(29.2,44.7)"
           id="g140"><path
             id="path142"
             style="fill:#ffc19f;fill-opacity:1;fill-rule:nonzero;stroke:none"
             d="M 0,0 C -0.1,-0.1 1.7,-1 1.8,-0.9 3.1,1 5.7,3.8 6.2,4.3 6.2,4.3 4.6,5.7 3.4,5.1 2.2,4.6 1.8,3.6 0,0" /></g><g
           transform="translate(33.4,46.3)"
           id="g144"><path
             id="path146"
             style="fill:#ed3b61;fill-opacity:1;fill-rule:nonzero;stroke:none"
             d="M 0,0 4.3,-0.2 C 5.2,1.2 5.6,3.2 5.5,4.2 4.5,4.3 2.2,4.3 0,4.1 Z" /></g><g
           transform="translate(40.3,50.4)"
           id="g148"><path
             id="path150"
             style="fill:#ffc19f;fill-opacity:1;fill-rule:nonzero;stroke:none"
             d="m 0,0 c 0,0 -0.1,-0.2 -0.1,-0.3 -0.2,-1 0.6,-2.1 2,-2.4 1.3,-0.3 2.6,0.2 2.9,1.2 v 0.2 C 3.3,-0.7 1.5,-0.2 0,0" /></g><g
           transform="translate(45.3,52)"
           id="g152"><path
             id="path154"
             style="fill:#ffc19f;fill-opacity:1;fill-rule:nonzero;stroke:none"
             d="m 0,0 -0.8,-3.1 c -0.2,-0.7 -1.2,-1 -2.3,-0.7 -1.1,0.3 -1.8,1.1 -1.6,1.7 L -3.9,1 Z" /></g><g
           id="g156"><g
             id="g158" /><g
             id="g170"><g
               style="opacity:0.19000202"
               id="g168"
               clip-path="url(#clipPath162)"><g
                 id="g166"
                 transform="translate(45.2,51.3)"><path
                   id="path164"
                   style="fill:#4c0606;fill-opacity:1;fill-rule:nonzero;stroke:none"
                   d="m 0,0 c -1.3,0.3 -2.8,0.6 -4,0.7 l -0.3,-1 c 0.3,-0.8 1.1,-1.5 2.2,-1.8 0.5,-0.1 1,-0.1 1.5,-0.1 z" /></g></g></g></g><g
           transform="translate(30.2,41.3)"
           id="g172"><path
             id="path174"
             style="fill:#ffc19f;fill-opacity:1;fill-rule:nonzero;stroke:none"
             d="M 0,0 C 0.1,-0.1 1,-0.4 1.8,0.6 2.2,1.1 2.1,2.3 1.3,3.4 1.2,3.5 1.1,3.2 1,3.1 0.8,3 -0.5,0.7 -0.2,0.9 0,1.1 0.3,1.6 0.5,1.1 0.6,0.5 -0.2,0.3 0,0" /></g><g
           transform="translate(30.7,41.6)"
           id="g176"><path
             id="path178"
             style="fill:#e0956c;fill-opacity:1;fill-rule:nonzero;stroke:none"
             d="M 0,0 C -0.3,0.1 0.4,1.8 0.6,1.6 0.9,1.5 0.9,1.1 0.7,0.7 0.6,0.3 0.2,-0.1 0,0" /></g><g
           transform="translate(31.8,43.6)"
           id="g180"><path
             id="path182"
             style="fill:#ffc19f;fill-opacity:1;fill-rule:nonzero;stroke:none"
             d="m 0,0 c -0.2,-0.5 -1.2,-1 -0.3,-2 0.2,-0.2 -0.5,-0.7 -0.9,-0.5 -0.2,0.1 -0.2,-0.1 -0.6,0.1 -0.2,0.1 -0.3,0.3 -0.5,0.3 -0.5,0 -0.4,0.4 -0.6,0.4 -0.3,0 -0.4,0.3 -0.4,0.5 -0.1,0.5 0.3,1.4 0.7,2.4 0.2,0.6 1.6,0.7 1.8,0.5 C -0.1,1.1 0.2,0.3 0,0" /></g><g
           id="g184"><g
             id="g186" /><g
             id="g198"><g
               style="opacity:0.19000202"
               id="g196"
               clip-path="url(#clipPath190)"><g
                 id="g194"
                 transform="translate(43.6,39.1)"><path
                   id="path192"
                   style="fill:#4c0606;fill-opacity:1;fill-rule:nonzero;stroke:none"
                   d="M 0,0 C -0.6,-1.6 -2.8,-0.7 -4.5,-0.9 -6.1,-1.1 -7.3,-1 -8.1,-1 c 0.1,-0.6 1.5,-0.7 2.9,-0.7 1.2,0 2.3,0 3,-0.1 0.5,-0.1 1.3,0 1.7,-0.2 0.1,-0.1 0.3,0 0.4,0 0,0.2 -0.1,1.4 0.1,2" /></g></g></g></g><g
           transform="translate(51.6,56.4)"
           id="g200"><path
             id="path202"
             style="fill:#f4b18c;fill-opacity:1;fill-rule:nonzero;stroke:none"
             d="m 0,0 c -0.2,-1.5 -1.5,-2.6 -2.5,-2.6 -1,0.1 -1.2,1.3 -1.2,2.7 0.1,1.5 0.9,2.6 1.9,2.6 C -0.3,2.7 0.3,1.5 0,0" /></g><g
           transform="translate(51.4,60.8)"
           id="g204"><path
             id="path206"
             style="fill:#ad5c49;fill-opacity:1;fill-rule:nonzero;stroke:none"
             d="m 0,0 c 0,-5.2 -3.4,-7.6 -8.3,-7.4 -4.9,0.1 -9,2.4 -8.8,7.6 0.2,5.2 4.2,7 8.9,6.8 C -2.5,6.7 0.1,4.7 0,0" /></g><g
           transform="translate(50.1,53.9)"
           id="g208"><path
             id="path210"
             style="fill:#fbc1a0;fill-opacity:1;fill-rule:nonzero;stroke:none"
             d="m 0,0 c -1.2,-2.6 -3.4,-3.8 -5.6,-3.7 -4.8,0.4 -7.6,3.4 -8.4,9.1 -0.9,6.1 3.3,6.2 7.6,6.1 C -3.5,11.4 -1.2,11.3 0,9.3 0.7,8.2 0.6,1.3 0,0" /></g><g
           transform="translate(46.9,58.1)"
           id="g212"><path
             id="path214"
             style="fill:#f9fdff;fill-opacity:1;fill-rule:nonzero;stroke:none"
             d="M 0,0 C -0.5,-0.8 -0.4,-1.6 0,-1.9 0.6,-2.4 2,-2.5 2.6,-1.8 3.1,-1.1 2.9,0.1 2,0.6 1.3,1.1 0.5,0.8 0,0" /></g><g
           transform="translate(49.6,58.3)"
           id="g216"><path
             id="path218"
             style="fill:#843923;fill-opacity:1;fill-rule:nonzero;stroke:none"
             d="m 0,0 c -0.7,1.2 -2.2,0.8 -2.7,-0.2 0.5,0.8 1.3,1 2,0.6 0.4,-0.3 0.7,-0.7 0.8,-1.3 0.1,-0.4 0,-0.9 -0.2,-1.2 0.2,0.2 0.6,1.3 0.1,2.1" /></g><g
           transform="translate(47.7,57.7)"
           id="g220"><path
             id="path222"
             style="fill:#461d14;fill-opacity:1;fill-rule:nonzero;stroke:none"
             d="m 0,0 c -0.2,-0.5 0,-1.1 0.5,-1.3 0.5,-0.2 1,0 1.2,0.6 0.2,0.5 0,1.1 -0.5,1.3 C 0.7,0.8 0.2,0.5 0,0" /></g><g
           transform="translate(47.8,57.8)"
           id="g224"><path
             id="path226"
             style="fill:#fefffe;fill-opacity:1;fill-rule:nonzero;stroke:none"
             d="m 0,0 c -0.1,-0.1 0,-0.3 0.1,-0.4 0.1,-0.1 0.3,0 0.3,0.2 0.1,0.1 0,0.3 -0.1,0.4 C 0.2,0.2 0,0.1 0,0" /></g><g
           transform="translate(43.3,58.1)"
           id="g228"><path
             id="path230"
             style="fill:#f9fdff;fill-opacity:1;fill-rule:nonzero;stroke:none"
             d="m 0,0 c 0.5,-0.8 0.4,-1.6 0,-1.9 -0.7,-0.5 -2.3,-0.6 -2.9,0.1 -0.6,0.7 -0.3,1.9 0.7,2.4 C -1.4,1.1 -0.5,0.8 0,0" /></g><g
           transform="translate(40.3,58.4)"
           id="g232"><path
             id="path234"
             style="fill:#843923;fill-opacity:1;fill-rule:nonzero;stroke:none"
             d="M 0,0 C 0.8,1.2 2.6,0.7 3,-0.3 2.5,0.5 1.5,0.7 0.8,0.3 0.3,0 0,-0.4 -0.1,-0.9 -0.2,-1.3 -0.1,-1.8 0.1,-2.1 -0.2,-1.9 -0.6,-0.9 0,0" /></g><g
           transform="translate(41.5,57.7)"
           id="g236"><path
             id="path238"
             style="fill:#461d14;fill-opacity:1;fill-rule:nonzero;stroke:none"
             d="m 0,0 c -0.2,-0.5 0,-1.1 0.6,-1.3 0.5,-0.2 1.1,0 1.3,0.6 0.2,0.5 0,1.1 -0.6,1.3 C 0.8,0.8 0.2,0.6 0,0" /></g><g
           transform="translate(41.6,57.8)"
           id="g240"><path
             id="path242"
             style="fill:#fefffe;fill-opacity:1;fill-rule:nonzero;stroke:none"
             d="m 0,0 c -0.1,-0.1 0,-0.3 0.2,-0.4 0.1,-0.1 0.3,0 0.4,0.2 0.1,0.1 0,0.3 -0.2,0.4 C 0.2,0.3 0,0.2 0,0" /></g><g
           transform="translate(49.6,60.5)"
           id="g244"><path
             id="path246"
             style="fill:#752912;fill-opacity:1;fill-rule:nonzero;stroke:none"
             d="m 0,0 c -0.1,0 -0.1,0 -0.2,0.1 -0.4,0.4 -1.3,0.5 -1.9,0.2 -0.1,-0.1 -0.3,0 -0.4,0.2 -0.1,0.1 0,0.3 0.2,0.4 0.9,0.3 1.9,0.2 2.5,-0.3 C 0.3,0.5 0.3,0.3 0.2,0.2 0.2,0 0.1,0 0,0" /></g><g
           transform="translate(40.2,60.4)"
           id="g248"><path
             id="path250"
             style="fill:#752912;fill-opacity:1;fill-rule:nonzero;stroke:none"
             d="m 0,0 c -0.1,0 -0.2,0 -0.2,0.1 -0.1,0.1 -0.1,0.3 0,0.4 C 0.4,1.1 1.6,1.3 2.5,0.9 2.7,0.8 2.7,0.7 2.7,0.5 2.6,0.3 2.5,0.3 2.3,0.3 1.6,0.6 0.7,0.4 0.2,0 0.2,0.1 0.1,0 0,0" /></g><g
           transform="translate(45.8,55.4)"
           id="g252"><path
             id="path254"
             style="fill:#c4735b;fill-opacity:1;fill-rule:nonzero;stroke:none"
             d="m 0,0 c 0,0 0,0.1 0,0 -0.1,0.3 -0.3,0.5 -0.6,0.5 -0.3,0 -0.5,-0.2 -0.5,-0.4 0,0 0,-0.1 -0.1,-0.1 0,0 -0.1,0 -0.1,0.1 0.1,0.3 0.3,0.5 0.7,0.5 C -0.2,0.7 0.1,0.4 0,0 0.1,0.1 0.1,0 0,0" /></g><g
           transform="translate(38.4,58.4)"
           id="g256"><path
             id="path258"
             style="fill:#ad5c49;fill-opacity:1;fill-rule:nonzero;stroke:none"
             d="m 0,0 c 0,-1.5 -0.7,-2.7 -1.8,-2.6 -1.1,0 -1.9,3.4 -1.8,5.9 0.1,2.9 2.3,4.9 5,2.9 C -1.2,4.8 0,2.3 0,0" /></g><g
           transform="translate(34.6,55.9)"
           id="g260"><path
             id="path262"
             style="fill:#fbc1a0;fill-opacity:1;fill-rule:nonzero;stroke:none"
             d="M 0,0 C 0.5,-1.7 2.1,-2.7 3.3,-2.5 4.5,-2.3 4.3,2.7 2.1,3.1 0.3,3.4 -0.4,1.5 0,0" /></g><g
           transform="translate(36.1,55.7)"
           id="g264"><path
             id="path266"
             style="fill:#e0956c;fill-opacity:1;fill-rule:nonzero;stroke:none"
             d="M 0,0 C 0.1,-0.7 0.9,-1.3 1.5,-1.1 1.7,-1 1.3,1.4 0.9,1.4 0.3,1.5 -0.1,0.7 0,0" /></g><g
           transform="translate(42.4,54.4)"
           id="g268"><path
             id="path270"
             style="fill:#701608;fill-opacity:1;fill-rule:nonzero;stroke:none"
             d="M 0,0 C 0.1,0.6 1.1,0.4 2.5,0.4 H 2.9 C 4.3,0.4 5.1,0.5 5.1,-0.1 5.2,-1.2 4,-2.4 2.6,-2.4 1.2,-2.3 -0.2,-1.1 0,0" /></g><g
           transform="translate(43.6,52.5)"
           id="g272"><path
             id="path274"
             style="fill:#dd6b5b;fill-opacity:1;fill-rule:nonzero;stroke:none"
             d="m 0,0 c 0.4,0.3 0.9,0.5 1.4,0.5 0.5,0 1,-0.2 1.4,-0.6 C 2.5,-0.3 2.3,-0.4 2,-0.5 c -0.2,0 -0.3,-0.1 -0.5,0 -0.4,0 -0.7,0.1 -1.1,0.2 C 0.2,-0.2 0.1,-0.1 0,0" /></g><g
           transform="translate(43.3,54.9)"
           id="g276"><path
             id="path278"
             style="fill:#ffffff;fill-opacity:1;fill-rule:nonzero;stroke:none"
             d="M 0,0 V 0 H 2 C 2.5,0 3.6,-0.1 3.6,-0.1 3.5,-0.5 2.7,-0.8 1.8,-0.8 0.9,-0.8 0.1,-0.5 0,0" /></g><g
           transform="translate(39.2,55)"
           id="g280"><path
             id="path282"
             style="fill:#f59597;fill-opacity:1;fill-rule:nonzero;stroke:none"
             d="m 0,0 c 0,-0.3 0.4,-0.6 1,-0.7 0.6,0 1.1,0.2 1.1,0.5 0,0.3 -0.4,0.6 -1,0.7 C 0.5,0.6 0,0.4 0,0" /></g><g
           transform="translate(48.2,54.9)"
           id="g284"><path
             id="path286"
             style="fill:#f59597;fill-opacity:1;fill-rule:nonzero;stroke:none"
             d="m 0,0 c 0,-0.3 0.4,-0.5 0.8,-0.5 0.4,0 0.8,0.3 0.8,0.6 C 1.6,0.4 1.2,0.6 0.8,0.6 0.3,0.6 -0.1,0.3 0,0" /></g><g
           transform="translate(37.8,62.6)"
           id="g288"><path
             id="path290"
             style="fill:#ad5c49;fill-opacity:1;fill-rule:nonzero;stroke:none"
             d="m 0,0 c -0.6,0.1 -1.3,0.2 -1.9,0.2 0,0.7 0.1,1.3 0.4,1.6 2.6,2.3 10.3,3.4 14,1.2 1.7,-1.1 2,-3 1.6,-4.4 -0.8,0.5 -2.9,0.9 -4.7,1 C 9.1,0 8.9,1.3 8.9,1.3 8.9,1.3 8.7,0.2 8.9,-0.4 8.1,-0.4 5.8,-0.5 4.8,-0.5 4.5,-0.1 4.3,1 4.3,1 4.3,1 4,0 4.2,-0.6 H 3 C 1.9,0 1.9,1.3 1,1.4 0.3,1.4 0.1,0.8 0,0" /></g><g
           transform="translate(36.6,63.2)"
           id="g292"><path
             id="path294"
             style="fill:#f49000;fill-opacity:1;fill-rule:nonzero;stroke:none"
             d="M 0,0 C 0.8,2.6 3,4.6 6.7,4.8 9.6,4.9 11.9,4 13.3,2.4 11.6,3.8 9.3,3.8 6.9,3.7 3.8,3.4 1.4,1.9 0,0" /></g><g
           transform="translate(37.6,64.8)"
           id="g296"><path
             id="path298"
             style="fill:#ffa10b;fill-opacity:1;fill-rule:nonzero;stroke:none"
             d="M 0,0 C 0.2,-1.7 -2.9,-3.6 -5.3,-1.3 -3.1,1.2 -1.5,0.9 0,0" /></g><g
           id="g300"><g
             id="g302" /><g
             id="g314"><g
               style="opacity:0.27999902"
               id="g312"
               clip-path="url(#clipPath306)"><g
                 id="g310"
                 transform="translate(37.3,64.8)"><path
                   id="path308"
                   style="fill:#6c0b2a;fill-opacity:1;fill-rule:nonzero;stroke:none"
                   d="M 0,0 C -0.1,0.4 -1.5,0.3 -2.4,-0.5 -1.3,-1.4 0.2,-1.1 0,0" /></g></g></g></g><g
           transform="translate(37.2,65.2)"
           id="g316"><path
             id="path318"
             style="fill:#ffa10b;fill-opacity:1;fill-rule:nonzero;stroke:none"
             d="M 0,0 C 1.9,-0.9 4.5,1.7 1.2,4.6 0.1,2 -0.7,1.3 0,0" /></g><g
           id="g320"><g
             id="g322" /><g
             id="g334"><g
               style="opacity:0.27999902"
               id="g332"
               clip-path="url(#clipPath326)"><g
                 id="g330"
                 transform="translate(37.6,65.4)"><path
                   id="path328"
                   style="fill:#6c0b2a;fill-opacity:1;fill-rule:nonzero;stroke:none"
                   d="M 0,0 C -0.2,0.6 0.8,1.1 1,2.1 1.4,1.5 1.2,-0.5 0,0" /></g></g></g></g><g
           transform="translate(38.2,64.5)"
           id="g336"><path
             id="path338"
             style="fill:#ffa10b;fill-opacity:1;fill-rule:nonzero;stroke:none"
             d="M 0,0 C -0.3,-0.3 -0.8,-0.4 -1.1,-0.1 -1.4,0.2 -1.5,0.6 -1.2,1 -0.9,1.3 -0.4,1.4 -0.1,1.1 0.2,0.8 0.3,0.3 0,0" /></g><g
           transform="translate(45.5,31.8)"
           id="g340"><path
             id="path342"
             style="fill:#f93d77;fill-opacity:1;fill-rule:nonzero;stroke:none"
             d="m 0,0 c -0.2,0 -0.3,-0.2 -0.2,-0.4 l 0.6,0.2 C 0.3,-0.1 0.2,0.1 0,0 m -0.6,-0.1 c -0.2,0 -0.3,-0.2 -0.2,-0.4 l 0.6,0.2 c -0.1,0.1 -0.2,0.2 -0.4,0.2 m -0.6,-0.2 c -0.2,0 -0.3,-0.2 -0.2,-0.4 l 0.6,0.2 c -0.1,0.1 -0.3,0.2 -0.4,0.2 m -1.3,-0.3 c -0.1,0 -0.2,-0.1 -0.2,-0.1 0,-0.1 0.1,-0.2 0.1,-0.2 l 0.5,0.1 c 0,0.1 -0.2,0.2 -0.4,0.2 m 0.6,0.1 c -0.2,0 -0.3,-0.2 -0.2,-0.4 l 0.6,0.2 c 0,0.2 -0.2,0.3 -0.4,0.2 M 0.6,0.2 C 0.4,0.2 0.3,0 0.4,-0.2 l 0.4,0.1 v 0.3 c -0.1,0 -0.1,0 -0.2,0" /></g><g
           transform="translate(46.8,28.4)"
           id="g344"><path
             id="path346"
             style="fill:#fff8b3;fill-opacity:1;fill-rule:nonzero;stroke:none"
             d="m 0,0 c 0,-0.1 -2.9,-0.7 -3,-0.6 -0.3,0.9 -0.8,2.7 -0.9,3.1 l 3.4,0.8 C -0.4,2.3 -0.1,0.5 0,0" /></g><g
           transform="translate(45.9,30.1)"
           id="g348"><path
             id="path350"
             style="fill:#fff8b3;fill-opacity:1;fill-rule:nonzero;stroke:none"
             d="m 0,0 c -0.1,0.2 -2,-0.7 -2.4,-0.8 0.1,-0.5 0.1,-1.4 0.3,-2 0.1,-0.5 0.6,-0.7 1.1,-0.6 1.7,0.2 6.3,0.5 6.1,1.8 C 5,-0.6 2.2,-0.6 0,0" /></g><g
           transform="translate(43.4,28.5)"
           id="g352"><path
             id="path354"
             style="fill:#f93d77;fill-opacity:1;fill-rule:nonzero;stroke:none"
             d="m 0,0 c 0,0 0.1,0.1 0.2,0 0.5,-0.1 1.2,-0.2 1.7,-0.2 h 0.6 c 0,0.6 0.3,1.3 0.6,1.7 0.1,0.1 0.2,0.1 0.3,0 C 3.5,1.4 3.5,1.3 3.4,1.2 3.1,0.9 2.9,0.3 2.9,-0.1 4,0.1 4.9,0.3 5.1,1.1 6.6,0.7 8,0.9 8.2,0 8.5,-1 0.7,-2.2 0.7,-2.2 0.5,-1.5 0.2,-0.6 0,0" /></g><g
           transform="translate(43.9,26.7)"
           id="g356"><path
             id="path358"
             style="fill:#b52652;fill-opacity:1;fill-rule:nonzero;stroke:none"
             d="m 0,0 c 0,-0.1 0.1,-0.3 0.1,-0.4 0,0 6.8,0.7 7.5,1.9 V 1.8 C 6,0.9 1.7,0.3 0,0" /></g><g
           transform="translate(43,30.3)"
           id="g360"><path
             id="path362"
             style="fill:#f93d77;fill-opacity:1;fill-rule:nonzero;stroke:none"
             d="M 0,0 C 1.4,0.3 2,0.4 3.3,0.8 V 0.9 C 1.9,0.5 1.4,0.4 0,0.1 Z" /></g><g
           transform="translate(31.4,33.1)"
           id="g364"><path
             id="path366"
             style="fill:#f93d77;fill-opacity:1;fill-rule:nonzero;stroke:none"
             d="m 0,0 c 0,0.2 -0.1,0.3 -0.2,0.4 l -0.2,-0.7 c 0.1,0 0.3,0.1 0.4,0.3 M 0.1,0.6 C 0.1,0.8 0,0.9 -0.1,1 L -0.3,0.4 c 0.2,-0.1 0.4,0 0.4,0.2 M 0.3,1.2 C 0.3,1.4 0.2,1.5 0.1,1.6 L -0.1,1 C 0.1,0.9 0.2,1 0.3,1.2 M 0.6,2.4 V 2.6 H 0.4 L 0.3,2.1 C 0.4,2.2 0.6,2.3 0.6,2.4 M 0.4,1.8 C 0.4,2 0.3,2.1 0.2,2.2 L 0,1.6 c 0.2,-0.1 0.4,0 0.4,0.2 m -0.6,-2.4 c 0,0.2 -0.1,0.3 -0.2,0.4 l -0.1,-0.4 c 0,-0.1 0.1,-0.1 0.3,0 0,-0.1 0,-0.1 0,0" /></g><g
           transform="translate(27.7,33.6)"
           id="g368"><path
             id="path370"
             style="fill:#fff8b3;fill-opacity:1;fill-rule:nonzero;stroke:none"
             d="M 0,0 C -0.1,0 0.8,2.9 0.9,2.9 1.8,2.8 3.7,2.3 4,2.2 L 3.1,-1.2 C 2.3,-0.8 0.6,-0.2 0,0" /></g><g
           transform="translate(29.7,33.6)"
           id="g372"><path
             id="path374"
             style="fill:#fff8b3;fill-opacity:1;fill-rule:nonzero;stroke:none"
             d="M 0,0 C 0.2,0 0.3,2.1 0.5,2.4 0,2.5 -0.7,3 -1.4,3.1 -1.9,3.2 -2.3,2.9 -2.5,2.5 -3.2,0.9 -5,-3.3 -3.9,-3.7 c 1,-0.4 2.3,2 3.9,3.7" /></g><g
           transform="translate(29.4,36.4)"
           id="g376"><path
             id="path378"
             style="fill:#f93d77;fill-opacity:1;fill-rule:nonzero;stroke:none"
             d="m 0,0 c 0,0 0,-0.1 -0.1,-0.2 -0.3,-0.4 -0.7,-0.9 -1,-1.4 -0.1,-0.2 -0.2,-0.3 -0.2,-0.5 0.5,-0.3 1,-0.9 1.2,-1.3 0,-0.1 0,-0.2 -0.1,-0.2 -0.1,0 -0.2,0 -0.2,0.1 -0.1,0.4 -0.5,0.8 -0.9,1.1 -0.4,-1.1 -0.6,-1.9 0.1,-2.5 -1,-1.1 -1.6,-2.4 -2.4,-2.2 -1,0.3 1.6,7.6 1.6,7.6 C -1.5,0.4 -0.5,0.2 0,0" /></g><g
           transform="translate(27.7,36.9)"
           id="g380"><path
             id="path382"
             style="fill:#b52652;fill-opacity:1;fill-rule:nonzero;stroke:none"
             d="m 0,0 c -0.1,0 -0.3,0.1 -0.4,0.1 0,0 -2.6,-6.3 -1.9,-7.5 l 0.2,-0.1 c 0,1.8 1.4,5.9 2.1,7.5" /></g><g
           transform="translate(31.2,35.9)"
           id="g384"><path
             id="path386"
             style="fill:#f93d77;fill-opacity:1;fill-rule:nonzero;stroke:none"
             d="m 0,0 c -0.4,-1.3 -0.5,-1.9 -0.8,-3.3 h 0.1 c 0.3,1.4 0.4,2 0.8,3.3 z" /></g><g
           id="g388"><g
             id="g390" /><g
             id="g402"><g
               style="opacity:0.38999903"
               id="g400"
               clip-path="url(#clipPath394)"><g
                 id="g398"
                 transform="translate(39.4,44.8)"><path
                   id="path396"
                   style="fill:#ffffff;fill-opacity:1;fill-rule:nonzero;stroke:none"
                   d="M 0,0 C 0.1,0.6 0.6,0.9 1.1,0.8 1.5,0.7 1.8,0.3 1.9,-0.1 2.1,0.2 2.5,0.5 2.9,0.5 3.4,0.4 3.8,0 3.7,-0.6 3.6,-1.5 1.4,-2.6 1.4,-2.6 1.4,-2.6 -0.2,-1 0,0" /></g></g></g></g><g
           id="g404"><g
             id="g406" /><g
             id="g418"><g
               style="opacity:0.11000103"
               id="g416"
               clip-path="url(#clipPath410)"><g
                 id="g414"
                 transform="translate(40.8,25.1)"><path
                   id="path412"
                   style="fill:#000000;fill-opacity:1;fill-rule:nonzero;stroke:none"
                   d="m 0,0 c 8.174,0 14.8,-0.627 14.8,-1.4 0,-0.773 -6.626,-1.4 -14.8,-1.4 -8.174,0 -14.8,0.627 -14.8,1.4 0,0.773 6.626,1.4 14.8,1.4" /></g></g></g></g></g></g></g></svg>