<?xml version="1.0" encoding="utf-8"?>
<!-- Generator: Adobe Illustrator 26.3.1, SVG Export Plug-In . SVG Version: 6.00 Build 0)  -->
<svg version="1.1" id="Layer_5" xmlns="http://www.w3.org/2000/svg" xmlns:xlink="http://www.w3.org/1999/xlink" x="0px" y="0px"
	 viewBox="0 0 608.8 1394.2" style="enable-background:new 0 0 608.8 1394.2;" xml:space="preserve">
<style type="text/css">
	.st0{fill:#AD5C49;}
	.st1{fill:#FFC19F;}
	.st2{fill:#F93D77;}
	.st3{fill:#224966;}
	.st4{fill:#BAEBF4;}
	.st5{fill:#F0FCFF;}
	.st6{opacity:0.35;fill:#FFFFFF;}
	.st7{opacity:0.24;}
	.st8{fill:#306484;}
	.st9{opacity:0.18;fill:#A50C0C;}
	.st10{opacity:0.12;}
	.st11{fill:#ED457D;}
	.st12{fill:#FFF8B3;}
	.st13{fill:#B52652;}
	.st14{opacity:0.19;fill:#601805;}
	.st15{fill:#F4B18C;}
	.st16{fill:#E0956C;}
	.st17{fill:#FF9797;}
	.st18{fill:#701608;}
	.st19{fill:#DD6B5B;}
	.st20{fill:#FFFFFF;}
	.st21{fill:#C4735B;}
	.st22{fill:#752912;}
	.st23{fill:#F9FEFF;}
	.st24{fill:#773220;}
	.st25{fill:#63190D;}
	.st26{fill:#FEFFFE;}
	.st27{fill:#EF2E78;}
	.st28{fill:#FF4387;}
	.st29{fill:#D81A63;}
</style>
<g>
	<g>
		<path class="st0" d="M517.7,604.5c42.9-116.8,48.9-198.4-10.9-439.1L40.2,199.7C-7.6,393.9-2,496.4,3.7,566.3
			c1.1-33.5-8.7-102.5,33.5-272c-36.7,213.6-36.3,281.8,5.2,317c-26.8-45.2-7.6-172.4-1.5-188.5c0.9,45.6-4,132.9,21,198.7
			c13.9,10.3,74.7,29.9,93.3,35c53.7,14.9,256.7-13.9,319.1-29c2.6-5.5,7.8-133.6,9.2-151.4c3.7,6,3.8,145.2,5.3,151
			c31.2-39.8,56.5-178.1,29.8-354.3C555.2,411.1,541.9,509.2,517.7,604.5z"/>
		<path class="st1" d="M463.4,1255.3c-11.9,4.3-61.6,8.9-77.2,9.3c-4.4-50-26.2-248.5-35.5-313.5c-2.3-16.1-39.1-17-42.3-0.2
			c-2,10.4-36.9,252.4-45.6,314.5c-25.2,2-54.7-2.1-76.5-9.4c0,0,21.1-422.7,23.8-487.2c42.4-6.8,195.2-7.5,240.8-0.5
			C458.5,835,458.1,1159.9,463.4,1255.3z"/>
		<path class="st2" d="M167.9,912.2c83,38.1,249,38.6,318.3-18.5c-13.4-118-47.1-294.5-64-341.3c-128.7,0.5-172.5,8.8-250.4,27.2
			C190.8,692.7,185.9,761.9,167.9,912.2z"/>
		<path class="st1" d="M472,771.8c1.2,4.8,33.8,20.3,62.6-13c22.7-26.2-18.9-110.5-25.4-130.5l-64.5,17.6
			C448.9,689.9,459.3,720.5,472,771.8z"/>
		<path class="st2" d="M558.1,677.6c-21.5,15.8-61.1,34.9-85.9,45c-38.5-40.5-78.4-165.3-78.8-169.6c30.2-1,55-1.2,65.2,3.1
			C477.9,577.1,526.8,638.9,558.1,677.6z"/>
		<g>
			<path class="st3" d="M462,875.1c-24.8,16.2-208.9,50.4-244.8,20.1c0,0,3.5-153,1.4-230.3c44.2-3.4,175.1-10.3,214.2-10.3
				C438.4,700.3,448.5,765.2,462,875.1z"/>
			<path class="st4" d="M248.3,685.3l-14,0.7c-1.2,0.1-2.2-0.9-2.3-2.1l-1.2-22.8l-8,0.4c-1.2,0.1-2.2-0.9-2.3-2l-0.8-14.9
				c-0.1-1.2,0.9-2.2,2.1-2.3l32.7-1.7c1.2-0.1,2.2,0.9,2.3,2.1l0.8,14.9c0.1,1.2-0.9,2.2-2.1,2.3l-6.4,0.3l1.2,22.8
				C250.4,684.2,249.5,685.2,248.3,685.3z M236.3,681.6l9.6-0.5l-1.2-22.8c-0.1-1.2,0.9-2.2,2.1-2.3l6.4-0.3l-0.6-10.6l-28.4,1.5
				l0.6,10.6l8-0.4c1.2-0.1,2.2,0.9,2.3,2.1L236.3,681.6z"/>
			<path class="st3" d="M226.1,647.7c-0.3-2.4-4.2-48.2-14.6-80.1l24.9-3.8c12.5,33.7,14.8,80.1,15.1,82.6L226.1,647.7z"/>
			<path class="st5" d="M231.9,684.5c1.2,5.4,6.5,8.9,11.9,7.7c5.4-1.2,8.9-6.5,7.7-11.9c-1.2-5.4-6.5-8.9-11.9-7.7
				C234.2,673.8,230.7,679.1,231.9,684.5z"/>
			<path class="st4" d="M421.7,671.1l-14,0.7c-1.2,0.1-2.2-0.9-2.3-2.1l-1.2-22.8l-8,0.4c-1.2,0.1-2.2-0.9-2.3-2.1l-0.8-14.9
				c-0.1-1.2,0.9-2.2,2.1-2.3l32.7-1.7c1.2-0.1,2.2,0.9,2.3,2.1l0.8,14.9c0.1,1.2-0.9,2.2-2.1,2.3l-6.4,0.3l1.2,22.8
				C423.9,670,422.9,671,421.7,671.1z M409.7,667.4l9.6-0.5l-1.2-22.8c-0.1-1.2,0.9-2.2,2.1-2.3l6.4-0.3l-0.6-10.6l-28.4,1.5
				l0.6,10.6l8-0.4c1.2-0.1,2.2,0.9,2.3,2.1L409.7,667.4z"/>
			<path class="st3" d="M399.5,633.5c-0.3-2.4-8.7-50.5-19.2-82.4l26.1-0.3c12.5,33.7,18.1,78.8,18.4,81.3L399.5,633.5z"/>
			<path class="st5" d="M405.3,670.3c1.2,5.4,6.5,8.9,11.9,7.7c5.4-1.2,8.9-6.5,7.7-11.9c-1.2-5.4-6.5-8.9-11.9-7.7
				C407.6,659.6,404.1,664.9,405.3,670.3z"/>
			<path class="st6" d="M370.8,701.3c-8.9,0.5-16.6,6.6-19.1,15.2c-0.5,1.9,0.5,3.8,2.4,4.3c0.4,0.1,0.8,0.2,1.2,0.1
				c1.4-0.1,2.8-1,3.2-2.5c1.7-5.8,6.8-9.8,12.8-10.2c6-0.3,11.5,3.2,13.8,8.8c0.7,1.8,2.8,2.7,4.6,1.9c1.8-0.7,2.6-2.8,1.9-4.6
				C388,706.1,379.7,700.8,370.8,701.3z M309.4,721c0.7,1.8,2.9,2.7,4.5,1.9c1.8-0.8,2.7-2.7,1.9-4.5c-3.3-8.3-11.6-13.6-20.6-13.1
				c-9,0.5-16.7,6.6-19.1,15.2c-0.5,1.9,0.6,3.8,2.4,4.3c0.4,0.1,0.7,0.2,1.1,0.1c1.4-0.1,2.8-1.1,3.2-2.5
				c1.6-5.8,6.8-9.8,12.8-10.1C301.7,711.9,307.2,715.4,309.4,721z M369.5,755.8c-3.3,6.8-8,9.8-13.8,9.1c-7.3-0.9-14.6-7.7-17-13.6
				c4.2-1.3,10-5.4,10.1-9.3c0-7.6-25.6-6.3-25.4,1.3c0.1,3.7,5.8,7,10.1,8.1c-1.8,6-7.9,13.1-14.8,14.8c-5.7,1.4-11-0.9-15.5-7
				c-0.6-0.9-1.8-1-2.6-0.4c-0.8,0.6-1,1.8-0.4,2.6c6.8,9.3,14.1,9.7,19.3,8.5c7.3-1.8,13.7-8.4,16.7-14.7
				c3.7,6.3,11.2,12.5,19,13.5c1,0.1,1.9,0.1,2.9,0.1c6.1-0.3,11.2-4.2,14.7-11.2c0.5-0.9,0.1-2-0.8-2.5
				C371.1,754.6,370,754.9,369.5,755.8z"/>
		</g>
		<g>
			<path class="st3" d="M491,860.3c0,0-117,4.8-157.1,4.2c-42-0.6-167.6-9.3-167.6-9.3s-14.9,128.1-24,194.7
				c45.5,8.8,118.7,17.9,164.2,20.2c9.2-72.9,11.8-113.2,19.6-114.3c0.6-0.1,1.5-0.6,2.6-1.4c1.1,0.8,2.1,1.4,2.6,1.5
				c7.8,1.3,9.2,41.7,16,114.8c45.5-0.8,119-7.6,164.7-15C505.1,988.8,491,860.3,491,860.3z"/>
			<path class="st7" d="M222.1,896.4c-3.3,60.4-37.9,80.8-70.6,72.8c2.9-24.8,6.6-57.3,9.1-77.7L222.1,896.4z"/>
			<path class="st3" d="M213.6,901c-5.8,41-24.6,73.1-75.6,68c3.9-28.9,7-51.6,9-73.2L213.6,901z"/>
			<polygon class="st8" points="135.2,1062.2 313.7,1076.6 317.2,1030.1 138.8,1015.7 			"/>
			<path class="st7" d="M436.8,899.8c1.4,60.4,35.3,82,68.2,74.9c-2.2-24.8-4.8-57.4-6.6-78L436.8,899.8z"/>
			<path class="st3" d="M445.2,904.6c4.5,41.2,22.3,73.8,73.5,70.3c-3-29-5.4-51.8-6.7-73.5L445.2,904.6z"/>
			<polygon class="st8" points="519.1,1068.2 340.3,1077 338.1,1030.4 517,1021.6 			"/>
			<polygon class="st8" points="135.2,1062.2 313.7,1076.6 317.2,1030.1 138.8,1015.7 			"/>
		</g>
		<path class="st1" d="M384.4,563.5c-0.2-3.9-1.1-7.7-2.4-11.3c-40.6,0.7-101.2,4.9-144.1,12c-0.2,1.7-0.8,3.4-0.7,5.1
			c1.2,30.5,35.1,53.9,75.8,52.3C353.6,620,385.6,594,384.4,563.5z"/>
		<path class="st1" d="M359,476.3l9.7,89.1c2.1,19.2-20.6,37.3-50.6,40.6c-30,3.3-56.1-9.6-58.2-28.7l-9.7-89.1L359,476.3z"/>
		<path class="st9" d="M402.2,512.9c0-4.4-0.9-8.6-2.1-12.7c-45.2-1.4-112.9,0.2-161,5.8c-0.3,1.9-1,3.7-1.1,5.7
			c-0.2,34,36.3,61.8,81.6,62.2C365,574.2,401.9,546.9,402.2,512.9z"/>
		<ellipse class="st10" cx="325.6" cy="1371.5" rx="283.2" ry="22.7"/>
		<g>
			<path class="st11" d="M376.2,1227.1c0.5,3.2,1,6,1.3,7.8l11.1-0.7c-0.3-4.9-4.5-8.8-9.4-8.5
				C378,1225.8,377.2,1226.7,376.2,1227.1z M442.2,1231.1l17.9-1c-0.3-4.9-4.5-8.7-9.4-8.4C445.7,1222,441.9,1226.2,442.2,1231.1z
				 M460.1,1230.1l14.7-0.8c0-1.1,0.1-3.4,0.1-6.4c-1.7-1.5-4-2.4-6.4-2.3C463.6,1221,459.8,1225.2,460.1,1230.1z M424.3,1232.2
				l17.9-1c-0.3-4.9-4.5-8.7-9.4-8.5C427.8,1223,424.1,1227.2,424.3,1232.2z M406.5,1233.2l17.9-1c-0.3-4.9-4.5-8.8-9.4-8.5
				C410,1224,406.2,1228.3,406.5,1233.2z M388.6,1234.2l17.9-1c-0.3-4.9-4.5-8.8-9.4-8.5C392.1,1225,388.3,1229.3,388.6,1234.2z"/>
			<path class="st12" d="M391.7,1328.2c0.5,2.6,84.3-5.4,84.5-8.6c1.6-26.4-1.2-80.5-1.4-90.3l-97.3,5.7
				C381.9,1262.1,388.7,1311.7,391.7,1328.2z"/>
			<path class="st12" d="M461.6,1272.4c-1.4-6.2-59.3,4.2-69.9,2.4c-0.3,14.3-8.5,37.5-8.1,56.9c0.3,13.6,11.6,23.5,24,25.7
				c47.9,8.7,174.4,34.8,180-0.3C592,1328.2,516.5,1306.3,461.6,1272.4z"/>
			<path class="st2" d="M383.7,1297.4c0.9-1.1,3.2-1.2,5,0.6c11.7,6.8,30.3,13.8,45.6,18.5c5.2,1.6,10.4,2.8,15.5,3.8
				c5-15.1,17.9-33.1,29.7-40.4c2.5-1.6,5.6-0.7,7.1,2c1.4,2.6,0.6,6-1.9,7.5c-9.1,5.7-19.6,20.1-24.3,32.2c31.9,4,56.2,3.6,68-16.8
				c37,21.6,75.6,28.9,74.6,53.6c-1.2,30.4-220.1,1.6-220.1,1.6C383.4,1341.6,383.2,1313.8,383.7,1297.4z"/>
			<path class="st13" d="M382.6,1348.8c0.1,4.1,0.1,8,0,11.4c0,0,189.3,34.3,218.7,7.2c1.1-1,2.3-5.8,1.7-7.4
				C550,1372,430.5,1356.1,382.6,1348.8z"/>
			<path class="st11" d="M475.3,1243.5c-39.5,4-56.4,4.6-95.6,5.5c-0.2-1.4-0.4-2.8-0.6-4.1c39.6-0.9,56.4-1.4,96.1-5.5
				C475.2,1240.7,475.2,1241.9,475.3,1243.5z"/>
		</g>
		<g>
			<path class="st11" d="M272,1225.7c-4.9-0.3-9.2,3.6-9.4,8.5l11.1,0.7c0.3-1.9,0.8-4.6,1.3-7.8
				C274,1226.7,273.2,1225.8,272,1225.7z M200.6,1221.7c-4.9-0.3-9.2,3.5-9.4,8.4l17.9,1C209.3,1226.2,205.5,1222,200.6,1221.7z
				 M182.7,1220.7c-2.5-0.1-4.7,0.7-6.4,2.3c0,2.9,0.1,5.3,0.1,6.4l14.8,0.8C191.5,1225.2,187.7,1221,182.7,1220.7z M218.5,1222.7
				c-4.9-0.3-9.2,3.5-9.4,8.5l17.9,1C227.2,1227.2,223.4,1223,218.5,1222.7z M236.3,1223.7c-4.9-0.3-9.2,3.5-9.4,8.5l17.9,1
				C245,1228.3,241.3,1224,236.3,1223.7z M254.2,1224.7c-4.9-0.3-9.2,3.6-9.4,8.5l17.9,1C262.9,1229.3,259.1,1225,254.2,1224.7z"/>
			<path class="st12" d="M259.6,1328.2c-0.5,2.6-84.3-5.4-84.5-8.6c-1.6-26.4,1.2-80.5,1.4-90.3l97.3,5.7
				C269.4,1262.1,262.6,1311.7,259.6,1328.2z"/>
			<path class="st12" d="M189.7,1272.4c1.4-6.2,59.3,4.2,69.9,2.4c0.3,14.3,8.5,37.5,8.1,56.9c-0.3,13.6-11.6,23.5-24,25.7
				c-47.9,8.7-174.4,34.8-180-0.3C59.2,1328.2,134.7,1306.3,189.7,1272.4z"/>
			<path class="st2" d="M267.5,1297.4c-0.9-1.1-3.2-1.2-5,0.6c-11.7,6.8-30.3,13.8-45.6,18.5c-5.2,1.6-10.4,2.8-15.5,3.8
				c-5-15.1-17.9-33.1-29.7-40.4c-2.5-1.6-5.6-0.7-7.1,2c-1.4,2.6-0.6,6,1.9,7.5c9.1,5.7,19.6,20.1,24.3,32.2
				c-31.9,4-56.2,3.6-68-16.8c-37,21.6-75.6,28.9-74.6,53.6c1.2,30.4,220.1,1.6,220.1,1.6C267.9,1341.6,268,1313.8,267.5,1297.4z"/>
			<path class="st13" d="M268.6,1348.8c0,4.1-0.1,8,0,11.4c0,0-189.3,34.3-218.7,7.2c-1.1-1-2.3-5.8-1.7-7.4
				C101.2,1372,220.7,1356.1,268.6,1348.8z"/>
			<path class="st11" d="M175.9,1243.5c39.5,4,56.4,4.6,95.6,5.5c0.2-1.4,0.4-2.8,0.6-4.1c-39.6-0.9-56.4-1.4-96.1-5.5
				C176,1240.7,176,1241.9,175.9,1243.5z"/>
		</g>
		<path class="st1" d="M522.4,657.5c-2.1-0.8-5.9-1.6-10.9-2.3c-6.6-1.7-21.4-3.2-28-1.8c-23.5,7.9-72.1,24.3-106.9,38.7
			c-24.3,10.1,1.4,45,26.2,41c17.7-2.9,36.5-15,54.1-28.9c2.5,1.2,5,2.5,7.6,4.2c5.3,3.7,12.5,26.4,22.6,23.8c6.2-1.6-0.9-25-4-28.1
			c-2.2-2.2-10.6-10.8-12.3-11.6c4,1.6,8.6,3.8,12.6,6.6c5.3,3.7,12.1,26.5,22.3,24c6.3-1.5-1.5-29.1-8.4-34.5
			c-1.4-1.2-11.5-7.5-14.8-8.9c3.6,1,15.7,5.5,19,8c8.2,6.2,12.7,27,22.6,21.9c4.5-2.3-5.4-28.3-9.6-31.8
			c-2.8-2.4-13.4-7.7-17.7-9.4c1.2,0.1,12.1,2.1,17.8,4.3c5.8,2.3,23.7,24.1,32.4,14.7C549.6,684.7,531.8,661.2,522.4,657.5z"/>
		<path class="st1" d="M434.7,716.5c-28.5,17.6-107.5,67.4-147.3,84.4c-30.8,13.1-69.6-48.4-30.5-65.4
			c45.7-19.9,112.4-40.4,144.3-48.9C413,685.6,432.1,711.8,434.7,716.5z"/>
		<path class="st1" d="M319.6,762.8c3,3.9-4.9,39.1-48.9,41.1c-34.6,1.6-74.3-64.3-86.1-81.8l52.9-58.7
			C269.5,694.1,287.1,721.2,319.6,762.8z"/>
		<path class="st14" d="M391.2,687.6c38.5,1.9,89.4,14.5,108.5,28.7c5.1,25.4-9.1,45.6-13,60.2c0.4,5.8,2.5,13.3,3.2,17.4
			c-36.3-8.4-103.1-26-152.8-45c-30.3-2.7-79.6-7.7-75-56.1C280.1,676.6,365.5,686.3,391.2,687.6z"/>
		<path class="st1" d="M323.8,679.4C357.1,683,463.1,701.9,499,714c31.7,10.7,27.4,75.1-15.3,66.3c-48.8-10-161-48.9-192.1-59.8
			C268.7,707.9,285.7,675.3,323.8,679.4z"/>
		<path class="st2" d="M170.4,774.6c27.5-11.8,89.3-50.2,110.7-66.3c-86.4-128-105.1-125-107.5-128.6c-7.1,1.9-41,55.8-42.7,70.3
			C128.9,667.3,148.8,720,170.4,774.6z"/>
		<path class="st1" d="M200.8,640.7c2.2-0.7,6-1.1,11-1.4c6.8-1.2,21.6-1.4,28.1,0.6c22.8,9.8,65.7,26.1,100.8,42.2
			c23.9,11,10.4,62.6-32.2,53.1c-28.2-6.3-29.9-27.1-46.3-42.4c-2.6,1-5.2,2.1-7.9,3.5c-5.6,3.2-14.6,25.2-24.5,21.8
			c-6.1-2.1,3-24.9,6.3-27.7c2.4-2,11.5-9.9,13.2-10.5c-4.1,1.3-8.9,3.1-13.1,5.5c-5.6,3.3-14.3,25.4-24.2,22.1
			c-6.1-2,3.9-28.8,11.2-33.7c1.5-1,12.1-6.5,15.5-7.7c-3.7,0.7-16.2,4.2-19.6,6.4c-8.7,5.5-14.9,25.9-24.4,19.9
			c-4.2-2.7,7.8-27.8,12.2-30.9c3-2.1,14-6.5,18.4-7.9c-1.2,0-12.2,1.1-18.1,2.8c-6,1.8-25.6,22-33.5,12
			C171.5,665.6,191.1,643.6,200.8,640.7z"/>
		<g>
			<g>
				<path class="st15" d="M527.6,366.8c-4.5,45.5-41.3,78.5-72.6,78.2c-31.3-0.3-42.5-35.7-43.3-78.8c-0.8-43.2,24-78,55.3-77.6
					C509.8,289.1,531.8,324.1,527.6,366.8z"/>
				<path class="st0" d="M35,259.2C41.2,429,184.5,505.8,319.2,486.3C453.9,466.8,535,336,497.9,175.2
					c-20.6-89.3-109.5-154.1-238-134.7C123,61.2,30.1,127.6,35,259.2z"/>
				<path class="st1" d="M95.7,210.1C87.3,239,140.8,477.6,173.3,507c34.5,31.2,162.8,42.8,187.9,39.1
					c26.8-3.9,111.3-49.3,128.4-91.5c20.2-49.9,0-257.9-12.2-282C435.9,91.1,361,99,263.5,113.1C172.3,126.3,117.3,135,95.7,210.1z"
					/>
				<path class="st1" d="M56.6,444.8c19.1,44.6,68.6,67,101.9,57.4c33.3-9.6,8.5-147-54.5-149.9C51.4,350,38.7,402.9,56.6,444.8z"/>
				<path class="st16" d="M94,437.2c5.6,19.2,30,32.5,45.8,24.6c6.2-3.1-14.9-69.9-25.2-68.4C97.2,396.1,88.4,418,94,437.2z"/>
				<path class="st17" d="M170.6,454c1,9.8,15.5,16.3,32.4,14.6c16.8-1.8,29.7-11.2,28.6-21c-1-9.8-15.5-16.3-32.4-14.6
					C182.4,434.8,169.6,444.2,170.6,454z"/>
				<g>
					<path class="st18" d="M415.2,422c-5.3-15.5-29.2-7.9-69.2-2.6c-2.1,0.3-10.2,1.4-12.3,1.7c-39.9,5.9-65,5.2-65.8,21.5
						c-1.6,31.5,41.7,59.6,82.3,54l0.7-0.1C391.4,490.7,425.3,451.8,415.2,422z"/>
					<path class="st19" d="M350.9,497.2l-0.7,0.1c-13.2,1.8-27.3,0-41-5.2l-0.8-0.3l0.6-0.7c9.2-10.9,22.7-18.1,37.9-20.3
						c15.2-2.1,30.2,1.1,42.1,9.1l0.7,0.5l-0.7,0.5C377.2,489.6,364.1,495.3,350.9,497.2z"/>
					<path class="st20" d="M342.7,440.7c-27.9,3.9-52.4-1.5-56.9-12.6l-0.3-0.7L394,412.2L394,413
						C392.6,424.9,370.6,436.8,342.7,440.7z"/>
				</g>
				<path class="st17" d="M431.1,414.4c1.8,8.6,13.7,13.4,26.6,10.7c12.9-2.7,21.9-11.8,20.1-20.4c-1.8-8.6-13.7-13.4-26.6-10.7
					C438.3,396.7,429.3,405.8,431.1,414.4z"/>
				<path class="st21" d="M322.3,400.1c1.1-0.2,1.9-1.1,1.9-2.2c0.2-8,5.6-13.9,13.8-15.1c8.3-1.2,15.3,3,17.5,10.5
					c0.4,1.2,1.6,1.9,2.8,1.5c1.2-0.4,1.9-1.6,1.5-2.8c-2.8-9.6-12.1-15.2-22.5-13.7c-10.4,1.5-17.5,9.3-17.7,19.4
					c0,1.3,1,2.3,2.2,2.3L322.3,400.1z"/>
				<path class="st22" d="M151.6,284.1c1.5-0.3,2.9-1.2,3.8-2.5c12.2-16.9,40.2-27.1,65.3-23.6c3.5,0.5,6.7-1.9,7.2-5.5
					c0.5-3.5-2-6.7-5.5-7.2c-29.9-4.1-62.4,8-77.4,28.9c-2.1,2.9-1.4,6.9,1.5,8.9C148,284.2,149.9,284.5,151.6,284.1z"/>
				<path class="st22" d="M471.7,235.2c1.7-0.2,3.3-1.1,4.3-2.6c2-2.8,1.3-6.6-1.5-8.6c-20.2-14.3-53.7-15.1-79.6-1.9
					c-3,1.6-4.2,5.3-2.7,8.3c1.6,3,5.3,4.3,8.3,2.7c21.7-11.1,50.4-10.6,66.8,1C468.7,235,470.2,235.3,471.7,235.2z"/>
				<g>
					<path class="st23" d="M387.8,377.6c0,0,60.4,13.2,76.7-25.6c19.9-47.3-25.9-75.7-51.2-65.1
						C389.8,296.6,371.5,324.9,387.8,377.6z"/>
					<path class="st24" d="M460.2,295.9c-13-14.2-28-17.1-43.1-13c-15.5,4.2-29.4,19.8-31.8,34.1c6.1-16.7,19.9-24.4,28.6-28.1
						c13.9-5.8,34.1-0.9,45,13.4c9.7,12.7,12.2,33.5,4.9,50.9C473.7,340.6,473.8,310.7,460.2,295.9z"/>
					<path class="st25" d="M395.5,329c-2.9,16.4,6.3,33.1,20.4,37.4c14.1,4.3,27.9-5.5,30.7-21.9c2.9-16.4-6.3-33.1-20.4-37.4
						C412.1,302.8,398.4,312.6,395.5,329z"/>
					<path class="st26" d="M396.8,323.8c-0.8,4.5,1.7,9.2,5.7,10.4c3.9,1.2,7.7-1.5,8.5-6.1c0.8-4.5-1.7-9.2-5.7-10.4
						C401.4,316.6,397.6,319.3,396.8,323.8z"/>
				</g>
				<g>
					<path class="st23" d="M285.8,393.2c0,0-64.5,31.8-95.6,0c-38-38.7,5-80.3,37.2-78.3C257.2,316.8,287.2,337.9,285.8,393.2z"/>
					<path class="st24" d="M176.7,338.5c10.2-17.7,26.3-25.2,44.9-26.1c19-0.9,39.9,9.5,47.3,22.4c-12.4-13.9-30.6-16.9-41.7-17.6
						c-17.7-1.1-39.1,10-46.9,27c-6.9,15.2-3.1,35.8,10.9,50C175.9,385.4,166.1,356.9,176.7,338.5z"/>
					<path class="st25" d="M197.2,358.5c-3.9,16.6,6.4,33.1,23,37c16.6,3.9,33.1-6.4,37-23c3.9-16.6-6.4-33.1-23-37
						C217.7,331.7,201.1,342,197.2,358.5z"/>
					<path class="st26" d="M199,353.3c-1.1,4.6,1.8,9.2,6.4,10.3c4.6,1.1,9.2-1.8,10.3-6.4c1.1-4.6-1.8-9.2-6.4-10.3
						C204.6,345.9,200.1,348.7,199,353.3z"/>
				</g>
				<path class="st0" d="M67.1,256.3c-16.7-1.8-1.1-123.1,74.8-168.7C267.5,23.3,362,36,398.6,52.5c67.5,30.4,99.8,66.3,121.3,150.9
					c12.8,50.5,10.3,67.8,38,76.6c-27.5,11.4-29,5.8-38.9-7c1.9,42,8.6,60.1,30.6,71.5c-34,13.2-50.5-9.2-56.3-42.1
					c-6.9-39.3-8.7-115-15.8-128.5c-4.1-7.8-51.6-48.2-63.9-47.2c-26.8,2.1-45.8,98.9-140.4,107.6c35.9-24.9,53.5-56.4,69.9-100.5
					c-6.9,5.3-13.8,11.5-20.4,18.9C252.7,230.5,183.1,255.6,115.9,257c18.5,69.7,38.1,158.5-36.7,169.9c6.6-10.4,20.6-60.2-3.6-94.9
					C67.1,338.6,70.6,303.1,67.1,256.3z"/>
			</g>
			<g>
				<path class="st27" d="M58.3,282.5c0.8-117,55.3-198.6,178.3-240.6c101-34.5,174,3.1,204.6,36c-45-34.2-103.3-54.4-205.1-17.2
					C142.9,94.8,75.1,159.6,58.3,282.5z"/>
				<path class="st28" d="M264.3,57.4c45.4,16,90.1,19.9,101.3,16c13.5-4.7,11.9-51.7-18.5-68.7C324.4-8,275,6.8,258.1,31.7
					C249.5,44.6,250.2,52.4,264.3,57.4z"/>
				<path class="st28" d="M246.1,66.2c-37.5,40.5-56.3,71.2-69.7,73.7c-16.3,3-70.5-57.3-57.5-80.1c13.7-24.1,93.9-32.4,119.5-21.3
					C254.3,45.4,257.7,53.7,246.1,66.2z"/>
				<path class="st29" d="M278.5,53.3c22.2-3.6,76.6-12.9,78.5,4C359.1,75.3,297.6,59.2,278.5,53.3z"/>
				<path class="st29" d="M230.7,72.6c-19.2,9.2-66.6,31.4-57,46.9C183.9,136.1,220,88.2,230.7,72.6z"/>
				<path class="st28" d="M270.1,43.9c2.4,9.1-3.5,18.5-13.1,21c-9.6,2.5-19.3-2.9-21.7-12c-2.4-9.1,3.5-18.5,13.1-21
					C258.1,29.5,267.8,34.8,270.1,43.9z"/>
			</g>
		</g>
	</g>
</g>
</svg>
