<?xml version="1.0" encoding="UTF-8" standalone="no"?>
<!DOCTYPE svg PUBLIC "-//W3C//DTD SVG 1.1//EN" "http://www.w3.org/Graphics/SVG/1.1/DTD/svg11.dtd">
<svg xmlns="http://www.w3.org/2000/svg" xmlns:xlink="http://www.w3.org/1999/xlink" version="1.1" width="128pt" height="128.21pt" viewBox="0 0 128 128.21">
<g enable-background="new">
<g>
<g id="Layer-1" data-name="Layer 1">
<clipPath id="cp0">
<path transform="matrix(1,0,0,-1,0,128.21)" d="M 0 128.21 L 128 128.21 L 128 0 L 0 0 Z "/>
</clipPath>
<g clip-path="url(#cp0)">
<path transform="matrix(1,0,0,-1,64,17.104905)" d="M 0 0 C 25.957 0 47 -21.043 47 -47 C 47 -72.957 25.957 -94 0 -94 C -25.957 -94 -47 -72.957 -47 -47 C -47 -21.043 -25.957 0 0 0 " fill="#00b0f0"/>
<path transform="matrix(1,0,0,-1,65,26.104905)" d="M 0 0 C 20.987 0 38 -17.013 38 -38 C 38 -58.987 20.987 -76 0 -76 C -20.987 -76 -38 -58.987 -38 -38 C -38 -17.013 -20.987 0 0 0 " fill="#ffc000"/>
</g>
<clipPath id="cp1">
<path transform="matrix(1,0,0,-1,0,128.21)" d="M 0 64.105 C 0 28.759 28.654 .105 64 .105 C 99.346 .105 128 28.759 128 64.105 C 128 99.451 99.346 128.105 64 128.105 C 28.654 128.105 0 99.451 0 64.105 "/>
</clipPath>
<g clip-path="url(#cp1)">
<path transform="matrix(1,0,0,-1,118,64.104907)" d="M 0 0 C 0 -29.823 -24.177 -54 -54 -54 L -54 -74 C -13.131 -74 20 -40.869 20 0 Z M -54 -54 C -83.823 -54 -108 -29.823 -108 0 L -128 0 C -128 -40.869 -94.869 -74 -54 -74 Z M -108 0 C -108 29.823 -83.823 54 -54 54 L -54 74 C -94.869 74 -128 40.869 -128 0 Z M -54 54 C -24.177 54 0 29.823 0 0 L 20 0 C 20 40.869 -13.131 74 -54 74 Z " fill="#70ad47"/>
</g>
<clipPath id="cp2">
<path transform="matrix(1,0,0,-1,0,128.21)" d="M 0 128.21 L 128 128.21 L 128 0 L 0 0 Z "/>
</clipPath>
<g clip-path="url(#cp2)">
<path transform="matrix(1,0,0,-1,45.908,72.38751)" d="M 0 0 C -1.933 0 -3.5 -1.567 -3.5 -3.5 C -3.5 -5.433 -1.933 -7 0 -7 Z M 0 0 C -3.136 0 -4.777 1.082 -5.74 2.342 C -6.821 3.755 -7.408 5.879 -7.408 8.391 L -14.408 8.391 C -14.408 4.958 -13.63 1.137 -11.301 -1.91 C -8.855 -5.109 -5.042 -7 0 -7 Z M -7.408 8.391 C -7.408 10.904 -6.821 13.028 -5.74 14.441 C -4.777 15.7 -3.136 16.783 0 16.783 L 0 23.783 C -5.042 23.783 -8.855 21.892 -11.301 18.692 C -13.63 15.646 -14.408 11.824 -14.408 8.391 Z M 0 16.783 C 1.595 16.783 3.905 15.849 7.05 13.684 C 10.091 11.59 13.342 8.762 16.792 5.753 C 20.16 2.816 23.728 -.301 27.164 -2.667 C 30.496 -4.961 34.323 -7 38.184 -7 L 38.184 0 C 36.589 0 34.279 .934 31.134 3.099 C 28.092 5.193 24.842 8.021 21.392 11.029 C 18.024 13.966 14.456 17.084 11.02 19.449 C 7.688 21.743 3.861 23.783 0 23.783 Z M 38.184 -7 C 43.226 -7 47.039 -5.109 49.485 -1.91 C 51.814 1.137 52.592 4.958 52.592 8.391 L 45.592 8.391 C 45.592 5.879 45.005 3.755 43.924 2.342 C 42.961 1.082 41.32 0 38.184 0 Z M 52.592 8.391 C 52.592 11.824 51.814 15.646 49.485 18.692 C 47.039 21.892 43.226 23.783 38.184 23.783 L 38.184 16.783 C 41.32 16.783 42.961 15.7 43.924 14.441 C 45.005 13.028 45.592 10.904 45.592 8.391 Z M 38.184 23.783 C 34.323 23.783 30.496 21.743 27.164 19.449 C 23.728 17.084 20.16 13.966 16.792 11.029 C 13.342 8.021 10.091 5.193 7.05 3.099 C 3.905 .934 1.595 0 0 0 L 0 -7 C 3.861 -7 7.688 -4.961 11.02 -2.667 C 14.456 -.301 18.024 2.816 21.392 5.753 C 24.842 8.762 28.092 11.59 31.134 13.684 C 34.279 15.849 36.589 16.783 38.184 16.783 Z " fill="#245080"/>
</g>
</g>
</g>
</g>
</svg>
