<?xml version="1.0" encoding="UTF-8"?>
<svg xmlns="http://www.w3.org/2000/svg" xmlns:xlink="http://www.w3.org/1999/xlink" width="520pt" height="520pt" viewBox="0 0 520 520" version="1.1">
<g id="surface1">
<path style=" stroke:none;fill-rule:nonzero;fill:rgb(100%,75.698853%,62.399292%);fill-opacity:1;" d="M 464.675781 352.691406 C 460.558594 386.8125 432.683594 411.757812 409.429688 411.707031 C 386.175781 411.65625 378.496094 385.1875 378.652344 352.839844 C 378.804688 320.484375 397.785156 294.21875 421.039062 294.351562 C 452.824219 294.539062 468.539062 320.613281 464.675781 352.691406 "/>
<path style=" stroke:none;fill-rule:nonzero;fill:rgb(87.799072%,58.399963%,42.399597%);fill-opacity:1;" d="M 434.707031 369.941406 C 428.148438 383.289062 413.390625 390.984375 401.742188 387.113281 C 390.085938 383.246094 385.960938 369.285156 392.527344 355.933594 C 399.089844 342.578125 413.839844 334.890625 425.488281 338.757812 C 437.136719 342.625 441.261719 356.582031 434.707031 369.941406 "/>
<path style=" stroke:none;fill-rule:nonzero;fill:rgb(19.198608%,33.299255%,42.698669%);fill-opacity:1;" d="M 437.34375 246.820312 C 437.742188 363.40625 361.183594 416.109375 253.722656 416.476562 C 146.257812 416.84375 67.269531 364.671875 66.871094 248.082031 C 66.472656 131.492188 145.191406 104.148438 252.65625 103.78125 C 360.117188 103.417969 436.949219 130.230469 437.34375 246.820312 "/>
<path style=" stroke:none;fill-rule:nonzero;fill:rgb(100%,75.698853%,62.399292%);fill-opacity:1;" d="M 424.414062 173.84375 C 428.503906 181.03125 423.832031 210.84375 423.898438 230.238281 C 424.117188 294.867188 427.972656 331.980469 429.527344 362.148438 C 432.632812 422.398438 361.667969 469.582031 313.902344 472.699219 C 307.515625 473.117188 160.164062 485.351562 137.480469 377.707031 C 125.414062 320.425781 107.046875 244.648438 114.789062 223.59375 C 140.945312 152.484375 165.53125 120.046875 254.378906 119.742188 C 337.488281 119.460938 392.167969 117.175781 424.414062 173.84375 "/>
<path style=" stroke:none;fill-rule:nonzero;fill:rgb(100%,75.698853%,62.399292%);fill-opacity:1;" d="M 59.941406 372.925781 C 74.5 406.488281 117.328125 425.035156 147.402344 419.378906 C 177.484375 413.722656 180.265625 385.066406 171.308594 352.34375 C 162.34375 319.617188 130.671875 297.585938 100.625 303.328125 C 59.546875 311.171875 46.257812 341.371094 59.941406 372.925781 "/>
<path style=" stroke:none;fill-rule:nonzero;fill:rgb(87.799072%,58.399963%,42.399597%);fill-opacity:1;" d="M 109.609375 380.644531 C 117.929688 395.492188 138.773438 400.796875 147.296875 396.363281 C 156.878906 391.375 156.277344 382.429688 151.515625 367.726562 C 145.945312 350.558594 135.910156 341.363281 121.730469 345.808594 C 106.992188 350.433594 99.8125 363.175781 109.609375 380.644531 "/>
<path style=" stroke:none;fill-rule:nonzero;fill:rgb(100%,59.199524%,59.199524%);fill-opacity:1;" d="M 226.597656 387.429688 C 226.226562 393.890625 215.609375 398.535156 202.886719 397.804688 C 190.164062 397.074219 180.152344 391.242188 180.523438 384.785156 C 180.894531 378.324219 191.507812 373.679688 204.230469 374.410156 C 216.953125 375.140625 226.96875 380.972656 226.597656 387.429688 "/>
<path style=" stroke:none;fill-rule:nonzero;fill:rgb(100%,59.199524%,59.199524%);fill-opacity:1;" d="M 419.382812 381.675781 C 419.699219 387.351562 412.554688 392.371094 403.429688 392.875 C 394.304688 393.382812 386.652344 389.1875 386.335938 383.511719 C 386.023438 377.832031 393.164062 372.816406 402.289062 372.308594 C 411.414062 371.800781 419.066406 375.996094 419.382812 381.675781 "/>
<path style=" stroke:none;fill-rule:nonzero;fill:rgb(97.599792%,99.598694%,100%);fill-opacity:1;" d="M 195.066406 329.476562 C 193.15625 347.136719 209.980469 363.445312 232.648438 365.894531 C 255.3125 368.34375 275.234375 356.011719 277.144531 338.351562 C 279.054688 320.6875 262.226562 304.382812 239.5625 301.929688 C 216.898438 299.480469 196.972656 311.8125 195.066406 329.476562 "/>
<path style=" stroke:none;fill-rule:nonzero;fill:rgb(37.599182%,13.299561%,12.5%);fill-opacity:1;" d="M 209.800781 357.617188 C 200.214844 350.773438 195.472656 339.347656 196.519531 329.632812 C 198.339844 312.800781 216.703125 300.175781 238.527344 302.542969 C 249.164062 303.695312 261.273438 307.191406 273.644531 322.222656 C 265.714844 305.730469 245.953125 298.058594 230.039062 298.425781 C 214.265625 298.789062 197.070312 306.878906 193.734375 323.324219 C 190.839844 337.582031 198.851562 352.78125 209.800781 357.617188 "/>
<path style=" stroke:none;fill-rule:nonzero;fill:rgb(27.49939%,11.399841%,7.798767%);fill-opacity:1;" d="M 212.425781 325.8125 C 207.785156 337.589844 213.570312 350.898438 225.34375 355.539062 C 237.121094 360.179688 250.429688 354.394531 255.070312 342.621094 C 259.710938 330.84375 253.925781 317.535156 242.152344 312.894531 C 230.375 308.253906 217.066406 314.039062 212.425781 325.8125 "/>
<path style=" stroke:none;fill-rule:nonzero;fill:rgb(99.598694%,100%,99.598694%);fill-opacity:1;" d="M 214.269531 322.164062 C 212.980469 325.429688 214.585938 329.125 217.855469 330.410156 C 221.121094 331.699219 224.8125 330.09375 226.097656 326.828125 C 227.386719 323.558594 225.78125 319.867188 222.515625 318.578125 C 219.25 317.292969 215.554688 318.898438 214.269531 322.164062 "/>
<path style=" stroke:none;fill-rule:nonzero;fill:rgb(97.599792%,99.598694%,100%);fill-opacity:1;" d="M 415.441406 328.726562 C 417.15625 346.375 403.097656 362.785156 384.027344 365.378906 C 364.960938 367.972656 348.113281 355.765625 346.394531 338.113281 C 344.675781 320.464844 358.738281 304.054688 377.804688 301.460938 C 396.871094 298.867188 413.722656 311.074219 415.441406 328.726562 "/>
<path style=" stroke:none;fill-rule:nonzero;fill:rgb(37.599182%,13.299561%,12.5%);fill-opacity:1;" d="M 403.210938 356.957031 C 411.238281 350.050781 415.160156 338.597656 414.214844 328.890625 C 412.578125 312.070312 397.039062 299.558594 378.679688 302.066406 C 369.730469 303.285156 359.558594 306.855469 349.238281 321.964844 C 355.8125 305.421875 372.402344 297.625 385.800781 297.894531 C 399.082031 298.160156 413.609375 306.140625 416.523438 322.566406 C 419.046875 336.804688 412.398438 352.054688 403.210938 356.957031 "/>
<path style=" stroke:none;fill-rule:nonzero;fill:rgb(27.49939%,11.399841%,7.798767%);fill-opacity:1;" d="M 354.753906 325.328125 C 350.855469 337.101562 355.730469 350.414062 365.648438 355.0625 C 375.566406 359.707031 386.765625 353.929688 390.664062 342.15625 C 394.566406 330.382812 389.691406 317.074219 379.773438 312.425781 C 369.855469 307.78125 358.65625 313.554688 354.753906 325.328125 "/>
<path style=" stroke:none;fill-rule:nonzero;fill:rgb(99.598694%,100%,99.598694%);fill-opacity:1;" d="M 356.304688 321.679688 C 355.222656 324.945312 356.574219 328.640625 359.324219 329.929688 C 362.078125 331.21875 365.183594 329.613281 366.265625 326.347656 C 367.351562 323.082031 365.996094 319.390625 363.246094 318.101562 C 360.492188 316.8125 357.386719 318.414062 356.304688 321.679688 "/>
<path style=" stroke:none;fill-rule:nonzero;fill:rgb(19.198608%,33.299255%,42.698669%);fill-opacity:1;" d="M 426.015625 257.152344 C 424.941406 257.347656 423.804688 257.15625 422.804688 256.542969 C 410.070312 248.714844 388.738281 249.773438 373.214844 258.988281 C 371.078125 260.273438 368.242188 259.554688 366.941406 257.378906 C 365.652344 255.207031 366.371094 252.398438 368.546875 251.101562 C 387.089844 240.113281 411.941406 239.09375 427.605469 248.75 C 429.757812 250.070312 430.429688 252.890625 429.101562 255.046875 C 428.398438 256.203125 427.257812 256.929688 426.015625 257.152344 "/>
<path style=" stroke:none;fill-rule:nonzero;fill:rgb(19.198608%,33.299255%,42.698669%);fill-opacity:1;" d="M 203.195312 258.644531 C 201.949219 258.488281 200.769531 257.820312 200.007812 256.699219 C 198.570312 254.617188 199.097656 251.765625 201.179688 250.332031 C 216.320312 239.910156 241.179688 239.601562 260.277344 249.636719 C 262.519531 250.820312 263.382812 253.585938 262.207031 255.820312 C 261.03125 258.066406 258.269531 258.933594 256.023438 257.753906 C 240.019531 249.347656 218.675781 249.402344 206.375 257.871094 C 205.410156 258.535156 204.28125 258.785156 203.195312 258.644531 "/>
<path style=" stroke:none;fill-rule:nonzero;fill:rgb(59.999084%,30.599976%,21.598816%);fill-opacity:1;" d="M 309.574219 411.234375 C 318.207031 411.207031 325.355469 407.632812 329.242188 401.210938 C 329.9375 400.054688 329.566406 398.554688 328.414062 397.855469 C 327.261719 397.183594 325.75 397.523438 325.058594 398.683594 C 321.488281 404.582031 314.0625 407.285156 305.253906 406.039062 C 295.617188 404.628906 284.542969 398.046875 281.546875 386.519531 C 281.207031 385.214844 279.875 384.429688 278.566406 384.769531 C 277.261719 385.109375 276.476562 386.445312 276.816406 387.75 C 280.375 401.445312 293.3125 409.226562 304.550781 410.871094 C 306.269531 411.121094 307.945312 411.238281 309.574219 411.234375 "/>
<path style=" stroke:none;fill-rule:nonzero;fill:rgb(77.598572%,54.899597%,45.899963%);fill-opacity:1;" d="M 332.699219 375.554688 C 331.921875 375.558594 331.234375 375 331.101562 374.207031 C 330.152344 368.59375 325.695312 364.976562 319.75 364.996094 C 313.773438 365.015625 309.242188 368.734375 308.472656 374.25 C 308.347656 375.132812 307.523438 375.753906 306.644531 375.625 C 305.761719 375.503906 305.144531 374.6875 305.269531 373.800781 C 306.253906 366.738281 312.207031 361.789062 319.742188 361.761719 C 327.230469 361.738281 333.078125 366.519531 334.289062 373.667969 C 334.4375 374.546875 333.84375 375.382812 332.964844 375.53125 Z M 332.699219 375.554688 "/>
<path style=" stroke:none;fill-rule:nonzero;fill:rgb(19.198608%,33.299255%,42.698669%);fill-opacity:1;" d="M 84.410156 196.21875 C 105.550781 164.175781 125.453125 145.613281 145.601562 150.671875 C 144.898438 146.898438 144.558594 143.121094 144.980469 139.359375 C 149.574219 98.859375 220.121094 75.90625 302.5625 88.097656 C 385.011719 100.277344 448.136719 142.996094 443.550781 183.503906 C 438.964844 224 368.410156 246.949219 285.96875 234.769531 C 234.902344 227.21875 191.296875 207.945312 166.550781 184.753906 C 166.777344 203.207031 157.460938 298.628906 146.925781 322.265625 C 112.222656 292.351562 88.03125 302.496094 83.253906 302.511719 C 66.1875 302.570312 59.96875 233.273438 84.410156 196.21875 "/>
<path style=" stroke:none;fill-rule:nonzero;fill:rgb(19.198608%,33.299255%,42.698669%);fill-opacity:1;" d="M 155.074219 101.507812 C 161.746094 80.8125 172.691406 63.492188 195.945312 56.550781 C 157.679688 30.582031 130.199219 59.460938 155.074219 101.507812 M 87.390625 114.082031 C 132.777344 104.105469 148.253906 117.261719 164.480469 136.214844 C 149.300781 86.894531 118.769531 62.140625 87.390625 114.082031 "/>
</g>
</svg>
