<?xml version="1.0" encoding="UTF-8"?>
<svg xmlns="http://www.w3.org/2000/svg" xmlns:xlink="http://www.w3.org/1999/xlink" width="520pt" height="520pt" viewBox="0 0 520 520" version="1.1">
<g id="surface1">
<path style=" stroke:none;fill-rule:nonzero;fill:rgb(95.698547%,69.398499%,54.899597%);fill-opacity:1;" d="M 65.09375 359.597656 C 73.515625 394.496094 103.65625 416.933594 126.070312 414.011719 C 148.488281 411.085938 152.445312 382.679688 148.066406 349.128906 C 143.691406 315.582031 121.960938 290.675781 99.558594 293.6875 C 68.9375 297.800781 57.175781 326.792969 65.09375 359.597656 "/>
<path style=" stroke:none;fill-rule:nonzero;fill:rgb(97.599792%,58.399963%,11.799622%);fill-opacity:1;" d="M 56.21875 261.046875 C 69.128906 380.988281 154.238281 426.398438 265.289062 414.441406 C 376.34375 402.484375 451.980469 339.769531 439.066406 219.828125 C 426.152344 99.886719 341.710938 80.796875 230.65625 92.753906 C 119.605469 104.710938 43.304688 141.105469 56.21875 261.046875 "/>
<path style=" stroke:none;fill-rule:nonzero;fill:rgb(100%,75.698853%,62.399292%);fill-opacity:1;" d="M 106.695312 411.035156 C 122.160156 461.179688 187.515625 492.683594 235.324219 486.902344 C 335.800781 474.75 433.75 404.765625 418.617188 264.203125 C 403.484375 123.648438 330.75 127.722656 232.132812 138.34375 C 166.277344 145.433594 111.460938 152.660156 88.9375 199.128906 C 75.042969 227.804688 97.195312 380.222656 106.695312 411.035156 "/>
<path style=" stroke:none;fill-rule:nonzero;fill:rgb(97.599792%,58.399963%,11.799622%);fill-opacity:1;" d="M 87.152344 71.976562 C 85.78125 88.765625 95.375 101.734375 110.890625 111.96875 C 99.109375 92.808594 95.855469 66.859375 114.203125 32.414062 C 130.46875 42.800781 147.746094 53.769531 165.011719 64.648438 C 162.640625 56.3125 161.804688 47.078125 163.070312 36.796875 C 191.957031 67.035156 218.128906 62.96875 306.957031 73.722656 C 367.730469 81.082031 383.886719 118.851562 378.960938 141.785156 C 337.808594 137.050781 281.742188 164.515625 238.125 169.214844 C 183.453125 175.101562 140.78125 170.027344 117.464844 156.960938 C 89.175781 141.109375 64.492188 106.503906 87.152344 71.976562 "/>
<path style=" stroke:none;fill-rule:nonzero;fill:rgb(45.899963%,16.099548%,7.099915%);fill-opacity:1;" d="M 161.5 229.074219 C 143.039062 221.675781 119.242188 225.578125 103.875 238.273438 C 100.78125 240.828125 100.480469 245.476562 103.082031 248.519531 C 104.488281 250.15625 106.457031 251.007812 108.449219 251.054688 C 110.171875 251.085938 111.800781 250.371094 113.328125 249.308594 C 124.464844 241.566406 142.207031 238.335938 156.152344 242.582031 C 159.960938 243.742188 164.09375 242.226562 165.582031 238.503906 C 167.058594 234.777344 165.222656 230.5625 161.5 229.074219 "/>
<path style=" stroke:none;fill-rule:nonzero;fill:rgb(45.899963%,16.099548%,7.099915%);fill-opacity:1;" d="M 331.8125 222.664062 C 316.277344 209.6875 284.765625 207.539062 263.609375 217.195312 C 259.964844 218.855469 258.226562 223.054688 259.816406 226.742188 C 261.398438 230.421875 265.621094 231.890625 269.363281 230.535156 C 290.777344 222.757812 309.808594 224.714844 322.695312 233.980469 C 324.207031 235.066406 325.90625 235.664062 327.625 235.574219 C 329.617188 235.472656 331.558594 234.558594 332.914062 232.882812 C 335.425781 229.761719 334.894531 225.234375 331.8125 222.664062 "/>
<path style=" stroke:none;fill-rule:nonzero;fill:rgb(97.599792%,58.399963%,11.799622%);fill-opacity:1;" d="M 359.167969 241.28125 C 367.09375 299.988281 392.964844 335.082031 417.945312 332.320312 C 442.925781 329.558594 453.6875 256.839844 447.179688 197.957031 C 439.726562 130.527344 401.15625 107.351562 375.640625 106.050781 C 350.539062 104.769531 350.160156 174.550781 359.167969 241.28125 "/>
<path style=" stroke:none;fill-rule:nonzero;fill:rgb(100%,75.698853%,62.399292%);fill-opacity:1;" d="M 463.910156 340.167969 C 457.050781 375.980469 424.253906 400.324219 398.289062 398.5625 C 372.328125 396.796875 368.574219 291.976562 414.390625 279.84375 C 452.542969 269.734375 470.359375 306.511719 463.910156 340.167969 "/>
<path style=" stroke:none;fill-rule:nonzero;fill:rgb(87.799072%,58.399963%,42.399597%);fill-opacity:1;" d="M 436.476562 340.734375 C 435.363281 357.175781 418.007812 372.15625 403.925781 368.582031 C 398.433594 367.1875 403.675781 309.769531 412.25 309.1875 C 426.746094 308.207031 437.59375 324.296875 436.476562 340.734375 "/>
<path style=" stroke:none;fill-rule:nonzero;fill:rgb(41.999817%,10.198975%,6.698608%);fill-opacity:1;" d="M 178.324219 326.339844 C 171.628906 314.042969 159.289062 307.128906 145.867188 308.03125 C 139.425781 308.425781 133.269531 310.304688 128.214844 313.914062 C 123.050781 317.605469 117.625 323.964844 115.398438 328.0625 C 115.082031 328.648438 114.625 329.128906 114.347656 329.738281 C 113.167969 332.332031 114.167969 335.410156 116.578125 336.597656 C 117.199219 336.90625 117.859375 337.058594 118.519531 337.066406 C 120.375 337.09375 122.195312 335.964844 123.054688 334.042969 C 127.144531 325 136.003906 318.992188 146.183594 318.371094 C 156.359375 317.597656 164.96875 322.617188 169.90625 331.707031 C 171.242188 334.148438 174.195312 334.917969 176.523438 333.453125 C 178.847656 331.96875 179.648438 328.792969 178.324219 326.339844 "/>
<path style=" stroke:none;fill-rule:nonzero;fill:rgb(100%,54.098511%,54.098511%);fill-opacity:1;" d="M 361.066406 350.304688 C 362.175781 358.367188 351.1875 366.535156 336.523438 368.550781 C 321.863281 370.566406 309.074219 365.660156 307.964844 357.597656 C 306.859375 349.535156 317.851562 341.363281 332.507812 339.351562 C 347.175781 337.335938 359.960938 342.242188 361.066406 350.304688 "/>
<path style=" stroke:none;fill-rule:nonzero;fill:rgb(100%,54.098511%,54.098511%);fill-opacity:1;" d="M 149.554688 368.511719 C 149.53125 375.730469 139.476562 381.550781 127.097656 381.503906 C 114.722656 381.460938 104.707031 375.574219 104.734375 368.355469 C 104.757812 361.136719 114.816406 355.320312 127.1875 355.359375 C 139.566406 355.402344 149.582031 361.292969 149.554688 368.511719 "/>
<path style=" stroke:none;fill-rule:nonzero;fill:rgb(43.899536%,8.599854%,3.09906%);fill-opacity:1;" d="M 292.003906 371.839844 C 287.871094 354.652344 265.417969 360.847656 228.179688 363.3125 C 226.230469 363.441406 218.660156 364.003906 216.707031 364.160156 C 179.511719 367.214844 156.394531 364.394531 154.839844 382.007812 C 151.847656 415.929688 190.492188 449.878906 228.300781 447.214844 L 228.957031 447.164062 C 266.746094 444.226562 299.960938 404.953125 292.003906 371.839844 "/>
<path style=" stroke:none;fill-rule:nonzero;fill:rgb(86.698914%,41.999817%,35.699463%);fill-opacity:1;" d="M 264.953125 433.367188 L 265.640625 432.863281 L 264.984375 432.273438 C 254.375 422.667969 240.726562 417.953125 226.546875 419.003906 C 212.34375 420.054688 199.535156 426.734375 190.480469 437.796875 L 189.921875 438.476562 L 190.675781 438.875 C 203.070312 445.628906 216.085938 448.769531 228.347656 447.910156 L 229.003906 447.863281 C 241.234375 446.902344 253.667969 441.878906 264.953125 433.367188 "/>
<path style=" stroke:none;fill-rule:nonzero;fill:rgb(100%,100%,100%);fill-opacity:1;" d="M 272.796875 359.796875 L 272.898438 359.015625 L 171.84375 366.503906 L 172.058594 367.261719 C 175.703125 379.621094 198.050781 387.476562 224.0625 385.546875 C 250.046875 383.625 271 372.558594 272.796875 359.796875 "/>
<path style=" stroke:none;fill-rule:nonzero;fill:rgb(76.899719%,45.098877%,35.699463%);fill-opacity:1;" d="M 202.101562 347.695312 C 202.851562 347.652344 203.484375 347.070312 203.566406 346.300781 C 204.152344 340.8125 208.242188 337.050781 213.988281 336.71875 C 219.769531 336.382812 224.371094 339.710938 225.445312 344.996094 C 225.617188 345.839844 226.449219 346.390625 227.289062 346.214844 C 228.136719 346.046875 228.683594 345.21875 228.511719 344.371094 C 227.140625 337.601562 221.089844 333.171875 213.804688 333.59375 C 206.5625 334.011719 201.195312 338.984375 200.449219 345.964844 C 200.359375 346.828125 200.984375 347.597656 201.84375 347.691406 Z M 202.101562 347.695312 "/>
<path style=" stroke:none;fill-rule:nonzero;fill:rgb(41.999817%,10.198975%,6.698608%);fill-opacity:1;" d="M 257.003906 318.886719 C 264.207031 304.417969 278.511719 295.433594 294.628906 295.105469 C 302.363281 294.90625 309.851562 296.398438 316.136719 299.945312 C 322.5625 303.574219 329.472656 310.167969 332.402344 314.546875 C 332.824219 315.175781 333.402344 315.664062 333.773438 316.324219 C 335.355469 319.121094 334.363281 322.671875 331.558594 324.242188 C 330.832031 324.65625 330.054688 324.886719 329.265625 324.964844 C 327.046875 325.179688 324.796875 324.09375 323.640625 322.023438 C 318.148438 312.28125 307.152344 306.421875 294.9375 306.738281 C 282.703125 306.890625 272.738281 313.382812 267.429688 324.074219 C 265.996094 326.949219 262.511719 328.105469 259.625 326.695312 C 256.75 325.257812 255.578125 321.777344 257.003906 318.886719 "/>
</g>
</svg>
