<?xml version="1.0" encoding="UTF-8"?>
<svg xmlns="http://www.w3.org/2000/svg" xmlns:xlink="http://www.w3.org/1999/xlink" width="520pt" height="520pt" viewBox="0 0 520 520" version="1.1">
<g id="surface1">
<path style=" stroke:none;fill-rule:nonzero;fill:rgb(96.899414%,66.299438%,50.59967%);fill-opacity:1;" d="M 451.914062 342.953125 C 445.355469 368.554688 426.136719 382.097656 412.664062 377.230469 C 399.1875 372.363281 397.964844 350.253906 402.007812 325.210938 C 406.054688 300.167969 420.269531 283.75 433.738281 288.679688 C 452.140625 295.421875 458.074219 318.894531 451.914062 342.953125 "/>
<path style=" stroke:none;fill-rule:nonzero;fill:rgb(20.799255%,16.499329%,15.299988%);fill-opacity:1;" d="M 69.25 256.078125 C 89.996094 371.015625 162.097656 425.753906 271.144531 418.050781 C 380.1875 410.34375 439.808594 342.582031 447.433594 231.898438 C 450.824219 182.648438 440.503906 151.933594 424.875 128.421875 C 394.125 82.160156 342.503906 58.070312 252.796875 57.585938 C 208.027344 57.347656 168.957031 69.097656 145.753906 86.796875 C 140.898438 91.925781 137.1875 96.167969 134.011719 103.714844 C 113.277344 106.832031 91.535156 126.007812 82.828125 140.398438 C 71.480469 159.148438 59.691406 203.117188 69.25 256.078125 "/>
<path style=" stroke:none;fill-rule:nonzero;fill:rgb(100%,75.698853%,62.399292%);fill-opacity:1;" d="M 127.558594 197.109375 C 119.605469 218.398438 138.847656 382.089844 160.761719 406.9375 C 188.734375 438.660156 239.316406 465.96875 313.488281 462.039062 C 366.335938 459.238281 403.722656 424.726562 417.617188 392.203125 C 426.367188 371.722656 430.148438 326.824219 427.628906 273.6875 C 425.769531 234.449219 430.046875 203.738281 423.359375 183.585938 C 406.90625 133.988281 334.9375 128.261719 260.253906 133.476562 C 190.386719 138.355469 148.183594 141.871094 127.558594 197.109375 "/>
<path style=" stroke:none;fill-rule:nonzero;fill:rgb(20.799255%,16.499329%,15.299988%);fill-opacity:1;" d="M 189.472656 146.492188 C 165.167969 148.703125 96.773438 162.453125 95 163.644531 C 102.589844 193.539062 131.734375 342.933594 133.25 355.886719 C 153.449219 352.148438 158.230469 336.179688 153.222656 298.902344 C 150.921875 281.789062 142.027344 212.726562 147.660156 199.253906 C 153.167969 186.082031 166.164062 170.25 189.835938 158.167969 C 189.699219 154.273438 189.574219 150.382812 189.472656 146.492188 "/>
<path style=" stroke:none;fill-rule:nonzero;fill:rgb(100%,75.698853%,62.399292%);fill-opacity:1;" d="M 83.1875 359.417969 C 95.703125 389.726562 128.667969 403.445312 149.636719 398.039062 C 165.960938 393.832031 165.429688 365.773438 158.277344 339.601562 C 150.574219 311.414062 133.46875 296.234375 111.417969 297.578125 C 81.816406 299.382812 72.046875 332.441406 83.1875 359.417969 "/>
<path style=" stroke:none;fill-rule:nonzero;fill:rgb(87.799072%,58.399963%,42.399597%);fill-opacity:1;" d="M 111.339844 354.980469 C 114.472656 368.679688 132.265625 379.402344 144.15625 373.710938 C 148.160156 371.792969 134.867188 327.28125 128.425781 327.488281 C 113.777344 327.960938 108.203125 341.277344 111.339844 354.980469 "/>
<path style=" stroke:none;fill-rule:nonzero;fill:rgb(24.699402%,11.399841%,9.799194%);fill-opacity:1;" d="M 414.734375 237.53125 C 415.933594 237.632812 417.167969 237.199219 418.097656 236.207031 C 419.78125 234.410156 419.828125 231.492188 418.210938 229.6875 C 406.40625 216.558594 383.203125 211.5625 364.605469 217.546875 C 362.34375 218.269531 361.214844 221.378906 361.863281 223.8125 C 362.515625 226.25 364.828125 227.425781 367.109375 226.867188 C 382.523438 223.089844 401.28125 226.671875 411.117188 235.839844 C 411.917969 236.585938 413.328125 237.410156 414.734375 237.53125 "/>
<path style=" stroke:none;fill-rule:nonzero;fill:rgb(24.699402%,11.399841%,9.799194%);fill-opacity:1;" d="M 176.636719 251.851562 C 178.03125 251.570312 179.320312 250.835938 180.222656 249.6875 C 191.328125 235.585938 216.539062 226.691406 238.914062 229.007812 C 242.144531 229.335938 244.96875 227.261719 245.445312 224.398438 C 245.925781 221.53125 243.769531 218.941406 240.648438 218.621094 C 213.980469 215.835938 184.664062 226.449219 171.003906 243.804688 C 169.117188 246.199219 169.660156 249.449219 172.203125 251.074219 C 173.535156 251.914062 175.140625 252.148438 176.636719 251.851562 "/>
<path style=" stroke:none;fill-rule:nonzero;fill:rgb(43.899536%,8.599854%,3.09906%);fill-opacity:1;" d="M 252.363281 371.195312 C 254.007812 356.75 274.003906 359.3125 306.296875 357.203125 C 307.988281 357.089844 314.5625 356.710938 316.257812 356.628906 C 348.582031 355 368.148438 350.152344 371.441406 364.308594 C 377.789062 391.582031 348.335938 423.472656 315.527344 425.476562 L 314.957031 425.511719 C 282.136719 427.296875 249.207031 399.015625 252.363281 371.195312 "/>
<path style=" stroke:none;fill-rule:nonzero;fill:rgb(86.698914%,41.999817%,35.699463%);fill-opacity:1;" d="M 314.996094 426.085938 L 315.566406 426.050781 C 326.207031 425.394531 337.046875 421.402344 346.957031 414.535156 L 347.558594 414.128906 L 347 413.640625 C 337.984375 405.640625 326.226562 401.617188 313.898438 402.332031 C 301.589844 403.042969 290.375 408.390625 282.320312 417.378906 L 281.824219 417.929688 L 282.46875 418.265625 C 293.121094 423.941406 304.371094 426.65625 314.996094 426.085938 "/>
<path style=" stroke:none;fill-rule:nonzero;fill:rgb(100%,100%,100%);fill-opacity:1;" d="M 313.699219 374.8125 C 336.277344 373.507812 354.625 364.644531 356.382812 354.1875 C 356.382812 354.1875 328.535156 355.492188 317.613281 356.058594 C 305.695312 356.675781 271.3125 358.710938 268.925781 359.246094 C 271.894531 369.429688 291.140625 376.117188 313.699219 374.8125 "/>
<path style=" stroke:none;fill-rule:nonzero;fill:rgb(76.899719%,45.098877%,35.699463%);fill-opacity:1;" d="M 333.339844 339.710938 C 332.558594 339.742188 331.847656 339.210938 331.679688 338.417969 C 330.503906 332.800781 325.878906 329.335938 319.894531 329.589844 C 313.878906 329.84375 309.464844 333.765625 308.90625 339.347656 C 308.8125 340.242188 308.011719 340.898438 307.121094 340.804688 C 306.226562 340.714844 305.574219 339.914062 305.664062 339.023438 C 306.378906 331.875 312.179688 326.65625 319.757812 326.335938 C 327.296875 326.015625 333.371094 330.601562 334.871094 337.75 C 335.054688 338.628906 334.488281 339.492188 333.609375 339.675781 Z M 333.339844 339.710938 "/>
<path style=" stroke:none;fill-rule:nonzero;fill:rgb(100%,54.098511%,54.098511%);fill-opacity:1;" d="M 378.960938 353.578125 C 380.476562 360.511719 390.746094 364.15625 401.898438 361.71875 C 413.050781 359.28125 420.863281 351.679688 419.347656 344.746094 C 417.832031 337.8125 407.558594 334.164062 396.410156 336.605469 C 385.253906 339.042969 377.445312 346.644531 378.960938 353.578125 "/>
<path style=" stroke:none;fill-rule:nonzero;fill:rgb(100%,54.098511%,54.098511%);fill-opacity:1;" d="M 230.164062 362.253906 C 229.519531 369.902344 218.097656 375.183594 204.648438 374.046875 C 191.207031 372.914062 180.828125 365.792969 181.476562 358.140625 C 182.121094 350.496094 193.546875 345.214844 206.988281 346.347656 C 220.433594 347.484375 230.8125 354.605469 230.164062 362.253906 "/>
<path style=" stroke:none;fill-rule:nonzero;fill:rgb(97.599792%,99.598694%,100%);fill-opacity:1;" d="M 350.078125 331.828125 C 350.078125 331.828125 375.875 337.695312 393.722656 324.410156 C 408.132812 313.683594 414.953125 289.992188 410.476562 281.851562 C 406.148438 273.984375 381.960938 273.59375 369.320312 285.90625 C 351.46875 303.292969 350.078125 331.828125 350.078125 331.828125 "/>
<path style=" stroke:none;fill-rule:nonzero;fill:rgb(27.49939%,11.399841%,7.798767%);fill-opacity:1;" d="M 355.683594 306.671875 C 356.863281 318.234375 364.898438 327.160156 374.636719 327.132812 C 385.195312 327.105469 393.761719 316.566406 393.769531 303.601562 C 393.777344 290.632812 385.226562 280.148438 374.667969 280.175781 C 365.234375 286.964844 358.332031 300.097656 355.683594 306.671875 "/>
<path style=" stroke:none;fill-rule:nonzero;fill:rgb(97.599792%,99.598694%,100%);fill-opacity:1;" d="M 368.285156 296.34375 C 369.675781 299.097656 368.929688 302.605469 366.625 304.1875 C 364.316406 305.765625 361.316406 304.8125 359.925781 302.058594 C 358.535156 299.304688 359.28125 295.792969 361.589844 294.214844 C 363.894531 292.636719 366.894531 293.589844 368.285156 296.34375 "/>
<path style=" stroke:none;fill-rule:nonzero;fill:rgb(33.699036%,22.698975%,21.199036%);fill-opacity:1;" d="M 408.015625 305.15625 C 410.695312 297.960938 410.027344 285.113281 407.792969 281.640625 C 406.558594 279.71875 404.835938 278.585938 401.101562 277.71875 C 392.539062 275.722656 379.097656 277.722656 370.710938 285.886719 C 364.46875 291.964844 358.839844 300.328125 354.375 310.832031 C 356.632812 301.710938 361.289062 291.425781 367.375 285.21875 C 386.035156 266.199219 409.96875 274.277344 411.449219 276.964844 C 414.042969 281.683594 413.113281 296.507812 408.015625 305.15625 "/>
<path style=" stroke:none;fill-rule:nonzero;fill:rgb(97.599792%,99.598694%,100%);fill-opacity:1;" d="M 276.511719 335 C 276.511719 335 248.039062 344.371094 223.539062 335.453125 C 203.757812 328.253906 189.792969 306.921875 193.101562 298.109375 C 196.300781 289.597656 222.378906 283.933594 240.472656 293.011719 C 267.457031 306.5625 276.511719 335 276.511719 335 "/>
<path style=" stroke:none;fill-rule:nonzero;fill:rgb(27.49939%,11.399841%,7.798767%);fill-opacity:1;" d="M 206.964844 312.804688 C 207.816406 325.742188 218.578125 335.570312 231.007812 334.753906 C 243.433594 333.9375 252.820312 322.789062 251.972656 309.851562 C 251.632812 304.675781 249.707031 299.996094 246.71875 296.300781 C 239.320312 292.199219 233.238281 289.925781 227.933594 287.902344 C 215.503906 288.71875 206.117188 299.867188 206.964844 312.804688 "/>
<path style=" stroke:none;fill-rule:nonzero;fill:rgb(97.599792%,99.598694%,100%);fill-opacity:1;" d="M 222.589844 302.921875 C 224.199219 305.660156 223.28125 309.183594 220.539062 310.792969 C 217.800781 312.398438 214.277344 311.480469 212.671875 308.742188 C 211.0625 306.003906 211.984375 302.480469 214.722656 300.871094 C 217.460938 299.265625 220.984375 300.183594 222.589844 302.921875 "/>
<path style=" stroke:none;fill-rule:nonzero;fill:rgb(33.699036%,22.698975%,21.199036%);fill-opacity:1;" d="M 201.785156 320.015625 C 196.824219 313.667969 192.429688 302.363281 194.226562 298.535156 C 195.222656 296.417969 197.945312 294.140625 202.164062 292.492188 C 211.855469 288.710938 227.9375 288.042969 239.925781 294.085938 C 248.847656 298.582031 257.601562 305.414062 265.507812 314.558594 C 260.570312 306.265625 252.496094 297.375 243.726562 292.71875 C 216.84375 278.453125 190.488281 290.878906 189.394531 293.792969 C 187.472656 298.894531 193.585938 312.796875 201.785156 320.015625 "/>
<path style=" stroke:none;fill-rule:nonzero;fill:rgb(20.799255%,16.499329%,15.299988%);fill-opacity:1;" d="M 352.078125 205.910156 C 354.0625 192.824219 355.070312 170.085938 350.308594 152.714844 C 360.207031 175.863281 364.488281 197.890625 364.253906 205.335938 C 372.820312 205.972656 395.070312 210.132812 405.414062 212.546875 C 406.277344 206.230469 407.316406 196.261719 407.050781 184.535156 C 412.621094 196.589844 414.589844 207.53125 414.238281 215.8125 C 425.28125 218.828125 439.488281 228.78125 447.410156 231.394531 C 451.34375 186.519531 446.558594 153.445312 425.9375 124.660156 C 363.636719 37.695312 191.1875 55.742188 138.882812 132.753906 C 117.84375 163.730469 118.40625 199.464844 132.527344 257.476562 C 143.097656 247.5625 160.40625 237.5 171.777344 230.972656 C 173.285156 226.023438 174.800781 212.644531 177.644531 206.40625 C 177.753906 214.824219 178.339844 222.355469 178.796875 226.429688 C 182.734375 223.6875 191.460938 219.769531 194.78125 217.519531 C 195.953125 185.765625 202.230469 156.351562 207.949219 150.671875 C 216.328125 183.839844 222.4375 205.320312 228.347656 212.910156 Z M 352.078125 205.910156 "/>
</g>
</svg>
