<?xml version="1.0" encoding="UTF-8"?>
<svg xmlns="http://www.w3.org/2000/svg" xmlns:xlink="http://www.w3.org/1999/xlink" width="520pt" height="520pt" viewBox="0 0 520 520" version="1.1">
<g id="surface1">
<path style=" stroke:none;fill-rule:nonzero;fill:rgb(90.99884%,21.598816%,0%);fill-opacity:1;" d="M 29.972656 294.097656 C 58.832031 271.507812 64.738281 235.539062 67.265625 189.332031 C 70.628906 127.878906 121.800781 68.546875 237.09375 62.574219 C 354.496094 56.492188 393.902344 91.566406 417.898438 135.589844 C 441.636719 179.140625 443.882812 239.929688 470.988281 254.144531 C 482.761719 260.320312 494.007812 269.554688 493.015625 278.835938 C 491.75 290.683594 482.574219 294.355469 475.09375 296.175781 C 479.085938 301.148438 487.789062 305.242188 499.160156 310.722656 C 499.972656 319.917969 493.203125 332.621094 478.207031 338.371094 C 489.382812 348.042969 494.570312 358.925781 495.007812 369.578125 C 496.140625 397.042969 443.117188 423.585938 410.679688 420.886719 C 411.890625 472.242188 225.699219 491.816406 188.738281 472.949219 C 136.539062 491.519531 93.484375 457.40625 88.101562 445.265625 C 99.871094 442.140625 104.558594 433.042969 106.738281 426.390625 C 72.851562 447.921875 49.558594 421.105469 63.742188 409.890625 C 9.597656 402.988281 16.710938 351.285156 48.828125 334.359375 C 27.679688 336.230469 8.960938 310.550781 29.972656 294.097656 "/>
<path style=" stroke:none;fill-rule:nonzero;fill:rgb(96.899414%,66.299438%,50.59967%);fill-opacity:1;" d="M 74.921875 335.628906 C 83.515625 360.613281 103.757812 372.574219 116.796875 366.640625 C 129.839844 360.707031 129.28125 338.570312 123.238281 313.933594 C 117.195312 289.296875 101.707031 274.074219 88.679688 280.066406 C 70.875 288.265625 66.847656 312.140625 74.921875 335.628906 "/>
<path style=" stroke:none;fill-rule:nonzero;fill:rgb(90.99884%,21.598816%,0%);fill-opacity:1;" d="M 434.226562 189.027344 C 447.417969 317.222656 345.773438 389.773438 240.515625 389.101562 C 135.261719 388.433594 59.210938 298.558594 70.671875 173.878906 C 77.03125 104.648438 138.226562 46.742188 238.777344 48.042969 C 345.800781 49.429688 424 89.652344 434.226562 189.027344 "/>
<path style=" stroke:none;fill-rule:nonzero;fill:rgb(100%,75.698853%,62.399292%);fill-opacity:1;" d="M 92.867188 170.230469 C 110.957031 103.207031 169.6875 102.578125 245.445312 103.023438 C 316.316406 103.441406 373.613281 103.886719 397.960938 158.03125 C 407.34375 178.898438 367.316406 359.925781 347.09375 386.554688 C 332.339844 405.988281 267.90625 436.789062 216.476562 438.464844 C 182.527344 439.570312 123.714844 408.738281 106.703125 381.109375 C 91.90625 357.082031 94.355469 304.933594 92.800781 254.992188 C 91.550781 214.785156 88.445312 186.628906 92.867188 170.230469 "/>
<path style=" stroke:none;fill-rule:nonzero;fill:rgb(90.99884%,21.598816%,0%);fill-opacity:1;" d="M 357.976562 229.695312 C 351.4375 271.054688 359.21875 322.109375 383.59375 321.769531 C 407.96875 321.425781 428.328125 241.800781 420.464844 184.886719 C 413.824219 136.824219 380.777344 94.664062 349.09375 86.476562 C 346.625 85.84375 313.195312 128.015625 315.726562 128.316406 C 369.808594 134.75 365.566406 181.703125 357.976562 229.695312 "/>
<path style=" stroke:none;fill-rule:nonzero;fill:rgb(90.99884%,21.598816%,0%);fill-opacity:1;" d="M 107.574219 157.660156 C 82.910156 147.128906 68.601562 123.75 75.269531 92.410156 C 79.085938 101.972656 88.183594 107.542969 98.554688 106.648438 C 86.90625 84.667969 93.53125 46.742188 134.546875 40.003906 C 125.734375 66.808594 142.757812 62.097656 193.417969 52.625 C 249.390625 42.15625 301.253906 62.292969 325.488281 86.179688 C 333.441406 98.230469 347.382812 117.992188 331.058594 138.738281 C 319.328125 153.648438 279.125 185.179688 203.214844 186.671875 C 220.710938 181.398438 250.230469 179.066406 292.875 137.648438 C 279.558594 147.550781 214.640625 184.519531 158.238281 176.898438 C 169.3125 173.988281 205.371094 169.378906 224.921875 155.617188 C 166.605469 172.109375 132.304688 168.21875 107.574219 157.660156 "/>
<path style=" stroke:none;fill-rule:nonzero;fill:rgb(100%,75.698853%,62.399292%);fill-opacity:1;" d="M 429.324219 327.304688 C 417.777344 357.992188 385.261719 372.753906 364.132812 368.011719 C 347.683594 364.324219 347.324219 336.261719 353.644531 309.878906 C 360.453125 281.460938 377.066406 265.75 399.152344 266.390625 C 428.792969 267.253906 439.601562 299.988281 429.324219 327.304688 "/>
<path style=" stroke:none;fill-rule:nonzero;fill:rgb(87.799072%,58.399963%,42.399597%);fill-opacity:1;" d="M 401.046875 323.761719 C 398.347656 337.554688 380.90625 348.835938 368.835938 343.523438 C 364.777344 341.730469 376.652344 296.820312 383.097656 296.824219 C 397.75 296.832031 403.746094 309.96875 401.046875 323.761719 "/>
<path style=" stroke:none;fill-rule:nonzero;fill:rgb(100%,54.098511%,54.098511%);fill-opacity:1;" d="M 350.164062 333.210938 C 350.402344 340.703125 340.1875 347.101562 327.34375 347.507812 C 314.503906 347.914062 303.902344 342.167969 303.664062 334.679688 C 303.425781 327.1875 313.648438 320.789062 326.488281 320.382812 C 339.328125 319.976562 349.929688 325.722656 350.164062 333.210938 "/>
<path style=" stroke:none;fill-rule:nonzero;fill:rgb(100%,54.098511%,54.098511%);fill-opacity:1;" d="M 139.863281 339.164062 C 139.410156 345.8125 130.96875 350.65625 120.996094 349.980469 C 111.035156 349.308594 103.3125 343.375 103.765625 336.722656 C 104.214844 330.078125 112.660156 325.230469 122.625 325.902344 C 132.59375 326.578125 140.3125 332.515625 139.863281 339.164062 "/>
<path style=" stroke:none;fill-rule:nonzero;fill:rgb(76.899719%,45.098877%,35.699463%);fill-opacity:1;" d="M 221.835938 317.664062 C 221.011719 317.6875 220.273438 317.109375 220.109375 316.277344 C 218.976562 310.34375 214.167969 306.613281 207.871094 306.773438 C 201.539062 306.929688 196.820312 310.980469 196.128906 316.839844 C 196.015625 317.78125 195.160156 318.457031 194.226562 318.34375 C 193.289062 318.230469 192.617188 317.382812 192.726562 316.441406 C 193.609375 308.933594 199.800781 303.546875 207.785156 303.347656 C 215.722656 303.144531 222.03125 308.082031 223.480469 315.628906 C 223.660156 316.558594 223.046875 317.457031 222.121094 317.632812 Z M 221.835938 317.664062 "/>
<path style=" stroke:none;fill-rule:nonzero;fill:rgb(66.699219%,13.699341%,1.599121%);fill-opacity:1;" d="M 336.589844 209.34375 C 335.359375 209.117188 334.210938 208.457031 333.390625 207.398438 C 322.894531 193.910156 299.640625 186.449219 279.257812 190.078125 C 276.429688 190.597656 273.695312 188.695312 273.179688 185.832031 C 272.671875 182.984375 274.566406 180.265625 277.425781 179.75 C 301.742188 175.4375 328.769531 184.359375 341.671875 200.972656 C 343.445312 203.261719 343.03125 206.550781 340.746094 208.324219 C 339.523438 209.28125 338.007812 209.601562 336.589844 209.34375 "/>
<path style=" stroke:none;fill-rule:nonzero;fill:rgb(66.699219%,13.699341%,1.599121%);fill-opacity:1;" d="M 106.734375 209.238281 C 105.527344 209.507812 104.214844 209.265625 103.128906 208.445312 C 101.09375 206.929688 100.605469 204.011719 102.035156 201.929688 C 112.425781 186.789062 135.234375 178.121094 156.257812 181.292969 C 158.726562 181.671875 160.464844 184.042969 160.144531 186.589844 C 159.824219 189.152344 157.566406 190.917969 155.105469 190.535156 C 137.484375 187.851562 117.832031 195.109375 109.394531 207.425781 C 108.734375 208.386719 107.777344 209.007812 106.734375 209.238281 "/>
<path style=" stroke:none;fill-rule:nonzero;fill:rgb(97.599792%,99.598694%,100%);fill-opacity:1;" d="M 172.335938 265.851562 C 182.960938 283.226562 181.777344 302.449219 172.632812 309.800781 C 158.851562 320.878906 126.101562 324.214844 113.777344 308.386719 C 101.839844 293.058594 107.386719 264.957031 126.613281 252.765625 C 143.445312 242.09375 162.058594 249.035156 172.335938 265.851562 "/>
<path style=" stroke:none;fill-rule:nonzero;fill:rgb(67.799377%,23.498535%,13.699341%);fill-opacity:1;" d="M 111.273438 261.339844 C 126.132812 234.21875 162.347656 243.164062 172.695312 266.445312 C 162.078125 249.074219 142.644531 243.878906 127.085938 253.734375 C 117.46875 259.832031 110.675781 270.625 108.910156 282.605469 C 107.507812 292.160156 109.5 302.851562 114.460938 309.21875 C 108.773438 305.078125 100.34375 281.28125 111.273438 261.339844 "/>
<path style=" stroke:none;fill-rule:nonzero;fill:rgb(7.099915%,60.798645%,60.798645%);fill-opacity:1;" d="M 169.183594 276.605469 C 173.566406 288.660156 168.566406 302.449219 158.015625 307.398438 C 147.464844 312.347656 135.355469 306.589844 130.96875 294.535156 C 126.585938 282.480469 131.585938 268.695312 142.136719 263.746094 C 152.6875 258.792969 164.796875 264.550781 169.183594 276.605469 "/>
<path style=" stroke:none;fill-rule:nonzero;fill:rgb(99.598694%,100%,99.598694%);fill-opacity:1;" d="M 167.480469 274.539062 C 168.699219 277.878906 167.3125 281.707031 164.382812 283.078125 C 161.457031 284.453125 158.09375 282.855469 156.878906 279.511719 C 155.664062 276.164062 157.050781 272.34375 159.976562 270.96875 C 162.90625 269.59375 166.265625 271.191406 167.480469 274.539062 "/>
<path style=" stroke:none;fill-rule:nonzero;fill:rgb(97.599792%,99.598694%,100%);fill-opacity:1;" d="M 253.175781 263.230469 C 241.550781 280.886719 243.433594 300.070312 254.066406 307.171875 C 270.085938 317.875 307.519531 320.320312 321.128906 304.167969 C 334.316406 288.519531 327.210938 260.578125 304.949219 248.914062 C 285.460938 238.699219 264.429688 246.144531 253.175781 263.230469 "/>
<path style=" stroke:none;fill-rule:nonzero;fill:rgb(67.799377%,23.498535%,13.699341%);fill-opacity:1;" d="M 322.675781 257.066406 C 304.980469 230.359375 263.9375 240.28125 252.789062 263.832031 C 264.40625 246.183594 286.417969 240.460938 304.4375 249.894531 C 315.570312 255.730469 323.617188 266.335938 325.960938 278.265625 C 327.832031 287.773438 325.851562 298.519531 320.378906 305.019531 C 326.746094 300.722656 335.691406 276.707031 322.675781 257.066406 "/>
<path style=" stroke:none;fill-rule:nonzero;fill:rgb(7.099915%,60.798645%,60.798645%);fill-opacity:1;" d="M 264.675781 281.550781 C 264.753906 272.351562 270.234375 263.660156 279.269531 259.929688 C 291.316406 254.957031 305.113281 260.6875 310.085938 272.734375 C 315.0625 284.777344 309.328125 298.578125 297.28125 303.550781 C 285.238281 308.527344 271.441406 302.792969 266.464844 290.746094 C 265.222656 287.738281 264.648438 284.613281 264.675781 281.550781 "/>
<path style=" stroke:none;fill-rule:nonzero;fill:rgb(99.598694%,100%,99.598694%);fill-opacity:1;" d="M 308.152344 270.667969 C 309.53125 274.007812 307.941406 277.839844 304.597656 279.21875 C 301.257812 280.597656 297.429688 279.007812 296.050781 275.664062 C 294.667969 272.324219 296.257812 268.496094 299.601562 267.117188 C 302.945312 265.734375 306.769531 267.324219 308.152344 270.667969 "/>
<path style=" stroke:none;fill-rule:nonzero;fill:rgb(43.899536%,8.599854%,3.09906%);fill-opacity:1;" d="M 270.707031 346.34375 C 268 333.230469 245.890625 336.523438 216.421875 336.625 C 214.878906 336.628906 208.886719 336.695312 207.34375 336.726562 C 177.886719 337.265625 160.515625 334.148438 159.578125 347.425781 C 157.886719 371.417969 183.878906 399.898438 213.804688 399.671875 L 214.324219 399.664062 C 246.511719 399.34375 275.917969 371.597656 270.707031 346.34375 "/>
<path style=" stroke:none;fill-rule:nonzero;fill:rgb(86.698914%,41.999817%,35.699463%);fill-opacity:1;" d="M 245.941406 390.367188 C 237.535156 382.574219 226.339844 378.234375 214.628906 378.363281 C 203.074219 378.484375 192.46875 382.859375 184.664062 390.613281 C 190.191406 394.289062 196.347656 397.207031 202.875 398.6875 C 206.410156 399.488281 210.117188 399.921875 213.816406 399.894531 L 214.335938 399.890625 C 222.308594 399.808594 230.109375 398.011719 237.257812 394.988281 L 237.804688 394.738281 C 240.65625 393.5 243.332031 391.972656 245.941406 390.367188 "/>
<path style=" stroke:none;fill-rule:nonzero;fill:rgb(100%,100%,100%);fill-opacity:1;" d="M 212.476562 353.664062 C 191.890625 353.886719 174.5 346.933594 172.027344 337.476562 L 171.878906 336.898438 C 171.878906 336.898438 196.273438 336.257812 207.320312 336.042969 C 218.90625 335.816406 251.878906 336.023438 251.878906 336.023438 L 251.773438 336.601562 C 249.941406 346.109375 233.046875 353.4375 212.476562 353.664062 "/>
</g>
</svg>
