<?xml version="1.0" encoding="UTF-8"?>
<svg xmlns="http://www.w3.org/2000/svg" xmlns:xlink="http://www.w3.org/1999/xlink" width="520pt" height="520pt" viewBox="0 0 520 520" version="1.1">
<g id="surface1">
<path style=" stroke:none;fill-rule:nonzero;fill:rgb(100%,71.398926%,7.099915%);fill-opacity:1;" d="M 515.84375 323.597656 C 492.734375 295.445312 454.785156 238.039062 426.078125 139.339844 C 403.363281 61.238281 318.378906 54.917969 242.011719 60.789062 C 172.160156 66.15625 95.578125 94.355469 76.257812 165.601562 C 44.816406 281.523438 27.054688 329.773438 4.15625 367.457031 C 4.179688 368.246094 9.933594 374.195312 10.496094 374.550781 C 34.292969 332.242188 53.050781 275.667969 55.761719 267.90625 C 51.308594 293.222656 37.820312 341.550781 17.550781 384.265625 C 20.484375 387.304688 31.574219 397.285156 35.160156 400.347656 C 41.382812 394.445312 49.6875 380.335938 59.214844 366.503906 C 57.929688 381.707031 47.988281 401.191406 44.96875 408.140625 C 59.023438 418.371094 78.882812 430.703125 98.691406 439.816406 C 101.042969 439.144531 109.070312 426.941406 111.328125 423.855469 C 111.785156 428.003906 111.015625 440.054688 109.488281 444.261719 C 241.726562 479.152344 395.558594 482.277344 477.980469 372.492188 C 475.820312 370.039062 471.027344 357.683594 468.820312 351.230469 C 473.195312 355.1875 482.125 364.339844 485.292969 367.035156 C 489.300781 365.105469 504.5625 337.335938 506.917969 334.039062 C 497.164062 320.996094 459.417969 258.84375 454.542969 242.296875 C 465.570312 259.382812 493.714844 308.96875 514.773438 325.609375 C 515.292969 325.222656 515.589844 324.023438 515.84375 323.597656 "/>
<path style=" stroke:none;fill-rule:nonzero;fill:rgb(100%,72.898865%,57.998657%);fill-opacity:1;" d="M 450.992188 322.984375 C 445.3125 348.789062 426.570312 362.984375 412.9375 358.582031 C 399.304688 354.179688 397.324219 332.125 400.507812 306.957031 C 403.695312 281.792969 417.34375 264.894531 430.96875 269.363281 C 449.597656 275.46875 456.328125 298.726562 450.992188 322.984375 "/>
<path style=" stroke:none;fill-rule:nonzero;fill:rgb(100%,71.398926%,7.099915%);fill-opacity:1;" d="M 440.421875 193.855469 C 450.425781 308.910156 424.410156 386.246094 317.691406 392.875 C 210.96875 399.503906 76.785156 343.492188 69.625 228.226562 C 62.46875 112.960938 144.664062 66.378906 246.675781 56.066406 C 367.535156 43.847656 431.445312 90.617188 440.421875 193.855469 "/>
<path style=" stroke:none;fill-rule:nonzero;fill:rgb(100%,83.499146%,77.999878%);fill-opacity:1;" d="M 430.886719 346.574219 C 410.613281 407.140625 362.726562 438.9375 313.003906 439.59375 C 213.195312 440.921875 137.601562 397.621094 107.652344 254.136719 C 79.601562 119.722656 168.949219 109.167969 264.425781 103.238281 C 328.183594 99.277344 381.46875 97.246094 410.449219 138.050781 C 428.332031 163.234375 440.8125 316.914062 430.886719 346.574219 "/>
<path style=" stroke:none;fill-rule:nonzero;fill:rgb(97.599792%,99.598694%,100%);fill-opacity:1;" d="M 351.59375 262.675781 C 342.957031 280.472656 345.90625 298.945312 355.441406 305.195312 C 369.808594 314.609375 401.785156 314.75 412.210938 298.289062 C 422.3125 282.347656 414.304688 255.695312 394.570312 245.722656 C 377.292969 236.988281 359.953125 245.449219 351.59375 262.675781 "/>
<path style=" stroke:none;fill-rule:nonzero;fill:rgb(69.799805%,39.199829%,34.899902%);fill-opacity:1;" d="M 410.207031 252.566406 C 393.289062 227.742188 359.117188 239.800781 351.304688 263.277344 C 359.933594 245.488281 378.234375 238.636719 394.207031 246.703125 C 404.078125 251.695312 411.660156 261.492188 414.492188 272.90625 C 416.75 282.011719 415.824219 292.535156 411.628906 299.15625 C 416.738281 294.617188 422.648438 270.816406 410.207031 252.566406 "/>
<path style=" stroke:none;fill-rule:nonzero;fill:rgb(0%,49.798584%,71.798706%);fill-opacity:1;" d="M 357.480469 273.339844 C 354.378906 285.40625 360.507812 298.265625 371.175781 302.058594 C 381.84375 305.851562 393.007812 299.144531 396.113281 287.078125 C 399.21875 275.011719 393.089844 262.152344 382.421875 258.359375 C 371.753906 254.566406 360.585938 261.273438 357.480469 273.339844 "/>
<path style=" stroke:none;fill-rule:nonzero;fill:rgb(99.598694%,100%,99.598694%);fill-opacity:1;" d="M 358.929688 271.175781 C 358.070312 274.527344 359.773438 278.09375 362.730469 279.148438 C 365.691406 280.199219 368.789062 278.335938 369.652344 274.988281 C 370.511719 271.640625 368.8125 268.074219 365.851562 267.023438 C 362.890625 265.96875 359.792969 267.832031 358.929688 271.175781 "/>
<path style=" stroke:none;fill-rule:nonzero;fill:rgb(97.599792%,99.598694%,100%);fill-opacity:1;" d="M 270.609375 269.511719 C 283.511719 285.488281 283.5 304.210938 273.886719 312.078125 C 259.402344 323.933594 223.441406 329.820312 208.761719 315.484375 C 194.542969 301.597656 198.785156 273.910156 219.207031 260.539062 C 237.089844 248.832031 258.121094 254.046875 270.609375 269.511719 "/>
<path style=" stroke:none;fill-rule:nonzero;fill:rgb(69.799805%,39.199829%,34.899902%);fill-opacity:1;" d="M 202.835938 270.089844 C 217.433594 242.601562 258.050781 248.335938 271.042969 270.054688 C 258.148438 254.085938 236.328125 250.625 219.796875 261.4375 C 209.578125 268.128906 202.800781 279.140625 201.65625 290.894531 C 200.746094 300.265625 203.667969 310.464844 209.570312 316.234375 C 203.011719 312.679688 192.101562 290.304688 202.835938 270.089844 "/>
<path style=" stroke:none;fill-rule:nonzero;fill:rgb(0%,49.798584%,71.798706%);fill-opacity:1;" d="M 218.308594 284.617188 C 214.632812 296.726562 221.472656 309.53125 233.589844 313.207031 C 245.703125 316.882812 258.503906 310.042969 262.179688 297.925781 C 265.855469 285.8125 259.015625 273.011719 246.898438 269.335938 C 234.785156 265.664062 221.988281 272.503906 218.308594 284.617188 "/>
<path style=" stroke:none;fill-rule:nonzero;fill:rgb(99.598694%,100%,99.598694%);fill-opacity:1;" d="M 219.988281 282.4375 C 218.96875 285.796875 220.863281 289.347656 224.226562 290.367188 C 227.585938 291.386719 231.136719 289.488281 232.160156 286.128906 C 233.179688 282.769531 231.28125 279.21875 227.917969 278.199219 C 224.558594 277.175781 221.007812 279.074219 219.988281 282.4375 "/>
<path style=" stroke:none;fill-rule:nonzero;fill:rgb(57.598877%,14.498901%,10.998535%);fill-opacity:1;" d="M 255.832031 351.273438 C 256.949219 338.054688 280.023438 338.980469 310.242188 335.984375 C 311.824219 335.828125 317.972656 335.261719 319.5625 335.125 C 349.820312 332.570312 367.234375 327.667969 369.871094 340.667969 C 374.640625 364.15625 351.597656 394.972656 320.898438 397.894531 L 320.363281 397.941406 C 287.335938 401.003906 253.683594 376.726562 255.832031 351.273438 "/>
<path style=" stroke:none;fill-rule:nonzero;fill:rgb(96.899414%,48.999023%,37.998962%);fill-opacity:1;" d="M 286.785156 392.09375 C 294.414062 383.523438 305.339844 378.070312 317.359375 376.964844 C 329.21875 375.875 340.640625 379.074219 349.617188 385.898438 C 344.421875 390.105469 338.476562 393.632812 331.976562 395.777344 C 328.453125 396.9375 324.707031 397.757812 320.914062 398.117188 L 320.382812 398.167969 C 312.199219 398.925781 303.980469 397.972656 296.269531 395.742188 L 295.675781 395.550781 C 292.59375 394.628906 289.65625 393.40625 286.785156 392.09375 "/>
<path style=" stroke:none;fill-rule:nonzero;fill:rgb(100%,100%,100%);fill-opacity:1;" d="M 316.441406 352.375 C 337.574219 350.433594 354.515625 341.75 355.855469 332.160156 L 355.929688 331.574219 C 355.929688 331.574219 330.847656 333.503906 319.496094 334.453125 C 307.59375 335.449219 273.824219 339.113281 273.824219 339.113281 L 274.003906 339.675781 C 277.089844 348.859375 295.328125 354.3125 316.441406 352.375 "/>
<path style=" stroke:none;fill-rule:nonzero;fill:rgb(76.899719%,45.098877%,35.699463%);fill-opacity:1;" d="M 336.859375 320.171875 C 336.085938 320.242188 335.351562 319.746094 335.148438 318.972656 C 333.707031 313.460938 328.953125 310.246094 323.035156 310.789062 C 317.078125 311.332031 312.890625 315.4375 312.605469 321 C 312.558594 321.890625 311.796875 322.578125 310.910156 322.53125 C 310.015625 322.484375 309.332031 321.726562 309.375 320.835938 C 309.738281 313.710938 315.234375 308.253906 322.738281 307.566406 C 330.199219 306.886719 336.445312 311.136719 338.277344 318.152344 C 338.503906 319.015625 337.984375 319.898438 337.125 320.125 Z M 336.859375 320.171875 "/>
<path style=" stroke:none;fill-rule:nonzero;fill:rgb(100%,71.398926%,7.099915%);fill-opacity:1;" d="M 161.164062 269.878906 C 164.550781 302.976562 151.167969 330.707031 126.804688 332.152344 C 102.441406 333.59375 78.347656 261.023438 74.945312 203.605469 C 71.976562 153.554688 96.789062 113.382812 137.363281 114.386719 C 150.101562 114.699219 146.382812 171.726562 147.289062 191.820312 C 148.425781 217 158.503906 243.882812 161.164062 269.878906 "/>
<path style=" stroke:none;fill-rule:nonzero;fill:rgb(100%,83.499146%,77.999878%);fill-opacity:1;" d="M 92.449219 354.179688 C 107.433594 383.351562 141.421875 394.292969 161.871094 387.167969 C 177.789062 381.621094 174.9375 353.699219 165.640625 328.214844 C 155.628906 300.761719 137.328125 287.054688 115.460938 290.21875 C 86.113281 294.464844 79.117188 328.21875 92.449219 354.179688 "/>
<path style=" stroke:none;fill-rule:nonzero;fill:rgb(93.699646%,62.399292%,47.099304%);fill-opacity:1;" d="M 120.136719 347.425781 C 124.398438 360.820312 143.015625 370.035156 154.394531 363.375 C 158.226562 361.132812 141.292969 317.875 134.890625 318.613281 C 120.332031 320.296875 115.878906 334.03125 120.136719 347.425781 "/>
<path style=" stroke:none;fill-rule:nonzero;fill:rgb(100%,59.199524%,59.199524%);fill-opacity:1;" d="M 185.402344 346.882812 C 185.667969 354.394531 196.320312 360.117188 209.203125 359.664062 C 222.074219 359.210938 232.304688 352.753906 232.039062 345.238281 C 231.773438 337.730469 221.117188 332.007812 208.242188 332.460938 C 195.363281 332.914062 185.136719 339.371094 185.402344 346.882812 "/>
<path style=" stroke:none;fill-rule:nonzero;fill:rgb(100%,59.199524%,59.199524%);fill-opacity:1;" d="M 385.078125 329.359375 C 385.972656 335.984375 394.746094 340.269531 404.679688 338.925781 C 414.605469 337.585938 421.933594 331.128906 421.039062 324.503906 C 420.144531 317.882812 411.367188 313.597656 401.441406 314.941406 C 391.507812 316.28125 384.183594 322.738281 385.078125 329.359375 "/>
<path style=" stroke:none;fill-rule:nonzero;fill:rgb(95.698547%,55.299377%,18.399048%);fill-opacity:1;" d="M 409.390625 209.488281 C 410.589844 209.507812 411.792969 208.984375 412.65625 207.929688 C 414.207031 206.023438 414.046875 203.105469 412.308594 201.421875 C 399.609375 189.15625 376.109375 185.808594 357.976562 193.085938 C 355.773438 193.964844 354.867188 197.144531 355.6875 199.53125 C 356.507812 201.914062 358.894531 202.921875 361.132812 202.203125 C 376.242188 197.355469 395.207031 199.605469 405.664062 208.054688 C 406.515625 208.742188 407.976562 209.46875 409.390625 209.488281 "/>
<path style=" stroke:none;fill-rule:nonzero;fill:rgb(95.698547%,55.299377%,18.399048%);fill-opacity:1;" d="M 186.328125 229.136719 C 187.742188 228.972656 189.089844 228.347656 190.082031 227.28125 C 202.324219 214.15625 228.191406 207.394531 250.296875 211.574219 C 253.484375 212.167969 256.472656 210.335938 257.1875 207.527344 C 257.90625 204.707031 255.976562 201.949219 252.890625 201.367188 C 226.546875 196.367188 196.449219 204.496094 181.386719 220.652344 C 179.304688 222.875 179.578125 226.160156 181.976562 227.996094 C 183.230469 228.941406 184.8125 229.3125 186.328125 229.136719 "/>
<path style=" stroke:none;fill-rule:nonzero;fill:rgb(100%,71.398926%,7.099915%);fill-opacity:1;" d="M 177.914062 136.496094 C 184.550781 150.53125 187.027344 178.15625 185.753906 192.144531 C 198.261719 195.371094 283.035156 192.007812 320.375 176.796875 C 346.898438 165.996094 357.589844 150.558594 367.460938 128.210938 C 371.597656 137.253906 364.148438 162.03125 345.933594 176.671875 C 343.578125 178.566406 401.472656 166.773438 396.382812 109.640625 C 353.816406 65.402344 224.480469 89.59375 174.804688 98.691406 C 172.042969 99.195312 176.789062 134.117188 177.914062 136.496094 "/>
<path style=" stroke:none;fill-rule:nonzero;fill:rgb(100%,71.398926%,7.099915%);fill-opacity:1;" d="M 424.597656 132.46875 C 419.085938 127.691406 407.144531 121.683594 394.878906 114.515625 C 404.84375 160.304688 422.152344 205.089844 439.457031 209.023438 C 439.09375 200.359375 429.027344 161.796875 424.597656 132.46875 "/>
<path style=" stroke:none;fill-rule:nonzero;fill:rgb(100%,71.398926%,7.099915%);fill-opacity:1;" d="M 129.097656 115.421875 C 135.402344 116.722656 163.78125 112.050781 183.335938 109.082031 C 180.378906 163.214844 175.578125 227.460938 140.300781 235.457031 C 139.058594 226.867188 129.484375 145.109375 129.097656 115.421875 "/>
</g>
</svg>
