<?xml version="1.0" encoding="UTF-8"?>
<svg xmlns="http://www.w3.org/2000/svg" xmlns:xlink="http://www.w3.org/1999/xlink" width="520pt" height="520pt" viewBox="0 0 520 520" version="1.1">
<defs>
<filter id="alpha" filterUnits="objectBoundingBox" x="0%" y="0%" width="100%" height="100%">
  <feColorMatrix type="matrix" in="SourceGraphic" values="0 0 0 0 1 0 0 0 0 1 0 0 0 0 1 0 0 0 1 0"/>
</filter>
<mask id="mask0">
  <g filter="url(#alpha)">
<rect x="0" y="0" width="520" height="520" style="fill:rgb(0%,0%,0%);fill-opacity:0.278427;stroke:none;"/>
  </g>
</mask>
<clipPath id="clip2">
  <path d="M 0.386719 0.265625 L 40.652344 0.265625 L 40.652344 65.179688 L 0.386719 65.179688 Z M 0.386719 0.265625 "/>
</clipPath>
<clipPath id="clip1">
  <rect x="0" y="0" width="41" height="66"/>
</clipPath>
<g id="surface5" clip-path="url(#clip1)">
<g clip-path="url(#clip2)" clip-rule="nonzero">
<path style=" stroke:none;fill-rule:nonzero;fill:rgb(0%,0%,0%);fill-opacity:1;" d="M 19.269531 65.179688 C -23.941406 64.640625 19.949219 5.539062 24.148438 0.265625 C 47.65625 22.855469 46.078125 65.511719 19.269531 65.179688 "/>
</g>
</g>
<mask id="mask1">
  <g filter="url(#alpha)">
<rect x="0" y="0" width="520" height="520" style="fill:rgb(0%,0%,0%);fill-opacity:0.278427;stroke:none;"/>
  </g>
</mask>
<clipPath id="clip4">
  <path d="M 0.710938 0.90625 L 78.402344 0.90625 L 78.402344 36.113281 L 0.710938 36.113281 Z M 0.710938 0.90625 "/>
</clipPath>
<clipPath id="clip3">
  <rect x="0" y="0" width="79" height="37"/>
</clipPath>
<g id="surface8" clip-path="url(#clip3)">
<g clip-path="url(#clip4)" clip-rule="nonzero">
<path style=" stroke:none;fill-rule:nonzero;fill:rgb(0%,0%,0%);fill-opacity:1;" d="M 78.402344 21.527344 C 73.210938 2.972656 41.601562 -0.175781 0.710938 1.183594 C 3.761719 22.332031 58.609375 55.480469 78.402344 21.527344 "/>
</g>
</g>
</defs>
<g id="surface1">
<path style=" stroke:none;fill-rule:nonzero;fill:rgb(28.599548%,7.499695%,3.898621%);fill-opacity:1;" d="M 469.0625 322.722656 C 471.074219 310.355469 462.664062 298.699219 450.28125 296.683594 C 437.898438 294.671875 426.230469 303.0625 424.21875 315.433594 C 422.921875 323.402344 426.246094 330.785156 431.878906 335.777344 C 427.289062 338.105469 423.703125 342.253906 422.816406 347.714844 C 421.335938 356.816406 427.523438 365.390625 436.636719 366.871094 C 445.746094 368.355469 454.328125 362.179688 455.808594 353.078125 C 456.542969 348.558594 455.371094 344.175781 452.90625 340.722656 C 461.058594 338.355469 467.613281 331.652344 469.0625 322.722656 "/>
<path style=" stroke:none;fill-rule:nonzero;fill:rgb(28.599548%,7.499695%,3.898621%);fill-opacity:1;" d="M 199.933594 224.550781 C 197.871094 219.519531 194.75 215.550781 190.910156 212.511719 C 200.273438 206.628906 205.109375 197.515625 202.1875 190.132812 C 200.339844 185.691406 195.886719 182.660156 190.257812 181.609375 C 209.765625 150.203125 157.46875 146.46875 158.292969 157.285156 C 156.25 151.128906 151.367188 145.808594 144.789062 143.328125 C 133.886719 139.316406 122.316406 144.894531 119.007812 155.902344 C 117.757812 159.914062 117.820312 164.117188 119.085938 168.101562 C 112.769531 166.863281 106.171875 166.613281 99.539062 167.925781 C 72.355469 173.226562 55.324219 199.929688 61.15625 227.832031 C 62.753906 235.03125 65.828125 241.699219 69.78125 247.363281 C 57.707031 255.578125 51.359375 266.175781 53.363281 276.296875 C 55.09375 285.015625 62.992188 291.660156 74.363281 295.273438 C 73.5625 299.625 74.472656 305.726562 80.113281 308.089844 C 73.4375 313.878906 72.628906 320.816406 74.339844 327.289062 C 75.914062 333.25 81.695312 338.402344 88.976562 340.097656 C 87.96875 342.175781 87.296875 344.441406 87.253906 346.898438 C 87.105469 355.886719 94.273438 363.296875 103.265625 363.449219 C 106.804688 363.507812 109.921875 362.195312 112.628906 360.324219 C 117.417969 362.03125 122.410156 361.542969 126.839844 359.476562 C 125.214844 371.640625 132.535156 386.226562 142.761719 388.894531 C 150.21875 390.84375 161.136719 385.671875 163.535156 372.78125 C 165.351562 363.441406 157.867188 346.984375 153.308594 341.984375 C 170.210938 337.796875 180.925781 321.84375 177.453125 305.546875 C 176.472656 300.570312 174 296.128906 170.941406 292.351562 C 182.109375 295.371094 192.027344 293.296875 196.515625 286.09375 C 201.296875 278.554688 198.820312 267.230469 191.140625 257.136719 C 200.769531 250.269531 204.84375 236.765625 199.933594 224.550781 "/>
<path style=" stroke:none;fill-rule:nonzero;fill:rgb(61.199951%,45.899963%,82.699585%);fill-opacity:1;" d="M 120.753906 169.859375 C 76.582031 230 83.785156 303.957031 104.941406 374.664062 C 106.976562 257.933594 130.253906 196.476562 176.175781 156.792969 C 175.660156 152.304688 125.425781 163.503906 120.753906 169.859375 "/>
<path style=" stroke:none;fill-rule:nonzero;fill:rgb(67.498779%,37.599182%,88.598633%);fill-opacity:1;" d="M 170.925781 157.53125 C 211.523438 157.066406 250.308594 60.046875 186.480469 10.285156 C 133.964844 72.683594 143.949219 122.605469 170.925781 157.53125 "/>
<use xlink:href="#surface5" transform="matrix(1,0,0,1,160,74)" mask="url(#mask0)"/>
<path style=" stroke:none;fill-rule:nonzero;fill:rgb(67.498779%,37.599182%,88.598633%);fill-opacity:1;" d="M 166.898438 152.15625 C 138.234375 205.441406 3.433594 192.371094 26.761719 71.035156 C 100.203125 106.664062 160.246094 111.617188 166.898438 152.15625 "/>
<use xlink:href="#surface8" transform="matrix(1,0,0,1,75,124)" mask="url(#mask1)"/>
<path style=" stroke:none;fill-rule:nonzero;fill:rgb(61.199951%,45.899963%,82.699585%);fill-opacity:1;" d="M 159.273438 121.65625 C 169.84375 118.511719 181.113281 125.03125 184.445312 136.21875 C 187.777344 147.410156 181.90625 159.03125 171.335938 162.179688 C 160.765625 165.324219 149.492188 158.804688 146.164062 147.617188 C 142.832031 136.425781 148.699219 124.800781 159.273438 121.65625 "/>
<path style=" stroke:none;fill-rule:nonzero;fill:rgb(79.998779%,41.598511%,12.199402%);fill-opacity:1;" d="M 78.816406 406.457031 C 90.28125 435.316406 122.148438 449.507812 143.082031 443.964844 C 164.019531 438.417969 164.929688 413.464844 157.429688 385.230469 C 149.929688 356.988281 127.972656 342.398438 105.945312 344.132812 C 76.382812 346.457031 68.039062 379.335938 78.816406 406.457031 "/>
<path style=" stroke:none;fill-rule:nonzero;fill:rgb(59.999084%,27.799988%,6.298828%);fill-opacity:1;" d="M 107.28125 410.175781 C 114.164062 422.027344 127.589844 426.59375 137.257812 420.382812 C 146.929688 414.164062 149.1875 399.511719 142.300781 387.664062 C 135.414062 375.808594 121.992188 371.242188 112.324219 377.457031 C 102.648438 383.675781 100.394531 398.320312 107.28125 410.175781 "/>
<path style=" stroke:none;fill-rule:nonzero;fill:rgb(79.998779%,41.598511%,12.199402%);fill-opacity:1;" d="M 464.253906 412.890625 C 451.832031 441.347656 419.507812 454.46875 398.769531 448.230469 C 378.027344 441.992188 377.953125 417.023438 386.390625 389.046875 C 394.828125 361.070312 417.261719 347.226562 439.21875 349.691406 C 468.6875 353.003906 475.929688 386.140625 464.253906 412.890625 "/>
<path style=" stroke:none;fill-rule:nonzero;fill:rgb(59.999084%,27.799988%,6.298828%);fill-opacity:1;" d="M 435.683594 415.65625 C 428.40625 427.269531 414.835938 431.386719 405.378906 424.855469 C 395.921875 418.316406 394.152344 403.601562 401.433594 391.984375 C 408.707031 380.367188 422.277344 376.253906 431.730469 382.785156 C 441.195312 389.324219 442.957031 404.039062 435.683594 415.65625 "/>
<path style=" stroke:none;fill-rule:nonzero;fill:rgb(28.599548%,7.499695%,3.898621%);fill-opacity:1;" d="M 450.195312 274.652344 C 447.746094 384.589844 374.523438 432.40625 273.402344 430.101562 C 172.28125 427.796875 92.90625 376.617188 95.359375 266.671875 C 97.808594 156.738281 184.476562 127.179688 273.320312 127.65625 C 364.828125 128.144531 452.648438 164.71875 450.195312 274.652344 "/>
<path style=" stroke:none;fill-rule:nonzero;fill:rgb(79.998779%,41.598511%,12.199402%);fill-opacity:1;" d="M 420.566406 263.660156 C 404.382812 202.714844 346.773438 184.402344 276.015625 182.792969 L 275.207031 182.78125 C 204.636719 182.015625 146.257812 198.394531 128.054688 258.777344 C 112.816406 309.347656 128.050781 419.433594 147.199219 452.1875 C 163.375 479.855469 222.777344 509.191406 268.535156 509.640625 C 268.9375 509.644531 270.988281 509.679688 271.398438 509.691406 C 317.136719 510.660156 377.429688 483.164062 394.585938 456.3125 C 415.117188 424.167969 434.121094 314.703125 420.566406 263.660156 "/>
<path style=" stroke:none;fill-rule:nonzero;fill:rgb(77.598572%,19.599915%,6.298828%);fill-opacity:1;" d="M 152.238281 406.746094 C 151.605469 413.90625 161.03125 420.433594 173.125 421.464844 C 185.21875 422.492188 195.671875 417.546875 196.292969 410.570312 C 196.929688 403.410156 187.484375 396.980469 175.40625 395.851562 C 163.304688 394.722656 152.867188 399.570312 152.238281 406.746094 "/>
<path style=" stroke:none;fill-rule:nonzero;fill:rgb(77.598572%,19.599915%,6.298828%);fill-opacity:1;" d="M 355.054688 413.621094 C 355.453125 420.816406 365.722656 425.910156 377.847656 425.285156 C 389.964844 424.660156 399.601562 418.25 399.214844 411.273438 C 398.8125 404.082031 388.542969 398.984375 376.421875 399.609375 C 364.300781 400.238281 354.664062 406.644531 355.054688 413.621094 "/>
<path style=" stroke:none;fill-rule:nonzero;fill:rgb(35.699463%,0%,0%);fill-opacity:1;" d="M 327.8125 419.339844 C 325.714844 407.203125 306.832031 409.859375 276.269531 409.246094 C 274.632812 409.214844 268.480469 409.109375 266.839844 409.085938 C 236.277344 408.683594 217.601562 405.378906 214.992188 417.457031 C 209.964844 440.742188 239.199219 466.902344 270.164062 467.617188 C 270.164062 467.617188 270.570312 467.628906 270.78125 467.628906 C 301.976562 468.042969 331.863281 442.800781 327.8125 419.339844 "/>
<path style=" stroke:none;fill-rule:nonzero;fill:rgb(93.699646%,56.098938%,43.499756%);fill-opacity:1;" d="M 270.761719 468.039062 L 270.171875 468.03125 C 260.121094 467.863281 249.703125 464.8125 240.15625 459.316406 L 239.542969 458.902344 L 239.957031 458.503906 C 248.074219 451.460938 259.011719 447.539062 270.703125 447.734375 C 282.390625 447.929688 293.199219 452.007812 301.074219 459.523438 L 301.472656 459.933594 L 300.847656 460.328125 C 291.539062 465.511719 281.023438 468.210938 270.761719 468.039062 "/>
<path style=" stroke:none;fill-rule:nonzero;fill:rgb(100%,100%,100%);fill-opacity:1;" d="M 271.292969 424.753906 C 249.964844 424.398438 232.234375 417.539062 230.125 408.675781 L 229.921875 408.054688 L 312.792969 409.4375 L 312.570312 410.050781 C 310.582031 418.847656 292.625 425.105469 271.292969 424.753906 "/>
<path style=" stroke:none;fill-rule:nonzero;fill:rgb(43.899536%,8.599854%,3.09906%);fill-opacity:1;" d="M 285.429688 392.304688 C 284.605469 392.292969 284.003906 391.664062 283.8125 390.84375 C 282.890625 384.871094 278.4375 381.105469 272.078125 381 C 265.925781 380.898438 260.929688 384.710938 260.023438 390.449219 C 259.796875 391.265625 258.972656 392.074219 258.148438 391.851562 C 257.324219 391.628906 256.523438 390.800781 256.75 389.972656 C 257.894531 382.601562 264.132812 377.582031 272.132812 377.714844 C 279.925781 377.84375 285.996094 382.867188 287.097656 390.480469 C 287.296875 391.308594 286.664062 392.324219 285.640625 392.308594 Z M 285.429688 392.304688 "/>
<path style=" stroke:none;fill-rule:nonzero;fill:rgb(97.599792%,99.598694%,100%);fill-opacity:1;" d="M 313.75 341.113281 C 301.976562 358.15625 303.476562 377.078125 313.640625 384.195312 C 329.023438 394.972656 365.8125 398.269531 379.53125 382.632812 C 392.78125 367.53125 386.519531 339.839844 364.84375 328.015625 C 345.835938 317.644531 325.101562 324.679688 313.75 341.113281 "/>
<path style=" stroke:none;fill-rule:nonzero;fill:rgb(43.899536%,8.599854%,3.09906%);fill-opacity:1;" d="M 381.945312 336.507812 C 365.121094 309.976562 324.570312 318.933594 313.328125 341.726562 C 325.105469 324.6875 346.753906 319.472656 364.222656 329.035156 C 375.011719 334.945312 382.605469 345.550781 384.679688 357.28125 C 386.355469 366.75 384.136719 377.179688 378.707031 383.449219 C 385.128906 379.445312 394.316406 356.015625 381.945312 336.507812 "/>
<path style=" stroke:none;fill-rule:nonzero;fill:rgb(27.49939%,11.399841%,7.798767%);fill-opacity:1;" d="M 339.851562 338.058594 C 327.050781 337.84375 316.5 348.046875 316.285156 360.847656 C 316.074219 373.652344 326.277344 384.199219 339.078125 384.414062 C 351.878906 384.628906 362.429688 374.425781 362.644531 361.621094 C 362.859375 348.820312 352.652344 338.269531 339.851562 338.058594 "/>
<path style=" stroke:none;fill-rule:nonzero;fill:rgb(99.598694%,100%,99.598694%);fill-opacity:1;" d="M 353.246094 346.699219 C 349.734375 346.640625 346.839844 349.441406 346.78125 352.953125 C 346.722656 356.464844 349.523438 359.359375 353.035156 359.417969 C 356.546875 359.476562 359.441406 356.675781 359.5 353.164062 C 359.558594 349.652344 356.757812 346.757812 353.246094 346.699219 "/>
<path style=" stroke:none;fill-rule:nonzero;fill:rgb(97.599792%,99.598694%,100%);fill-opacity:1;" d="M 233.375 339.773438 C 244.574219 357.199219 242.4375 376.058594 232.046875 382.835938 C 216.308594 393.089844 179.433594 395.160156 166.246094 379.074219 C 153.503906 363.535156 160.6875 336.074219 182.742188 324.980469 C 202.089844 315.246094 222.578125 322.96875 233.375 339.773438 "/>
<path style=" stroke:none;fill-rule:nonzero;fill:rgb(43.899536%,8.599854%,3.09906%);fill-opacity:1;" d="M 165.367188 332.894531 C 183.066406 306.941406 223.300781 317.242188 233.777344 340.398438 C 222.574219 322.972656 201.105469 317.042969 183.328125 326.019531 C 172.347656 331.5625 164.40625 341.914062 161.941406 353.566406 C 159.949219 362.972656 161.820312 373.46875 167.039062 379.917969 C 160.753906 375.703125 152.351562 351.976562 165.367188 332.894531 "/>
<path style=" stroke:none;fill-rule:nonzero;fill:rgb(27.49939%,11.399841%,7.798767%);fill-opacity:1;" d="M 207.386719 335.847656 C 220.1875 336.058594 230.390625 346.609375 230.179688 359.414062 C 229.964844 372.214844 219.414062 382.417969 206.613281 382.203125 C 193.808594 381.992188 183.605469 371.441406 183.820312 358.640625 C 184.035156 345.835938 194.585938 335.632812 207.386719 335.847656 "/>
<path style=" stroke:none;fill-rule:nonzero;fill:rgb(99.598694%,100%,99.598694%);fill-opacity:1;" d="M 193.710938 344.035156 C 197.222656 344.097656 200.023438 346.992188 199.964844 350.503906 C 199.90625 354.015625 197.011719 356.8125 193.5 356.757812 C 189.988281 356.695312 187.1875 353.804688 187.246094 350.292969 C 187.304688 346.777344 190.199219 343.980469 193.710938 344.035156 "/>
<path style=" stroke:none;fill-rule:nonzero;fill:rgb(28.599548%,7.499695%,3.898621%);fill-opacity:1;" d="M 70.398438 257.628906 C 66.40625 238.128906 77.253906 216.414062 88.050781 211.6875 C 78.570312 199.910156 80.351562 182.953125 92.125 173.488281 C 99.738281 167.367188 109.667969 166.039062 118.425781 168.980469 C 123.664062 143.007812 154.570312 134.503906 176.570312 144.367188 C 171.496094 139.550781 169.429688 132.425781 169.554688 126.628906 C 170.019531 105.359375 191.042969 88.761719 216.183594 89.574219 C 232.296875 90.089844 246.355469 97.59375 254.339844 108.476562 C 262.398438 102.59375 272.566406 99.007812 283.515625 99.285156 C 296.40625 99.613281 307.925781 105.070312 315.949219 113.585938 C 320.621094 103.78125 328.082031 95.546875 337.839844 90.308594 C 366.078125 75.148438 407.863281 88.6875 419.75 116.027344 C 422.671875 121.230469 424.089844 133.0625 423.964844 140.464844 C 427.222656 138.800781 435.089844 135.960938 438.964844 136.0625 C 450.578125 136.367188 459.875 145.648438 459.6875 156.832031 C 459.609375 161.335938 458.011719 167.34375 455.15625 170.515625 C 470.164062 172.152344 482.890625 180.878906 489.386719 192.796875 C 502.054688 216.039062 495.894531 244.34375 474.804688 255.113281 C 472.234375 256.421875 469.613281 257.390625 467.011719 258.207031 C 466.304688 261.632812 465.402344 265.054688 464.054688 268.265625 C 466.4375 267.234375 469.230469 266.824219 472.03125 266.898438 C 483.648438 267.203125 492.929688 277.347656 492.726562 289.59375 C 492.523438 301.835938 482.6875 310.929688 471.085938 311.15625 C 467.011719 311.234375 462.691406 309.160156 459.191406 305.40625 C 458.605469 308.832031 455.199219 313.308594 453.398438 314.9375 C 446.652344 321.027344 432.4375 321.886719 422.253906 312.921875 C 415.265625 306.773438 411.75 298.339844 412.519531 291.042969 C 397.792969 284.78125 387.550781 267.414062 387.886719 247.210938 L 387.917969 245.496094 C 383.980469 249.089844 378.578125 251.425781 372.558594 251.261719 C 361.8125 250.972656 352.921875 242.976562 352.007812 233.078125 C 350.925781 233.707031 349.847656 234.558594 348.746094 235.164062 C 328.507812 246.277344 301.683594 236.289062 289.132812 213.316406 C 287.472656 210.273438 286.222656 207.25 285.199219 204.21875 C 284.386719 214.304688 279.101562 223.511719 269.964844 228.472656 C 255.253906 236.460938 236.199219 229.851562 226.566406 213.988281 C 212.46875 225.214844 180.375 223.992188 165.855469 206.863281 C 166.671875 213.355469 166.679688 222.210938 164.648438 227.550781 C 160.585938 242.253906 146.917969 249.285156 132.375 249.363281 C 140.0625 257.800781 141.445312 272.296875 123.902344 277.820312 C 149.65625 288.429688 145.457031 307.949219 133.316406 313.828125 C 123.285156 318.6875 110.085938 315.007812 103.472656 308.761719 C 96.488281 302.167969 104.171875 288.722656 102.667969 288.699219 C 86.175781 285.460938 73.765625 274.078125 70.398438 257.628906 "/>
<path style=" stroke:none;fill-rule:nonzero;fill:rgb(20.799255%,8.599854%,0.39978%);fill-opacity:1;" d="M 156.414062 279.617188 C 156.378906 281.660156 157.171875 283.523438 158.785156 285.191406 C 160.394531 286.859375 162.84375 287.722656 165.300781 287.761719 C 167.558594 287.800781 169.632812 287.039062 171.289062 285.820312 C 182.007812 277.9375 202.105469 275.414062 218.359375 280.855469 C 220.210938 281.476562 222.246094 281.535156 224.097656 280.949219 C 226.574219 280.167969 228.863281 278.566406 229.714844 276.324219 C 230.570312 274.484375 230.402344 272.230469 229.410156 270.363281 C 228.417969 268.492188 226.582031 267.0625 224.34375 266.378906 C 201.808594 259.511719 174.554688 262.46875 159.164062 274.324219 C 157.707031 275.738281 156.652344 277.574219 156.414062 279.617188 "/>
<path style=" stroke:none;fill-rule:nonzero;fill:rgb(20.799255%,8.599854%,0.39978%);fill-opacity:1;" d="M 391.453125 283.875 C 391.421875 285.917969 390.566406 287.757812 388.898438 289.367188 C 387.234375 290.980469 384.753906 291.765625 382.300781 291.722656 C 380.042969 291.683594 377.996094 290.851562 376.378906 289.578125 C 365.929688 281.34375 345.925781 278.148438 329.5 283.046875 C 327.628906 283.605469 325.59375 283.597656 323.757812 282.949219 C 321.308594 282.085938 319.082031 280.410156 318.300781 278.140625 C 317.511719 276.273438 317.753906 274.027344 318.804688 272.191406 C 319.859375 270.355469 321.742188 268.988281 324.003906 268.382812 C 346.753906 262.265625 373.898438 266.132812 388.882812 278.492188 C 390.289062 279.957031 391.28125 281.828125 391.453125 283.875 "/>
</g>
</svg>
