<?xml version="1.0" encoding="utf-8"?>
<!-- Generator: Adobe Illustrator 26.3.1, SVG Export Plug-In . SVG Version: 6.00 Build 0)  -->
<svg version="1.1" id="Layer_1" xmlns="http://www.w3.org/2000/svg" xmlns:xlink="http://www.w3.org/1999/xlink" x="0px" y="0px"
	 viewBox="0 0 104 87" style="enable-background:new 0 0 104 87;" xml:space="preserve">
<style type="text/css">
	.st0{fill:#70AD47;stroke:#245080;}
	.st1{fill:#FFC000;stroke:#245080;}
	.st2{fill:#00B0F0;stroke:#245080;}
	.st3{fill:#FFFFFF;stroke:#245080;}
	.st4{fill:none;}
	.st5{fill:#AD5C49;}
	.st6{fill:#FFC19F;}
	.st7{opacity:0.19;fill:#4C0606;}
	.st8{opacity:0.14;fill:#6B1808;}
	.st9{fill:#ED3B61;}
	.st10{fill:#68295F;}
	.st11{fill:#E0956C;}
	.st12{fill:#F4B18C;}
	.st13{fill:#FBC1A0;}
	.st14{fill:#F9FDFF;}
	.st15{fill:#843923;}
	.st16{fill:#461D14;}
	.st17{fill:#FEFFFE;}
	.st18{fill:#752912;}
	.st19{fill:#C4735B;}
	.st20{fill:#701608;}
	.st21{fill:#DD6B5B;}
	.st22{fill:#FFFFFF;}
	.st23{fill:#F59597;}
	.st24{fill:#F49000;}
	.st25{fill:#FFA10B;}
	.st26{opacity:0.28;fill:#6C0B2A;}
	.st27{fill:#F93D77;}
	.st28{fill:#FFF8B3;}
	.st29{fill:#B52652;}
	.st30{opacity:0.39;fill:#FFFFFF;}
	.st31{opacity:0.11;}
</style>
<path class="st0" d="M41.2,0.8l32.9,1.8c2.5,0.1,4.4,2.3,4.2,4.7l-2.8,50.8c-0.1,2.5-2.3,4.4-4.7,4.2L38,60.6
	c-2.5-0.1-4.4-2.3-4.2-4.7L36.5,5C36.6,2.5,38.8,0.6,41.2,0.8z"/>
<path class="st1" d="M4.9,27.9l31.4-10c2.4-0.8,4.9,0.6,5.7,2.9l15.4,48.5c0.8,2.4-0.6,4.9-2.9,5.7L23.1,85
	c-2.4,0.8-4.9-0.6-5.7-2.9L2,33.6C1.2,31.2,2.5,28.7,4.9,27.9z"/>
<path class="st2" d="M66.9,17.9l31.6,9.3c2.4,0.7,3.7,3.2,3,5.6L87,81.6c-0.7,2.4-3.2,3.7-5.6,3l-31.6-9.3c-2.4-0.7-3.7-3.2-3-5.6
	l14.5-48.8C62,18.5,64.5,17.2,66.9,17.9z"/>
<path class="st3" d="M24.4,11.1H57c2.5,0,4.5,2,4.5,4.5v50.7c0,2.5-2,4.5-4.5,4.5H24.4c-2.5,0-4.5-2-4.5-4.5V15.6
	C19.9,13.1,21.9,11.1,24.4,11.1z"/>
<rect x="24.5" y="15.7" class="st4" width="32.3" height="49.1"/>
<g>
	<path class="st5" d="M50.3,22.9c1.2,3.4,0.8,4.6,0.9,5.4c0.3,1.3,0.8,1.5,0.9,2.7c0.2,2.6-2.3,4.8-3.6,4.9c0.4-0.8,0.5-1.8,0.4-2
		c-0.3,0.9-0.7,2-1,2.1c-1.9,1-3.9,1.5-7.1,1.4c-2.6-0.1-6.2-0.7-8.4-2.4c-0.4-0.3-0.5-1.4-0.3-2.7c-0.9,1.3-0.4,2.1-0.6,2
		c-1-1.1-1.5-3.6,0.4-5.6c2.3-2.2,0.7-2.9,4.1-6.8C40.5,21.9,48.8,22.5,50.3,22.9z"/>
	<path class="st6" d="M30.6,51.1l-1.5,2.7c4.1,1.4,6.2,2.3,7.2,1.4c0.1-0.1,2-1.4,2.3-2.1c-0.2-1.1-2.3-3-2.4-3
		c-0.1,0-1.4,1.6-1.4,1.6C34.7,52.5,32.2,51.5,30.6,51.1z"/>
	<path class="st7" d="M38.2,53.5c-1.7-0.6-2.6-0.9-4.3-1.3L33.2,52c0.2,1.1,1,1.9,2.5,2.5c0.7,0.2,0.8,0.2,1.5,0.2L38.2,53.5z"/>
	<path class="st6" d="M54.1,38.8c0.1-0.1-1.4-1.4-1.5-1.2c-1.7,1.5-4.9,3.5-5.4,3.9c0,0,1.1,1.9,2.4,1.6
		C50.8,42.7,51.5,41.7,54.1,38.8z"/>
	<g>
		<path class="st6" d="M52.8,35.5c0.6-0.1,1.1-0.1,1.1,0c0.8,0.6,1.6,1.3,2.1,1.5c-0.7,1.4-1.6,1.9-2,2c-0.6,0.2-1.5-0.1-1.8-0.8
			c-0.2-0.3-0.3-1.1-0.1-2.3C52.2,35.8,52.6,35.7,52.8,35.5z"/>
		<path class="st8" d="M53.2,38c0.8,0.8,2,0.1,2.5-0.6c-0.2-0.1-1.4-0.8-1.4-1.9c-0.8,0-1.6,1.1-1.9,1C52.9,36.7,53.4,37.3,53.2,38z
			"/>
		<path class="st6" d="M56.1,36.3c-0.2-0.1-0.4,0-0.7,0.2c0.2-0.3,0.3-0.6,0.2-0.8c-0.2-0.2-0.6-0.1-0.9,0.3
			c0.2-0.4,0.2-0.7,0.1-0.9c-0.2-0.2-0.6,0-0.9,0.3c0-0.3,0.1-0.7-0.1-0.8c-0.4-0.1-0.7,0.3-0.9,0.8c-0.2,0.5-0.2,1.2,0.1,1.3
			c0.1,0.1,0.4-0.1,0.5-0.4c0,0.2,0,0.3,0.1,0.4c0.2,0.1,0.5,0,0.7-0.2c-0.1,0.3-0.2,0.5-0.1,0.6c0.1,0.1,0.4,0.1,0.8-0.2
			c-0.1,0.2-0.2,0.5-0.1,0.6c0.1,0.1,0.4,0.2,0.9-0.2C56.1,37,56.3,36.4,56.1,36.3z"/>
		<path class="st8" d="M53.9,35.9c0,0.3-0.2,0.8-0.7,0.8c-0.5,0-1-0.3-1-0.7c0-0.3,0.4-0.7,0.9-0.7C53.6,35.3,53.9,35.5,53.9,35.9z"
			/>
		<path class="st6" d="M53.9,35.9c0,0.3-0.4,0.6-0.9,0.7c-0.5,0-1-0.2-1-0.5c0-0.3,0.4-0.6,0.9-0.7C53.5,35.3,53.9,35.6,53.9,35.9z"
			/>
	</g>
	<path class="st9" d="M48.3,43.5c-1.2-0.4-3.5-0.9-4.8-1.3c0.3-1.5,2.2-4,2.2-4c2,0.7,2.9,1.1,3.6,1.4
		C49.1,40.6,48.6,42.4,48.3,43.5z"/>
	<path class="st6" d="M43.3,57.3l3.1,0c-0.7-4.2-0.8-6.7-2.1-7.2c-0.2-0.1-2.3-0.9-3-0.9c-0.9,0.7-1.6,3.4-1.5,3.5
		c0,0.1,2,0.4,2,0.5C41.8,53.2,42.8,55.8,43.3,57.3z"/>
	<path class="st10" d="M34.1,47c-0.3,0.2-2,3.3-2.4,3.6c-0.1,0.1,1.3,1.5,2.2,2.3c0.7,0.9,3.2,2.4,5.9,1c0.9-0.5,0.8-1.9,1.1-3
		c0.4-1.6,3.7-0.8,2.1-1.4c-0.8-0.3-3-0.8-3.3-1c-0.3-0.1-0.5-0.4-0.5-0.7L34.1,47z"/>
	<path class="st9" d="M43.5,49.7c-3.6-1.3-4.3-0.1-7.5-0.8c-0.9-0.2-2.2-0.8-2.5-1.6c0,0,3.6-8.9,4.5-10.9c1,0,2.5,0.1,3.8,0.4
		c1.6,0.4,3,0.9,4,1.3C45.7,39.9,43.4,46.6,43.5,49.7z"/>
	<path class="st6" d="M29.2,42.3c-0.1,0.1,1.7,1,1.8,0.9c1.3-1.9,3.9-4.7,4.4-5.2c0,0-1.6-1.4-2.8-0.8C31.4,37.7,31,38.7,29.2,42.3z
		"/>
	<path class="st9" d="M33.4,40.7l4.3,0.2c0.9-1.4,1.3-3.4,1.2-4.4c-1-0.1-3.3-0.1-5.5,0.1L33.4,40.7z"/>
	<path class="st6" d="M40.3,36.6c0,0-0.1,0.2-0.1,0.3c-0.2,1,0.6,2.1,2,2.4c1.3,0.3,2.6-0.2,2.9-1.2l0-0.2
		C43.6,37.3,41.8,36.8,40.3,36.6z"/>
	<path class="st6" d="M45.3,35l-0.8,3.1c-0.2,0.7-1.2,1-2.3,0.7c-1.1-0.3-1.8-1.1-1.6-1.7l0.8-3.1L45.3,35z"/>
	<path class="st7" d="M45.2,35.7c-1.3-0.3-2.8-0.6-4-0.7L40.9,36c0.3,0.8,1.1,1.5,2.2,1.8c0.5,0.1,1,0.1,1.5,0.1L45.2,35.7z"/>
	<g>
		<path class="st6" d="M30.2,45.7c0.1,0.1,1,0.4,1.8-0.6c0.4-0.5,0.3-1.7-0.5-2.8c-0.1-0.1-0.2,0.2-0.3,0.3C31,42.7,29.7,45,30,44.8
			c0.2-0.2,0.5-0.7,0.7-0.2C30.8,45.2,30,45.4,30.2,45.7z"/>
		<path class="st11" d="M30.7,45.4c-0.3-0.1,0.4-1.8,0.6-1.6c0.3,0.1,0.3,0.5,0.1,0.9C31.3,45.1,30.9,45.5,30.7,45.4z"/>
		<path class="st6" d="M31.8,43.4c-0.2,0.5-1.2,1-0.3,2c0.2,0.2-0.5,0.7-0.9,0.5c-0.2-0.1-0.2,0.1-0.6-0.1c-0.2-0.1-0.3-0.3-0.5-0.3
			c-0.5,0-0.4-0.4-0.6-0.4c-0.3,0-0.4-0.3-0.4-0.5c-0.1-0.5,0.3-1.4,0.7-2.4c0.2-0.6,1.6-0.7,1.8-0.5C31.7,42.3,32,43.1,31.8,43.4z"
			/>
	</g>
	<path class="st7" d="M43.6,47.9c-0.6,1.6-2.8,0.7-4.5,0.9c-1.6,0.2-2.8,0.1-3.6,0.1c0.1,0.6,1.5,0.7,2.9,0.7c1.2,0,2.3,0,3,0.1
		c0.5,0.1,1.3,0,1.7,0.2c0.1,0.1,0.3,0,0.4,0C43.5,49.7,43.4,48.5,43.6,47.9z"/>
	<g>
		<path class="st12" d="M51.6,30.6c-0.2,1.5-1.5,2.6-2.5,2.6c-1-0.1-1.2-1.3-1.2-2.7c0.1-1.5,0.9-2.6,1.9-2.6
			C51.3,27.9,51.9,29.1,51.6,30.6z"/>
		<path class="st5" d="M51.4,26.2c0,5.2-3.4,7.6-8.3,7.4c-4.9-0.1-9-2.4-8.8-7.6c0.2-5.2,4.2-7,8.9-6.8
			C48.9,19.5,51.5,21.5,51.4,26.2z"/>
		<path class="st13" d="M50.1,33.1c-1.2,2.6-3.4,3.8-5.6,3.7c-4.8-0.4-7.6-3.4-8.4-9.1c-0.9-6.1,3.3-6.2,7.6-6.1
			c2.9,0.1,5.2,0.2,6.4,2.2C50.8,24.9,50.7,31.8,50.1,33.1z"/>
		<g>
			<path class="st14" d="M46.9,28.9c-0.5,0.8-0.4,1.6,0,1.9c0.6,0.5,2,0.6,2.6-0.1c0.5-0.7,0.3-1.9-0.6-2.4
				C48.2,27.8,47.4,28.1,46.9,28.9z"/>
			<path class="st15" d="M49.6,28.7c-0.7-1.2-2.2-0.8-2.7,0.2c0.5-0.8,1.3-1,2-0.6c0.4,0.3,0.7,0.7,0.8,1.3c0.1,0.4,0,0.9-0.2,1.2
				C49.7,30.6,50.1,29.5,49.6,28.7z"/>
			<path class="st16" d="M47.7,29.3c-0.2,0.5,0,1.1,0.5,1.3s1,0,1.2-0.6c0.2-0.5,0-1.1-0.5-1.3C48.4,28.5,47.9,28.8,47.7,29.3z"/>
			<path class="st17" d="M47.8,29.2c-0.1,0.1,0,0.3,0.1,0.4c0.1,0.1,0.3,0,0.3-0.2c0.1-0.1,0-0.3-0.1-0.4C48,29,47.8,29.1,47.8,29.2
				z"/>
		</g>
		<g>
			<path class="st14" d="M43.3,28.9c0.5,0.8,0.4,1.6,0,1.9c-0.7,0.5-2.3,0.6-2.9-0.1c-0.6-0.7-0.3-1.9,0.7-2.4
				C41.9,27.8,42.8,28.1,43.3,28.9z"/>
			<path class="st15" d="M40.3,28.6c0.8-1.2,2.6-0.7,3,0.3c-0.5-0.8-1.5-1-2.2-0.6c-0.5,0.3-0.8,0.7-0.9,1.2c-0.1,0.4,0,0.9,0.2,1.2
				C40.1,30.5,39.7,29.5,40.3,28.6z"/>
			<path class="st16" d="M41.5,29.3c-0.2,0.5,0,1.1,0.6,1.3c0.5,0.2,1.1,0,1.3-0.6c0.2-0.5,0-1.1-0.6-1.3
				C42.3,28.5,41.7,28.7,41.5,29.3z"/>
			<path class="st17" d="M41.6,29.2c-0.1,0.1,0,0.3,0.2,0.4c0.1,0.1,0.3,0,0.4-0.2c0.1-0.1,0-0.3-0.2-0.4
				C41.8,28.9,41.6,29,41.6,29.2z"/>
		</g>
		<path class="st18" d="M49.6,26.5c-0.1,0-0.1,0-0.2-0.1c-0.4-0.4-1.3-0.5-1.9-0.2c-0.1,0.1-0.3,0-0.4-0.2c-0.1-0.1,0-0.3,0.2-0.4
			c0.9-0.3,1.9-0.2,2.5,0.3c0.1,0.1,0.1,0.3,0,0.4C49.8,26.5,49.7,26.5,49.6,26.5z"/>
		<path class="st18" d="M40.2,26.6c-0.1,0-0.2,0-0.2-0.1c-0.1-0.1-0.1-0.3,0-0.4c0.6-0.6,1.8-0.8,2.7-0.4c0.2,0.1,0.2,0.2,0.2,0.4
			c-0.1,0.2-0.2,0.2-0.4,0.2c-0.7-0.3-1.6-0.1-2.1,0.3C40.4,26.5,40.3,26.6,40.2,26.6z"/>
		<path class="st19" d="M45.8,31.6C45.8,31.6,45.8,31.5,45.8,31.6c-0.1-0.3-0.3-0.5-0.6-0.5c-0.3,0-0.5,0.2-0.5,0.4
			c0,0,0,0.1-0.1,0.1c0,0-0.1,0-0.1-0.1c0.1-0.3,0.3-0.5,0.7-0.5C45.6,30.9,45.9,31.2,45.8,31.6C45.9,31.5,45.9,31.6,45.8,31.6
			L45.8,31.6z"/>
		<path class="st5" d="M38.4,28.6c0,1.5-0.7,2.7-1.8,2.6c-1.1,0-1.9-3.4-1.8-5.9c0.1-2.9,2.3-4.9,5-2.9
			C37.2,23.8,38.4,26.3,38.4,28.6z"/>
		<path class="st13" d="M34.6,31.1c0.5,1.7,2.1,2.7,3.3,2.5c1.2-0.2,1-5.2-1.2-5.6C34.9,27.7,34.2,29.6,34.6,31.1z"/>
		<path class="st11" d="M36.1,31.3c0.1,0.7,0.9,1.3,1.5,1.1c0.2-0.1-0.2-2.5-0.6-2.5C36.4,29.8,36,30.6,36.1,31.3z"/>
		<g>
			<path class="st20" d="M42.4,32.6c0.1-0.6,1.1-0.4,2.5-0.4c0.1,0,0.3,0,0.4,0c1.4,0,2.2-0.1,2.2,0.5c0.1,1.1-1.1,2.3-2.5,2.3l0,0
				C43.6,34.9,42.2,33.7,42.4,32.6z"/>
			<path class="st21" d="M43.6,34.5C44,34.2,44.5,34,45,34c0.5,0,1,0.2,1.4,0.6c-0.3,0.2-0.5,0.3-0.8,0.4c-0.2,0-0.3,0.1-0.5,0l0,0
				c-0.4,0-0.7-0.1-1.1-0.2l0,0C43.8,34.7,43.7,34.6,43.6,34.5z"/>
			<path class="st22" d="M43.3,32.1L43.3,32.1c0,0,1.5,0,2,0c0.5,0,1.6,0.1,1.6,0.1l0,0c-0.1,0.4-0.9,0.7-1.8,0.7
				C44.2,32.9,43.4,32.6,43.3,32.1z"/>
		</g>
		<path class="st23" d="M39.2,32c0,0.3,0.4,0.6,1,0.7c0.6,0,1.1-0.2,1.1-0.5c0-0.3-0.4-0.6-1-0.7C39.7,31.4,39.2,31.6,39.2,32z"/>
		<path class="st23" d="M48.2,32.1c0,0.3,0.4,0.5,0.8,0.5c0.4,0,0.8-0.3,0.8-0.6c0-0.3-0.4-0.5-0.8-0.5
			C48.5,31.5,48.1,31.8,48.2,32.1z"/>
		<path class="st5" d="M37.8,24.4c-0.6-0.1-1.3-0.2-1.9-0.2c0-0.7,0.1-1.3,0.4-1.6c2.6-2.3,10.3-3.4,14-1.2c1.7,1.1,2,3,1.6,4.4
			c-0.8-0.5-2.9-0.9-4.7-1c-0.3-0.4-0.5-1.7-0.5-1.7s-0.2,1.1,0,1.7c-0.8,0-3.1,0.1-4.1,0.1c-0.3-0.4-0.5-1.5-0.5-1.5
			S41.8,24.4,42,25c-0.2,0-0.9,0-1.2,0c-1.1-0.6-1.1-1.9-2-2C38.1,23,37.9,23.6,37.8,24.4z"/>
		<path class="st24" d="M36.6,23.8c0.8-2.6,3-4.6,6.7-4.8c2.9-0.1,5.2,0.8,6.6,2.4c-1.7-1.4-4-1.4-6.4-1.3
			C40.4,20.4,38,21.9,36.6,23.8z"/>
		<g>
			<path class="st25" d="M37.6,22.2c0.2,1.7-2.9,3.6-5.3,1.3C34.5,21,36.1,21.3,37.6,22.2z"/>
			<path class="st26" d="M37.3,22.2c-0.1-0.4-1.5-0.3-2.4,0.5C36,23.6,37.5,23.3,37.3,22.2z"/>
			<path class="st25" d="M37.2,21.8c1.9,0.9,4.5-1.7,1.2-4.6C37.3,19.8,36.5,20.5,37.2,21.8z"/>
			<path class="st26" d="M37.6,21.6c-0.2-0.6,0.8-1.1,1-2.1C39,20.1,38.8,22.1,37.6,21.6z"/>
			<path class="st25" d="M38.2,22.5c-0.3,0.3-0.8,0.4-1.1,0.1c-0.3-0.3-0.4-0.7-0.1-1.1c0.3-0.3,0.8-0.4,1.1-0.1
				C38.4,21.7,38.5,22.2,38.2,22.5z"/>
		</g>
	</g>
	<g>
		<path class="st27" d="M46.1,55c-0.2,0-0.3,0.2-0.2,0.4l0.4-0.1c0-0.1,0-0.2,0-0.3C46.2,55,46.2,55,46.1,55z M43.6,55.7
			c-0.2,0-0.3,0.2-0.2,0.4l0.6-0.2C44,55.7,43.8,55.6,43.6,55.7z M43,55.8c-0.1,0-0.2,0.1-0.2,0.1c0,0.1,0.1,0.2,0.1,0.2l0.5-0.1
			C43.4,55.9,43.2,55.8,43,55.8z M44.3,55.5c-0.2,0-0.3,0.2-0.2,0.4l0.6-0.2C44.6,55.6,44.4,55.5,44.3,55.5z M44.9,55.3
			c-0.2,0-0.3,0.2-0.2,0.4l0.6-0.2C45.2,55.4,45.1,55.3,44.9,55.3z M45.5,55.2c-0.2,0-0.3,0.2-0.2,0.4l0.6-0.2
			C45.8,55.3,45.7,55.1,45.5,55.2z"/>
		<path class="st28" d="M46.8,58.6c0,0.1-2.9,0.7-3,0.6c-0.3-0.9-0.8-2.7-0.9-3.1l3.4-0.8C46.4,56.3,46.7,58.1,46.8,58.6z"/>
		<path class="st28" d="M45.9,56.9c-0.1-0.2-2,0.7-2.4,0.8c0.1,0.5,0.1,1.4,0.3,2c0.1,0.5,0.6,0.7,1.1,0.6c1.7-0.2,6.3-0.5,6.1-1.8
			C50.9,57.5,48.1,57.5,45.9,56.9z"/>
		<path class="st27" d="M43.4,58.5c0,0,0.1-0.1,0.2,0c0.5,0.1,1.2,0.2,1.7,0.2c0.2,0,0.4,0,0.6,0c0-0.6,0.3-1.3,0.6-1.7
			c0.1-0.1,0.2-0.1,0.3,0c0.1,0.1,0.1,0.2,0,0.3c-0.3,0.3-0.5,0.9-0.5,1.3c1.1-0.2,2-0.4,2.2-1.2c1.5,0.4,2.9,0.2,3.1,1.1
			c0.3,1-7.5,2.2-7.5,2.2C43.9,60,43.6,59.1,43.4,58.5z"/>
		<path class="st29" d="M43.9,60.3c0,0.1,0.1,0.3,0.1,0.4c0,0,6.8-0.7,7.5-1.9c0,0,0-0.2,0-0.3C49.9,59.4,45.6,60,43.9,60.3z"/>
		<path class="st27" d="M43,56.7c1.4-0.3,2-0.4,3.3-0.8c0,0,0-0.1,0-0.1c-1.4,0.4-1.9,0.5-3.3,0.8C43,56.6,43,56.6,43,56.7z"/>
	</g>
	<g>
		<path class="st27" d="M31.2,54.5c0-0.2-0.1-0.3-0.2-0.4l-0.1,0.4C30.9,54.6,31,54.6,31.2,54.5C31.2,54.6,31.2,54.6,31.2,54.5z
			 M31.8,52.1c0-0.2-0.1-0.3-0.2-0.4l-0.2,0.6C31.6,52.4,31.8,52.3,31.8,52.1z M32,51.5c0-0.1,0-0.2,0-0.2c-0.1,0-0.2,0-0.2,0
			l-0.1,0.5C31.8,51.7,32,51.6,32,51.5z M31.7,52.7c0-0.2-0.1-0.3-0.2-0.4l-0.2,0.6C31.5,53,31.6,52.9,31.7,52.7z M31.5,53.3
			c0-0.2-0.1-0.3-0.2-0.4l-0.2,0.6C31.3,53.6,31.5,53.5,31.5,53.3z M31.4,53.9c0-0.2-0.1-0.3-0.2-0.4L31,54.2
			C31.1,54.2,31.3,54.1,31.4,53.9z"/>
		<path class="st28" d="M27.7,53.4c-0.1,0,0.8-2.9,0.9-2.9c0.9,0.1,2.8,0.6,3.1,0.7l-0.9,3.4C30,54.2,28.3,53.6,27.7,53.4z"/>
		<path class="st28" d="M29.7,53.4c0.2,0,0.3-2.1,0.5-2.4c-0.5-0.1-1.2-0.6-1.9-0.7c-0.5-0.1-0.9,0.2-1.1,0.6
			c-0.7,1.6-2.5,5.8-1.4,6.2C26.8,57.5,28.1,55.1,29.7,53.4z"/>
		<path class="st27" d="M29.4,50.6c0,0,0,0.1-0.1,0.2c-0.3,0.4-0.7,0.9-1,1.4c-0.1,0.2-0.2,0.3-0.2,0.5c0.5,0.3,1,0.9,1.2,1.3
			c0,0.1,0,0.2-0.1,0.2c-0.1,0-0.2,0-0.2-0.1c-0.1-0.4-0.5-0.8-0.9-1.1c-0.4,1.1-0.6,1.9,0.1,2.5c-1,1.1-1.6,2.4-2.4,2.2
			c-1-0.3,1.6-7.6,1.6-7.6C27.9,50.2,28.9,50.4,29.4,50.6z"/>
		<path class="st29" d="M27.7,50.1c-0.1,0-0.3-0.1-0.4-0.1c0,0-2.6,6.3-1.9,7.5c0,0,0.2,0.1,0.2,0.1C25.6,55.8,27,51.7,27.7,50.1z"
			/>
		<path class="st27" d="M31.2,51.1c-0.4,1.3-0.5,1.9-0.8,3.3c0,0,0.1,0,0.1,0c0.3-1.4,0.4-2,0.8-3.3C31.3,51.1,31.3,51.1,31.2,51.1z
			"/>
	</g>
	<path class="st30" d="M39.4,42.2c0.1-0.6,0.6-0.9,1.1-0.8c0.4,0.1,0.7,0.5,0.8,0.9c0.2-0.3,0.6-0.6,1-0.6c0.5,0.1,0.9,0.5,0.8,1.1
		c-0.1,0.9-2.3,2-2.3,2S39.2,43.2,39.4,42.2z"/>
	<ellipse class="st31" cx="40.8" cy="63.3" rx="14.8" ry="1.4"/>
</g>
</svg>
