<svg xmlns="http://www.w3.org/2000/svg" viewBox="0 0 281.7 142" xmlns:v="https://vecta.io/nano"><style><![CDATA[.l{fill:#ffc19f}.m{fill:#f95006}.n{fill:#ffa724}.o{fill:#aa3900}.p{opacity:.25}.q{fill:#f29d77}.r{fill:#601805}.s{fill:#ad3c23}.t{fill:#441911}]]></style><path d="M60.7 0h211c5.5 0 10 4.5 10 10v122c0 5.5-4.5 10-10 10h-211c-5.5 0-10-4.5-10-10V10c0-5.5 4.4-10 10-10z" fill="#ffe493"/><path d="M265.7 0h6c5.5 0 10 4.5 10 10v122c0 5.5-4.5 10-10 10h-6c-5.5 0-10-4.5-10-10V10c0-5.5 4.4-10 10-10z" fill="#ffc000"/><path d="M5.5 46.3c2.2.1 4.2-1.8 3.9-3.6-2.4-2.9-1.6-3.6.8-9.6 1.8-4.5 1.7-15.9 3.6-20C17.5 2.4 30.4-.4 40.3.6c10.7 1 19.6 5 21.9 14.8 2.4 10.2 2.9 16.1 4.7 19.5 1.6 3.1-.1 4.3-.5 6.2 1 2.2 3.2 3.7 4.6 2.5 0 1.4-1.7 2.1-2.7 1.7-.5-.2-.9-.6-.9-.6.5.9 1.7 2.6 1.9 3.9.3 2.3-1 6.2-4.5 8.2 1.3-1.4 2.9-3.7 2.3-5.6-.7 3.8-4.4 7.9-10.3 7.5-5.7.9-25 2.6-29.8 2.4-4.9-.2-15-1.3-17.5-5.7 0 1.1.5 1.8 1 2.5-3-2.3-3.6-4.6-3.4-7 .2-1.9 1.6-3.8 2.2-4.9-1.5 1.5-2.5 2.1-3.8.3z" class="o"/><path d="M26.4 94l-.3 1c0 .1-.1.2-.2.2l-1 .4c-.2.1-.3.4-.1.5l.9.6c.1.1.1.1.1.2V98c0 .2.3.4.5.2l.8-.7c.1-.1.2-.1.3-.1l1 .3c.2.1.4-.2.4-.4l-.4-1V96l.6-.9c.1-.2 0-.5-.3-.5l-1.1.1c-.1 0-.2 0-.2-.1l-.7-.9c0 0-.3 0-.3.3z" fill="#f9951e" class="p"/><ellipse cx="33.7" cy="138.4" rx="33.7" ry="3.6" opacity=".12"/><path d="M40.8 133.9c0 .2 7.8-.2 7.8-.5-.1-2.6-.2-30.5-.2-32H37c.5 2.5 3.5 30.8 3.8 32.5zm-16 0c0 .2-7.4.1-7.3-.1.1-2.6 1.9-33.6 2-35.1l10.5.6c-.5 2.5-4.9 32.9-5.2 34.6z" class="l"/><path d="M50.1 126.7c-1.5.1-9.7.2-11.6.1L36 97.2c-.1-1.5-2.4-1.8-2.9-.2-.3 1-5.2 25-5.9 29.8-3.2-.4-8.7-.9-10.9-1.4l4.1-46.2c5.4-.4 23.8.3 29.6 1.1.7 6.4.1 38 .1 46.4z" class="m"/><path d="M18.1 128c.1-.6 6.2.9 7.3.7 0 1.4.8 3.8.8 5.8 0 1.4-1.2 2.4-2.5 2.6-4.9.8-18.1 3.2-18.6-.4-.5-3 6.7-4.5 13-8.7z" class="l"/><path d="M11.6 130.8c-3.8 1.7-8.9 3.7-8.9 6-.1 3.2 14.5 1.3 14.5 1.3 0-2-3.4-6.3-5.6-7.3z" fill="#0ca39b"/><path d="M26.1 136.1c.7 0 .9 1.4.1 1.6-1.6.2-9.4 1.6-16.4 1.9-3 .1-6.2-.2-6.9-1.5-.1-.1-.3-1-.3-1.2 1.3 1 4.2 1.4 7 1.2 7.3-.5 12.5-1.4 16.5-2z" fill="#057c7c"/><path d="M47.9 128c-.1-.6-6.2.9-7.3.7 0 1.4-.8 3.8-.8 5.8 0 1.4 1.2 2.4 2.5 2.6 4.9.8 18.1 3.2 18.6-.4.4-3-6.8-4.5-13-8.7z" class="l"/><path d="M54.4 130.8c3.8 1.7 8.9 3.7 8.9 6 .1 3.2-14.5 1.3-14.5 1.3 0-2 3.4-6.3 5.6-7.3z" fill="#0ca39b"/><path d="M39.9 136.1c-.7 0-.9 1.4-.1 1.6 1.6.2 9.4 1.6 16.4 1.9 3 .1 6.2-.2 6.9-1.5.1-.1.3-1 .3-1.2-1.3 1-4.2 1.4-7 1.2-7.3-.5-12.5-1.4-16.5-2z" fill="#057c7c"/><path d="M11.3 51.9c-3.5-2.2.4-7.7.9-7.4 6.6 3.3 15.3 6.7 17.2 7.3l-4 7.6c-3.8-2.2-8.6-4-14.1-7.5z" class="l"/><g class="m"><path d="M16.6 46.5c-1.9 2.2-2.6 7.5-2.7 10.2 5.4 2.2 11 5.5 11.5 5.4 4.3-.8 6.8-10.5 7.1-11-2.8-.6-10.6-2.6-15.9-4.6z"/><path d="M31.6 47.811l14.184 1.819-.687 5.356-14.184-1.819z"/></g><path d="M50.3 91.3c-9.6 2.2-22.9 1.4-30.8-2.2l.7-7.8 29.9 1.5a178.58 178.58 0 0 1 .2 8.5z" opacity=".22"/><g class="m"><path d="M58 73c-1.2 1.6-4.8 1.6-6.7 1.4-2.5-5.8-5.9-12.1-5.9-12.5-.2-4.3 6.1-5.9 6.4-6.1 1.9 2.3 4.7 10.9 6.2 17.2z"/><path d="M17 84.8c7.9 5.4 27.2 7.5 34.6 3.5 0 0 .7-26.1.2-32.5-10.9-9.4-14.6-4.6-28.1-4.4-1.9 7.8-4.3 21.8-6.7 33.4z"/></g><path d="M44.8 45.6l-1 9.2c-.2 2-3.5 2.5-6.2 3.1-1.5-.8-5.2-2.4-4.9-4.3l1-9.2 11.1 1.2z" class="l"/><path d="M45.2 53c-1.5 3.9-3.9 4.2-7.6 4.9-3.4-1.6-4.4-3.7-5.6-6.5h-2.2l.4 7.4 3.9-1.2 3.4.7 3.5.2 3.4 2.2 2.4-7.3-1.6-.4z" fill="#440f03" class="p"/><g class="m"><path d="M37.7 57.9c-1.1-.1-3.1-1.5-3.1-1.5l-3.6 2-.5-7 1.3-4c.4 3.8 2.7 9.1 5.9 10.5z"/><path d="M37.5 57.9c1.1.2 3.4-.7 3.4-.7l3 2.8 2.2-6.8-.2-4.1c-1.4 3.7-5 8.2-8.4 8.8z"/></g><path d="M38.1 61.3c-.1.4-.5.7-.9.7-.4-.1-.7-.5-.7-.9.1-.4.5-.7.9-.7.5 0 .8.4.7.9zm-.7 5.9c-.1.4-.5.7-.9.7-.4-.1-.7-.5-.7-.9.1-.4.5-.7.9-.7s.7.4.7.9zm-.9 6.4c-.1.4-.5.7-.9.7-.4-.1-.7-.5-.7-.9.1-.4.5-.7.9-.7.5.1.8.5.7.9zm-.1 6.8a.75.75 0 0 1-.9.7.75.75 0 0 1-.7-.9.75.75 0 0 1 .9-.7c.4.1.7.5.7.9z" fill="#fff"/><path d="M32.8 51.5l.8-7.1 11.2 1.2-.7 6.4c-2.8.8-7.6 1.3-11.3-.5z" opacity=".19" class="r"/><path d="M64.1 34.8c-1 4.8-5.5 8.1-9.1 7.8s-4.5-4.1-4.1-8.7 3.6-8.2 7.1-7.9c4.9.4 7.1 4.3 6.1 8.8z" class="l"/><path d="M60.3 35.9c-.2 2.1-1.8 3.7-3.7 3.6s-3.3-2-3.1-4.1 1.8-3.7 3.7-3.6 3.2 2 3.1 4.1z" fill="#e0956c"/><path d="M11.8 38.3c1.6 4.7 6.5 7.3 10.1 6.6 3.5-.7 3.9-4.7 3-9.2s-4.6-7.6-8.1-6.9c-4.9 1-6.5 5.1-5 9.5z" class="l"/><path d="M16 38.8c.4 2.1 2.3 3.5 4.1 3.1s3-2.4 2.5-4.5c-.4-2.1-2.3-3.5-4.1-3.1s-3 2.4-2.5 4.5z" fill="#e0956c"/><path d="M13.1 23c1.2 16.3 11.5 23 25.3 22s24.3-9.1 23.1-25.4C60.4 3.3 48.3-.6 36.1.1 23.6.7 11.9 6.7 13.1 23z" class="o"/><path d="M17.5 17.6c-2 7.9 1.3 24.2 4.2 27.2 3.1 3.1 11.5 6.6 17.4 6.3 6.2-.3 14-4.7 16.1-8.5 2.4-4.5 3.7-19.4 1.3-26-2.9-8.1-11-9.8-20.7-9.2-9 .5-16.5 3.2-18.3 10.2z" class="l"/><path d="M54.6 36.5c.1.9-1.1 1.9-2.7 2.1s-3-.4-3.2-1.3c-.1-.9 1.1-1.9 2.7-2.1 1.7-.2 3.1.4 3.2 1.3zm-27 2.3c0 1-1.3 1.7-3 1.7-1.6 0-3-.8-2.9-1.7 0-1 1.3-1.7 3-1.7 1.6 0 2.9.7 2.9 1.7z" fill="#ff9797"/><path d="M37 36.4c.1 0 .2-.1.2-.2.1-.8.7-1.3 1.5-1.4s1.5.4 1.7 1.2c0 .1.1.2.3.2.1 0 .2-.1.2-.3-.2-1-1.1-1.6-2.1-1.5s-1.8.8-1.9 1.8c-.1 0 0 .1.1.2h0z" fill="#c4735b"/><path d="M29.4 18a.76.76 0 0 0-.4.2c-1.3 1.7-4.1 2.6-6.6 2.2-.3-.1-.7.2-.7.5-.1.3.2.7.5.7 3 .5 6.3-.6 7.8-2.7.2-.3.2-.7-.1-.9h-.5z" fill="#6d1403"/><path d="M58.7 16.8c-.1-2.8-2-9.8-7.4-12.3C44.4 1.2 31.3.1 18.6 9c2 6.9 15.4 8.7 20.8 8-1.8-.7-4.3-2.4-4.4-3.7 2.6 1.7 23.8 9.9 23.7 3.5z" class="o"/><path d="M45.5 17.3c-.2 0-.4.1-.5.2-.2.3-.2.7 0 .9 1.9 1.8 5.3 2.3 8.1 1.4.3-.1.5-.5.4-.8s-.5-.5-.8-.4c-2.4.8-5.3.4-6.9-1.1 0-.2-.2-.2-.3-.2z" fill="#6d1403"/><path d="M43 28.2c-1.4 2.4-1 4.9.5 5.8 2.2 1.3 7.1 1.3 8.8-.9 1.6-2.2.4-5.8-2.6-7.1-2.7-1.3-5.4-.2-6.7 2.2z" fill="#f9feff"/><path d="M52 26.8c-2.5-3.4-7.8-1.7-9.1 1.5 1.4-2.4 4.2-3.3 6.7-2.2 1.5.7 2.6 2 3.1 3.5.3 1.2.2 2.7-.5 3.6.7-.7 1.7-3.9-.2-6.4z" class="s"/><path d="M49.4 29.2c.8 1.5.1 3.4-1.4 4.1-1.5.8-3.4.1-4.1-1.4-.8-1.5-.1-3.4 1.4-4.1 1.5-.8 3.4-.1 4.1 1.4z" fill="#872c04"/><path d="M49.8 30.4c.2.4 0 .9-.4 1.1s-.9 0-1.1-.4 0-.9.4-1.1.9-.1 1.1.4z" fill="#fefffe"/><path d="M58.1 8.6c-.6-.7-5.7 0-8.4.6 7-.6 5.6 7.1 6.4 13.5.5 4.3 1.7 8 4.1 7.5-.5-4.4-1.4-18.6-2.1-21.6zm-42.8 2.9c.5-.8 5.6-.7 8.4-.5-7.1.3-4.7 7.7-4.6 14.3.1 4.4-.7 8.2-3.1 8 0-4.6-1-18.8-.7-21.8z" class="o"/><path d="M58 14.1C53.9 5.8 46.8 1.6 34.8 2.3c-9.8.6-17.2 6-20.4 15C19 9.3 25.7 5 35.7 4.6c9.1-.4 16.5 2.5 22.3 9.5z" fill="#f49000"/><path d="M52.1 8.8c-2.2-.1-5.5-.2-6.6-1.2-.7-.6 1-4 3.5-4.6 1.3-.3 3.9 1.7 4.3 3.9.3 1.2-.1 2-1.2 1.9zm.9 1c.8 3.5 1.8 5.8 3 6 1.8.4 5.3-2.4 4.9-4.3-.4-2-4.6-4-6.5-3.6-1.2.2-1.7.8-1.4 1.9z" fill="#ffa10b"/><g opacity=".35"><path d="M52.6 7.7c-.2-.6-1.2-2.3-1.9-1.4-.9 1.2 1.3 1.5 1.9 1.4z" fill="#c12400"/></g><g opacity=".35"><path d="M54 8.7c.8.2 3.1.8 1.9 1.8-1.2.9-1.8-1-1.9-1.8z" fill="#c12400"/></g><path d="M52.3 7.7c-.4.6-.4 1.4.1 1.8.5.3 1.3.1 1.7-.5s.4-1.4-.1-1.8c-.5-.3-1.3-.1-1.7.5z" fill="#ffa10b"/><path d="M36 45.3c.1 1.4 1.8 2.4 3.7 2.2s3.3-1.4 3.2-2.8-1.8-2.4-3.7-2.2c-1.8.2-3.3 1.4-3.2 2.8z" fill="#701608"/><path d="M51.5 24.9c-1.9-.9-3.9-.8-5.8-.1-2 .7-3.6 2.3-3.7 3.6h0c-.2.5-.2 1-.2 1.6 1 .2 2.1.3 3.4.3 2.9 0 5.5-.3 7.7-.9.9-1.3.5-3.6-1.4-4.5z" class="s"/><path d="M52.1 24.1c-2-.8-4.1-.7-6.2 0s-3.9 2.3-4.1 3.5h0c-.2.5-.3 1-.3 1.5 1 .2 2.2.3 3.6.2 3.1-.1 5.8-.4 8.2-1 1.2-1.2.8-3.4-1.2-4.2z" class="l"/><path d="M23.6 30.1c1.7-1.3 3.6-1.6 5.7-1.3s4 1.5 4.4 2.7c.3.4.4.9.5 1.5-.9.4-2 .8-3.2 1-2.9.6-5.4.8-7.7.8-1.3-1-1.4-3.4.3-4.7z" class="s"/><path d="M22.7 28.9c1.7-1.3 3.8-1.6 6-1.3s4.2 1.5 4.6 2.7c.3.4.4.9.5 1.5-1 .4-2.1.8-3.4 1-3 .6-5.7.8-8.1.7-1.2-1-1.3-3.3.4-4.6z" class="l"/><path d="M24.2 27.5c1.2-.8 3.2.2 4.5 1.2 2.9 1.4 3 1.9 3.1 2.1.3.8-1 4.2-1.4 5.1-.1.2-.3.4-.5.5l-.1.3c-.2.3-.9.9-1.5.9h-.2c-.1 0-.1.1-.2.1-.2.2-.4.3-.7.3l-1.6.8.6-.9-1.1 1.4v-.9c-.5.1-1.1 0-1.7-.3-.9.2-1.7.4-2.4.4-.9.5-2.4.5-3.4 0-.9-.5-1.5-1.3-1.6-2.3-.2-1.6 7.8-8.4 8.2-8.7zM20.8 38h0 0z" opacity=".2" class="r"/><path d="M31.2 31c.2.4-.7 3.3-1.4 4.5-.3.5-.8.4-1.6-.6-2.8-.4-4.6-2-4.8-3.5s.3-3 2.3-3.3c.4-.1 5.3 2.3 5.5 2.9z" fill="#f9ac85"/><path d="M21.9 31.3c-1.9 2.2-3.6 4.9-3.5 5.8.2 1.5 3.2 1.1 6.2.1.5-.2 1.4-.7 2.5-1.3v-.7c-.3-2.5-2.7-4.2-5.2-3.9z" class="q"/><path d="M29.2 36.3c-.3.4-1 1-1.3.5-.7.9-1.3.9-1.9.3-.7 2-3.4.1-3.4-.4.1-2.5 1.6-2.1 1.7-1.3 0 .5-.2.6-.1.7.1 0 .4-.9.2-1.2-.3-.4-.7-.6-1.5-1.1-.5.3-.5 3.4-2.2 4.4-1.2.7-3.9.3-4.1-1.9-.1-1 6.9-7.4 7.9-8.1 1.5-1 5.5 2.3 5.9 3.1.6.8.1 1.5-1.2 5z" class="l"/><path d="M28.5 32.1l-1.7-1.7h-.2v.2l1.7 1.6.3.3c.2.2-.1 2.7-1.1 4.6.1 0 .3-.3.3-.3.8-1.6 1.2-4.1.9-4.4 0-.1-.1-.2-.2-.3zm-1.9 1.2c-.4-.4-1-1.1-1.8-1.7h-.2v.2c.7.6 1.4 1.3 1.7 1.7l.2.2c.2.2-.8 3.7-.8 3.7l.2-.2c.4-1.4 1.1-3.4.8-3.7.1 0 0-.1-.1-.2z" class="q"/><path d="M19.9 36.3c.1-.4-4.2-1.3-4.4-.9-2.1 5.7-6.2 11.5-6.3 13-.3 3.2 4 5.7 6.7 1.8 1.5-2.1 2.9-8.9 4-13.9z" class="l"/><path d="M21.8 42c-2-1.3-5.1-3-7.6-4.2-2.8 4.7-6.2 10.6-5.9 12.6.7 4.3 5.1 6.2 7.9 7.4.5-1.4 2.1-4.5 3.2-7.7.9-2.9 1.3-5.7 2.4-8.1z" class="m"/><path d="M22.2 43.1l2-3.7-9.9-4.5-2 3.7zm15.502 79.947l13.191-.491.201 5.396-13.191.491zm-22.845 3.785l.942-5.317 12.998 2.302-.942 5.317z" fill="#f96938"/><g opacity=".2"><path d="M36.5 72.7c.9-1.3 2.1-2.6 3.2-3.3-2.3-2.2-3.2-5-2.6-8.1.3-1.3.7-2.5 1.3-3.5-.9-.8-1.3-1.8-1.2-2.7.4-2.7 2.5-4 4.4-4.1s3.5.9 3.9 2.6v.1c1.3-.1 2.6.1 3.9.5l.8.3 1.5 1.2c1.3 1.6 3.1 6.3 4.6 11.1-.9 2.9-2.7 5-5.3 5.8.1.3.6 2.3.8 3.1l-.1 7.4c-.1 0-.2.1-.3.1l.3.3-.1 4.7c-.5.3-.9.5-1.4.8-.3 0-.6-.1-1-.2-1.7-.7-3.1-3.1-3.8-5.3h-.3c.5 1.1 1.1 2.4 1.8 3.3s.4 2.1-.6 3c-.7.6-1.7 1-2.6 1-.8 0-1.6-.3-2.2-.9-1.3-1.3-2.5-4.7-2.3-7.7-.1-.1-.3-.2-.4-.3-.5.6-1.2.9-2 .8-1.2-.1-2.2-1-2.3-2-.1-1.2-.3-4.7 2-8z"/></g><path d="M47.9 74.2c.5-2.7 1-4.2 1.8-3.6.7.6 1.1 4.3 2.8 9.3 1.1 3-2.1 3.3-2.9 1.9-1-1.6-2.3-4.5-1.7-7.6z" fill="#ca7d25"/><g class="n"><path d="M52.2 85l-6.6-7.3c-1.4 2.5 1.3 9.5 3.9 10.5 2.1.9 4.1-1.5 2.7-3.2z"/><path d="M50.6 78.6c-.1 2-2.4 4.2-5.2 4.2s-6.9-.3-7.1-2.9c-.4-4 1.3-11.4 5.6-11.6 3.4-.1 6.9 6.3 6.7 10.3zm2.1-16.7c1.1.6 3.3.2 4.5-.5 3-1.7 2.3-6.2-1.5-5.6-2.4.5-4.1 5.6-3 6.1z"/></g><path d="M55.1 60.7c.3.4 1.6.5 2.4-.4 1-1-.4-2.7-1.7-1.6-.8.6-.8 1.9-.7 2z" class="t"/><path d="M55.9 66.3c-1.3 4.7-4.7 6.6-8.6 6-6.3-1-10.7-5.3-9.6-10.9 1.2-6.2 6.3-8.2 11.6-6.7 5.2 1.6 8.2 5.6 6.6 11.6z" class="n"/><path d="M52 69.9c.9-1.6.3-4.4-1.7-5.1-2.5-.8-5.8 1.3-5.5 3.5.3 2.8 5.9 3.8 7.2 1.6z" fill="#fdd566"/><g class="t"><path d="M50 68.9c.1 0 .1 0 .2-.1.2-.5.5-1.4.4-2.3 0-.1-.1-.1-.2-.1s-.1.1-.1.2c.1.8-.1 1.6-.4 2.1 0 .1 0 .2.1.2z"/><path d="M48.7 69.3c.5.1 1.1 0 1.4-.4.1-.1.1-.1 0-.2-.1 0-.1-.1-.2 0-.3.3-.8.4-1.2.3h-.1c-.3-.1-.4-.3-.5-.7 0-.1-.1-.1-.1-.1-.1 0-.1.1-.1.1 0 .5.3.8.6.9.1.1.1.1.2.1z"/><path d="M50.5 69.7c.4.1.8 0 1-.3v-.2h-.2c-.1.2-.5.3-.7.2-.1 0-.4-.2-.3-.6 0-.1 0-.1-.1-.2-.1 0-.2 0-.2.1-.1.5.2.8.5.9-.1.1 0 .1 0 .1zm1.1-3.5c-.1.5-.8.9-1.2.8-.5-.1-1.5-.9-1.4-1.5.2-.6 2.8.1 2.6.7zm-3.7-2.9c-.1.5-.7.8-1.2.7s-.8-.7-.7-1.2.7-.8 1.2-.7.8.6.7 1.2zm5.6 1.4c-.1.5-.6.8-1 .7s-.6-.6-.5-1.1.6-.8 1-.7.6.6.5 1.1zm1.4-3.5c-.1.2-.5.3-.8.2-.4-.1-.6-.5-.5-.7s.5-.3.8-.2.6.5.5.7zm-6.8-2.1c0 .3-.4.4-.9.4s-.8-.3-.8-.5c0-.3.4-.4.9-.4s.9.2.8.5z"/></g><path d="M43.9 58.8c1.1-1.2 1.4-3.7 1-5-.9-3.3-6.5-2.8-7.1 1.4-.4 2.7 5 4.7 6.1 3.6z" class="n"/><path d="M42.5 56.9c.5-.3 1-1.5.4-2.3-.7-1-3.1.3-2.3 1.6.4.7 1.7.8 1.9.7z" class="t"/><path d="M43.3 76.3c.1 2.5 1.4 4.3 4.8 3.8 1.9-.3 2.1-2.9 1.5-4.9-.7-2.3-1.7-3.4-3.3-3.4-2.2-.1-3.1 1.8-3 4.5z" fill="#fdd566"/><path d="M43.9 82.9c-.3-1.2-.4-2-.3-2.3.4.2.9 1.1 1.5 2.4-.4-.1-.8-.1-1.2-.1z" fill="#904f18" class="p"/><path d="M46.5 87.3c-1.4-1.9-2.5-4.9-3.4-6.9-.4-1-.9-1.4-1.7-1.6-3 2.1-1.4 8.8.5 10.8 2 1.9 5.9-.5 4.6-2.3z" class="n"/><path d="M38.3 80c-.1-.8-.1-1.9 0-2.9.3-1.6 2.4-5.4 2.8-5.4s-.9 3.7-1.2 5.7l-.6 4.2c-.6-.5-.9-1-1-1.6z" fill="#65401d" class="p"/><path d="M37 73.1c1.6-2.2 3.8-4.1 4.3-3.3.8 1.7-2 5.1-2.4 10.4-.2 3.2-3.4 2.2-3.7.6-.3-2.2 0-5.2 1.8-7.7z" class="n"/><path d="M46.9 81.8c-.6-2.3-1.1-5.9-1.4-8.6 5.5-1 9.5-3.2 10.9-2.4 2.6 1 2.1 7.7-.9 8.5-1 .2-3.9 2-8.6 2.5z" class="m"/><path d="M34.2 77c.5-.8 1.5-.7 3.3-.3.3.1 1.2 0 1.8-.1.5-.1 1.1-.1 1.4-.1.2 0 .5 0 .7-.1 0 0-.1-.1-.2-.1-.1-.1-.2-.1-.3-.2l-.3-.2c-.5-.4-1.1-.7-1.4-1.3-.3-.5-.4-1.4.1-1.9.3-.3.7-.3 1-.1.6.3 1 .4 1.6.6.2.1.5.1.9.2 1.1.3 2.8 1.1 4.2 3 .2.3.4.6.5 1 .3 1.2.3 2.1 0 3l-.1.2-.8.5c-2.5 1.8-4.2 2.9-4.9 3-1.1.3-2.4.5-2.7.5-.8 0-1.9-.9-2.4-1.4s-.6-.8-.6-1c-.2-.2-.4-.4-.5-.6a1.93 1.93 0 0 1-.3-1c-.2-.2-.4-.4-.6-.5-.2-.3-.3-.7-.1-1a.78.78 0 0 1 .4-.4c-.6-.4-.8-.7-.9-1 0-.2.1-.5.2-.7z" opacity=".2" class="r"/><g class="l"><path d="M37.4 77.3c.8.2 2.7-.2 3.6-.2-.2.7-.4 1.6-.4 2.1-1.2 0-2.4 0-3.3-.2-2.8-1.1-2.6-1.6-2.6-1.7.2-.4 1-.4 2.7 0z"/><path d="M47 77.5c-.2-.6-.6-1.3-1.5-1.3-.6 0-2.2.6-3.2.7-.6.2-1.8.2-2.5.3-.1.4 0 1.1 0 1.6.6.1.6.1.2.3.2 1.2 1.1 3.5 1.6 4.2 1-.1 4.4-2.7 5.3-3.3.4-.6.5-1.3.1-2.5z"/></g><path d="M36 80.8c-.1-.3-.1-.5-.3-.7 1.2.3 5.2.2 5.3.7.1.6-2.6 1-3.1 1-.6-.1-1.3-.6-1.9-1z" class="q"/><path d="M38.2 81.4l2.8-.7s-.3-1.2-.3-1.8c-.5.2-2.6.8-3.1.9-.3 0-1.3-.6-2-.7-.3-.1-.9.2-.6.6.5.3 2.4 1.9 3.2 1.7zm3 .8c-.4.1-1.5.2-2 .3-.7.1-2.6-1.3-2.6-.4 0 .4 1.7 1.9 2.5 1.9.3 0 1.4-.2 2.6-.5l-.5-1.3z" class="l"/><path d="M38.5 83.4c-.4 0-1.8-1.2-1.8-1.3 0-.5 3.1-.1 4.4-.3 0 .2.1.7.1 1-.3.1-1.8.5-2.7.6z" class="q"/><path d="M38.5 83.1c.8 0 2.3-.4 3.1-.7-.2-.5-.5-1-.6-1.5l-2.9.7c-.5 0-1.8-.8-2.2-1.1-.1-.1-.1.4.1.7.6.8 1.9 2 2.5 1.9zm8.1-6.4c-1.3-1.7-2.9-2.4-3.9-2.7-1.2-.3-1.7-.4-2.6-.9-.5-.3-.5.7-.3 1.2.3.5.9.9 1.5 1.3.5.4.7.4.9.8.1.2-.1.5-.4.7 1.1.9 4.8-.2 4.8-.4z" class="l"/><path d="M49.3 82.1l-4.1.9-2.2-9.8 4.1-.9z" fill="#f96938"/></svg>