<?xml version="1.0" encoding="UTF-8" standalone="no"?>
<!DOCTYPE svg PUBLIC "-//W3C//DTD SVG 1.1//EN" "http://www.w3.org/Graphics/SVG/1.1/DTD/svg11.dtd">
<svg xmlns="http://www.w3.org/2000/svg" xmlns:xlink="http://www.w3.org/1999/xlink" version="1.1" width="281.7pt" height="142pt" viewBox="0 0 281.7 142">
<g enable-background="new">
<g>
<g id="Layer-1" data-name="Layer 1">
<clipPath id="cp0">
<path transform="matrix(1,0,0,-1,0,142)" d="M 0 142 L 281.7 142 L 281.7 0 L 0 0 Z "/>
</clipPath>
<g clip-path="url(#cp0)">
<path transform="matrix(1,0,0,-1,60.7,0)" d="M 0 0 L 211 0 C 216.5 0 221 -4.5 221 -10 L 221 -132 C 221 -137.5 216.5 -142 211 -142 L 0 -142 C -5.5 -142 -10 -137.5 -10 -132 L -10 -10 C -10 -4.5 -5.6 0 0 0 " fill="#ffe493"/>
<path transform="matrix(1,0,0,-1,265.7,0)" d="M 0 0 L 6 0 C 11.5 0 16 -4.5 16 -10 L 16 -132 C 16 -137.5 11.5 -142 6 -142 L 0 -142 C -5.5 -142 -10 -137.5 -10 -132 L -10 -10 C -10 -4.5 -5.6 0 0 0 " fill="#ffc000"/>
<path transform="matrix(1,0,0,-1,5.5,46.300004)" d="M 0 0 C 2.2 -.1 4.2 1.8 3.9 3.6 C 1.5 6.5 2.3 7.2 4.7 13.2 C 6.5 17.7 6.4 29.1 8.3 33.2 C 12 43.9 24.9 46.7 34.8 45.7 C 45.5 44.7 54.4 40.7 56.7 30.9 C 59.1 20.7 59.6 14.8 61.4 11.4 C 63 8.3 61.3 7.1 60.9 5.2 C 61.9 3 64.1 1.5 65.5 2.7 C 65.5 1.3 63.8 .6 62.8 1 C 62.3 1.2 61.9 1.6 61.9 1.6 C 62.4 .7 63.6 -1 63.8 -2.3 C 64.1 -4.6 62.8 -8.5 59.3 -10.5 C 60.6 -9.1 62.2 -6.8 61.6 -4.9 C 60.9 -8.7 57.2 -12.8 51.3 -12.4 C 45.6 -13.3 26.3 -15 21.5 -14.8 C 16.6 -14.6 6.5 -13.5 4 -9.1 C 4 -10.2 4.5 -10.9 5 -11.6 C 2 -9.3 1.4 -7 1.6 -4.6 C 1.8 -2.7 3.2 -.8 3.8 .3 C 2.3 -1.2 1.3 -1.8 0 0 " fill="#aa3900"/>
<g opacity=".25">
<clipPath id="cp1">
<path transform="matrix(1,0,0,-1,0,142)" d="M 24.691 43.7172 L 29.0375 43.7172 L 29.0375 48.3 L 24.691 48.3 Z "/>
</clipPath>
<g clip-path="url(#cp1)">
<path transform="matrix(1,0,0,-1,26.4,94)" d="M 0 0 L -.3 -1 C -.3 -1.1 -.4 -1.2 -.5 -1.2 L -1.5 -1.6 C -1.7 -1.7 -1.8 -2 -1.6 -2.1 L -.7 -2.7 C -.6 -2.8 -.6 -2.8 -.6 -2.9 L -.6 -4 C -.6 -4.2 -.3 -4.4 -.1 -4.2 L .7 -3.5 C .8 -3.4 .9 -3.4 1 -3.4 L 2 -3.7 C 2.2 -3.8 2.4 -3.5 2.4 -3.3 L 2 -2.3 L 2 -2 L 2.6 -1.1 C 2.7 -.9 2.6 -.6 2.3 -.6 L 1.2 -.7 C 1.1 -.7 1 -.7 1 -.6 L .3 .3 C .3 .3 0 .3 0 0 " fill="#f9951e"/>
</g>
</g>
<g opacity=".119995">
<clipPath id="cp2">
<path transform="matrix(1,0,0,-1,0,142)" d="M 0 .0000152588 L 67.4 .0000152588 L 67.4 7.20003 L 0 7.20003 Z "/>
</clipPath>
<g clip-path="url(#cp2)">
<path transform="matrix(1,0,0,-1,33.7,134.8)" d="M 0 0 C 18.612 0 33.7 -1.612 33.7 -3.6 C 33.7 -5.588 18.612 -7.2 0 -7.2 C -18.612 -7.2 -33.7 -5.588 -33.7 -3.6 C -33.7 -1.612 -18.612 0 0 0 "/>
</g>
</g>
<path transform="matrix(1,0,0,-1,40.8,133.9)" d="M 0 0 C 0 -.2 7.8 .2 7.8 .5 C 7.7 3.1 7.6 31 7.6 32.5 L -3.8 32.5 C -3.3 30 -.3 1.7 0 0 " fill="#ffc19f"/>
<path transform="matrix(1,0,0,-1,24.8,133.9)" d="M 0 0 C 0 -.2 -7.4 -.1 -7.3 .1 C -7.2 2.7 -5.4 33.7 -5.3 35.2 L 5.2 34.6 C 4.7 32.1 .3 1.7 0 0 " fill="#ffc19f"/>
<path transform="matrix(1,0,0,-1,50.1,126.7)" d="M 0 0 C -1.5 -.1 -9.7 -.2 -11.6 -.1 C -11.9 4.1 -13.7 23 -14.1 29.5 C -14.2 31 -16.5 31.3 -17 29.7 C -17.3 28.7 -22.2 4.7 -22.9 -.1 C -26.1 .3 -31.6 .8 -33.8 1.3 L -29.7 47.5 C -24.3 47.9 -5.9 47.2 -.1 46.4 C .6 40 0 8.4 0 0 " fill="#f95006"/>
<path transform="matrix(1,0,0,-1,18.1,128)" d="M 0 0 C .1 .6 6.2 -.9 7.3 -.7 C 7.3 -2.1 8.1 -4.5 8.1 -6.5 C 8.1 -7.9 6.9 -8.9 5.6 -9.1 C .7 -9.9 -12.5 -12.3 -13 -8.7 C -13.5 -5.7 -6.3 -4.2 0 0 " fill="#ffc19f"/>
<path transform="matrix(1,0,0,-1,11.6,130.8)" d="M 0 0 C -3.8 -1.7 -8.9 -3.7 -8.9 -6 C -9 -9.2 5.6 -7.3 5.6 -7.3 C 5.6 -5.3 2.2 -1 0 0 " fill="#0ca39b"/>
<path transform="matrix(1,0,0,-1,26.1,136.1)" d="M 0 0 C .7 0 .9 -1.4 .1 -1.6 C -1.5 -1.8 -9.3 -3.2 -16.3 -3.5 C -19.3 -3.6 -22.5 -3.3 -23.2 -2 C -23.3 -1.9 -23.5 -1 -23.5 -.8 C -22.2 -1.8 -19.3 -2.2 -16.5 -2 C -9.2 -1.5 -4 -.6 0 0 " fill="#057c7c"/>
<path transform="matrix(1,0,0,-1,47.9,128)" d="M 0 0 C -.1 .6 -6.2 -.9 -7.3 -.7 C -7.3 -2.1 -8.1 -4.5 -8.1 -6.5 C -8.1 -7.9 -6.9 -8.9 -5.6 -9.1 C -.7 -9.9 12.5 -12.3 13 -8.7 C 13.4 -5.7 6.2 -4.2 0 0 " fill="#ffc19f"/>
<path transform="matrix(1,0,0,-1,54.4,130.8)" d="M 0 0 C 3.8 -1.7 8.9 -3.7 8.9 -6 C 9 -9.2 -5.6 -7.3 -5.6 -7.3 C -5.6 -5.3 -2.2 -1 0 0 " fill="#0ca39b"/>
<path transform="matrix(1,0,0,-1,39.9,136.1)" d="M 0 0 C -.7 0 -.9 -1.4 -.1 -1.6 C 1.5 -1.8 9.3 -3.2 16.3 -3.5 C 19.3 -3.6 22.5 -3.3 23.2 -2 C 23.3 -1.9 23.5 -1 23.5 -.8 C 22.2 -1.8 19.3 -2.2 16.5 -2 C 9.2 -1.5 4 -.6 0 0 " fill="#057c7c"/>
<path transform="matrix(1,0,0,-1,11.3,51.9)" d="M 0 0 C -3.5 2.2 .4 7.7 .9 7.4 C 7.5 4.1 16.2 .7 18.1 .1 L 14.1 -7.5 C 10.3 -5.3 5.5 -3.5 0 0 " fill="#ffc19f"/>
<path transform="matrix(1,0,0,-1,16.6,46.5)" d="M 0 0 C -1.9 -2.2 -2.6 -7.5 -2.7 -10.2 C 2.7 -12.4 8.3 -15.7 8.8 -15.6 C 13.1 -14.8 15.6 -5.1 15.9 -4.6 C 13.1 -4 5.3 -2 0 0 " fill="#f95006"/>
<path transform="matrix(1,0,0,-1,31.6002,47.810899)" d="M 0 0 L 14.184 -1.819 L 13.497 -7.175 L -.687 -5.356 Z " fill="#f95006"/>
<g opacity=".220001">
<clipPath id="cp3">
<path transform="matrix(1,0,0,-1,0,142)" d="M 19.5 49.48 L 50.3 49.48 L 50.3 60.7 L 19.5 60.7 Z "/>
</clipPath>
<g clip-path="url(#cp3)">
<path transform="matrix(1,0,0,-1,50.3,91.3)" d="M 0 0 C -9.6 -2.2 -22.9 -1.4 -30.8 2.2 L -30.1 10 C -24.6 9.7 -10.1 9.1 -.2 8.5 C -.1 6.4 0 3.5 0 0 "/>
</g>
</g>
<path transform="matrix(1,0,0,-1,58,73)" d="M 0 0 C -1.2 -1.6 -4.8 -1.6 -6.7 -1.4 C -9.2 4.4 -12.6 10.7 -12.6 11.1 C -12.8 15.4 -6.5 17 -6.2 17.2 C -4.3 14.9 -1.5 6.3 0 0 " fill="#f95006"/>
<path transform="matrix(1,0,0,-1,17,84.8)" d="M 0 0 C 7.9 -5.4 27.2 -7.5 34.6 -3.5 C 34.6 -3.5 35.3 22.6 34.8 29 C 23.9 38.4 20.2 33.6 6.7 33.4 C 4.8 25.6 2.4 11.6 0 0 " fill="#f95006"/>
<path transform="matrix(1,0,0,-1,44.8,45.6)" d="M 0 0 L -1 -9.2 C -1.2 -11.2 -4.5 -11.7 -7.2 -12.3 C -8.7 -11.5 -12.4 -9.9 -12.1 -8 L -11.1 1.2 Z " fill="#ffc19f"/>
<g opacity=".25">
<clipPath id="cp4">
<path transform="matrix(1,0,0,-1,0,142)" d="M 29.8 81.3 L 46.8 81.3 L 46.8 90.6 L 29.8 90.6 Z "/>
</clipPath>
<g clip-path="url(#cp4)">
<path transform="matrix(1,0,0,-1,45.2,53)" d="M 0 0 C -1.5 -3.9 -3.9 -4.2 -7.6 -4.9 C -11 -3.3 -12 -1.2 -13.2 1.6 L -15.4 1.6 L -15 -5.8 L -11.1 -4.6 L -7.7 -5.3 L -4.2 -5.5 L -.8 -7.7 L 1.6 -.4 Z " fill="#440f03"/>
</g>
</g>
<path transform="matrix(1,0,0,-1,37.7,57.9)" d="M 0 0 C -1.1 .1 -3.1 1.5 -3.1 1.5 L -6.7 -.5 L -7.2 6.5 L -5.9 10.5 C -5.5 6.7 -3.2 1.4 0 0 " fill="#f95006"/>
<path transform="matrix(1,0,0,-1,37.5,57.9)" d="M 0 0 C 1.1 -.2 3.4 .7 3.4 .7 L 6.4 -2.1 L 8.6 4.7 L 8.4 8.8 C 7 5.1 3.4 .6 0 0 " fill="#f95006"/>
<path transform="matrix(1,0,0,-1,38.1,61.300004)" d="M 0 0 C -.1 -.4 -.5 -.7 -.9 -.7 C -1.3 -.6 -1.6 -.2 -1.6 .2 C -1.5 .6 -1.1 .9 -.7 .9 C -.2 .9 .1 .5 0 0 " fill="#ffffff"/>
<path transform="matrix(1,0,0,-1,37.4,67.2)" d="M 0 0 C -.1 -.4 -.5 -.7 -.9 -.7 C -1.3 -.6 -1.6 -.2 -1.6 .2 C -1.5 .6 -1.1 .9 -.7 .9 C -.3 .9 0 .5 0 0 " fill="#ffffff"/>
<path transform="matrix(1,0,0,-1,36.5,73.6)" d="M 0 0 C -.1 -.4 -.5 -.7 -.9 -.7 C -1.3 -.6 -1.6 -.2 -1.6 .2 C -1.5 .6 -1.1 .9 -.7 .9 C -.2 .8 .1 .4 0 0 " fill="#ffffff"/>
<path transform="matrix(1,0,0,-1,36.4,80.4)" d="M 0 0 C 0 -.4 -.4 -.8 -.9 -.7 C -1.3 -.7 -1.7 -.3 -1.6 .2 C -1.6 .6 -1.2 1 -.7 .9 C -.3 .8 0 .4 0 0 " fill="#ffffff"/>
<g opacity=".190002">
<clipPath id="cp5">
<path transform="matrix(1,0,0,-1,0,142)" d="M 32.8 89.275 L 44.8 89.275 L 44.8 97.6 L 32.8 97.6 Z "/>
</clipPath>
<g clip-path="url(#cp5)">
<path transform="matrix(1,0,0,-1,32.8,51.5)" d="M 0 0 L .8 7.1 L 12 5.9 L 11.3 -.5 C 8.5 -1.3 3.7 -1.8 0 0 " fill="#601805"/>
</g>
</g>
<path transform="matrix(1,0,0,-1,64.1,34.800004)" d="M 0 0 C -1 -4.8 -5.5 -8.1 -9.1 -7.8 C -12.7 -7.5 -13.6 -3.7 -13.2 .9 C -12.8 5.5 -9.6 9.1 -6.1 8.8 C -1.2 8.4 1 4.5 0 0 " fill="#ffc19f"/>
<path transform="matrix(1,0,0,-1,60.3,35.9)" d="M 0 0 C -.2 -2.1 -1.8 -3.7 -3.7 -3.6 C -5.6 -3.5 -7 -1.6 -6.8 .5 C -6.6 2.6 -5 4.2 -3.1 4.1 C -1.2 4 .1 2.1 0 0 " fill="#e0956c"/>
<path transform="matrix(1,0,0,-1,11.8,38.300004)" d="M 0 0 C 1.6 -4.7 6.5 -7.3 10.1 -6.6 C 13.6 -5.9 14 -1.9 13.1 2.6 C 12.2 7.1 8.5 10.2 5 9.5 C .1 8.5 -1.5 4.4 0 0 " fill="#ffc19f"/>
<path transform="matrix(1,0,0,-1,16,38.800004)" d="M 0 0 C .4 -2.1 2.3 -3.5 4.1 -3.1 C 5.9 -2.7 7.1 -.7 6.6 1.4 C 6.2 3.5 4.3 4.9 2.5 4.5 C .7 4.1 -.5 2.1 0 0 " fill="#e0956c"/>
<path transform="matrix(1,0,0,-1,13.1,23)" d="M 0 0 C 1.2 -16.3 11.5 -23 25.3 -22 C 39.1 -21 49.6 -12.9 48.4 3.4 C 47.3 19.7 35.2 23.6 23 22.9 C 10.5 22.3 -1.2 16.3 0 0 " fill="#aa3900"/>
<path transform="matrix(1,0,0,-1,17.5,17.599999)" d="M 0 0 C -2 -7.9 1.3 -24.2 4.2 -27.2 C 7.3 -30.3 15.7 -33.8 21.6 -33.5 C 27.8 -33.2 35.6 -28.8 37.7 -25 C 40.1 -20.5 41.4 -5.6 39 1 C 36.1 9.1 28 10.8 18.3 10.2 C 9.3 9.7 1.8 7 0 0 " fill="#ffc19f"/>
<path transform="matrix(1,0,0,-1,54.6,36.5)" d="M 0 0 C .1 -.9 -1.1 -1.9 -2.7 -2.1 C -4.3 -2.3 -5.7 -1.7 -5.9 -.8 C -6 .1 -4.8 1.1 -3.2 1.3 C -1.5 1.5 -.1 .9 0 0 " fill="#ff9797"/>
<path transform="matrix(1,0,0,-1,27.6,38.800004)" d="M 0 0 C 0 -1 -1.3 -1.7 -3 -1.7 C -4.6 -1.7 -6 -.9 -5.9 0 C -5.9 1 -4.6 1.7 -2.9 1.7 C -1.3 1.7 0 1 0 0 " fill="#ff9797"/>
<path transform="matrix(1,0,0,-1,37,36.4)" d="M 0 0 C .1 0 .2 .1 .2 .2 C .3 1 .9 1.5 1.7 1.6 C 2.5 1.7 3.2 1.2 3.4 .4 C 3.4 .3 3.5 .2 3.7 .2 C 3.8 .2 3.9 .3 3.9 .5 C 3.7 1.5 2.8 2.1 1.8 2 C .8 1.9 0 1.2 -.1 .2 C -.2 .2 -.1 .1 0 0 " fill="#c4735b"/>
<path transform="matrix(1,0,0,-1,29.4,18)" d="M 0 0 C -.1 0 -.3 -.1 -.4 -.2 C -1.7 -1.9 -4.5 -2.8 -7 -2.4 C -7.3 -2.3 -7.7 -2.6 -7.7 -2.9 C -7.8 -3.2 -7.5 -3.6 -7.2 -3.6 C -4.2 -4.1 -.9 -3 .6 -.9 C .8 -.6 .8 -.2 .5 0 Z " fill="#6d1403"/>
<path transform="matrix(1,0,0,-1,58.7,16.800004)" d="M 0 0 C -.1 2.8 -2 9.8 -7.4 12.3 C -14.3 15.6 -27.4 16.7 -40.1 7.8 C -38.1 .9 -24.7 -.9 -19.3 -.2 C -21.1 .5 -23.6 2.2 -23.7 3.5 C -21.1 1.8 .1 -6.4 0 0 " fill="#aa3900"/>
<path transform="matrix(1,0,0,-1,45.5,17.300004)" d="M 0 0 C -.2 0 -.4 -.1 -.5 -.2 C -.7 -.5 -.7 -.9 -.5 -1.1 C 1.4 -2.9 4.8 -3.4 7.6 -2.5 C 7.9 -2.4 8.1 -2 8 -1.7 C 7.9 -1.4 7.5 -1.2 7.2 -1.3 C 4.8 -2.1 1.9 -1.7 .3 -.2 C .3 0 .1 0 0 0 " fill="#6d1403"/>
<path transform="matrix(1,0,0,-1,43,28.199997)" d="M 0 0 C -1.4 -2.4 -1 -4.9 .5 -5.8 C 2.7 -7.1 7.6 -7.1 9.3 -4.9 C 10.9 -2.7 9.7 .9 6.7 2.2 C 4 3.5 1.3 2.4 0 0 " fill="#f9feff"/>
<path transform="matrix(1,0,0,-1,52,26.800004)" d="M 0 0 C -2.5 3.4 -7.8 1.7 -9.1 -1.5 C -7.7 .9 -4.9 1.8 -2.4 .7 C -.9 0 .2 -1.3 .7 -2.8 C 1 -4 .9 -5.5 .2 -6.4 C .9 -5.7 1.9 -2.5 0 0 " fill="#ad3c23"/>
<path transform="matrix(1,0,0,-1,49.4,29.199997)" d="M 0 0 C .8 -1.5 .1 -3.4 -1.4 -4.1 C -2.9 -4.9 -4.8 -4.2 -5.5 -2.7 C -6.3 -1.2 -5.6 .7 -4.1 1.4 C -2.6 2.2 -.7 1.5 0 0 " fill="#872c04"/>
<path transform="matrix(1,0,0,-1,49.8,30.400002)" d="M 0 0 C .2 -.4 0 -.9 -.4 -1.1 C -.8 -1.3 -1.3 -1.1 -1.5 -.7 C -1.7 -.3 -1.5 .2 -1.1 .4 C -.7 .6 -.2 .5 0 0 " fill="#fefffe"/>
<path transform="matrix(1,0,0,-1,58.1,8.600006)" d="M 0 0 C -.6 .7 -5.7 0 -8.4 -.6 C -1.4 0 -2.8 -7.7 -2 -14.1 C -1.5 -18.4 -.3 -22.1 2.1 -21.6 C 1.6 -17.2 .7 -3 0 0 " fill="#aa3900"/>
<path transform="matrix(1,0,0,-1,15.3,11.5)" d="M 0 0 C .5 .8 5.6 .7 8.4 .5 C 1.3 .2 3.7 -7.2 3.8 -13.8 C 3.9 -18.2 3.1 -22 .7 -21.8 C .7 -17.2 -.3 -3 0 0 " fill="#aa3900"/>
<path transform="matrix(1,0,0,-1,58,14.099998)" d="M 0 0 C -4.1 8.3 -11.2 12.5 -23.2 11.8 C -33 11.2 -40.4 5.8 -43.6 -3.2 C -39 4.8 -32.3 9.1 -22.3 9.5 C -13.2 9.9 -5.8 7 0 0 " fill="#f49000"/>
<path transform="matrix(1,0,0,-1,52.1,8.800003)" d="M 0 0 C -2.2 .1 -5.5 .2 -6.6 1.2 C -7.3 1.8 -5.6 5.2 -3.1 5.8 C -1.8 6.1 .8 4.1 1.2 1.9 C 1.5 .7 1.1 -.1 0 0 " fill="#ffa10b"/>
<path transform="matrix(1,0,0,-1,53,9.800003)" d="M 0 0 C .8 -3.5 1.8 -5.8 3 -6 C 4.8 -6.4 8.3 -3.6 7.9 -1.7 C 7.5 .3 3.3 2.3 1.4 1.9 C .2 1.7 -.3 1.1 0 0 " fill="#ffa10b"/>
<g opacity=".350006">
<clipPath id="cp6">
<path transform="matrix(1,0,0,-1,0,142)" d="M 50.4866 134.282 L 52.6 134.282 L 52.6 135.958 L 50.4866 135.958 Z "/>
</clipPath>
<g clip-path="url(#cp6)">
<path transform="matrix(1,0,0,-1,52.6,7.699997)" d="M 0 0 C -.2 .6 -1.2 2.3 -1.9 1.4 C -2.8 .2 -.6 -.1 0 0 " fill="#c12400"/>
</g>
</g>
<g opacity=".350006">
<clipPath id="cp7">
<path transform="matrix(1,0,0,-1,0,142)" d="M 54 131.263 L 56.24 131.263 L 56.24 133.3 L 54 133.3 Z "/>
</clipPath>
<g clip-path="url(#cp7)">
<path transform="matrix(1,0,0,-1,54,8.699997)" d="M 0 0 C .8 -.2 3.1 -.8 1.9 -1.8 C .7 -2.7 .1 -.8 0 0 " fill="#c12400"/>
</g>
</g>
<path transform="matrix(1,0,0,-1,52.3,7.699997)" d="M 0 0 C -.4 -.6 -.4 -1.4 .1 -1.8 C .6 -2.1 1.4 -1.9 1.8 -1.3 C 2.2 -.7 2.2 .1 1.7 .5 C 1.2 .8 .4 .6 0 0 " fill="#ffa10b"/>
<path transform="matrix(1,0,0,-1,36,45.300004)" d="M 0 0 C .1 -1.4 1.8 -2.4 3.7 -2.2 C 5.6 -2 7 -.8 6.9 .6 C 6.8 2 5.1 3 3.2 2.8 C 1.4 2.6 -.1 1.4 0 0 " fill="#701608"/>
<path transform="matrix(1,0,0,-1,51.5,24.900002)" d="M 0 0 C -1.9 .9 -3.9 .8 -5.8 .1 C -7.8 -.6 -9.4 -2.2 -9.5 -3.5 C -9.7 -4 -9.7 -4.5 -9.7 -5.1 C -8.7 -5.3 -7.6 -5.4 -6.3 -5.4 C -3.4 -5.4 -.8 -5.1 1.4 -4.5 C 2.3 -3.2 1.9 -.9 0 0 " fill="#ad3c23"/>
<path transform="matrix(1,0,0,-1,52.1,24.099999)" d="M 0 0 C -2 .8 -4.1 .7 -6.2 0 C -8.3 -.7 -10.1 -2.3 -10.3 -3.5 C -10.5 -4 -10.6 -4.5 -10.6 -5 C -9.6 -5.2 -8.4 -5.3 -7 -5.2 C -3.9 -5.1 -1.2 -4.8 1.2 -4.2 C 2.4 -3 2 -.8 0 0 " fill="#ffc19f"/>
<path transform="matrix(1,0,0,-1,23.6,30.099999)" d="M 0 0 C 1.7 1.3 3.6 1.6 5.7 1.3 C 7.8 1 9.7 -.2 10.1 -1.4 C 10.4 -1.8 10.5 -2.3 10.6 -2.9 C 9.7 -3.3 8.6 -3.7 7.4 -3.9 C 4.5 -4.5 2 -4.7 -.3 -4.7 C -1.6 -3.7 -1.7 -1.3 0 0 " fill="#ad3c23"/>
<path transform="matrix(1,0,0,-1,22.7,28.900002)" d="M 0 0 C 1.7 1.3 3.8 1.6 6 1.3 C 8.2 1 10.2 -.2 10.6 -1.4 C 10.9 -1.8 11 -2.3 11.1 -2.9 C 10.1 -3.3 9 -3.7 7.7 -3.9 C 4.7 -4.5 2 -4.7 -.4 -4.6 C -1.6 -3.6 -1.7 -1.3 0 0 " fill="#ffc19f"/>
<g opacity=".199997">
<clipPath id="cp8">
<path transform="matrix(1,0,0,-1,0,142)" d="M 15.9963 102.7 L 31.8445 102.7 L 31.8445 114.791 L 15.9963 114.791 Z "/>
</clipPath>
<g clip-path="url(#cp8)">
<path transform="matrix(1,0,0,-1,20.8,38)" d="M 0 0 Z M 3.4 10.5 C 4.6 11.3 6.6 10.3 7.9 9.3 C 10.8 7.9 10.9 7.4 11 7.2 C 11.3 6.4 10 3 9.6 2.1 C 9.5 1.9 9.3 1.7 9.1 1.6 L 9 1.3 C 8.8 1 8.1 .4 7.5 .4 L 7.3 .4 C 7.2 .4 7.2 .3 7.1 .3 C 6.9 .1 6.7 0 6.4 0 L 4.8 -.8 L 5.4 .1 L 4.3 -1.3 L 4.3 -.4 C 3.8 -.5 3.2 -.4 2.6 -.1 C 1.7 -.3 .9 -.5 .2 -.5 C -.7 -1 -2.2 -1 -3.2 -.5 C -4.1 0 -4.7 .8 -4.8 1.8 C -5 3.4 3 10.2 3.4 10.5 " fill="#601805"/>
</g>
</g>
<path transform="matrix(1,0,0,-1,31.2,31)" d="M 0 0 C .2 -.4 -.7 -3.3 -1.4 -4.5 C -1.7 -5 -2.2 -4.9 -3 -3.9 C -5.8 -3.5 -7.6 -1.9 -7.8 -.4 C -8 1.1 -7.5 2.6 -5.5 2.9 C -5.1 3 -.2 .6 0 0 " fill="#f9ac85"/>
<path transform="matrix(1,0,0,-1,21.9,31.300004)" d="M 0 0 C -1.9 -2.2 -3.6 -4.9 -3.5 -5.8 C -3.3 -7.3 -.3 -6.9 2.7 -5.9 C 3.2 -5.7 4.1 -5.2 5.2 -4.6 L 5.2 -3.9 C 4.9 -1.4 2.5 .3 0 0 " fill="#f29d77"/>
<path transform="matrix(1,0,0,-1,29.2,36.300004)" d="M 0 0 C -.3 -.4 -1 -1 -1.3 -.5 C -2 -1.4 -2.6 -1.4 -3.2 -.8 C -3.9 -2.8 -6.6 -.9 -6.6 -.4 C -6.5 2.1 -5 1.7 -4.9 .9 C -4.9 .4 -5.1 .3 -5 .2 C -4.9 .2 -4.6 1.1 -4.8 1.4 C -5.1 1.8 -5.5 2 -6.3 2.5 C -6.8 2.2 -6.8 -.9 -8.5 -1.9 C -9.7 -2.6 -12.4 -2.2 -12.6 0 C -12.7 1 -5.7 7.4 -4.7 8.1 C -3.2 9.1 .8 5.8 1.2 5 C 1.8 4.2 1.3 3.5 0 0 " fill="#ffc19f"/>
<path transform="matrix(1,0,0,-1,28.5,32.1)" d="M 0 0 C -.4 .4 -1 1.1 -1.7 1.7 L -1.9 1.7 L -1.9 1.5 C -1.2 .9 -.5 .2 -.2 -.1 C -.1 -.2 0 -.3 .1 -.4 C .3 -.6 0 -3.1 -1 -5 C -.9 -5 -.7 -4.7 -.7 -4.7 C .1 -3.1 .5 -.6 .2 -.3 C .2 -.2 .1 -.1 0 0 " fill="#f29d77"/>
<path transform="matrix(1,0,0,-1,26.6,33.300004)" d="M 0 0 C -.4 .4 -1 1.1 -1.8 1.7 L -2 1.7 L -2 1.5 C -1.3 .9 -.6 .2 -.3 -.2 C -.2 -.3 -.1 -.4 -.1 -.4 C .1 -.6 -.9 -4.1 -.9 -4.1 L -.7 -3.9 C -.3 -2.5 .4 -.5 .1 -.2 C .2 -.2 .1 -.1 0 0 " fill="#f29d77"/>
<path transform="matrix(1,0,0,-1,19.9,36.300004)" d="M 0 0 C .1 .4 -4.2 1.3 -4.4 .9 C -6.5 -4.8 -10.6 -10.6 -10.7 -12.1 C -11 -15.3 -6.7 -17.8 -4 -13.9 C -2.5 -11.8 -1.1 -5 0 0 " fill="#ffc19f"/>
<path transform="matrix(1,0,0,-1,21.8,42)" d="M 0 0 C -2 1.3 -5.1 3 -7.6 4.2 C -10.4 -.5 -13.8 -6.4 -13.5 -8.4 C -12.8 -12.7 -8.4 -14.6 -5.6 -15.8 C -5.1 -14.4 -3.5 -11.3 -2.4 -8.1 C -1.5 -5.2 -1.1 -2.4 0 0 " fill="#f95006"/>
<path transform="matrix(1,0,0,-1,22.2,43.1)" d="M 0 0 L 2 3.7 L -7.9 8.2 L -9.9 4.5 Z " fill="#f96938"/>
<path transform="matrix(1,0,0,-1,37.7024,123.0468)" d="M 0 0 L 13.191 .491 L 13.392 -4.905 L .201 -5.396 Z " fill="#f96938"/>
<path transform="matrix(1,0,0,-1,14.8568,126.8322)" d="M 0 0 L .942 5.317 L 13.94 3.015 L 12.998 -2.302 Z " fill="#f96938"/>
<g opacity=".199997">
<clipPath id="cp9">
<path transform="matrix(1,0,0,-1,0,142)" d="M 34.4467 51.2 L 56.3 51.2 L 56.3 91.0069 L 34.4467 91.0069 Z "/>
</clipPath>
<g clip-path="url(#cp9)">
<path transform="matrix(1,0,0,-1,36.5,72.7)" d="M 0 0 C .9 1.3 2.1 2.6 3.2 3.3 C .9 5.5 0 8.3 .6 11.4 C .9 12.7 1.3 13.9 1.9 14.9 C 1 15.7 .6 16.7 .7 17.6 C 1.1 20.3 3.2 21.6 5.1 21.7 C 7 21.8 8.6 20.8 9 19.1 L 9 19 C 10.3 19.1 11.6 18.9 12.9 18.5 C 13.2 18.4 13.5 18.3 13.7 18.2 L 15.2 17 C 16.5 15.4 18.3 10.7 19.8 5.9 C 18.9 3 17.1 .9 14.5 .1 C 14.6 -.2 15.1 -2.2 15.3 -3 C 15.3 -5.7 15.2 -8.3 15.2 -10.4 C 15.1 -10.4 15 -10.5 14.9 -10.5 C 15 -10.6 15.1 -10.7 15.2 -10.8 L 15.1 -15.5 C 14.6 -15.8 14.2 -16 13.7 -16.3 C 13.4 -16.3 13.1 -16.2 12.7 -16.1 C 11 -15.4 9.6 -13 8.9 -10.8 L 8.6 -10.8 C 9.1 -11.9 9.7 -13.2 10.4 -14.1 C 11.1 -15 10.8 -16.2 9.8 -17.1 C 9.1 -17.7 8.1 -18.1 7.2 -18.1 C 6.4 -18.1 5.6 -17.8 5 -17.2 C 3.7 -15.9 2.5 -12.5 2.7 -9.5 C 2.6 -9.4 2.4 -9.3 2.3 -9.2 C 1.8 -9.8 1.1 -10.1 .3 -10 C -.9 -9.9 -1.9 -9 -2 -8 C -2.1 -6.8 -2.3 -3.3 0 0 "/>
</g>
</g>
<path transform="matrix(1,0,0,-1,47.9,74.2)" d="M 0 0 C .5 2.7 1 4.2 1.8 3.6 C 2.5 3 2.9 -.7 4.6 -5.7 C 5.7 -8.7 2.5 -9 1.7 -7.6 C .7 -6 -.6 -3.1 0 0 " fill="#ca7d25"/>
<path transform="matrix(1,0,0,-1,52.2,85)" d="M 0 0 C -2.3 2.6 -5.7 6 -6.6 7.3 C -8 4.8 -5.3 -2.2 -2.7 -3.2 C -.6 -4.1 1.4 -1.7 0 0 " fill="#ffa724"/>
<path transform="matrix(1,0,0,-1,50.6,78.6)" d="M 0 0 C -.1 -2 -2.4 -4.2 -5.2 -4.2 C -8 -4.2 -12.1 -3.9 -12.3 -1.3 C -12.7 2.7 -11 10.1 -6.7 10.3 C -3.3 10.4 .2 4 0 0 " fill="#ffa724"/>
<path transform="matrix(1,0,0,-1,52.7,61.9)" d="M 0 0 C 1.1 -.6 3.3 -.2 4.5 .5 C 7.5 2.2 6.8 6.7 3 6.1 C .6 5.6 -1.1 .5 0 0 " fill="#ffa724"/>
<path transform="matrix(1,0,0,-1,55.1,60.699998)" d="M 0 0 C .3 -.4 1.6 -.5 2.4 .4 C 3.4 1.4 2 3.1 .7 2 C -.1 1.4 -.1 .1 0 0 " fill="#441911"/>
<path transform="matrix(1,0,0,-1,55.9,66.3)" d="M 0 0 C -1.3 -4.7 -4.7 -6.6 -8.6 -6 C -14.9 -5 -19.3 -.7 -18.2 4.9 C -17 11.1 -11.9 13.1 -6.6 11.6 C -1.4 10 1.6 6 0 0 " fill="#ffa724"/>
<path transform="matrix(1,0,0,-1,52,69.9)" d="M 0 0 C .9 1.6 .3 4.4 -1.7 5.1 C -4.2 5.9 -7.5 3.8 -7.2 1.6 C -6.9 -1.2 -1.3 -2.2 0 0 " fill="#fdd566"/>
<path transform="matrix(1,0,0,-1,50,68.9)" d="M 0 0 C .1 0 .1 0 .2 .1 C .4 .6 .7 1.5 .6 2.4 C .6 2.5 .5 2.5 .4 2.5 C .3 2.5 .3 2.4 .3 2.3 C .4 1.5 .2 .7 -.1 .2 C -.1 .1 -.1 0 0 0 " fill="#441911"/>
<path transform="matrix(1,0,0,-1,48.7,69.3)" d="M 0 0 C .5 -.1 1.1 0 1.4 .4 C 1.5 .5 1.5 .5 1.4 .6 C 1.3 .6 1.3 .7 1.2 .6 C .9 .3 .4 .2 0 .3 L -.1 .3 C -.4 .4 -.5 .6 -.6 1 C -.6 1.1 -.7 1.1 -.7 1.1 C -.8 1.1 -.8 1 -.8 1 C -.8 .5 -.5 .2 -.2 .1 C -.1 0 -.1 0 0 0 " fill="#441911"/>
<path transform="matrix(1,0,0,-1,50.5,69.7)" d="M 0 0 C .4 -.1 .8 0 1 .3 L 1 .5 L .8 .5 C .7 .3 .3 .2 .1 .3 C 0 .3 -.3 .5 -.2 .9 C -.2 1 -.2 1 -.3 1.1 C -.4 1.1 -.5 1.1 -.5 1 C -.6 .5 -.3 .2 0 .1 C -.1 0 0 0 0 0 " fill="#441911"/>
<path transform="matrix(1,0,0,-1,51.6,66.2)" d="M 0 0 C -.1 -.5 -.8 -.9 -1.2 -.8 C -1.7 -.7 -2.7 .1 -2.6 .7 C -2.4 1.3 .2 .6 0 0 " fill="#441911"/>
<path transform="matrix(1,0,0,-1,47.9,63.300004)" d="M 0 0 C -.1 -.5 -.7 -.8 -1.2 -.7 C -1.7 -.6 -2 0 -1.9 .5 C -1.8 1 -1.2 1.3 -.7 1.2 C -.2 1.1 .1 .6 0 0 " fill="#441911"/>
<path transform="matrix(1,0,0,-1,53.5,64.7)" d="M 0 0 C -.1 -.5 -.6 -.8 -1 -.7 C -1.4 -.6 -1.6 -.1 -1.5 .4 C -1.4 .9 -.9 1.2 -.5 1.1 C -.1 1 .1 .5 0 0 " fill="#441911"/>
<path transform="matrix(1,0,0,-1,54.9,61.199998)" d="M 0 0 C -.1 -.2 -.5 -.3 -.8 -.2 C -1.2 -.1 -1.4 .3 -1.3 .5 C -1.2 .7 -.8 .8 -.5 .7 C -.2 .6 .1 .2 0 0 " fill="#441911"/>
<path transform="matrix(1,0,0,-1,48.1,59.1)" d="M 0 0 C 0 -.3 -.4 -.4 -.9 -.4 C -1.4 -.4 -1.7 -.1 -1.7 .1 C -1.7 .4 -1.3 .5 -.8 .5 C -.3 .5 .1 .3 0 0 " fill="#441911"/>
<path transform="matrix(1,0,0,-1,43.9,58.800004)" d="M 0 0 C 1.1 1.2 1.4 3.7 1 5 C .1 8.3 -5.5 7.8 -6.1 3.6 C -6.5 .9 -1.1 -1.1 0 0 " fill="#ffa724"/>
<path transform="matrix(1,0,0,-1,42.5,56.9)" d="M 0 0 C .5 .3 1 1.5 .4 2.3 C -.3 3.3 -2.7 2 -1.9 .7 C -1.5 0 -.2 -.1 0 0 " fill="#441911"/>
<path transform="matrix(1,0,0,-1,43.3,76.3)" d="M 0 0 C .1 -2.5 1.4 -4.3 4.8 -3.8 C 6.7 -3.5 6.9 -.9 6.3 1.1 C 5.6 3.4 4.6 4.5 3 4.5 C .8 4.6 -.1 2.7 0 0 " fill="#fdd566"/>
<g opacity=".25">
<clipPath id="cp10">
<path transform="matrix(1,0,0,-1,0,142)" d="M 43.5625 59 L 45.1 59 L 45.1 61.4 L 43.5625 61.4 Z "/>
</clipPath>
<g clip-path="url(#cp10)">
<path transform="matrix(1,0,0,-1,43.9,82.9)" d="M 0 0 C -.3 1.2 -.4 2 -.3 2.3 C .1 2.1 .6 1.2 1.2 -.1 C .8 0 .4 0 0 0 " fill="#904f18"/>
</g>
</g>
<path transform="matrix(1,0,0,-1,46.5,87.3)" d="M 0 0 C -1.4 1.9 -2.5 4.9 -3.4 6.9 C -3.8 7.9 -4.3 8.3 -5.1 8.5 C -8.1 6.4 -6.5 -.3 -4.6 -2.3 C -2.6 -4.2 1.3 -1.8 0 0 " fill="#ffa724"/>
<g opacity=".25">
<clipPath id="cp11">
<path transform="matrix(1,0,0,-1,0,142)" d="M 38.225 60.4 L 41.1758 60.4 L 41.1758 70.3 L 38.225 70.3 Z "/>
</clipPath>
<g clip-path="url(#cp11)">
<path transform="matrix(1,0,0,-1,38.3,80)" d="M 0 0 C -.1 .8 -.1 1.9 0 2.9 C .3 4.5 2.4 8.3 2.8 8.3 C 3.2 8.3 1.9 4.6 1.6 2.6 C 1.4 1.3 1.2 -.8 1 -1.6 C .4 -1.1 .1 -.6 0 0 " fill="#65401d"/>
</g>
</g>
<path transform="matrix(1,0,0,-1,37,73.1)" d="M 0 0 C 1.6 2.2 3.8 4.1 4.3 3.3 C 5.1 1.6 2.3 -1.8 1.9 -7.1 C 1.7 -10.3 -1.5 -9.3 -1.8 -7.7 C -2.1 -5.5 -1.8 -2.5 0 0 " fill="#ffa724"/>
<path transform="matrix(1,0,0,-1,46.9,81.8)" d="M 0 0 C -.6 2.3 -1.1 5.9 -1.4 8.6 C 4.1 9.6 8.1 11.8 9.5 11 C 12.1 10 11.6 3.3 8.6 2.5 C 7.6 2.3 4.7 .5 0 0 " fill="#f95006"/>
<g opacity=".199997">
<clipPath id="cp12">
<path transform="matrix(1,0,0,-1,0,142)" d="M 34 57.4 L 47.725 57.4 L 47.725 69.5394 L 34 69.5394 Z "/>
</clipPath>
<g clip-path="url(#cp12)">
<path transform="matrix(1,0,0,-1,34.2,77)" d="M 0 0 C .5 .8 1.5 .7 3.3 .3 C 3.6 .2 4.5 .3 5.1 .4 C 5.6 .5 6.2 .5 6.5 .5 C 6.7 .5 7 .5 7.2 .6 C 7.2 .6 7.1 .7 7 .7 C 6.9 .8 6.8 .8 6.7 .9 L 6.4 1.1 C 5.9 1.5 5.3 1.8 5 2.4 C 4.7 2.9 4.6 3.8 5.1 4.3 C 5.4 4.6 5.8 4.6 6.1 4.4 C 6.7 4.1 7.1 4 7.7 3.8 C 7.9 3.7 8.2 3.7 8.6 3.6 C 9.7 3.3 11.4 2.5 12.8 .6 C 13 .3 13.2 0 13.3 -.4 C 13.6 -1.6 13.6 -2.5 13.3 -3.4 L 13.2 -3.6 L 12.4 -4.1 C 9.9 -5.9 8.2 -7 7.5 -7.1 C 6.4 -7.4 5.1 -7.6 4.8 -7.6 C 4 -7.6 2.9 -6.7 2.4 -6.2 C 1.9 -5.7 1.8 -5.4 1.8 -5.2 C 1.6 -5 1.4 -4.8 1.3 -4.6 C 1.1 -4.3 1 -3.9 1 -3.6 C .8 -3.4 .6 -3.2 .4 -3.1 C .2 -2.8 .1 -2.4 .3 -2.1 C .4 -1.9 .5 -1.8 .7 -1.7 C .1 -1.3 -.1 -1 -.2 -.7 C -.2 -.5 -.1 -.2 0 0 " fill="#601805"/>
</g>
</g>
<path transform="matrix(1,0,0,-1,37.4,77.3)" d="M 0 0 C .8 -.2 2.7 .2 3.6 .2 C 3.4 -.5 3.2 -1.4 3.2 -1.9 C 2 -1.9 .8 -1.9 -.1 -1.7 C -2.9 -.6 -2.7 -.1 -2.7 0 C -2.5 .4 -1.7 .4 0 0 " fill="#ffc19f"/>
<path transform="matrix(1,0,0,-1,47,77.5)" d="M 0 0 C -.2 .6 -.6 1.3 -1.5 1.3 C -2.1 1.3 -3.7 .7 -4.7 .6 C -5.3 .4 -6.5 .4 -7.2 .3 C -7.3 -.1 -7.2 -.8 -7.2 -1.3 C -6.6 -1.4 -6.6 -1.4 -7 -1.6 C -6.8 -2.8 -5.9 -5.1 -5.4 -5.8 C -4.4 -5.7 -1 -3.1 -.1 -2.5 C .3 -1.9 .4 -1.2 0 0 " fill="#ffc19f"/>
<path transform="matrix(1,0,0,-1,36,80.8)" d="M 0 0 C -.1 .3 -.1 .5 -.3 .7 C .9 .4 4.9 .5 5 0 C 5.1 -.6 2.4 -1 1.9 -1 C 1.3 -.9 .6 -.4 0 0 " fill="#f29d77"/>
<path transform="matrix(1,0,0,-1,38.2,81.4)" d="M 0 0 C .5 .1 2.4 .6 2.8 .7 C 2.8 .7 2.5 1.9 2.5 2.5 C 2 2.3 -.1 1.7 -.6 1.6 C -.9 1.6 -1.9 2.2 -2.6 2.3 C -2.9 2.4 -3.5 2.1 -3.2 1.7 C -2.7 1.4 -.8 -.2 0 0 " fill="#ffc19f"/>
<path transform="matrix(1,0,0,-1,41.2,82.2)" d="M 0 0 C -.4 -.1 -1.5 -.2 -2 -.3 C -2.7 -.4 -4.6 1 -4.6 .1 C -4.6 -.3 -2.9 -1.8 -2.1 -1.8 C -1.8 -1.8 -.7 -1.6 .5 -1.3 C .3 -.8 .2 -.6 0 0 " fill="#ffc19f"/>
<path transform="matrix(1,0,0,-1,38.5,83.4)" d="M 0 0 C -.4 0 -1.8 1.2 -1.8 1.3 C -1.8 1.8 1.3 1.4 2.6 1.6 C 2.6 1.4 2.7 .9 2.7 .6 C 2.4 .5 .9 .1 0 0 " fill="#f29d77"/>
<path transform="matrix(1,0,0,-1,38.5,83.1)" d="M 0 0 C .8 0 2.3 .4 3.1 .7 C 2.9 1.2 2.6 1.7 2.5 2.2 C 1.8 2 .1 1.5 -.4 1.5 C -.9 1.5 -2.2 2.3 -2.6 2.6 C -2.7 2.7 -2.7 2.2 -2.5 1.9 C -1.9 1.1 -.6 -.1 0 0 " fill="#ffc19f"/>
<path transform="matrix(1,0,0,-1,46.6,76.7)" d="M 0 0 C -1.3 1.7 -2.9 2.4 -3.9 2.7 C -5.1 3 -5.6 3.1 -6.5 3.6 C -7 3.9 -7 2.9 -6.8 2.4 C -6.5 1.9 -5.9 1.5 -5.3 1.1 C -4.8 .7 -4.6 .7 -4.4 .3 C -4.3 .1 -4.5 -.2 -4.8 -.4 C -3.7 -1.3 0 -.2 0 0 " fill="#ffc19f"/>
<path transform="matrix(1,0,0,-1,49.3,82.1)" d="M 0 0 L -4.1 -.9 L -6.3 8.9 L -2.2 9.8 Z " fill="#f96938"/>
</g>
</g>
</g>
</g>
</svg>
