<?xml version="1.0" encoding="UTF-8" standalone="no"?>
<svg
   xmlns:dc="http://purl.org/dc/elements/1.1/"
   xmlns:cc="http://creativecommons.org/ns#"
   xmlns:rdf="http://www.w3.org/1999/02/22-rdf-syntax-ns#"
   xmlns:svg="http://www.w3.org/2000/svg"
   xmlns="http://www.w3.org/2000/svg"
   viewBox="0 0 1793.9467 2151.7466"
   height="2151.7466"
   width="1793.9467"
   xml:space="preserve"
   id="svg2"
   version="1.1"><metadata
     id="metadata8"><rdf:RDF><cc:Work
         rdf:about=""><dc:format>image/svg+xml</dc:format><dc:type
           rdf:resource="http://purl.org/dc/dcmitype/StillImage" /></cc:Work></rdf:RDF></metadata><defs
     id="defs6"><clipPath
       id="clipPath18"
       clipPathUnits="userSpaceOnUse"><path
         id="path16"
         d="M 0,1613.806 H 1345.46 V 0 H 0 Z" /></clipPath><clipPath
       id="clipPath34"
       clipPathUnits="userSpaceOnUse"><path
         id="path32"
         d="M 224.49,161.412 H 1171.6 V 55.7066 H 224.49 Z" /></clipPath><clipPath
       id="clipPath90"
       clipPathUnits="userSpaceOnUse"><path
         id="path88"
         d="M 486.389,638.428 H 887.473 V 508.597 H 486.389 Z" /></clipPath><clipPath
       id="clipPath118"
       clipPathUnits="userSpaceOnUse"><path
         id="path116"
         d="M 598.251,1030.17 H 793.292 V 933.7 H 598.251 Z" /></clipPath><clipPath
       id="clipPath274"
       clipPathUnits="userSpaceOnUse"><path
         id="path272"
         d="M 610.237,803.728 H 754.076 V 678.667 H 610.237 Z" /></clipPath></defs><g
     transform="matrix(1.3333333,0,0,-1.3333333,0,2151.7467)"
     id="g10"><g
       id="g12"><g
         clip-path="url(#clipPath18)"
         id="g14"><g
           transform="translate(0.1113,34.6193)"
           id="g20"><path
             id="path22"
             style="fill:#129e93;fill-opacity:1;fill-rule:nonzero;stroke:none"
             d="m 0,0 v -16.961 c 0.4,-9.356 7.943,-17.658 18.326,-17.658 h 1308.58 c 10.393,0 17.932,8.302 18.332,17.658 V 0 Z" /></g><g
           transform="translate(1327.0172,16.4578)"
           id="g24"><path
             id="path26"
             style="fill:#1dccc3;fill-opacity:1;fill-rule:nonzero;stroke:none"
             d="m 0,0 h -1308.577 c -13.666,0 -22.574,14.364 -16.495,26.608 l 91.488,184.296 c 3.109,6.267 9.499,10.228 16.495,10.228 H -91.488 c 6.996,0 13.386,-3.961 16.499,-10.228 L 16.499,26.608 C 22.574,14.364 13.67,0 0,0" /></g><g
           id="g28"><g
             id="g30" /><g
             id="g42"><g
               style="opacity:0.16000402"
               id="g40"
               clip-path="url(#clipPath34)"><g
                 id="g38"
                 transform="translate(1134.9762,123.6236)"><path
                   id="path36"
                   style="fill:#000000;fill-opacity:1;fill-rule:nonzero;stroke:none"
                   d="m 0,0 c 23.303,-4.02 93.725,-70.716 -58.682,-67.826 -139.544,2.645 -655.005,24.384 -808.181,36.959 -23.255,1.909 -41.02,36.884 -43.439,45.344 -6.496,22.739 160.132,24.487 238.148,22.862 C -452.674,32.769 -66.303,11.429 0,0" /></g></g></g></g><g
           transform="translate(334.5189,857.2096)"
           id="g44"><path
             id="path46"
             style="fill:#ad5c49;fill-opacity:1;fill-rule:nonzero;stroke:none"
             d="m 0,0 c -61.853,153.891 -50.725,333.159 29.693,575.227 l 1.358,-7.153 c 1.156,4.399 2.234,8.706 3.438,13.156 l 598.226,-16.765 c 0.899,-4.403 1.761,-8.669 2.644,-13.017 l 6.592,4.123 C 717.049,307.848 723.33,159.42 717.392,66.536 c -2.32,44.382 -7.39,199.998 -69.783,423.867 C 703.551,207.815 721.483,53.581 665.34,5.88 701.012,66.536 671.35,234.877 662.541,256.111 662.507,195.565 671.449,79.895 638.872,-8.073 492.862,-88.666 157.138,-74.962 72.762,-26.378 69.023,-19.154 58.613,150.796 56.263,174.3 51.382,166.2 54.826,-18.551 52.921,-26.231 0.889,22.424 -47.485,171.943 2.856,443.219 -43.13,258.02 -27.647,119.453 0,0" /></g><g
           transform="translate(461.8131,167.9855)"
           id="g48"><path
             id="path50"
             style="fill:#ffc19f;fill-opacity:1;fill-rule:nonzero;stroke:none"
             d="m 0,0 -90.373,-2.87 -11.213,147.57 110.48,1.905 z" /></g><g
           transform="translate(493.634,487.1086)"
           id="g52"><path
             id="path54"
             style="fill:#ad2d00;fill-opacity:1;fill-rule:nonzero;stroke:none"
             d="m 0,0 c -4.3,-95.538 -7.721,-198.448 -9.9,-245.396 -18.582,-2.949 -100.611,-3.113 -124.804,-1.827 -1.97,22.656 -7.574,99.14 -14.408,199.108 3.311,41.807 24.305,67.751 58.527,76.173 C -59.742,35.652 -16.718,8.138 0,0" /></g><g
           transform="translate(985.8329,220.6327)"
           id="g56"><path
             id="path58"
             style="fill:#ffc19f;fill-opacity:1;fill-rule:nonzero;stroke:none"
             d="m 0,0 c 25.055,-18.551 61.429,-53.201 65.794,-57.666 2.073,-2.117 70.784,36.467 68.855,39.494 C 115.523,11.86 93.147,39.973 73.976,61.589 64.265,53.554 9.178,8.607 0,0" /></g><g
           transform="translate(1112.395,157.8905)"
           id="g60"><path
             id="path62"
             style="fill:#ffc19f;fill-opacity:1;fill-rule:nonzero;stroke:none"
             d="m 0,0 c -2.839,-23.036 -24.127,-39.367 -47.55,-36.48 -23.423,2.887 -40.11,23.901 -37.271,46.938 2.843,23.036 24.131,39.367 47.554,36.48 C -13.844,44.051 2.843,23.036 0,0" /></g><g
           transform="translate(1035.0319,144.9322)"
           id="g64"><path
             id="path66"
             style="fill:#ffc19f;fill-opacity:1;fill-rule:nonzero;stroke:none"
             d="m 0,0 c 13.892,-54.036 25.893,-73.344 34.698,-82.799 7.923,-8.508 24.777,-8.689 28.961,1.211 3.113,7.376 -6.746,17.057 -8.501,25.941 3.616,-6.233 10.67,-18.839 18.774,-27.675 5.285,-5.761 16.844,-10.088 21.295,1.2 3.281,-6.817 17.679,-3.359 15.568,8.789 1.875,-5.895 15.918,-8.145 17.608,4.495 9.667,-4.553 14.88,5.36 12.065,13.7 C 135.812,-41.348 97.646,38.745 79.009,67.925 69.769,82.395 -7.314,28.455 0,0" /></g><g
           transform="translate(1127.2518,63.4333)"
           id="g68"><path
             id="path70"
             style="fill:#f29d77;fill-opacity:1;fill-rule:nonzero;stroke:none"
             d="m 0,0 c -2.124,4.611 -6.695,15.052 -9.572,25.927 -0.229,0.876 0.277,1.724 1.126,1.96 0.852,0.192 1.769,-0.274 1.96,-1.125 C -3.705,16.242 0.814,5.86 2.826,1.457 3.209,0.636 2.85,-0.301 2.036,-0.657 1.324,-0.989 0.431,-0.647 0,0" /></g><g
           transform="translate(1142.7758,71.4621)"
           id="g72"><path
             id="path74"
             style="fill:#f29d77;fill-opacity:1;fill-rule:nonzero;stroke:none"
             d="m 0,0 c -1.922,4.533 -2.874,6.698 -6.028,18.257 -0.218,0.825 0.254,1.718 1.126,1.943 0.814,0.236 1.68,-0.232 1.94,-1.125 C 0.161,7.68 1.006,5.771 2.86,1.382 3.222,0.551 2.839,-0.376 2.015,-0.708 1.293,-1.023 0.411,-0.66 0,0" /></g><g
           transform="translate(1160.5814,75.7553)"
           id="g76"><path
             id="path78"
             style="fill:#f29d77;fill-opacity:1;fill-rule:nonzero;stroke:none"
             d="m 0,0 c -1.96,4.515 -1.858,2.48 -5.114,14.008 -0.226,0.825 0.239,1.721 1.105,1.954 0.814,0.243 1.683,-0.219 1.953,-1.109 C 1.167,3.486 0.958,5.778 2.85,1.406 3.216,0.578 2.843,-0.352 2.022,-0.691 1.303,-1.013 0.417,-0.653 0,0" /></g><g
           transform="translate(793.0119,639.1562)"
           id="g80"><path
             id="path82"
             style="fill:#ad2d00;fill-opacity:1;fill-rule:nonzero;stroke:none"
             d="m 0,0 c -16.235,0.062 -158.537,-0.941 -164.431,-0.729 -44.581,-20.956 -221.382,-115.454 -248.414,-132.538 11.922,-30.719 47.797,-91.987 67.422,-129.997 13.167,4.082 180.513,81.664 203.812,88.803 30.747,9.428 52.863,8.785 81.339,-22.578 l 0.369,0.517 c 82.371,-78.533 226.472,-225.487 264.868,-264.177 19.137,14.843 76.676,62.581 88.994,76.771 C 227.909,-289.43 47.181,-56.934 0,0" /></g><g
           id="g84"><g
             id="g86" /><g
             id="g98"><g
               style="opacity:0.25"
               id="g96"
               clip-path="url(#clipPath90)"><g
                 id="g94"
                 transform="translate(887.4725,519.9695)"><path
                   id="path92"
                   style="fill:#000000;fill-opacity:1;fill-rule:nonzero;stroke:none"
                   d="m 0,0 c -38.854,49.917 -72.372,92.251 -90.766,114.671 -9.996,1.293 -163.621,3.626 -168.126,3.787 C -282.79,107.224 -344.633,74.876 -401.084,44.629 -307.03,-7.16 -151.565,-25.451 0,0" /></g></g></g></g><g
           transform="translate(486.3647,565.6758)"
           id="g100"><path
             id="path102"
             style="fill:#ff4a69;fill-opacity:1;fill-rule:nonzero;stroke:none"
             d="m 0,0 c 32.888,-2.87 68.106,-19.81 130.681,-37.452 71.636,-20.193 170.028,-14.514 259.572,17.365 0,0 -31.773,330.384 -48.049,409.66 -86.087,23.351 -235.473,13.481 -314.149,-0.26 C 18.267,299.012 19.585,193.009 5.614,65.527 4.468,55.056 19.16,46.897 6.188,39.515 -4.906,33.203 -2.802,24.788 2.699,20.388 14.227,11.162 -2.61,10.061 0,0" /></g><g
           transform="translate(763.6984,951.4615)"
           id="g104"><path
             id="path106"
             style="fill:#ffc19f;fill-opacity:1;fill-rule:nonzero;stroke:none"
             d="m 0,0 c 0.205,5.125 -0.677,10.061 -1.929,14.915 -52.637,3.325 -131.677,4.126 -188.019,-0.612 -0.42,-2.214 -1.351,-4.283 -1.447,-6.579 -1.597,-39.644 39.946,-73.511 92.799,-75.642 C -45.744,-70.053 -1.601,-39.644 0,0" /></g><g
           transform="translate(734.7989,1061.6069)"
           id="g108"><path
             id="path110"
             style="fill:#ffc19f;fill-opacity:1;fill-rule:nonzero;stroke:none"
             d="m 0,0 v -112.403 c -0.157,-24.073 -31.246,-43.394 -68.992,-43.148 -37.743,0.247 -67.847,19.968 -67.689,44.041 l 0,111.51 z" /></g><g
           id="g112"><g
             id="g114" /><g
             id="g126"><g
               style="opacity:0.19000202"
               id="g124"
               clip-path="url(#clipPath118)"><g
                 id="g122"
                 transform="translate(793.2924,966.4792)"><path
                   id="path120"
                   style="fill:#a32107;fill-opacity:1;fill-rule:nonzero;stroke:none"
                   d="m 0,0 c -9.691,-0.294 -18.709,-0.595 -26.098,-0.965 -10.54,1.064 -21.298,1.868 -32.399,2.429 v 61.709 c -45.173,1.057 -94.823,0.572 -136.544,-2.227 V 8.535 c 18.25,-23.344 50.889,-41.327 89.237,-41.314 C -42.874,-32.755 -14.197,-17.19 0,0" /></g></g></g></g><g
           transform="translate(186.1898,916.8868)"
           id="g128"><path
             id="path130"
             style="fill:#ffc19f;fill-opacity:1;fill-rule:nonzero;stroke:none"
             d="M 0,0 C -8.891,1.806 7.971,74.893 16.988,73.638 151.771,54.874 321.706,41.177 356.965,40.791 L 338.314,-55.706 C 260.818,-43.428 117.48,-23.844 0,0" /></g><g
           transform="translate(386.7933,974.0906)"
           id="g132"><path
             id="path134"
             style="fill:#ff4a69;fill-opacity:1;fill-rule:nonzero;stroke:none"
             d="m 0,0 c -4.827,-32.382 -10.902,-103.858 -10.328,-137.427 71.586,-10.618 136.462,-16.033 141.286,-13.851 50.198,22.681 55.093,135.812 57.334,142.575 C 149.759,-6.599 71.438,-6.599 0,0" /></g><g
           transform="translate(1153.1752,916.8868)"
           id="g136"><path
             id="path138"
             style="fill:#ffc19f;fill-opacity:1;fill-rule:nonzero;stroke:none"
             d="M 0,0 C 8.894,1.806 -7.967,74.893 -16.984,73.638 -151.767,54.874 -321.702,41.177 -356.961,40.791 l 18.65,-96.497 C -260.814,-43.428 -117.48,-23.844 0,0" /></g><g
           transform="translate(952.5751,974.0906)"
           id="g140"><path
             id="path142"
             style="fill:#ff4a69;fill-opacity:1;fill-rule:nonzero;stroke:none"
             d="m 0,0 c 4.823,-32.382 10.902,-103.858 10.328,-137.427 -71.589,-10.618 -136.462,-16.033 -141.289,-13.851 -50.195,22.681 -55.094,135.812 -57.331,142.575 C -149.762,-6.599 -71.438,-6.599 0,0" /></g><g
           transform="translate(30.2903,946.1181)"
           id="g144"><path
             id="path146"
             style="fill:#e0956c;fill-opacity:1;fill-rule:nonzero;stroke:none"
             d="m 0,0 c 21.623,1.314 53.715,6.835 115.362,8.641 7.044,0.205 19.725,-27.716 12.613,-26.898 C 86.682,-13.516 7.143,-29.95 0,0" /></g><g
           transform="translate(14.6192,974.3677)"
           id="g148"><path
             id="path150"
             style="fill:#e0956c;fill-opacity:1;fill-rule:nonzero;stroke:none"
             d="m 0,0 c 21.623,1.314 72.755,14.85 130.363,0.441 7.108,-1.775 16.276,-29.782 9.164,-28.968 C 98.234,-23.785 6.445,-24.545 0,0" /></g><g
           transform="translate(12.1562,1012.4728)"
           id="g152"><path
             id="path154"
             style="fill:#ffc19f;fill-opacity:1;fill-rule:nonzero;stroke:none"
             d="m 0,0 c 21.627,1.314 140.615,-9.787 198.223,-24.192 7.105,-1.779 0.721,-53.253 -9.627,-58.665 -14.812,-23.354 -59.954,-17.826 -108.072,-48.775 -8.309,-5.347 -9.849,9.897 -8.467,14.279 3.565,11.292 8.135,12.435 25.489,35.929 10.578,14.317 -0.629,31.045 -10.789,37.206 C 39.337,-24.942 3.677,-20.46 0,0" /></g><g
           transform="translate(1307.8911,946.1181)"
           id="g156"><path
             id="path158"
             style="fill:#e0956c;fill-opacity:1;fill-rule:nonzero;stroke:none"
             d="m 0,0 c -21.627,1.314 -53.718,6.835 -115.365,8.641 -7.041,0.205 -19.725,-27.716 -12.613,-26.898 C -86.682,-13.516 -7.146,-29.95 0,0" /></g><g
           transform="translate(1323.5623,974.3677)"
           id="g160"><path
             id="path162"
             style="fill:#e0956c;fill-opacity:1;fill-rule:nonzero;stroke:none"
             d="m 0,0 c -21.627,1.314 -72.759,14.85 -130.366,0.441 -7.105,-1.775 -16.277,-29.782 -9.165,-28.968 C -98.234,-23.785 -6.445,-24.545 0,0" /></g><g
           transform="translate(1326.0219,1012.4728)"
           id="g164"><path
             id="path166"
             style="fill:#ffc19f;fill-opacity:1;fill-rule:nonzero;stroke:none"
             d="m 0,0 c -21.627,1.314 -140.612,-9.787 -198.223,-24.192 -7.105,-1.779 -0.721,-53.253 9.63,-58.665 14.809,-23.354 59.954,-17.826 108.069,-48.775 8.309,-5.347 9.849,9.897 8.467,14.279 -3.562,11.292 -8.132,12.435 -25.486,35.929 -10.577,14.317 0.63,31.045 10.79,37.206 C -39.333,-24.942 -3.677,-20.46 0,0" /></g><g
           transform="translate(382.0622,232.1064)"
           id="g168"><path
             id="path170"
             style="fill:#ffc19f;fill-opacity:1;fill-rule:nonzero;stroke:none"
             d="m 0,0 c 9.842,-3.294 66.919,-13.742 82.046,-15.637 0.462,-37.571 10.41,-51.197 6.821,-71.243 -3.15,-17.607 -16.902,-29.786 -32.785,-31.582 -16.246,-1.836 -34.397,-3.352 -59.489,-6.095 -41.82,-4.578 -92.367,-24.453 -127.777,-9.155 -4.871,2.104 -18.886,13.136 -14.412,19.202 4.081,5.535 37.575,8.046 35.837,12.414 -1.201,3.021 -32.806,-5.99 -43.92,-1.902 -6.042,2.223 -9.627,13.964 -1.187,15.863 0.499,0.112 -3.155,6.215 -1.995,9.024 1.755,4.235 11.57,5.039 11.494,6.773 -0.588,13.656 29.748,14.556 57.071,23.915 C -48.193,-34.688 -20.878,-22.037 0,0" /></g><g
           transform="translate(227.4558,142.6026)"
           id="g172"><path
             id="path174"
             style="fill:#f29d77;fill-opacity:1;fill-rule:nonzero;stroke:none"
             d="m 0,0 c 4.324,0.571 30.1,5.733 39.323,8.634 0.739,0.233 1.125,0.992 0.906,1.718 -0.249,0.704 -1.009,1.156 -1.717,0.906 C 29.594,8.449 3.883,3.281 -0.24,2.72 -1.013,2.62 -1.529,1.929 -1.409,1.177 -1.327,0.506 -0.667,0.017 0,0" /></g><g
           transform="translate(237.6363,158.5815)"
           id="g176"><path
             id="path178"
             style="fill:#f29d77;fill-opacity:1;fill-rule:nonzero;stroke:none"
             d="M 0,0 C 4.191,0.575 13.362,2.716 23.283,5.467 23.987,5.668 24.439,6.411 24.22,7.15 24.035,7.854 23.31,8.289 22.537,8.09 12.753,5.384 3.818,3.281 -0.24,2.72 -1.009,2.62 -1.526,1.929 -1.409,1.177 -1.324,0.506 -0.667,0.014 0,0" /></g><g
           transform="translate(332.0182,1161.0175)"
           id="g180"><path
             id="path182"
             style="fill:#ffc19f;fill-opacity:1;fill-rule:nonzero;stroke:none"
             d="m 0,0 c 14.689,-61.74 73.59,-101.552 118.605,-96.486 45.015,5.067 54.686,55.278 48.019,114.61 C 159.946,77.452 118.02,121.595 73.022,116.378 11.515,109.246 -13.803,58.032 0,0" /></g><g
           transform="translate(387.7785,1144.8538)"
           id="g184"><path
             id="path186"
             style="fill:#e0956c;fill-opacity:1;fill-rule:nonzero;stroke:none"
             d="M 0,0 C 2.935,-26.016 23.909,-45.012 46.852,-42.432 69.789,-39.85 86.014,-16.667 83.079,9.349 80.155,35.362 59.181,54.354 36.248,51.775 13.3,49.199 -2.918,26.012 0,0" /></g><g
           transform="translate(999.619,1141.6553)"
           id="g188"><path
             id="path190"
             style="fill:#ffc19f;fill-opacity:1;fill-rule:nonzero;stroke:none"
             d="m 0,0 c -17.929,-60.878 -78.861,-97.515 -123.545,-90.075 -44.683,7.44 -51.686,58.093 -41.889,116.987 9.812,58.894 54.013,100.755 98.679,93.168 C -5.709,109.697 16.855,57.218 0,0" /></g><g
           transform="translate(941.9157,1130.1816)"
           id="g192"><path
             id="path194"
             style="fill:#e0956c;fill-opacity:1;fill-rule:nonzero;stroke:none"
             d="m 0,0 c -4.3,-25.824 -26.248,-43.685 -49.021,-39.894 -22.769,3.794 -37.75,27.805 -33.449,53.625 4.3,25.825 26.248,43.678 49.021,39.891 C -10.68,49.832 4.3,25.821 0,0" /></g><g
           transform="translate(980.7734,1339.5323)"
           id="g196"><path
             id="path198"
             style="fill:#ad5c49;fill-opacity:1;fill-rule:nonzero;stroke:none"
             d="m 0,0 c -5.333,-201.383 -135.224,-288.588 -313.766,-283.861 -178.539,4.728 -318.429,98.983 -313.099,300.367 5.333,201.383 148.859,244.476 327.402,239.752 C -120.924,251.53 5.333,201.384 0,0" /></g><g
           transform="translate(917.0391,1422.7657)"
           id="g200"><path
             id="path202"
             style="fill:#ffc19f;fill-opacity:1;fill-rule:nonzero;stroke:none"
             d="m 0,0 c 14.34,-34.161 -3.64,-331.62 -39.138,-372.205 -37.654,-43.055 -186.992,-81.273 -218.143,-80.449 -33.37,0.883 -177.57,42.508 -204.506,91.639 -31.869,58.141 -39.706,323.389 -28.219,354.635 38.823,105.534 131.556,106.666 252.72,103.458 C -123.931,94.077 -37.209,88.638 0,0" /></g><g
           transform="translate(669.6449,1070.573)"
           id="g204"><path
             id="path206"
             style="fill:#934341;fill-opacity:1;fill-rule:nonzero;stroke:none"
             d="m 0,0 -0.79,-0.01 c -27.446,-0.825 -51.269,6.424 -63.748,19.417 -1.676,1.758 -1.622,4.539 0.123,6.215 1.724,1.694 4.505,1.618 6.216,-0.119 10.625,-11.07 32.512,-17.478 57.132,-16.735 l 0.735,0.01 c 24.494,0.876 45.84,8.658 55.805,20.392 1.618,1.826 4.372,2.042 6.195,0.496 1.841,-1.563 2.059,-4.338 0.496,-6.195 C 50.468,9.736 27.271,0.975 0,0" /></g><g
           transform="translate(465.9899,1152.5029)"
           id="g208"><path
             id="path210"
             style="fill:#ff9797;fill-opacity:1;fill-rule:nonzero;stroke:none"
             d="m 0,0 c -0.787,-11.699 14.833,-22.277 34.889,-23.628 20.047,-1.351 36.949,7.037 37.736,18.736 C 73.412,6.804 57.789,17.381 37.743,18.733 17.686,20.084 0.79,11.696 0,0" /></g><g
           transform="translate(800.312,1146.5472)"
           id="g212"><path
             id="path214"
             style="fill:#ff9797;fill-opacity:1;fill-rule:nonzero;stroke:none"
             d="M 0,0 C 0.852,-11.693 17.792,-19.988 37.842,-18.528 57.881,-17.067 73.446,-6.404 72.594,5.292 71.743,16.981 54.796,25.277 34.756,23.819 14.706,22.359 -0.852,11.693 0,0" /></g><g
           transform="translate(690.3822,1157.0903)"
           id="g216"><path
             id="path218"
             style="fill:#c4735b;fill-opacity:1;fill-rule:nonzero;stroke:none"
             d="m 0,0 c -1.337,0 -2.514,0.961 -2.74,2.323 -1.604,9.667 -9.25,15.91 -19.472,15.91 -10.283,-0.003 -18.1,-6.376 -19.454,-15.859 -0.223,-1.515 -1.639,-2.579 -3.147,-2.357 -1.523,0.216 -2.576,1.625 -2.361,3.147 1.738,12.141 12.001,20.628 24.959,20.632 C -9.329,23.799 0.701,15.538 2.747,3.24 3,1.721 1.974,0.291 0.462,0.038 Z" /></g><g
           transform="translate(855.9012,1340.3466)"
           id="g220"><path
             id="path222"
             style="fill:#773220;fill-opacity:1;fill-rule:nonzero;stroke:none"
             d="m 0,0 c -1.861,0.24 -3.636,1.139 -4.95,2.661 -16.82,19.414 -52.298,28.777 -82.597,21.723 -4.204,-0.999 -8.456,1.635 -9.459,5.891 -0.985,4.235 1.649,8.466 5.891,9.462 36.148,8.388 77.411,-2.867 98.08,-26.775 C 9.808,9.667 9.449,4.697 6.154,1.854 4.396,0.322 2.148,-0.277 0,0" /></g><g
           transform="translate(480.7921,1335.9987)"
           id="g224"><path
             id="path226"
             style="fill:#773220;fill-opacity:1;fill-rule:nonzero;stroke:none"
             d="m 0,0 c -2.155,-0.198 -4.382,0.482 -6.082,2.076 -3.189,2.966 -3.366,7.944 -0.404,11.132 21.548,23.142 63.184,32.871 98.99,23.176 4.204,-1.146 6.681,-5.473 5.542,-9.667 C 96.9,22.502 92.562,20.026 88.378,21.175 58.367,29.341 22.537,21.305 5.046,2.48 3.677,1.006 1.868,0.171 0,0" /></g><g
           transform="translate(990.6974,1282.332)"
           id="g228"><path
             id="path230"
             style="fill:#ad5c49;fill-opacity:1;fill-rule:nonzero;stroke:none"
             d="m 0,0 c -35.037,11.6 -39.682,48.149 -43.223,106.191 19.903,5.001 -7.084,147.453 -106.232,190.553 -129.702,56.386 -292.303,38.091 -361.241,-11.905 -73.398,-53.229 -85.925,-119.067 -97.864,-197.62 -9.691,-63.769 16.201,-109.964 -30.435,-148.254 54.361,-1.228 86.226,43.346 94.919,83.876 9.65,45.015 -11.669,86.08 -5.286,103.793 3.695,10.249 61.645,55.969 76.625,56.858 32.645,1.943 61.674,-90.595 177.286,-85.272 -47.379,24.439 -73.836,60.221 -100.933,111.545 9.22,-5.289 18.497,-11.765 27.73,-19.698 97.238,-83.572 201.88,-103.303 283.266,-93.667 5.575,-85.621 -32.338,-130.116 71.622,-159.601 -9.677,11.611 -24.288,46.921 -27.048,75.082 C -29.58,5.2 -18.497,-17.193 0,0" /></g><g
           transform="translate(732.4521,1257.1577)"
           id="g232"><path
             id="path234"
             style="fill:#f9feff;fill-opacity:1;fill-rule:nonzero;stroke:none"
             d="M 0,0 C -19.427,-28.133 -17.067,-59.212 -0.126,-71.072 25.397,-88.946 85.83,-94.228 108.411,-68.595 130.284,-43.767 119.785,1.663 84.208,21.312 53.061,38.516 18.798,27.23 0,0" /></g><g
           transform="translate(845.0331,1264.6597)"
           id="g236"><path
             id="path238"
             style="fill:#7c3929;fill-opacity:1;fill-rule:nonzero;stroke:none"
             d="m 0,0 c -27.665,43.808 -94.375,29.221 -113.231,-8.456 19.41,28.119 55.199,36.586 83.996,20.699 C -11.439,2.412 1.19,-15.024 4.56,-34.39 7.242,-49.832 3.66,-67.135 -5.422,-77.445 5.025,-70.727 20.344,-32.218 0,0" /></g><g
           transform="translate(739.547,1238.5721)"
           id="g240"><path
             id="path242"
             style="fill:#63190d;fill-opacity:1;fill-rule:nonzero;stroke:none"
             d="m 0,0 c -7.974,-19.509 1.379,-41.789 20.888,-49.76 19.509,-7.974 41.786,1.379 49.76,20.888 7.971,19.509 -1.382,41.786 -20.891,49.76 C 30.251,28.858 7.971,19.506 0,0" /></g><g
           transform="translate(742.6634,1241.9211)"
           id="g244"><path
             id="path246"
             style="fill:#fefffe;fill-opacity:1;fill-rule:nonzero;stroke:none"
             d="m 0,0 c -2.21,-5.412 0.383,-11.593 5.795,-13.803 5.415,-2.214 11.593,0.383 13.807,5.795 C 21.815,-2.596 19.219,3.585 13.807,5.798 8.395,8.008 2.213,5.415 0,0" /></g><g
           transform="translate(599.1475,1258.4098)"
           id="g248"><path
             id="path250"
             style="fill:#f9feff;fill-opacity:1;fill-rule:nonzero;stroke:none"
             d="m 0,0 c 18.911,-28.486 15.982,-59.516 -1.17,-71.065 -25.848,-17.402 -86.367,-21.583 -108.476,4.461 -21.415,25.222 -10.092,70.453 25.841,89.449 C -52.35,39.477 -18.298,27.565 0,0" /></g><g
           transform="translate(486.7239,1267.9644)"
           id="g252"><path
             id="path254"
             style="fill:#7c3929;fill-opacity:1;fill-rule:nonzero;stroke:none"
             d="M 0,0 C 28.458,43.295 94.892,27.493 113.056,-10.523 94.163,17.946 58.535,27.066 29.454,11.71 11.48,2.203 -1.468,-14.997 -5.189,-34.301 -8.152,-49.692 -4.888,-67.056 4.006,-77.531 -6.318,-70.624 -20.929,-31.838 0,0" /></g><g
           transform="translate(520.806,1240.6007)"
           id="g256"><path
             id="path258"
             style="fill:#63190d;fill-opacity:1;fill-rule:nonzero;stroke:none"
             d="m 0,0 c -7.974,-19.509 1.379,-41.786 20.888,-49.76 19.509,-7.971 41.786,1.382 49.76,20.891 7.971,19.51 -1.382,41.786 -20.891,49.757 C 30.251,28.862 7.971,19.509 0,0" /></g><g
           transform="translate(523.9225,1243.9532)"
           id="g260"><path
             id="path262"
             style="fill:#fefffe;fill-opacity:1;fill-rule:nonzero;stroke:none"
             d="m 0,0 c -2.21,-5.412 0.383,-11.594 5.798,-13.807 5.412,-2.21 11.594,0.383 13.804,5.799 C 21.815,-2.597 19.218,3.585 13.807,5.795 8.395,8.008 2.213,5.412 0,0" /></g><g
           transform="translate(371.0744,1388.7622)"
           id="g264"><path
             id="path266"
             style="fill:#ff4a69;fill-opacity:1;fill-rule:nonzero;stroke:none"
             d="M 0,0 C 47.17,138.327 144.073,213.452 306.49,214.646 439.805,215.625 541.049,141.067 592.677,-5.162 522.658,112.376 428.543,170.428 293.176,166.538 169.169,162.974 71.53,111.661 0,0" /></g><g
           id="g268"><g
             id="g270" /><g
             id="g282"><g
               style="opacity:0.52000397"
               id="g280"
               clip-path="url(#clipPath274)"><g
                 id="g278"
                 transform="translate(754.0652,767.2953)"><path
                   id="path276"
                   style="fill:#ffffff;fill-opacity:1;fill-rule:nonzero;stroke:none"
                   d="m 0,0 c -0.633,23.607 -17.111,36.432 -37.992,36.432 -14.84,0 -27.661,-13.717 -33.918,-27.777 -6.257,14.06 -19.078,27.777 -33.918,27.777 -20.881,0 -37.267,-12.828 -37.989,-36.432 -1.054,-34.27 71.907,-88.628 71.907,-88.628 0,0 72.96,49.247 71.91,88.628" /></g></g></g></g></g></g></g></svg>