<?xml version="1.0" encoding="UTF-8"?>
<svg xmlns="http://www.w3.org/2000/svg" xmlns:xlink="http://www.w3.org/1999/xlink" width="568.005pt" height="967.996pt" viewBox="0 0 568.005 967.996" version="1.1">
<defs>
<clipPath id="clip1">
  <path d="M 74 161 L 568.003906 161 L 568.003906 560 L 74 560 Z M 74 161 "/>
</clipPath>
<clipPath id="clip2">
  <path d="M 8 885 L 445 885 L 445 967.996094 L 8 967.996094 Z M 8 885 "/>
</clipPath>
<filter id="alpha" filterUnits="objectBoundingBox" x="0%" y="0%" width="100%" height="100%">
  <feColorMatrix type="matrix" in="SourceGraphic" values="0 0 0 0 1 0 0 0 0 1 0 0 0 0 1 0 0 0 1 0"/>
</filter>
<mask id="mask0">
  <g filter="url(#alpha)">
<rect x="0" y="0" width="568.005" height="967.996" style="fill:rgb(0%,0%,0%);fill-opacity:0.119995;stroke:none;"/>
  </g>
</mask>
<clipPath id="clip4">
  <path d="M 0.273438 0.890625 L 436.894531 0.890625 L 436.894531 82.996094 L 0.273438 82.996094 Z M 0.273438 0.890625 "/>
</clipPath>
<clipPath id="clip3">
  <rect x="0" y="0" width="437" height="83"/>
</clipPath>
<g id="surface5" clip-path="url(#clip3)">
<g clip-path="url(#clip4)" clip-rule="nonzero">
<path style=" stroke:none;fill-rule:nonzero;fill:rgb(0%,0%,0%);fill-opacity:1;" d="M 0.296875 59.523438 C 1.945312 80.003906 101.015625 88.738281 221.570312 79.03125 C 342.128906 69.324219 438.523438 44.847656 436.875 24.363281 C 435.226562 3.882812 336.15625 -4.855469 215.597656 4.855469 C 95.039062 14.5625 -1.351562 39.039062 0.296875 59.523438 "/>
</g>
</g>
<mask id="mask1">
  <g filter="url(#alpha)">
<rect x="0" y="0" width="568.005" height="967.996" style="fill:rgb(0%,0%,0%);fill-opacity:0.300003;stroke:none;"/>
  </g>
</mask>
<clipPath id="clip6">
  <path d="M 0.71875 0.707031 L 67.664062 0.707031 L 67.664062 132.507812 L 0.71875 132.507812 Z M 0.71875 0.707031 "/>
</clipPath>
<clipPath id="clip5">
  <rect x="0" y="0" width="68" height="133"/>
</clipPath>
<g id="surface8" clip-path="url(#clip5)">
<g clip-path="url(#clip6)" clip-rule="nonzero">
<path style=" stroke:none;fill-rule:nonzero;fill:rgb(25.898743%,0%,0%);fill-opacity:1;" d="M 67.664062 121.09375 C 56.613281 124.832031 8.40625 132.792969 2.75 132.5 C -3.546875 91.320312 6.632812 10.597656 8.34375 0.707031 C 8.34375 0.707031 64.609375 88.359375 67.664062 121.09375 "/>
</g>
</g>
<mask id="mask2">
  <g filter="url(#alpha)">
<rect x="0" y="0" width="568.005" height="967.996" style="fill:rgb(0%,0%,0%);fill-opacity:0.199997;stroke:none;"/>
  </g>
</mask>
<clipPath id="clip8">
  <path d="M 0.90625 0.433594 L 262.800781 0.433594 L 262.800781 299.113281 L 0.90625 299.113281 Z M 0.90625 0.433594 "/>
</clipPath>
<clipPath id="clip7">
  <rect x="0" y="0" width="263" height="300"/>
</clipPath>
<g id="surface11" clip-path="url(#clip7)">
<g clip-path="url(#clip8)" clip-rule="nonzero">
<path style=" stroke:none;fill-rule:nonzero;fill:rgb(0%,0%,0%);fill-opacity:1;" d="M 0.90625 299.113281 L 3.9375 292.464844 C 3.9375 292.464844 33.550781 269.015625 52.964844 258.992188 C 53.125 257.476562 53.679688 256.023438 54.578125 254.753906 C 55.992188 252.804688 58.0625 251.523438 60.386719 251.160156 C 62.683594 250.78125 65.191406 250.675781 67.804688 250.898438 C 68.6875 247.375 71.691406 244.585938 75.507812 244.167969 C 77.46875 243.957031 79.511719 243.910156 81.691406 244.039062 C 81.925781 243.296875 82.269531 242.566406 82.71875 241.886719 C 84.027344 239.886719 86.027344 238.515625 88.339844 238.039062 C 91.589844 237.351562 95.050781 237.324219 98.832031 237.859375 C 99.671875 235.578125 100.652344 233.148438 101.660156 230.722656 L 103.816406 225.355469 C 104.460938 223.757812 105.546875 222.65625 106.753906 221.886719 L 116.125 221.375 C 116.433594 213.480469 152.824219 61.875 161.792969 35.148438 C 173.253906 8.347656 170.734375 -1.378906 191.515625 0.707031 C 221.292969 3.699219 280.949219 251.773438 257.4375 262.671875 C 226.882812 276.839844 29.871094 298.09375 17.609375 298.429688 C 12.125 298.578125 2.210938 298.9375 0.90625 299.113281 "/>
</g>
</g>
<mask id="mask3">
  <g filter="url(#alpha)">
<rect x="0" y="0" width="568.005" height="967.996" style="fill:rgb(0%,0%,0%);fill-opacity:0.350006;stroke:none;"/>
  </g>
</mask>
<clipPath id="clip10">
  <path d="M 0.957031 0.652344 L 147.664062 0.652344 L 147.664062 258.84375 L 0.957031 258.84375 Z M 0.957031 0.652344 "/>
</clipPath>
<clipPath id="clip9">
  <rect x="0" y="0" width="148" height="259"/>
</clipPath>
<g id="surface14" clip-path="url(#clip9)">
<g clip-path="url(#clip10)" clip-rule="nonzero">
<path style=" stroke:none;fill-rule:nonzero;fill:rgb(25.898743%,0%,0%);fill-opacity:1;" d="M 1.929688 241.988281 C -3.371094 235.792969 14.515625 -5.714844 19.710938 0.78125 C 42.046875 28.714844 141.648438 143.566406 144.667969 141.722656 C 155.984375 207.964844 134.710938 243.699219 90.152344 254.214844 C 56.28125 262.207031 18.082031 260.882812 1.929688 241.988281 "/>
</g>
</g>
<mask id="mask4">
  <g filter="url(#alpha)">
<rect x="0" y="0" width="568.005" height="967.996" style="fill:rgb(0%,0%,0%);fill-opacity:0.160004;stroke:none;"/>
  </g>
</mask>
<clipPath id="clip12">
  <path d="M 0.777344 0.113281 L 106.613281 0.113281 L 106.613281 201.910156 L 0.777344 201.910156 Z M 0.777344 0.113281 "/>
</clipPath>
<clipPath id="clip11">
  <rect x="0" y="0" width="107" height="202"/>
</clipPath>
<g id="surface17" clip-path="url(#clip11)">
<g clip-path="url(#clip12)" clip-rule="nonzero">
<path style=" stroke:none;fill-rule:nonzero;fill:rgb(25.898743%,0%,0%);fill-opacity:1;" d="M 90.914062 201.910156 C 68.117188 199.296875 30.039062 89.054688 0.777344 29.679688 L 106.164062 0.113281 C 109.0625 40.753906 97.214844 170.367188 90.914062 201.910156 "/>
</g>
</g>
<mask id="mask5">
  <g filter="url(#alpha)">
<rect x="0" y="0" width="568.005" height="967.996" style="fill:rgb(0%,0%,0%);fill-opacity:0.199997;stroke:none;"/>
  </g>
</mask>
<clipPath id="clip14">
  <path d="M 0.371094 0.292969 L 154.3125 0.292969 L 154.3125 115.265625 L 0.371094 115.265625 Z M 0.371094 0.292969 "/>
</clipPath>
<clipPath id="clip13">
  <rect x="0" y="0" width="155" height="116"/>
</clipPath>
<g id="surface20" clip-path="url(#clip13)">
<g clip-path="url(#clip14)" clip-rule="nonzero">
<path style=" stroke:none;fill-rule:nonzero;fill:rgb(44.699097%,3.09906%,3.09906%);fill-opacity:1;" d="M 3.445312 92.25 C 15.292969 117.65625 57.988281 122.816406 98.796875 103.777344 C 139.609375 84.738281 163.089844 48.710938 151.238281 23.304688 C 139.390625 -2.097656 96.695312 -7.257812 55.882812 11.777344 C 15.074219 30.816406 -8.40625 66.84375 3.445312 92.25 "/>
</g>
</g>
</defs>
<g id="surface1">
<g clip-path="url(#clip1)" clip-rule="nonzero">
<path style=" stroke:none;fill-rule:nonzero;fill:rgb(68.598938%,28.599548%,20.799255%);fill-opacity:1;" d="M 519.933594 440.972656 C 519.933594 440.972656 531.183594 465.296875 535.390625 488.121094 C 570.984375 440.0625 592.132812 385.214844 519.132812 161.695312 L 74.765625 213.375 C 91.84375 389.226562 47.410156 517.441406 161.265625 557.886719 C 161.5 555.78125 163.492188 545.730469 166.28125 545.84375 C 170.0625 545.996094 175.066406 557.0625 176.875 559.445312 C 235.414062 562.570312 431.988281 546.976562 478.355469 526.722656 C 494.464844 519.691406 508.046875 511.453125 519.179688 500.910156 C 518.792969 474.398438 519.933594 440.972656 519.933594 440.972656 "/>
</g>
<path style=" stroke:none;fill-rule:nonzero;fill:rgb(100%,75.698853%,62.399292%);fill-opacity:1;" d="M 244.851562 758.695312 C 248.324219 760.542969 275.675781 718.492188 272.46875 716.222656 C 224.519531 682.34375 151.1875 608.574219 139.390625 596.644531 C 139.390625 596.644531 88.011719 643.34375 110.316406 667.734375 C 132.636719 692.128906 174.996094 721.542969 244.851562 758.695312 "/>
<path style=" stroke:none;fill-rule:nonzero;fill:rgb(100%,24.299622%,44.299316%);fill-opacity:1;" d="M 120.984375 607.886719 C 120.984375 607.886719 174.660156 669.527344 183.730469 677.703125 C 199.589844 667.441406 233.316406 641.152344 247.769531 630.730469 C 250.023438 612.699219 248.5625 507.089844 248.5625 507.089844 C 248.5625 507.089844 210.675781 521.605469 205.378906 526.527344 C 186.253906 544.3125 120.984375 607.886719 120.984375 607.886719 "/>
<g clip-path="url(#clip2)" clip-rule="nonzero">
<use xlink:href="#surface5" transform="matrix(1,0,0,1,8,885)" mask="url(#mask0)"/>
</g>
<path style=" stroke:none;fill-rule:nonzero;fill:rgb(89.399719%,65.499878%,55.699158%);fill-opacity:1;" d="M 550.863281 647.1875 C 527.878906 604.386719 482 533.347656 473.289062 526.792969 L 394.511719 578.246094 C 402.328125 595.074219 498.109375 677.578125 517.105469 685.722656 C 523.882812 690.957031 555.742188 671.171875 550.863281 647.1875 "/>
<path style=" stroke:none;fill-rule:nonzero;fill:rgb(100%,24.299622%,44.299316%);fill-opacity:1;" d="M 552.203125 617.039062 C 534.773438 633.917969 489.136719 667.230469 463.3125 685.929688 C 441.867188 657.300781 397.660156 595.695312 396.792969 592.960938 C 381.28125 543.929688 383.566406 502.5 383.835938 500.066406 C 425.707031 502.808594 455.625 505.855469 464.015625 511.59375 C 482.09375 528.105469 520.59375 584.964844 552.203125 617.039062 "/>
<path style=" stroke:none;fill-rule:nonzero;fill:rgb(78.799438%,15.699768%,27.799988%);fill-opacity:1;" d="M 489.976562 804.375 C 448.976562 823.492188 340.527344 831.628906 280.945312 808.171875 C 232.902344 789.257812 237.261719 765.351562 204.820312 736.046875 C 225.207031 697.394531 211.707031 620.585938 221.585938 523.230469 C 279.515625 505.980469 350.878906 489.730469 436.476562 506.632812 C 468.074219 542.929688 486.699219 732.277344 489.976562 804.375 "/>
<path style=" stroke:none;fill-rule:nonzero;fill:rgb(100%,75.698853%,62.399292%);fill-opacity:1;" d="M 379.972656 499.707031 C 380.921875 502.523438 381.558594 505.445312 381.738281 508.472656 C 383.238281 533.734375 355.898438 555.910156 320.679688 558 C 285.457031 560.09375 255.683594 541.3125 254.179688 516.050781 C 254.082031 514.417969 254.429688 512.847656 254.570312 511.242188 C 291.914062 500.808594 330.484375 495.835938 379.972656 499.707031 "/>
<path style=" stroke:none;fill-rule:nonzero;fill:rgb(100%,75.698853%,62.399292%);fill-opacity:1;" d="M 364.132812 446.472656 L 369.128906 515.046875 C 370.199219 529.792969 348.855469 543.296875 321.449219 545.199219 C 294.046875 547.101562 270.960938 536.691406 269.882812 521.945312 L 264.890625 453.367188 Z M 364.132812 446.472656 "/>
<path style=" stroke:none;fill-rule:nonzero;fill:rgb(100%,24.299622%,44.299316%);fill-opacity:1;" d="M 446.828125 506.410156 C 435.429688 503.949219 398.144531 500.371094 383.835938 500.066406 C 388.496094 536.6875 379.882812 576.132812 309.050781 584.1875 C 334.980469 643.148438 360.171875 755.386719 381.648438 766.484375 C 424.792969 788.777344 487.015625 786.96875 502.199219 781.414062 C 492.199219 693.261719 461.832031 537.519531 446.828125 506.410156 "/>
<path style=" stroke:none;fill-rule:nonzero;fill:rgb(100%,24.299622%,44.299316%);fill-opacity:1;" d="M 250.625 513.199219 C 240.226562 515.664062 230.753906 518.847656 221.585938 522.148438 C 215.628906 581.265625 214.824219 679.078125 213.3125 719.261719 C 242.605469 719.453125 283.3125 670.929688 309.050781 584.1875 C 291.828125 580.019531 245.714844 563.910156 250.625 513.199219 "/>
<path style=" stroke:none;fill-rule:nonzero;fill:rgb(39.99939%,21.199036%,35.299683%);fill-opacity:1;" d="M 385.667969 807.722656 C 382.648438 809.566406 377.933594 813.550781 375.730469 813.585938 C 343.585938 777.019531 245.046875 690.804688 222.707031 662.871094 C 187.34375 618.648438 90.652344 624.085938 93.714844 696.761719 C 112.976562 722.519531 229.078125 891.789062 242.929688 907.988281 C 259.078125 926.878906 297.28125 928.207031 331.152344 920.214844 C 375.707031 909.699219 396.984375 873.964844 385.667969 807.722656 "/>
<use xlink:href="#surface8" transform="matrix(1,0,0,1,188,693)" mask="url(#mask1)"/>
<path style=" stroke:none;fill-rule:nonzero;fill:rgb(100%,75.698853%,62.399292%);fill-opacity:1;" d="M 200.691406 881.761719 C 200.675781 883.972656 118.136719 887.082031 117.8125 884.425781 C 114.957031 861.308594 113.152344 814.410156 111.746094 800.980469 L 199.910156 797.582031 C 199.109375 820.773438 200.8125 865.796875 200.691406 881.761719 "/>
<path style=" stroke:none;fill-rule:nonzero;fill:rgb(100%,97.599792%,88.198853%);fill-opacity:1;" d="M 206.265625 891.621094 C 206.257812 892.980469 115.480469 901.757812 115.101562 900.15625 C 111.835938 886.214844 108.550781 852.136719 106.929688 844.023438 L 204.941406 840.066406 C 204.902344 855.527344 206.3125 881.824219 206.265625 891.621094 "/>
<path style=" stroke:none;fill-rule:nonzero;fill:rgb(96.899414%,24.299622%,43.099976%);fill-opacity:1;" d="M 96.332031 882.597656 C 97.648438 877.769531 100.378906 871.652344 102.492188 866.054688 C 104.0625 861.90625 144.667969 862.546875 144.785156 872.523438 C 144.816406 875.078125 144.710938 877.332031 144.503906 879.378906 C 151.449219 879.441406 158.988281 879.355469 166.941406 879.058594 C 184.242188 878.421875 199.75 877.007812 210.628906 875.269531 C 211.339844 891.042969 209.976562 918.363281 210.625 935.898438 C 210.625 935.898438 29.484375 969.902344 0.925781 943.640625 C -7.125 936.242188 38.339844 903.320312 96.332031 882.597656 "/>
<path style=" stroke:none;fill-rule:nonzero;fill:rgb(82.699585%,16.099548%,33.299255%);fill-opacity:1;" d="M 210.460938 924.898438 C 210.464844 928.800781 210.5 932.558594 210.625 935.898438 C 210.625 935.898438 29.484375 969.902344 0.925781 943.640625 C -0.207031 942.597656 -0.261719 941.039062 0.613281 939.089844 C 50.605469 949.910156 165.425781 932.503906 210.460938 924.898438 "/>
<path style=" stroke:none;fill-rule:nonzero;fill:rgb(82.699585%,85.499573%,89.7995%);fill-opacity:1;" d="M 52.363281 899.078125 C 52.597656 900.457031 53.871094 901.414062 55.292969 901.144531 C 63.722656 899.570312 74.832031 903.699219 82.210938 910.902344 C 82.730469 911.40625 83.40625 911.644531 84.074219 911.621094 C 84.703125 911.597656 85.324219 911.339844 85.796875 910.859375 C 86.777344 909.855469 86.753906 908.25 85.753906 907.269531 C 77.277344 899.007812 64.421875 894.414062 54.429688 896.152344 C 53.050781 896.386719 52.125 897.703125 52.363281 899.078125 M 95.527344 903.898438 C 96.046875 904.449219 96.757812 904.714844 97.460938 904.6875 C 98.054688 904.667969 98.644531 904.4375 99.109375 904 C 100.128906 903.035156 100.167969 901.429688 99.210938 900.414062 C 91.183594 891.933594 80.230469 887.777344 69.140625 889.089844 C 67.75 889.25 66.753906 890.503906 66.910156 891.898438 C 67.074219 893.289062 68.347656 894.378906 69.722656 894.125 C 75.304688 893.476562 86.058594 893.898438 95.527344 903.898438 M 108.328125 897.703125 C 108.847656 898.390625 109.648438 898.738281 110.449219 898.710938 C 110.949219 898.691406 111.449219 898.523438 111.878906 898.199219 C 113 897.355469 113.21875 895.765625 112.375 894.648438 C 105.335938 885.324219 93.074219 880.460938 82.554688 882.75 C 81.1875 883.054688 80.324219 884.410156 80.625 885.777344 C 80.925781 887.144531 82.269531 887.980469 83.648438 887.707031 C 92.292969 885.757812 102.445312 889.90625 108.328125 897.703125 "/>
<path style=" stroke:none;fill-rule:nonzero;fill:rgb(39.99939%,21.199036%,35.299683%);fill-opacity:1;" d="M 210.050781 824.761719 C 199.058594 827.808594 110.644531 831.460938 105.164062 830.820312 C 101.722656 789.339844 94.296875 723.320312 93.464844 688.050781 L 206.386719 688.050781 C 208.027344 725.886719 209.214844 791.910156 210.050781 824.761719 "/>
<use xlink:href="#surface11" transform="matrix(1,0,0,1,73,653)" mask="url(#mask2)"/>
<use xlink:href="#surface14" transform="matrix(1,0,0,1,241,666)" mask="url(#mask3)"/>
<path style=" stroke:none;fill-rule:nonzero;fill:rgb(39.99939%,21.199036%,35.299683%);fill-opacity:1;" d="M 483.132812 807.679688 C 479.679688 809.039062 469.941406 811.238281 468.832031 811.652344 C 435.917969 775.78125 389.574219 692.734375 366.644531 665.28125 C 330.347656 621.820312 259.367188 621.0625 239.804688 682.277344 C 259.613281 707.617188 304.003906 893.808594 318.195312 909.707031 C 334.746094 928.25 386.472656 932.960938 420.167969 924.246094 C 464.488281 912.789062 495.855469 873.667969 483.132812 807.679688 "/>
<use xlink:href="#surface17" transform="matrix(1,0,0,1,239,716)" mask="url(#mask4)"/>
<path style=" stroke:none;fill-rule:nonzero;fill:rgb(100%,75.698853%,62.399292%);fill-opacity:1;" d="M 280.835938 909.410156 C 280.226562 911.535156 199.890625 892.339844 200.289062 889.691406 C 203.753906 866.660156 214.625 821 216.878906 807.691406 L 302.714844 828.121094 C 295.707031 850.242188 285.246094 894.0625 280.835938 909.410156 "/>
<path style=" stroke:none;fill-rule:nonzero;fill:rgb(100%,97.599792%,88.198853%);fill-opacity:1;" d="M 283.371094 920.375 C 282.992188 921.679688 189.140625 905.042969 189.199219 903.398438 C 189.722656 889.082031 195.734375 855.375 196.320312 847.117188 L 296.140625 870.390625 C 291.871094 885.257812 286.097656 910.953125 283.371094 920.375 "/>
<path style=" stroke:none;fill-rule:nonzero;fill:rgb(96.899414%,24.299622%,43.099976%);fill-opacity:1;" d="M 182.800781 893.773438 C 184.011719 888.914062 186.613281 882.742188 188.605469 877.101562 C 190.085938 872.917969 230.699219 872.695312 231.03125 882.667969 C 231.113281 885.222656 231.058594 887.476562 230.894531 889.523438 C 237.839844 889.441406 245.371094 889.191406 253.320312 888.730469 C 270.601562 887.722656 286.078125 885.980469 296.914062 884.011719 C 297.964844 899.765625 297.183594 927.105469 298.203125 944.625 C 298.203125 944.625 117.832031 982.480469 88.714844 956.832031 C 80.511719 949.605469 125.265625 915.722656 182.800781 893.773438 "/>
<path style=" stroke:none;fill-rule:nonzero;fill:rgb(82.699585%,16.099548%,33.299255%);fill-opacity:1;" d="M 297.804688 933.632812 C 297.894531 937.53125 298.007812 941.289062 298.203125 944.625 C 298.203125 944.625 117.832031 982.480469 88.714844 956.832031 C 87.558594 955.8125 87.472656 954.257812 88.308594 952.289062 C 138.515625 962.042969 252.941406 942.195312 297.804688 933.632812 "/>
<path style=" stroke:none;fill-rule:nonzero;fill:rgb(82.699585%,85.499573%,89.7995%);fill-opacity:1;" d="M 139.191406 911.1875 C 139.457031 912.558594 140.75 913.484375 142.167969 913.191406 C 150.558594 911.433594 161.753906 915.328125 169.285156 922.367188 C 169.816406 922.863281 170.496094 923.085938 171.164062 923.046875 C 171.792969 923.011719 172.40625 922.742188 172.871094 922.25 C 173.828125 921.226562 173.773438 919.625 172.75 918.664062 C 164.101562 910.582031 151.148438 906.261719 141.195312 908.214844 C 139.820312 908.480469 138.925781 909.8125 139.191406 911.1875 M 182.449219 915.085938 C 182.980469 915.625 183.699219 915.875 184.398438 915.832031 C 184.992188 915.796875 185.578125 915.554688 186.035156 915.105469 C 187.03125 914.121094 187.039062 912.515625 186.054688 911.519531 C 177.851562 903.214844 166.8125 899.292969 155.753906 900.84375 C 154.367188 901.03125 153.394531 902.308594 153.585938 903.695312 C 153.773438 905.082031 155.074219 906.148438 156.445312 905.859375 C 162.011719 905.09375 172.769531 905.285156 182.449219 915.085938 M 195.117188 908.617188 C 195.652344 909.292969 196.460938 909.625 197.257812 909.578125 C 197.757812 909.546875 198.257812 909.371094 198.675781 909.039062 C 199.777344 908.171875 199.964844 906.578125 199.097656 905.476562 C 191.859375 896.304688 179.5 891.703125 169.027344 894.21875 C 167.667969 894.550781 166.832031 895.925781 167.167969 897.285156 C 167.496094 898.644531 168.855469 899.453125 170.230469 899.148438 C 178.832031 897.015625 189.066406 900.949219 195.117188 908.617188 "/>
<path style=" stroke:none;fill-rule:nonzero;fill:rgb(39.99939%,21.199036%,35.299683%);fill-opacity:1;" d="M 306.179688 858.183594 C 293.382812 856.339844 209.628906 833.167969 203.972656 830.476562 C 214.210938 786.972656 231.351562 712.085938 240.785156 680.425781 L 353.542969 720.085938 C 344.359375 747.769531 318.894531 826.261719 306.179688 858.183594 "/>
<use xlink:href="#surface20" transform="matrix(1,0,0,1,214,419)" mask="url(#mask5)"/>
<path style=" stroke:none;fill-rule:nonzero;fill:rgb(100%,75.698853%,62.399292%);fill-opacity:1;" d="M 417.980469 611.285156 C 446.84375 648.511719 479.039062 675.378906 507.289062 692.644531 C 544.9375 715.652344 573.910156 654.582031 541.089844 638.078125 C 513.945312 624.425781 478.105469 605.34375 449.496094 581.492188 C 443.980469 576.890625 413.460938 605.453125 417.980469 611.285156 "/>
<path style=" stroke:none;fill-rule:nonzero;fill:rgb(68.598938%,28.599548%,20.799255%);fill-opacity:1;" d="M 528.691406 204.441406 C 544.863281 356.160156 464.679688 419.925781 337.558594 446.367188 C 214.210938 472.027344 73.789062 356.804688 74.511719 207.839844 C 74.914062 125.132812 144.894531 54.402344 264.972656 45.445312 C 392.789062 35.917969 515.4375 80.117188 528.691406 204.441406 "/>
<path style=" stroke:none;fill-rule:nonzero;fill:rgb(100%,75.698853%,62.399292%);fill-opacity:1;" d="M 448.828125 168.277344 C 455.9375 187.785156 444.964844 386.460938 417.804688 426.011719 C 393.96875 460.726562 337.238281 502.277344 245.480469 511.511719 C 177.664062 518.332031 112.417969 468.90625 101.253906 420.84375 C 91.816406 380.21875 97.609375 364.597656 94.996094 336.570312 C 91.460938 298.734375 89.78125 281.257812 87.480469 263.886719 C 84.554688 241.777344 75.097656 205.367188 86.519531 176.371094 C 106.960938 124.46875 180.269531 87.46875 271.132812 80.09375 C 356.136719 73.191406 423.085938 97.648438 448.828125 168.277344 "/>
<path style=" stroke:none;fill-rule:nonzero;fill:rgb(68.598938%,28.599548%,20.799255%);fill-opacity:1;" d="M 438.296875 312.34375 C 460.550781 262.585938 476.878906 191.636719 471.089844 122.875 C 465.265625 53.671875 197.023438 52.839844 148.4375 104.878906 C 141.132812 112.699219 355.75 125.054688 364.164062 131.664062 C 418.164062 174.0625 416.324219 286.941406 438.296875 312.34375 "/>
<path style=" stroke:none;fill-rule:nonzero;fill:rgb(100%,75.698853%,62.399292%);fill-opacity:1;" d="M 498.5 354.390625 C 484.824219 397.207031 441.089844 422.164062 409.570312 416.175781 C 378.050781 410.1875 388.925781 281.339844 446.789062 273.25 C 494.984375 266.507812 511.359375 314.148438 498.5 354.390625 "/>
<path style=" stroke:none;fill-rule:nonzero;fill:rgb(87.799072%,58.399963%,42.399597%);fill-opacity:1;" d="M 461.117188 350.851562 C 457.65625 369.066406 436.253906 383.460938 421 377.574219 C 415.050781 375.277344 428.636719 311.835938 438.296875 312.34375 C 454.625 313.199219 464.578125 332.636719 461.117188 350.851562 "/>
<path style=" stroke:none;fill-rule:nonzero;fill:rgb(43.899536%,8.599854%,3.09906%);fill-opacity:1;" d="M 291.855469 395.46875 C 286.730469 379.882812 262.808594 385.613281 229.1875 388.375 C 227.425781 388.519531 220.589844 389.136719 218.832031 389.3125 C 185.261719 392.613281 165.203125 390.335938 165.113281 406.75 C 164.960938 436.410156 192.957031 465.410156 227.203125 464.210938 C 261.335938 463.011719 301.921875 426.101562 291.855469 395.46875 "/>
<path style=" stroke:none;fill-rule:nonzero;fill:rgb(86.698914%,41.999817%,35.699463%);fill-opacity:1;" d="M 196.503906 456.492188 C 205.605469 461.53125 215.996094 464.601562 227.207031 464.207031 C 239.289062 463.785156 252.109375 458.738281 263.277344 451.222656 C 253.214844 442.59375 238.671875 438.671875 225.4375 440.144531 C 213.359375 441.488281 202.375 447.34375 196.503906 456.492188 "/>
<path style=" stroke:none;fill-rule:nonzero;fill:rgb(100%,100%,100%);fill-opacity:1;" d="M 222.863281 409.816406 C 198.015625 412.054688 177.46875 406.855469 173.804688 395.457031 L 173.589844 394.757812 C 180.71875 391.332031 202.152344 390.503906 214.957031 389.25 C 228.929688 387.882812 269.171875 384.664062 269.171875 384.664062 L 269.082031 385.390625 C 267.550781 397.257812 247.6875 407.574219 222.863281 409.816406 "/>
<path style=" stroke:none;fill-rule:nonzero;fill:rgb(100%,54.098511%,54.098511%);fill-opacity:1;" d="M 371.363281 382.785156 C 373.125 391.765625 362.078125 401.496094 346.679688 404.519531 C 331.289062 407.539062 317.375 402.714844 315.613281 393.734375 C 313.847656 384.753906 324.90625 375.023438 340.292969 372 C 355.691406 368.976562 369.597656 373.808594 371.363281 382.785156 "/>
<path style=" stroke:none;fill-rule:nonzero;fill:rgb(100%,54.098511%,54.098511%);fill-opacity:1;" d="M 137.230469 403.890625 C 137.394531 412.027344 129.714844 418.777344 120.078125 418.96875 C 110.445312 419.164062 102.5 412.722656 102.335938 404.585938 C 102.175781 396.449219 109.859375 389.699219 119.488281 389.507812 C 129.125 389.316406 137.070312 395.757812 137.230469 403.890625 "/>
<path style=" stroke:none;fill-rule:nonzero;fill:rgb(76.899719%,45.098877%,35.699463%);fill-opacity:1;" d="M 227.136719 373.945312 C 226.132812 374.027344 225.195312 373.378906 224.941406 372.371094 C 223.152344 365.21875 217.039062 360.996094 209.367188 361.617188 C 201.65625 362.246094 196.179688 367.5 195.738281 374.695312 C 195.664062 375.847656 194.667969 376.730469 193.523438 376.652344 C 192.367188 376.585938 191.492188 375.59375 191.5625 374.4375 C 192.125 365.222656 199.308594 358.234375 209.03125 357.445312 C 218.695312 356.660156 226.722656 362.25 229.003906 371.351562 C 229.28125 372.476562 228.601562 373.609375 227.480469 373.890625 Z M 227.136719 373.945312 "/>
<path style=" stroke:none;fill-rule:nonzero;fill:rgb(97.599792%,99.598694%,100%);fill-opacity:1;" d="M 164.125 315.390625 C 176.117188 335.4375 176.742188 358.546875 168.480469 368.011719 C 156.035156 382.28125 124.335938 388.636719 110.824219 370.5625 C 97.738281 353.066406 100.558594 319 118.222656 303.011719 C 133.6875 289.015625 152.519531 295.988281 164.125 315.390625 "/>
<path style=" stroke:none;fill-rule:nonzero;fill:rgb(51.799011%,22.399902%,13.699341%);fill-opacity:1;" d="M 104.023438 314.386719 C 116.035156 280.828125 152.261719 288.929688 164.527344 316.070312 C 152.546875 296.03125 133.070312 291.207031 118.773438 304.136719 C 109.9375 312.136719 104.300781 325.558594 103.683594 340.035156 C 103.195312 351.578125 106.136719 364.242188 111.570312 371.511719 C 105.628906 366.960938 95.191406 339.0625 104.023438 314.386719 "/>
<path style=" stroke:none;fill-rule:nonzero;fill:rgb(27.49939%,11.399841%,7.798767%);fill-opacity:1;" d="M 143.445312 332.542969 C 148.847656 346.664062 145.238281 363.542969 135.378906 370.234375 C 125.523438 376.925781 113.15625 370.898438 107.753906 356.777344 C 102.355469 342.652344 105.964844 325.777344 115.820312 319.085938 C 125.675781 312.394531 138.042969 318.417969 143.445312 332.542969 "/>
<path style=" stroke:none;fill-rule:nonzero;fill:rgb(99.598694%,100%,99.598694%);fill-opacity:1;" d="M 141.589844 330.1875 C 143.089844 334.105469 142.089844 338.789062 139.351562 340.644531 C 136.621094 342.5 133.1875 340.828125 131.6875 336.910156 C 130.191406 332.992188 131.191406 328.308594 133.925781 326.453125 C 136.660156 324.59375 140.089844 326.269531 141.589844 330.1875 "/>
<path style=" stroke:none;fill-rule:nonzero;fill:rgb(97.599792%,99.598694%,100%);fill-opacity:1;" d="M 260.84375 306.804688 C 249.875 328.902344 253.667969 351.726562 265.828125 359.378906 C 284.152344 370.902344 324.894531 370.800781 338.148438 350.347656 C 350.984375 330.535156 340.730469 297.636719 315.566406 285.464844 C 293.535156 274.808594 271.457031 285.425781 260.84375 306.804688 "/>
<path style=" stroke:none;fill-rule:nonzero;fill:rgb(51.799011%,22.399902%,13.699341%);fill-opacity:1;" d="M 335.5 293.796875 C 313.898438 263.234375 270.378906 278.445312 260.476562 307.558594 C 271.433594 285.472656 294.734375 276.839844 315.101562 286.679688 C 327.6875 292.769531 337.367188 304.824219 341 318.921875 C 343.894531 330.164062 342.738281 343.199219 337.40625 351.425781 C 343.90625 345.765625 351.386719 316.269531 335.5 293.796875 "/>
<path style=" stroke:none;fill-rule:nonzero;fill:rgb(27.49939%,11.399841%,7.798767%);fill-opacity:1;" d="M 306.695312 317.460938 C 313.1875 331.488281 308.246094 348.480469 295.664062 355.414062 C 283.082031 362.351562 267.621094 356.597656 261.132812 342.570312 C 254.644531 328.546875 259.585938 311.550781 272.167969 304.617188 C 284.75 297.683594 300.207031 303.433594 306.695312 317.460938 "/>
<path style=" stroke:none;fill-rule:nonzero;fill:rgb(99.598694%,100%,99.598694%);fill-opacity:1;" d="M 304.414062 315.144531 C 306.214844 319.035156 304.839844 323.75 301.351562 325.671875 C 297.859375 327.59375 293.570312 326 291.769531 322.109375 C 289.96875 318.21875 291.34375 313.503906 294.832031 311.578125 C 298.320312 309.652344 302.609375 311.25 304.414062 315.144531 "/>
<path style=" stroke:none;fill-rule:nonzero;fill:rgb(100%,66.699219%,0%);fill-opacity:1;" d="M 77.0625 135.730469 C 121.90625 95.394531 173.347656 78.796875 235.09375 75.898438 C 304.578125 72.636719 395.90625 93.996094 447.917969 152.457031 C 437.730469 125.730469 416.28125 99.582031 404.050781 91.097656 C 412.46875 90.425781 442.527344 74.347656 505.730469 90.761719 C 472.085938 30.15625 425.128906 39.265625 407.621094 63.152344 C 413.980469 19.816406 388.023438 -13.140625 330.816406 5.164062 C 378.566406 27.960938 392.859375 72.296875 397.617188 86.414062 C 352.9375 57.761719 304.429688 42.777344 243.214844 51.074219 C 170.175781 60.976562 118.902344 85.917969 77.0625 135.730469 "/>
<path style=" stroke:none;fill-rule:nonzero;fill:rgb(68.598938%,28.599548%,20.799255%);fill-opacity:1;" d="M 56.035156 132.179688 C 65.921875 135.726562 77.699219 133.128906 82.117188 129.261719 C 69.632812 101.769531 78.53125 65.050781 110.957031 57.988281 C 113.828125 128.683594 321.351562 35.925781 385.523438 125.085938 C 383.578125 125.109375 394.347656 139.140625 380.179688 152.832031 C 361.824219 172.996094 313.429688 206.132812 258.5 205.042969 C 279.714844 197.851562 322.039062 173.316406 321.140625 161.722656 C 291.617188 177.183594 246.734375 198.921875 172.496094 204.671875 C 102.453125 210.097656 46.371094 185.277344 56.035156 132.179688 "/>
<path style=" stroke:none;fill-rule:nonzero;fill:rgb(68.598938%,28.599548%,20.799255%);fill-opacity:1;" d="M 380.398438 126.125 C 376.75 177.660156 368.921875 235.003906 366.964844 252.070312 C 364.808594 270.914062 392.738281 354.464844 470.03125 311.355469 C 369.785156 293.226562 497.039062 164.273438 380.398438 126.125 "/>
<path style=" stroke:none;fill-rule:nonzero;fill:rgb(44.699097%,13.299561%,10.198975%);fill-opacity:1;" d="M 348.378906 242.632812 C 346.855469 242.640625 345.328125 242.109375 344.109375 241.027344 C 328.480469 227.25 298.949219 223.578125 275.363281 232.535156 C 272.09375 233.796875 268.390625 232.140625 267.121094 228.828125 C 265.871094 225.535156 267.523438 221.847656 270.828125 220.585938 C 298.972656 209.917969 333.359375 214.484375 352.566406 231.457031 C 355.210938 233.792969 355.460938 237.828125 353.121094 240.472656 C 351.875 241.894531 350.136719 242.617188 348.378906 242.632812 "/>
<path style=" stroke:none;fill-rule:nonzero;fill:rgb(44.699097%,13.299561%,10.198975%);fill-opacity:1;" d="M 92.933594 265.085938 C 91.535156 265.292969 90.042969 264.871094 88.859375 263.765625 C 86.632812 261.722656 86.28125 258.128906 88.070312 255.734375 C 101.066406 238.351562 127.835938 230.054688 151.703125 235.976562 C 154.503906 236.679688 156.328125 239.734375 155.78125 242.800781 C 155.230469 245.882812 152.511719 247.804688 149.722656 247.101562 C 129.714844 242.105469 106.667969 249 96.113281 263.136719 C 95.289062 264.246094 94.148438 264.90625 92.933594 265.085938 "/>
<path style=" stroke:none;fill-rule:nonzero;fill:rgb(96.899414%,64.299011%,72.198486%);fill-opacity:1;" d="M 318.175781 588.585938 C 318.175781 594.109375 313.695312 598.585938 308.175781 598.585938 C 302.652344 598.585938 298.175781 594.109375 298.175781 588.585938 C 298.175781 583.0625 302.652344 578.585938 308.175781 578.585938 C 313.695312 578.585938 318.175781 583.0625 318.175781 588.585938 "/>
<path style=" stroke:none;fill-rule:nonzero;fill:rgb(89.399719%,65.499878%,55.699158%);fill-opacity:1;" d="M 381.835938 560.890625 C 381.128906 566.523438 387.3125 571.9375 395.65625 572.988281 C 403.996094 574.039062 411.332031 570.324219 412.039062 564.695312 C 412.75 559.0625 406.5625 553.644531 398.222656 552.597656 C 389.882812 551.546875 382.542969 555.261719 381.835938 560.890625 "/>
<path style=" stroke:none;fill-rule:nonzero;fill:rgb(100%,75.698853%,62.399292%);fill-opacity:1;" d="M 395.726562 529.769531 C 399.355469 529.21875 411.316406 531.417969 420.203125 534.320312 C 399.953125 520.0625 388.253906 533.628906 387.546875 528.988281 C 386.808594 524.125 392.578125 514.59375 399.085938 513.601562 C 403.671875 512.902344 420.289062 515.675781 429.960938 519.074219 C 415.386719 506.492188 399.558594 513.421875 400.203125 508.890625 C 400.894531 504.023438 407.609375 498.824219 414.183594 498.570312 C 423.28125 498.21875 450.453125 511.535156 452.785156 517.636719 C 455.453125 524.617188 454.964844 551.601562 451.242188 573.808594 C 446.914062 599.625 437.253906 626.78125 421.054688 624.742188 C 388.578125 620.644531 405.644531 591.363281 412.195312 571.804688 C 391.871094 553.757812 384.660156 563.199219 382.050781 564.136719 C 380.40625 559.5 384.691406 548.207031 395.371094 546.636719 C 398.164062 546.230469 405.90625 547.4375 413.375 549.335938 C 395.902344 537.117188 386.105469 549.453125 385.421875 544.96875 C 384.683594 540.105469 389.8125 530.671875 395.726562 529.769531 "/>
</g>
</svg>
