<?xml version="1.0" encoding="UTF-8"?>
<svg xmlns="http://www.w3.org/2000/svg" xmlns:xlink="http://www.w3.org/1999/xlink" width="911.983pt" height="911.983pt" viewBox="0 0 911.983 911.983" version="1.1">
<defs>
<clipPath id="clip1">
  <path d="M 242 192 L 801 192 L 801 669 L 242 669 Z M 242 192 "/>
</clipPath>
<clipPath id="clip2">
  <path d="M 28.101562 455.992188 C 28.101562 692.308594 219.671875 883.882812 455.992188 883.882812 C 692.308594 883.882812 883.882812 692.308594 883.882812 455.992188 C 883.882812 219.671875 692.308594 28.101562 455.992188 28.101562 C 219.671875 28.101562 28.101562 219.671875 28.101562 455.992188 "/>
</clipPath>
<clipPath id="clip3">
  <path d="M 144 424 L 399 424 L 399 606 L 144 606 Z M 144 424 "/>
</clipPath>
<clipPath id="clip4">
  <path d="M 28.101562 455.992188 C 28.101562 692.308594 219.671875 883.882812 455.992188 883.882812 C 692.308594 883.882812 883.882812 692.308594 883.882812 455.992188 C 883.882812 219.671875 692.308594 28.101562 455.992188 28.101562 C 219.671875 28.101562 28.101562 219.671875 28.101562 455.992188 "/>
</clipPath>
<clipPath id="clip5">
  <path d="M 254 486 L 422 486 L 422 624 L 254 624 Z M 254 486 "/>
</clipPath>
<clipPath id="clip6">
  <path d="M 28.101562 455.992188 C 28.101562 692.308594 219.671875 883.882812 455.992188 883.882812 C 692.308594 883.882812 883.882812 692.308594 883.882812 455.992188 C 883.882812 219.671875 692.308594 28.101562 455.992188 28.101562 C 219.671875 28.101562 28.101562 219.671875 28.101562 455.992188 "/>
</clipPath>
<clipPath id="clip7">
  <path d="M 47 330 L 206 330 L 206 484 L 47 484 Z M 47 330 "/>
</clipPath>
<clipPath id="clip8">
  <path d="M 28.101562 455.992188 C 28.101562 692.308594 219.671875 883.882812 455.992188 883.882812 C 692.308594 883.882812 883.882812 692.308594 883.882812 455.992188 C 883.882812 219.671875 692.308594 28.101562 455.992188 28.101562 C 219.671875 28.101562 28.101562 219.671875 28.101562 455.992188 "/>
</clipPath>
<clipPath id="clip9">
  <path d="M 590 633 L 722 633 L 722 816 L 590 816 Z M 590 633 "/>
</clipPath>
<clipPath id="clip10">
  <path d="M 28.101562 455.992188 C 28.101562 692.308594 219.671875 883.882812 455.992188 883.882812 C 692.308594 883.882812 883.882812 692.308594 883.882812 455.992188 C 883.882812 219.671875 692.308594 28.101562 455.992188 28.101562 C 219.671875 28.101562 28.101562 219.671875 28.101562 455.992188 "/>
</clipPath>
<clipPath id="clip11">
  <path d="M 539 551 L 697 551 L 697 715 L 539 715 Z M 539 551 "/>
</clipPath>
<clipPath id="clip12">
  <path d="M 28.101562 455.992188 C 28.101562 692.308594 219.671875 883.882812 455.992188 883.882812 C 692.308594 883.882812 883.882812 692.308594 883.882812 455.992188 C 883.882812 219.671875 692.308594 28.101562 455.992188 28.101562 C 219.671875 28.101562 28.101562 219.671875 28.101562 455.992188 "/>
</clipPath>
<clipPath id="clip13">
  <path d="M 303 529 L 594 529 L 594 867 L 303 867 Z M 303 529 "/>
</clipPath>
<clipPath id="clip14">
  <path d="M 28.101562 455.992188 C 28.101562 692.308594 219.671875 883.882812 455.992188 883.882812 C 692.308594 883.882812 883.882812 692.308594 883.882812 455.992188 C 883.882812 219.671875 692.308594 28.101562 455.992188 28.101562 C 219.671875 28.101562 28.101562 219.671875 28.101562 455.992188 "/>
</clipPath>
<clipPath id="clip15">
  <path d="M 400 534 L 540 534 L 540 609 L 400 609 Z M 400 534 "/>
</clipPath>
<clipPath id="clip16">
  <path d="M 28.101562 455.992188 C 28.101562 692.308594 219.671875 883.882812 455.992188 883.882812 C 692.308594 883.882812 883.882812 692.308594 883.882812 455.992188 C 883.882812 219.671875 692.308594 28.101562 455.992188 28.101562 C 219.671875 28.101562 28.101562 219.671875 28.101562 455.992188 "/>
</clipPath>
<clipPath id="clip17">
  <path d="M 421 471 L 531 471 L 531 592 L 421 592 Z M 421 471 "/>
</clipPath>
<clipPath id="clip18">
  <path d="M 28.101562 455.992188 C 28.101562 692.308594 219.671875 883.882812 455.992188 883.882812 C 692.308594 883.882812 883.882812 692.308594 883.882812 455.992188 C 883.882812 219.671875 692.308594 28.101562 455.992188 28.101562 C 219.671875 28.101562 28.101562 219.671875 28.101562 455.992188 "/>
</clipPath>
<clipPath id="clip19">
  <path d="M 333 625 L 561 625 L 561 856 L 333 856 Z M 333 625 "/>
</clipPath>
<clipPath id="clip20">
  <path d="M 28.101562 455.992188 C 28.101562 692.308594 219.671875 883.882812 455.992188 883.882812 C 692.308594 883.882812 883.882812 692.308594 883.882812 455.992188 C 883.882812 219.671875 692.308594 28.101562 455.992188 28.101562 C 219.671875 28.101562 28.101562 219.671875 28.101562 455.992188 "/>
</clipPath>
<clipPath id="clip21">
  <path d="M 370 602 L 406 602 L 406 645 L 370 645 Z M 370 602 "/>
</clipPath>
<clipPath id="clip22">
  <path d="M 28.101562 455.992188 C 28.101562 692.308594 219.671875 883.882812 455.992188 883.882812 C 692.308594 883.882812 883.882812 692.308594 883.882812 455.992188 C 883.882812 219.671875 692.308594 28.101562 455.992188 28.101562 C 219.671875 28.101562 28.101562 219.671875 28.101562 455.992188 "/>
</clipPath>
<clipPath id="clip23">
  <path d="M 376 526 L 407 526 L 407 610 L 376 610 Z M 376 526 "/>
</clipPath>
<clipPath id="clip24">
  <path d="M 28.101562 455.992188 C 28.101562 692.308594 219.671875 883.882812 455.992188 883.882812 C 692.308594 883.882812 883.882812 692.308594 883.882812 455.992188 C 883.882812 219.671875 692.308594 28.101562 455.992188 28.101562 C 219.671875 28.101562 28.101562 219.671875 28.101562 455.992188 "/>
</clipPath>
<clipPath id="clip25">
  <path d="M 375 631 L 394 631 L 394 651 L 375 651 Z M 375 631 "/>
</clipPath>
<clipPath id="clip26">
  <path d="M 28.101562 455.992188 C 28.101562 692.308594 219.671875 883.882812 455.992188 883.882812 C 692.308594 883.882812 883.882812 692.308594 883.882812 455.992188 C 883.882812 219.671875 692.308594 28.101562 455.992188 28.101562 C 219.671875 28.101562 28.101562 219.671875 28.101562 455.992188 "/>
</clipPath>
<clipPath id="clip27">
  <path d="M 526 614 L 562 614 L 562 657 L 526 657 Z M 526 614 "/>
</clipPath>
<clipPath id="clip28">
  <path d="M 28.101562 455.992188 C 28.101562 692.308594 219.671875 883.882812 455.992188 883.882812 C 692.308594 883.882812 883.882812 692.308594 883.882812 455.992188 C 883.882812 219.671875 692.308594 28.101562 455.992188 28.101562 C 219.671875 28.101562 28.101562 219.671875 28.101562 455.992188 "/>
</clipPath>
<clipPath id="clip29">
  <path d="M 532 550 L 561 550 L 561 622 L 532 622 Z M 532 550 "/>
</clipPath>
<clipPath id="clip30">
  <path d="M 28.101562 455.992188 C 28.101562 692.308594 219.671875 883.882812 455.992188 883.882812 C 692.308594 883.882812 883.882812 692.308594 883.882812 455.992188 C 883.882812 219.671875 692.308594 28.101562 455.992188 28.101562 C 219.671875 28.101562 28.101562 219.671875 28.101562 455.992188 "/>
</clipPath>
<clipPath id="clip31">
  <path d="M 533 644 L 553 644 L 553 663 L 533 663 Z M 533 644 "/>
</clipPath>
<clipPath id="clip32">
  <path d="M 28.101562 455.992188 C 28.101562 692.308594 219.671875 883.882812 455.992188 883.882812 C 692.308594 883.882812 883.882812 692.308594 883.882812 455.992188 C 883.882812 219.671875 692.308594 28.101562 455.992188 28.101562 C 219.671875 28.101562 28.101562 219.671875 28.101562 455.992188 "/>
</clipPath>
<clipPath id="clip33">
  <path d="M 411 675 L 503 675 L 503 759 L 411 759 Z M 411 675 "/>
</clipPath>
<clipPath id="clip34">
  <path d="M 28.101562 455.992188 C 28.101562 692.308594 219.671875 883.882812 455.992188 883.882812 C 692.308594 883.882812 883.882812 692.308594 883.882812 455.992188 C 883.882812 219.671875 692.308594 28.101562 455.992188 28.101562 C 219.671875 28.101562 28.101562 219.671875 28.101562 455.992188 "/>
</clipPath>
<filter id="alpha" filterUnits="objectBoundingBox" x="0%" y="0%" width="100%" height="100%">
  <feColorMatrix type="matrix" in="SourceGraphic" values="0 0 0 0 1 0 0 0 0 1 0 0 0 0 1 0 0 0 1 0"/>
</filter>
<mask id="mask0">
  <g filter="url(#alpha)">
<rect x="0" y="0" width="911.983" height="911.983" style="fill:rgb(0%,0%,0%);fill-opacity:0.210007;stroke:none;"/>
  </g>
</mask>
<clipPath id="clip36">
  <path d="M 0.828125 0.0195312 L 91.734375 0.0195312 L 91.734375 83.226562 L 0.828125 83.226562 Z M 0.828125 0.0195312 "/>
</clipPath>
<clipPath id="clip37">
  <path d="M -382.898438 -219.007812 C -382.898438 17.308594 -191.328125 208.882812 44.992188 208.882812 C 281.308594 208.882812 472.882812 17.308594 472.882812 -219.007812 C 472.882812 -455.328125 281.308594 -646.898438 44.992188 -646.898438 C -191.328125 -646.898438 -382.898438 -455.328125 -382.898438 -219.007812 "/>
</clipPath>
<clipPath id="clip35">
  <rect x="0" y="0" width="92" height="84"/>
</clipPath>
<g id="surface5" clip-path="url(#clip35)">
<g clip-path="url(#clip36)" clip-rule="nonzero">
<g clip-path="url(#clip37)" clip-rule="nonzero">
<path style=" stroke:none;fill-rule:nonzero;fill:rgb(0%,0%,0%);fill-opacity:1;" d="M 0.828125 69.269531 L 44.679688 83.226562 L 88.71875 71.683594 L 91.734375 5.988281 L 5.878906 0.0195312 Z M 0.828125 69.269531 "/>
</g>
</g>
</g>
<clipPath id="clip38">
  <path d="M 415 676 L 502 676 L 502 755 L 415 755 Z M 415 676 "/>
</clipPath>
<clipPath id="clip39">
  <path d="M 28.101562 455.992188 C 28.101562 692.308594 219.671875 883.882812 455.992188 883.882812 C 692.308594 883.882812 883.882812 692.308594 883.882812 455.992188 C 883.882812 219.671875 692.308594 28.101562 455.992188 28.101562 C 219.671875 28.101562 28.101562 219.671875 28.101562 455.992188 "/>
</clipPath>
<clipPath id="clip40">
  <path d="M 238 813 L 639 813 L 639 884 L 238 884 Z M 238 813 "/>
</clipPath>
<clipPath id="clip41">
  <path d="M 28.101562 455.992188 C 28.101562 692.308594 219.671875 883.882812 455.992188 883.882812 C 692.308594 883.882812 883.882812 692.308594 883.882812 455.992188 C 883.882812 219.671875 692.308594 28.101562 455.992188 28.101562 C 219.671875 28.101562 28.101562 219.671875 28.101562 455.992188 "/>
</clipPath>
<clipPath id="clip42">
  <path d="M 280 813 L 335 813 L 335 868 L 280 868 Z M 280 813 "/>
</clipPath>
<clipPath id="clip43">
  <path d="M 28.101562 455.992188 C 28.101562 692.308594 219.671875 883.882812 455.992188 883.882812 C 692.308594 883.882812 883.882812 692.308594 883.882812 455.992188 C 883.882812 219.671875 692.308594 28.101562 455.992188 28.101562 C 219.671875 28.101562 28.101562 219.671875 28.101562 455.992188 "/>
</clipPath>
<mask id="mask1">
  <g filter="url(#alpha)">
<rect x="0" y="0" width="911.983" height="911.983" style="fill:rgb(0%,0%,0%);fill-opacity:0.5;stroke:none;"/>
  </g>
</mask>
<clipPath id="clip45">
  <path d="M 0.675781 0.597656 L 54.347656 0.597656 L 54.347656 54.335938 L 0.675781 54.335938 Z M 0.675781 0.597656 "/>
</clipPath>
<clipPath id="clip46">
  <path d="M -251.898438 -357.007812 C -251.898438 -120.691406 -60.328125 70.882812 175.992188 70.882812 C 412.308594 70.882812 603.882812 -120.691406 603.882812 -357.007812 C 603.882812 -593.328125 412.308594 -784.898438 175.992188 -784.898438 C -60.328125 -784.898438 -251.898438 -593.328125 -251.898438 -357.007812 "/>
</clipPath>
<clipPath id="clip44">
  <rect x="0" y="0" width="55" height="55"/>
</clipPath>
<g id="surface8" clip-path="url(#clip44)">
<g clip-path="url(#clip45)" clip-rule="nonzero">
<g clip-path="url(#clip46)" clip-rule="nonzero">
<path style=" stroke:none;fill-rule:nonzero;fill:rgb(0%,0%,0%);fill-opacity:1;" d="M 21.894531 0.597656 C 15.734375 16.097656 8.273438 34.988281 0.671875 54.289062 C 24.246094 55.382812 46.667969 37.234375 54.34375 9.851562 C 41.0625 6.644531 29.886719 3.464844 21.894531 0.597656 "/>
</g>
</g>
</g>
<clipPath id="clip47">
  <path d="M 558 842 L 610 842 L 610 884 L 558 884 Z M 558 842 "/>
</clipPath>
<clipPath id="clip48">
  <path d="M 28.101562 455.992188 C 28.101562 692.308594 219.671875 883.882812 455.992188 883.882812 C 692.308594 883.882812 883.882812 692.308594 883.882812 455.992188 C 883.882812 219.671875 692.308594 28.101562 455.992188 28.101562 C 219.671875 28.101562 28.101562 219.671875 28.101562 455.992188 "/>
</clipPath>
<mask id="mask2">
  <g filter="url(#alpha)">
<rect x="0" y="0" width="911.983" height="911.983" style="fill:rgb(0%,0%,0%);fill-opacity:0.5;stroke:none;"/>
  </g>
</mask>
<clipPath id="clip50">
  <path d="M 0.839844 0.265625 L 51.847656 0.265625 L 51.847656 42 L 0.839844 42 Z M 0.839844 0.265625 "/>
</clipPath>
<clipPath id="clip51">
  <path d="M -529.898438 -386.007812 C -529.898438 -149.691406 -338.328125 41.882812 -102.007812 41.882812 C 134.308594 41.882812 325.882812 -149.691406 325.882812 -386.007812 C 325.882812 -622.328125 134.308594 -813.898438 -102.007812 -813.898438 C -338.328125 -813.898438 -529.898438 -622.328125 -529.898438 -386.007812 "/>
</clipPath>
<clipPath id="clip49">
  <rect x="0" y="0" width="52" height="42"/>
</clipPath>
<g id="surface11" clip-path="url(#clip49)">
<g clip-path="url(#clip50)" clip-rule="nonzero">
<g clip-path="url(#clip51)" clip-rule="nonzero">
<path style=" stroke:none;fill-rule:nonzero;fill:rgb(0%,0%,0%);fill-opacity:1;" d="M 38.953125 0.265625 C 27.710938 1.875 12.972656 3.109375 0.839844 3.78125 C 3.496094 32.394531 27.671875 53.578125 51.84375 51.703125 C 47.785156 35.152344 43.652344 18.382812 38.953125 0.265625 "/>
</g>
</g>
</g>
<clipPath id="clip52">
  <path d="M 408 428 L 558 428 L 558 563 L 408 563 Z M 408 428 "/>
</clipPath>
<clipPath id="clip53">
  <path d="M 28.101562 455.992188 C 28.101562 692.308594 219.671875 883.882812 455.992188 883.882812 C 692.308594 883.882812 883.882812 692.308594 883.882812 455.992188 C 883.882812 219.671875 692.308594 28.101562 455.992188 28.101562 C 219.671875 28.101562 28.101562 219.671875 28.101562 455.992188 "/>
</clipPath>
<mask id="mask3">
  <g filter="url(#alpha)">
<rect x="0" y="0" width="911.983" height="911.983" style="fill:rgb(0%,0%,0%);fill-opacity:0.190002;stroke:none;"/>
  </g>
</mask>
<clipPath id="clip55">
  <path d="M 0.390625 0.445312 L 149.367188 0.445312 L 149.367188 134.476562 L 0.390625 134.476562 Z M 0.390625 0.445312 "/>
</clipPath>
<clipPath id="clip56">
  <path d="M -379.898438 27.992188 C -379.898438 264.308594 -188.328125 455.882812 47.992188 455.882812 C 284.308594 455.882812 475.882812 264.308594 475.882812 27.992188 C 475.882812 -208.328125 284.308594 -399.898438 47.992188 -399.898438 C -188.328125 -399.898438 -379.898438 -208.328125 -379.898438 27.992188 "/>
</clipPath>
<clipPath id="clip54">
  <rect x="0" y="0" width="150" height="135"/>
</clipPath>
<g id="surface14" clip-path="url(#clip54)">
<g clip-path="url(#clip55)" clip-rule="nonzero">
<g clip-path="url(#clip56)" clip-rule="nonzero">
<path style=" stroke:none;fill-rule:nonzero;fill:rgb(37.599182%,9.399414%,1.998901%);fill-opacity:1;" d="M 149.371094 67.460938 C 149.371094 104.472656 116.019531 134.476562 74.878906 134.476562 C 33.742188 134.476562 0.390625 104.472656 0.390625 67.460938 C 0.390625 30.445312 33.742188 0.445312 74.878906 0.445312 C 116.019531 0.445312 149.371094 30.445312 149.371094 67.460938 "/>
</g>
</g>
</g>
<clipPath id="clip57">
  <path d="M 508 747 L 634 747 L 634 830 L 508 830 Z M 508 747 "/>
</clipPath>
<clipPath id="clip58">
  <path d="M 28.101562 455.992188 C 28.101562 692.308594 219.671875 883.882812 455.992188 883.882812 C 692.308594 883.882812 883.882812 692.308594 883.882812 455.992188 C 883.882812 219.671875 692.308594 28.101562 455.992188 28.101562 C 219.671875 28.101562 28.101562 219.671875 28.101562 455.992188 "/>
</clipPath>
<clipPath id="clip59">
  <path d="M 251 283 L 375 283 L 375 443 L 251 443 Z M 251 283 "/>
</clipPath>
<clipPath id="clip60">
  <path d="M 28.101562 455.992188 C 28.101562 692.308594 219.671875 883.882812 455.992188 883.882812 C 692.308594 883.882812 883.882812 692.308594 883.882812 455.992188 C 883.882812 219.671875 692.308594 28.101562 455.992188 28.101562 C 219.671875 28.101562 28.101562 219.671875 28.101562 455.992188 "/>
</clipPath>
<clipPath id="clip61">
  <path d="M 290 343 L 352 343 L 352 414 L 290 414 Z M 290 343 "/>
</clipPath>
<clipPath id="clip62">
  <path d="M 28.101562 455.992188 C 28.101562 692.308594 219.671875 883.882812 455.992188 883.882812 C 692.308594 883.882812 883.882812 692.308594 883.882812 455.992188 C 883.882812 219.671875 692.308594 28.101562 455.992188 28.101562 C 219.671875 28.101562 28.101562 219.671875 28.101562 455.992188 "/>
</clipPath>
<clipPath id="clip63">
  <path d="M 609 347 L 745 347 L 745 500 L 609 500 Z M 609 347 "/>
</clipPath>
<clipPath id="clip64">
  <path d="M 28.101562 455.992188 C 28.101562 692.308594 219.671875 883.882812 455.992188 883.882812 C 692.308594 883.882812 883.882812 692.308594 883.882812 455.992188 C 883.882812 219.671875 692.308594 28.101562 455.992188 28.101562 C 219.671875 28.101562 28.101562 219.671875 28.101562 455.992188 "/>
</clipPath>
<clipPath id="clip65">
  <path d="M 632 402 L 695 402 L 695 472 L 632 472 Z M 632 402 "/>
</clipPath>
<clipPath id="clip66">
  <path d="M 28.101562 455.992188 C 28.101562 692.308594 219.671875 883.882812 455.992188 883.882812 C 692.308594 883.882812 883.882812 692.308594 883.882812 455.992188 C 883.882812 219.671875 692.308594 28.101562 455.992188 28.101562 C 219.671875 28.101562 28.101562 219.671875 28.101562 455.992188 "/>
</clipPath>
<clipPath id="clip67">
  <path d="M 283 71 L 747 71 L 747 477 L 283 477 Z M 283 71 "/>
</clipPath>
<clipPath id="clip68">
  <path d="M 28.101562 455.992188 C 28.101562 692.308594 219.671875 883.882812 455.992188 883.882812 C 692.308594 883.882812 883.882812 692.308594 883.882812 455.992188 C 883.882812 219.671875 692.308594 28.101562 455.992188 28.101562 C 219.671875 28.101562 28.101562 219.671875 28.101562 455.992188 "/>
</clipPath>
<clipPath id="clip69">
  <path d="M 324 124 L 706 124 L 706 535 L 324 535 Z M 324 124 "/>
</clipPath>
<clipPath id="clip70">
  <path d="M 28.101562 455.992188 C 28.101562 692.308594 219.671875 883.882812 455.992188 883.882812 C 692.308594 883.882812 883.882812 692.308594 883.882812 455.992188 C 883.882812 219.671875 692.308594 28.101562 455.992188 28.101562 C 219.671875 28.101562 28.101562 219.671875 28.101562 455.992188 "/>
</clipPath>
<clipPath id="clip71">
  <path d="M 348 369 L 401 369 L 401 403 L 348 403 Z M 348 369 "/>
</clipPath>
<clipPath id="clip72">
  <path d="M 28.101562 455.992188 C 28.101562 692.308594 219.671875 883.882812 455.992188 883.882812 C 692.308594 883.882812 883.882812 692.308594 883.882812 455.992188 C 883.882812 219.671875 692.308594 28.101562 455.992188 28.101562 C 219.671875 28.101562 28.101562 219.671875 28.101562 455.992188 "/>
</clipPath>
<clipPath id="clip73">
  <path d="M 591 405 L 645 405 L 645 437 L 591 437 Z M 591 405 "/>
</clipPath>
<clipPath id="clip74">
  <path d="M 28.101562 455.992188 C 28.101562 692.308594 219.671875 883.882812 455.992188 883.882812 C 692.308594 883.882812 883.882812 692.308594 883.882812 455.992188 C 883.882812 219.671875 692.308594 28.101562 455.992188 28.101562 C 219.671875 28.101562 28.101562 219.671875 28.101562 455.992188 "/>
</clipPath>
<clipPath id="clip75">
  <path d="M 423 405 L 561 405 L 561 484 L 423 484 Z M 423 405 "/>
</clipPath>
<clipPath id="clip76">
  <path d="M 28.101562 455.992188 C 28.101562 692.308594 219.671875 883.882812 455.992188 883.882812 C 692.308594 883.882812 883.882812 692.308594 883.882812 455.992188 C 883.882812 219.671875 692.308594 28.101562 455.992188 28.101562 C 219.671875 28.101562 28.101562 219.671875 28.101562 455.992188 "/>
</clipPath>
<clipPath id="clip77">
  <path d="M 448 458 L 523 458 L 523 484 L 448 484 Z M 448 458 "/>
</clipPath>
<clipPath id="clip78">
  <path d="M 28.101562 455.992188 C 28.101562 692.308594 219.671875 883.882812 455.992188 883.882812 C 692.308594 883.882812 883.882812 692.308594 883.882812 455.992188 C 883.882812 219.671875 692.308594 28.101562 455.992188 28.101562 C 219.671875 28.101562 28.101562 219.671875 28.101562 455.992188 "/>
</clipPath>
<clipPath id="clip79">
  <path d="M 444 404 L 545 404 L 545 433 L 444 433 Z M 444 404 "/>
</clipPath>
<clipPath id="clip80">
  <path d="M 28.101562 455.992188 C 28.101562 692.308594 219.671875 883.882812 455.992188 883.882812 C 692.308594 883.882812 883.882812 692.308594 883.882812 455.992188 C 883.882812 219.671875 692.308594 28.101562 455.992188 28.101562 C 219.671875 28.101562 28.101562 219.671875 28.101562 455.992188 "/>
</clipPath>
<clipPath id="clip81">
  <path d="M 478 380 L 515 380 L 515 401 L 478 401 Z M 478 380 "/>
</clipPath>
<clipPath id="clip82">
  <path d="M 28.101562 455.992188 C 28.101562 692.308594 219.671875 883.882812 455.992188 883.882812 C 692.308594 883.882812 883.882812 692.308594 883.882812 455.992188 C 883.882812 219.671875 692.308594 28.101562 455.992188 28.101562 C 219.671875 28.101562 28.101562 219.671875 28.101562 455.992188 "/>
</clipPath>
<clipPath id="clip83">
  <path d="M 584 245 L 660 245 L 660 285 L 584 285 Z M 584 245 "/>
</clipPath>
<clipPath id="clip84">
  <path d="M 28.101562 455.992188 C 28.101562 692.308594 219.671875 883.882812 455.992188 883.882812 C 692.308594 883.882812 883.882812 692.308594 883.882812 455.992188 C 883.882812 219.671875 692.308594 28.101562 455.992188 28.101562 C 219.671875 28.101562 28.101562 219.671875 28.101562 455.992188 "/>
</clipPath>
<clipPath id="clip85">
  <path d="M 372 224 L 453 224 L 453 249 L 372 249 Z M 372 224 "/>
</clipPath>
<clipPath id="clip86">
  <path d="M 28.101562 455.992188 C 28.101562 692.308594 219.671875 883.882812 455.992188 883.882812 C 692.308594 883.882812 883.882812 692.308594 883.882812 455.992188 C 883.882812 219.671875 692.308594 28.101562 455.992188 28.101562 C 219.671875 28.101562 28.101562 219.671875 28.101562 455.992188 "/>
</clipPath>
<clipPath id="clip87">
  <path d="M 272 61 L 744 61 L 744 385 L 272 385 Z M 272 61 "/>
</clipPath>
<clipPath id="clip88">
  <path d="M 28.101562 455.992188 C 28.101562 692.308594 219.671875 883.882812 455.992188 883.882812 C 692.308594 883.882812 883.882812 692.308594 883.882812 455.992188 C 883.882812 219.671875 692.308594 28.101562 455.992188 28.101562 C 219.671875 28.101562 28.101562 219.671875 28.101562 455.992188 "/>
</clipPath>
<clipPath id="clip89">
  <path d="M 538 315 L 638 315 L 638 402 L 538 402 Z M 538 315 "/>
</clipPath>
<clipPath id="clip90">
  <path d="M 28.101562 455.992188 C 28.101562 692.308594 219.671875 883.882812 455.992188 883.882812 C 692.308594 883.882812 883.882812 692.308594 883.882812 455.992188 C 883.882812 219.671875 692.308594 28.101562 455.992188 28.101562 C 219.671875 28.101562 28.101562 219.671875 28.101562 455.992188 "/>
</clipPath>
<clipPath id="clip91">
  <path d="M 552 312 L 641 312 L 641 394 L 552 394 Z M 552 312 "/>
</clipPath>
<clipPath id="clip92">
  <path d="M 28.101562 455.992188 C 28.101562 692.308594 219.671875 883.882812 455.992188 883.882812 C 692.308594 883.882812 883.882812 692.308594 883.882812 455.992188 C 883.882812 219.671875 692.308594 28.101562 455.992188 28.101562 C 219.671875 28.101562 28.101562 219.671875 28.101562 455.992188 "/>
</clipPath>
<clipPath id="clip93">
  <path d="M 552 332 L 609 332 L 609 389 L 552 389 Z M 552 332 "/>
</clipPath>
<clipPath id="clip94">
  <path d="M 28.101562 455.992188 C 28.101562 692.308594 219.671875 883.882812 455.992188 883.882812 C 692.308594 883.882812 883.882812 692.308594 883.882812 455.992188 C 883.882812 219.671875 692.308594 28.101562 455.992188 28.101562 C 219.671875 28.101562 28.101562 219.671875 28.101562 455.992188 "/>
</clipPath>
<clipPath id="clip95">
  <path d="M 558 340 L 574 340 L 574 356 L 558 356 Z M 558 340 "/>
</clipPath>
<clipPath id="clip96">
  <path d="M 28.101562 455.992188 C 28.101562 692.308594 219.671875 883.882812 455.992188 883.882812 C 692.308594 883.882812 883.882812 692.308594 883.882812 455.992188 C 883.882812 219.671875 692.308594 28.101562 455.992188 28.101562 C 219.671875 28.101562 28.101562 219.671875 28.101562 455.992188 "/>
</clipPath>
<clipPath id="clip97">
  <path d="M 364 288 L 463 288 L 463 375 L 364 375 Z M 364 288 "/>
</clipPath>
<clipPath id="clip98">
  <path d="M 28.101562 455.992188 C 28.101562 692.308594 219.671875 883.882812 455.992188 883.882812 C 692.308594 883.882812 883.882812 692.308594 883.882812 455.992188 C 883.882812 219.671875 692.308594 28.101562 455.992188 28.101562 C 219.671875 28.101562 28.101562 219.671875 28.101562 455.992188 "/>
</clipPath>
<clipPath id="clip99">
  <path d="M 363 284 L 457 284 L 457 356 L 363 356 Z M 363 284 "/>
</clipPath>
<clipPath id="clip100">
  <path d="M 28.101562 455.992188 C 28.101562 692.308594 219.671875 883.882812 455.992188 883.882812 C 692.308594 883.882812 883.882812 692.308594 883.882812 455.992188 C 883.882812 219.671875 692.308594 28.101562 455.992188 28.101562 C 219.671875 28.101562 28.101562 219.671875 28.101562 455.992188 "/>
</clipPath>
<clipPath id="clip101">
  <path d="M 393 307 L 450 307 L 450 365 L 393 365 Z M 393 307 "/>
</clipPath>
<clipPath id="clip102">
  <path d="M 28.101562 455.992188 C 28.101562 692.308594 219.671875 883.882812 455.992188 883.882812 C 692.308594 883.882812 883.882812 692.308594 883.882812 455.992188 C 883.882812 219.671875 692.308594 28.101562 455.992188 28.101562 C 219.671875 28.101562 28.101562 219.671875 28.101562 455.992188 "/>
</clipPath>
<clipPath id="clip103">
  <path d="M 398 315 L 415 315 L 415 332 L 398 332 Z M 398 315 "/>
</clipPath>
<clipPath id="clip104">
  <path d="M 28.101562 455.992188 C 28.101562 692.308594 219.671875 883.882812 455.992188 883.882812 C 692.308594 883.882812 883.882812 692.308594 883.882812 455.992188 C 883.882812 219.671875 692.308594 28.101562 455.992188 28.101562 C 219.671875 28.101562 28.101562 219.671875 28.101562 455.992188 "/>
</clipPath>
<clipPath id="clip105">
  <path d="M 303 70 L 735 70 L 735 264 L 303 264 Z M 303 70 "/>
</clipPath>
<clipPath id="clip106">
  <path d="M 28.101562 455.992188 C 28.101562 692.308594 219.671875 883.882812 455.992188 883.882812 C 692.308594 883.882812 883.882812 692.308594 883.882812 455.992188 C 883.882812 219.671875 692.308594 28.101562 455.992188 28.101562 C 219.671875 28.101562 28.101562 219.671875 28.101562 455.992188 "/>
</clipPath>
</defs>
<g id="surface1">
<path style=" stroke:none;fill-rule:nonzero;fill:rgb(100%,100%,100%);fill-opacity:1;" d="M 911.984375 455.992188 C 911.984375 707.828125 707.828125 911.984375 455.992188 911.984375 C 204.15625 911.984375 0 707.828125 0 455.992188 C 0 204.15625 204.15625 0 455.992188 0 C 707.828125 0 911.984375 204.15625 911.984375 455.992188 "/>
<g clip-path="url(#clip1)" clip-rule="nonzero">
<g clip-path="url(#clip2)" clip-rule="nonzero">
<path style=" stroke:none;fill-rule:nonzero;fill:rgb(67.799377%,36.099243%,28.599548%);fill-opacity:1;" d="M 271.230469 620.105469 C 225.710938 506.855469 233.898438 374.929688 293.078125 196.792969 L 294.082031 202.054688 C 294.933594 198.820312 295.726562 195.648438 296.613281 192.371094 L 736.851562 204.710938 C 737.511719 207.949219 738.144531 211.089844 738.792969 214.289062 L 743.648438 211.257812 C 798.910156 393.558594 803.535156 502.789062 799.164062 571.140625 C 797.457031 538.480469 793.726562 423.960938 747.8125 259.210938 C 788.980469 467.175781 802.175781 580.675781 760.859375 615.777344 C 787.113281 571.140625 765.28125 447.257812 758.800781 431.632812 C 758.777344 476.1875 765.355469 561.308594 741.382812 626.046875 C 633.933594 685.355469 386.867188 675.273438 324.773438 639.515625 C 322.023438 634.199219 314.363281 509.136719 312.632812 491.835938 C 309.042969 497.800781 311.578125 633.757812 310.175781 639.410156 C 271.882812 603.605469 236.285156 493.570312 273.332031 293.9375 C 239.492188 430.226562 250.882812 532.199219 271.230469 620.105469 "/>
</g>
</g>
<g clip-path="url(#clip3)" clip-rule="nonzero">
<g clip-path="url(#clip4)" clip-rule="nonzero">
<path style=" stroke:none;fill-rule:nonzero;fill:rgb(100%,75.698853%,62.399292%);fill-opacity:1;" d="M 144.914062 470.140625 C 139.40625 466.363281 171.816406 421.683594 177.566406 425.121094 C 263.503906 476.53125 374.722656 534.597656 398.5 544.984375 L 358.160156 605.015625 C 309.171875 574.449219 217.671875 520.023438 144.914062 470.140625 "/>
</g>
</g>
<g clip-path="url(#clip5)" clip-rule="nonzero">
<g clip-path="url(#clip6)" clip-rule="nonzero">
<path style=" stroke:none;fill-rule:nonzero;fill:rgb(98.799133%,25.898743%,45.098877%);fill-opacity:1;" d="M 298 486.222656 C 285.941406 507.085938 265.625 555.515625 254.550781 577.921875 C 300.675781 604.542969 339.429688 623.753906 343.316406 623.570312 C 383.808594 621.613281 417.746094 545.503906 421.105469 541.480469 C 396.371094 531.910156 343.671875 510.835938 298 486.222656 "/>
</g>
</g>
<g clip-path="url(#clip7)" clip-rule="nonzero">
<g clip-path="url(#clip8)" clip-rule="nonzero">
<path style=" stroke:none;fill-rule:nonzero;fill:rgb(100%,75.698853%,62.399292%);fill-opacity:1;" d="M 102.21875 449.777344 C 100.1875 453.082031 94.242188 453.945312 85.015625 455.605469 C 77.027344 457.046875 64.976562 458.835938 60.679688 463.238281 C 56.09375 467.933594 61.085938 472.585938 70.457031 474.1875 C 85.929688 476.832031 121.097656 481.53125 138.714844 482.613281 C 168.617188 486.378906 198.335938 465.875 200.992188 437.707031 C 204.980469 395.46875 203.945312 378.835938 205.441406 352.789062 C 205.8125 346.371094 192.296875 351.257812 188.488281 359.195312 C 180.324219 376.1875 183.03125 382.617188 178.144531 390.988281 C 173.375 399.152344 166.007812 396.625 158.972656 390.820312 C 133.058594 352.933594 122.210938 328.355469 108.449219 330.148438 C 97.34375 333.421875 111.6875 361.945312 129.328125 393.363281 C 98.769531 368.894531 72.25 351.800781 67.109375 360.710938 C 61.027344 371.253906 86.953125 392.859375 108.824219 414.609375 C 79.101562 411.691406 49.128906 400.191406 47.585938 415.757812 C 46.460938 427.132812 107.9375 440.472656 102.21875 449.777344 "/>
</g>
</g>
<g clip-path="url(#clip9)" clip-rule="nonzero">
<g clip-path="url(#clip10)" clip-rule="nonzero">
<path style=" stroke:none;fill-rule:nonzero;fill:rgb(100%,75.698853%,62.399292%);fill-opacity:1;" d="M 628.773438 815.140625 C 626.027344 818.269531 587.8125 788.472656 590.296875 785.128906 C 627.453125 735.15625 677.164062 648.976562 685.542969 633.339844 C 685.542969 633.339844 722.75 662.054688 721.617188 695.707031 C 720.71875 722.503906 665.023438 773.8125 628.773438 815.140625 "/>
</g>
</g>
<g clip-path="url(#clip11)" clip-rule="nonzero">
<g clip-path="url(#clip12)" clip-rule="nonzero">
<path style=" stroke:none;fill-rule:nonzero;fill:rgb(98.799133%,25.898743%,45.098877%);fill-opacity:1;" d="M 696.378906 637.84375 C 681.355469 657.472656 653.5 698.449219 636.125 714.917969 C 618.46875 706.710938 583.871094 690.085938 580.714844 688.375 C 552.972656 648.070312 540.609375 553.921875 539.921875 551.574219 C 573.570312 557.121094 589.023438 558.675781 598.695312 562.398438 C 619.863281 577.78125 660.34375 609.550781 696.378906 637.84375 "/>
</g>
</g>
<g clip-path="url(#clip13)" clip-rule="nonzero">
<g clip-path="url(#clip14)" clip-rule="nonzero">
<path style=" stroke:none;fill-rule:nonzero;fill:rgb(98.799133%,25.898743%,45.098877%);fill-opacity:1;" d="M 593.835938 854.476562 C 502.414062 880.765625 381.246094 862.027344 303.296875 825.230469 C 314.734375 787.367188 346.410156 578.519531 357.546875 529.078125 C 410.0625 536.988281 532.019531 547.792969 587.058594 560.316406 C 591.167969 632.171875 589.71875 754.652344 593.835938 854.476562 "/>
</g>
</g>
<g clip-path="url(#clip15)" clip-rule="nonzero">
<g clip-path="url(#clip16)" clip-rule="nonzero">
<path style=" stroke:none;fill-rule:nonzero;fill:rgb(100%,75.698853%,62.399292%);fill-opacity:1;" d="M 400.253906 552.703125 C 400.375 548.929688 404.417969 537.757812 405.59375 534.257812 C 444.292969 541.828125 497.800781 545.992188 538.910156 552.445312 C 539.101562 554.09375 539.675781 555.660156 539.625 557.347656 C 538.707031 586.535156 506.421875 609.199219 467.515625 607.972656 C 428.609375 606.75 399.335938 581.886719 400.253906 552.703125 "/>
</g>
</g>
<g clip-path="url(#clip17)" clip-rule="nonzero">
<g clip-path="url(#clip18)" clip-rule="nonzero">
<path style=" stroke:none;fill-rule:nonzero;fill:rgb(100%,75.698853%,62.399292%);fill-opacity:1;" d="M 430.398438 471.582031 L 421.589844 553.5 C 419.691406 571.113281 440.542969 587.804688 468.160156 590.777344 C 495.777344 593.746094 519.699219 581.871094 521.597656 564.257812 L 530.410156 482.339844 Z M 430.398438 471.582031 "/>
</g>
</g>
<g clip-path="url(#clip19)" clip-rule="nonzero">
<g clip-path="url(#clip20)" clip-rule="nonzero">
<path style=" stroke:none;fill-rule:nonzero;fill:rgb(13.299561%,28.599548%,39.99939%);fill-opacity:1;" d="M 558.539062 855.113281 C 531.789062 858.722656 365.507812 835.84375 333.035156 831.652344 C 333.035156 831.652344 356.617188 696.027344 364.285156 625.375 C 405.019531 627.730469 525.082031 637.609375 560.75 642.433594 C 560.089844 684.648438 559.785156 753.375 558.539062 855.113281 "/>
</g>
</g>
<g clip-path="url(#clip21)" clip-rule="nonzero">
<g clip-path="url(#clip22)" clip-rule="nonzero">
<path style=" stroke:none;fill-rule:nonzero;fill:rgb(72.898865%,92.199707%,95.698547%);fill-opacity:1;" d="M 391.246094 619.238281 C 391.328125 618.152344 392.300781 617.320312 393.382812 617.402344 L 400.761719 617.964844 L 401.5 608.261719 L 375.441406 606.28125 L 374.703125 615.980469 L 380.5625 616.425781 C 381.644531 616.511719 382.476562 617.480469 382.394531 618.5625 L 380.804688 639.464844 L 389.652344 640.136719 Z M 376.683594 641.148438 L 378.269531 620.246094 L 372.414062 619.804688 C 371.332031 619.722656 370.496094 618.75 370.578125 617.664062 L 371.617188 603.992188 C 371.703125 602.90625 372.675781 602.074219 373.757812 602.15625 L 403.785156 604.441406 C 404.871094 604.523438 405.707031 605.496094 405.625 606.578125 L 404.582031 620.253906 C 404.5 621.335938 403.53125 622.171875 402.445312 622.089844 L 395.066406 621.527344 L 393.476562 642.425781 C 393.394531 643.511719 392.421875 644.34375 391.339844 644.261719 L 378.515625 643.285156 C 377.433594 643.203125 376.597656 642.230469 376.683594 641.148438 "/>
</g>
</g>
<g clip-path="url(#clip23)" clip-rule="nonzero">
<g clip-path="url(#clip24)" clip-rule="nonzero">
<path style=" stroke:none;fill-rule:nonzero;fill:rgb(13.299561%,28.599548%,39.99939%);fill-opacity:1;" d="M 399.742188 609.210938 C 400.078125 607.011719 403.003906 552.578125 406.683594 533.445312 L 384.738281 526.039062 C 379.3125 551.417969 376.789062 605.101562 376.433594 607.433594 Z M 399.742188 609.210938 "/>
</g>
</g>
<g clip-path="url(#clip25)" clip-rule="nonzero">
<g clip-path="url(#clip26)" clip-rule="nonzero">
<path style=" stroke:none;fill-rule:nonzero;fill:rgb(94.099426%,98.799133%,100%);fill-opacity:1;" d="M 393.648438 642.957031 C 392.457031 647.925781 387.472656 650.996094 382.507812 649.8125 C 377.542969 648.625 374.484375 643.636719 375.671875 638.664062 C 376.859375 633.691406 381.847656 630.621094 386.8125 631.808594 C 391.773438 632.992188 394.835938 637.984375 393.648438 642.957031 "/>
</g>
</g>
<g clip-path="url(#clip27)" clip-rule="nonzero">
<g clip-path="url(#clip28)" clip-rule="nonzero">
<path style=" stroke:none;fill-rule:nonzero;fill:rgb(72.898865%,92.199707%,95.698547%);fill-opacity:1;" d="M 537.960938 651.878906 L 546.804688 652.605469 L 548.523438 631.71875 C 548.609375 630.636719 549.585938 629.808594 550.671875 629.894531 L 556.527344 630.378906 L 557.324219 620.679688 L 531.277344 618.539062 L 530.480469 628.234375 L 537.855469 628.84375 C 538.9375 628.929688 539.765625 629.90625 539.679688 630.992188 Z M 548.460938 656.742188 L 535.644531 655.6875 C 534.5625 655.59375 533.734375 654.617188 533.824219 653.535156 L 535.542969 632.648438 L 528.167969 632.042969 C 527.085938 631.953125 526.253906 630.976562 526.347656 629.894531 L 527.46875 616.226562 C 527.558594 615.144531 528.535156 614.316406 529.621094 614.40625 L 559.636719 616.875 C 560.71875 616.960938 561.546875 617.941406 561.457031 619.023438 L 560.332031 632.691406 C 560.242188 633.773438 559.269531 634.601562 558.183594 634.511719 L 552.332031 634.03125 L 550.613281 654.917969 C 550.523438 656 549.546875 656.828125 548.460938 656.742188 "/>
</g>
</g>
<g clip-path="url(#clip29)" clip-rule="nonzero">
<g clip-path="url(#clip30)" clip-rule="nonzero">
<path style=" stroke:none;fill-rule:nonzero;fill:rgb(13.299561%,28.599548%,39.99939%);fill-opacity:1;" d="M 532.863281 619.75 C 532.878906 617.523438 537.867188 570.890625 538.292969 550.589844 L 560.808594 553.574219 C 560.953125 579.753906 556.175781 619.308594 556.164062 621.664062 Z M 532.863281 619.75 "/>
</g>
</g>
<g clip-path="url(#clip31)" clip-rule="nonzero">
<g clip-path="url(#clip32)" clip-rule="nonzero">
<path style=" stroke:none;fill-rule:nonzero;fill:rgb(94.099426%,98.799133%,100%);fill-opacity:1;" d="M 533.574219 654.035156 C 533.964844 659.128906 538.40625 662.945312 543.496094 662.558594 C 548.582031 662.164062 552.390625 657.722656 552 652.621094 C 551.609375 647.527344 547.167969 643.710938 542.078125 644.101562 C 536.992188 644.492188 533.179688 648.9375 533.574219 654.035156 "/>
</g>
</g>
<g clip-path="url(#clip33)" clip-rule="nonzero">
<g clip-path="url(#clip34)" clip-rule="nonzero">
<use xlink:href="#surface5" transform="matrix(1,0,0,1,411,675)" mask="url(#mask0)"/>
</g>
</g>
<g clip-path="url(#clip38)" clip-rule="nonzero">
<g clip-path="url(#clip39)" clip-rule="nonzero">
<path style=" stroke:none;fill-rule:nonzero;fill:rgb(18.798828%,39.199829%,51.799011%);fill-opacity:1;" d="M 415.6875 740.089844 L 456.300781 754.367188 L 498.445312 743.527344 L 501.597656 681.890625 L 420.300781 676.929688 Z M 415.6875 740.089844 "/>
</g>
</g>
<g clip-path="url(#clip40)" clip-rule="nonzero">
<g clip-path="url(#clip41)" clip-rule="nonzero">
<path style=" stroke:none;fill-rule:nonzero;fill:rgb(13.299561%,28.599548%,39.99939%);fill-opacity:1;" d="M 596.953125 842.265625 C 494.972656 856.863281 348.011719 830.152344 301.894531 813.597656 C 279.03125 871.121094 238.386719 975.074219 238.386719 975.074219 C 323.664062 1045.597656 552.773438 1057.296875 638.890625 1005.132812 C 620.761719 942.039062 611.550781 898.53125 596.953125 842.265625 "/>
</g>
</g>
<g clip-path="url(#clip42)" clip-rule="nonzero">
<g clip-path="url(#clip43)" clip-rule="nonzero">
<use xlink:href="#surface8" transform="matrix(1,0,0,1,280,813)" mask="url(#mask1)"/>
</g>
</g>
<g clip-path="url(#clip47)" clip-rule="nonzero">
<g clip-path="url(#clip48)" clip-rule="nonzero">
<use xlink:href="#surface11" transform="matrix(1,0,0,1,558,842)" mask="url(#mask2)"/>
</g>
</g>
<g clip-path="url(#clip52)" clip-rule="nonzero">
<g clip-path="url(#clip53)" clip-rule="nonzero">
<use xlink:href="#surface14" transform="matrix(1,0,0,1,408,428)" mask="url(#mask3)"/>
</g>
</g>
<g clip-path="url(#clip57)" clip-rule="nonzero">
<g clip-path="url(#clip58)" clip-rule="nonzero">
<path style=" stroke:none;fill-rule:nonzero;fill:rgb(100%,75.698853%,62.399292%);fill-opacity:1;" d="M 521.507812 763.074219 C 530.523438 765.722656 549.722656 761.261719 559.128906 765.210938 C 559.128906 765.210938 559.671875 765.589844 559.96875 765.933594 C 540.402344 766.953125 524.109375 775.0625 508.621094 779.019531 C 503.664062 800.398438 532.074219 786.988281 561.660156 782.882812 C 544.113281 788.019531 532.953125 793.5625 520.796875 796.519531 C 511.460938 805.363281 515.585938 811.886719 527.925781 810.191406 C 537.464844 808.886719 554.097656 803.644531 571.304688 800.851562 C 572.824219 801.277344 535.878906 816.472656 532.335938 824.707031 C 533.460938 829.019531 541 831.90625 552.3125 827.273438 C 558.429688 824.765625 564.804688 820.691406 578.84375 816.902344 C 590.886719 818.335938 601.207031 825.328125 605.996094 827.25 C 624.054688 832.113281 633.394531 807.480469 633.582031 802.257812 C 634.066406 788.679688 610.300781 762.363281 595.476562 757.140625 C 570.628906 748.382812 558.375 743.3125 518.078125 752.269531 C 510.953125 756.597656 517.121094 761.785156 521.507812 763.074219 "/>
</g>
</g>
<g clip-path="url(#clip59)" clip-rule="nonzero">
<g clip-path="url(#clip60)" clip-rule="nonzero">
<path style=" stroke:none;fill-rule:nonzero;fill:rgb(100%,75.698853%,62.399292%);fill-opacity:1;" d="M 251.519531 360.226562 C 255.804688 406.734375 294.582031 441.859375 327.902344 442.847656 C 361.222656 443.832031 373.488281 408.257812 374.796875 364.339844 C 376.09375 320.421875 350.140625 283.90625 316.8125 283.03125 C 271.261719 281.835938 247.496094 316.515625 251.519531 360.226562 "/>
</g>
</g>
<g clip-path="url(#clip61)" clip-rule="nonzero">
<g clip-path="url(#clip62)" clip-rule="nonzero">
<path style=" stroke:none;fill-rule:nonzero;fill:rgb(87.799072%,58.399963%,42.399597%);fill-opacity:1;" d="M 290.464844 377.800781 C 289.902344 397.054688 303.203125 413.074219 320.191406 413.582031 C 337.167969 414.082031 351.398438 398.878906 351.960938 379.621094 C 352.535156 360.363281 339.230469 344.347656 322.253906 343.84375 C 305.269531 343.339844 291.039062 358.542969 290.464844 377.800781 "/>
</g>
</g>
<g clip-path="url(#clip63)" clip-rule="nonzero">
<g clip-path="url(#clip64)" clip-rule="nonzero">
<path style=" stroke:none;fill-rule:nonzero;fill:rgb(100%,75.698853%,62.399292%);fill-opacity:1;" d="M 735.882812 443.707031 C 716.492188 486.195312 668.296875 506.558594 636.511719 496.492188 C 604.734375 486.429688 604.894531 448.800781 618.152344 406.910156 C 631.417969 365.019531 667.972656 339.117188 699.726562 349.289062 C 743.121094 363.195312 754.105469 403.773438 735.882812 443.707031 "/>
</g>
</g>
<g clip-path="url(#clip65)" clip-rule="nonzero">
<g clip-path="url(#clip66)" clip-rule="nonzero">
<path style=" stroke:none;fill-rule:nonzero;fill:rgb(87.799072%,58.399963%,42.399597%);fill-opacity:1;" d="M 692.648438 446.070312 C 686.832031 464.4375 668.984375 475.167969 652.792969 470.039062 C 636.597656 464.910156 628.179688 445.863281 633.996094 427.496094 C 639.8125 409.128906 657.652344 398.402344 673.851562 403.527344 C 690.046875 408.652344 698.464844 427.707031 692.648438 446.070312 "/>
</g>
</g>
<g clip-path="url(#clip67)" clip-rule="nonzero">
<g clip-path="url(#clip68)" clip-rule="nonzero">
<path style=" stroke:none;fill-rule:nonzero;fill:rgb(67.799377%,36.099243%,28.599548%);fill-opacity:1;" d="M 742.710938 297.585938 C 717.902344 443.746094 614.207031 493.785156 484.628906 471.785156 C 355.042969 449.789062 262.921875 366.585938 287.734375 220.425781 C 312.546875 74.261719 421.585938 57.78125 551.171875 79.78125 C 680.75 101.773438 767.523438 151.425781 742.710938 297.585938 "/>
</g>
</g>
<g clip-path="url(#clip69)" clip-rule="nonzero">
<g clip-path="url(#clip70)" clip-rule="nonzero">
<path style=" stroke:none;fill-rule:nonzero;fill:rgb(100%,75.698853%,62.399292%);fill-opacity:1;" d="M 704.925781 230.324219 C 711.828125 256.703125 667.820312 471.546875 637.738281 497.425781 C 605.832031 524.878906 493.0625 537.203125 470.453125 533.367188 C 446.234375 529.253906 345.503906 483.945312 330.988281 445.351562 C 313.8125 399.683594 335.664062 205.628906 347.277344 184.058594 C 386.53125 111.207031 454.207031 120.015625 542.144531 134.945312 C 624.417969 148.910156 687.03125 161.882812 704.925781 230.324219 "/>
</g>
</g>
<g clip-path="url(#clip71)" clip-rule="nonzero">
<g clip-path="url(#clip72)" clip-rule="nonzero">
<path style=" stroke:none;fill-rule:nonzero;fill:rgb(100%,59.199524%,59.199524%);fill-opacity:1;" d="M 348.242188 380.351562 C 346.453125 388.792969 356.730469 398.125 371.199219 401.191406 C 385.664062 404.257812 398.851562 399.90625 400.644531 391.464844 C 402.429688 383.027344 392.148438 373.695312 377.683594 370.628906 C 363.210938 367.558594 350.027344 371.914062 348.242188 380.351562 "/>
</g>
</g>
<g clip-path="url(#clip73)" clip-rule="nonzero">
<g clip-path="url(#clip74)" clip-rule="nonzero">
<path style=" stroke:none;fill-rule:nonzero;fill:rgb(100%,59.199524%,59.199524%);fill-opacity:1;" d="M 591.1875 419.429688 C 590.59375 428.039062 602.070312 435.84375 616.828125 436.863281 C 631.582031 437.878906 644.03125 431.730469 644.625 423.121094 C 645.21875 414.515625 633.734375 406.710938 618.980469 405.691406 C 604.222656 404.671875 591.78125 410.824219 591.1875 419.429688 "/>
</g>
</g>
<g clip-path="url(#clip75)" clip-rule="nonzero">
<g clip-path="url(#clip76)" clip-rule="nonzero">
<path style=" stroke:none;fill-rule:nonzero;fill:rgb(43.899536%,8.599854%,3.09906%);fill-opacity:1;" d="M 560.359375 433.011719 C 559.640625 417.976562 536.609375 418.558594 499.910156 413.074219 C 497.988281 412.789062 490.515625 411.71875 488.589844 411.457031 C 451.820312 406.464844 429.871094 399.46875 424.976562 413.703125 C 415.550781 441.117188 446.625 476.964844 483.917969 482.398438 L 484.5625 482.488281 C 521.886719 487.699219 561.746094 461.96875 560.359375 433.011719 "/>
</g>
</g>
<g clip-path="url(#clip77)" clip-rule="nonzero">
<g clip-path="url(#clip78)" clip-rule="nonzero">
<path style=" stroke:none;fill-rule:nonzero;fill:rgb(86.698914%,41.999817%,35.699463%);fill-opacity:1;" d="M 484.472656 483.078125 L 483.828125 482.984375 C 471.734375 481.214844 459.675781 475.992188 448.914062 467.910156 L 448.253906 467.429688 L 448.933594 466.980469 C 459.867188 459.671875 473.609375 456.746094 487.625 458.742188 C 501.621094 460.742188 513.996094 467.394531 522.472656 477.46875 L 522.996094 478.089844 L 522.230469 478.367188 C 509.617188 483.117188 496.558594 484.757812 484.472656 483.078125 "/>
</g>
</g>
<g clip-path="url(#clip79)" clip-rule="nonzero">
<g clip-path="url(#clip80)" clip-rule="nonzero">
<path style=" stroke:none;fill-rule:nonzero;fill:rgb(100%,100%,100%);fill-opacity:1;" d="M 491.574219 431.066406 C 465.902344 427.402344 445.667969 416.402344 444.5 405.457031 L 444.4375 404.789062 L 544.179688 419.015625 L 543.929688 419.640625 C 539.726562 429.816406 517.222656 434.726562 491.574219 431.066406 "/>
</g>
</g>
<g clip-path="url(#clip81)" clip-rule="nonzero">
<g clip-path="url(#clip82)" clip-rule="nonzero">
<path style=" stroke:none;fill-rule:nonzero;fill:rgb(76.899719%,45.098877%,35.699463%);fill-opacity:1;" d="M 512.195312 400.328125 C 511.222656 400.191406 510.464844 399.367188 510.4375 398.347656 C 510.277344 391.144531 505.355469 385.796875 497.90625 384.738281 C 490.414062 383.671875 484.058594 387.503906 482.085938 394.269531 C 481.765625 395.351562 480.625 395.976562 479.546875 395.660156 C 478.460938 395.34375 477.839844 394.207031 478.15625 393.121094 C 480.683594 384.457031 489.042969 379.339844 498.484375 380.683594 C 507.871094 382.023438 514.320312 389.082031 514.53125 398.253906 C 514.558594 399.386719 513.664062 400.320312 512.535156 400.347656 Z M 512.195312 400.328125 "/>
</g>
</g>
<g clip-path="url(#clip83)" clip-rule="nonzero">
<g clip-path="url(#clip84)" clip-rule="nonzero">
<path style=" stroke:none;fill-rule:nonzero;fill:rgb(45.899963%,16.099548%,7.099915%);fill-opacity:1;" d="M 651.824219 284.019531 C 650.492188 283.652344 649.292969 282.8125 648.492188 281.566406 C 638.257812 265.671875 613.382812 255.164062 590.578125 257.15625 C 587.410156 257.449219 584.585938 255.085938 584.296875 251.882812 C 584.019531 248.695312 586.378906 245.886719 589.570312 245.601562 C 616.777344 243.246094 645.671875 255.734375 658.242188 275.300781 C 659.972656 277.996094 659.195312 281.578125 656.5 283.308594 C 655.058594 284.242188 653.359375 284.445312 651.824219 284.019531 "/>
</g>
</g>
<g clip-path="url(#clip85)" clip-rule="nonzero">
<g clip-path="url(#clip86)" clip-rule="nonzero">
<path style=" stroke:none;fill-rule:nonzero;fill:rgb(45.899963%,16.099548%,7.099915%);fill-opacity:1;" d="M 378.089844 248.210938 C 376.5 248.128906 374.949219 247.402344 373.875 246.0625 C 371.859375 243.570312 372.25 239.925781 374.738281 237.914062 C 392.839844 223.289062 424.1875 220.53125 449.265625 231.3125 C 452.207031 232.585938 453.5625 235.992188 452.296875 238.933594 C 451.023438 241.882812 447.605469 243.238281 444.679688 241.964844 C 423.664062 232.898438 396.726562 235.027344 382.023438 246.925781 C 380.875 247.855469 379.472656 248.277344 378.089844 248.210938 "/>
</g>
</g>
<g clip-path="url(#clip87)" clip-rule="nonzero">
<g clip-path="url(#clip88)" clip-rule="nonzero">
<path style=" stroke:none;fill-rule:nonzero;fill:rgb(67.799377%,36.099243%,28.599548%);fill-opacity:1;" d="M 744 340.289062 C 719.679688 328.199219 720.09375 301.089844 723.542969 258.433594 C 738.5625 256.863281 733.703125 150.273438 665.949219 108.570312 C 577.316406 54.015625 456.957031 50.449219 401.539062 79.707031 C 342.53125 110.863281 326.5625 157.523438 309.707031 213.515625 C 296.019531 258.960938 310.082031 295.308594 272.125 318.359375 C 311.601562 324.902344 339.449219 295.742188 349.992188 267.113281 C 361.699219 235.320312 350.4375 203.191406 356.925781 190.949219 C 360.6875 183.867188 407.652344 156.578125 418.660156 157.488281 C 442.644531 159.464844 454.179688 229.898438 538.960938 238.035156 C 506.980469 215.304688 491.425781 186.488281 477.015625 146.28125 C 483.183594 151.089844 489.269531 156.773438 495.171875 163.515625 C 557.328125 234.503906 631.515625 259.75 691.804688 261.1875 C 686.972656 324.144531 654.726562 352.621094 727.398438 384.902344 C 721.558594 375.441406 714.582031 348.199219 715.5 327.394531 C 722.988281 333.429688 728.738281 350.894531 744 340.289062 "/>
</g>
</g>
<g clip-path="url(#clip89)" clip-rule="nonzero">
<g clip-path="url(#clip90)" clip-rule="nonzero">
<path style=" stroke:none;fill-rule:nonzero;fill:rgb(97.599792%,99.598694%,100%);fill-opacity:1;" d="M 553.242188 331.796875 C 536.164062 350.273438 534.65625 373.164062 545.765625 383.5625 C 562.503906 399.234375 605.980469 409.363281 625.097656 393.035156 C 643.609375 377.222656 640.683594 343.035156 616.808594 325.019531 C 595.902344 309.253906 569.769531 313.910156 553.242188 331.796875 "/>
</g>
</g>
<g clip-path="url(#clip91)" clip-rule="nonzero">
<g clip-path="url(#clip92)" clip-rule="nonzero">
<path style=" stroke:none;fill-rule:nonzero;fill:rgb(48.599243%,22.399902%,16.099548%);fill-opacity:1;" d="M 636.039062 338.03125 C 620.4375 303.242188 570.320312 306.933594 552.667969 332.425781 C 569.734375 313.953125 596.6875 311.503906 616.015625 326.070312 C 627.957031 335.082031 635.347656 349.097656 635.789062 363.558594 C 636.136719 375.089844 631.734375 387.320312 624.042969 393.890625 C 632.355469 390.078125 647.515625 363.613281 636.039062 338.03125 "/>
</g>
</g>
<g clip-path="url(#clip93)" clip-rule="nonzero">
<g clip-path="url(#clip94)" clip-rule="nonzero">
<path style=" stroke:none;fill-rule:nonzero;fill:rgb(38.798523%,9.799194%,5.099487%);fill-opacity:1;" d="M 556.476562 346.074219 C 548.644531 359.460938 553.140625 376.660156 566.523438 384.496094 C 579.910156 392.332031 597.113281 387.835938 604.949219 374.449219 C 612.78125 361.066406 608.285156 343.863281 594.898438 336.027344 C 581.515625 328.191406 564.316406 332.691406 556.476562 346.074219 "/>
</g>
</g>
<g clip-path="url(#clip95)" clip-rule="nonzero">
<g clip-path="url(#clip96)" clip-rule="nonzero">
<path style=" stroke:none;fill-rule:nonzero;fill:rgb(99.598694%,100%,99.598694%);fill-opacity:1;" d="M 559.097656 343.957031 C 556.925781 347.671875 558.171875 352.445312 561.886719 354.617188 C 565.601562 356.792969 570.371094 355.542969 572.546875 351.828125 C 574.71875 348.117188 573.472656 343.34375 569.757812 341.167969 C 566.042969 338.996094 561.273438 340.246094 559.097656 343.957031 "/>
</g>
</g>
<g clip-path="url(#clip97)" clip-rule="nonzero">
<g clip-path="url(#clip98)" clip-rule="nonzero">
<path style=" stroke:none;fill-rule:nonzero;fill:rgb(97.599792%,99.598694%,100%);fill-opacity:1;" d="M 456.253906 317.035156 C 467.070312 339.75 461.714844 362.054688 448.015625 368.683594 C 427.378906 378.679688 382.855469 375.433594 369.453125 354.164062 C 356.472656 333.5625 369.421875 301.789062 397.574219 291.679688 C 422.21875 282.832031 445.789062 295.046875 456.253906 317.035156 "/>
</g>
</g>
<g clip-path="url(#clip99)" clip-rule="nonzero">
<g clip-path="url(#clip100)" clip-rule="nonzero">
<path style=" stroke:none;fill-rule:nonzero;fill:rgb(48.599243%,22.399902%,16.099548%);fill-opacity:1;" d="M 375.34375 298.390625 C 400.574219 269.804688 447.332031 288.21875 456.617188 317.804688 C 445.808594 295.097656 420.800781 284.753906 398.015625 292.921875 C 383.9375 297.980469 372.714844 309.164062 368 322.839844 C 364.242188 333.746094 364.8125 346.734375 370.203125 355.289062 C 363.402344 349.183594 356.785156 319.410156 375.34375 298.390625 "/>
</g>
</g>
<g clip-path="url(#clip101)" clip-rule="nonzero">
<g clip-path="url(#clip102)" clip-rule="nonzero">
<path style=" stroke:none;fill-rule:nonzero;fill:rgb(38.798523%,9.799194%,5.099487%);fill-opacity:1;" d="M 397.328125 321.867188 C 389.492188 335.25 393.992188 352.453125 407.375 360.289062 C 420.761719 368.125 437.964844 363.625 445.796875 350.242188 C 453.636719 336.855469 449.136719 319.652344 435.75 311.816406 C 422.367188 303.984375 405.164062 308.480469 397.328125 321.867188 "/>
</g>
</g>
<g clip-path="url(#clip103)" clip-rule="nonzero">
<g clip-path="url(#clip104)" clip-rule="nonzero">
<path style=" stroke:none;fill-rule:nonzero;fill:rgb(99.598694%,100%,99.598694%);fill-opacity:1;" d="M 399.949219 319.746094 C 397.777344 323.460938 399.023438 328.234375 402.738281 330.410156 C 406.449219 332.582031 411.222656 331.332031 413.398438 327.621094 C 415.570312 323.90625 414.324219 319.132812 410.609375 316.960938 C 406.898438 314.785156 402.121094 316.035156 399.949219 319.746094 "/>
</g>
</g>
<g clip-path="url(#clip105)" clip-rule="nonzero">
<g clip-path="url(#clip106)" clip-rule="nonzero">
<path style=" stroke:none;fill-rule:nonzero;fill:rgb(95.698547%,56.498718%,0%);fill-opacity:1;" d="M 303.640625 198.367188 C 352.378906 102.492188 430.78125 57.832031 549.234375 73.839844 C 646.460938 86.976562 712.472656 151.816406 734.890625 263.714844 C 696.09375 170.808594 633.558594 118.734375 534.535156 107.5 C 443.820312 97.210938 367.355469 124.449219 303.640625 198.367188 "/>
</g>
</g>
</g>
</svg>
