<?xml version="1.0" encoding="UTF-8" standalone="no"?>
<svg
   xmlns:dc="http://purl.org/dc/elements/1.1/"
   xmlns:cc="http://creativecommons.org/ns#"
   xmlns:rdf="http://www.w3.org/1999/02/22-rdf-syntax-ns#"
   xmlns:svg="http://www.w3.org/2000/svg"
   xmlns="http://www.w3.org/2000/svg"
   viewBox="0 0 2161.8933 1426.96"
   height="1426.96"
   width="2161.8933"
   xml:space="preserve"
   id="svg2"
   version="1.1"><metadata
     id="metadata8"><rdf:RDF><cc:Work
         rdf:about=""><dc:format>image/svg+xml</dc:format><dc:type
           rdf:resource="http://purl.org/dc/dcmitype/StillImage" /></cc:Work></rdf:RDF></metadata><defs
     id="defs6"><clipPath
       id="clipPath18"
       clipPathUnits="userSpaceOnUse"><path
         id="path16"
         d="M 0,1070.218 H 1621.423 V 0 H 0 Z" /></clipPath><clipPath
       id="clipPath66"
       clipPathUnits="userSpaceOnUse"><path
         id="path64"
         d="M 664.273,529.185 H 894.085 V 511.707 H 664.273 Z" /></clipPath><clipPath
       id="clipPath90"
       clipPathUnits="userSpaceOnUse"><path
         id="path88"
         d="M 732.188,744.34 H 836.027 V 645.649 H 732.188 Z" /></clipPath><clipPath
       id="clipPath218"
       clipPathUnits="userSpaceOnUse"><path
         id="path216"
         d="m 660.909,1016.66 h 15.694 v -13.6 h -15.694 z" /></clipPath><clipPath
       id="clipPath234"
       clipPathUnits="userSpaceOnUse"><path
         id="path232"
         d="m 634.54,994.827 h 16.588 V 978.765 H 634.54 Z" /></clipPath><clipPath
       id="clipPath254"
       clipPathUnits="userSpaceOnUse"><path
         id="path252"
         d="M 571.307,34.471 H 999.086 V 0 H 571.307 Z" /></clipPath><clipPath
       id="clipPath318"
       clipPathUnits="userSpaceOnUse"><path
         id="path316"
         d="M 570.784,857.782 H 651.05 V 750.122 H 570.784 Z" /></clipPath><clipPath
       id="clipPath338"
       clipPathUnits="userSpaceOnUse"><path
         id="path336"
         d="m 533.327,831.545 h 69.975 v -50.98 h -69.975 z" /></clipPath><clipPath
       id="clipPath358"
       clipPathUnits="userSpaceOnUse"><path
         id="path356"
         d="m 576.353,816.135 h 31.874 v -35.29 h -31.874 z" /></clipPath><clipPath
       id="clipPath382"
       clipPathUnits="userSpaceOnUse"><path
         id="path380"
         d="m 948.48,718.403 h 48.141 V 686.951 H 948.48 Z" /></clipPath><clipPath
       id="clipPath434"
       clipPathUnits="userSpaceOnUse"><path
         id="path432"
         d="m 1248.01,529.185 h 229.8 v -17.478 h -229.8 z" /></clipPath><clipPath
       id="clipPath458"
       clipPathUnits="userSpaceOnUse"><path
         id="path456"
         d="m 1315.92,744.34 h 103.84 v -98.691 h -103.84 z" /></clipPath><clipPath
       id="clipPath586"
       clipPathUnits="userSpaceOnUse"><path
         id="path584"
         d="m 1244.64,1016.66 h 15.69 v -13.6 h -15.69 z" /></clipPath><clipPath
       id="clipPath602"
       clipPathUnits="userSpaceOnUse"><path
         id="path600"
         d="m 1218.27,994.827 h 16.59 v -16.062 h -16.59 z" /></clipPath><clipPath
       id="clipPath622"
       clipPathUnits="userSpaceOnUse"><path
         id="path620"
         d="m 1155.04,34.471 h 427.78 V 0 h -427.78 z" /></clipPath><clipPath
       id="clipPath710"
       clipPathUnits="userSpaceOnUse"><path
         id="path708"
         d="m 1385.7,798.148 h 145.35 V 581.771 H 1385.7 Z" /></clipPath><clipPath
       id="clipPath762"
       clipPathUnits="userSpaceOnUse"><path
         id="path760"
         d="m 130.387,529.185 h 229.81 v -17.478 h -229.81 z" /></clipPath><clipPath
       id="clipPath786"
       clipPathUnits="userSpaceOnUse"><path
         id="path784"
         d="M 198.301,744.34 H 302.139 V 645.649 H 198.301 Z" /></clipPath><clipPath
       id="clipPath914"
       clipPathUnits="userSpaceOnUse"><path
         id="path912"
         d="m 127.02,1016.66 h 15.695 v -13.6 H 127.02 Z" /></clipPath><clipPath
       id="clipPath930"
       clipPathUnits="userSpaceOnUse"><path
         id="path928"
         d="m 100.652,994.827 h 16.59 v -16.062 h -16.59 z" /></clipPath><clipPath
       id="clipPath950"
       clipPathUnits="userSpaceOnUse"><path
         id="path948"
         d="M 37.4185,34.471 H 465.197 V 0 H 37.4185 Z" /></clipPath></defs><g
     transform="matrix(1.3333333,0,0,-1.3333333,0,1426.96)"
     id="g10"><g
       id="g12"><g
         clip-path="url(#clipPath18)"
         id="g14"><g
           transform="translate(1037.6935,722.3964)"
           id="g20"><path
             id="path22"
             style="fill:#aa3900;fill-opacity:1;fill-rule:nonzero;stroke:none"
             d="m 0,0 c -16.536,-1.334 -33.014,12.7 -30.586,26.681 17.508,22.576 11.432,27.888 -8.33,73.332 -14.998,34.482 -17.005,121.273 -32.466,152.844 -30.678,81.187 -130.264,99.469 -206.189,90.019 -81.59,-10.155 -149.135,-42.741 -164.665,-118.342 -16.187,-78.813 -18.806,-124.556 -31.547,-150.982 -11.543,-23.939 1.97,-33.065 5.003,-47.273 -6.987,-17.077 -23.925,-29.15 -35.025,-20.011 0,-11.108 13.567,-15.9 21.026,-12.762 3.574,1.504 6.445,5.005 6.998,5.194 -3.945,-7.306 -12.317,-20.462 -13.5,-30.234 -2.131,-17.594 9.104,-47.072 36.771,-61.644 -10.16,10.262 -23.324,27.502 -18.7,42.471 6.603,-28.621 35.807,-59.765 80.519,-55.085 43.783,-5.973 192.352,-14.339 229.425,-11.357 37.581,3.023 114.607,13.634 133.196,47.703 0.107,-8.62 -3.616,-14.095 -7.487,-19.422 22.804,18.471 26.913,35.976 24.425,54.388 -1.917,14.184 -13.116,28.836 -18.085,36.874 C -17.615,-9.954 -9.511,-14.059 0,0" /></g><g
           transform="translate(818.2864,56.7645)"
           id="g24"><path
             id="path26"
             style="fill:#ffc19f;fill-opacity:1;fill-rule:nonzero;stroke:none"
             d="m 0,0 c 0.171,-1.819 59.322,0.426 59.404,2.638 0.707,19.234 -0.122,273.441 0.08,284.594 L -24.929,260.878 C -22.622,241.841 -1.235,13.133 0,0" /></g><g
           transform="translate(746.2092,56.7645)"
           id="g28"><path
             id="path30"
             style="fill:#ffc19f;fill-opacity:1;fill-rule:nonzero;stroke:none"
             d="m 0,0 c -0.171,-1.819 -59.324,0.426 -59.404,2.638 -0.708,19.234 0.122,273.441 -0.08,284.594 L 24.929,260.878 C 22.622,241.841 1.233,13.133 0,0" /></g><g
           transform="translate(524.1901,788.1527)"
           id="g32"><path
             id="path34"
             style="fill:#ffc19f;fill-opacity:1;fill-rule:nonzero;stroke:none"
             d="m 0,0 c 0.032,3.785 44.102,-5.009 44.779,-8.75 9.316,-51.446 32.234,-116.814 57.019,-165.035 0,0 -40.117,-8.423 -63.351,11.256 C 15.865,-143.401 -0.517,-64.198 0,0" /></g><g
           transform="translate(599.4783,679.5238)"
           id="g36"><path
             id="path38"
             style="fill:#ff9700;fill-opacity:1;fill-rule:nonzero;stroke:none"
             d="m 0,0 c -3.98,-20.825 -10.253,-65.397 -12.051,-87.728 44.673,-8.524 93.829,-20.543 97.029,-19.567 21.423,6.535 45.023,79.864 36.641,98.506 C 98.967,-8.119 40.625,-5.12 0,0" /></g><g
           transform="translate(974.4352,565.5915)"
           id="g40"><path
             id="path42"
             style="fill:#ff9700;fill-opacity:1;fill-rule:nonzero;stroke:none"
             d="m 0,0 c -18.37,-10.976 -57.074,-36.217 -77.652,-42.377 -27.562,35.289 -53.488,142.034 -53.463,145.454 24.2,-1.53 52.318,-4.717 60.098,-8.934 C -57.224,75.984 -19.77,29.603 0,0" /></g><g
           transform="translate(1002.2673,677.3038)"
           id="g44"><path
             id="path46"
             style="fill:#ffc19f;fill-opacity:1;fill-rule:nonzero;stroke:none"
             d="m 0,0 c 0.477,3.639 -40.973,3.633 -42.202,0.17 -16.757,-47.207 -40.438,-107.529 -62.839,-157.789 0,0 42.694,-13.312 63.385,8.06 C -20.742,-127.955 -7.55,-57.594 0,0" /></g><g
           transform="translate(892.9844,529.185)"
           id="g48"><path
             id="path50"
             style="fill:#f95006;fill-opacity:1;fill-rule:nonzero;stroke:none"
             d="m 0,0 c -0.782,9.007 -7.08,89.677 -13.312,136.865 -27.712,2.583 -61.08,6.663 -96.783,6.196 -39.115,-0.511 -75.823,-0.794 -102.125,1.084 -7.056,-61.083 -10.689,-104.966 -15.61,-144.339 -2.882,-23.067 -38.852,-185.516 -51.065,-236.912 70.013,-52.493 263.009,-55.721 340.593,0 0,0 -58.24,216.761 -61.698,237.106" /></g><g
           transform="translate(709.6403,648.0915)"
           id="g52"><path
             id="path54"
             style="fill:#8e1f09;fill-opacity:1;fill-rule:nonzero;stroke:none"
             d="m 0,0 c 0.761,-5.424 -3.019,-10.44 -8.444,-11.202 -5.424,-0.762 -10.438,3.018 -11.201,8.442 -0.761,5.425 3.019,10.44 8.441,11.202 C -5.779,9.204 -0.763,5.424 0,0" /></g><g
           transform="translate(870.7648,646.8737)"
           id="g56"><path
             id="path58"
             style="fill:#8e1f09;fill-opacity:1;fill-rule:nonzero;stroke:none"
             d="m 0,0 c 0.763,-5.424 -3.017,-10.44 -8.442,-11.202 -5.424,-0.763 -10.438,3.018 -11.201,8.442 -0.761,5.425 3.017,10.44 8.441,11.202 C -5.777,9.204 -0.761,5.424 0,0" /></g><g
           id="g60"><g
             id="g62" /><g
             id="g74"><g
               style="opacity:0.30000299"
               id="g72"
               clip-path="url(#clipPath66)"><g
                 id="g70"
                 transform="translate(775.3063,511.7323)"><path
                   id="path68"
                   style="fill:#ffffff;fill-opacity:1;fill-rule:nonzero;stroke:none"
                   d="m 0,0 c 40.853,-0.392 80.894,3.801 118.779,12.026 -0.515,2.374 -0.901,4.28 -1.101,5.427 -71.434,-15.505 -150.903,-15.6 -227.83,-0.194 -0.185,-1.297 -0.503,-3.235 -0.881,-5.463 C -74.245,4.432 -36.87,0.358 0,0" /></g></g></g></g><g
           transform="translate(841.2925,661.1879)"
           id="g76"><path
             id="path78"
             style="fill:#ffc19f;fill-opacity:1;fill-rule:nonzero;stroke:none"
             d="m 0,0 c 0.095,3.161 -0.468,5.585 -1.269,8.569 -36.4,5.401 -80.547,5.396 -115.239,2.119 -1.179,-3.065 -1.862,-6.121 -1.651,-10.727 1.061,-23.222 25.23,-42.095 57.827,-42.442 C -27.746,-42.829 -0.736,-24.443 0,0" /></g><g
           transform="translate(825.2609,729.0505)"
           id="g80"><path
             id="path82"
             style="fill:#ffc19f;fill-opacity:1;fill-rule:nonzero;stroke:none"
             d="m 0,0 -0.751,-68.997 c -0.16,-14.836 -19.147,-26.662 -42.406,-26.409 -23.262,0.252 -41.988,12.487 -41.827,27.323 l 0.748,68.997 z" /></g><g
           id="g84"><g
             id="g86" /><g
             id="g98"><g
               style="opacity:0.19000202"
               id="g96"
               clip-path="url(#clipPath90)"><g
                 id="g94"
                 transform="translate(828.2083,657.9728)"><path
                   id="path92"
                   style="fill:#820303;fill-opacity:1;fill-rule:nonzero;stroke:none"
                   d="m 0,0 c -15.125,-18.017 -47.132,-16.048 -71.487,4.399 -24.357,20.447 -31.84,51.628 -16.713,69.645 15.125,18.017 47.13,16.048 71.487,-4.399 C 7.643,49.198 15.125,18.017 0,0" /></g></g></g></g><g
           transform="translate(586.4658,789.8693)"
           id="g100"><path
             id="path102"
             style="fill:#ffc19f;fill-opacity:1;fill-rule:nonzero;stroke:none"
             d="m 0,0 c 9.998,-36.445 46.575,-59.13 73.933,-55.378 27.355,3.752 32.402,33.747 27.334,68.891 C 96.192,48.657 69.889,74.195 42.546,70.354 5.172,65.102 -9.397,34.254 0,0" /></g><g
           transform="translate(616.3976,783.5228)"
           id="g104"><path
             id="path106"
             style="fill:#e0956c;fill-opacity:1;fill-rule:nonzero;stroke:none"
             d="M 0,0 C 2.279,-16.164 15.68,-27.642 29.938,-25.638 44.188,-23.631 53.901,-8.9 51.624,7.264 49.349,23.429 35.949,34.904 21.699,32.901 7.44,30.897 -2.271,16.164 0,0" /></g><g
           transform="translate(989.1661,789.3633)"
           id="g108"><path
             id="path110"
             style="fill:#ffc19f;fill-opacity:1;fill-rule:nonzero;stroke:none"
             d="m 0,0 c -9.901,-36.469 -46.423,-59.243 -73.789,-55.559 -27.366,3.687 -32.49,33.668 -27.514,68.825 4.986,35.156 31.222,60.758 58.58,56.984 C -5.336,65.089 9.308,34.277 0,0" /></g><g
           transform="translate(957.3578,783.9556)"
           id="g112"><path
             id="path114"
             style="fill:#e0956c;fill-opacity:1;fill-rule:nonzero;stroke:none"
             d="m 0,0 c -2.235,-16.17 -15.606,-27.681 -29.864,-25.713 -14.261,1.971 -24.012,16.678 -21.777,32.848 2.232,16.17 15.605,27.679 29.864,25.711 C -7.516,30.878 2.235,16.17 0,0" /></g><g
           transform="translate(971.8314,905.8481)"
           id="g116"><path
             id="path118"
             style="fill:#aa3900;fill-opacity:1;fill-rule:nonzero;stroke:none"
             d="m 0,0 c -0.672,-125.617 -76.853,-181.712 -183.108,-181.142 -106.255,0.57 -190.632,57.468 -189.958,183.085 0.673,125.617 91.2,161.083 184.725,162.394 C -92.243,165.684 0.675,125.617 0,0" /></g><g
           transform="translate(934.6829,945.0691)"
           id="g120"><path
             id="path122"
             style="fill:#ffc19f;fill-opacity:1;fill-rule:nonzero;stroke:none"
             d="m 0,0 c 19.15,-59.502 2.503,-186.192 -18.644,-210.394 -22.43,-25.674 -84.715,-56.465 -130.493,-56.959 -47.61,-0.515 -109.919,29.063 -127.313,57.237 -20.579,33.343 -38.338,146.486 -23.337,198.881 18.098,63.221 79.461,80.796 154.032,80.872 C -75.995,69.707 -16.924,52.592 0,0" /></g><g
           transform="translate(660.0336,781.4501)"
           id="g124"><path
             id="path126"
             style="fill:#ff9797;fill-opacity:1;fill-rule:nonzero;stroke:none"
             d="m 0,0 c -0.491,-7.295 9.247,-13.89 21.754,-14.732 12.5,-0.843 23.039,4.387 23.531,11.682 C 45.776,4.243 36.033,10.84 23.533,11.682 11.026,12.525 0.491,7.294 0,0" /></g><g
           transform="translate(868.5004,777.7378)"
           id="g128"><path
             id="path130"
             style="fill:#ff9797;fill-opacity:1;fill-rule:nonzero;stroke:none"
             d="M 0,0 C 0.531,-7.292 11.094,-12.464 23.596,-11.553 36.092,-10.642 45.799,-3.994 45.268,3.298 44.737,10.589 34.17,15.762 21.674,14.851 9.171,13.94 -0.531,7.291 0,0" /></g><g
           transform="translate(839.0809,766.0764)"
           id="g132"><path
             id="path134"
             style="fill:#701608;fill-opacity:1;fill-rule:nonzero;stroke:none"
             d="m 0,0 c -2.401,12.525 -21.652,9.28 -53.094,9.491 -1.644,0.011 -8.041,0.011 -9.69,0 -31.441,-0.211 -50.69,3.034 -53.092,-9.491 -4.627,-24.126 25.728,-50.478 57.661,-50.575 h 0.552 C -25.728,-50.478 4.626,-24.126 0,0" /></g><g
           transform="translate(781.4141,714.9989)"
           id="g136"><path
             id="path138"
             style="fill:#dd6b5b;fill-opacity:1;fill-rule:nonzero;stroke:none"
             d="m 0,0 h -0.552 c -10.357,0.038 -21.096,2.975 -31.09,8.468 l -0.609,0.325 0.514,0.457 c 8.297,7.439 19.473,11.539 31.471,11.539 11.978,0 23.154,-4.1 31.469,-11.539 L 31.72,8.793 31.108,8.468 C 21.096,2.975 10.337,0.038 0,0" /></g><g
           transform="translate(781.1484,759.4771)"
           id="g140"><path
             id="path142"
             style="fill:#ffffff;fill-opacity:1;fill-rule:nonzero;stroke:none"
             d="m 0,0 c -21.973,0 -40.265,6.809 -42.552,15.85 l -0.135,0.553 H 42.685 L 42.55,15.85 C 40.244,6.809 21.952,0 0,0" /></g><g
           transform="translate(794.9979,791.6634)"
           id="g144"><path
             id="path146"
             style="fill:#c4735b;fill-opacity:1;fill-rule:nonzero;stroke:none"
             d="m 0,0 c -0.833,0 -1.569,0.6 -1.71,1.449 -0.999,6.027 -5.766,9.922 -12.142,9.92 -6.411,-0.002 -11.285,-3.976 -12.131,-9.888 -0.137,-0.947 -1.02,-1.608 -1.961,-1.471 -0.948,0.135 -1.606,1.014 -1.471,1.962 1.081,7.573 7.482,12.863 15.563,12.866 C -5.817,14.84 0.436,9.688 1.714,2.019 1.87,1.073 1.231,0.181 0.287,0.023 Z" /></g><g
           transform="translate(898.8328,910.1892)"
           id="g148"><path
             id="path150"
             style="fill:#6d1403;fill-opacity:1;fill-rule:nonzero;stroke:none"
             d="m 0,0 c -1.162,0.149 -2.268,0.711 -3.089,1.661 -10.489,12.106 -32.609,17.944 -51.502,13.545 -2.623,-0.623 -5.273,1.021 -5.899,3.674 -0.615,2.639 1.027,5.278 3.673,5.899 C -34.277,30.01 -8.547,22.992 4.341,8.083 6.114,6.029 5.891,2.931 3.837,1.157 2.741,0.202 1.339,-0.172 0,0" /></g><g
           transform="translate(619.2438,930.5878)"
           id="g152"><path
             id="path154"
             style="fill:#aa3900;fill-opacity:1;fill-rule:nonzero;stroke:none"
             d="m 0,0 c -1.031,21.603 10.527,76.165 50.172,98.313 51.12,28.559 151.337,43.806 252.952,-17.655 C 290.976,26.886 189.606,6.189 147.441,8.851 c 13.66,6.441 32.085,20.262 31.733,30.528 C 160.254,24.613 2.361,-49.453 0,0" /></g><g
           transform="translate(664.9291,907.4785)"
           id="g156"><path
             id="path158"
             style="fill:#6d1403;fill-opacity:1;fill-rule:nonzero;stroke:none"
             d="m 0,0 c -1.345,-0.123 -2.732,0.302 -3.793,1.296 -1.988,1.848 -2.1,4.952 -0.251,6.939 13.435,14.431 39.398,20.499 61.726,14.454 2.62,-0.716 4.166,-3.413 3.455,-6.028 C 60.42,14.032 57.718,12.487 55.109,13.205 36.394,18.297 14.054,13.287 3.146,1.547 2.292,0.628 1.164,0.107 0,0" /></g><g
           transform="translate(828.3749,850.7251)"
           id="g160"><path
             id="path162"
             style="fill:#f9feff;fill-opacity:1;fill-rule:nonzero;stroke:none"
             d="m 0,0 c -12.115,-17.543 -10.641,-36.923 -0.078,-44.319 15.916,-11.144 53.6,-14.438 67.679,1.545 C 81.24,-27.292 74.694,1.036 52.51,13.289 33.088,24.015 11.722,16.978 0,0" /></g><g
           transform="translate(898.5756,855.4014)"
           id="g164"><path
             id="path166"
             style="fill:#ad3c23;fill-opacity:1;fill-rule:nonzero;stroke:none"
             d="m 0,0 c -17.25,27.318 -58.847,18.223 -70.608,-5.272 12.106,17.534 34.423,22.815 52.38,12.908 C -7.132,1.504 0.744,-9.367 2.844,-21.444 4.516,-31.073 2.283,-41.86 -3.38,-48.29 3.135,-44.102 12.686,-20.088 0,0" /></g><g
           transform="translate(832.798,839.0362)"
           id="g168"><path
             id="path170"
             style="fill:#872c04;fill-opacity:1;fill-rule:nonzero;stroke:none"
             d="m 0,0 c -4.971,-12.165 0.86,-26.056 13.025,-31.028 12.165,-4.971 26.057,0.861 31.029,13.026 C 49.025,-5.837 43.193,8.054 31.028,13.025 18.863,17.997 4.971,12.165 0,0" /></g><g
           transform="translate(834.744,841.1266)"
           id="g172"><path
             id="path174"
             style="fill:#fefffe;fill-opacity:1;fill-rule:nonzero;stroke:none"
             d="m 0,0 c -1.381,-3.375 0.238,-7.229 3.614,-8.608 3.373,-1.38 7.229,0.238 8.608,3.613 1.379,3.375 -0.24,7.23 -3.614,8.609 C 5.233,4.993 1.379,3.375 0,0" /></g><g
           transform="translate(745.2521,851.5048)"
           id="g176"><path
             id="path178"
             style="fill:#f9feff;fill-opacity:1;fill-rule:nonzero;stroke:none"
             d="M 0,0 C 11.792,-17.762 9.966,-37.111 -0.73,-44.313 -16.848,-55.165 -54.585,-57.77 -68.371,-41.532 -81.725,-25.804 -74.662,2.4 -52.259,14.245 -32.643,24.616 -11.41,17.189 0,0" /></g><g
           transform="translate(675.1481,857.4624)"
           id="g180"><path
             id="path182"
             style="fill:#ad3c23;fill-opacity:1;fill-rule:nonzero;stroke:none"
             d="M 0,0 C 17.746,26.998 59.17,17.145 70.498,-6.56 58.717,11.192 36.499,16.879 18.366,7.301 7.16,1.374 -0.915,-9.352 -3.234,-21.388 -5.083,-30.985 -3.047,-41.812 2.498,-48.344 -3.938,-44.037 -13.05,-19.853 0,0" /></g><g
           transform="translate(696.4,840.3024)"
           id="g184"><path
             id="path186"
             style="fill:#872c04;fill-opacity:1;fill-rule:nonzero;stroke:none"
             d="m 0,0 c -4.969,-12.165 0.862,-26.057 13.025,-31.028 12.165,-4.971 26.057,0.861 31.029,13.026 C 49.025,-5.837 43.193,8.054 31.028,13.025 18.863,17.997 4.971,12.165 0,0" /></g><g
           transform="translate(698.3461,842.3928)"
           id="g188"><path
             id="path190"
             style="fill:#fefffe;fill-opacity:1;fill-rule:nonzero;stroke:none"
             d="m 0,0 c -1.379,-3.375 0.238,-7.229 3.614,-8.609 3.375,-1.379 7.229,0.239 8.608,3.614 1.379,3.375 -0.238,7.23 -3.614,8.609 C 5.233,4.993 1.379,3.375 0,0" /></g><g
           transform="translate(619.7415,993.3592)"
           id="g192"><path
             id="path194"
             style="fill:#aa3900;fill-opacity:1;fill-rule:nonzero;stroke:none"
             d="M 0,0 C 4.463,5.636 43.448,2.584 64.913,-0.718 10.736,0.628 25.365,-57.613 22.858,-107.712 21.186,-141.186 13.622,-170.258 -5.007,-167.204 -3.521,-132.448 -3.757,-23.249 0,0" /></g><g
           transform="translate(948.7706,993.3592)"
           id="g196"><path
             id="path198"
             style="fill:#aa3900;fill-opacity:1;fill-rule:nonzero;stroke:none"
             d="m 0,0 c -4.463,5.636 -43.448,2.584 -64.913,-0.718 54.177,1.346 39.546,-56.895 42.052,-106.994 1.674,-33.474 9.237,-62.546 27.868,-59.492 C 3.521,-132.448 3.757,-23.249 0,0" /></g><g
           transform="translate(623.2645,951.79)"
           id="g200"><path
             id="path202"
             style="fill:#f49000;fill-opacity:1;fill-rule:nonzero;stroke:none"
             d="M 0,0 C 26.997,65.439 79.412,101.549 171.346,102.074 246.802,102.505 305.985,65.126 335.47,-2.893 295.781,56.529 242.485,85.908 165.864,84.007 95.676,82.266 40.435,56.386 0,0" /></g><g
           transform="translate(665.1526,994.9678)"
           id="g204"><path
             id="path206"
             style="fill:#ffa10b;fill-opacity:1;fill-rule:nonzero;stroke:none"
             d="M 0,0 C 17.016,1.647 41.899,4.645 49.704,12.612 54.629,17.638 40.313,42.466 20.664,45.835 10.276,47.616 -7.984,30.657 -10.506,13.525 -11.781,4.857 -8.1,-0.784 0,0" /></g><g
           transform="translate(659.011,987.1868)"
           id="g208"><path
             id="path210"
             style="fill:#ffa10b;fill-opacity:1;fill-rule:nonzero;stroke:none"
             d="m 0,0 c -4.699,-27.272 -11.182,-45.408 -19.671,-47.675 -13.411,-3.582 -41.795,15.391 -39.642,30.558 2.156,15.202 33.174,32.879 47.892,30.998 C -2.209,12.704 1.51,8.759 0,0" /></g><g
           id="g212"><g
             id="g214" /><g
             id="g226"><g
               style="opacity:0.35000604"
               id="g224"
               clip-path="url(#clipPath218)"><g
                 id="g222"
                 transform="translate(660.9086,1003.0745)"><path
                   id="path220"
                   style="fill:#c12400;fill-opacity:1;fill-rule:nonzero;stroke:none"
                   d="M 0,0 C 1.543,5.094 7.923,18.458 13.727,11.727 21.326,2.919 4.794,-0.219 0,0" /></g></g></g></g><g
           id="g228"><g
             id="g230" /><g
             id="g242"><g
               style="opacity:0.35000604"
               id="g240"
               clip-path="url(#clipPath234)"><g
                 id="g238"
                 transform="translate(651.1281,994.8272)"><path
                   id="path236"
                   style="fill:#c12400;fill-opacity:1;fill-rule:nonzero;stroke:none"
                   d="M 0,0 C -5.676,-1.701 -23.373,-7.937 -13.801,-14.399 -3.835,-21.127 -0.664,-5.642 0,0" /></g></g></g></g><g
           transform="translate(663.5123,1003.2489)"
           id="g244"><path
             id="path246"
             style="fill:#ffa10b;fill-opacity:1;fill-rule:nonzero;stroke:none"
             d="m 0,0 c 3.66,-4.573 3.688,-10.643 0.057,-13.557 -3.628,-2.914 -9.538,-1.57 -13.2,3.003 -3.66,4.573 -3.686,10.643 -0.057,13.557 C -9.572,5.918 -3.662,4.573 0,0" /></g><g
           id="g248"><g
             id="g250" /><g
             id="g262"><g
               style="opacity:0.11000103"
               id="g260"
               clip-path="url(#clipPath254)"><g
                 id="g258"
                 transform="translate(571.3069,17.2355)"><path
                   id="path256"
                   style="fill:#000000;fill-opacity:1;fill-rule:nonzero;stroke:none"
                   d="m 0,0 c 0,-9.519 95.762,-17.236 213.889,-17.236 118.128,0 213.89,7.717 213.89,17.236 0,9.519 -95.762,17.236 -213.89,17.236 C 95.762,17.236 0,9.519 0,0" /></g></g></g></g><g
           transform="translate(741.668,131.1588)"
           id="g264"><path
             id="path266"
             style="fill:#0ca39b;fill-opacity:1;fill-rule:nonzero;stroke:none"
             d="M 0,0 C -3.801,0.124 -6.987,-2.905 -7.114,-6.709 L 6.652,-7.179 C 6.778,-3.378 3.801,-0.126 0,0 m -13.765,0.455 c -3.804,0.127 -6.989,-2.89 -7.116,-6.694 l 13.767,-0.47 c 0.127,3.804 -2.852,7.04 -6.651,7.164 m -13.77,0.458 c -3.801,0.124 -6.985,-2.88 -7.111,-6.681 l 13.765,-0.471 c 0.127,3.804 -2.85,7.025 -6.654,7.152 m -27.532,0.911 c -1.889,0.063 -3.62,-0.652 -4.906,-1.845 l 0.189,-4.889 11.373,-0.39 c 0.124,3.803 -2.855,6.999 -6.656,7.124 M -41.3,1.368 c -3.801,0.125 -6.987,-2.865 -7.111,-6.668 l 13.765,-0.468 c 0.126,3.801 -2.853,7.012 -6.654,7.136 M 13.767,-0.455 C 9.964,-0.331 6.778,-3.378 6.652,-7.179 l 8.541,-0.367 c 0.193,1.434 0.503,3.589 0.866,6.051 -0.782,0.344 -1.385,1.01 -2.292,1.04" /></g><g
           transform="translate(747.645,51.5738)"
           id="g268"><path
             id="path270"
             style="fill:#fff8b3;fill-opacity:1;fill-rule:nonzero;stroke:none"
             d="m 0,0 c -0.314,-1.992 -65.006,2.669 -65.21,5.098 -1.706,20.276 -0.498,61.961 -0.551,69.577 L 9.216,72.039 C 6.376,51.064 2.013,12.738 0,0" /></g><g
           transform="translate(692.8707,93.949)"
           id="g272"><path
             id="path274"
             style="fill:#fff8b3;fill-opacity:1;fill-rule:nonzero;stroke:none"
             d="m 0,0 c 1.048,4.775 45.683,-3.262 53.811,-1.832 0.217,-11.044 6.582,-28.84 6.274,-43.845 C 59.87,-56.126 51.184,-63.76 41.637,-65.489 4.773,-72.174 -92.673,-92.302 -96.947,-65.236 -100.453,-43.02 -42.301,-26.143 0,0" /></g><g
           transform="translate(752.8104,74.6683)"
           id="g276"><path
             id="path278"
             style="fill:#0ca39b;fill-opacity:1;fill-rule:nonzero;stroke:none"
             d="m 0,0 c -0.664,0.824 -2.503,0.9 -3.867,-0.434 -9,-5.24 -23.297,-10.618 -35.086,-14.263 -4.017,-1.244 -7.997,-2.193 -11.912,-2.891 -3.829,11.592 -13.749,25.456 -22.872,31.14 -1.91,1.198 -4.343,0.506 -5.456,-1.503 -1.113,-2.015 -0.47,-4.619 1.434,-5.798 7.033,-4.377 15.11,-15.464 18.734,-24.798 -24.536,-3.049 -43.302,-2.774 -52.389,12.966 -28.475,-16.636 -58.228,-22.272 -57.446,-41.302 0.962,-23.373 169.474,-1.206 169.474,-1.206 C 0.283,-34.033 0.405,-12.646 0,0" /></g><g
           transform="translate(753.6959,35.0803)"
           id="g280"><path
             id="path282"
             style="fill:#057c7c;fill-opacity:1;fill-rule:nonzero;stroke:none"
             d="m 0,0 c -0.038,-3.125 -0.051,-6.137 0.011,-8.813 0,0 -145.743,-26.423 -168.38,-5.538 -0.809,0.748 -1.733,4.476 -1.324,5.675 C -128.918,-17.864 -36.929,-5.625 0,0" /></g><g
           transform="translate(681.7557,115.321)"
           id="g284"><path
             id="path286"
             style="fill:#0ca39b;fill-opacity:1;fill-rule:nonzero;stroke:none"
             d="m 0,0 c 30.474,-2.408 43.471,-2.507 73.696,-2.521 l 0.405,3.17 C 43.604,0.664 30.693,0.749 0.046,3.167 Z" /></g><g
           transform="translate(814.5822,123.9799)"
           id="g288"><path
             id="path290"
             style="fill:#0ca39b;fill-opacity:1;fill-rule:nonzero;stroke:none"
             d="M 0,0 13.765,0.47 C 13.639,4.274 10.453,7.303 6.652,7.179 2.851,7.052 -0.127,3.801 0,0 M 13.765,0.47 27.533,0.94 C 27.406,4.744 24.22,7.761 20.419,7.634 16.618,7.51 13.639,4.274 13.765,0.47 M 27.533,0.94 41.298,1.411 C 41.171,5.212 37.988,8.216 34.187,8.092 30.385,7.965 27.406,4.744 27.533,0.94 m 27.53,0.938 11.372,0.391 0.19,4.889 C 65.339,8.351 63.608,9.066 61.719,9.003 57.918,8.878 54.939,5.682 55.063,1.878 M 41.298,1.411 55.063,1.878 C 54.939,5.682 51.753,8.672 47.952,8.547 44.15,8.423 41.171,5.212 41.298,1.411 M -9.407,5.684 c 0.362,-2.463 0.674,-4.617 0.866,-6.051 L 0,0 C -0.127,3.801 -3.312,6.848 -7.116,6.723 -8.022,6.694 -8.623,6.028 -9.407,5.684" /></g><g
           transform="translate(815.2568,51.5738)"
           id="g292"><path
             id="path294"
             style="fill:#fff8b3;fill-opacity:1;fill-rule:nonzero;stroke:none"
             d="m 0,0 c 0.314,-1.992 65.006,2.669 65.21,5.098 1.706,20.276 0.498,61.961 0.551,69.577 L -9.216,72.039 C -6.376,51.064 -2.013,12.738 0,0" /></g><g
           transform="translate(870.0311,93.949)"
           id="g296"><path
             id="path298"
             style="fill:#fff8b3;fill-opacity:1;fill-rule:nonzero;stroke:none"
             d="m 0,0 c -1.048,4.775 -45.683,-3.262 -53.811,-1.832 -0.217,-11.044 -6.582,-28.84 -6.274,-43.845 0.215,-10.449 8.901,-18.083 18.448,-19.812 36.864,-6.685 134.31,-26.813 138.584,0.253 C 100.453,-43.02 42.301,-26.143 0,0" /></g><g
           transform="translate(810.0914,74.6683)"
           id="g300"><path
             id="path302"
             style="fill:#0ca39b;fill-opacity:1;fill-rule:nonzero;stroke:none"
             d="m 0,0 c 0.664,0.824 2.503,0.9 3.869,-0.434 8.998,-5.24 23.295,-10.618 35.087,-14.263 4.014,-1.244 7.996,-2.193 11.909,-2.891 3.829,11.592 13.749,25.456 22.872,31.14 1.91,1.198 4.343,0.506 5.456,-1.503 1.113,-2.015 0.47,-4.619 -1.434,-5.798 -7.033,-4.377 -15.11,-15.464 -18.734,-24.798 24.536,-3.049 43.303,-2.774 52.389,12.966 28.475,-16.636 58.228,-22.272 57.446,-41.302 C 167.901,-70.256 -0.613,-48.089 -0.613,-48.089 -0.282,-34.033 -0.405,-12.646 0,0" /></g><g
           transform="translate(809.2059,35.0803)"
           id="g304"><path
             id="path306"
             style="fill:#057c7c;fill-opacity:1;fill-rule:nonzero;stroke:none"
             d="m 0,0 c 0.038,-3.125 0.053,-6.137 -0.011,-8.813 0,0 145.745,-26.423 168.382,-5.538 0.807,0.748 1.731,4.476 1.322,5.675 C 128.918,-17.864 36.929,-5.625 0,0" /></g><g
           transform="translate(881.1461,115.321)"
           id="g308"><path
             id="path310"
             style="fill:#0ca39b;fill-opacity:1;fill-rule:nonzero;stroke:none"
             d="m 0,0 c -30.474,-2.408 -43.471,-2.507 -73.696,-2.521 l -0.405,3.17 c 30.497,0.015 43.408,0.1 74.055,2.518 z" /></g><g
           id="g312"><g
             id="g314" /><g
             id="g326"><g
               style="opacity:0.22999603"
               id="g324"
               clip-path="url(#clipPath318)"><g
                 id="g322"
                 transform="translate(651.05,851.6547)"><path
                   id="path320"
                   style="fill:#820303;fill-opacity:1;fill-rule:nonzero;stroke:none"
                   d="m 0,0 c -3.919,-12.742 -30.693,-46.341 -36.364,-54.591 2.968,-8.036 1.49,-20.687 -4.244,-26.64 -4.885,-5.069 -14.029,-11.788 -33.947,-20.301 -10.567,26.067 -4.393,70.164 1.883,101.195 1.449,-0.567 4.067,-5.127 3.953,-12.484 6.456,3.303 13.394,4.504 20.972,0.15 C -33.609,-1.412 -3.268,15.251 0,0" /></g></g></g></g><g
           transform="translate(605.7064,798.1541)"
           id="g328"><path
             id="path330"
             style="fill:#ffc19f;fill-opacity:1;fill-rule:nonzero;stroke:none"
             d="M 0,0 C 16.042,25.984 48.43,51.389 44.602,55.47 33.725,67.068 4.609,43.484 -9.829,25.055 c -1.499,-1.914 -2.488,-3.891 -3.593,-5.647 -20.528,7.457 -45.841,10.511 -55.849,16.43 -12.599,-25.692 -14.088,-40.259 -11.651,-48.554 4.457,-15.163 19.644,-28.317 38.81,-26.884 14.24,1.067 24.206,5.003 43.71,20.878 C 1.014,-14.2 -1.177,-6.707 0,0" /></g><g
           id="g332"><g
             id="g334" /><g
             id="g346"><g
               style="opacity:0.13999903"
               id="g344"
               clip-path="url(#clipPath338)"><g
                 id="g342"
                 transform="translate(556.8881,780.5648)"><path
                   id="path340"
                   style="fill:#6b1808;fill-opacity:1;fill-rule:nonzero;stroke:none"
                   d="M 0,0 C -23.217,6.447 -28.589,29.538 -19.131,46.115 -15.02,43.608 23.192,39.694 44.14,50.981 53.617,37.26 30.122,11.319 34.667,7.75 23.44,13.063 8.982,11.597 0,0" /></g></g></g></g><g
           transform="translate(596.5499,810.4379)"
           id="g348"><path
             id="path350"
             style="fill:#ffc19f;fill-opacity:1;fill-rule:nonzero;stroke:none"
             d="m 0,0 c 6.228,10.739 6.867,22.001 1.427,25.156 -4.899,2.84 -13.038,-1.903 -19.16,-10.713 1.94,8.858 0.301,16.543 -4.609,18.584 -5.283,2.195 -12.549,-2.864 -17.531,-11.61 -1.035,6.568 -4.05,11.386 -8.266,11.988 -6.224,0.889 -12.593,-7.654 -14.225,-19.081 -1.634,-11.429 2.089,-21.413 8.315,-22.302 3.411,-0.488 6.839,1.924 9.534,6.028 0.803,-3.245 2.414,-5.678 4.851,-6.691 4.55,-1.891 10.571,1.598 15.34,8.18 -1.218,-6.182 -0.192,-11.305 3.201,-13.272 C -15.684,-16.887 -6.226,-10.739 0,0" /></g><g
           id="g352"><g
             id="g354" /><g
             id="g366"><g
               style="opacity:0.21000701"
               id="g364"
               clip-path="url(#clipPath358)"><g
                 id="g362"
                 transform="translate(585.924,814.9242)"><path
                   id="path360"
                   style="fill:#541000;fill-opacity:1;fill-rule:nonzero;stroke:none"
                   d="m 0,0 c -6.211,-3.305 -13.219,-11.465 -7.383,-20.686 5.397,-8.532 18.173,-15.89 24.385,-12.585 6.211,3.305 7.092,13.794 1.964,23.427 C 13.841,-0.211 6.213,3.305 0,0" /></g></g></g></g><g
           transform="translate(585.924,814.9242)"
           id="g368"><path
             id="path370"
             style="fill:#ffc19f;fill-opacity:1;fill-rule:nonzero;stroke:none"
             d="m 0,0 c -5.908,-3.144 -6.308,-13.939 -0.896,-24.112 5.414,-10.172 14.592,-15.87 20.499,-12.726 5.91,3.144 6.31,13.94 0.898,24.112 C 15.087,-2.554 5.91,3.144 0,0" /></g><g
           transform="translate(925.7266,688.6077)"
           id="g372"><path
             id="path374"
             style="fill:#ffc19f;fill-opacity:1;fill-rule:nonzero;stroke:none"
             d="m 0,0 c 5.844,-21.618 23.833,-29.976 45.063,-31.951 27.704,-2.577 53.073,16.439 55.186,50.021 -2.876,13.593 -35.96,10.243 -56.82,5.829 C 22.57,19.485 -3.628,13.412 0,0" /></g><g
           id="g376"><g
             id="g378" /><g
             id="g390"><g
               style="opacity:0.19000202"
               id="g388"
               clip-path="url(#clipPath382)"><g
                 id="g386"
                 transform="translate(996.6212,712.0787)"><path
                   id="path384"
                   style="fill:#820303;fill-opacity:1;fill-rule:nonzero;stroke:none"
                   d="m 0,0 c 0,-8.106 -6.051,-25.128 -19.021,-25.128 -15.501,12.916 -29.12,8.45 -29.12,16.556 0,8.106 10.514,14.678 23.484,14.678 C -11.688,6.106 0,8.106 0,0" /></g></g></g></g><g
           transform="translate(866.683,707.5274)"
           id="g392"><path
             id="path394"
             style="fill:#ffffff;fill-opacity:1;fill-rule:nonzero;stroke:none"
             d="m 0,0 h 177.951 c 27.105,0 49.078,21.973 49.078,49.078 v 177.95 c 0,27.105 -21.973,49.077 -49.078,49.077 H 0 c -27.105,0 -49.075,-21.972 -49.075,-49.077 V 49.078 C -49.075,21.973 -27.105,0 0,0" /></g><g
           transform="translate(866.04,979.7198)"
           id="g396"><path
             id="path398"
             style="fill:#cc5a51;fill-opacity:1;fill-rule:nonzero;stroke:none"
             d="m 0,0 c -24.532,0 -44.507,-19.974 -44.507,-44.52 v -179.244 c 0,-24.547 19.975,-44.521 44.507,-44.521 h 179.243 c 24.531,0 44.505,19.974 44.505,44.521 V -44.52 C 223.748,-19.974 203.774,0 179.243,0 Z M -52.337,-223.764 V -44.52 c 0,28.859 23.493,52.351 52.337,52.351 h 179.243 c 28.844,0 52.335,-23.492 52.335,-52.351 v -179.244 c 0,-28.86 -23.491,-52.351 -52.335,-52.351 H 0 c -28.844,0 -52.337,23.491 -52.337,52.351" /></g><g
           transform="translate(924.5502,691.5103)"
           id="g400"><path
             id="path402"
             style="fill:#ffc19f;fill-opacity:1;fill-rule:nonzero;stroke:none"
             d="m 0,0 c 2.614,-9.185 19.586,-9.326 23.902,2.302 4.314,11.627 4.59,21.001 3.137,27.534 -1.92,8.638 -12.641,19.029 -16.957,7.402 C 5.766,25.61 -1.83,6.437 0,0" /></g><g
           transform="translate(1621.4232,722.3964)"
           id="g404"><path
             id="path406"
             style="fill:#aa3900;fill-opacity:1;fill-rule:nonzero;stroke:none"
             d="m 0,0 c -16.536,-1.334 -33.012,12.7 -30.585,26.681 17.509,22.576 11.433,27.888 -8.331,73.332 -14.998,34.482 -17.005,121.273 -32.465,152.844 -30.679,81.187 -130.265,99.469 -206.19,90.019 -81.588,-10.155 -149.135,-42.741 -164.663,-118.342 -16.189,-78.813 -18.808,-124.556 -31.548,-150.982 -11.544,-23.939 1.971,-33.065 5.003,-47.273 -6.985,-17.077 -23.926,-29.15 -35.026,-20.011 0,-11.108 13.567,-15.9 21.026,-12.762 3.574,1.504 6.445,5.005 6.998,5.194 -3.943,-7.306 -12.317,-20.462 -13.5,-30.234 -2.131,-17.594 9.104,-47.072 36.771,-61.644 -10.157,10.262 -23.324,27.502 -18.7,42.471 6.603,-28.621 35.807,-59.765 80.521,-55.085 43.783,-5.973 192.353,-14.339 229.423,-11.357 37.583,3.023 114.607,13.634 133.196,47.703 0.109,-8.62 -3.614,-14.095 -7.485,-19.422 22.804,18.471 26.911,35.976 24.425,54.388 -1.916,14.184 -13.116,28.836 -18.085,36.874 C -17.615,-9.954 -9.511,-14.059 0,0" /></g><g
           transform="translate(1402.0164,56.7645)"
           id="g408"><path
             id="path410"
             style="fill:#ffc19f;fill-opacity:1;fill-rule:nonzero;stroke:none"
             d="m 0,0 c 0.171,-1.819 59.322,0.426 59.404,2.638 0.709,19.234 -0.122,273.441 0.08,284.594 L -24.929,260.878 C -22.622,241.841 -1.233,13.133 0,0" /></g><g
           transform="translate(1329.9391,56.7645)"
           id="g412"><path
             id="path414"
             style="fill:#ffc19f;fill-opacity:1;fill-rule:nonzero;stroke:none"
             d="m 0,0 c -0.171,-1.819 -59.322,0.426 -59.404,2.638 -0.709,19.234 0.122,273.441 -0.08,284.594 L 24.929,260.878 C 22.622,241.841 1.233,13.133 0,0" /></g><g
           transform="translate(1476.7142,529.185)"
           id="g416"><path
             id="path418"
             style="fill:#f95006;fill-opacity:1;fill-rule:nonzero;stroke:none"
             d="m 0,0 c -0.782,9.007 -7.166,85.788 -13.398,132.975 -25.286,6.822 -60.994,10.553 -96.695,10.086 -39.117,-0.511 -78.225,-5.75 -103.596,-9.986 -7.059,-61.082 -9.22,-93.896 -14.141,-133.269 -2.882,-23.067 -38.852,-185.516 -51.065,-236.912 70.013,-52.493 263.009,-55.721 340.595,0 0,0 -58.242,216.761 -61.7,237.106" /></g><g
           transform="translate(1293.3701,648.0915)"
           id="g420"><path
             id="path422"
             style="fill:#8e1f09;fill-opacity:1;fill-rule:nonzero;stroke:none"
             d="m 0,0 c 0.761,-5.424 -3.017,-10.44 -8.442,-11.202 -5.424,-0.762 -10.44,3.018 -11.203,8.442 -0.761,5.425 3.019,10.44 8.444,11.202 C -5.777,9.204 -0.763,5.424 0,0" /></g><g
           transform="translate(1454.4967,646.8737)"
           id="g424"><path
             id="path426"
             style="fill:#8e1f09;fill-opacity:1;fill-rule:nonzero;stroke:none"
             d="m 0,0 c 0.761,-5.424 -3.019,-10.44 -8.442,-11.202 -5.424,-0.763 -10.44,3.018 -11.203,8.442 -0.761,5.425 3.019,10.44 8.443,11.202 C -5.777,9.204 -0.763,5.424 0,0" /></g><g
           id="g428"><g
             id="g430" /><g
             id="g442"><g
               style="opacity:0.30000299"
               id="g440"
               clip-path="url(#clipPath434)"><g
                 id="g438"
                 transform="translate(1359.036,511.7323)"><path
                   id="path436"
                   style="fill:#ffffff;fill-opacity:1;fill-rule:nonzero;stroke:none"
                   d="m 0,0 c 40.855,-0.392 80.894,3.801 118.779,12.026 -0.515,2.374 -0.9,4.28 -1.101,5.427 -71.434,-15.505 -150.903,-15.6 -227.829,-0.194 -0.186,-1.297 -0.504,-3.235 -0.88,-5.463 C -74.245,4.432 -36.87,0.358 0,0" /></g></g></g></g><g
           transform="translate(1425.0223,661.1879)"
           id="g444"><path
             id="path446"
             style="fill:#ffc19f;fill-opacity:1;fill-rule:nonzero;stroke:none"
             d="m 0,0 c 0.095,3.161 -0.466,5.585 -1.269,8.569 -36.4,5.401 -81.188,2.318 -115.882,-0.958 -0.245,-1.366 -0.806,-2.648 -0.848,-4.064 -0.735,-24.441 25.083,-45.048 57.667,-46.028 C -27.746,-43.462 -0.734,-24.443 0,0" /></g><g
           transform="translate(1408.9906,729.0505)"
           id="g448"><path
             id="path450"
             style="fill:#ffc19f;fill-opacity:1;fill-rule:nonzero;stroke:none"
             d="m 0,0 -0.748,-68.997 c -0.163,-14.836 -19.148,-26.662 -42.409,-26.409 -23.261,0.252 -41.988,12.487 -41.825,27.323 l 0.748,68.997 z" /></g><g
           id="g452"><g
             id="g454" /><g
             id="g466"><g
               style="opacity:0.19000202"
               id="g464"
               clip-path="url(#clipPath458)"><g
                 id="g462"
                 transform="translate(1411.938,657.9728)"><path
                   id="path460"
                   style="fill:#820303;fill-opacity:1;fill-rule:nonzero;stroke:none"
                   d="M 0,0 C -15.125,-18.017 -47.131,-16.048 -71.487,4.399 -95.842,24.846 -103.325,56.027 -88.2,74.044 -73.074,92.061 -41.068,90.092 -16.713,69.645 7.643,49.198 15.125,18.017 0,0" /></g></g></g></g><g
           transform="translate(1170.1956,789.8693)"
           id="g468"><path
             id="path470"
             style="fill:#ffc19f;fill-opacity:1;fill-rule:nonzero;stroke:none"
             d="m 0,0 c 9.998,-36.445 46.577,-59.13 73.933,-55.378 27.355,3.752 32.402,33.747 27.336,68.891 C 96.192,48.657 69.891,74.195 42.546,70.354 5.172,65.102 -9.395,34.254 0,0" /></g><g
           transform="translate(1200.1274,783.5228)"
           id="g472"><path
             id="path474"
             style="fill:#e0956c;fill-opacity:1;fill-rule:nonzero;stroke:none"
             d="M 0,0 C 2.279,-16.164 15.68,-27.642 29.938,-25.638 44.188,-23.631 53.904,-8.9 51.624,7.264 49.349,23.429 35.949,34.904 21.699,32.901 7.44,30.897 -2.269,16.164 0,0" /></g><g
           transform="translate(1572.8981,789.3633)"
           id="g476"><path
             id="path478"
             style="fill:#ffc19f;fill-opacity:1;fill-rule:nonzero;stroke:none"
             d="m 0,0 c -9.903,-36.469 -46.425,-59.243 -73.791,-55.559 -27.366,3.687 -32.49,33.668 -27.512,68.825 4.984,35.156 31.22,60.758 58.58,56.984 C -5.336,65.089 9.306,34.277 0,0" /></g><g
           transform="translate(1541.0876,783.9556)"
           id="g480"><path
             id="path482"
             style="fill:#e0956c;fill-opacity:1;fill-rule:nonzero;stroke:none"
             d="m 0,0 c -2.233,-16.17 -15.606,-27.681 -29.864,-25.713 -14.259,1.971 -24.01,16.678 -21.777,32.848 2.235,16.17 15.605,27.679 29.864,25.711 C -7.516,30.878 2.235,16.17 0,0" /></g><g
           transform="translate(1555.5635,905.8481)"
           id="g484"><path
             id="path486"
             style="fill:#aa3900;fill-opacity:1;fill-rule:nonzero;stroke:none"
             d="m 0,0 c -0.675,-125.617 -76.855,-181.712 -183.11,-181.142 -106.255,0.57 -190.633,57.468 -189.958,183.085 0.673,125.617 91.2,161.083 184.727,162.394 C -92.245,165.684 0.672,125.617 0,0" /></g><g
           transform="translate(1518.4148,945.0691)"
           id="g488"><path
             id="path490"
             style="fill:#ffc19f;fill-opacity:1;fill-rule:nonzero;stroke:none"
             d="m 0,0 c 19.148,-59.502 2.5,-186.192 -18.646,-210.394 -22.431,-25.674 -84.713,-56.465 -130.493,-56.959 -47.61,-0.515 -109.919,29.063 -127.313,57.237 -20.579,33.343 -38.338,146.486 -23.337,198.881 18.1,63.221 79.463,80.796 154.032,80.872 C -75.997,69.707 -16.926,52.592 0,0" /></g><g
           transform="translate(1243.7634,781.4501)"
           id="g492"><path
             id="path494"
             style="fill:#ff9797;fill-opacity:1;fill-rule:nonzero;stroke:none"
             d="m 0,0 c -0.491,-7.295 9.247,-13.89 21.754,-14.732 12.5,-0.843 23.039,4.387 23.531,11.682 C 45.776,4.243 36.033,10.84 23.533,11.682 11.026,12.525 0.491,7.294 0,0" /></g><g
           transform="translate(1452.2302,777.7378)"
           id="g496"><path
             id="path498"
             style="fill:#ff9797;fill-opacity:1;fill-rule:nonzero;stroke:none"
             d="M 0,0 C 0.531,-7.292 11.096,-12.464 23.596,-11.553 36.094,-10.642 45.799,-3.994 45.268,3.298 44.737,10.589 34.17,15.762 21.674,14.851 9.171,13.94 -0.531,7.291 0,0" /></g><g
           transform="translate(1422.8129,766.0764)"
           id="g500"><path
             id="path502"
             style="fill:#701608;fill-opacity:1;fill-rule:nonzero;stroke:none"
             d="m 0,0 c -2.404,12.525 -21.652,9.28 -53.096,9.491 -1.645,0.011 -8.041,0.011 -9.688,0 -31.441,-0.211 -50.692,3.034 -53.092,-9.491 -4.627,-24.126 25.726,-50.478 57.659,-50.575 h 0.554 C -25.73,-50.478 4.626,-24.126 0,0" /></g><g
           transform="translate(1365.1438,714.9989)"
           id="g504"><path
             id="path506"
             style="fill:#dd6b5b;fill-opacity:1;fill-rule:nonzero;stroke:none"
             d="m 0,0 h -0.552 c -10.356,0.038 -21.094,2.975 -31.09,8.468 l -0.609,0.325 0.514,0.457 c 8.297,7.439 19.475,11.539 31.471,11.539 11.978,0 23.154,-4.1 31.471,-11.539 L 31.72,8.793 31.108,8.468 C 21.096,2.975 10.339,0.038 0,0" /></g><g
           transform="translate(1364.8782,759.4771)"
           id="g508"><path
             id="path510"
             style="fill:#ffffff;fill-opacity:1;fill-rule:nonzero;stroke:none"
             d="m 0,0 c -21.973,0 -40.263,6.809 -42.552,15.85 l -0.133,0.553 h 85.37 L 42.552,15.85 C 40.244,6.809 21.952,0 0,0" /></g><g
           transform="translate(1381.203,791.6634)"
           id="g512"><path
             id="path514"
             style="fill:#c4735b;fill-opacity:1;fill-rule:nonzero;stroke:none"
             d="m 0,0 c -0.833,0 -1.567,0.6 -1.71,1.449 -0.999,6.027 -5.766,9.922 -12.142,9.92 -6.409,-0.002 -11.286,-3.976 -12.129,-9.888 -0.139,-0.947 -1.02,-1.608 -1.963,-1.471 -0.949,0.135 -1.606,1.014 -1.471,1.962 1.083,7.573 7.482,12.863 15.563,12.866 C -5.817,14.84 0.438,9.688 1.714,2.019 1.87,1.073 1.231,0.181 0.287,0.023 Z" /></g><g
           transform="translate(1482.5627,910.1892)"
           id="g516"><path
             id="path518"
             style="fill:#6d1403;fill-opacity:1;fill-rule:nonzero;stroke:none"
             d="m 0,0 c -1.162,0.149 -2.269,0.711 -3.089,1.661 -10.486,12.106 -32.609,17.944 -51.502,13.545 -2.621,-0.623 -5.273,1.021 -5.899,3.674 -0.616,2.639 1.027,5.278 3.675,5.899 C -34.275,30.01 -8.547,22.992 4.341,8.083 6.114,6.029 5.891,2.931 3.837,1.157 2.741,0.202 1.339,-0.172 0,0" /></g><g
           transform="translate(1202.9757,930.5878)"
           id="g520"><path
             id="path522"
             style="fill:#aa3900;fill-opacity:1;fill-rule:nonzero;stroke:none"
             d="M 0,0 C -1.031,21.603 10.525,76.165 50.17,98.313 101.29,126.872 201.507,142.119 303.124,80.658 290.976,26.886 189.604,6.189 147.439,8.851 161.101,15.292 179.524,29.113 179.172,39.379 160.252,24.613 2.359,-49.453 0,0" /></g><g
           transform="translate(1248.6589,907.4785)"
           id="g524"><path
             id="path526"
             style="fill:#6d1403;fill-opacity:1;fill-rule:nonzero;stroke:none"
             d="M 0,0 C -1.345,-0.123 -2.732,0.302 -3.793,1.296 -5.781,3.144 -5.891,6.248 -4.044,8.235 9.393,22.666 35.354,28.734 57.682,22.689 60.304,21.973 61.848,19.276 61.137,16.661 60.422,14.032 57.718,12.487 55.109,13.205 36.396,18.297 14.054,13.287 3.146,1.547 2.292,0.628 1.166,0.107 0,0" /></g><g
           transform="translate(1412.1046,850.7251)"
           id="g528"><path
             id="path530"
             style="fill:#f9feff;fill-opacity:1;fill-rule:nonzero;stroke:none"
             d="m 0,0 c -12.112,-17.543 -10.641,-36.923 -0.078,-44.319 15.916,-11.144 53.6,-14.438 67.679,1.545 C 81.24,-27.292 74.694,1.036 52.51,13.289 33.088,24.015 11.724,16.978 0,0" /></g><g
           transform="translate(1482.3054,855.4014)"
           id="g532"><path
             id="path534"
             style="fill:#ad3c23;fill-opacity:1;fill-rule:nonzero;stroke:none"
             d="M 0,0 C -17.248,27.318 -58.847,18.223 -70.606,-5.272 -58.502,12.262 -36.185,17.543 -18.229,7.636 -7.132,1.504 0.744,-9.367 2.844,-21.444 4.516,-31.073 2.283,-41.86 -3.38,-48.29 3.135,-44.102 12.686,-20.088 0,0" /></g><g
           transform="translate(1416.53,839.0362)"
           id="g536"><path
             id="path538"
             style="fill:#872c04;fill-opacity:1;fill-rule:nonzero;stroke:none"
             d="M 0,0 C -4.971,-12.165 0.86,-26.056 13.025,-31.028 25.19,-35.999 39.08,-30.167 44.051,-18.002 49.023,-5.837 43.191,8.054 31.026,13.025 18.861,17.997 4.969,12.165 0,0" /></g><g
           transform="translate(1418.4739,841.1266)"
           id="g540"><path
             id="path542"
             style="fill:#fefffe;fill-opacity:1;fill-rule:nonzero;stroke:none"
             d="m 0,0 c -1.379,-3.375 0.238,-7.229 3.614,-8.608 3.375,-1.38 7.229,0.238 8.608,3.613 1.379,3.375 -0.238,7.23 -3.614,8.609 C 5.233,4.993 1.379,3.375 0,0" /></g><g
           transform="translate(1328.984,851.5048)"
           id="g544"><path
             id="path546"
             style="fill:#f9feff;fill-opacity:1;fill-rule:nonzero;stroke:none"
             d="M 0,0 C 11.79,-17.762 9.964,-37.111 -0.732,-44.313 -16.85,-55.165 -54.587,-57.77 -68.373,-41.532 -81.725,-25.804 -74.664,2.4 -52.259,14.245 -32.645,24.616 -11.412,17.189 0,0" /></g><g
           transform="translate(1258.8779,857.4624)"
           id="g548"><path
             id="path550"
             style="fill:#ad3c23;fill-opacity:1;fill-rule:nonzero;stroke:none"
             d="M 0,0 C 17.746,26.998 59.17,17.145 70.5,-6.56 58.717,11.192 36.499,16.879 18.366,7.301 7.16,1.374 -0.913,-9.352 -3.234,-21.388 -5.081,-30.985 -3.047,-41.812 2.498,-48.344 -3.938,-44.037 -13.048,-19.853 0,0" /></g><g
           transform="translate(1280.1321,840.3024)"
           id="g552"><path
             id="path554"
             style="fill:#872c04;fill-opacity:1;fill-rule:nonzero;stroke:none"
             d="m 0,0 c -4.972,-12.165 0.86,-26.057 13.025,-31.028 12.165,-4.971 26.057,0.861 31.026,13.026 C 49.023,-5.837 43.191,8.054 31.026,13.025 18.861,17.997 4.971,12.165 0,0" /></g><g
           transform="translate(1282.0758,842.3928)"
           id="g556"><path
             id="path558"
             style="fill:#fefffe;fill-opacity:1;fill-rule:nonzero;stroke:none"
             d="m 0,0 c -1.379,-3.375 0.238,-7.229 3.614,-8.609 3.375,-1.379 7.229,0.239 8.608,3.614 1.379,3.375 -0.238,7.23 -3.614,8.609 C 5.233,4.993 1.379,3.375 0,0" /></g><g
           transform="translate(1203.4712,993.3592)"
           id="g560"><path
             id="path562"
             style="fill:#aa3900;fill-opacity:1;fill-rule:nonzero;stroke:none"
             d="M 0,0 C 4.463,5.636 43.448,2.584 64.913,-0.718 10.736,0.628 25.367,-57.613 22.861,-107.712 21.187,-141.186 13.622,-170.258 -5.007,-167.204 -3.521,-132.448 -3.757,-23.249 0,0" /></g><g
           transform="translate(1532.5005,993.3592)"
           id="g564"><path
             id="path566"
             style="fill:#aa3900;fill-opacity:1;fill-rule:nonzero;stroke:none"
             d="m 0,0 c -4.463,5.636 -43.448,2.584 -64.913,-0.718 54.177,1.346 39.548,-56.895 42.055,-106.994 1.671,-33.474 9.236,-62.546 27.865,-59.492 C 3.521,-132.448 3.757,-23.249 0,0" /></g><g
           transform="translate(1206.9943,951.79)"
           id="g568"><path
             id="path570"
             style="fill:#f49000;fill-opacity:1;fill-rule:nonzero;stroke:none"
             d="M 0,0 C 26.999,65.439 79.414,101.549 171.346,102.074 246.802,102.505 305.985,65.126 335.47,-2.893 295.783,56.529 242.485,85.908 165.864,84.007 95.676,82.266 40.436,56.386 0,0" /></g><g
           transform="translate(1248.8845,994.9678)"
           id="g572"><path
             id="path574"
             style="fill:#ffa10b;fill-opacity:1;fill-rule:nonzero;stroke:none"
             d="M 0,0 C 17.014,1.647 41.897,4.645 49.704,12.612 54.627,17.638 40.311,42.466 20.662,45.835 10.274,47.616 -7.986,30.657 -10.508,13.525 -11.781,4.857 -8.102,-0.784 0,0" /></g><g
           transform="translate(1242.7429,987.1868)"
           id="g576"><path
             id="path578"
             style="fill:#ffa10b;fill-opacity:1;fill-rule:nonzero;stroke:none"
             d="m 0,0 c -4.699,-27.272 -11.182,-45.408 -19.671,-47.675 -13.411,-3.582 -41.797,15.391 -39.644,30.558 2.158,15.202 33.174,32.879 47.892,30.998 C -2.209,12.704 1.51,8.759 0,0" /></g><g
           id="g580"><g
             id="g582" /><g
             id="g594"><g
               style="opacity:0.35000604"
               id="g592"
               clip-path="url(#clipPath586)"><g
                 id="g590"
                 transform="translate(1244.6383,1003.0745)"><path
                   id="path588"
                   style="fill:#c12400;fill-opacity:1;fill-rule:nonzero;stroke:none"
                   d="M 0,0 C 1.545,5.094 7.923,18.458 13.727,11.727 21.326,2.919 4.794,-0.219 0,0" /></g></g></g></g><g
           id="g596"><g
             id="g598" /><g
             id="g610"><g
               style="opacity:0.35000604"
               id="g608"
               clip-path="url(#clipPath602)"><g
                 id="g606"
                 transform="translate(1234.86,994.8272)"><path
                   id="path604"
                   style="fill:#c12400;fill-opacity:1;fill-rule:nonzero;stroke:none"
                   d="M 0,0 C -5.676,-1.701 -23.375,-7.937 -13.803,-14.399 -3.837,-21.127 -0.666,-5.642 0,0" /></g></g></g></g><g
           transform="translate(1247.2422,1003.2489)"
           id="g612"><path
             id="path614"
             style="fill:#ffa10b;fill-opacity:1;fill-rule:nonzero;stroke:none"
             d="m 0,0 c 3.662,-4.573 3.688,-10.643 0.059,-13.557 -3.631,-2.914 -9.54,-1.57 -13.2,3.003 C -16.803,-5.981 -16.829,0.089 -13.2,3.003 -9.57,5.918 -3.66,4.573 0,0" /></g><g
           id="g616"><g
             id="g618" /><g
             id="g630"><g
               style="opacity:0.11000103"
               id="g628"
               clip-path="url(#clipPath622)"><g
                 id="g626"
                 transform="translate(1155.0367,17.2355)"><path
                   id="path624"
                   style="fill:#000000;fill-opacity:1;fill-rule:nonzero;stroke:none"
                   d="m 0,0 c 0,-9.519 95.762,-17.236 213.889,-17.236 118.128,0 213.89,7.717 213.89,17.236 0,9.519 -95.762,17.236 -213.89,17.236 C 95.762,17.236 0,9.519 0,0" /></g></g></g></g><g
           transform="translate(1325.3977,131.1588)"
           id="g632"><path
             id="path634"
             style="fill:#0ca39b;fill-opacity:1;fill-rule:nonzero;stroke:none"
             d="M 0,0 C -3.801,0.124 -6.987,-2.905 -7.113,-6.709 L 6.654,-7.179 C 6.778,-3.378 3.801,-0.126 0,0 m -13.765,0.455 c -3.804,0.127 -6.987,-2.89 -7.114,-6.694 l 13.766,-0.47 c 0.126,3.804 -2.853,7.04 -6.652,7.164 m -13.768,0.458 c -3.803,0.124 -6.987,-2.88 -7.113,-6.681 l 13.767,-0.471 c 0.127,3.804 -2.852,7.025 -6.654,7.152 m -27.534,0.911 c -1.889,0.063 -3.62,-0.652 -4.904,-1.845 l 0.187,-4.889 11.373,-0.39 c 0.124,3.803 -2.853,6.999 -6.656,7.124 M -41.3,1.368 c -3.801,0.125 -6.987,-2.865 -7.111,-6.668 l 13.765,-0.468 c 0.126,3.801 -2.853,7.012 -6.654,7.136 M 13.767,-0.455 C 9.964,-0.331 6.778,-3.378 6.654,-7.179 l 8.541,-0.367 c 0.192,1.434 0.503,3.589 0.864,6.051 -0.782,0.344 -1.385,1.01 -2.292,1.04" /></g><g
           transform="translate(1331.3749,51.5738)"
           id="g636"><path
             id="path638"
             style="fill:#fff8b3;fill-opacity:1;fill-rule:nonzero;stroke:none"
             d="m 0,0 c -0.314,-1.992 -65.004,2.669 -65.208,5.098 -1.706,20.276 -0.5,61.961 -0.553,69.577 L 9.218,72.039 C 6.375,51.064 2.013,12.738 0,0" /></g><g
           transform="translate(1276.6006,93.949)"
           id="g640"><path
             id="path642"
             style="fill:#fff8b3;fill-opacity:1;fill-rule:nonzero;stroke:none"
             d="m 0,0 c 1.048,4.775 45.683,-3.262 53.811,-1.832 0.219,-11.044 6.582,-28.84 6.274,-43.845 C 59.872,-56.126 51.186,-63.76 41.639,-65.489 4.775,-72.174 -92.674,-92.302 -96.947,-65.236 -100.453,-43.02 -42.299,-26.143 0,0" /></g><g
           transform="translate(1336.5403,74.6683)"
           id="g644"><path
             id="path646"
             style="fill:#0ca39b;fill-opacity:1;fill-rule:nonzero;stroke:none"
             d="m 0,0 c -0.664,0.824 -2.5,0.9 -3.867,-0.434 -8.998,-5.24 -23.297,-10.618 -35.086,-14.263 -4.017,-1.244 -7.997,-2.193 -11.91,-2.891 -3.831,11.592 -13.751,25.456 -22.874,31.14 -1.908,1.198 -4.343,0.506 -5.456,-1.503 -1.113,-2.015 -0.47,-4.619 1.434,-5.798 7.035,-4.377 15.11,-15.464 18.734,-24.798 -24.536,-3.049 -43.303,-2.774 -52.389,12.966 -28.473,-16.636 -58.228,-22.272 -57.446,-41.302 0.961,-23.373 169.474,-1.206 169.474,-1.206 C 0.282,-34.033 0.407,-12.646 0,0" /></g><g
           transform="translate(1337.4258,35.0803)"
           id="g648"><path
             id="path650"
             style="fill:#057c7c;fill-opacity:1;fill-rule:nonzero;stroke:none"
             d="m 0,0 c -0.038,-3.125 -0.051,-6.137 0.01,-8.813 0,0 -145.742,-26.423 -168.379,-5.538 -0.809,0.748 -1.733,4.476 -1.324,5.675 C -128.918,-17.864 -36.929,-5.625 0,0" /></g><g
           transform="translate(1265.4875,115.321)"
           id="g652"><path
             id="path654"
             style="fill:#0ca39b;fill-opacity:1;fill-rule:nonzero;stroke:none"
             d="m 0,0 c 30.474,-2.408 43.469,-2.507 73.694,-2.521 l 0.405,3.17 C 43.604,0.664 30.691,0.749 0.046,3.167 Z" /></g><g
           transform="translate(1398.3119,123.9799)"
           id="g656"><path
             id="path658"
             style="fill:#0ca39b;fill-opacity:1;fill-rule:nonzero;stroke:none"
             d="M 0,0 13.765,0.47 C 13.641,4.274 10.453,7.303 6.654,7.179 2.853,7.052 -0.126,3.801 0,0 M 13.765,0.47 27.533,0.94 C 27.406,4.744 24.223,7.761 20.419,7.634 16.618,7.51 13.641,4.274 13.765,0.47 M 27.533,0.94 41.298,1.411 C 41.174,5.212 37.988,8.216 34.187,8.092 30.385,7.965 27.406,4.744 27.533,0.94 m 27.532,0.938 11.37,0.391 0.19,4.889 C 65.341,8.351 63.608,9.066 61.719,9.003 57.918,8.878 54.941,5.682 55.065,1.878 M 41.298,1.411 55.065,1.878 C 54.941,5.682 51.753,8.672 47.954,8.547 44.151,8.423 41.174,5.212 41.298,1.411 M -9.405,5.684 c 0.36,-2.463 0.672,-4.617 0.864,-6.051 L 0,0 C -0.126,3.801 -3.312,6.848 -7.113,6.723 -8.022,6.694 -8.623,6.028 -9.405,5.684" /></g><g
           transform="translate(1398.9867,51.5738)"
           id="g660"><path
             id="path662"
             style="fill:#fff8b3;fill-opacity:1;fill-rule:nonzero;stroke:none"
             d="m 0,0 c 0.316,-1.992 65.006,2.669 65.21,5.098 1.706,20.276 0.5,61.961 0.551,69.577 L -9.216,72.039 C -6.374,51.064 -2.014,12.738 0,0" /></g><g
           transform="translate(1453.7609,93.949)"
           id="g664"><path
             id="path666"
             style="fill:#fff8b3;fill-opacity:1;fill-rule:nonzero;stroke:none"
             d="m 0,0 c -1.048,4.775 -45.683,-3.262 -53.811,-1.832 -0.217,-11.044 -6.582,-28.84 -6.272,-43.845 0.213,-10.449 8.899,-18.083 18.446,-19.812 36.864,-6.685 134.31,-26.813 138.584,0.253 C 100.455,-43.02 42.301,-26.143 0,0" /></g><g
           transform="translate(1393.8234,74.6683)"
           id="g668"><path
             id="path670"
             style="fill:#0ca39b;fill-opacity:1;fill-rule:nonzero;stroke:none"
             d="m 0,0 c 0.662,0.824 2.5,0.9 3.867,-0.434 8.998,-5.24 23.297,-10.618 35.086,-14.263 4.017,-1.244 7.997,-2.193 11.91,-2.891 3.829,11.592 13.749,25.456 22.873,31.14 1.909,1.198 4.344,0.506 5.457,-1.503 1.111,-2.015 0.468,-4.619 -1.436,-5.798 -7.033,-4.377 -15.11,-15.464 -18.735,-24.798 24.539,-3.049 43.306,-2.774 52.39,12.966 28.475,-16.636 58.228,-22.272 57.446,-41.302 C 167.898,-70.256 -0.614,-48.089 -0.614,-48.089 -0.285,-34.033 -0.407,-12.646 0,0" /></g><g
           transform="translate(1392.9358,35.0803)"
           id="g672"><path
             id="path674"
             style="fill:#057c7c;fill-opacity:1;fill-rule:nonzero;stroke:none"
             d="m 0,0 c 0.04,-3.125 0.053,-6.137 -0.01,-8.813 0,0 145.744,-26.423 168.381,-5.538 0.809,0.748 1.733,4.476 1.324,5.675 C 128.918,-17.864 36.929,-5.625 0,0" /></g><g
           transform="translate(1464.876,115.321)"
           id="g676"><path
             id="path678"
             style="fill:#0ca39b;fill-opacity:1;fill-rule:nonzero;stroke:none"
             d="m 0,0 c -30.474,-2.408 -43.472,-2.507 -73.694,-2.521 l -0.407,3.17 c 30.497,0.015 43.408,0.1 74.055,2.518 z" /></g><g
           transform="translate(1528.2185,576.0298)"
           id="g680"><path
             id="path682"
             style="fill:#ff9700;fill-opacity:1;fill-rule:nonzero;stroke:none"
             d="m 0,0 -62.938,33.189 -3.757,52.918 91.43,-25.988 z" /></g><g
           transform="translate(1251.3197,525.234)"
           id="g684"><path
             id="path686"
             style="fill:#ffc19f;fill-opacity:1;fill-rule:nonzero;stroke:none"
             d="m 0,0 c 1.022,1.695 -42.413,59.419 -43.434,57.846 -9.607,-14.813 -32.963,-51.542 -35.122,-71.114 -2.558,-23.17 20.001,-37.99 37.328,-31.125 C -24.634,-37.817 -14.604,-24.195 0,0" /></g><g
           transform="translate(1175.7257,556.8504)"
           id="g688"><path
             id="path690"
             style="fill:#ff9700;fill-opacity:1;fill-rule:nonzero;stroke:none"
             d="m 0,0 c 13.571,-15.108 65.52,-45.793 81.959,-52.369 12.597,12.958 30.417,58.816 31.108,61.114 12.404,41.186 17.141,93.919 16.886,95.952 C 87.94,100.072 78.834,100.041 71.883,95.141 54.07,79.128 19.728,24.423 0,0" /></g><g
           transform="translate(1244.7522,616.615)"
           id="g692"><path
             id="path694"
             style="fill:#e0956c;fill-opacity:1;fill-rule:nonzero;stroke:none"
             d="M 0,0 C 6.424,-1.746 1.851,-16.428 -7.716,-24.191 -17.284,-31.954 -36.286,-41.171 -40.482,-36 -39.158,-28.481 -13.211,3.584 0,0" /></g><g
           transform="translate(1455.4475,506.122)"
           id="g696"><path
             id="path698"
             style="fill:#ffffff;fill-opacity:1;fill-rule:nonzero;stroke:none"
             d="m 0,0 h -177.949 c -27.107,0 -49.077,21.973 -49.077,49.078 v 177.95 c 0,27.105 21.97,49.077 49.077,49.077 H 0 c 27.105,0 49.078,-21.972 49.078,-49.077 V 49.078 C 49.078,21.973 27.105,0 0,0" /></g><g
           transform="translate(1276.8494,778.3144)"
           id="g700"><path
             id="path702"
             style="fill:#cc5a51;fill-opacity:1;fill-rule:nonzero;stroke:none"
             d="m 0,0 c -24.532,0 -44.507,-19.974 -44.507,-44.52 v -179.244 c 0,-24.547 19.975,-44.522 44.507,-44.522 h 179.243 c 24.531,0 44.505,19.975 44.505,44.522 V -44.52 C 223.748,-19.974 203.774,0 179.243,0 Z M 179.243,-276.116 H 0 c -28.844,0 -52.337,23.493 -52.337,52.352 V -44.52 c 0,28.859 23.493,52.351 52.337,52.351 h 179.243 c 28.844,0 52.335,-23.492 52.335,-52.351 v -179.244 c 0,-28.859 -23.491,-52.352 -52.335,-52.352" /></g><g
           id="g704"><g
             id="g706" /><g
             id="g718"><g
               style="opacity:0.11000103"
               id="g716"
               clip-path="url(#clipPath710)"><g
                 id="g714"
                 transform="translate(1522.604,691.8936)"><path
                   id="path712"
                   style="fill:#601805;fill-opacity:1;fill-rule:nonzero;stroke:none"
                   d="m 0,0 c -5.722,8.636 -11.385,17.485 -17.117,26.888 -5.921,16.881 -22.355,39.191 -33.232,48 -7.661,6.195 -71.611,31.29 -79.496,31.366 -2.492,0.023 -6.275,-2.454 -6.895,-5.906 -1.471,-8.189 7.055,-14.987 9.954,-17.232 6.607,-5.12 12.652,-8.26 18.5,-11.28 2.688,-1.405 5.377,-2.799 7.993,-4.312 -2.503,-2.639 -3.966,-6.179 -4.044,-10.015 -0.093,-3.9 1.276,-7.481 3.702,-10.041 -1.328,-2.859 -1.671,-6.736 -0.813,-10.904 1.083,-5.254 3.803,-9.485 7.461,-11.93 -0.974,-1.851 -1.212,-3.594 -1.17,-4.943 0.101,-4.267 3.002,-8.335 8.889,-13.029 4.351,-3.472 25.772,-12.317 32.04,-14.175 C -41.582,-46.644 -15.06,-98.681 8.45,-110.123 7.725,-99.41 0.614,-7.997 0,0" /></g></g></g></g><g
           transform="translate(1470.9185,697.0491)"
           id="g720"><path
             id="path722"
             style="fill:#ffc19f;fill-opacity:1;fill-rule:nonzero;stroke:none"
             d="m 0,0 c 6.34,5.636 28.618,28.727 30.438,26.001 23.105,-34.612 48.466,-62.792 75.082,-102.246 3.74,-5.543 2.308,-23.887 -5.48,-32.485 -8.237,-9.095 -25.939,-9.3 -38.749,-3.053 C 38.203,-100.526 18.081,-27.476 0,0" /></g><g
           transform="translate(1399.5221,779.5182)"
           id="g724"><path
             id="path726"
             style="fill:#ffc19f;fill-opacity:1;fill-rule:nonzero;stroke:none"
             d="m 0,0 c 10.497,-8.142 19.548,-11.07 29.388,-17.335 0,0 0.542,-0.534 0.81,-0.975 -8.28,-3.931 -8.349,-15.743 -1.362,-19.437 -5.048,-3.502 -2.901,-20.031 7.402,-22.114 -1.693,-1.421 -8.096,-7.211 3.58,-16.173 13.647,-6.22 24.876,-13.678 31.926,-13.954 20.847,-0.816 33.215,10.674 34.431,16.527 3.165,15.21 -21.25,49.409 -34.064,59.781 C 64.304,-7.358 35.631,2.902 -5.102,17.911 -13.97,14.405 -4.134,3.206 0,0" /></g><g
           transform="translate(1261.0305,569.3527)"
           id="g728"><path
             id="path730"
             style="fill:#ffc19f;fill-opacity:1;fill-rule:nonzero;stroke:none"
             d="M 0,0 C 5.494,4.484 18.123,15.772 24.861,9.603 27.638,7.059 18.393,-3.696 8.429,-13.358 c -3.333,-3.23 -7.08,-4.573 -18.608,-11.311 0.392,-1.209 8.126,-0.013 15.486,4.372 4.006,2.389 10.312,15.298 19.75,8.718 1.618,-1.126 -7.429,-14.887 -12.751,-20.828 -4.866,-5.433 -46.577,-19.548 -60.996,-20.301 -10.267,-0.538 -21.494,10.944 -27.277,23.476 -0.221,10.632 10.419,28.631 20.529,43.87 10.788,9.133 25.715,18.933 34.233,24.258 25.961,9.49 38.417,11.019 39.096,5.657 C 19.192,34.256 0.078,29.025 -10.215,24.073 -18.051,19.443 -25.751,12.838 -29.323,9.38 c 0.464,-2.267 13.167,7.392 20.797,11.874 6.504,3.285 29.997,13.137 31.517,8.516 C 27.075,17.347 14.961,16.689 -1.109,6.441 -7.202,1.965 -17.763,-7.531 -17.889,-8.918 -16.308,-10.249 -7.67,-5.231 0,0" /></g><g
           transform="translate(503.805,722.3964)"
           id="g732"><path
             id="path734"
             style="fill:#aa3900;fill-opacity:1;fill-rule:nonzero;stroke:none"
             d="m 0,0 c -16.536,-1.334 -33.012,12.7 -30.585,26.681 17.509,22.576 11.433,27.888 -8.33,73.332 -14.999,34.482 -17.006,121.273 -32.467,152.844 -30.678,81.187 -130.264,99.469 -206.189,90.019 -81.588,-10.155 -149.135,-42.741 -164.662,-118.342 -16.19,-78.813 -18.809,-124.556 -31.549,-150.982 -11.544,-23.939 1.971,-33.065 5.003,-47.273 -6.985,-17.077 -23.926,-29.15 -35.026,-20.011 0,-11.108 13.567,-15.9 21.026,-12.762 3.574,1.504 6.446,5.005 6.998,5.194 -3.943,-7.306 -12.317,-20.462 -13.5,-30.234 -2.131,-17.594 9.104,-47.072 36.772,-61.644 -10.158,10.262 -23.325,27.502 -18.701,42.471 6.603,-28.621 35.808,-59.765 80.521,-55.085 43.781,-5.973 192.353,-14.339 229.423,-11.357 37.583,3.023 114.607,13.634 133.196,47.703 0.107,-8.62 -3.614,-14.095 -7.485,-19.422 22.802,18.471 26.911,35.976 24.425,54.388 -1.916,14.184 -13.118,28.836 -18.085,36.874 C -17.615,-9.954 -9.511,-14.059 0,0" /></g><g
           transform="translate(284.3981,56.7645)"
           id="g736"><path
             id="path738"
             style="fill:#ffc19f;fill-opacity:1;fill-rule:nonzero;stroke:none"
             d="m 0,0 c 0.171,-1.819 59.322,0.426 59.404,2.638 0.708,19.234 -0.122,273.441 0.08,284.594 L -24.929,260.878 C -22.622,241.841 -1.233,13.133 0,0" /></g><g
           transform="translate(212.3208,56.7645)"
           id="g740"><path
             id="path742"
             style="fill:#ffc19f;fill-opacity:1;fill-rule:nonzero;stroke:none"
             d="m 0,0 c -0.171,-1.819 -59.322,0.426 -59.404,2.638 -0.709,19.234 0.122,273.441 -0.08,284.594 L 24.929,260.878 C 22.622,241.841 1.233,13.133 0,0" /></g><g
           transform="translate(359.096,529.185)"
           id="g744"><path
             id="path746"
             style="fill:#f95006;fill-opacity:1;fill-rule:nonzero;stroke:none"
             d="m 0,0 c -0.782,9.007 -7.166,85.788 -13.398,132.975 -25.286,6.822 -60.994,10.553 -96.694,10.086 -39.118,-0.511 -78.226,-5.75 -103.597,-9.986 -7.059,-61.082 -9.22,-93.896 -14.141,-133.269 -2.882,-23.067 -38.852,-185.516 -51.065,-236.912 70.013,-52.493 263.009,-55.721 340.595,0 0,0 -58.242,216.761 -61.7,237.106" /></g><g
           transform="translate(175.752,648.0915)"
           id="g748"><path
             id="path750"
             style="fill:#8e1f09;fill-opacity:1;fill-rule:nonzero;stroke:none"
             d="m 0,0 c 0.761,-5.424 -3.019,-10.44 -8.442,-11.202 -5.425,-0.762 -10.44,3.018 -11.203,8.442 -0.761,5.425 3.019,10.44 8.443,11.202 C -5.777,9.204 -0.763,5.424 0,0" /></g><g
           transform="translate(336.8785,646.8737)"
           id="g752"><path
             id="path754"
             style="fill:#8e1f09;fill-opacity:1;fill-rule:nonzero;stroke:none"
             d="m 0,0 c 0.761,-5.424 -3.019,-10.44 -8.444,-11.202 -5.423,-0.763 -10.438,3.018 -11.201,8.442 -0.762,5.425 3.019,10.44 8.443,11.202 C -5.779,9.204 -0.763,5.424 0,0" /></g><g
           id="g756"><g
             id="g758" /><g
             id="g770"><g
               style="opacity:0.30000299"
               id="g768"
               clip-path="url(#clipPath762)"><g
                 id="g766"
                 transform="translate(241.4178,511.7323)"><path
                   id="path764"
                   style="fill:#ffffff;fill-opacity:1;fill-rule:nonzero;stroke:none"
                   d="m 0,0 c 40.855,-0.392 80.894,3.801 118.779,12.026 -0.515,2.374 -0.901,4.28 -1.101,5.427 -71.434,-15.505 -150.903,-15.6 -227.83,-0.194 -0.185,-1.297 -0.503,-3.235 -0.879,-5.463 C -74.245,4.432 -36.87,0.358 0,0" /></g></g></g></g><g
           transform="translate(307.4041,661.1879)"
           id="g772"><path
             id="path774"
             style="fill:#ffc19f;fill-opacity:1;fill-rule:nonzero;stroke:none"
             d="m 0,0 c 0.095,3.161 -0.468,5.585 -1.269,8.569 -36.4,5.401 -81.19,2.318 -115.882,-0.958 -0.247,-1.366 -0.806,-2.648 -0.85,-4.064 -0.733,-24.441 25.085,-45.048 57.669,-46.028 C -27.746,-43.462 -0.736,-24.443 0,0" /></g><g
           transform="translate(291.3724,729.0505)"
           id="g776"><path
             id="path778"
             style="fill:#ffc19f;fill-opacity:1;fill-rule:nonzero;stroke:none"
             d="m 0,0 -0.748,-68.997 c -0.163,-14.836 -19.148,-26.662 -42.409,-26.409 -23.262,0.252 -41.988,12.487 -41.825,27.323 l 0.748,68.997 z" /></g><g
           id="g780"><g
             id="g782" /><g
             id="g794"><g
               style="opacity:0.19000202"
               id="g792"
               clip-path="url(#clipPath786)"><g
                 id="g790"
                 transform="translate(294.3199,657.9728)"><path
                   id="path788"
                   style="fill:#820303;fill-opacity:1;fill-rule:nonzero;stroke:none"
                   d="M 0,0 C -15.125,-18.017 -47.132,-16.048 -71.487,4.399 -95.842,24.846 -103.325,56.027 -88.2,74.044 -73.074,92.061 -41.068,90.092 -16.713,69.645 7.643,49.198 15.125,18.017 0,0" /></g></g></g></g><g
           transform="translate(52.5774,789.8693)"
           id="g796"><path
             id="path798"
             style="fill:#ffc19f;fill-opacity:1;fill-rule:nonzero;stroke:none"
             d="m 0,0 c 9.998,-36.445 46.577,-59.13 73.933,-55.378 27.355,3.752 32.402,33.747 27.334,68.891 C 96.192,48.657 69.891,74.195 42.546,70.354 5.172,65.102 -9.395,34.254 0,0" /></g><g
           transform="translate(82.5092,783.5228)"
           id="g800"><path
             id="path802"
             style="fill:#e0956c;fill-opacity:1;fill-rule:nonzero;stroke:none"
             d="M 0,0 C 2.279,-16.164 15.68,-27.642 29.938,-25.638 44.188,-23.631 53.904,-8.9 51.624,7.264 49.35,23.429 35.949,34.904 21.699,32.901 7.44,30.897 -2.268,16.164 0,0" /></g><g
           transform="translate(455.2798,789.3633)"
           id="g804"><path
             id="path806"
             style="fill:#ffc19f;fill-opacity:1;fill-rule:nonzero;stroke:none"
             d="m 0,0 c -9.903,-36.469 -46.425,-59.243 -73.791,-55.559 -27.366,3.687 -32.49,33.668 -27.514,68.825 4.986,35.156 31.222,60.758 58.58,56.984 C -5.336,65.089 9.306,34.277 0,0" /></g><g
           transform="translate(423.4694,783.9556)"
           id="g808"><path
             id="path810"
             style="fill:#e0956c;fill-opacity:1;fill-rule:nonzero;stroke:none"
             d="m 0,0 c -2.233,-16.17 -15.606,-27.681 -29.864,-25.713 -14.259,1.971 -24.012,16.678 -21.777,32.848 2.235,16.17 15.606,27.679 29.864,25.711 C -7.516,30.878 2.235,16.17 0,0" /></g><g
           transform="translate(437.9431,905.8481)"
           id="g812"><path
             id="path814"
             style="fill:#aa3900;fill-opacity:1;fill-rule:nonzero;stroke:none"
             d="m 0,0 c -0.673,-125.617 -76.853,-181.712 -183.108,-181.142 -106.255,0.57 -190.632,57.468 -189.958,183.085 0.673,125.617 91.2,161.083 184.727,162.394 C -92.243,165.684 0.675,125.617 0,0" /></g><g
           transform="translate(400.7965,945.0691)"
           id="g816"><path
             id="path818"
             style="fill:#ffc19f;fill-opacity:1;fill-rule:nonzero;stroke:none"
             d="m 0,0 c 19.148,-59.502 2.5,-186.192 -18.646,-210.394 -22.43,-25.674 -84.715,-56.465 -130.493,-56.959 -47.61,-0.515 -109.919,29.063 -127.313,57.237 -20.579,33.343 -38.337,146.486 -23.337,198.881 18.1,63.221 79.463,80.796 154.032,80.872 C -75.997,69.707 -16.926,52.592 0,0" /></g><g
           transform="translate(126.1452,781.4501)"
           id="g820"><path
             id="path822"
             style="fill:#ff9797;fill-opacity:1;fill-rule:nonzero;stroke:none"
             d="m 0,0 c -0.491,-7.295 9.247,-13.89 21.754,-14.732 12.5,-0.843 23.04,4.387 23.531,11.682 C 45.776,4.243 36.033,10.84 23.533,11.682 11.027,12.525 0.491,7.294 0,0" /></g><g
           transform="translate(334.612,777.7378)"
           id="g824"><path
             id="path826"
             style="fill:#ff9797;fill-opacity:1;fill-rule:nonzero;stroke:none"
             d="M 0,0 C 0.531,-7.292 11.096,-12.464 23.596,-11.553 36.095,-10.642 45.799,-3.994 45.268,3.298 44.737,10.589 34.17,15.762 21.674,14.851 9.171,13.94 -0.531,7.291 0,0" /></g><g
           transform="translate(305.1946,766.0764)"
           id="g828"><path
             id="path830"
             style="fill:#701608;fill-opacity:1;fill-rule:nonzero;stroke:none"
             d="m 0,0 c -2.404,12.525 -21.652,9.28 -53.096,9.491 -1.645,0.011 -8.041,0.011 -9.688,0 -31.443,-0.211 -50.692,3.034 -53.094,-9.491 -4.625,-24.126 25.728,-50.478 57.661,-50.575 h 0.554 C -25.73,-50.478 4.624,-24.126 0,0" /></g><g
           transform="translate(247.5256,714.9989)"
           id="g832"><path
             id="path834"
             style="fill:#dd6b5b;fill-opacity:1;fill-rule:nonzero;stroke:none"
             d="m 0,0 h -0.552 c -10.356,0.038 -21.094,2.975 -31.09,8.468 l -0.609,0.325 0.514,0.457 c 8.297,7.439 19.473,11.539 31.471,11.539 11.978,0 23.154,-4.1 31.471,-11.539 L 31.72,8.793 31.108,8.468 C 21.096,2.975 10.339,0.038 0,0" /></g><g
           transform="translate(247.26,759.4771)"
           id="g836"><path
             id="path838"
             style="fill:#ffffff;fill-opacity:1;fill-rule:nonzero;stroke:none"
             d="m 0,0 c -21.973,0 -40.265,6.809 -42.552,15.85 l -0.133,0.553 h 85.37 L 42.552,15.85 C 40.244,6.809 21.952,0 0,0" /></g><g
           transform="translate(261.1096,791.6634)"
           id="g840"><path
             id="path842"
             style="fill:#c4735b;fill-opacity:1;fill-rule:nonzero;stroke:none"
             d="m 0,0 c -0.833,0 -1.566,0.6 -1.71,1.449 -0.999,6.027 -5.766,9.922 -12.142,9.92 -6.411,-0.002 -11.286,-3.976 -12.131,-9.888 -0.137,-0.947 -1.02,-1.608 -1.961,-1.471 -0.948,0.135 -1.606,1.014 -1.471,1.962 1.081,7.573 7.482,12.863 15.563,12.866 C -5.817,14.84 0.439,9.688 1.714,2.019 1.87,1.073 1.231,0.181 0.287,0.023 Z" /></g><g
           transform="translate(364.9445,910.1892)"
           id="g844"><path
             id="path846"
             style="fill:#6d1403;fill-opacity:1;fill-rule:nonzero;stroke:none"
             d="m 0,0 c -1.162,0.149 -2.269,0.711 -3.089,1.661 -10.489,12.106 -32.609,17.944 -51.502,13.545 -2.62,-0.623 -5.273,1.021 -5.899,3.674 -0.615,2.639 1.027,5.278 3.673,5.899 C -34.275,30.01 -8.547,22.992 4.341,8.083 6.114,6.029 5.891,2.931 3.837,1.157 2.741,0.202 1.339,-0.172 0,0" /></g><g
           transform="translate(85.3555,930.5878)"
           id="g848"><path
             id="path850"
             style="fill:#aa3900;fill-opacity:1;fill-rule:nonzero;stroke:none"
             d="m 0,0 c -1.031,21.603 10.527,76.165 50.172,98.313 51.12,28.559 151.337,43.806 252.954,-17.655 C 290.978,26.886 189.606,6.189 147.441,8.851 c 13.66,6.441 32.085,20.262 31.733,30.528 C 160.254,24.613 2.361,-49.453 0,0" /></g><g
           transform="translate(131.0407,907.4785)"
           id="g852"><path
             id="path854"
             style="fill:#6d1403;fill-opacity:1;fill-rule:nonzero;stroke:none"
             d="M 0,0 C -1.345,-0.123 -2.732,0.302 -3.793,1.296 -5.781,3.144 -5.891,6.248 -4.044,8.235 9.393,22.666 35.355,28.734 57.682,22.689 60.304,21.973 61.848,19.276 61.137,16.661 60.423,14.032 57.717,12.487 55.11,13.205 36.396,18.297 14.054,13.287 3.146,1.547 2.292,0.628 1.166,0.107 0,0" /></g><g
           transform="translate(294.4864,850.7251)"
           id="g856"><path
             id="path858"
             style="fill:#f9feff;fill-opacity:1;fill-rule:nonzero;stroke:none"
             d="m 0,0 c -12.114,-17.543 -10.641,-36.923 -0.078,-44.319 15.916,-11.144 53.6,-14.438 67.679,1.545 C 81.24,-27.292 74.694,1.036 52.51,13.289 33.088,24.015 11.722,16.978 0,0" /></g><g
           transform="translate(364.6873,855.4014)"
           id="g860"><path
             id="path862"
             style="fill:#ad3c23;fill-opacity:1;fill-rule:nonzero;stroke:none"
             d="M 0,0 C -17.25,27.318 -58.848,18.223 -70.606,-5.272 -58.502,12.262 -36.185,17.543 -18.229,7.636 -7.132,1.504 0.744,-9.367 2.844,-21.444 4.516,-31.073 2.283,-41.86 -3.38,-48.29 3.135,-44.102 12.686,-20.088 0,0" /></g><g
           transform="translate(298.9097,839.0362)"
           id="g864"><path
             id="path866"
             style="fill:#872c04;fill-opacity:1;fill-rule:nonzero;stroke:none"
             d="m 0,0 c -4.969,-12.165 0.862,-26.056 13.027,-31.028 12.163,-4.971 26.055,0.861 31.026,13.026 C 49.025,-5.837 43.193,8.054 31.028,13.025 18.863,17.997 4.971,12.165 0,0" /></g><g
           transform="translate(300.8557,841.1266)"
           id="g868"><path
             id="path870"
             style="fill:#fefffe;fill-opacity:1;fill-rule:nonzero;stroke:none"
             d="m 0,0 c -1.379,-3.375 0.238,-7.229 3.614,-8.608 3.375,-1.38 7.229,0.238 8.608,3.613 1.379,3.375 -0.238,7.23 -3.614,8.609 C 5.233,4.993 1.379,3.375 0,0" /></g><g
           transform="translate(211.3637,851.5048)"
           id="g872"><path
             id="path874"
             style="fill:#f9feff;fill-opacity:1;fill-rule:nonzero;stroke:none"
             d="M 0,0 C 11.792,-17.762 9.966,-37.111 -0.729,-44.313 -16.848,-55.165 -54.584,-57.77 -68.371,-41.532 -81.723,-25.804 -74.662,2.4 -52.257,14.245 -32.643,24.616 -11.41,17.189 0,0" /></g><g
           transform="translate(141.2598,857.4624)"
           id="g876"><path
             id="path878"
             style="fill:#ad3c23;fill-opacity:1;fill-rule:nonzero;stroke:none"
             d="M 0,0 C 17.746,26.998 59.17,17.145 70.5,-6.56 58.717,11.192 36.499,16.879 18.366,7.301 7.16,1.374 -0.913,-9.352 -3.234,-21.388 -5.081,-30.985 -3.046,-41.812 2.498,-48.344 -3.938,-44.037 -13.048,-19.853 0,0" /></g><g
           transform="translate(162.5138,840.3024)"
           id="g880"><path
             id="path882"
             style="fill:#872c04;fill-opacity:1;fill-rule:nonzero;stroke:none"
             d="m 0,0 c -4.971,-12.165 0.86,-26.057 13.025,-31.028 12.165,-4.971 26.057,0.861 31.026,13.026 C 49.023,-5.837 43.191,8.054 31.026,13.025 18.861,17.997 4.969,12.165 0,0" /></g><g
           transform="translate(164.4577,842.3928)"
           id="g884"><path
             id="path886"
             style="fill:#fefffe;fill-opacity:1;fill-rule:nonzero;stroke:none"
             d="m 0,0 c -1.379,-3.375 0.238,-7.229 3.614,-8.609 3.375,-1.379 7.229,0.239 8.608,3.614 1.379,3.375 -0.238,7.23 -3.614,8.609 C 5.233,4.993 1.379,3.375 0,0" /></g><g
           transform="translate(85.853,993.3592)"
           id="g888"><path
             id="path890"
             style="fill:#aa3900;fill-opacity:1;fill-rule:nonzero;stroke:none"
             d="M 0,0 C 4.463,5.636 43.448,2.584 64.913,-0.718 10.736,0.628 25.365,-57.613 22.859,-107.712 21.187,-141.186 13.622,-170.258 -5.007,-167.204 -3.521,-132.448 -3.757,-23.249 0,0" /></g><g
           transform="translate(414.8822,993.3592)"
           id="g892"><path
             id="path894"
             style="fill:#aa3900;fill-opacity:1;fill-rule:nonzero;stroke:none"
             d="m 0,0 c -4.463,5.636 -43.448,2.584 -64.913,-0.718 54.177,1.346 39.548,-56.895 42.055,-106.994 1.672,-33.474 9.236,-62.546 27.865,-59.492 C 3.521,-132.448 3.757,-23.249 0,0" /></g><g
           transform="translate(89.3761,951.79)"
           id="g896"><path
             id="path898"
             style="fill:#f49000;fill-opacity:1;fill-rule:nonzero;stroke:none"
             d="M 0,0 C 26.999,65.439 79.414,101.549 171.345,102.074 246.802,102.505 305.985,65.126 335.47,-2.893 295.783,56.529 242.485,85.908 165.864,84.007 95.676,82.266 40.436,56.386 0,0" /></g><g
           transform="translate(131.2663,994.9678)"
           id="g900"><path
             id="path902"
             style="fill:#ffa10b;fill-opacity:1;fill-rule:nonzero;stroke:none"
             d="M 0,0 C 17.014,1.647 41.897,4.645 49.704,12.612 54.627,17.638 40.311,42.466 20.662,45.835 10.274,47.616 -7.986,30.657 -10.508,13.525 -11.783,4.857 -8.102,-0.784 0,0" /></g><g
           transform="translate(125.1248,987.1868)"
           id="g904"><path
             id="path906"
             style="fill:#ffa10b;fill-opacity:1;fill-rule:nonzero;stroke:none"
             d="m 0,0 c -4.702,-27.272 -11.183,-45.408 -19.673,-47.675 -13.411,-3.582 -41.795,15.391 -39.643,30.558 2.157,15.202 33.175,32.879 47.893,30.998 C -2.21,12.704 1.507,8.759 0,0" /></g><g
           id="g908"><g
             id="g910" /><g
             id="g922"><g
               style="opacity:0.35000604"
               id="g920"
               clip-path="url(#clipPath914)"><g
                 id="g918"
                 transform="translate(127.0202,1003.0745)"><path
                   id="path916"
                   style="fill:#c12400;fill-opacity:1;fill-rule:nonzero;stroke:none"
                   d="M 0,0 C 1.545,5.094 7.923,18.458 13.727,11.727 21.326,2.919 4.794,-0.219 0,0" /></g></g></g></g><g
           id="g924"><g
             id="g926" /><g
             id="g938"><g
               style="opacity:0.35000604"
               id="g936"
               clip-path="url(#clipPath930)"><g
                 id="g934"
                 transform="translate(117.2418,994.8272)"><path
                   id="path932"
                   style="fill:#c12400;fill-opacity:1;fill-rule:nonzero;stroke:none"
                   d="M 0,0 C -5.676,-1.701 -23.375,-7.937 -13.803,-14.399 -3.837,-21.127 -0.666,-5.642 0,0" /></g></g></g></g><g
           transform="translate(129.624,1003.2489)"
           id="g940"><path
             id="path942"
             style="fill:#ffa10b;fill-opacity:1;fill-rule:nonzero;stroke:none"
             d="m 0,0 c 3.662,-4.573 3.687,-10.643 0.059,-13.557 -3.63,-2.914 -9.54,-1.57 -13.2,3.003 C -16.803,-5.981 -16.829,0.089 -13.2,3.003 -9.57,5.918 -3.66,4.573 0,0" /></g><g
           id="g944"><g
             id="g946" /><g
             id="g958"><g
               style="opacity:0.11000103"
               id="g956"
               clip-path="url(#clipPath950)"><g
                 id="g954"
                 transform="translate(37.4185,17.2355)"><path
                   id="path952"
                   style="fill:#000000;fill-opacity:1;fill-rule:nonzero;stroke:none"
                   d="m 0,0 c 0,-9.519 95.762,-17.236 213.889,-17.236 118.128,0 213.89,7.717 213.89,17.236 0,9.519 -95.762,17.236 -213.89,17.236 C 95.762,17.236 0,9.519 0,0" /></g></g></g></g><g
           transform="translate(207.7795,131.1588)"
           id="g960"><path
             id="path962"
             style="fill:#0ca39b;fill-opacity:1;fill-rule:nonzero;stroke:none"
             d="M 0,0 C -3.801,0.124 -6.987,-2.905 -7.113,-6.709 L 6.652,-7.179 C 6.778,-3.378 3.801,-0.126 0,0 m -13.765,0.455 c -3.804,0.127 -6.989,-2.89 -7.114,-6.694 l 13.766,-0.47 c 0.126,3.804 -2.853,7.04 -6.652,7.164 m -13.768,0.458 c -3.803,0.124 -6.987,-2.88 -7.113,-6.681 l 13.767,-0.471 c 0.125,3.804 -2.852,7.025 -6.654,7.152 m -27.534,0.911 c -1.889,0.063 -3.62,-0.652 -4.904,-1.845 l 0.187,-4.889 11.373,-0.39 c 0.124,3.803 -2.853,6.999 -6.656,7.124 M -41.3,1.368 c -3.801,0.125 -6.987,-2.865 -7.111,-6.668 l 13.765,-0.468 c 0.126,3.801 -2.853,7.012 -6.654,7.136 M 13.767,-0.455 C 9.964,-0.331 6.778,-3.378 6.652,-7.179 l 8.543,-0.367 c 0.192,1.434 0.502,3.589 0.864,6.051 -0.782,0.344 -1.385,1.01 -2.292,1.04" /></g><g
           transform="translate(213.7566,51.5738)"
           id="g964"><path
             id="path966"
             style="fill:#fff8b3;fill-opacity:1;fill-rule:nonzero;stroke:none"
             d="m 0,0 c -0.314,-1.992 -65.006,2.669 -65.208,5.098 -1.708,20.276 -0.5,61.961 -0.553,69.577 L 9.218,72.039 C 6.376,51.064 2.013,12.738 0,0" /></g><g
           transform="translate(158.9824,93.949)"
           id="g968"><path
             id="path970"
             style="fill:#fff8b3;fill-opacity:1;fill-rule:nonzero;stroke:none"
             d="m 0,0 c 1.048,4.775 45.683,-3.262 53.811,-1.832 0.219,-11.044 6.582,-28.84 6.274,-43.845 C 59.87,-56.126 51.184,-63.76 41.637,-65.489 4.773,-72.174 -92.674,-92.302 -96.947,-65.236 -100.453,-43.02 -42.299,-26.143 0,0" /></g><g
           transform="translate(218.922,74.6683)"
           id="g972"><path
             id="path974"
             style="fill:#0ca39b;fill-opacity:1;fill-rule:nonzero;stroke:none"
             d="m 0,0 c -0.664,0.824 -2.501,0.9 -3.867,-0.434 -9,-5.24 -23.297,-10.618 -35.086,-14.263 -4.017,-1.244 -7.997,-2.193 -11.91,-2.891 -3.831,11.592 -13.751,25.456 -22.873,31.14 -1.909,1.198 -4.344,0.506 -5.457,-1.503 -1.113,-2.015 -0.47,-4.619 1.434,-5.798 7.035,-4.377 15.11,-15.464 18.734,-24.798 -24.536,-3.049 -43.302,-2.774 -52.389,12.966 -28.473,-16.636 -58.228,-22.272 -57.446,-41.302 0.962,-23.373 169.474,-1.206 169.474,-1.206 C 0.283,-34.033 0.405,-12.646 0,0" /></g><g
           transform="translate(219.8075,35.0803)"
           id="g976"><path
             id="path978"
             style="fill:#057c7c;fill-opacity:1;fill-rule:nonzero;stroke:none"
             d="m 0,0 c -0.038,-3.125 -0.051,-6.137 0.01,-8.813 0,0 -145.741,-26.423 -168.379,-5.538 -0.809,0.748 -1.733,4.476 -1.324,5.675 C -128.918,-17.864 -36.929,-5.625 0,0" /></g><g
           transform="translate(147.8694,115.321)"
           id="g980"><path
             id="path982"
             style="fill:#0ca39b;fill-opacity:1;fill-rule:nonzero;stroke:none"
             d="m 0,0 c 30.474,-2.408 43.469,-2.507 73.694,-2.521 l 0.405,3.17 C 43.604,0.664 30.691,0.749 0.046,3.167 Z" /></g><g
           transform="translate(280.6938,123.9799)"
           id="g984"><path
             id="path986"
             style="fill:#0ca39b;fill-opacity:1;fill-rule:nonzero;stroke:none"
             d="M 0,0 13.765,0.47 C 13.641,4.274 10.453,7.303 6.654,7.179 2.85,7.052 -0.126,3.801 0,0 M 13.765,0.47 27.533,0.94 C 27.406,4.744 24.223,7.761 20.419,7.634 16.618,7.51 13.641,4.274 13.765,0.47 M 27.533,0.94 41.298,1.411 C 41.171,5.212 37.988,8.216 34.186,8.092 30.385,7.965 27.406,4.744 27.533,0.94 m 27.532,0.938 11.37,0.391 0.19,4.889 C 65.339,8.351 63.608,9.066 61.719,9.003 57.918,8.878 54.939,5.682 55.065,1.878 M 41.298,1.411 55.065,1.878 C 54.939,5.682 51.753,8.672 47.954,8.547 44.15,8.423 41.171,5.212 41.298,1.411 M -9.407,5.684 c 0.362,-2.463 0.674,-4.617 0.866,-6.051 L 0,0 C -0.126,3.801 -3.312,6.848 -7.116,6.723 -8.022,6.694 -8.623,6.028 -9.407,5.684" /></g><g
           transform="translate(281.3684,51.5738)"
           id="g988"><path
             id="path990"
             style="fill:#fff8b3;fill-opacity:1;fill-rule:nonzero;stroke:none"
             d="m 0,0 c 0.316,-1.992 65.006,2.669 65.21,5.098 1.706,20.276 0.5,61.961 0.551,69.577 L -9.215,72.039 C -6.376,51.064 -2.013,12.738 0,0" /></g><g
           transform="translate(336.1427,93.949)"
           id="g992"><path
             id="path994"
             style="fill:#fff8b3;fill-opacity:1;fill-rule:nonzero;stroke:none"
             d="m 0,0 c -1.048,4.775 -45.683,-3.262 -53.811,-1.832 -0.217,-11.044 -6.582,-28.84 -6.272,-43.845 0.213,-10.449 8.899,-18.083 18.446,-19.812 36.864,-6.685 134.31,-26.813 138.584,0.253 C 100.453,-43.02 42.301,-26.143 0,0" /></g><g
           transform="translate(276.2052,74.6683)"
           id="g996"><path
             id="path998"
             style="fill:#0ca39b;fill-opacity:1;fill-rule:nonzero;stroke:none"
             d="m 0,0 c 0.662,0.824 2.5,0.9 3.867,-0.434 8.998,-5.24 23.297,-10.618 35.086,-14.263 4.015,-1.244 7.997,-2.193 11.91,-2.891 3.829,11.592 13.749,25.456 22.874,31.14 1.908,1.198 4.341,0.506 5.456,-1.503 1.111,-2.015 0.468,-4.619 -1.436,-5.798 -7.033,-4.377 -15.11,-15.464 -18.735,-24.798 24.539,-3.049 43.305,-2.774 52.39,12.966 28.475,-16.636 58.228,-22.272 57.446,-41.302 C 167.898,-70.256 -0.614,-48.089 -0.614,-48.089 -0.285,-34.033 -0.407,-12.646 0,0" /></g><g
           transform="translate(275.3175,35.0803)"
           id="g1000"><path
             id="path1002"
             style="fill:#057c7c;fill-opacity:1;fill-rule:nonzero;stroke:none"
             d="m 0,0 c 0.038,-3.125 0.053,-6.137 -0.01,-8.813 0,0 145.744,-26.423 168.381,-5.538 0.809,0.748 1.731,4.476 1.322,5.675 C 128.918,-17.864 36.929,-5.625 0,0" /></g><g
           transform="translate(347.2578,115.321)"
           id="g1004"><path
             id="path1006"
             style="fill:#0ca39b;fill-opacity:1;fill-rule:nonzero;stroke:none"
             d="m 0,0 c -30.474,-2.408 -43.472,-2.507 -73.697,-2.521 l -0.404,3.17 c 30.497,0.015 43.408,0.1 74.055,2.518 z" /></g><g
           transform="translate(116.2656,518.9617)"
           id="g1008"><path
             id="path1010"
             style="fill:#ffc19f;fill-opacity:1;fill-rule:nonzero;stroke:none"
             d="M 0,0 C 1.023,1.695 -42.413,59.421 -43.436,57.846 -53.043,43.035 -76.399,6.304 -78.558,-13.266 -81.114,-36.438 -59.87,-50.264 -41.433,-47.536 -23.476,-44.88 -14.604,-24.193 0,0" /></g><g
           transform="translate(54.2472,559.7472)"
           id="g1012"><path
             id="path1014"
             style="fill:#ff9700;fill-opacity:1;fill-rule:nonzero;stroke:none"
             d="m 0,0 c 18.368,-10.974 57.074,-36.215 77.649,-42.375 27.565,35.287 53.489,142.937 53.463,146.356 C 106.913,102.452 78.794,99.264 71.017,95.047 57.222,76.888 19.77,29.605 0,0" /></g><g
           transform="translate(457.8794,597.0076)"
           id="g1016"><path
             id="path1018"
             style="fill:#ff9700;fill-opacity:1;fill-rule:nonzero;stroke:none"
             d="m 0,0 c -16.28,-18.161 -40.705,-50.724 -56.986,-61.997 -14.716,10.02 -28.494,18.475 -42.898,27.555 -4.271,2.693 -37.056,111.833 -32.011,111.599 22.648,-1.049 49.869,-2.283 55.761,-7.102 C -61.683,58.24 -20.666,18.787 0,0" /></g><g
           transform="translate(138.6813,538.0842)"
           id="g1020"><path
             id="path1022"
             style="fill:#e0956c;fill-opacity:1;fill-rule:nonzero;stroke:none"
             d="m 0,0 c 4.383,-5.012 -7.558,-14.701 -19.825,-15.861 -12.266,-1.162 -33.193,1.693 -33.819,8.322 C -48.378,-2.011 -9.011,10.305 0,0" /></g><g
           transform="translate(336.3556,424.6016)"
           id="g1024"><path
             id="path1026"
             style="fill:#ffffff;fill-opacity:1;fill-rule:nonzero;stroke:none"
             d="m 0,0 h -177.949 c -27.106,0 -49.077,21.973 -49.077,49.078 v 177.95 c 0,27.105 21.971,49.077 49.077,49.077 H 0 c 27.105,0 49.078,-21.972 49.078,-49.077 V 49.078 C 49.078,21.973 27.105,0 0,0" /></g><g
           transform="translate(157.7574,696.7939)"
           id="g1028"><path
             id="path1030"
             style="fill:#cc5a51;fill-opacity:1;fill-rule:nonzero;stroke:none"
             d="m 0,0 c -24.532,0 -44.507,-19.974 -44.507,-44.52 v -179.244 c 0,-24.547 19.975,-44.522 44.507,-44.522 h 179.243 c 24.531,0 44.505,19.975 44.505,44.522 V -44.52 C 223.748,-19.974 203.774,0 179.243,0 Z M 179.243,-276.116 H 0 c -28.844,0 -52.337,23.493 -52.337,52.352 V -44.52 c 0,28.859 23.493,52.351 52.337,52.351 h 179.243 c 28.844,0 52.335,-23.492 52.335,-52.351 v -179.244 c 0,-28.859 -23.491,-52.352 -52.335,-52.352" /></g><g
           transform="translate(126.0461,489.7214)"
           id="g1032"><path
             id="path1034"
             style="fill:#ffc19f;fill-opacity:1;fill-rule:nonzero;stroke:none"
             d="m 0,0 c 7.061,0.687 23.828,3.089 26.019,-5.781 0.902,-3.656 -12.753,-7.487 -26.403,-10.008 -4.562,-0.844 -8.427,0.116 -21.758,0.894 -0.341,-1.223 6.758,-4.514 15.315,-4.94 4.66,-0.234 17.061,7.021 21.273,-3.688 0.721,-1.832 -14.433,-8.275 -22.156,-10.274 -7.063,-1.825 -49.605,9.534 -62.025,16.897 -8.844,5.241 -11.83,21.02 -9.7,34.656 5.707,8.973 24.539,18.06 41.397,25.146 14.041,1.626 31.897,1.514 41.938,1.227 C 30.769,37.646 41.987,32.015 39.58,27.176 34.958,17.885 16.148,24.119 4.834,25.7 -4.252,26.187 -14.324,24.956 -19.211,24.056 -20.08,21.912 -4.155,22.913 4.68,22.418 11.914,21.549 36.932,16.732 35.635,12.043 32.152,-0.561 21.701,5.604 2.646,5.975 -4.904,5.627 -18.958,3.572 -19.833,2.488 -19.253,0.506 -9.283,-0.105 0,0" /></g><g
           transform="translate(328.7805,620.0958)"
           id="g1036"><path
             id="path1038"
             style="fill:#ffc19f;fill-opacity:1;fill-rule:nonzero;stroke:none"
             d="M 0,0 C -2.425,2.186 16.13,34.145 18.774,32.205 54.778,5.783 84.42,-10.076 122.529,-31.827 135.897,-48.461 124.462,-79.168 96.74,-79.226 67.764,-79.285 30.251,-27.243 0,0" /></g><g
           transform="translate(231.0851,662.3141)"
           id="g1040"><path
             id="path1042"
             style="fill:#ffc19f;fill-opacity:1;fill-rule:nonzero;stroke:none"
             d="m 0,0 c 12.978,-2.834 22.408,-1.584 33.987,-3.007 0,0 0.72,-0.248 1.15,-0.531 -5.783,-7.112 -0.764,-17.804 7.133,-18.133 -3.052,-5.333 5.998,-19.331 16.195,-16.78 -0.918,-2.011 -4.207,-9.991 10.189,-13.059 14.996,0.255 28.339,-1.647 34.823,1.136 19.171,8.232 25.393,23.925 23.974,29.732 C 123.764,-5.55 87.013,14.82 70.982,18.672 61.215,21.019 30.916,17.948 -12.312,13.974 -18.808,6.995 -5.11,1.116 0,0" /></g></g></g></g></svg>