<?xml version="1.0" encoding="UTF-8" standalone="no"?>
<!DOCTYPE svg PUBLIC "-//W3C//DTD SVG 1.1//EN" "http://www.w3.org/Graphics/SVG/1.1/DTD/svg11.dtd">
<svg xmlns="http://www.w3.org/2000/svg" xmlns:xlink="http://www.w3.org/1999/xlink" version="1.1" width="1340.34pt" height="1345.29pt" viewBox="0 0 1340.34 1345.29">
<g enable-background="new">
<g>
<g id="Layer-1" data-name="Layer 5">
<clipPath id="cp0">
<path transform="matrix(1,0,0,-1,0,1345.29)" d="M 0 1345.285 L 1340.34 1345.285 L 1340.34 0 L 0 0 Z "/>
</clipPath>
<g clip-path="url(#cp0)">
<path transform="matrix(1,0,0,-1,298.2724,849.60067)" d="M 0 0 C -68.477 170.363 -56.158 368.818 32.867 636.796 L 34.371 628.877 C 35.655 633.747 36.844 638.515 38.177 643.442 L 700.437 624.882 C 701.429 620.008 702.383 615.286 703.36 610.472 L 710.658 615.036 C 793.795 340.798 800.751 176.483 794.173 73.658 C 791.606 122.791 785.993 295.059 716.926 542.893 C 778.855 230.058 798.703 59.316 736.554 6.51 C 776.041 73.658 743.204 260.017 733.456 283.523 C 733.414 216.497 743.313 88.446 707.254 -8.937 C 545.616 -98.156 173.953 -82.985 80.546 -29.202 C 76.407 -21.204 64.887 166.936 62.281 192.956 C 56.877 183.989 60.695 -20.537 58.581 -29.039 C .981 24.824 -52.572 190.347 3.158 490.658 C -47.751 285.636 -30.607 132.239 0 0 " fill="#ad5c49"/>
<path transform="matrix(1,0,0,-1,198.5448,663.24118)" d="M 0 0 C -6.268 2.424 -37.882 -65.591 -32.053 -68.928 C 61.687 -122.601 152.992 -172.329 183.474 -178.547 C 222.749 -186.56 261.119 -127.464 249.44 -95.668 C 222.798 -84.958 87.742 -33.962 0 0 " fill="#ffc19f"/>
<path transform="matrix(1,0,0,-1,387.6992,732.13479)" d="M 0 0 C -4.764 -36.836 -5.783 -111.111 -8.294 -149.553 C 75.085 -157.839 137.503 -158.207 142.809 -155.613 C 197.986 -128.63 200.621 -12.607 202.981 -4.885 C 163.081 -6.082 81.387 -4.056 0 0 " fill="#fc4273"/>
<path transform="matrix(1,0,0,-1,107.6032,701.09249)" d="M 0 0 C -8.331 -3.049 -59.24 -2.178 -74.245 -6.196 C -83.822 -8.759 -82.959 -24.722 -66.061 -28.005 C -42.903 -32.504 39.419 -40.389 69.98 -41.873 C 115.201 -39.79 149.959 2.068 146.463 44.899 C 141.226 109.131 136.348 138.124 131.698 177.486 C 130.55 187.185 110.755 182.027 101.678 161.066 C 95.058 145.781 101.701 120.791 97.948 109.487 C 93.441 95.906 83.883 97.345 71.95 104.215 C 36.583 140.817 12.671 167.75 -2.155 180.463 C -13.664 190.328 -30.921 176.559 -24.979 166.546 C -15.035 149.792 10.596 113.054 30.811 82.307 C -3.454 100.458 -53.265 124.457 -71.257 131.902 C -87.78 138.741 -101.303 117.606 -85.113 107.15 C -65.391 94.407 -26.714 64.845 6.612 43.808 C -24.279 46.41 -74.029 56.018 -93.085 57.104 C -112.937 58.237 -110.778 39.779 -96.558 33.966 C -43.411 12.224 -10.005 3.635 0 0 " fill="#ffc19f"/>
<path transform="matrix(1,0,0,-1,1141.7982,663.24118)" d="M 0 0 C 6.267 2.424 37.882 -65.591 32.053 -68.928 C -61.687 -122.601 -152.996 -172.329 -183.474 -178.547 C -222.753 -186.56 -261.119 -127.464 -249.444 -95.668 C -222.798 -84.958 -87.745 -33.962 0 0 " fill="#ffc19f"/>
<path transform="matrix(1,0,0,-1,952.6438,732.13479)" d="M 0 0 C 4.76 -36.836 5.783 -111.111 8.29 -149.553 C -75.089 -157.839 -137.507 -158.207 -142.809 -155.613 C -197.989 -128.63 -200.625 -12.607 -202.981 -4.885 C -163.081 -6.082 -81.387 -4.056 0 0 " fill="#fc4273"/>
<path transform="matrix(1,0,0,-1,451.6251,1345.29)" d="M 0 0 C 8.638 220.072 45.571 500.806 55.38 608.775 C 94.822 609.245 335.093 610.184 388.778 608.214 C 399.76 510.959 425.579 248.01 431.745 25.532 Z " fill="#fc4273"/>
<path transform="matrix(1,0,0,-1,563.0081,753.8646)" d="M 0 0 C 0 6.268 2.083 12.194 5.082 17.882 C 62.21 17.988 142.343 18.049 202.091 17.894 C 205.094 12.202 207.177 6.271 207.177 0 C 207.177 -33.587 160.797 -60.816 103.587 -60.816 C 46.38 -60.816 0 -33.587 0 0 " fill="#ffc19f"/>
<path transform="matrix(1,0,0,-1,742.96,660.97659)" d="M 0 0 L 0 -97.58 C -.174 -118.432 -33.689 -135.068 -74.37 -134.731 C -115.05 -134.394 -147.482 -117.212 -147.311 -96.361 L -147.311 0 Z " fill="#ffc19f"/>
<g opacity=".160004">
<clipPath id="cp1">
<path transform="matrix(1,0,0,-1,0,1345.29)" d="M 562.309 589.437 L 797.507 589.437 L 797.507 745.44 L 562.309 745.44 Z "/>
</clipPath>
<g clip-path="url(#cp1)">
<path transform="matrix(1,0,0,-1,797.1145,692.42019)" d="M 0 0 C -5.26 -42.313 -62.001 -70.09 -126.733 -62.047 C -191.461 -53.999 -239.673 -13.175 -234.413 29.137 C -229.153 71.45 -172.416 99.228 -107.684 91.184 C -42.953 83.136 5.26 42.312 0 0 " fill="#6d0f03"/>
</g>
</g>
<path transform="matrix(1,0,0,-1,295.5003,513.27499)" d="M 0 0 C 16.261 -68.348 81.466 -112.422 131.3 -106.813 C 181.133 -101.204 191.839 -45.618 184.462 20.06 C 177.066 85.742 130.656 134.61 80.838 128.835 C 12.747 120.939 -15.281 64.243 0 0 " fill="#ffc19f"/>
<path transform="matrix(1,0,0,-1,357.2326,531.1724)" d="M 0 0 C 3.245 -28.797 26.464 -49.826 51.867 -46.971 C 77.255 -44.111 95.217 -18.447 91.972 10.354 C 88.73 39.15 65.512 60.176 40.124 57.32 C 14.724 54.469 -3.234 28.8 0 0 " fill="#e0956c"/>
<path transform="matrix(1,0,0,-1,1034.5571,534.70956)" d="M 0 0 C -19.848 -67.398 -87.298 -107.953 -136.768 -99.72 C -186.235 -91.479 -193.987 -35.405 -183.141 29.793 C -172.279 94.99 -123.347 141.332 -73.9 132.932 C -6.321 121.439 18.659 63.342 0 0 " fill="#ffc19f"/>
<path transform="matrix(1,0,0,-1,970.6776,547.4149)" d="M 0 0 C -4.76 -28.585 -29.058 -48.357 -54.264 -44.161 C -79.474 -39.961 -96.058 -13.38 -91.294 15.205 C -86.534 43.793 -62.24 63.558 -37.029 59.365 C -11.823 55.169 4.76 28.588 0 0 " fill="#e0956c"/>
<path transform="matrix(1,0,0,-1,1013.6945,315.65284)" d="M 0 0 C -5.904 -222.938 -149.697 -319.477 -347.35 -314.244 C -544.998 -309.01 -699.861 -204.666 -693.961 18.272 C -688.057 241.211 -529.169 288.916 -331.516 283.682 C -133.868 278.452 5.904 222.938 0 0 " fill="#ad5c49"/>
<path transform="matrix(1,0,0,-1,943.1384,223.51074)" d="M 0 0 C 15.879 -37.817 -4.026 -367.114 -43.327 -412.044 C -85.011 -459.707 -250.33 -502.016 -284.818 -501.103 C -321.761 -500.126 -481.391 -454.045 -511.214 -399.656 C -546.49 -335.292 -555.17 -41.653 -542.453 -7.063 C -499.475 109.763 -396.816 111.021 -262.679 107.468 C -137.196 104.147 -41.191 98.126 0 0 " fill="#ffc19f"/>
<path transform="matrix(1,0,0,-1,443.8153,526.58639)" d="M 0 0 C -.875 -12.952 16.417 -24.661 38.62 -26.157 C 60.812 -27.653 79.524 -18.367 80.395 -5.415 C 81.27 7.532 63.974 19.242 41.779 20.738 C 19.575 22.234 .871 12.948 0 0 " fill="#ff9797"/>
<path transform="matrix(1,0,0,-1,813.9175,533.17959)" d="M 0 0 C .943 -12.944 19.696 -22.128 41.892 -20.511 C 64.076 -18.894 81.307 -7.089 80.365 5.855 C 79.422 18.799 60.661 27.982 38.476 26.365 C 16.28 24.748 -.943 12.944 0 0 " fill="#ff9797"/>
<path transform="matrix(1,0,0,-1,770.8969,559.95)" d="M 0 0 C -4.268 22.237 -38.442 16.477 -94.263 16.852 C -97.183 16.871 -108.54 16.871 -111.464 16.852 C -167.284 16.477 -201.458 22.237 -205.723 0 C -213.937 -42.831 -160.047 -89.616 -103.355 -89.787 L -102.371 -89.787 C -45.679 -89.616 8.21 -42.831 0 0 " fill="#701608"/>
<path transform="matrix(1,0,0,-1,723.7447,635.5958)" d="M 0 0 L 1.083 .576 L .17 1.39 C -14.595 14.595 -34.436 21.874 -55.703 21.874 C -77.002 21.874 -96.842 14.595 -111.573 1.39 L -112.486 .576 L -111.403 0 C -93.661 -9.752 -74.597 -14.966 -56.211 -15.034 L -55.226 -15.034 C -36.874 -14.966 -17.776 -9.752 0 0 " fill="#dd6b5b"/>
<path transform="matrix(1,0,0,-1,743.5887,543.52578)" d="M 0 0 L .235 .981 L -151.326 .981 L -151.091 0 C -147.028 -16.049 -114.554 -28.141 -75.547 -28.141 C -36.571 -28.141 -4.098 -16.049 0 0 " fill="#ffffff"/>
<path transform="matrix(1,0,0,-1,692.2215,521.50796)" d="M 0 0 C -1.477 0 -2.78 1.064 -3.034 2.571 C -4.81 13.273 -13.27 20.185 -24.589 20.185 C -35.973 20.181 -44.626 13.126 -46.126 2.628 C -46.368 .947 -47.936 -.227 -49.61 .019 C -51.292 .258 -52.462 1.818 -52.219 3.499 C -50.299 16.943 -38.935 26.339 -24.589 26.343 C -10.327 26.346 .78 17.201 3.045 3.586 C 3.321 1.905 2.185 .322 .511 .038 Z " fill="#c4735b"/>
<path transform="matrix(1,0,0,-1,875.4604,314.75526)" d="M 0 0 C -2.064 .265 -4.029 1.265 -5.484 2.95 C -24.104 24.441 -63.38 34.807 -96.921 26.998 C -101.572 25.892 -106.279 28.808 -107.392 33.519 C -108.483 38.207 -105.567 42.892 -100.871 43.994 C -60.854 53.28 -15.175 40.82 7.707 14.353 C 10.854 10.706 10.456 5.203 6.813 2.056 C 4.866 .36 2.374 -.303 0 0 " fill="#773220"/>
<path transform="matrix(1,0,0,-1,460.198,319.56483)" d="M 0 0 C -2.386 -.22 -4.851 .534 -6.733 2.299 C -10.263 5.578 -10.46 11.092 -7.18 14.618 C 16.674 40.241 62.766 51.011 102.405 40.279 C 107.059 39.006 109.805 34.22 108.54 29.577 C 107.271 24.911 102.469 22.169 97.838 23.442 C 64.614 32.481 24.953 23.586 5.586 2.746 C 4.071 1.113 2.068 .189 0 0 " fill="#773220"/>
<path transform="matrix(1,0,0,-1,1024.6806,378.97566)" d="M 0 0 C -38.787 12.842 -43.926 53.302 -47.849 117.557 C -25.816 123.093 -55.692 280.793 -165.451 328.506 C -309.036 390.927 -489.037 370.674 -565.357 315.327 C -646.612 256.4 -660.48 183.515 -673.697 96.554 C -684.422 25.96 -655.761 -25.18 -707.39 -67.568 C -647.206 -68.928 -611.934 -19.583 -602.311 25.286 C -591.628 75.119 -615.229 120.579 -608.162 140.188 C -604.072 151.534 -539.92 202.148 -523.337 203.132 C -487.193 205.283 -455.06 102.84 -327.074 108.733 C -379.524 135.788 -408.809 175.4 -438.81 232.217 C -428.6 226.362 -418.334 219.193 -408.113 210.411 C -300.463 117.894 -184.621 96.05 -94.528 106.718 C -88.355 11.933 -130.327 -37.325 -15.239 -69.965 C -25.952 -57.112 -42.127 -18.026 -45.179 13.152 C -32.746 5.756 -20.476 -19.034 0 0 " fill="#ad5c49"/>
<path transform="matrix(1,0,0,-1,738.7943,410.72987)" d="M 0 0 C -21.506 -31.144 -18.893 -65.55 -.14 -78.679 C 28.115 -98.466 95.02 -104.314 120.015 -75.938 C 144.229 -48.451 132.607 1.841 93.221 23.593 C 58.744 42.638 20.814 30.145 0 0 " fill="#f9feff"/>
<path transform="matrix(1,0,0,-1,863.4253,402.4287)" d="M 0 0 C -30.626 48.5 -104.473 32.353 -125.351 -9.358 C -103.863 21.772 -64.239 31.144 -32.364 13.558 C -12.664 2.674 1.322 -16.629 5.048 -38.067 C 8.017 -55.166 4.052 -74.317 -6.002 -85.731 C 5.567 -78.297 22.521 -35.662 0 0 " fill="#7c3929"/>
<path transform="matrix(1,0,0,-1,746.6486,429.05903)" d="M 0 0 C -8.828 -21.597 1.526 -46.258 23.124 -55.086 C 44.721 -63.91 69.382 -53.556 78.21 -31.959 C 87.033 -10.365 76.684 14.3 55.086 23.123 C 33.489 31.951 8.824 21.597 0 0 " fill="#63190d"/>
<path transform="matrix(1,0,0,-1,750.1024,425.34785)" d="M 0 0 C -2.45 -5.991 .42 -12.834 6.415 -15.284 C 12.406 -17.731 19.249 -14.86 21.696 -8.869 C 24.146 -2.874 21.272 3.969 15.281 6.415 C 9.289 8.865 2.446 5.991 0 0 " fill="#fefffe"/>
<path transform="matrix(1,0,0,-1,591.2253,409.3438)" d="M 0 0 C 20.931 -31.535 17.689 -65.887 -1.299 -78.672 C -29.914 -97.936 -96.91 -102.564 -121.385 -73.737 C -145.092 -45.812 -132.553 4.26 -92.778 25.29 C -57.957 43.698 -20.261 30.516 0 0 " fill="#f9feff"/>
<path transform="matrix(1,0,0,-1,466.7647,398.76667)" d="M 0 0 C 31.504 47.929 105.048 30.436 125.161 -11.649 C 104.242 19.867 64.8 29.963 32.606 12.959 C 12.709 2.439 -1.625 -16.602 -5.741 -37.972 C -9.025 -55.01 -5.412 -74.233 4.435 -85.829 C -6.995 -78.183 -23.169 -35.25 0 0 " fill="#7c3929"/>
<path transform="matrix(1,0,0,-1,504.4948,426.8095)" d="M 0 0 C -8.824 -21.597 1.526 -46.262 23.124 -55.086 C 44.721 -63.914 69.386 -53.56 78.21 -31.963 C 87.033 -10.365 76.684 14.296 55.086 23.123 C 33.489 31.947 8.828 21.594 0 0 " fill="#63190d"/>
<path transform="matrix(1,0,0,-1,507.9486,423.09834)" d="M 0 0 C -2.45 -5.995 .424 -12.838 6.415 -15.284 C 12.406 -17.735 19.249 -14.86 21.696 -8.869 C 24.146 -2.878 21.272 3.965 15.281 6.415 C 9.29 8.862 2.446 5.991 0 0 " fill="#fefffe"/>
<path transform="matrix(1,0,0,-1,336.3698,268.2544)" d="M 0 0 C 52.219 153.132 159.494 236.299 339.299 237.621 C 486.879 238.704 598.96 156.162 656.114 -5.715 C 590.439 134.337 480.305 217.421 330.444 213.115 C 193.165 209.169 75.85 153.878 0 0 " fill="#ff9d00"/>
<path transform="matrix(1,0,0,-1,667.511,62.224977)" d="M 0 0 C 58.881 -48.216 95.751 -71.802 114.63 -72.62 C 137.602 -73.62 180.369 25.399 163.956 42.971 C 136.234 72.643 44.997 65.247 5.484 39.555 C -14.822 26.358 -18.276 14.962 0 0 " fill="#ffb000"/>
<path transform="matrix(1,0,0,-1,639.5856,68.439579)" d="M 0 0 C -64.251 -41.21 -103.696 -60.456 -122.541 -59.131 C -145.479 -57.517 -176.271 26.581 -161.017 45.111 C -136.647 74.718 -31.133 63.626 -.712 39.908 C 18.333 25.062 19.943 12.789 0 0 " fill="#ffb000"/>
<path transform="matrix(1,0,0,-1,675.8464,41.176759)" d="M 0 0 C 16.371 5.673 56.768 20.56 53.643 -6.665 C 50.295 -35.867 11.785 -9.498 0 0 " fill="#d87e1d"/>
<path transform="matrix(1,0,0,-1,635.5182,44.255617)" d="M 0 0 C -16.201 4.95 -56.169 17.966 -53.598 -6.851 C -50.841 -33.47 -11.933 -8.839 0 0 " fill="#d87e1d"/>
<path transform="matrix(1,0,0,-1,679.5614,46.89148)" d="M 0 0 C 0 -13.005 -11.13 -23.548 -24.862 -23.548 C -38.59 -23.548 -49.72 -13.005 -49.72 0 C -49.72 13.009 -38.59 23.552 -24.862 23.552 C -11.13 23.552 0 13.009 0 0 " fill="#ff9d00"/>
<path transform="matrix(1,0,0,-1,1232.736,701.09249)" d="M 0 0 C 8.332 -3.049 59.24 -2.178 74.248 -6.196 C 83.822 -8.759 82.959 -24.722 66.061 -28.005 C 42.907 -32.504 -39.415 -40.389 -69.977 -41.873 C -115.201 -39.79 -149.955 2.068 -146.463 44.899 C -141.226 109.131 -136.344 138.124 -131.694 177.486 C -130.55 187.185 -110.755 182.027 -101.678 161.066 C -95.054 145.781 -101.701 120.791 -97.948 109.487 C -93.437 95.906 -83.883 97.345 -71.946 104.215 C -36.583 140.817 -12.668 167.75 2.159 180.463 C 13.667 190.328 30.925 176.559 24.979 166.546 C 15.035 149.792 -10.592 113.054 -30.807 82.307 C 3.454 100.458 53.265 124.457 71.257 131.902 C 87.783 138.741 101.303 117.606 85.113 107.15 C 65.391 94.407 26.718 64.845 -6.612 43.808 C 24.282 46.41 74.029 56.018 93.089 57.104 C 112.937 58.237 110.778 39.779 96.562 33.966 C 43.411 12.224 10.009 3.635 0 0 " fill="#ffc19f"/>
<path transform="matrix(1,0,0,-1,858.1915,1315.0942)" d="M 0 0 C -47.953 -11.773 -331.693 -32.931 -388.462 -18.877 C -389.071 -18.726 -389.568 -18.312 -389.534 -17.686 C -388.569 .566 -376.997 197.054 -360.609 419.804 C -360.565 420.396 -356.479 420.567 -355.886 420.57 C -281.419 420.909 -78.081 415.055 -15.382 416.1 C -14.771 416.11 -14.267 415.64 -14.235 415.03 C -9.746 327.404 -12.23 205.833 -.713 -4.332 C -.683 -4.879 .532 .131 0 0 " fill="#224966"/>
<path transform="matrix(1,0,0,-1,526.3824,912.1024)" d="M 0 0 L 15.292 -.174 L 15.704 35.936 C 15.726 37.807 17.307 39.351 19.178 39.329 L 29.296 39.21 L 29.488 55.974 L -15.533 56.492 L -15.726 39.728 L -2.977 39.583 C -1.106 39.562 .438 37.981 .417 36.11 Z M 18.646 -7.077 L -3.509 -6.823 C -5.384 -6.801 -6.924 -5.225 -6.903 -3.354 L -6.49 32.757 L -19.239 32.901 C -21.11 32.923 -22.654 34.504 -22.632 36.375 L -22.36 60.001 C -22.339 61.872 -20.762 63.416 -18.887 63.394 L 33.002 62.801 C 34.872 62.775 36.417 61.198 36.395 59.327 L 36.123 35.701 C 36.101 33.826 34.525 32.286 32.65 32.308 L 22.531 32.423 L 22.119 -3.688 C 22.094 -5.558 20.517 -7.102 18.646 -7.077 " fill="#baebf4"/>
<path transform="matrix(1,0,0,-1,519.1091,916.34066)" d="M 0 0 C 1.29 -8.709 9.388 -14.728 18.088 -13.442 C 26.783 -12.155 32.789 -4.048 31.495 4.665 C 30.206 13.374 22.107 19.393 13.408 18.107 C 4.712 16.82 -1.294 8.713 0 0 " fill="#f0fcff"/>
<path transform="matrix(1,0,0,-1,802.5118,915.2421)" d="M 0 0 L 15.291 -.031 L 15.369 36.079 C 15.368 37.951 16.933 39.509 18.805 39.505 L 28.928 39.485 L 28.959 56.248 L -16.066 56.341 L -16.102 39.578 L -3.352 39.55 C -1.476 39.546 .077 37.982 .073 36.11 Z M 18.711 -6.906 L -3.446 -6.861 C -5.317 -6.857 -6.875 -5.292 -6.871 -3.42 L -6.798 32.694 L -19.548 32.717 C -21.42 32.721 -22.978 34.286 -22.974 36.158 L -22.927 59.787 C -22.923 61.658 -21.358 63.216 -19.487 63.212 L 32.409 63.104 C 34.281 63.1 35.839 61.536 35.835 59.664 L 35.784 36.035 C 35.78 34.164 34.215 32.61 32.343 32.61 L 22.225 32.634 L 22.152 -3.476 C 22.147 -5.352 20.583 -6.906 18.711 -6.906 " fill="#baebf4"/>
<path transform="matrix(1,0,0,-1,789.7628,861.0548)" d="M 0 0 C -.283 3.823 5.362 90.392 -3.381 126.755 L 37.057 126.296 C 50.791 71.746 39.982 3.973 40.279 -.081 Z " fill="#224966"/>
<path transform="matrix(1,0,0,-1,512.8525,859.00906)" d="M 0 0 C -.281 4.214 1.088 84.407 -2.644 121.18 L 35.891 123.702 C 41.776 74.854 39.982 4.407 40.28 -.064 Z " fill="#224966"/>
<path transform="matrix(1,0,0,-1,795.2784,919.5474)" d="M 0 0 C 1.373 -8.7 9.527 -14.643 18.213 -13.274 C 26.9 -11.905 32.827 -3.741 31.45 4.958 C 30.077 13.658 21.922 19.598 13.236 18.228 C 4.554 16.859 -1.373 8.695 0 0 " fill="#f0fcff"/>
<g opacity=".210007">
<clipPath id="cp2">
<path transform="matrix(1,0,0,-1,0,1345.29)" d="M 604.216 241.173 L 755.781 241.173 L 755.781 385.369 L 604.216 385.369 Z "/>
</clipPath>
<g clip-path="url(#cp2)">
<path transform="matrix(1,0,0,-1,604.2156,1083.501)" d="M 0 0 L 76.565 -20.616 L 151.475 2.671 L 151.565 116.046 L 3.454 123.58 Z "/>
</g>
</g>
<path transform="matrix(1,0,0,-1,610.5341,1076.0045)" d="M 0 0 L 71.016 -21.419 L 142.718 .511 L 143.358 106.848 L 3.034 109.082 Z " fill="#306484"/>
</g>
</g>
</g>
</g>
</svg>
