<?xml version="1.0" encoding="UTF-8" standalone="no"?>
<!DOCTYPE svg PUBLIC "-//W3C//DTD SVG 1.1//EN" "http://www.w3.org/Graphics/SVG/1.1/DTD/svg11.dtd">
<svg xmlns="http://www.w3.org/2000/svg" xmlns:xlink="http://www.w3.org/1999/xlink" version="1.1" width="1577.7916pt" height="2688.8778pt" viewBox="0 0 1577.7916 2688.8778">
<g enable-background="new">
<g>
<g id="Layer-1" data-name="Layer 5">
<clipPath id="cp0">
<path transform="matrix(2.7777777,0,0,-2.7777777,0,2688.8778)" d="M 0 967.996 L 568.005 967.996 L 568.005 0 L 0 0 Z "/>
</clipPath>
<g clip-path="url(#cp0)">
<path transform="matrix(2.7777777,0,0,-2.7777777,1444.262,1224.9265)" d="M 0 0 C 0 0 11.25 -24.323 15.457 -47.146 C 51.049 .91 72.2 55.758 -.803 279.278 L -445.169 227.598 C -428.091 51.748 -472.525 -76.467 -358.667 -116.915 C -358.435 -114.807 -356.443 -104.757 -353.655 -104.869 C -349.872 -105.022 -344.866 -116.089 -343.058 -118.471 C -284.52 -121.598 -87.946 -106.004 -41.578 -85.751 C -25.47 -78.716 -11.886 -70.479 -.756 -59.935 C -1.14 -33.423 0 0 0 0 " fill="#af4935"/>
<path transform="matrix(2.7777777,0,0,-2.7777777,680.1447,2107.4913)" d="M 0 0 C 3.474 -1.848 30.825 40.206 27.616 42.473 C -20.333 76.355 -93.665 150.122 -105.462 162.051 C -105.462 162.051 -156.841 115.353 -134.534 90.964 C -112.214 66.567 -69.856 37.155 0 0 " fill="#ffc19f"/>
<path transform="matrix(2.7777777,0,0,-2.7777777,336.06526,1688.5704)" d="M 0 0 C 0 0 53.675 -61.641 62.746 -69.816 C 78.607 -59.556 112.334 -33.266 126.786 -22.846 C 129.04 -4.813 127.579 100.797 127.579 100.797 C 127.579 100.797 89.692 86.28 84.397 81.357 C 65.269 63.571 0 0 0 0 " fill="#ff3e71"/>
<g opacity=".119995">
<clipPath id="cp1">
<path transform="matrix(2.7777777,0,0,-2.7777777,0,2688.8778)" d="M 8.27493 0 L 444.895 0 L 444.895 82.1065 L 8.27493 82.1065 Z "/>
</clipPath>
<g clip-path="url(#cp1)">
<path transform="matrix(2.7777777,0,0,-2.7777777,23.043889,2623.672)" d="M 0 0 C 1.651 -20.482 100.72 -29.218 221.275 -19.51 C 341.834 -9.801 438.229 14.676 436.578 35.158 C 434.93 55.641 335.861 64.377 215.303 54.668 C 94.744 44.959 -1.648 20.482 0 0 "/>
</g>
</g>
<path transform="matrix(2.7777777,0,0,-2.7777777,1530.1755,1797.7461)" d="M 0 0 C -22.986 42.8 -68.863 113.842 -77.574 120.394 L -156.353 68.943 C -148.534 52.114 -52.755 -30.388 -33.757 -38.533 C -26.979 -43.77 4.88 -23.983 0 0 " fill="#e4a78e"/>
<path transform="matrix(2.7777777,0,0,-2.7777777,1533.9025,1713.9938)" d="M 0 0 C -17.432 -16.881 -63.07 -50.191 -88.891 -68.891 C -110.336 -40.264 -154.545 21.342 -155.41 24.078 C -170.924 73.108 -168.64 114.536 -168.368 116.972 C -126.499 114.229 -96.58 111.184 -88.191 105.443 C -70.11 88.934 -31.61 32.073 0 0 " fill="#ff3e71"/>
<path transform="matrix(2.7777777,0,0,-2.7777777,1361.0502,2234.3802)" d="M 0 0 C -41.002 -19.115 -149.452 -27.253 -209.033 -3.796 C -257.077 15.12 -252.716 39.024 -285.158 68.329 C -264.771 106.984 -278.27 183.79 -268.392 281.146 C -210.462 298.396 -139.1 314.646 -53.501 297.745 C -21.904 261.447 -3.279 72.1 0 0 " fill="#c92847"/>
<path transform="matrix(2.7777777,0,0,-2.7777777,1055.4755,1388.0737)" d="M 0 0 C .95 -2.818 1.586 -5.738 1.766 -8.766 C 3.267 -34.026 -24.071 -56.202 -59.292 -58.294 C -94.515 -60.386 -124.289 -41.605 -125.79 -16.345 C -125.888 -14.711 -125.541 -13.14 -125.401 -11.537 C -88.056 -1.102 -49.488 3.871 0 0 " fill="#ffc19f"/>
<path transform="matrix(2.7777777,0,0,-2.7777777,1011.4797,1240.2017)" d="M 0 0 L 4.995 -68.576 C 6.068 -83.322 -15.277 -96.824 -42.682 -98.727 C -70.087 -100.63 -93.173 -90.218 -94.248 -75.472 L -99.243 -6.893 Z " fill="#ffc19f"/>
<path transform="matrix(2.7777777,0,0,-2.7777777,1241.1921,1406.6946)" d="M 0 0 C -11.399 2.459 -48.683 6.038 -62.992 6.344 C -58.334 -30.278 -66.945 -69.723 -137.778 -77.779 C -111.85 -136.738 -86.659 -248.977 -65.182 -260.075 C -22.036 -282.368 40.186 -280.56 55.371 -275.003 C 45.371 -186.853 15.001 -31.111 0 0 " fill="#ff3e71"/>
<path transform="matrix(2.7777777,0,0,-2.7777777,696.17916,1425.5579)" d="M 0 0 C -10.399 -2.464 -19.871 -5.646 -29.038 -8.948 C -34.996 -68.065 -35.802 -165.879 -37.313 -206.06 C -8.02 -206.252 32.687 -157.727 58.426 -70.988 C 41.204 -66.82 -4.91 -50.708 0 0 " fill="#ff3e71"/>
<path transform="matrix(2.7777777,0,0,-2.7777777,1071.3047,2243.6766)" d="M 0 0 C -3.023 -1.843 -7.736 -5.826 -9.941 -5.861 C -42.084 30.704 -140.621 116.917 -162.962 144.854 C -198.325 189.075 -295.019 183.638 -291.954 110.962 C -272.692 85.205 -156.592 -84.066 -142.741 -100.266 C -126.591 -119.157 -88.39 -120.484 -54.518 -112.491 C -9.963 -101.977 11.315 -66.242 0 0 " fill="#66365a"/>
<g opacity=".300003">
<clipPath id="cp2">
<path transform="matrix(2.7777777,0,0,-2.7777777,0,2688.8778)" d="M 188.717 142.488 L 255.665 142.488 L 255.665 274.289 L 188.717 274.289 Z "/>
</clipPath>
<g clip-path="url(#cp2)">
<path transform="matrix(2.7777777,0,0,-2.7777777,710.1794,2261.3692)" d="M 0 0 C -11.053 -3.741 -59.257 -11.699 -64.913 -11.407 C -71.212 29.772 -61.03 110.496 -59.319 120.386 C -59.319 120.386 -3.057 32.732 0 0 " fill="#420000"/>
</g>
</g>
<path transform="matrix(2.7777777,0,0,-2.7777777,557.4789,2449.337)" d="M 0 0 C -.015 -2.21 -82.554 -5.322 -82.881 -2.664 C -85.736 20.452 -87.542 67.352 -88.946 80.779 L -.783 84.178 C -1.584 60.987 .122 15.963 0 0 " fill="#ffc19f"/>
<path transform="matrix(2.7777777,0,0,-2.7777777,572.9547,2476.7283)" d="M 0 0 C -.005 -1.357 -90.784 -10.135 -91.161 -8.534 C -94.428 5.407 -97.712 39.485 -99.333 47.6 L -1.322 51.556 C -1.362 36.096 .047 9.798 0 0 " fill="#fff9e1"/>
<path transform="matrix(2.7777777,0,0,-2.7777777,267.58805,2451.6649)" d="M 0 0 C 1.317 4.831 4.048 10.948 6.16 16.544 C 7.729 20.694 48.336 20.051 48.453 10.075 C 48.483 7.521 48.381 5.267 48.171 3.222 C 55.119 3.157 62.656 3.245 70.611 3.539 C 87.911 4.177 103.418 5.591 114.296 7.33 C 115.01 -8.444 113.645 -35.762 114.294 -53.299 C 114.294 -53.299 -66.846 -87.303 -95.405 -61.042 C -103.455 -53.641 -57.99 -20.719 0 0 " fill="#f73e6e"/>
<path transform="matrix(2.7777777,0,0,-2.7777777,584.6136,2569.1673)" d="M 0 0 C .005 -3.9 .04 -7.659 .165 -10.998 C .165 -10.998 -180.975 -45.002 -209.534 -18.741 C -210.669 -17.696 -210.724 -16.138 -209.846 -14.188 C -159.857 -25.008 -45.037 -7.604 0 0 " fill="#d32955"/>
<path transform="matrix(2.7777777,0,0,-2.7777777,145.45111,2497.441)" d="M 0 0 C .234 -1.379 1.509 -2.334 2.93 -2.067 C 11.36 -.491 22.47 -4.621 29.849 -11.823 C 30.368 -12.327 31.044 -12.567 31.712 -12.542 C 32.34 -12.519 32.961 -12.262 33.433 -11.779 C 34.413 -10.776 34.393 -9.172 33.39 -8.192 C 24.916 .072 12.058 4.666 2.067 2.925 C .688 2.691 -.237 1.377 0 0 M 43.164 -4.818 C 43.685 -5.369 44.396 -5.636 45.099 -5.609 C 45.693 -5.589 46.284 -5.357 46.747 -4.92 C 47.765 -3.955 47.807 -2.349 46.847 -1.334 C 38.822 7.147 27.869 11.3 16.779 9.99 C 15.387 9.828 14.39 8.574 14.549 7.182 C 14.711 5.791 15.986 4.698 17.36 4.955 C 22.943 5.604 33.697 5.182 43.164 -4.818 M 55.967 1.377 C 56.486 .688 57.286 .342 58.087 .369 C 58.586 .389 59.087 .556 59.516 .878 C 60.636 1.723 60.858 3.312 60.012 4.429 C 52.975 13.754 40.712 18.619 30.191 16.327 C 28.824 16.023 27.961 14.669 28.263 13.302 C 28.565 11.936 29.906 11.098 31.286 11.372 C 39.932 13.322 50.082 9.172 55.967 1.377 " fill="#d3dae5"/>
<path transform="matrix(2.7777777,0,0,-2.7777777,583.4775,2291.0047)" d="M 0 0 C -10.993 -3.045 -99.408 -6.701 -104.889 -6.058 C -108.331 35.423 -115.755 101.44 -116.588 136.711 L -3.666 136.711 C -2.025 98.874 -.838 32.852 0 0 " fill="#66365a"/>
<g opacity=".199997">
<clipPath id="cp3">
<path transform="matrix(2.7777777,0,0,-2.7777777,0,2688.8778)" d="M 73.9044 15.8827 L 335.8 15.8827 L 335.8 314.562 L 73.9044 314.562 Z "/>
</clipPath>
<g clip-path="url(#cp3)">
<path transform="matrix(2.7777777,0,0,-2.7777777,205.29001,2644.759)" d="M 0 0 L 3.033 6.649 C 3.033 6.649 32.647 30.098 52.059 40.121 C 52.219 41.638 52.775 43.089 53.675 44.358 C 55.087 46.309 57.159 47.588 59.481 47.955 C 61.78 48.334 64.287 48.436 66.9 48.214 C 67.783 51.74 70.786 54.526 74.604 54.947 C 76.564 55.157 78.607 55.204 80.786 55.075 C 81.021 55.818 81.367 56.548 81.814 57.227 C 83.123 59.227 85.123 60.596 87.435 61.075 C 90.684 61.763 94.148 61.79 97.929 61.252 C 98.769 63.534 99.749 65.963 100.755 68.389 L 102.912 73.756 C 103.555 75.355 104.642 76.459 105.849 77.228 L 115.221 77.739 C 115.528 85.634 151.921 237.239 160.889 263.963 C 172.348 290.767 169.83 300.493 190.613 298.406 C 220.39 295.413 280.046 47.339 256.534 36.44 C 225.979 22.273 28.966 1.018 16.704 .683 C 11.222 .534 1.307 .177 0 0 "/>
</g>
</g>
<g opacity=".350006">
<clipPath id="cp4">
<path transform="matrix(2.7777777,0,0,-2.7777777,0,2688.8778)" d="M 241.958 43.1541 L 388.666 43.1541 L 388.666 301.344 L 241.958 301.344 Z "/>
</clipPath>
<g clip-path="url(#cp4)">
<path transform="matrix(2.7777777,0,0,-2.7777777,674.80136,2522.1927)" d="M 0 0 C -5.299 6.197 12.589 247.703 17.781 241.209 C 40.119 213.273 139.721 98.423 142.741 100.266 C 154.056 34.024 132.781 -1.711 88.223 -12.225 C 54.351 -20.218 16.153 -18.893 0 0 " fill="#420000"/>
</g>
</g>
<path transform="matrix(2.7777777,0,0,-2.7777777,1342.0343,2243.5518)" d="M 0 0 C -3.451 -1.359 -13.19 -3.561 -14.302 -3.973 C -47.216 31.899 -93.557 114.945 -116.486 142.397 C -152.784 185.858 -223.764 186.618 -243.326 125.401 C -223.52 100.061 -179.129 -86.128 -164.937 -102.029 C -148.387 -120.571 -96.66 -125.282 -62.965 -116.568 C -18.644 -105.109 12.724 -65.988 0 0 " fill="#66365a"/>
<g opacity=".160004">
<clipPath id="cp5">
<path transform="matrix(2.7777777,0,0,-2.7777777,0,2688.8778)" d="M 239.776 50.086 L 345.614 50.086 L 345.614 251.882 L 239.776 251.882 Z "/>
</clipPath>
<g clip-path="url(#cp5)">
<path transform="matrix(2.7777777,0,0,-2.7777777,916.42886,2549.7498)" d="M 0 0 C -22.799 2.614 -60.875 112.857 -90.138 172.229 L 15.25 201.796 C 18.15 161.158 6.299 31.542 0 0 " fill="#420000"/>
</g>
</g>
<path transform="matrix(2.7777777,0,0,-2.7777777,780.10476,2526.1343)" d="M 0 0 C -.611 -2.125 -80.946 17.068 -80.547 19.716 C -77.083 42.75 -66.212 88.408 -63.958 101.717 L 21.876 81.287 C 14.871 59.167 4.409 15.345 0 0 " fill="#ffc19f"/>
<path transform="matrix(2.7777777,0,0,-2.7777777,787.143,2556.594)" d="M 0 0 C -.379 -1.304 -94.231 15.33 -94.171 16.976 C -93.65 31.293 -87.639 65 -87.051 73.257 L 12.768 49.982 C 8.499 35.116 2.726 9.419 0 0 " fill="#fff9e1"/>
<path transform="matrix(2.7777777,0,0,-2.7777777,507.78169,2482.6995)" d="M 0 0 C 1.212 4.856 3.813 11.03 5.806 16.671 C 7.285 20.854 47.897 21.076 48.229 11.103 C 48.311 8.551 48.256 6.294 48.092 4.247 C 55.04 4.329 62.571 4.579 70.519 5.04 C 87.802 6.048 103.276 7.791 114.114 9.761 C 115.164 -5.995 114.381 -33.333 115.401 -50.852 C 115.401 -50.852 -64.97 -88.707 -94.086 -63.06 C -102.291 -55.833 -57.536 -21.951 0 0 " fill="#f73e6e"/>
<path transform="matrix(2.7777777,0,0,-2.7777777,827.2316,2593.427)" d="M 0 0 C .09 -3.898 .204 -7.656 .399 -10.99 C .399 -10.99 -179.972 -48.845 -209.088 -23.198 C -210.243 -22.18 -210.33 -20.624 -209.494 -18.654 C -159.288 -28.408 -44.862 -8.561 0 0 " fill="#d32955"/>
<path transform="matrix(2.7777777,0,0,-2.7777777,386.64219,2531.0736)" d="M 0 0 C .267 -1.374 1.559 -2.299 2.975 -2.005 C 11.367 -.247 22.562 -4.142 30.094 -11.182 C 30.625 -11.676 31.305 -11.901 31.974 -11.861 C 32.602 -11.826 33.216 -11.557 33.68 -11.063 C 34.635 -10.04 34.582 -8.437 33.56 -7.479 C 24.911 .604 11.958 4.923 2.005 2.97 C .631 2.706 -.267 1.374 0 0 M 43.259 -3.898 C 43.79 -4.437 44.508 -4.688 45.209 -4.646 C 45.802 -4.611 46.388 -4.369 46.845 -3.92 C 47.84 -2.935 47.847 -1.329 46.865 -.334 C 38.662 7.973 27.622 11.893 16.562 10.344 C 15.175 10.155 14.205 8.878 14.395 7.492 C 14.584 6.103 15.883 5.038 17.253 5.327 C 22.819 6.092 33.58 5.9 43.259 -3.898 M 55.927 2.571 C 56.461 1.893 57.269 1.561 58.067 1.609 C 58.566 1.638 59.065 1.816 59.486 2.147 C 60.586 3.015 60.773 4.609 59.905 5.708 C 52.67 14.881 40.308 19.482 29.837 16.968 C 28.478 16.637 27.642 15.262 27.976 13.903 C 28.305 12.542 29.665 11.734 31.039 12.038 C 39.64 14.17 49.875 10.237 55.927 2.571 " fill="#d3dae5"/>
<path transform="matrix(2.7777777,0,0,-2.7777777,850.5008,2383.8455)" d="M 0 0 C -12.796 1.843 -96.552 25.018 -102.208 27.709 C -91.971 71.212 -74.828 146.1 -65.394 177.76 L 47.363 138.1 C 38.179 110.416 12.714 31.921 0 0 " fill="#66365a"/>
<g opacity=".199997">
<clipPath id="cp6">
<path transform="matrix(2.7777777,0,0,-2.7777777,0,2688.8778)" d="M 214.371 433.732 L 368.312 433.732 L 368.312 548.704 L 214.371 548.704 Z "/>
</clipPath>
<g clip-path="url(#cp6)">
<path transform="matrix(2.7777777,0,0,-2.7777777,604.01028,1420.1408)" d="M 0 0 C 11.851 -25.405 54.543 -30.565 95.355 -11.527 C 136.167 7.512 159.647 43.54 147.796 68.945 C 135.945 94.348 93.253 99.51 52.441 80.472 C 11.629 61.434 -11.851 25.405 0 0 " fill="#720808"/>
</g>
</g>
<path transform="matrix(2.7777777,0,0,-2.7777777,1161.056,1698.0125)" d="M 0 0 C 28.864 -37.228 61.057 -64.095 89.31 -81.36 C 126.958 -104.368 155.931 -43.298 123.11 -26.794 C 95.964 -13.14 60.127 5.94 31.517 29.792 C 25.999 34.393 -4.521 5.833 0 0 " fill="#ffc19f"/>
<path transform="matrix(2.7777777,0,0,-2.7777777,1468.5838,567.89736)" d="M 0 0 C 16.175 -151.717 -64.012 -215.482 -191.132 -241.925 C -314.479 -267.584 -454.903 -152.36 -454.18 -3.397 C -453.778 79.312 -383.796 150.041 -263.716 158.996 C -135.903 168.525 -13.252 124.326 0 0 " fill="#af4935"/>
<path transform="matrix(2.7777777,0,0,-2.7777777,1246.7411,467.43638)" d="M 0 0 C 7.11 -19.507 -3.863 -218.183 -31.021 -257.733 C -54.86 -292.45 -111.588 -334.001 -203.347 -343.233 C -271.163 -350.056 -336.407 -300.63 -347.572 -252.566 C -357.009 -211.941 -351.216 -196.319 -353.832 -168.293 C -357.366 -130.459 -359.046 -112.98 -361.346 -95.61 C -364.271 -73.499 -373.728 -37.091 -362.306 -8.093 C -341.866 43.807 -268.559 80.809 -177.695 88.185 C -92.689 95.086 -25.742 70.629 0 0 " fill="#ffc19f"/>
<path transform="matrix(2.7777777,0,0,-2.7777777,1217.4935,867.6183)" d="M 0 0 C 22.253 49.755 38.58 120.706 32.792 189.466 C 26.966 258.669 -241.276 259.501 -289.859 207.465 C -297.164 199.644 -82.549 187.289 -74.135 180.68 C -20.135 138.282 -21.973 25.403 0 0 " fill="#af4935"/>
<path transform="matrix(2.7777777,0,0,-2.7777777,1384.7211,984.4211)" d="M 0 0 C -13.676 -42.815 -57.409 -67.773 -88.929 -61.786 C -120.449 -55.795 -109.575 73.05 -51.71 81.143 C -3.516 87.884 12.858 40.243 0 0 " fill="#ffc19f"/>
<path transform="matrix(2.7777777,0,0,-2.7777777,1280.8794,974.5842)" d="M 0 0 C -3.462 -18.215 -24.864 -32.612 -40.116 -26.724 C -46.064 -24.427 -32.478 39.014 -22.819 38.508 C -6.492 37.652 3.461 18.215 0 0 " fill="#e0956c"/>
<path transform="matrix(2.7777777,0,0,-2.7777777,810.70999,1098.5223)" d="M 0 0 C -5.125 15.587 -29.046 9.853 -62.668 7.093 C -64.429 6.948 -71.265 6.33 -73.023 6.157 C -106.595 2.853 -126.653 5.132 -126.741 -11.282 C -126.895 -40.944 -98.899 -69.943 -64.651 -68.741 C -30.52 -67.544 10.065 -30.632 0 0 " fill="#701608"/>
<path transform="matrix(2.7777777,0,0,-2.7777777,545.8478,1268.0357)" d="M 0 0 C 9.1 -5.038 19.492 -8.11 30.7 -7.716 C 42.785 -7.292 55.603 -2.247 66.771 5.269 C 56.708 13.901 42.166 17.821 28.934 16.347 C 16.854 15.006 5.871 9.15 0 0 " fill="#dd6b5b"/>
<path transform="matrix(2.7777777,0,0,-2.7777777,619.0636,1138.3756)" d="M 0 0 C -24.846 -2.24 -45.393 2.96 -49.059 14.36 L -49.274 15.058 C -42.144 18.482 -20.712 19.312 -7.906 20.564 C 6.067 21.934 46.308 25.151 46.308 25.151 L 46.221 24.425 C 44.687 12.559 24.824 2.24 0 0 " fill="#ffffff"/>
<path transform="matrix(2.7777777,0,0,-2.7777777,1031.5621,1063.2965)" d="M 0 0 C 1.763 -8.98 -9.285 -18.709 -24.682 -21.734 C -40.074 -24.754 -53.987 -19.928 -55.75 -10.948 C -57.513 -1.968 -46.458 7.763 -31.069 10.786 C -15.671 13.809 -1.763 8.98 0 0 " fill="#ff8a8a"/>
<path transform="matrix(2.7777777,0,0,-2.7777777,381.19749,1121.923)" d="M 0 0 C .162 -8.135 -7.516 -14.886 -17.153 -15.078 C -26.787 -15.27 -34.732 -8.831 -34.894 -.693 C -35.056 7.442 -27.373 14.193 -17.741 14.385 C -8.105 14.577 -.162 8.135 0 0 " fill="#ff8a8a"/>
<path transform="matrix(2.7777777,0,0,-2.7777777,630.9369,1038.7388)" d="M 0 0 C -1.003 -.082 -1.943 .569 -2.197 1.576 C -3.985 8.729 -10.098 12.951 -17.769 12.327 C -25.48 11.701 -30.956 6.447 -31.398 -.748 C -31.473 -1.9 -32.47 -2.783 -33.615 -2.708 C -34.769 -2.638 -35.647 -1.646 -35.575 -.491 C -35.011 8.724 -27.827 15.711 -18.105 16.499 C -8.442 17.285 -.416 11.696 1.865 2.594 C 2.145 1.471 1.464 .337 .344 .055 Z " fill="#c4735b"/>
<path transform="matrix(2.7777777,0,0,-2.7777777,455.90248,876.0835)" d="M 0 0 C 11.991 -20.048 12.616 -43.156 4.357 -52.623 C -8.088 -66.89 -39.79 -73.245 -53.299 -55.174 C -66.387 -37.675 -63.566 -3.609 -45.902 12.38 C -30.438 26.375 -11.604 19.402 0 0 " fill="#f9feff"/>
<path transform="matrix(2.7777777,0,0,-2.7777777,288.9522,873.2918)" d="M 0 0 C 12.013 33.557 48.239 25.455 60.506 -1.686 C 48.523 18.352 29.048 23.178 14.751 10.25 C 5.915 2.25 .277 -11.172 -.339 -25.649 C -.828 -37.193 2.112 -49.857 7.546 -57.127 C 1.606 -52.576 -8.833 -24.677 0 0 " fill="#843923"/>
<path transform="matrix(2.7777777,0,0,-2.7777777,398.46055,923.7301)" d="M 0 0 C 5.402 -14.123 1.791 -30.999 -8.065 -37.69 C -17.921 -44.381 -30.288 -38.356 -35.69 -24.233 C -41.091 -10.108 -37.48 6.766 -27.624 13.457 C -17.769 20.15 -5.402 14.125 0 0 " fill="#461d14"/>
<path transform="matrix(2.7777777,0,0,-2.7777777,393.30638,917.1837)" d="M 0 0 C 1.499 -3.918 .499 -8.601 -2.237 -10.457 C -4.97 -12.315 -8.402 -10.641 -9.901 -6.724 C -11.399 -2.806 -10.397 1.878 -7.664 3.733 C -4.93 5.591 -1.499 3.918 0 0 " fill="#fefffe"/>
<path transform="matrix(2.7777777,0,0,-2.7777777,724.5608,852.23928)" d="M 0 0 C -10.968 -22.096 -7.172 -44.922 4.988 -52.571 C 23.31 -64.095 64.052 -63.993 77.305 -43.54 C 90.141 -23.729 79.888 9.17 54.723 21.342 C 32.692 31.999 10.614 21.38 0 0 " fill="#f9feff"/>
<path transform="matrix(2.7777777,0,0,-2.7777777,931.94638,816.09939)" d="M 0 0 C -21.602 30.562 -65.12 15.352 -75.025 -13.761 C -64.067 8.322 -40.767 16.956 -20.4 7.117 C -7.813 1.025 1.868 -11.03 5.499 -25.128 C 8.394 -36.37 7.237 -49.403 1.905 -57.631 C 8.404 -51.97 15.886 -22.475 0 0 " fill="#843923"/>
<path transform="matrix(2.7777777,0,0,-2.7777777,851.93496,881.8332)" d="M 0 0 C 6.489 -14.028 1.549 -31.021 -11.033 -37.954 C -23.614 -44.89 -39.074 -39.139 -45.563 -25.111 C -52.052 -11.085 -47.112 5.908 -34.53 12.843 C -21.948 19.776 -6.489 14.028 0 0 " fill="#461d14"/>
<path transform="matrix(2.7777777,0,0,-2.7777777,845.5894,875.3977)" d="M 0 0 C 1.801 -3.891 .429 -8.606 -3.06 -10.529 C -6.551 -12.452 -10.841 -10.858 -12.641 -6.965 C -14.442 -3.075 -13.07 1.641 -9.579 3.564 C -6.09 5.489 -1.801 3.893 0 0 " fill="#fefffe"/>
<path transform="matrix(2.7777777,0,0,-2.7777777,214.06,377.0338)" d="M 0 0 C 44.845 40.336 96.286 56.935 158.031 59.835 C 227.518 63.097 318.843 41.735 370.857 -16.724 C 360.67 10.003 339.22 36.151 326.988 44.633 C 335.407 45.306 365.466 61.386 428.67 44.969 C 395.026 105.575 348.068 96.468 330.559 72.579 C 336.919 115.917 310.96 148.871 253.756 130.569 C 301.503 107.77 315.798 63.434 320.556 49.319 C 275.876 77.971 227.368 92.956 166.154 84.657 C 93.116 74.754 41.842 49.815 0 0 " fill="#ffaa00"/>
<path transform="matrix(2.7777777,0,0,-2.7777777,155.65528,367.169)" d="M 0 0 C 9.886 -3.544 21.664 -.948 26.081 2.92 C 13.596 30.413 22.495 67.132 54.922 74.192 C 57.793 3.496 265.317 96.256 329.489 7.095 C 327.542 7.073 338.31 -6.96 324.145 -20.652 C 305.787 -40.815 257.392 -73.951 202.464 -72.863 C 223.68 -65.669 266.003 -41.136 265.103 -29.542 C 235.58 -45.002 190.698 -66.741 116.461 -72.492 C 46.416 -77.918 -9.664 -53.097 0 0 " fill="#af4935"/>
<path transform="matrix(2.7777777,0,0,-2.7777777,1056.6603,350.34944)" d="M 0 0 C -3.646 -51.533 -11.477 -108.88 -13.432 -125.943 C -15.589 -144.789 12.34 -228.338 89.632 -185.229 C -10.614 -167.101 116.643 -38.149 0 0 " fill="#af4935"/>
<path transform="matrix(2.7777777,0,0,-2.7777777,967.7194,673.9768)" d="M 0 0 C -1.524 -.01 -3.05 .521 -4.27 1.604 C -19.898 15.382 -49.428 19.053 -73.015 10.095 C -76.285 8.833 -79.988 10.492 -81.258 13.804 C -82.509 17.098 -80.854 20.784 -77.549 22.046 C -49.408 32.714 -15.021 28.148 4.187 11.175 C 6.831 8.838 7.083 4.803 4.743 2.16 C 3.496 .738 1.756 .013 0 0 " fill="#72221a"/>
<path transform="matrix(2.7777777,0,0,-2.7777777,258.14613,736.351)" d="M 0 0 C -1.399 -.207 -2.888 .217 -4.075 1.319 C -6.299 3.364 -6.651 6.958 -4.863 9.352 C 8.135 26.734 34.902 35.031 58.77 29.108 C 61.573 28.405 63.396 25.353 62.85 22.285 C 62.297 19.205 59.578 17.283 56.79 17.986 C 36.782 22.981 13.734 16.085 3.182 1.948 C 2.357 .84 1.214 .18 0 0 " fill="#72221a"/>
<path transform="matrix(2.7777777,0,0,-2.7777777,883.82168,1634.9592)" d="M 0 0 C 0 -5.524 -4.479 -10 -10 -10 C -15.524 -10 -20.001 -5.524 -20.001 0 C -20.001 5.521 -15.524 10 -10 10 C -4.479 10 0 5.521 0 0 " fill="#f7a4b8"/>
<path transform="matrix(2.7777777,0,0,-2.7777777,1060.6575,1558.0305)" d="M 0 0 C -.708 -5.631 5.477 -11.048 13.818 -12.098 C 22.158 -13.148 29.495 -9.434 30.203 -3.803 C 30.914 1.828 24.727 7.245 16.385 8.295 C 8.045 9.345 .708 5.631 0 0 " fill="#e4a78e"/>
<path transform="matrix(2.7777777,0,0,-2.7777777,1099.2361,1471.5835)" d="M 0 0 C 3.629 .551 15.592 -1.648 24.48 -4.551 C 4.227 9.706 -7.472 -3.858 -8.177 .783 C -8.916 5.646 -3.145 15.178 3.359 16.168 C 7.945 16.866 24.564 14.093 34.236 10.694 C 19.662 23.278 3.833 16.347 4.477 20.879 C 5.17 25.747 11.883 30.944 18.457 31.198 C 27.555 31.552 54.728 18.235 57.06 12.135 C 59.73 5.152 59.239 -21.831 55.518 -44.037 C 51.191 -69.856 41.53 -97.011 25.33 -94.971 C -7.145 -90.876 9.918 -61.593 16.469 -42.034 C -3.855 -23.986 -11.063 -33.43 -13.674 -34.365 C -15.317 -29.729 -11.035 -18.435 -.352 -16.868 C 2.441 -16.46 10.18 -17.669 17.649 -19.567 C .179 -7.347 -9.621 -19.682 -10.302 -15.198 C -11.04 -10.337 -5.913 -.9 0 0 " fill="#ffc19f"/>
</g>
</g>
</g>
</g>
</svg>
