<?xml version="1.0" encoding="utf-8"?>
<!-- Generator: Adobe Illustrator 26.3.1, SVG Export Plug-In . SVG Version: 6.00 Build 0)  -->
<svg version="1.1" id="Layer_5" xmlns="http://www.w3.org/2000/svg" xmlns:xlink="http://www.w3.org/1999/xlink" x="0px" y="0px"
	 viewBox="0 0 1345.5 1613.8" style="enable-background:new 0 0 1345.5 1613.8;" xml:space="preserve">
<style type="text/css">
	.st0{fill:#129E93;}
	.st1{fill:#1DCCC3;}
	.st2{opacity:0.16;}
	.st3{fill:#AD5C49;}
	.st4{fill:#FFC19F;}
	.st5{fill:#AD2D00;}
	.st6{fill:#F29D77;}
	.st7{opacity:0.25;}
	.st8{fill:#FF4A69;}
	.st9{opacity:0.19;fill:#A32107;}
	.st10{fill:#E0956C;}
	.st11{fill:#934341;}
	.st12{fill:#FF9797;}
	.st13{fill:#C4735B;}
	.st14{fill:#773220;}
	.st15{fill:#F9FEFF;}
	.st16{fill:#7C3929;}
	.st17{fill:#63190D;}
	.st18{fill:#FEFFFE;}
	.st19{opacity:0.52;fill:#FFFFFF;}
</style>
<g>
	<g>
		<g>
			<path class="st0" d="M0.1,1579.2v17c0.4,9.4,7.9,17.7,18.3,17.7H1327c10.4,0,17.9-8.3,18.3-17.7v-17H0.1z"/>
			<path class="st1" d="M1327,1597.3H18.4c-13.7,0-22.6-14.4-16.5-26.6l91.5-184.3c3.1-6.3,9.5-10.2,16.5-10.2h1125.6
				c7,0,13.4,4,16.5,10.2l91.5,184.3C1349.6,1583,1340.7,1597.3,1327,1597.3z"/>
		</g>
		<g>
			<path class="st2" d="M1135,1490.2c23.3,4,93.7,70.7-58.7,67.8c-139.5-2.6-655-24.4-808.2-37c-23.3-1.9-41-36.9-43.4-45.3
				c-6.5-22.7,160.1-24.5,238.1-22.9C682.3,1457.4,1068.7,1478.8,1135,1490.2z"/>
			<path class="st3" d="M334.5,756.6c-61.9-153.9-50.7-333.2,29.7-575.2l1.4,7.2c1.2-4.4,2.2-8.7,3.4-13.2l598.2,16.8
				c0.9,4.4,1.8,8.7,2.6,13l6.6-4.1c75.1,247.7,81.4,396.2,75.4,489c-2.3-44.4-7.4-200-69.8-423.9c55.9,282.6,73.9,436.8,17.7,484.5
				c35.7-60.7,6-229-2.8-250.2c0,60.5,8.9,176.2-23.7,264.2c-146,80.6-481.7,66.9-566.1,18.3c-3.7-7.2-14.1-177.2-16.5-200.7
				c-4.9,8.1-1.4,192.9-3.3,200.5c-52-48.7-100.4-198.2-50.1-469.5C291.4,498.6,306.9,637.1,334.5,756.6z"/>
			<polygon class="st4" points="461.8,1445.8 371.4,1448.7 360.2,1301.1 470.7,1299.2 			"/>
			<path class="st5" d="M493.6,1126.7c-4.3,95.5-7.7,198.4-9.9,245.4c-18.6,2.9-100.6,3.1-124.8,1.8c-2-22.7-7.6-99.1-14.4-199.1
				c3.3-41.8,24.3-67.8,58.5-76.2C433.9,1091,476.9,1118.6,493.6,1126.7z"/>
			<path class="st4" d="M985.8,1393.2c25.1,18.6,61.4,53.2,65.8,57.7c2.1,2.1,70.8-36.5,68.9-39.5c-19.1-30-41.5-58.1-60.7-79.8
				C1050.1,1339.6,995,1384.6,985.8,1393.2z"/>
			<g>
				<path class="st4" d="M1112.4,1455.9c-2.8,23-24.1,39.4-47.6,36.5s-40.1-23.9-37.3-46.9c2.8-23,24.1-39.4,47.6-36.5
					C1098.6,1411.9,1115.2,1432.9,1112.4,1455.9z"/>
				<g>
					<path class="st4" d="M1035,1468.9c13.9,54,25.9,73.3,34.7,82.8c7.9,8.5,24.8,8.7,29-1.2c3.1-7.4-6.7-17.1-8.5-25.9
						c3.6,6.2,10.7,18.8,18.8,27.7c5.3,5.8,16.8,10.1,21.3-1.2c3.3,6.8,17.7,3.4,15.6-8.8c1.9,5.9,15.9,8.1,17.6-4.5
						c9.7,4.6,14.9-5.4,12.1-13.7c-4.7-13.8-42.8-93.9-61.5-123.1C1104.8,1386.5,1027.7,1440.4,1035,1468.9z"/>
					<path class="st6" d="M1127.3,1550.4c-2.1-4.6-6.7-15.1-9.6-25.9c-0.2-0.9,0.3-1.7,1.1-2c0.9-0.2,1.8,0.3,2,1.1
						c2.8,10.5,7.3,20.9,9.3,25.3c0.4,0.8,0,1.8-0.8,2.1C1128.6,1551.4,1127.7,1551,1127.3,1550.4z"/>
					<path class="st6" d="M1142.8,1542.3c-1.9-4.5-2.9-6.7-6-18.3c-0.2-0.8,0.3-1.7,1.1-1.9c0.8-0.2,1.7,0.2,1.9,1.1
						c3.1,11.4,4,13.3,5.8,17.7c0.4,0.8,0,1.8-0.8,2.1C1144.1,1543.4,1143.2,1543,1142.8,1542.3z"/>
					<path class="st6" d="M1160.6,1538.1c-2-4.5-1.9-2.5-5.1-14c-0.2-0.8,0.2-1.7,1.1-2c0.8-0.2,1.7,0.2,2,1.1
						c3.2,11.4,3,9.1,4.9,13.4c0.4,0.8,0,1.8-0.8,2.1C1161.9,1539.1,1161,1538.7,1160.6,1538.1z"/>
				</g>
			</g>
			<path class="st5" d="M793,974.6c-16.2-0.1-158.5,0.9-164.4,0.7c-44.6,21-221.4,115.5-248.4,132.5c11.9,30.7,47.8,92,67.4,130
				c13.2-4.1,180.5-81.7,203.8-88.8c30.7-9.4,52.9-8.8,81.3,22.6l0.4-0.5c82.4,78.5,226.5,225.5,264.9,264.2
				c19.1-14.8,76.7-62.6,89-76.8C1020.9,1264.1,840.2,1031.6,793,974.6z"/>
			<path class="st7" d="M887.5,1093.8c-38.9-49.9-72.4-92.3-90.8-114.7c-10-1.3-163.6-3.6-168.1-3.8
				c-23.9,11.2-85.7,43.6-142.2,73.8C580.4,1101,735.9,1119.3,887.5,1093.8z"/>
			<path class="st8" d="M486.4,1048.1c32.9,2.9,68.1,19.8,130.7,37.5c71.6,20.2,170,14.5,259.6-17.4c0,0-31.8-330.4-48-409.7
				c-86.1-23.4-235.5-13.5-314.1,0.3c-9.8,90.3-8.5,196.3-22.4,323.8c-1.1,10.5,13.5,18.6,0.6,26c-11.1,6.3-9,14.7-3.5,19.1
				C500.6,1037,483.8,1038.1,486.4,1048.1z"/>
			<path class="st4" d="M763.7,662.3c0.2-5.1-0.7-10.1-1.9-14.9c-52.6-3.3-131.7-4.1-188,0.6c-0.4,2.2-1.4,4.3-1.4,6.6
				c-1.6,39.6,39.9,73.5,92.8,75.6C718,732.4,762.1,702,763.7,662.3z"/>
			<path class="st4" d="M734.8,552.2v112.4c-0.2,24.1-31.2,43.4-69,43.1c-37.7-0.2-67.8-20-67.7-44V552.2H734.8z"/>
			<path class="st9" d="M793.3,647.3c-9.7,0.3-18.7,0.6-26.1,1c-10.5-1.1-21.3-1.9-32.4-2.4v-61.7c-45.2-1.1-94.8-0.6-136.5,2.2
				v52.4c18.3,23.3,50.9,41.3,89.2,41.3C750.4,680.1,779.1,664.5,793.3,647.3z"/>
			<path class="st4" d="M186.2,696.9c-8.9-1.8,8-74.9,17-73.6c134.8,18.8,304.7,32.5,340,32.8l-18.7,96.5
				C447,740.3,303.7,720.8,186.2,696.9z"/>
			<path class="st8" d="M386.8,639.7c-4.8,32.4-10.9,103.9-10.3,137.4c71.6,10.6,136.5,16,141.3,13.9
				c50.2-22.7,55.1-135.8,57.3-142.6C536.6,646.3,458.2,646.3,386.8,639.7z"/>
			<path class="st4" d="M1153.2,696.9c8.9-1.8-8-74.9-17-73.6c-134.8,18.8-304.7,32.5-340,32.8l18.7,96.5
				C892.4,740.3,1035.7,720.8,1153.2,696.9z"/>
			<path class="st8" d="M952.6,639.7c4.8,32.4,10.9,103.9,10.3,137.4c-71.6,10.6-136.5,16-141.3,13.9
				c-50.2-22.7-55.1-135.8-57.3-142.6C802.8,646.3,881.1,646.3,952.6,639.7z"/>
			<g>
				<path class="st10" d="M30.3,667.7c21.6-1.3,53.7-6.8,115.4-8.6c7-0.2,19.7,27.7,12.6,26.9C117,681.2,37.4,697.6,30.3,667.7z"/>
				<path class="st10" d="M14.6,639.4c21.6-1.3,72.8-14.8,130.4-0.4c7.1,1.8,16.3,29.8,9.2,29C112.9,663.2,21.1,664,14.6,639.4z"/>
				<path class="st4" d="M12.2,601.3c21.6-1.3,140.6,9.8,198.2,24.2c7.1,1.8,0.7,53.3-9.6,58.7c-14.8,23.4-60,17.8-108.1,48.8
					c-8.3,5.3-9.8-9.9-8.5-14.3c3.6-11.3,8.1-12.4,25.5-35.9c10.6-14.3-0.6-31-10.8-37.2C51.5,626.3,15.8,621.8,12.2,601.3z"/>
			</g>
			<g>
				<path class="st10" d="M1307.9,667.7c-21.6-1.3-53.7-6.8-115.4-8.6c-7-0.2-19.7,27.7-12.6,26.9
					C1221.2,681.2,1300.7,697.6,1307.9,667.7z"/>
				<path class="st10" d="M1323.6,639.4c-21.6-1.3-72.8-14.8-130.4-0.4c-7.1,1.8-16.3,29.8-9.2,29
					C1225.3,663.2,1317.1,664,1323.6,639.4z"/>
				<path class="st4" d="M1326,601.3c-21.6-1.3-140.6,9.8-198.2,24.2c-7.1,1.8-0.7,53.3,9.6,58.7c14.8,23.4,60,17.8,108.1,48.8
					c8.3,5.3,9.8-9.9,8.5-14.3c-3.6-11.3-8.1-12.4-25.5-35.9c-10.6-14.3,0.6-31,10.8-37.2C1286.7,626.3,1322.3,621.8,1326,601.3z"/>
			</g>
			<g>
				<path class="st4" d="M382.1,1381.7c9.8,3.3,66.9,13.7,82,15.6c0.5,37.6,10.4,51.2,6.8,71.2c-3.2,17.6-16.9,29.8-32.8,31.6
					c-16.2,1.8-34.4,3.4-59.5,6.1c-41.8,4.6-92.4,24.5-127.8,9.2c-4.9-2.1-18.9-13.1-14.4-19.2c4.1-5.5,37.6-8,35.8-12.4
					c-1.2-3-32.8,6-43.9,1.9c-6-2.2-9.6-14-1.2-15.9c0.5-0.1-3.2-6.2-2-9c1.8-4.2,11.6-5,11.5-6.8c-0.6-13.7,29.7-14.6,57.1-23.9
					C333.9,1416.4,361.2,1403.7,382.1,1381.7z"/>
				<path class="st6" d="M227.5,1471.2c4.3-0.6,30.1-5.7,39.3-8.6c0.7-0.2,1.1-1,0.9-1.7c-0.2-0.7-1-1.2-1.7-0.9
					c-8.9,2.8-34.6,8-38.8,8.5c-0.8,0.1-1.3,0.8-1.2,1.5C226.1,1470.7,226.8,1471.2,227.5,1471.2z"/>
				<path class="st6" d="M237.6,1455.2c4.2-0.6,13.4-2.7,23.3-5.5c0.7-0.2,1.2-0.9,0.9-1.7c-0.2-0.7-0.9-1.1-1.7-0.9
					c-9.8,2.7-18.7,4.8-22.8,5.4c-0.8,0.1-1.3,0.8-1.2,1.5C236.3,1454.7,237,1455.2,237.6,1455.2z"/>
			</g>
			<g>
				<path class="st4" d="M332,452.8c14.7,61.7,73.6,101.6,118.6,96.5c45-5.1,54.7-55.3,48-114.6C492,375.3,450,331.2,405,336.4
					C343.5,343.5,318.2,394.8,332,452.8z"/>
				<path class="st10" d="M387.8,469c2.9,26,23.9,45,46.9,42.4c22.9-2.6,39.2-25.8,36.2-51.8c-2.9-26-23.9-45-46.8-42.4
					C401.1,419.8,384.9,442.9,387.8,469z"/>
				<path class="st4" d="M999.6,472.2c-17.9,60.9-78.9,97.5-123.5,90.1c-44.7-7.4-51.7-58.1-41.9-117c9.8-58.9,54-100.8,98.7-93.2
					C993.9,362.5,1016.5,414.9,999.6,472.2z"/>
				<path class="st10" d="M941.9,483.6c-4.3,25.8-26.2,43.7-49,39.9c-22.8-3.8-37.7-27.8-33.4-53.6c4.3-25.8,26.2-43.7,49-39.9
					C931.2,433.8,946.2,457.8,941.9,483.6z"/>
				<path class="st3" d="M980.8,274.3C975.4,475.7,845.5,562.9,667,558.1c-178.5-4.7-318.4-99-313.1-300.4
					C359.2,56.4,502.8,13.3,681.3,18C859.8,22.7,986.1,72.9,980.8,274.3z"/>
				<path class="st4" d="M917,191c14.3,34.2-3.6,331.6-39.1,372.2c-37.7,43.1-187,81.3-218.1,80.4c-33.4-0.9-177.6-42.5-204.5-91.6
					c-31.9-58.1-39.7-323.4-28.2-354.6C465.9,91.9,558.6,90.8,679.8,94C793.1,97,879.8,102.4,917,191z"/>
				<path class="st11" d="M669.6,543.2l-0.8,0c-27.4,0.8-51.3-6.4-63.7-19.4c-1.7-1.8-1.6-4.5,0.1-6.2c1.7-1.7,4.5-1.6,6.2,0.1
					c10.6,11.1,32.5,17.5,57.1,16.7l0.7,0c24.5-0.9,45.8-8.7,55.8-20.4c1.6-1.8,4.4-2,6.2-0.5c1.8,1.6,2.1,4.3,0.5,6.2
					C720.1,533.5,696.9,542.3,669.6,543.2z"/>
				<path class="st12" d="M466,461.3c-0.8,11.7,14.8,22.3,34.9,23.6c20,1.4,36.9-7,37.7-18.7c0.8-11.7-14.8-22.3-34.9-23.6
					C483.7,441.2,466.8,449.6,466,461.3z"/>
				<path class="st12" d="M800.3,467.3c0.9,11.7,17.8,20,37.8,18.5c20-1.5,35.6-12.1,34.8-23.8c-0.9-11.7-17.8-20-37.8-18.5
					C815,444.9,799.5,455.6,800.3,467.3z"/>
				<path class="st13" d="M690.4,456.7c-1.3,0-2.5-1-2.7-2.3c-1.6-9.7-9.2-15.9-19.5-15.9c-10.3,0-18.1,6.4-19.5,15.9
					c-0.2,1.5-1.6,2.6-3.1,2.4c-1.5-0.2-2.6-1.6-2.4-3.1c1.7-12.1,12-20.6,25-20.6c12.9,0,22.9,8.3,25,20.6c0.3,1.5-0.8,2.9-2.3,3.2
					L690.4,456.7z"/>
				<path class="st14" d="M855.9,273.5c-1.9-0.2-3.6-1.1-4.9-2.7c-16.8-19.4-52.3-28.8-82.6-21.7c-4.2,1-8.5-1.6-9.5-5.9
					c-1-4.2,1.6-8.5,5.9-9.5c36.1-8.4,77.4,2.9,98.1,26.8c2.8,3.3,2.5,8.3-0.8,11.1C860.3,273.1,858,273.7,855.9,273.5z"/>
				<path class="st14" d="M480.8,277.8c-2.2,0.2-4.4-0.5-6.1-2.1c-3.2-3-3.4-7.9-0.4-11.1c21.5-23.1,63.2-32.9,99-23.2
					c4.2,1.1,6.7,5.5,5.5,9.7c-1.1,4.2-5.5,6.7-9.7,5.5c-30-8.2-65.8-0.1-83.3,18.7C484.5,276.8,482.7,277.6,480.8,277.8z"/>
				<path class="st3" d="M990.7,331.5c-35-11.6-39.7-48.1-43.2-106.2c19.9-5-7.1-147.5-106.2-190.6C711.5-21.7,548.9-3.4,480,46.6
					c-73.4,53.2-85.9,119.1-97.9,197.6c-9.7,63.8,16.2,110-30.4,148.3c54.4,1.2,86.2-43.3,94.9-83.9c9.7-45-11.7-86.1-5.3-103.8
					c3.7-10.2,61.6-56,76.6-56.9c32.6-1.9,61.7,90.6,177.3,85.3c-47.4-24.4-73.8-60.2-100.9-111.5c9.2,5.3,18.5,11.8,27.7,19.7
					c97.2,83.6,201.9,103.3,283.3,93.7c5.6,85.6-32.3,130.1,71.6,159.6c-9.7-11.6-24.3-46.9-27-75.1
					C961.1,326.3,972.2,348.7,990.7,331.5z"/>
				<g>
					<path class="st15" d="M732.5,356.6c-19.4,28.1-17.1,59.2-0.1,71.1c25.5,17.9,86,23.2,108.5-2.5c21.9-24.8,11.4-70.3-24.2-89.9
						C785.5,318.1,751.2,329.4,732.5,356.6z"/>
					<path class="st16" d="M845,349.1c-27.7-43.8-94.4-29.2-113.2,8.5c19.4-28.1,55.2-36.6,84-20.7c17.8,9.8,30.4,27.3,33.8,46.6
						c2.7,15.4-0.9,32.7-10,43.1C850.1,419.9,865.4,381.4,845,349.1z"/>
					<path class="st17" d="M739.5,375.2c-8,19.5,1.4,41.8,20.9,49.8c19.5,8,41.8-1.4,49.8-20.9c8-19.5-1.4-41.8-20.9-49.8
						C769.8,346.4,747.5,355.7,739.5,375.2z"/>
					<path class="st18" d="M742.7,371.9c-2.2,5.4,0.4,11.6,5.8,13.8c5.4,2.2,11.6-0.4,13.8-5.8c2.2-5.4-0.4-11.6-5.8-13.8
						C751.1,363.9,744.9,366.5,742.7,371.9z"/>
				</g>
				<g>
					<path class="st15" d="M599.1,355.4c18.9,28.5,16,59.5-1.2,71.1c-25.8,17.4-86.4,21.6-108.5-4.5c-21.4-25.2-10.1-70.5,25.8-89.4
						C546.8,315.9,580.8,327.8,599.1,355.4z"/>
					<path class="st16" d="M486.7,345.8c28.5-43.3,94.9-27.5,113.1,10.5c-18.9-28.5-54.5-37.6-83.6-22.2c-18,9.5-30.9,26.7-34.6,46
						c-3,15.4,0.3,32.8,9.2,43.2C480.4,416.5,465.8,377.7,486.7,345.8z"/>
					<path class="st17" d="M520.8,373.2c-8,19.5,1.4,41.8,20.9,49.8c19.5,8,41.8-1.4,49.8-20.9c8-19.5-1.4-41.8-20.9-49.8
						C551.1,344.3,528.8,353.7,520.8,373.2z"/>
					<path class="st18" d="M523.9,369.9c-2.2,5.4,0.4,11.6,5.8,13.8c5.4,2.2,11.6-0.4,13.8-5.8c2.2-5.4-0.4-11.6-5.8-13.8
						C532.3,361.8,526.1,364.4,523.9,369.9z"/>
				</g>
				<path class="st8" d="M371.1,225C418.2,86.7,515.1,11.6,677.6,10.4c133.3-1,234.6,73.6,286.2,219.8
					c-70-117.5-164.1-175.6-299.5-171.7C540.2,62.1,442.6,113.4,371.1,225z"/>
			</g>
			<path class="st19" d="M754.1,846.5c-0.6-23.6-17.1-36.4-38-36.4c-14.8,0-27.7,13.7-33.9,27.8c-6.3-14.1-19.1-27.8-33.9-27.8
				c-20.9,0-37.3,12.8-38,36.4c-1.1,34.3,71.9,88.6,71.9,88.6S755.1,885.9,754.1,846.5z"/>
		</g>
	</g>
</g>
</svg>
