<?xml version="1.0" encoding="UTF-8" standalone="no"?>
<svg
   xmlns:dc="http://purl.org/dc/elements/1.1/"
   xmlns:cc="http://creativecommons.org/ns#"
   xmlns:rdf="http://www.w3.org/1999/02/22-rdf-syntax-ns#"
   xmlns:svg="http://www.w3.org/2000/svg"
   xmlns="http://www.w3.org/2000/svg"
   viewBox="0 0 808.45734 2059.6267"
   height="2059.6267"
   width="808.45734"
   xml:space="preserve"
   id="svg2"
   version="1.1"><metadata
     id="metadata8"><rdf:RDF><cc:Work
         rdf:about=""><dc:format>image/svg+xml</dc:format><dc:type
           rdf:resource="http://purl.org/dc/dcmitype/StillImage" /></cc:Work></rdf:RDF></metadata><defs
     id="defs6"><clipPath
       id="clipPath18"
       clipPathUnits="userSpaceOnUse"><path
         id="path16"
         d="M 0,1544.721 H 606.344 V 0 H 0 Z" /></clipPath><clipPath
       id="clipPath134"
       clipPathUnits="userSpaceOnUse"><path
         id="path132"
         d="M 252.267,934.067 H 365.995 V 902.025 H 252.267 Z" /></clipPath><clipPath
       id="clipPath150"
       clipPathUnits="userSpaceOnUse"><path
         id="path148"
         d="m 251.449,1248.39 h 138.838 v -99.28 H 251.449 Z" /></clipPath><clipPath
       id="clipPath286"
       clipPathUnits="userSpaceOnUse"><path
         id="path284"
         d="M 256.283,985.694 H 363.038 V 884.137 H 256.283 Z" /></clipPath></defs><g
     transform="matrix(1.3333333,0,0,-1.3333333,0,2059.6267)"
     id="g10"><g
       id="g12"><g
         clip-path="url(#clipPath18)"
         id="g14"><g
           transform="translate(146.2456,83.5518)"
           id="g20"><path
             id="path22"
             style="fill:#f9ad8c;fill-opacity:1;fill-rule:nonzero;stroke:none"
             d="m 0,0 78.91,-10.394 c 1.752,18.172 4.691,73.292 6.901,94.703 L 3.303,91.447 C 2.262,58.158 -0.141,11.562 0,0" /></g><g
           transform="translate(459.8233,83.5518)"
           id="g24"><path
             id="path26"
             style="fill:#f9ad8c;fill-opacity:1;fill-rule:nonzero;stroke:none"
             d="m 0,0 -78.91,-10.394 c -1.751,18.172 -4.691,73.292 -6.9,94.703 l 82.507,7.138 C -2.262,58.158 0.141,11.562 0,0" /></g><g
           transform="translate(369.3515,54.6015)"
           id="g28"><path
             id="path30"
             style="fill:#f5f79e;fill-opacity:1;fill-rule:nonzero;stroke:none"
             d="m 0,0 c 0.102,-2.516 98.939,-6.454 99.18,-3.411 1.936,24.512 5.483,58.373 6.65,73.84 L 0.385,73.119 C 1.274,45.144 -0.631,16.107 0,0" /></g><g
           transform="translate(497.0732,83.1291)"
           id="g32"><path
             id="path34"
             style="fill:#ef2c7e;fill-opacity:1;fill-rule:nonzero;stroke:none"
             d="m 0,0 c -1.459,5.518 -4.517,12.514 -6.876,18.909 -1.749,4.746 -48.037,4.372 -48.257,-6.998 -0.058,-2.909 0.038,-5.48 0.258,-7.811 -7.919,-0.012 -16.504,0.153 -25.572,0.558 -19.708,0.883 -37.37,2.632 -49.753,4.708 -0.953,-17.971 0.359,-49.116 -0.533,-69.097 0,0 206.142,-40.36 238.928,-10.683 C 117.434,-62.053 65.909,-24.13 0,0" /></g><g
           transform="translate(366.6242,35.9295)"
           id="g36"><path
             id="path38"
             style="fill:#af1d55;fill-opacity:1;fill-rule:nonzero;stroke:none"
             d="m 0,0 c -0.041,-4.444 -0.116,-8.73 -0.284,-12.531 0,0 206.142,-40.361 238.928,-10.684 1.301,1.178 1.376,2.953 0.394,5.186 C 181.968,-29.921 51.262,-9.065 0,0" /></g><g
           transform="translate(544.7101,67.309)"
           id="g40"><path
             id="path42"
             style="fill:#cad4df;fill-opacity:1;fill-rule:nonzero;stroke:none"
             d="m 0,0 c -11.373,2.073 -26.067,-3.049 -35.798,-12.392 -1.152,-1.109 -1.19,-2.936 -0.081,-4.088 0.533,-0.553 1.236,-0.852 1.954,-0.883 0.762,-0.035 1.535,0.231 2.131,0.802 8.475,8.141 21.174,12.751 30.766,10.877 1.619,-0.315 3.075,0.762 3.359,2.331 C 2.611,-1.784 1.569,-0.278 0,0 m -17.412,2.452 c 1.566,-0.307 3.028,0.927 3.222,2.511 0.194,1.583 -0.929,3.025 -2.513,3.219 -12.629,1.592 -25.152,-3.046 -34.371,-12.638 -1.106,-1.149 -1.071,-2.979 0.079,-4.088 0.527,-0.504 1.198,-0.77 1.876,-0.802 0.799,-0.035 1.612,0.263 2.212,0.886 10.878,11.315 23.136,11.697 29.495,10.912 m -15.815,7.436 c 1.57,-0.325 3.107,0.616 3.463,2.171 0.356,1.555 -0.617,3.107 -2.172,3.466 -11.972,2.704 -25.988,-2.731 -34.092,-13.296 -0.973,-1.268 -0.735,-3.08 0.533,-4.05 0.486,-0.374 1.057,-0.568 1.627,-0.594 0.909,-0.04 1.824,0.348 2.42,1.129 6.781,8.831 18.383,13.472 28.221,11.174" /></g><g
           transform="translate(233.0922,50.0998)"
           id="g44"><path
             id="path46"
             style="fill:#f5f79e;fill-opacity:1;fill-rule:nonzero;stroke:none"
             d="m 0,0 c -0.235,-2.507 -95.12,-1.381 -95.384,1.659 -2.096,23.973 -4.939,61.477 -6.477,74.396 L 3.573,73.035 C 1.173,45.147 1.503,16.049 0,0" /></g><g
           transform="translate(109.2705,81.3087)"
           id="g48"><path
             id="path50"
             style="fill:#ef2c7e;fill-opacity:1;fill-rule:nonzero;stroke:none"
             d="m 0,0 c 1.456,5.518 4.517,12.514 6.874,18.909 1.751,4.746 48.036,4.372 48.259,-6.998 0.058,-2.909 -0.041,-5.48 -0.261,-7.811 7.922,-0.012 16.507,0.153 25.572,0.558 19.711,0.883 37.373,2.632 49.756,4.708 0.953,-17.971 -0.359,-49.116 0.533,-69.097 0,0 -206.145,-40.36 -238.929,-10.683 C -117.435,-62.053 -65.909,-24.13 0,0" /></g><g
           transform="translate(239.7195,34.1091)"
           id="g52"><path
             id="path54"
             style="fill:#af1d55;fill-opacity:1;fill-rule:nonzero;stroke:none"
             d="m 0,0 c 0.04,-4.444 0.113,-8.73 0.284,-12.531 0,0 -206.145,-40.361 -238.929,-10.684 -1.302,1.178 -1.375,2.953 -0.393,5.186 C -181.969,-29.921 -51.262,-9.065 0,0" /></g><g
           transform="translate(59.3029,62.1357)"
           id="g56"><path
             id="path58"
             style="fill:#cad4df;fill-opacity:1;fill-rule:nonzero;stroke:none"
             d="m 0,0 c 0.281,-1.569 1.74,-2.646 3.359,-2.331 9.592,1.874 22.291,-2.736 30.765,-10.877 0.597,-0.571 1.37,-0.837 2.131,-0.802 0.716,0.031 1.422,0.33 1.955,0.883 1.106,1.152 1.071,2.979 -0.082,4.088 C 28.397,0.304 13.704,5.426 2.331,3.353 0.761,3.075 -0.284,1.569 0,0 m 49.238,-5.107 c 0.599,-0.623 1.413,-0.921 2.212,-0.886 0.677,0.032 1.349,0.298 1.873,0.802 1.153,1.109 1.187,2.939 0.081,4.088 -9.218,9.592 -21.741,14.23 -34.37,12.638 -1.584,-0.194 -2.71,-1.636 -2.513,-3.22 0.194,-1.583 1.656,-2.817 3.222,-2.51 6.355,0.785 18.617,0.403 29.495,-10.912 m 14.537,7.174 c 0.6,-0.781 1.515,-1.169 2.424,-1.129 0.57,0.026 1.141,0.22 1.627,0.594 1.268,0.97 1.506,2.782 0.533,4.05 -8.104,10.565 -22.121,16 -34.093,13.296 -1.555,-0.359 -2.527,-1.911 -2.171,-3.466 0.356,-1.555 1.89,-2.496 3.463,-2.171 9.838,2.298 21.439,-2.343 28.217,-11.174" /></g><g
           transform="translate(471.5765,1105.3066)"
           id="g60"><path
             id="path62"
             style="fill:#a44d44;fill-opacity:1;fill-rule:nonzero;stroke:none"
             d="m 0,0 c 36.976,87.203 31.148,135.693 -1.567,322.306 l -341.473,12.785 c -44.275,-146.119 -46.635,-228.021 -45.769,-281.659 2.349,25.511 -1.603,78.699 37.408,206.2 -37.021,-161.471 -39.925,-213.566 -11.036,-242.343 -17.599,35.763 2.493,132.039 7.742,144.064 -1.493,-34.873 -9.168,-101.292 6.089,-152.717 68.675,-42.407 261.141,-40.577 317.252,-23.631 5.654,12.868 10.422,97.7 12.271,114.681 3.308,-23.244 2.811,-84.181 -2.127,-113.891 C 3.586,14.727 14.765,117.981 3.397,253.819 23.828,146.497 22.23,71.663 0,0" /></g><g
           transform="translate(547.034,588.4388)"
           id="g64"><path
             id="path66"
             style="fill:#dc835e;fill-opacity:1;fill-rule:nonzero;stroke:none"
             d="m 0,0 c 2.167,18.264 8.069,45.201 12.783,97.36 0.539,5.956 -20.118,17.994 -19.566,11.948 C -3.384,72.096 -24.336,-3.903 0,0" /></g><g
           transform="translate(567.4517,573.8358)"
           id="g68"><path
             id="path70"
             style="fill:#dc835e;fill-opacity:1;fill-rule:nonzero;stroke:none"
             d="m 0,0 c 2.167,18.264 15.14,60.962 7.427,110.456 -0.952,6.105 -22.097,15.147 -21.313,9.123 C -8.246,76.166 -24.883,0.59 0,0" /></g><g
           transform="translate(596.009,569.9678)"
           id="g72"><path
             id="path74"
             style="fill:#f9ad8c;fill-opacity:1;fill-rule:nonzero;stroke:none"
             d="m 0,0 c 2.166,18.264 0.283,119.619 -7.432,169.113 -0.951,6.105 -43.304,3.672 -47.94,-4.846 -23.781,-15.064 -13.437,-50.541 -39.358,-89.868 -4.478,-6.792 6.918,-8.811 10.291,-7.845 8.697,2.493 11.451,9.107 30.084,22.716 11.356,8.293 21.961,0.199 26.047,-8.699 C -12.792,39.061 -21.427,-3.284 0,0" /></g><g
           transform="translate(97.0295,586.3766)"
           id="g76"><path
             id="path78"
             style="fill:#dc835e;fill-opacity:1;fill-rule:nonzero;stroke:none"
             d="m 0,0 c -3.391,18.077 -11.093,44.556 -19.309,96.278 -0.938,5.907 18.862,19.308 18.717,13.239 C -1.477,72.16 24.544,-2.255 0,0" /></g><g
           transform="translate(77.6413,570.4323)"
           id="g80"><path
             id="path82"
             style="fill:#dc835e;fill-opacity:1;fill-rule:nonzero;stroke:none"
             d="m 0,0 c -3.391,18.077 -19.21,59.805 -14.846,109.705 0.538,6.156 21.027,16.601 20.651,10.538 C 3.099,76.548 24.787,2.264 0,0" /></g><g
           transform="translate(49.4091,564.6504)"
           id="g84"><path
             id="path86"
             style="fill:#f9ad8c;fill-opacity:1;fill-rule:nonzero;stroke:none"
             d="m 0,0 c -3.391,18.077 -8.335,119.328 -3.97,169.23 0.538,6.155 42.958,6.579 48.157,-1.608 24.742,-13.429 16.809,-49.521 45.32,-87.015 4.924,-6.475 -6.309,-9.256 -9.74,-8.519 C 70.922,73.989 67.729,80.404 48.222,92.727 36.334,100.237 26.297,91.447 22.82,82.294 10.134,39.833 21.6,-1.834 0,0" /></g><g
           transform="translate(460.7823,731.3638)"
           id="g88"><path
             id="path90"
             style="fill:#264766;fill-opacity:1;fill-rule:nonzero;stroke:none"
             d="m 0,0 -311.724,6.503 c -2.331,-167.819 -9.664,-417.238 -12.638,-582.008 h 104.874 c 11.557,128.522 29.076,336.364 43.121,433.564 3.033,20.988 44.5,26.278 46.086,-1.017 6.249,-107.548 24.016,-303.26 33.992,-427.277 l 105.43,4.638 C 8.808,-426.991 3.39,-184.302 0,0" /></g><g
           transform="translate(168.3956,1051.176)"
           id="g92"><path
             id="path94"
             style="fill:#f9ad8c;fill-opacity:1;fill-rule:nonzero;stroke:none"
             d="m 0,0 c -33.178,-81.629 -66.807,-278.921 -60.696,-333.499 0.629,-5.627 -62.555,-5.187 -62.661,0.49 -0.388,21.135 10.632,228.588 47.916,352.178 C -65.688,17.751 -7.885,-2.977 0,0" /></g><g
           transform="translate(64.1857,1029.9248)"
           id="g96"><path
             id="path98"
             style="fill:#ef3079;fill-opacity:1;fill-rule:nonzero;stroke:none"
             d="m 0,0 c 14.423,21.438 21.472,30.184 57.093,82.504 10.627,15.609 24.92,50.209 89.982,30.755 C 161.41,82.029 137.78,-20.821 128.924,-52.468 75.011,-52.787 6.67,-20.406 0,0" /></g><g
           transform="translate(444.464,1043.4069)"
           id="g100"><path
             id="path102"
             style="fill:#f9ad8c;fill-opacity:1;fill-rule:nonzero;stroke:none"
             d="m 0,0 c 38.598,-79.21 85.433,-273.79 83.01,-328.657 -0.248,-5.655 62.763,-0.963 62.486,4.708 C 144.46,-302.836 119.499,-96.596 73.98,24.204 64.344,22.133 8.067,-2.439 0,0" /></g><g
           transform="translate(550.167,1029.1415)"
           id="g104"><path
             id="path106"
             style="fill:#ef3079;fill-opacity:1;fill-rule:nonzero;stroke:none"
             d="m 0,0 c -14.206,21.582 -21.166,30.399 -56.257,83.076 -10.467,15.715 -24.412,50.458 -89.667,31.661 -14.65,-31.083 7.941,-134.167 16.477,-165.901 C -75.54,-52.027 -6.875,-20.337 0,0" /></g><g
           transform="translate(470.8842,715.9542)"
           id="g108"><path
             id="path110"
             style="fill:#ef3079;fill-opacity:1;fill-rule:nonzero;stroke:none"
             d="m 0,0 c -11.647,86.143 -33.799,142.566 -37.251,206.037 6.811,54.548 18.911,65.292 16.774,94.881 -1.657,22.956 -8.291,50.726 -23.825,127.802 -20.924,5.411 -67.522,5.668 -119.081,5.627 -51.562,-0.041 -99.963,-1.768 -120.88,-7.213 -15.408,-77.103 -20.191,-103.488 -21.811,-126.448 -2.089,-29.592 15.874,-40.309 22.774,-94.849 C -286.651,142.361 -315.789,79.049 -330.739,-2.278 -243.427,-46.86 -88.403,-40.294 0,0" /></g><g
           transform="translate(376.0691,1150.5004)"
           id="g112"><path
             id="path114"
             style="fill:#f9ad8c;fill-opacity:1;fill-rule:nonzero;stroke:none"
             d="m 0,0 c -42.865,2.523 -89.017,2.458 -134.083,-1.179 -1.69,-4.649 -2.884,-9.442 -2.888,-14.468 -0.038,-29.546 31.072,-52.809 69.484,-51.958 C -29.07,-66.752 2.1,-42.108 2.134,-12.56 2.142,-8.196 1.275,-4.032 0,0" /></g><g
           transform="translate(360.6396,1198.7468)"
           id="g116"><path
             id="path118"
             style="fill:#f9ad8c;fill-opacity:1;fill-rule:nonzero;stroke:none"
             d="m 0,0 0.77,-82.347 c 0.166,-17.705 -22.696,-32.278 -51.064,-32.544 -28.367,-0.266 -51.497,13.877 -51.663,31.584 l -0.772,82.344 z" /></g><g
           transform="translate(248.8282,147.0865)"
           id="g120"><path
             id="path122"
             style="fill:#366285;fill-opacity:1;fill-rule:nonzero;stroke:none"
             d="m 0,0 -120.687,5.985 2.034,41.024 120.687,-5.984 z" /></g><g
           transform="translate(357.2426,147.0865)"
           id="g124"><path
             id="path126"
             style="fill:#366285;fill-opacity:1;fill-rule:nonzero;stroke:none"
             d="M 0,0 120.685,5.985 118.652,47.009 -2.035,41.025 Z" /></g><g
           id="g128"><g
             id="g130" /><g
             id="g142"><g
               style="opacity:0.11000103"
               id="g140"
               clip-path="url(#clipPath134)"><g
                 id="g138"
                 transform="translate(365.9685,906.1073)"><path
                   id="path136"
                   style="fill:#1d0b10;fill-opacity:1;fill-rule:nonzero;stroke:none"
                   d="m 0,0 c 0.9,-11.476 -21.569,4.764 -56.37,5.965 -28.466,0.982 -59.523,-15.696 -57.209,-1.149 1.174,7.38 29.044,23.863 57.238,23.119 C -23.357,27.064 -0.921,11.77 0,0" /></g></g></g></g><g
           id="g144"><g
             id="g146" /><g
             id="g158"><g
               style="opacity:0.16000402"
               id="g156"
               clip-path="url(#clipPath150)"><g
                 id="g154"
                 transform="translate(252.1239,1212.5818)"><path
                   id="path152"
                   style="fill:#050606;fill-opacity:1;fill-rule:nonzero;stroke:none"
                   d="m 0,0 c -5.297,-26.321 21.186,-53.853 59.152,-61.494 37.968,-7.641 73.04,7.502 78.336,33.824 5.297,26.321 -21.185,53.854 -59.152,61.494 C 40.37,41.465 5.297,26.321 0,0" /></g></g></g></g><g
           transform="translate(466.4836,1289.1793)"
           id="g160"><path
             id="path162"
             style="fill:#f59f7a;fill-opacity:1;fill-rule:nonzero;stroke:none"
             d="m 0,0 c -7.337,-32.477 -36.901,-53.027 -59.52,-50 -22.619,3.027 -27.51,29.606 -24.203,60.872 3.316,31.267 24.347,54.238 46.96,51.132 C -5.859,57.756 6.896,30.524 0,0" /></g><g
           transform="translate(122.6185,1409.2493)"
           id="g164"><path
             id="path166"
             style="fill:#a44d44;fill-opacity:1;fill-rule:nonzero;stroke:none"
             d="m 0,0 c -19.312,-122.206 83.385,-189.562 182.477,-187.628 99.091,1.935 169.547,89.164 157.166,208.738 C 332.769,87.503 281.329,130.639 180.201,135.231 104.859,138.653 16.788,106.224 0,0" /></g><g
           transform="translate(168.4697,1441.3849)"
           id="g168"><path
             id="path170"
             style="fill:#f9ad8b;fill-opacity:1;fill-rule:nonzero;stroke:none"
             d="m 0,0 c -8.629,-20.157 8.501,-197.384 29.343,-221.548 22.104,-25.634 113.791,-45.565 132.231,-45.206 19.75,0.385 84.874,25.575 101.015,54.537 19.098,34.275 23.235,186.369 16.565,204.908 -22.54,62.61 -77.413,63.663 -149.127,62.264 C 62.935,53.644 22.382,52.301 0,0" /></g><g
           transform="translate(119.0742,1275.2451)"
           id="g172"><path
             id="path174"
             style="fill:#f9ad8b;fill-opacity:1;fill-rule:nonzero;stroke:none"
             d="M 0,0 C 9.75,-33.975 43.541,-54.613 68.455,-50.644 93.369,-46.672 87.835,54.855 42.54,62.57 4.819,68.993 -9.164,31.931 0,0" /></g><g
           transform="translate(146.8047,1277.3511)"
           id="g176"><path
             id="path178"
             style="fill:#dc835e;fill-opacity:1;fill-rule:nonzero;stroke:none"
             d="m 0,0 c 2.295,-14.397 18.782,-26.214 30.908,-21.941 4.727,1.665 -4.47,51.849 -12.071,51.676 C 5.983,29.443 -2.294,14.397 0,0" /></g><g
           transform="translate(209.1942,1266.3582)"
           id="g180"><path
             id="path182"
             style="fill:#f57b8d;fill-opacity:1;fill-rule:nonzero;stroke:none"
             d="m 0,0 c -0.134,-7.196 9.759,-13.211 22.096,-13.438 12.331,-0.228 22.439,5.421 22.573,12.615 0.132,7.196 -9.764,13.212 -22.094,13.44 C 10.238,12.844 0.132,7.194 0,0" /></g><g
           transform="translate(271.6966,1261.3456)"
           id="g184"><path
             id="path186"
             style="fill:#661316;fill-opacity:1;fill-rule:nonzero;stroke:none"
             d="m 0,0 c 1.953,12.254 23.916,9.872 52.96,10.677 1.52,0.042 7.431,0.164 8.953,0.184 29.053,0.394 46.003,3.818 47.649,-8.477 2.976,-22.223 -21.087,-49.451 -50.587,-50.153 l -0.511,-0.012 C 26.732,-48.462 -3.759,-23.603 0,0" /></g><g
           transform="translate(298.4998,1221.2289)"
           id="g188"><path
             id="path190"
             style="fill:#dd5855;fill-opacity:1;fill-rule:nonzero;stroke:none"
             d="M 0,0 C 7.857,7.493 18.653,11.863 30.199,12.102 41.592,12.338 52.278,8.601 60.391,1.645 55.148,-1.938 49.24,-4.836 42.888,-6.409 39.448,-7.26 35.818,-7.774 32.173,-7.864 L 31.662,-7.873 C 23.799,-8.044 16.018,-6.612 8.81,-4.024 L 8.257,-3.808 C 5.379,-2.745 2.656,-1.409 0,0" /></g><g
           transform="translate(289.823,1270.963)"
           id="g192"><path
             id="path194"
             style="fill:#ffffff;fill-opacity:1;fill-rule:nonzero;stroke:none"
             d="m 0,0 -0.135,0.537 c 0,0 32.477,1.196 43.904,1.338 10.898,0.138 34.968,0.29 34.968,0.29 L 78.626,1.621 C 76.704,-7.234 59.95,-14.219 39.65,-14.637 19.369,-15.056 2.325,-8.767 0,0" /></g><g
           transform="translate(401.0256,1271.5326)"
           id="g196"><path
             id="path198"
             style="fill:#f57b8d;fill-opacity:1;fill-rule:nonzero;stroke:none"
             d="m 0,0 c 0.514,-6.377 8.685,-10.922 18.247,-10.15 9.56,0.773 16.897,6.569 16.381,12.949 C 34.112,9.176 25.942,13.721 16.382,12.949 6.818,12.177 -0.516,6.378 0,0" /></g><g
           transform="translate(315.0936,1283.6476)"
           id="g200"><path
             id="path202"
             style="fill:#bd6153;fill-opacity:1;fill-rule:nonzero;stroke:none"
             d="m 0,0 c 0.791,0.016 1.476,0.599 1.595,1.406 0.835,5.739 5.286,9.523 11.335,9.641 6.083,0.12 10.782,-3.56 11.695,-9.155 0.148,-0.894 0.999,-1.505 1.89,-1.357 0.897,0.146 1.504,0.992 1.359,1.89 C 26.706,9.59 20.532,14.489 12.864,14.338 5.24,14.19 -0.597,9.185 -1.664,1.883 c -0.13,-0.9 0.493,-1.734 1.391,-1.868 z" /></g><g
           transform="translate(145.26,1401.6974)"
           id="g204"><path
             id="path206"
             style="fill:#a44d44;fill-opacity:1;fill-rule:nonzero;stroke:none"
             d="m 0,0 c -11.936,2.782 10.257,89.064 69.232,115.17 96.563,35.139 164.106,18.127 188.677,2.223 35.749,-23.143 66.184,-56.874 74.066,-119.975 4.702,-37.63 1.349,-49.94 20.564,-58.752 -20.893,-5.751 -21.504,-1.612 -27.468,8.552 -2.428,-30.494 -1.637,-45.208 10.523,-54.388 -25.754,-6.459 -30.785,8.14 -32.52,32.46 -2.901,40.655 -4.498,85.518 -8.442,95.88 -2.284,5.994 -23.602,40.839 -32.565,41.246 C 242.534,63.302 220.043,-4.94 150.876,-2.714 179.03,12.02 194.589,33.26 210.422,63.639 204.946,60.458 199.447,56.58 193.982,51.843 136.442,1.96 83.88,-9.938 35.148,-4.91 c 7.109,-52.004 13.268,-117.969 -41.834,-119.473 5.701,6.9 20.326,41.683 5.927,68.929 C -7.428,-59.469 -1.698,-34.146 0,0" /></g><g
           transform="translate(202.2331,1382.8287)"
           id="g208"><path
             id="path210"
             style="fill:#6a2119;fill-opacity:1;fill-rule:nonzero;stroke:none"
             d="m 0,0 c 1.106,0.104 2.174,0.601 2.983,1.476 10.336,11.146 31.505,15.974 49.285,11.197 2.466,-0.675 5.033,0.799 5.712,3.296 0.668,2.482 -0.804,5.04 -3.296,5.711 C 33.474,27.366 8.843,21.534 -3.858,7.805 -5.607,5.915 -5.494,2.967 -3.603,1.219 -2.593,0.278 -1.274,-0.12 0,0" /></g><g
           transform="translate(433.7668,1389.3904)"
           id="g212"><path
             id="path214"
             style="fill:#6a2119;fill-opacity:1;fill-rule:nonzero;stroke:none"
             d="m 0,0 c 1.235,-0.013 2.467,0.477 3.359,1.463 1.674,1.83 1.544,4.669 -0.287,6.343 -13.318,12.149 -37.428,15.745 -57.324,8.574 -2.336,-0.849 -3.542,-3.422 -2.7,-5.751 0.847,-2.343 3.426,-3.548 5.751,-2.702 16.673,6.036 37.404,3.133 48.219,-6.752 C -2.136,0.4 -1.071,0.011 0,0" /></g><g
           transform="translate(364.4617,1294.0302)"
           id="g216"><path
             id="path218"
             style="fill:#f9fdfe;fill-opacity:1;fill-rule:nonzero;stroke:none"
             d="M 0,0 C 0,0 42.438,-14.991 57.71,11.612 76.32,44.033 45.774,68.637 26.557,63.276 8.774,58.313 -6.979,39.528 0,0" /></g><g
           transform="translate(424.1974,1346.5406)"
           id="g220"><path
             id="path222"
             style="fill:#6b2721;fill-opacity:1;fill-rule:nonzero;stroke:none"
             d="M 0,0 C -8.103,11.446 -18.666,14.871 -29.977,13.273 -41.538,11.641 -53.018,1.613 -56.058,-8.536 -50.135,2.952 -39.495,7.342 -32.847,9.196 -22.262,12.163 -8.124,6.788 -1.518,-4.51 4.357,-14.564 4.306,-29.84 -2.526,-41.738 5.704,-33.571 8.444,-11.928 0,0" /></g><g
           transform="translate(374.5895,1328.8097)"
           id="g224"><path
             id="path226"
             style="fill:#571416;fill-opacity:1;fill-rule:nonzero;stroke:none"
             d="m 0,0 c -3.536,-11.582 1.551,-24.508 11.362,-28.87 9.811,-4.362 20.633,1.49 24.169,13.072 3.538,11.582 -1.549,24.507 -11.36,28.87 C 14.36,17.434 3.538,11.58 0,0" /></g><g
           transform="translate(376.018,1332.4048)"
           id="g228"><path
             id="path230"
             style="fill:#fffffe;fill-opacity:1;fill-rule:nonzero;stroke:none"
             d="m 0,0 c -0.981,-3.213 0.431,-6.799 3.153,-8.009 2.723,-1.21 5.725,0.412 6.706,3.625 C 10.84,-1.169 9.43,2.417 6.707,3.627 3.984,4.837 0.981,3.213 0,0" /></g><g
           transform="translate(289.3553,1291.9343)"
           id="g232"><path
             id="path234"
             style="fill:#f9fdfe;fill-opacity:1;fill-rule:nonzero;stroke:none"
             d="M 0,0 C 0,0 -49.455,-17.171 -69.108,8.607 -93.056,40.018 -58.256,66.174 -35.157,61.815 -13.782,57.783 5.988,39.837 0,0" /></g><g
           transform="translate(215.4765,1341.2791)"
           id="g236"><path
             id="path238"
             style="fill:#6b2721;fill-opacity:1;fill-rule:nonzero;stroke:none"
             d="M 0,0 C 8.946,11.85 21.275,15.819 34.779,14.81 48.586,13.778 62.778,4.359 66.973,-5.618 59.284,5.547 46.411,9.381 38.421,10.885 25.695,13.302 9.241,7.2 2.061,-4.425 -4.324,-14.771 -3.378,-30.023 5.412,-41.55 -4.821,-33.821 -9.322,-12.351 0,0" /></g><g
           transform="translate(227.9907,1326.5469)"
           id="g240"><path
             id="path242"
             style="fill:#571416;fill-opacity:1;fill-rule:nonzero;stroke:none"
             d="m 0,0 c -4.288,-11.612 1.65,-24.501 13.262,-28.789 11.612,-4.288 24.503,1.65 28.791,13.262 C 46.341,-3.915 40.403,8.976 28.789,13.264 17.177,17.552 4.288,11.612 0,0" /></g><g
           transform="translate(229.7138,1330.1564)"
           id="g244"><path
             id="path246"
             style="fill:#fffffe;fill-opacity:1;fill-rule:nonzero;stroke:none"
             d="m 0,0 c -1.189,-3.223 0.458,-6.798 3.679,-7.989 3.223,-1.189 6.798,0.459 7.989,3.681 C 12.857,-1.087 11.21,2.49 7.987,3.679 4.766,4.868 1.189,3.221 0,0" /></g><g
           transform="translate(142.0902,1380.0922)"
           id="g248"><path
             id="path250"
             style="fill:#f68518;fill-opacity:1;fill-rule:nonzero;stroke:none"
             d="m 0,0 c 10.605,88.927 61.386,144.7 155.532,154.683 74.339,7.882 130.98,-23.76 146.118,-50.631 -20.846,15.518 -59.133,39.179 -141.571,33.725 C 106.752,134.249 24.477,100.986 0,0" /></g><g
           transform="translate(449.8517,695.3998)"
           id="g252"><path
             id="path254"
             style="fill:#264766;fill-opacity:1;fill-rule:nonzero;stroke:none"
             d="m 0,0 c -25.532,-30.891 -251.234,-31.912 -289.532,4.001 0,0 37.731,82.099 39.483,179.065 1.078,59.7 -5.712,109.574 -4.089,157.748 51.38,1.148 188.02,0.366 233.223,-3.526 1.41,-44.308 -11.981,-105.636 -15.34,-178.171 C -38.584,108.835 -2.533,74.002 0,0" /></g><g
           transform="translate(210.5805,1022.2367)"
           id="g256"><path
             id="path258"
             style="fill:#b1e5e9;fill-opacity:1;fill-rule:nonzero;stroke:none"
             d="m 0,0 10.675,-0.148 0.35,25.212 c 0.016,1.307 1.121,2.382 2.428,2.363 l 7.067,-0.096 0.159,11.7 -31.434,0.437 -0.163,-11.704 8.901,-0.124 c 1.31,-0.016 2.382,-1.121 2.366,-2.429 z m 13.006,-4.972 -15.47,0.213 c -1.308,0.019 -2.383,1.122 -2.363,2.429 l 0.348,25.211 -8.901,0.124 c -1.307,0.019 -2.382,1.122 -2.363,2.429 l 0.229,16.498 c 0.016,1.307 1.121,2.379 2.429,2.363 l 36.229,-0.502 c 1.307,-0.019 2.382,-1.125 2.363,-2.431 L 25.278,24.866 C 25.262,23.559 24.157,22.484 22.85,22.503 l -7.067,0.099 -0.348,-25.211 c -0.02,-1.307 -1.122,-2.382 -2.429,-2.363" /></g><g
           transform="translate(205.4924,1019.2899)"
           id="g260"><path
             id="path262"
             style="fill:#edf9fc;fill-opacity:1;fill-rule:nonzero;stroke:none"
             d="m 0,0 c 0.888,-6.083 6.532,-10.299 12.609,-9.417 6.074,0.886 10.278,6.537 9.39,12.62 C 21.111,9.289 15.467,13.505 9.393,12.619 3.316,11.734 -0.888,6.086 0,0" /></g><g
           transform="translate(403.4263,1020.0773)"
           id="g264"><path
             id="path266"
             style="fill:#b1e5e9;fill-opacity:1;fill-rule:nonzero;stroke:none"
             d="m 0,0 10.675,-0.148 0.35,25.212 c 0.019,1.307 1.124,2.382 2.431,2.363 l 7.067,-0.096 0.16,11.703 -31.435,0.433 -0.163,-11.703 8.901,-0.121 c 1.307,-0.019 2.382,-1.125 2.363,-2.432 z m 13.006,-4.972 -15.467,0.213 c -1.307,0.019 -2.383,1.122 -2.364,2.429 l 0.35,25.211 -8.902,0.124 c -1.307,0.019 -2.382,1.122 -2.366,2.429 l 0.229,16.498 c 0.019,1.307 1.125,2.379 2.432,2.363 l 36.229,-0.502 c 1.307,-0.019 2.38,-1.121 2.363,-2.429 L 25.282,24.866 C 25.262,23.559 24.16,22.484 22.85,22.503 l -7.063,0.099 -0.35,-25.211 c -0.019,-1.307 -1.124,-2.382 -2.431,-2.363" /></g><g
           transform="translate(394.6755,1057.2313)"
           id="g268"><path
             id="path270"
             style="fill:#264766;fill-opacity:1;fill-rule:nonzero;stroke:none"
             d="m 0,0 c -0.167,2.674 0.432,59.49 -4.948,91.813 l 27.798,0.27 c 7.82,-38.834 5.096,-89.637 5.273,-92.47 z" /></g><g
           transform="translate(201.6376,1058.8942)"
           id="g272"><path
             id="path274"
             style="fill:#264766;fill-opacity:1;fill-rule:nonzero;stroke:none"
             d="m 0,0 c -0.161,2.947 0.472,61.584 -1.835,87.286 l 26.648,2 C 28.52,55.131 27.951,2.749 28.124,-0.374 Z" /></g><g
           transform="translate(398.3412,1017.1302)"
           id="g276"><path
             id="path278"
             style="fill:#edf9fc;fill-opacity:1;fill-rule:nonzero;stroke:none"
             d="m 0,0 c 0.888,-6.083 6.532,-10.299 12.606,-9.413 6.077,0.882 10.28,6.533 9.393,12.619 C 21.111,9.289 15.467,13.505 9.393,12.62 3.316,11.734 -0.888,6.086 0,0" /></g><g
           id="g280"><g
             id="g282" /><g
             id="g294"><g
               style="opacity:0.21000701"
               id="g292"
               clip-path="url(#clipPath286)"><g
                 id="g290"
                 transform="translate(256.283,899.1644)"><path
                   id="path288"
                   style="fill:#050606;fill-opacity:1;fill-rule:nonzero;stroke:none"
                   d="m 0,0 53.283,-15.027 52.493,15.641 0.979,78.875 -103.308,7.04 z" /></g></g></g></g><g
           transform="translate(260.7553,904.345)"
           id="g296"><path
             id="path298"
             style="fill:#366285;fill-opacity:1;fill-rule:nonzero;stroke:none"
             d="m 0,0 49.405,-15.54 50.241,14.723 1.322,74.234 -97.95,2.714 z" /></g></g></g></g></svg>