<?xml version="1.0" encoding="UTF-8" standalone="no"?>
<!DOCTYPE svg PUBLIC "-//W3C//DTD SVG 1.1//EN" "http://www.w3.org/Graphics/SVG/1.1/DTD/svg11.dtd">
<svg xmlns="http://www.w3.org/2000/svg" xmlns:xlink="http://www.w3.org/1999/xlink" version="1.1" width="1345.46pt" height="1613.81pt" viewBox="0 0 1345.46 1613.81">
<g enable-background="new">
<g>
<g id="Layer-1" data-name="Layer 5">
<clipPath id="cp0">
<path transform="matrix(1,0,0,-1,0,1613.81)" d="M 0 1613.806 L 1345.46 1613.806 L 1345.46 0 L 0 0 Z "/>
</clipPath>
<g clip-path="url(#cp0)">
<path transform="matrix(1,0,0,-1,.1113,1579.1908)" d="M 0 0 L 0 -16.961 C .4 -26.317 7.943 -34.619 18.326 -34.619 L 1326.906 -34.619 C 1337.299 -34.619 1344.838 -26.317 1345.238 -16.961 L 1345.238 0 Z " fill="#129e93"/>
<path transform="matrix(1,0,0,-1,1327.0172,1597.3523)" d="M 0 0 L -1308.577 0 C -1322.243 0 -1331.151 14.364 -1325.072 26.608 L -1233.584 210.904 C -1230.475 217.171 -1224.085 221.132 -1217.089 221.132 L -91.488 221.132 C -84.492 221.132 -78.102 217.171 -74.989 210.904 L 16.499 26.608 C 22.574 14.364 13.67 0 0 0 " fill="#1dccc3"/>
<g opacity=".160004">
<clipPath id="cp1">
<path transform="matrix(1,0,0,-1,0,1613.81)" d="M 224.49 55.7066 L 1171.6 55.7066 L 1171.6 161.412 L 224.49 161.412 Z "/>
</clipPath>
<g clip-path="url(#cp1)">
<path transform="matrix(1,0,0,-1,1134.9762,1490.1865)" d="M 0 0 C 23.303 -4.02 93.725 -70.716 -58.682 -67.826 C -198.226 -65.181 -713.687 -43.442 -866.863 -30.867 C -890.118 -28.958 -907.883 6.017 -910.302 14.477 C -916.798 37.216 -750.17 38.964 -672.154 37.339 C -452.674 32.769 -66.303 11.429 0 0 "/>
</g>
</g>
<path transform="matrix(1,0,0,-1,334.5189,756.60049)" d="M 0 0 C -61.853 153.891 -50.725 333.159 29.693 575.227 L 31.051 568.074 C 32.207 572.473 33.285 576.78 34.489 581.23 L 632.715 564.465 C 633.614 560.062 634.476 555.796 635.359 551.448 L 641.951 555.571 C 717.049 307.848 723.33 159.42 717.392 66.536 C 715.072 110.918 710.002 266.534 647.609 490.403 C 703.551 207.815 721.483 53.581 665.34 5.88 C 701.012 66.536 671.35 234.877 662.541 256.111 C 662.507 195.565 671.449 79.895 638.872 -8.073 C 492.862 -88.666 157.138 -74.962 72.762 -26.378 C 69.023 -19.154 58.613 150.796 56.263 174.3 C 51.382 166.2 54.826 -18.551 52.921 -26.231 C .889 22.424 -47.485 171.943 2.856 443.219 C -43.13 258.02 -27.647 119.453 0 0 " fill="#ad5c49"/>
<path transform="matrix(1,0,0,-1,461.8131,1445.8246)" d="M 0 0 L -90.373 -2.87 L -101.586 144.7 L 8.894 146.605 Z " fill="#ffc19f"/>
<path transform="matrix(1,0,0,-1,493.634,1126.7014)" d="M 0 0 C -4.3 -95.538 -7.721 -198.448 -9.9 -245.396 C -28.482 -248.345 -110.511 -248.509 -134.704 -247.223 C -136.674 -224.567 -142.278 -148.083 -149.112 -48.115 C -145.801 -6.308 -124.807 19.636 -90.585 28.058 C -59.742 35.652 -16.718 8.138 0 0 " fill="#ad2d00"/>
<path transform="matrix(1,0,0,-1,985.8329,1393.1774)" d="M 0 0 C 25.055 -18.551 61.429 -53.201 65.794 -57.666 C 67.867 -59.783 136.578 -21.199 134.649 -18.172 C 115.523 11.86 93.147 39.973 73.976 61.589 C 64.265 53.554 9.178 8.607 0 0 " fill="#ffc19f"/>
<path transform="matrix(1,0,0,-1,1112.395,1455.9196)" d="M 0 0 C -2.839 -23.036 -24.127 -39.367 -47.55 -36.48 C -70.973 -33.593 -87.66 -12.579 -84.821 10.458 C -81.978 33.494 -60.69 49.825 -37.267 46.938 C -13.844 44.051 2.843 23.036 0 0 " fill="#ffc19f"/>
<path transform="matrix(1,0,0,-1,1035.0319,1468.8778)" d="M 0 0 C 13.892 -54.036 25.893 -73.344 34.698 -82.799 C 42.621 -91.307 59.475 -91.488 63.659 -81.588 C 66.772 -74.212 56.913 -64.531 55.158 -55.647 C 58.774 -61.88 65.828 -74.486 73.932 -83.322 C 79.217 -89.083 90.776 -93.41 95.227 -82.122 C 98.508 -88.939 112.906 -85.481 110.795 -73.333 C 112.67 -79.228 126.713 -81.478 128.403 -68.838 C 138.07 -73.391 143.283 -63.478 140.468 -55.138 C 135.812 -41.348 97.646 38.745 79.009 67.925 C 69.769 82.395 -7.314 28.455 0 0 " fill="#ffc19f"/>
<path transform="matrix(1,0,0,-1,1127.2518,1550.3767)" d="M 0 0 C -2.124 4.611 -6.695 15.052 -9.572 25.927 C -9.801 26.803 -9.295 27.651 -8.446 27.887 C -7.594 28.079 -6.677 27.613 -6.486 26.762 C -3.705 16.242 .814 5.86 2.826 1.457 C 3.209 .636 2.85 -.301 2.036 -.657 C 1.324 -.989 .431 -.647 0 0 " fill="#f29d77"/>
<path transform="matrix(1,0,0,-1,1142.7758,1542.3479)" d="M 0 0 C -1.922 4.533 -2.874 6.698 -6.028 18.257 C -6.246 19.082 -5.774 19.975 -4.902 20.2 C -4.088 20.436 -3.222 19.968 -2.962 19.075 C .161 7.68 1.006 5.771 2.86 1.382 C 3.222 .551 2.839 -.376 2.015 -.708 C 1.293 -1.023 .411 -.66 0 0 " fill="#f29d77"/>
<path transform="matrix(1,0,0,-1,1160.5814,1538.0548)" d="M 0 0 C -1.96 4.515 -1.858 2.48 -5.114 14.008 C -5.34 14.833 -4.875 15.729 -4.009 15.962 C -3.195 16.205 -2.326 15.743 -2.056 14.853 C 1.167 3.486 .958 5.778 2.85 1.406 C 3.216 .578 2.843 -.352 2.022 -.691 C 1.303 -1.013 .417 -.653 0 0 " fill="#f29d77"/>
<path transform="matrix(1,0,0,-1,793.0119,974.6539)" d="M 0 0 C -16.235 .062 -158.537 -.941 -164.431 -.729 C -209.012 -21.685 -385.813 -116.183 -412.845 -133.267 C -400.923 -163.986 -365.048 -225.254 -345.423 -263.264 C -332.256 -259.182 -164.91 -181.6 -141.611 -174.461 C -110.864 -165.033 -88.748 -165.676 -60.272 -197.039 L -59.903 -196.522 C 22.468 -275.055 166.569 -422.009 204.965 -460.699 C 224.102 -445.856 281.641 -398.118 293.959 -383.928 C 227.909 -289.43 47.181 -56.934 0 0 " fill="#ad2d00"/>
<g opacity=".25">
<clipPath id="cp2">
<path transform="matrix(1,0,0,-1,0,1613.81)" d="M 486.389 508.597 L 887.473 508.597 L 887.473 638.428 L 486.389 638.428 Z "/>
</clipPath>
<g clip-path="url(#cp2)">
<path transform="matrix(1,0,0,-1,887.4725,1093.8406)" d="M 0 0 C -38.854 49.917 -72.372 92.251 -90.766 114.671 C -100.762 115.964 -254.387 118.297 -258.892 118.458 C -282.79 107.224 -344.633 74.876 -401.084 44.629 C -307.03 -7.16 -151.565 -25.451 0 0 "/>
</g>
</g>
<path transform="matrix(1,0,0,-1,486.3647,1048.1343)" d="M 0 0 C 32.888 -2.87 68.106 -19.81 130.681 -37.452 C 202.317 -57.645 300.709 -51.966 390.253 -20.087 C 390.253 -20.087 358.48 310.297 342.204 389.573 C 256.117 412.924 106.731 403.054 28.055 389.313 C 18.267 299.012 19.585 193.009 5.614 65.527 C 4.468 55.056 19.16 46.897 6.188 39.515 C -4.906 33.203 -2.802 24.788 2.699 20.388 C 14.227 11.162 -2.61 10.061 0 0 " fill="#ff4a69"/>
<path transform="matrix(1,0,0,-1,763.6984,662.3486)" d="M 0 0 C .205 5.125 -.677 10.061 -1.929 14.915 C -54.566 18.24 -133.606 19.041 -189.948 14.303 C -190.368 12.089 -191.299 10.02 -191.395 7.724 C -192.992 -31.92 -151.449 -65.787 -98.596 -67.918 C -45.744 -70.053 -1.601 -39.644 0 0 " fill="#ffc19f"/>
<path transform="matrix(1,0,0,-1,734.7989,552.2031)" d="M 0 0 L 0 -112.403 C -.157 -136.476 -31.246 -155.797 -68.992 -155.551 C -106.735 -155.304 -136.839 -135.583 -136.681 -111.51 L -136.681 0 Z " fill="#ffc19f"/>
<g opacity=".190002">
<clipPath id="cp3">
<path transform="matrix(1,0,0,-1,0,1613.81)" d="M 598.251 933.7 L 793.292 933.7 L 793.292 1030.17 L 598.251 1030.17 Z "/>
</clipPath>
<g clip-path="url(#cp3)">
<path transform="matrix(1,0,0,-1,793.2924,647.3309)" d="M 0 0 C -9.691 -.294 -18.709 -.595 -26.098 -.965 C -36.638 .099 -47.396 .903 -58.497 1.464 L -58.497 63.173 C -103.67 64.23 -153.32 63.745 -195.041 60.946 L -195.041 8.535 C -176.791 -14.809 -144.152 -32.792 -105.804 -32.779 C -42.874 -32.755 -14.197 -17.19 0 0 " fill="#a32107"/>
</g>
</g>
<path transform="matrix(1,0,0,-1,186.1898,696.9233)" d="M 0 0 C -8.891 1.806 7.971 74.893 16.988 73.638 C 151.771 54.874 321.706 41.177 356.965 40.791 L 338.314 -55.706 C 260.818 -43.428 117.48 -23.844 0 0 " fill="#ffc19f"/>
<path transform="matrix(1,0,0,-1,386.7933,639.7195)" d="M 0 0 C -4.827 -32.382 -10.902 -103.858 -10.328 -137.427 C 61.258 -148.045 126.134 -153.46 130.958 -151.278 C 181.156 -128.597 186.051 -15.466 188.292 -8.703 C 149.759 -6.599 71.438 -6.599 0 0 " fill="#ff4a69"/>
<path transform="matrix(1,0,0,-1,1153.1752,696.9233)" d="M 0 0 C 8.894 1.806 -7.967 74.893 -16.984 73.638 C -151.767 54.874 -321.702 41.177 -356.961 40.791 L -338.311 -55.706 C -260.814 -43.428 -117.48 -23.844 0 0 " fill="#ffc19f"/>
<path transform="matrix(1,0,0,-1,952.5751,639.7195)" d="M 0 0 C 4.823 -32.382 10.902 -103.858 10.328 -137.427 C -61.261 -148.045 -126.134 -153.46 -130.961 -151.278 C -181.156 -128.597 -186.055 -15.466 -188.292 -8.703 C -149.762 -6.599 -71.438 -6.599 0 0 " fill="#ff4a69"/>
<path transform="matrix(1,0,0,-1,30.2903,667.69198)" d="M 0 0 C 21.623 1.314 53.715 6.835 115.362 8.641 C 122.406 8.846 135.087 -19.075 127.975 -18.257 C 86.682 -13.516 7.143 -29.95 0 0 " fill="#e0956c"/>
<path transform="matrix(1,0,0,-1,14.6192,639.4424)" d="M 0 0 C 21.623 1.314 72.755 14.85 130.363 .441 C 137.471 -1.334 146.639 -29.341 139.527 -28.527 C 98.234 -23.785 6.445 -24.545 0 0 " fill="#e0956c"/>
<path transform="matrix(1,0,0,-1,12.1562,601.3373)" d="M 0 0 C 21.627 1.314 140.615 -9.787 198.223 -24.192 C 205.328 -25.971 198.944 -77.445 188.596 -82.857 C 173.784 -106.211 128.642 -100.683 80.524 -131.632 C 72.215 -136.979 70.675 -121.735 72.057 -117.353 C 75.622 -106.061 80.192 -104.918 97.546 -81.424 C 108.124 -67.107 96.917 -50.379 86.757 -44.218 C 39.337 -24.942 3.677 -20.46 0 0 " fill="#ffc19f"/>
<path transform="matrix(1,0,0,-1,1307.8911,667.69198)" d="M 0 0 C -21.627 1.314 -53.718 6.835 -115.365 8.641 C -122.406 8.846 -135.09 -19.075 -127.978 -18.257 C -86.682 -13.516 -7.146 -29.95 0 0 " fill="#e0956c"/>
<path transform="matrix(1,0,0,-1,1323.5623,639.4424)" d="M 0 0 C -21.627 1.314 -72.759 14.85 -130.366 .441 C -137.471 -1.334 -146.643 -29.341 -139.531 -28.527 C -98.234 -23.785 -6.445 -24.545 0 0 " fill="#e0956c"/>
<path transform="matrix(1,0,0,-1,1326.0219,601.3373)" d="M 0 0 C -21.627 1.314 -140.612 -9.787 -198.223 -24.192 C -205.328 -25.971 -198.944 -77.445 -188.593 -82.857 C -173.784 -106.211 -128.639 -100.683 -80.524 -131.632 C -72.215 -136.979 -70.675 -121.735 -72.057 -117.353 C -75.619 -106.061 -80.189 -104.918 -97.543 -81.424 C -108.12 -67.107 -96.913 -50.379 -86.753 -44.218 C -39.333 -24.942 -3.677 -20.46 0 0 " fill="#ffc19f"/>
<path transform="matrix(1,0,0,-1,382.0622,1381.7036)" d="M 0 0 C 9.842 -3.294 66.919 -13.742 82.046 -15.637 C 82.508 -53.208 92.456 -66.834 88.867 -86.88 C 85.717 -104.487 71.965 -116.666 56.082 -118.462 C 39.836 -120.298 21.685 -121.814 -3.407 -124.557 C -45.227 -129.135 -95.774 -149.01 -131.184 -133.712 C -136.055 -131.608 -150.07 -120.576 -145.596 -114.51 C -141.515 -108.975 -108.021 -106.464 -109.759 -102.096 C -110.96 -99.075 -142.565 -108.086 -153.679 -103.998 C -159.721 -101.775 -163.306 -90.034 -154.866 -88.135 C -154.367 -88.023 -158.021 -81.92 -156.861 -79.111 C -155.106 -74.876 -145.291 -74.072 -145.367 -72.338 C -145.955 -58.682 -115.619 -57.782 -88.296 -48.423 C -48.193 -34.688 -20.878 -22.037 0 0 " fill="#ffc19f"/>
<path transform="matrix(1,0,0,-1,227.4558,1471.2075)" d="M 0 0 C 4.324 .571 30.1 5.733 39.323 8.634 C 40.062 8.867 40.448 9.626 40.229 10.352 C 39.98 11.056 39.22 11.508 38.512 11.258 C 29.594 8.449 3.883 3.281 -.24 2.72 C -1.013 2.62 -1.529 1.929 -1.409 1.177 C -1.327 .506 -.667 .017 0 0 " fill="#f29d77"/>
<path transform="matrix(1,0,0,-1,237.6363,1455.2285)" d="M 0 0 C 4.191 .575 13.362 2.716 23.283 5.467 C 23.987 5.668 24.439 6.411 24.22 7.15 C 24.035 7.854 23.31 8.289 22.537 8.09 C 12.753 5.384 3.818 3.281 -.24 2.72 C -1.009 2.62 -1.526 1.929 -1.409 1.177 C -1.324 .506 -.667 .014 0 0 " fill="#f29d77"/>
<path transform="matrix(1,0,0,-1,332.0182,452.7926)" d="M 0 0 C 14.689 -61.74 73.59 -101.552 118.605 -96.486 C 163.62 -91.419 173.291 -41.208 166.624 18.124 C 159.946 77.452 118.02 121.595 73.022 116.378 C 11.515 109.246 -13.803 58.032 0 0 " fill="#ffc19f"/>
<path transform="matrix(1,0,0,-1,387.7785,468.9563)" d="M 0 0 C 2.935 -26.016 23.909 -45.012 46.852 -42.432 C 69.789 -39.85 86.014 -16.667 83.079 9.349 C 80.155 35.362 59.181 54.354 36.248 51.775 C 13.3 49.199 -2.918 26.012 0 0 " fill="#e0956c"/>
<path transform="matrix(1,0,0,-1,999.619,472.1548)" d="M 0 0 C -17.929 -60.878 -78.861 -97.515 -123.545 -90.075 C -168.228 -82.635 -175.231 -31.982 -165.434 26.912 C -155.622 85.806 -111.421 127.667 -66.755 120.08 C -5.709 109.697 16.855 57.218 0 0 " fill="#ffc19f"/>
<path transform="matrix(1,0,0,-1,941.9157,483.62843)" d="M 0 0 C -4.3 -25.824 -26.248 -43.685 -49.021 -39.894 C -71.79 -36.1 -86.771 -12.089 -82.47 13.731 C -78.17 39.556 -56.222 57.409 -33.449 53.622 C -10.68 49.832 4.3 25.821 0 0 " fill="#e0956c"/>
<path transform="matrix(1,0,0,-1,980.7734,274.2777)" d="M 0 0 C -5.333 -201.383 -135.224 -288.588 -313.766 -283.861 C -492.305 -279.133 -632.195 -184.878 -626.865 16.506 C -621.532 217.889 -478.006 260.982 -299.463 256.258 C -120.924 251.53 5.333 201.384 0 0 " fill="#ad5c49"/>
<path transform="matrix(1,0,0,-1,917.0391,191.04431)" d="M 0 0 C 14.34 -34.161 -3.64 -331.62 -39.138 -372.205 C -76.792 -415.26 -226.13 -453.478 -257.281 -452.654 C -290.651 -451.771 -434.851 -410.146 -461.787 -361.015 C -493.656 -302.874 -501.493 -37.626 -490.006 -6.38 C -451.183 99.154 -358.45 100.286 -237.286 97.078 C -123.931 94.077 -37.209 88.638 0 0 " fill="#ffc19f"/>
<path transform="matrix(1,0,0,-1,669.6449,543.23709)" d="M 0 0 L -.79 -.01 C -28.236 -.835 -52.059 6.414 -64.538 19.407 C -66.214 21.165 -66.16 23.946 -64.415 25.622 C -62.691 27.316 -59.91 27.24 -58.199 25.503 C -47.574 14.433 -25.687 8.025 -1.067 8.768 L -.332 8.778 C 24.162 9.654 45.508 17.436 55.473 29.17 C 57.091 30.996 59.845 31.212 61.668 29.666 C 63.509 28.103 63.727 25.328 62.164 23.471 C 50.468 9.736 27.271 .975 0 0 " fill="#934341"/>
<path transform="matrix(1,0,0,-1,465.9899,461.30714)" d="M 0 0 C -.787 -11.699 14.833 -22.277 34.889 -23.628 C 54.936 -24.979 71.838 -16.591 72.625 -4.892 C 73.412 6.804 57.789 17.381 37.743 18.733 C 17.686 20.084 .79 11.696 0 0 " fill="#ff9797"/>
<path transform="matrix(1,0,0,-1,800.312,467.26283)" d="M 0 0 C .852 -11.693 17.792 -19.988 37.842 -18.528 C 57.881 -17.067 73.446 -6.404 72.594 5.292 C 71.743 16.981 54.796 25.277 34.756 23.819 C 14.706 22.359 -.852 11.693 0 0 " fill="#ff9797"/>
<path transform="matrix(1,0,0,-1,690.3822,456.71974)" d="M 0 0 C -1.337 0 -2.514 .961 -2.74 2.323 C -4.344 11.99 -11.99 18.233 -22.212 18.233 C -32.495 18.23 -40.312 11.857 -41.666 2.374 C -41.889 .859 -43.305 -.205 -44.813 .017 C -46.336 .233 -47.389 1.642 -47.174 3.164 C -45.436 15.305 -35.173 23.792 -22.215 23.796 C -9.329 23.799 .701 15.538 2.747 3.24 C 3 1.721 1.974 .291 .462 .038 Z " fill="#c4735b"/>
<path transform="matrix(1,0,0,-1,855.9012,273.4635)" d="M 0 0 C -1.861 .24 -3.636 1.139 -4.95 2.661 C -21.77 22.075 -57.248 31.438 -87.547 24.384 C -91.751 23.385 -96.003 26.019 -97.006 30.275 C -97.991 34.51 -95.357 38.741 -91.115 39.737 C -54.967 48.125 -13.704 36.87 6.965 12.962 C 9.808 9.667 9.449 4.697 6.154 1.854 C 4.396 .322 2.148 -.277 0 0 " fill="#773220"/>
<path transform="matrix(1,0,0,-1,480.7921,277.8114)" d="M 0 0 C -2.155 -.198 -4.382 .482 -6.082 2.076 C -9.271 5.042 -9.448 10.02 -6.486 13.208 C 15.062 36.35 56.698 46.079 92.504 36.384 C 96.708 35.238 99.185 30.911 98.046 26.717 C 96.9 22.502 92.562 20.026 88.378 21.175 C 58.367 29.341 22.537 21.305 5.046 2.48 C 3.677 1.006 1.868 .171 0 0 " fill="#773220"/>
<path transform="matrix(1,0,0,-1,990.6974,331.47804)" d="M 0 0 C -35.037 11.6 -39.682 48.149 -43.223 106.191 C -23.32 111.192 -50.307 253.644 -149.455 296.744 C -279.157 353.13 -441.758 334.835 -510.696 284.839 C -584.094 231.61 -596.621 165.772 -608.56 87.219 C -618.251 23.45 -592.359 -22.745 -638.995 -61.035 C -584.634 -62.263 -552.769 -17.689 -544.076 22.841 C -534.426 67.856 -555.745 108.921 -549.362 126.634 C -545.667 136.883 -487.717 182.603 -472.737 183.492 C -440.092 185.435 -411.063 92.897 -295.451 98.22 C -342.83 122.659 -369.287 158.441 -396.384 209.765 C -387.164 204.476 -377.887 198 -368.654 190.067 C -271.416 106.495 -166.774 86.764 -85.388 96.4 C -79.813 10.779 -117.726 -33.716 -13.766 -63.201 C -23.443 -51.59 -38.054 -16.28 -40.814 11.881 C -29.58 5.2 -18.497 -17.193 0 0 " fill="#ad5c49"/>
<path transform="matrix(1,0,0,-1,732.4521,356.65235)" d="M 0 0 C -19.427 -28.133 -17.067 -59.212 -.126 -71.072 C 25.397 -88.946 85.83 -94.228 108.411 -68.595 C 130.284 -43.767 119.785 1.663 84.208 21.312 C 53.061 38.516 18.798 27.23 0 0 " fill="#f9feff"/>
<path transform="matrix(1,0,0,-1,845.0331,349.1504)" d="M 0 0 C -27.665 43.808 -94.375 29.221 -113.231 -8.456 C -93.821 19.663 -58.032 28.13 -29.235 12.243 C -11.439 2.412 1.19 -15.024 4.56 -34.39 C 7.242 -49.832 3.66 -67.135 -5.422 -77.445 C 5.025 -70.727 20.344 -32.218 0 0 " fill="#7c3929"/>
<path transform="matrix(1,0,0,-1,739.547,375.2379)" d="M 0 0 C -7.974 -19.509 1.379 -41.789 20.888 -49.76 C 40.397 -57.734 62.674 -48.381 70.648 -28.872 C 78.619 -9.363 69.266 12.914 49.757 20.888 C 30.251 28.858 7.971 19.506 0 0 " fill="#63190d"/>
<path transform="matrix(1,0,0,-1,742.6634,371.88893)" d="M 0 0 C -2.21 -5.412 .383 -11.593 5.795 -13.803 C 11.21 -16.017 17.388 -13.42 19.602 -8.008 C 21.815 -2.596 19.219 3.585 13.807 5.798 C 8.395 8.008 2.213 5.415 0 0 " fill="#fefffe"/>
<path transform="matrix(1,0,0,-1,599.1475,355.40028)" d="M 0 0 C 18.911 -28.486 15.982 -59.516 -1.17 -71.065 C -27.018 -88.467 -87.537 -92.648 -109.646 -66.604 C -131.061 -41.382 -119.738 3.849 -83.805 22.845 C -52.35 39.477 -18.298 27.565 0 0 " fill="#f9feff"/>
<path transform="matrix(1,0,0,-1,486.7239,345.8457)" d="M 0 0 C 28.458 43.295 94.892 27.493 113.056 -10.523 C 94.163 17.946 58.535 27.066 29.454 11.71 C 11.48 2.203 -1.468 -14.997 -5.189 -34.301 C -8.152 -49.692 -4.888 -67.056 4.006 -77.531 C -6.318 -70.624 -20.929 -31.838 0 0 " fill="#7c3929"/>
<path transform="matrix(1,0,0,-1,520.806,373.20936)" d="M 0 0 C -7.974 -19.509 1.379 -41.786 20.888 -49.76 C 40.397 -57.731 62.674 -48.378 70.648 -28.869 C 78.619 -9.359 69.266 12.917 49.757 20.888 C 30.251 28.862 7.971 19.509 0 0 " fill="#63190d"/>
<path transform="matrix(1,0,0,-1,523.9225,369.8568)" d="M 0 0 C -2.21 -5.412 .383 -11.594 5.798 -13.807 C 11.21 -16.017 17.392 -13.424 19.602 -8.008 C 21.815 -2.597 19.218 3.585 13.807 5.795 C 8.395 8.008 2.213 5.412 0 0 " fill="#fefffe"/>
<path transform="matrix(1,0,0,-1,371.0744,225.04785)" d="M 0 0 C 47.17 138.327 144.073 213.452 306.49 214.646 C 439.805 215.625 541.049 141.067 592.677 -5.162 C 522.658 112.376 428.543 170.428 293.176 166.538 C 169.169 162.974 71.53 111.661 0 0 " fill="#ff4a69"/>
<g opacity=".520004">
<clipPath id="cp4">
<path transform="matrix(1,0,0,-1,0,1613.81)" d="M 610.237 678.667 L 754.076 678.667 L 754.076 803.728 L 610.237 803.728 Z "/>
</clipPath>
<g clip-path="url(#cp4)">
<path transform="matrix(1,0,0,-1,754.0652,846.5148)" d="M 0 0 C -.633 23.607 -17.111 36.432 -37.992 36.432 C -52.832 36.432 -65.653 22.715 -71.91 8.655 C -78.167 22.715 -90.988 36.432 -105.828 36.432 C -126.709 36.432 -143.095 23.604 -143.817 0 C -144.871 -34.27 -71.91 -88.628 -71.91 -88.628 C -71.91 -88.628 1.05 -39.381 0 0 " fill="#ffffff"/>
</g>
</g>
</g>
</g>
</g>
</g>
</svg>
