<?xml version="1.0" encoding="UTF-8" standalone="no"?>
<!DOCTYPE svg PUBLIC "-//W3C//DTD SVG 1.1//EN" "http://www.w3.org/Graphics/SVG/1.1/DTD/svg11.dtd">
<svg xmlns="http://www.w3.org/2000/svg" xmlns:xlink="http://www.w3.org/1999/xlink" version="1.1" width="1564.3pt" height="3127pt" viewBox="0 0 1564.3 3127">
<g enable-background="new">
<g>
<g id="Layer-1" data-name="Layer 1">
<clipPath id="cp0">
<path transform="matrix(1,0,0,-1,0,3127)" d="M 0 3127 L 1564.3 3127 L 1564.3 0 L 0 0 Z "/>
</clipPath>
<g clip-path="url(#cp0)">
<path transform="matrix(1,0,0,-1,120.5,1019.19998)" d="M 0 0 C 47.5 -2.4 93.6 39.2 85.4 79.1 C 33.3 142.3 50.3 158.1 103.1 290 C 143.1 390.2 141.5 639.2 183.1 731 C 264.2 966.4 548.1 1027.2 766.6 1006.6 C 1001.4 984.4 1197.8 896.8 1248.7 681.3 C 1301.8 456.7 1313.2 325.8 1352 251.1 C 1387.1 183.5 1349.2 156.1 1341.7 115.1 C 1363.2 66.7 1412.8 33.6 1443.8 60.7 C 1444.7 28.9 1406.3 14 1384.6 22.3 C 1374.2 26.3 1365.7 36.1 1364.1 36.6 C 1376 16 1401.2 -21 1405.4 -48.9 C 1413 -99.2 1383.3 -184.6 1305.2 -228.7 C 1333.5 -198.4 1369.7 -147.9 1355.2 -105.3 C 1338.7 -187.9 1257.6 -279.7 1129 -270.1 C 1004 -290.9 578.8 -327.6 472.2 -322.2 C 364.2 -316.7 142.5 -292.9 86.3 -196.8 C 86.7 -221.5 97.9 -236.9 109.4 -251.8 C 42.5 -200.8 29.2 -150.9 34.8 -97.9 C 39.1 -57.1 70 -14.1 83.5 9.3 C 51.4 -27 28.5 -39.5 0 0 " fill="#aa3900"/>
<g opacity=".25">
<clipPath id="cp1">
<path transform="matrix(1,0,0,-1,0,3127)" d="M 544.344 962.78 L 642.638 962.78 L 642.638 1062.22 L 544.344 1062.22 Z "/>
</clipPath>
<g clip-path="url(#cp1)">
<path transform="matrix(1,0,0,-1,581,2069.5)" d="M 0 0 L -6.1 -22.9 C -6.6 -24.9 -8.1 -26.6 -10.1 -27.3 L -32.4 -35.3 C -37.4 -37.1 -38.2 -43.8 -33.7 -46.7 L -13.8 -59.6 C -12 -60.7 -10.9 -62.7 -10.9 -64.8 L -10.2 -88.5 C -10 -93.8 -3.9 -96.6 .2 -93.3 L 18.6 -78.4 C 20.2 -77.1 22.4 -76.6 24.4 -77.2 L 47.1 -83.9 C 52.2 -85.4 56.8 -80.4 54.9 -75.5 L 46.4 -53.4 C 45.6 -51.4 45.9 -49.2 47.1 -47.5 L 60.5 -28 C 63.5 -23.6 60.2 -17.7 54.9 -18 L 31.3 -19.3 C 29.2 -19.4 27.2 -18.5 25.9 -16.8 L 11.4 1.9 C 8 6.5 1.4 5.2 0 0 " fill="#f9951e"/>
</g>
</g>
<g opacity=".119995">
<clipPath id="cp2">
<path transform="matrix(1,0,0,-1,0,3127)" d="M 0 .0000152588 L 1485.8 .0000152588 L 1485.8 160.4 L 0 160.4 Z "/>
</clipPath>
<g clip-path="url(#cp2)">
<path transform="matrix(1,0,0,-1,742.9,2966.6)" d="M 0 0 C 410.292 0 742.9 -35.907 742.9 -80.2 C 742.9 -124.493 410.292 -160.4 0 -160.4 C -410.292 -160.4 -742.9 -124.493 -742.9 -80.2 C -742.9 -35.907 -410.292 0 0 0 "/>
</g>
</g>
<path transform="matrix(1,0,0,-1,897.9,2948.5)" d="M 0 0 C .8 -5.3 172.2 4.7 172 11.2 C 170.4 67.8 168.6 683 167.1 715.8 L -82.7 715.8 C -72.3 660.4 -6.1 38.2 0 0 " fill="#ffc19f"/>
<path transform="matrix(1,0,0,-1,546.5,2948.5)" d="M 0 0 C -.8 -5.3 -161.9 -3.2 -161.7 3.3 C -160.1 59.9 -119.6 743.6 -118.1 776.4 L 113.1 761.6 C 102.7 706.1 6.1 38.2 0 0 " fill="#ffc19f"/>
<path transform="matrix(1,0,0,-1,1103.3,2790.2)" d="M 0 0 C -33.7 -1.9 -212.5 -4.1 -256.4 -3.1 C -263.9 89.7 -303.2 506.5 -312.6 647.9 C -314.8 681.8 -365.8 687.1 -375.9 652.6 C -382.2 631.3 -489.4 102.7 -506.2 -3.4 C -575.8 4.9 -698.6 15.7 -746.9 26.9 L -656 1043.9 C -536.2 1053.1 -132.2 1038.4 -4.4 1018.8 C 12.7 880.5 0 185.8 0 0 " fill="#f95006"/>
<path transform="matrix(1,0,0,-1,398,2817.7)" d="M 0 0 C 3.2 13.8 137.6 -19.7 161.5 -15.8 C 161.8 -47.7 179.8 -99.4 178.4 -142.7 C 177.4 -172.9 151.6 -194.7 123.6 -199.4 C 15.1 -217.5 -274.7 -269.2 -286.3 -190.9 C -295.9 -126.6 -137.4 -93.4 0 0 " fill="#ffc19f"/>
<path transform="matrix(1,0,0,-1,255.6,2879.6)" d="M 0 0 C -84.7 -38.2 -195.7 -80.6 -196.9 -132.3 C -198.5 -203.8 122.7 -161.3 122.7 -161.3 C 122.3 -118.4 47.3 -23.7 0 0 " fill="#0ca39b"/>
<path transform="matrix(1,0,0,-1,574.1,2998.1)" d="M 0 0 C 16.4 1.1 20.8 -30.7 2.2 -35.4 C -33.1 -40.4 -205.8 -71.2 -358 -77 C -424.4 -79.5 -494.6 -73.6 -508.9 -44 C -510.4 -41 -516.5 -21.8 -515.2 -18.2 C -486.9 -39.9 -421.9 -49.2 -361.8 -44.6 C -202.4 -32.1 -86.9 -12.2 0 0 " fill="#057c7c"/>
<path transform="matrix(1,0,0,-1,1054.9,2817.7)" d="M 0 0 C -3.2 13.8 -137.6 -19.7 -161.5 -15.8 C -161.8 -47.7 -179.8 -99.4 -178.4 -142.7 C -177.4 -172.9 -151.6 -194.7 -123.6 -199.4 C -15.1 -217.5 274.7 -269.2 286.3 -190.9 C 295.9 -126.6 137.4 -93.4 0 0 " fill="#ffc19f"/>
<path transform="matrix(1,0,0,-1,1197.3,2879.6)" d="M 0 0 C 84.7 -38.2 195.7 -80.6 196.9 -132.3 C 198.5 -203.8 -122.7 -161.3 -122.7 -161.3 C -122.3 -118.4 -47.3 -23.7 0 0 " fill="#0ca39b"/>
<path transform="matrix(1,0,0,-1,878.8,2998.1)" d="M 0 0 C -16.4 1.1 -20.8 -30.7 -2.2 -35.4 C 33.1 -40.4 205.8 -71.2 358 -77 C 424.4 -79.5 494.6 -73.6 508.9 -44 C 510.4 -41 516.5 -21.8 515.2 -18.2 C 486.9 -39.9 421.9 -49.2 361.8 -44.6 C 202.4 -32.1 86.9 -12.2 0 0 " fill="#057c7c"/>
<path transform="matrix(1,0,0,-1,248.2,1142)" d="M 0 0 C -76.8 48.7 9.1 168.7 18.9 163.8 C 164.9 90.2 355.7 15.2 397 4.1 L 309.8 -163.3 C 226.8 -118.3 122.2 -77.6 0 0 " fill="#ffc19f"/>
<path transform="matrix(1,0,0,-1,365,1025)" d="M 0 0 C -41.3 -48.7 -57.6 -164.2 -59.6 -224.9 C 58.4 -273 183.6 -345.4 192.8 -343.7 C 288.2 -325.9 343 -113.1 349.7 -102.5 C 288 -87.8 116.3 -43.5 0 0 " fill="#f95006"/>
<path transform="matrix(1,0,0,-1,696.2626,1052.4697)" d="M 0 0 L 312.25 -40.042 L 297.151 -157.781 L -15.099 -117.738 Z " fill="#f95006"/>
<g opacity=".220001">
<clipPath id="cp3">
<path transform="matrix(1,0,0,-1,0,3127)" d="M 428.3 1090.97 L 1107.3 1090.97 L 1107.3 1338.4 L 428.3 1338.4 Z "/>
</clipPath>
<g clip-path="url(#cp3)">
<path transform="matrix(1,0,0,-1,1107.3,2009.4)" d="M 0 0 C -211 -48.4 -503.6 -30 -679 48.5 L -663.6 220.8 C -541.7 215.1 -223.8 200.2 -4.4 186.7 C -2.1 140.2 -.7 75.4 0 0 "/>
</g>
</g>
<path transform="matrix(1,0,0,-1,1277.5,1608.3)" d="M 0 0 C -26.9 -35.6 -105.5 -36.2 -148.1 -29.8 C -203.8 97.9 -278.1 236.4 -278.5 245.5 C -283.4 340.8 -143.6 374.5 -137.4 379.8 C -95.5 329.5 -34 139.8 0 0 " fill="#f95006"/>
<path transform="matrix(1,0,0,-1,375,1866.8)" d="M 0 0 C 174.9 -118.4 598.8 -164.5 761.5 -77.3 C 761.5 -77.3 776.8 498 765.2 638.4 C 525.7 845.8 443 738.8 145.3 735.5 C 105.3 562.7 53 255.9 0 0 " fill="#f95006"/>
<path transform="matrix(1,0,0,-1,986.6,1005.09988)" d="M 0 0 L -22.2 -201.7 C -27 -245.1 -99.3 -256.3 -159.6 -269.8 C -193.5 -251.9 -273.2 -218 -268.4 -174.6 L -246.2 27.1 Z " fill="#ffc19f"/>
<g opacity=".25">
<clipPath id="cp4">
<path transform="matrix(1,0,0,-1,0,3127)" d="M 655.6 1791.9 L 1030.5 1791.9 L 1030.5 1996 L 655.6 1996 Z "/>
</clipPath>
<g clip-path="url(#cp4)">
<path transform="matrix(1,0,0,-1,995.2,1167.9)" d="M 0 0 C -33.6 -85.7 -86 -91.5 -168.2 -107 C -243.8 -71.3 -264.7 -26.3 -291.3 36.9 L -339.6 36.9 L -330.2 -126.9 L -245.2 -100 C -245.2 -100 -170.1 -115.3 -169.3 -115.4 C -168.5 -115.5 -92 -119.7 -92 -119.7 L -16.5 -167.2 L 35.3 -7 Z " fill="#440f03"/>
</g>
</g>
<path transform="matrix(1,0,0,-1,829.3,1275.2)" d="M 0 0 C -24.9 2.3 -69.3 32.9 -69.3 32.9 L -149.4 -10.1 L -159.6 143.9 L -131.2 232.8 C -121.1 148.3 -70.2 31.3 0 0 " fill="#f95006"/>
<path transform="matrix(1,0,0,-1,824.8,1274.6)" d="M 0 0 C 24.7 -4 75.4 14.4 75.4 14.4 L 142.1 -47.4 L 191.2 102.1 L 185.8 192.1 C 154.6 112.9 75.8 12.5 0 0 " fill="#f95006"/>
<path transform="matrix(1,0,0,-1,839.4,1348.8)" d="M 0 0 C -1.2 -9.6 -10 -16.3 -19.5 -15.1 C -29.1 -13.9 -35.8 -5.1 -34.6 4.4 C -33.4 14 -24.6 20.7 -15.1 19.5 C -5.5 18.3 1.3 9.6 0 0 " fill="#ffffff"/>
<path transform="matrix(1,0,0,-1,822.8,1478.9)" d="M 0 0 C -1.2 -9.6 -10 -16.3 -19.5 -15.1 C -29.1 -13.9 -35.8 -5.1 -34.6 4.4 C -33.4 14 -24.6 20.7 -15.1 19.5 C -5.6 18.3 1.2 9.6 0 0 " fill="#ffffff"/>
<path transform="matrix(1,0,0,-1,804.5,1621.1)" d="M 0 0 C -1.2 -9.6 -10 -16.3 -19.5 -15.1 C -29.1 -13.9 -35.8 -5.1 -34.6 4.4 C -33.4 14 -24.6 20.7 -15.1 19.5 C -5.6 18.3 1.2 9.6 0 0 " fill="#ffffff"/>
<path transform="matrix(1,0,0,-1,801.3,1770.4)" d="M 0 0 C -.9 -9.6 -9.4 -16.6 -19 -15.8 C -28.6 -14.9 -35.6 -6.4 -34.7 3.2 C -33.8 12.8 -25.3 19.8 -15.7 18.9 C -6.2 18.1 .9 9.6 0 0 " fill="#ffffff"/>
<g opacity=".190002">
<clipPath id="cp5">
<path transform="matrix(1,0,0,-1,0,3127)" d="M 723.3 1965.96 L 986.6 1965.96 L 986.6 2149 L 723.3 2149 Z "/>
</clipPath>
<g clip-path="url(#cp5)">
<path transform="matrix(1,0,0,-1,723.3,1133.7)" d="M 0 0 L 17.1 155.7 L 263.3 128.7 L 247.8 -12 C 186.5 -28.2 80.8 -40.7 0 0 " fill="#601805"/>
</g>
</g>
<path transform="matrix(1,0,0,-1,1412.2,766.5)" d="M 0 0 C -21.8 -106.2 -122.2 -178 -201.2 -172.5 C -280.2 -166.9 -300.3 -82 -292.4 19.5 C -284.5 121 -214 199.1 -135 193.2 C -27.1 185.3 20.4 99.8 0 0 " fill="#ffc19f"/>
<path transform="matrix(1,0,0,-1,1327.7,790.30007)" d="M 0 0 C -3.5 -46.7 -39.7 -82.1 -80.8 -79 C -122 -75.9 -152.5 -35.6 -149.1 11.1 C -145.6 57.8 -109.4 93.2 -68.3 90.1 C -27.1 87 3.5 46.6 0 0 " fill="#e0956c"/>
<path transform="matrix(1,0,0,-1,259.8,843.80007)" d="M 0 0 C 35.2 -102.5 144 -160.8 221.6 -145.1 C 299.2 -129.4 308.2 -42.6 287.4 57.1 C 266.5 156.8 186.6 225.1 109 209.2 C 3 187.2 -33.1 96.3 0 0 " fill="#ffc19f"/>
<path transform="matrix(1,0,0,-1,351.8,853.30007)" d="M 0 0 C 9.4 -45.9 49.9 -76.3 90.3 -68 C 130.7 -59.7 155.9 -15.7 146.4 30.1 C 137 76 96.5 106.4 56.1 98.1 C 15.7 89.8 -9.4 45.8 0 0 " fill="#e0956c"/>
<path transform="matrix(1,0,0,-1,287.4,507.19996)" d="M 0 0 C 25.6 -359.4 254.2 -505.6 558.2 -483.9 C 862.2 -462.3 1093 -283.5 1067.4 75.9 C 1041.8 435.2 776 519.7 508.1 505.8 C 232.8 491.5 -25.6 359.4 0 0 " fill="#aa3900"/>
<path transform="matrix(1,0,0,-1,386.4,388)" d="M 0 0 C -43.6 -173.9 27.9 -533.3 93 -598.6 C 162 -667.9 346.1 -744.2 477.2 -737 C 613.6 -729.5 786.3 -633.1 830.8 -549.2 C 883.4 -449.9 912.9 -122.8 860.1 24.4 C 796.4 201.9 617.5 240.7 404 226.8 C 204.3 213.8 38.5 153.7 0 0 " fill="#ffc19f"/>
<path transform="matrix(1,0,0,-1,1203.2,804.5)" d="M 0 0 C 2.8 -20.8 -23.8 -41.5 -59.5 -46.3 C -95.1 -51.1 -126.3 -38.1 -129 -17.3 C -131.8 3.5 -105.1 24.2 -69.5 29 C -33.9 33.8 -2.8 20.8 0 0 " fill="#ff9797"/>
<path transform="matrix(1,0,0,-1,607.3,854.3999)" d="M 0 0 C -.2 -21 -29.4 -37.8 -65.4 -37.5 C -101.3 -37.3 -130.4 -20 -130.2 .9 C -130 21.9 -100.8 38.7 -64.9 38.4 C -28.9 38.2 .1 21 0 0 " fill="#ff9797"/>
<path transform="matrix(1,0,0,-1,815,800.69998)" d="M 0 0 C 2.4 .2 4.4 2 4.6 4.5 C 6.3 21.9 19.2 34 37.5 35.2 C 55.9 36.4 70.5 25.9 74.1 9.2 C 74.7 6.5 77.3 4.8 80 5.4 C 82.7 6 84.4 8.6 83.8 11.3 C 79.3 32.8 60 46.7 36.8 45.2 C 13.8 43.7 -3.1 27.8 -5.3 5.6 C -5.6 2.9 -3.6 .4 -.8 .2 Z " fill="#c4735b"/>
<path transform="matrix(1,0,0,-1,648.5,397.19996)" d="M 0 0 C -3.3 -.6 -6.4 -2.5 -8.5 -5.3 C -36.2 -41.9 -98.5 -62.8 -153.3 -53.8 C -160.9 -52.5 -168.2 -57.7 -169.5 -65.4 C -170.8 -73.1 -165.6 -80.3 -157.9 -81.6 C -92.4 -92.3 -20.1 -67.4 14 -22.3 C 18.7 -16.1 17.5 -7.3 11.3 -2.6 C 7.9 -.1 3.8 .7 0 0 " fill="#6d1403"/>
<path transform="matrix(1,0,0,-1,1291.9,370)" d="M 0 0 C -1.1 62 -44.5 216 -162.1 271.9 C -313.8 344 -603.5 368.8 -882.8 173.8 C -837.9 22.1 -543.9 -18 -423.7 -2.4 C -464 13.5 -519.3 49.5 -520.3 79 C -463.3 40.3 2.5 -142 0 0 " fill="#aa3900"/>
<path transform="matrix(1,0,0,-1,1001,380.19996)" d="M 0 0 C -3.9 .1 -7.8 -1.4 -10.6 -4.4 C -15.9 -10.1 -15.7 -19 -10 -24.3 C 31.2 -63.1 106.6 -75.5 169.4 -54 C 176.8 -51.5 180.7 -43.4 178.2 -36.1 C 175.7 -28.7 167.6 -24.8 160.3 -27.3 C 107.7 -45.4 42.8 -35.3 9.4 -3.7 C 6.7 -1.4 3.4 -.1 0 0 " fill="#6d1403"/>
<path transform="matrix(1,0,0,-1,946.1,620.09988)" d="M 0 0 C -30.4 -53.1 -21.5 -108.1 10.4 -126.7 C 58.6 -154.7 167.1 -155.1 203.5 -106 C 238.8 -58.5 213.2 20.9 146.9 50.6 C 88.8 76.6 29.4 51.4 0 0 " fill="#f9feff"/>
<path transform="matrix(1,0,0,-1,1145.6,589.80007)" d="M 0 0 C -55.9 73.9 -172.6 37.9 -200.5 -32.1 C -170.1 20.9 -107.6 41.4 -53.9 17.4 C -20.7 2.5 4.4 -26.6 13.3 -60.6 C 20.4 -87.7 16.6 -119.1 2 -138.8 C 19.6 -125.3 41.1 -54.4 0 0 " fill="#ad3c23"/>
<path transform="matrix(1,0,0,-1,1088,642.8999)" d="M 0 0 C 16.5 -33.9 2.4 -74.7 -31.4 -91.3 C -65.3 -107.8 -106.1 -93.7 -122.7 -59.9 C -139.2 -26 -125.1 14.8 -91.3 31.4 C -57.3 47.9 -16.5 33.9 0 0 " fill="#872c04"/>
<path transform="matrix(1,0,0,-1,1096.3,668.69998)" d="M 0 0 C 4.6 -9.4 .7 -20.7 -8.7 -25.3 C -18.1 -29.9 -29.4 -26 -34 -16.6 C -38.6 -7.2 -34.7 4.1 -25.3 8.7 C -15.9 13.3 -4.6 9.4 0 0 " fill="#fefffe"/>
<path transform="matrix(1,0,0,-1,1278.6,190.3999)" d="M 0 0 C -13.8 15.3 -124.8 -.8 -185.6 -14.3 C -30.8 -.2 -61.7 -169.7 -45.1 -312.6 C -34 -408.1 -6.9 -489.9 45.9 -477.6 C 35 -378.4 15.1 -65.9 0 0 " fill="#aa3900"/>
<path transform="matrix(1,0,0,-1,336.9,252.3999)" d="M 0 0 C 11.7 17 123.9 15.6 185.9 10.2 C 30.6 3.8 83.4 -160.1 85.7 -303.9 C 87.2 -400 71 -484.6 17.2 -479.4 C 14.9 -379.7 -6.3 -67.3 0 0 " fill="#aa3900"/>
<path transform="matrix(1,0,0,-1,1276.4,310.1001)" d="M 0 0 C -89.6 182.2 -246.4 275.7 -509.7 259.9 C -725.7 246.9 -888.1 128.8 -959.6 -71.4 C -857.2 106.1 -710.2 200.3 -490.6 209.3 C -289.4 217.5 -126.4 153.8 0 0 " fill="#f49000"/>
<path transform="matrix(1,0,0,-1,1148.3,194.3999)" d="M 0 0 C -49 1.5 -120.8 5.4 -144.6 26.7 C -159.6 40.2 -123.3 113.9 -67.7 127.2 C -38.3 134.3 17.2 89.2 27.6 40.6 C 32.8 16.1 23.4 -.7 0 0 " fill="#ffa10b"/>
<path transform="matrix(1,0,0,-1,1167.4,215.5)" d="M 0 0 C 18.6 -77.2 40.6 -127.9 65.3 -132.7 C 104.4 -140.4 182 -80.8 173 -37.8 C 164 5.3 71.9 50.1 30.1 41.9 C 3.9 36.8 -6 24.8 0 0 " fill="#ffa10b"/>
<g opacity=".350006">
<clipPath id="cp6">
<path transform="matrix(1,0,0,-1,0,3127)" d="M 1112.64 2956.38 L 1159 2956.38 L 1159 2993.55 L 1112.64 2993.55 Z "/>
</clipPath>
<g clip-path="url(#cp6)">
<path transform="matrix(1,0,0,-1,1159,170.3999)" d="M 0 0 C -5.4 14.3 -26.2 51.3 -41.5 31 C -61.6 4.3 -13.7 -1.5 0 0 " fill="#c12400"/>
</g>
</g>
<g opacity=".350006">
<clipPath id="cp7">
<path transform="matrix(1,0,0,-1,0,3127)" d="M 1188.5 2890.61 L 1237.97 2890.61 L 1237.97 2934.9 L 1188.5 2934.9 Z "/>
</clipPath>
<g clip-path="url(#cp7)">
<path transform="matrix(1,0,0,-1,1188.5,192.1001)" d="M 0 0 C 16.6 -3.8 68.4 -18.3 42.2 -38.6 C 15 -59.8 3 -16.1 0 0 " fill="#c12400"/>
</g>
</g>
<path transform="matrix(1,0,0,-1,1151.5,170.3999)" d="M 0 0 C -9.6 -13.8 -8.6 -31.2 2.4 -38.8 C 13.3 -46.5 30 -41.5 39.6 -27.7 C 49.2 -13.9 48.1 3.5 37.2 11.1 C 26.3 18.8 9.6 13.8 0 0 " fill="#ffa10b"/>
<path transform="matrix(1,0,0,-1,793.7,998.30007)" d="M 0 0 C 2.8 -30.8 38.9 -52.7 80.7 -48.9 C 122.5 -45.1 154.1 -17.1 151.3 13.7 C 148.5 44.5 112.4 66.4 70.7 62.6 C 28.8 58.8 -2.8 30.8 0 0 " fill="#701608"/>
<path transform="matrix(1,0,0,-1,1133.7,548.69998)" d="M 0 0 C -41.7 19.4 -85.7 17.2 -128.2 2.1 C -171.6 -13.3 -207.1 -48.7 -209.8 -76.1 L -209.4 -75.4 C -213.3 -86.2 -214.3 -98.3 -213.6 -111 C -192.2 -115.4 -167.2 -118.3 -139.1 -118.2 C -74.7 -118.1 -18.7 -110.9 29.9 -99.2 C 51.2 -70.7 41.9 -19.5 0 0 " fill="#ad3c23"/>
<path transform="matrix(1,0,0,-1,1147,531)" d="M 0 0 C -43.9 17.7 -90.9 14.7 -136.5 -.5 C -183.2 -16 -222.1 -50.5 -225.7 -76.7 L -225.2 -76 C -229.7 -86.4 -231.1 -97.9 -230.7 -110 C -208 -113.7 -181.5 -116 -151.5 -115.4 C -82.9 -114 -23 -106 29.2 -93.9 C 52.5 -66.3 44 -17.8 0 0 " fill="#ffc19f"/>
<path transform="matrix(1,0,0,-1,518.6,663.59988)" d="M 0 0 C 36.7 27.8 80.2 34.8 124.9 29 C 170.6 23.1 212.8 -4.1 221.1 -30.3 C 227.2 -40.1 230.2 -51.1 232.2 -63.6 C 212.2 -72.4 188.4 -80.4 160.9 -86.3 C 97.9 -99.7 41.6 -104.4 -8.3 -103.2 C -35.2 -79.8 -36.8 -27.8 0 0 " fill="#ad3c23"/>
<path transform="matrix(1,0,0,-1,499.9,637)" d="M 0 0 C 38.4 27.6 84.3 34.5 131.5 28.6 C 179.8 22.6 224.6 -4.7 233.8 -30.8 C 240.4 -40.5 243.6 -51.5 245.9 -64.1 C 224.9 -72.8 199.8 -80.8 170.9 -86.5 C 104.4 -99.8 45.1 -104.3 -7.7 -103 C -36.3 -79.5 -38.5 -27.7 0 0 " fill="#ffc19f"/>
<g opacity=".199997">
<clipPath id="cp8">
<path transform="matrix(1,0,0,-1,0,3127)" d="M 352.23 2260.3 L 701.514 2260.3 L 701.514 2526.79 L 352.23 2526.79 Z "/>
</clipPath>
<g clip-path="url(#cp8)">
<path transform="matrix(1,0,0,-1,457.6,837.09988)" d="M 0 0 Z M 75.2 230.6 C 102.2 248.1 144.8 225.7 173.8 204.9 C 236.7 173.3 240.8 163.8 242.7 159.3 C 250.1 142.3 221.7 67.8 210.9 47.9 C 208.2 42.9 204.4 39.1 199.9 36.9 L 196.6 30.2 C 191.4 23.9 177.8 9.6 163 9.8 C 161.6 9.8 160.4 10 159.3 10.2 C 158 9.1 156.6 8.1 155.4 7.4 C 150.6 3.7 145.7 1.2 140.8 0 L 105.3 -18.1 L 119.5 1.9 L 96.2 -29.6 L 96.9 -10.2 C 85.6 -12.2 72.6 -9.9 59.3 -3.2 C 40.1 -8 21.8 -11.2 5.9 -12.6 C -14.7 -24.1 -46.6 -23.8 -69.8 -12 C -90.2 -1.5 -102.8 16.7 -105.3 39.4 C -109.4 75.1 66.9 225.2 75.2 230.6 " fill="#601805"/>
</g>
</g>
<path transform="matrix(1,0,0,-1,687.9,683.30007)" d="M 0 0 C 3.5 -8.2 -16.3 -71.7 -31.3 -99.5 C -37.7 -111.3 -48.1 -109 -66.3 -85.3 C -127.4 -76.9 -168.6 -40.3 -173.1 -8.3 C -177.6 23.8 -167.1 58.1 -122.1 64.4 C -113.9 65.7 -5.8 13.4 0 0 " fill="#f9ac85"/>
<path transform="matrix(1,0,0,-1,482.7,688.69998)" d="M 0 0 C -41.3 -48.9 -79.2 -108.6 -76.6 -126.9 C -72.1 -159 -5.7 -150.6 60.2 -130.1 C 71.4 -126.6 91.4 -114.1 114.9 -100.4 C 115 -95.4 115.1 -90.5 114.3 -85.4 C 106.6 -30.9 55.6 7 0 0 " fill="#f29d77"/>
<path transform="matrix(1,0,0,-1,643.7,798.30007)" d="M 0 0 C -6.4 -7.8 -22.2 -22.7 -29.2 -11.3 C -45 -31.3 -58.8 -30.4 -70.3 -17 C -85.8 -60.7 -145.5 -19.5 -145.1 -7.3 C -143.2 47 -109.1 40 -108.2 21.4 C -107.7 11.5 -112.3 8.7 -109.6 6.9 C -106.9 7.9 -100.7 27.5 -105.7 33.3 C -113.1 42 -121.4 46.4 -137.8 56.6 C -149.1 49.5 -149.6 -18.6 -187.1 -39.6 C -214.1 -54.7 -272.6 -46.3 -278 2.1 C -280.5 24.1 -126 165.8 -103.5 180.3 C -69.6 202.2 17.6 130.7 27.3 111.9 C 37.9 91.5 28.5 76.7 0 0 " fill="#ffc19f"/>
<path transform="matrix(1,0,0,-1,627.5,706.80007)" d="M 0 0 C -8 8.1 -22.8 23.3 -38.4 36.5 C -39.5 37.4 -41 37.3 -41.9 36.2 C -42.8 35.2 -42.6 33.6 -41.6 32.7 C -26.2 19.6 -11.5 4.5 -3.5 -3.5 C -.8 -6.2 1.2 -8.2 2.2 -9.2 C 6.4 -12.5 .6 -68.1 -21 -110.9 C -19.3 -110.1 -14.7 -105.2 -13.3 -103.5 C 3.2 -67.4 12.9 -12.5 5.6 -5.6 C 4.6 -4.7 2.6 -2.7 0 0 " fill="#f29d77"/>
<path transform="matrix(1,0,0,-1,585,733)" d="M 0 0 C -8 8.2 -22.9 23.4 -38.6 36.8 C -39.6 37.7 -41.2 37.6 -42.1 36.5 C -43 35.5 -42.8 33.9 -41.8 33 C -26.3 19.7 -11.4 4.6 -3.5 -3.5 C -.9 -6.1 1 -8 2 -9 C 7.2 -13.8 -16.6 -89.8 -16.1 -90.4 C -14.7 -88.6 -13.9 -88.1 -12.4 -85.9 C -2.8 -55.3 12.2 -10.8 5.4 -5.4 C 4.3 -4.5 2.5 -2.5 0 0 " fill="#f29d77"/>
<path transform="matrix(1,0,0,-1,437.5,799.69998)" d="M 0 0 C 1.9 8.8 -93.2 29 -96.3 20.5 C -142.6 -105.8 -232.1 -231.7 -235.3 -266.1 C -241.8 -336.1 -147.9 -391.7 -88.2 -306.3 C -54.9 -258.7 -23.3 -109.8 0 0 " fill="#ffc19f"/>
<path transform="matrix(1,0,0,-1,480.7,925.3999)" d="M 0 0 C -43.3 29.6 -113.4 66.6 -168.3 91.8 C -230.8 -10.9 -305.3 -141.4 -298.7 -184.4 C -284.1 -279.5 -186.5 -319.9 -124.9 -347.1 C -114.1 -316 -78 -247 -54.5 -177.1 C -33.4 -114.5 -25.8 -51.8 0 0 " fill="#f95006"/>
<path transform="matrix(1,0,0,-1,489.2,948.80007)" d="M 0 0 L 44.5 81.3 L -173.7 180.5 L -218.3 99.2 Z " fill="#f96938"/>
<path transform="matrix(1,0,0,-1,830.8871,2710.6104)" d="M 0 0 L 289.897 10.787 L 294.31 -107.83 L 4.414 -118.617 Z " fill="#f96938"/>
<path transform="matrix(1,0,0,-1,632.5,2727.1)" d="M 0 0 L -20.7 -116.9 L -306.3 -66.3 L -285.6 50.6 Z " fill="#f96938"/>
<g opacity=".199997">
<clipPath id="cp9">
<path transform="matrix(1,0,0,-1,0,3127)" d="M 759.34 1125.7 L 1240.6 1125.7 L 1240.6 2002.8 L 759.34 2002.8 Z "/>
</clipPath>
<g clip-path="url(#cp9)">
<path transform="matrix(1,0,0,-1,803.1,1601.1)" d="M 0 0 C 19.7 28.4 46.9 57.7 70.2 72.3 C 20.1 120.8 -.2 183.2 13 250.1 C 18.6 278.8 28.4 304.7 41.9 327.3 C 22.3 345.5 13.2 366.2 16.2 386.5 C 24.7 445.1 70.9 474 112.8 476.6 C 155.4 479.8 189 456.9 199.4 419.6 L 199.8 417.9 C 228.1 419.2 256.8 415.7 285.1 407.4 C 291.7 405.5 297.3 402.4 303.6 400.1 C 314.5 391.5 325.5 382.8 337.1 372.7 C 366.4 337.4 405.1 234 437.5 127.2 C 417.3 62.5 377.2 17.8 321.7 .4 C 323.2 -5.7 334.3 -50.4 339.2 -68.5 C 338.2 -128.9 337.1 -185 336.1 -231 C 334.1 -231.5 332.3 -232.4 330.3 -232.7 C 332.3 -234.9 334 -236.9 336 -239 L 333.5 -343.1 C 323.5 -349.3 312.9 -354.5 302.4 -359.7 C 295.5 -359.3 288.4 -358.2 281 -355.2 C 243.9 -340.2 213.5 -286.2 196.8 -239.6 L 190.8 -239.4 C 201.9 -263.6 216 -291.7 231.4 -312.7 C 246.5 -333.2 241.3 -359.2 218.2 -378.8 C 202.6 -392 181.6 -400.2 160.8 -400.2 C 143 -400.2 125.4 -394.2 111.6 -380.1 C 82.4 -350.5 56.1 -277 60.8 -211.1 C 57.9 -209.3 55.1 -207.4 52.5 -205.3 C 42.2 -218.2 26.5 -224.3 9.2 -223 C -16.5 -220.7 -38.2 -201.6 -41.4 -178.6 C -45.6 -148.8 -49.9 -71.6 0 0 "/>
</g>
</g>
<path transform="matrix(1,0,0,-1,1054.7,1635)" d="M 0 0 C 11.3 59.1 23 92.4 39 78.3 C 55 64.2 62.4 -16.8 101.6 -126 C 125.2 -191.5 55.4 -199.2 36.8 -168 C 15 -131.4 -12.9 -67.6 0 0 " fill="#ca7d25"/>
<path transform="matrix(1,0,0,-1,1149.1,1871.8)" d="M 0 0 C -50.2 57.3 -125.6 132.3 -145.2 160.1 C -176.3 104.5 -117.7 -48.6 -60.1 -71.9 C -12.1 -91.3 31.8 -36.3 0 0 " fill="#ffa724"/>
<path transform="matrix(1,0,0,-1,1114.6,1731.2)" d="M 0 0 C -2.6 -44.5 -52 -92.7 -113.7 -93.2 C -175.4 -93.7 -265.2 -85.7 -271.1 -29.6 C -280.3 57.9 -243.4 221.8 -148.1 226.4 C -73.1 230 5.1 87.5 0 0 " fill="#ffa724"/>
<path transform="matrix(1,0,0,-1,1161,1363.6)" d="M 0 0 C 24 -12.5 73.6 -4.1 99.5 10.5 C 164.5 47.2 149.4 147.3 65.7 133.5 C 13.6 124.8 -24 12.5 0 0 " fill="#ffa724"/>
<path transform="matrix(1,0,0,-1,1212.8,1336.1)" d="M 0 0 C 7.2 -7.7 34.5 -10.6 53.4 8 C 75.9 30.1 45.6 68.5 15 43.9 C -.8 31.1 -2.2 2.5 0 0 " fill="#441911"/>
<path transform="matrix(1,0,0,-1,1230.9,1461)" d="M 0 0 C -28 -103.4 -104.6 -145.3 -190.3 -132 C -329.3 -110.5 -425.4 -14.4 -401.5 107.5 C -374.8 243.6 -261.8 288.1 -146.6 254.3 C -31.4 220.4 36.3 133.9 0 0 " fill="#ffa724"/>
<path transform="matrix(1,0,0,-1,1144.8,1539.5)" d="M 0 0 C 20.8 35.5 7 97.2 -37.6 112.2 C -93.2 130.9 -165.4 83.8 -159.1 35.9 C -150.9 -26.7 -28.2 -48 0 0 " fill="#fdd566"/>
<path transform="matrix(1,0,0,-1,1100.8,1517.6)" d="M 0 0 C 1.4 -.4 3.1 .3 3.8 1.6 C 9.2 13.7 15.1 32.1 12.3 51.2 C 12.1 52.9 10.4 54 8.9 53.8 C 7.2 53.6 6.1 52 6.3 50.4 C 8.9 32.7 3.2 15.5 -1.9 4.2 C -2.6 2.6 -1.5 .7 0 0 " fill="#441911"/>
<path transform="matrix(1,0,0,-1,1071.7,1526.2)" d="M 0 0 C 10.4 -2.8 23.7 .7 31.4 8.5 C 32.5 9.7 32.5 11.6 31.3 12.8 C 30.2 13.9 28.4 13.9 27.2 12.7 C 21.1 6.4 9.9 3.7 1.6 5.9 C 1.6 5.9 .5 6.2 -.2 6.4 C -6.4 8.7 -10 14 -10.4 21.7 C -10.5 23.3 -12.1 24.5 -13.6 24.6 C -15.3 24.5 -16.5 23.1 -16.5 21.4 C -15.9 11.3 -10.9 4 -2.4 .8 C -1.5 .5 -.8 .3 0 0 " fill="#441911"/>
<path transform="matrix(1,0,0,-1,1111.8,1535.5)" d="M 0 0 C 8.3 -2.2 17.1 .8 21.2 7.6 C 22.1 9 21.6 10.9 20.2 11.7 C 19.1 12.7 16.9 12.2 16.1 10.7 C 12.9 5.4 5.2 4.1 0 6.4 C -2.7 7.4 -8.8 10.9 -7 20.1 C -6.7 21.7 -7.7 23.2 -9.3 23.6 C -11 23.9 -12.6 22.9 -12.9 21.3 C -15.1 10 -8.9 3.3 -2.3 .7 C -1.5 .4 -.8 .2 0 0 " fill="#441911"/>
<path transform="matrix(1,0,0,-1,1137.3,1458)" d="M 0 0 C -2.9 -12 -17.9 -19.1 -26.1 -16.9 C -37.2 -13.9 -59.7 3.3 -56.5 15.2 C -53 28.4 3.3 13.4 0 0 " fill="#441911"/>
<path transform="matrix(1,0,0,-1,1054.5,1392.9)" d="M 0 0 C -2.9 -11.2 -14.4 -18 -25.6 -15 C -36.8 -12.1 -43.6 -.6 -40.6 10.6 C -37.7 21.8 -26.2 28.6 -15 25.6 C -3.8 22.7 2.9 11.3 0 0 " fill="#441911"/>
<path transform="matrix(1,0,0,-1,1177.3,1425.7)" d="M 0 0 C -2.9 -11.2 -12.5 -18.4 -21.4 -16.1 C -30.3 -13.8 -35.1 -2.8 -32.2 8.4 C -29.3 19.6 -19.7 26.8 -10.8 24.5 C -1.9 22.2 2.9 11.2 0 0 " fill="#441911"/>
<path transform="matrix(1,0,0,-1,1208.2,1347.7)" d="M 0 0 C -2.1 -5.4 -10.4 -7.3 -18.6 -4.2 C -26.8 -1.1 -31.8 5.9 -29.7 11.3 C -27.6 16.7 -19.3 18.6 -11.1 15.5 C -2.9 12.4 2.1 5.5 0 0 " fill="#441911"/>
<path transform="matrix(1,0,0,-1,1060.3,1300.8)" d="M 0 0 C -.5 -5.8 -9.1 -9.8 -19.3 -9 C -29.5 -8.2 -37.4 -2.8 -36.9 3 C -36.4 8.8 -27.8 12.8 -17.6 12 C -7.4 11.1 .4 5.8 0 0 " fill="#441911"/>
<path transform="matrix(1,0,0,-1,966.4,1294.4)" d="M 0 0 C 23.2 25.7 30.9 80.4 22.9 109.3 C 2.8 182.1 -120.4 170 -133.7 77.8 C -142 20.4 -23.2 -25.7 0 0 " fill="#ffa724"/>
<path transform="matrix(1,0,0,-1,935.8,1252.9)" d="M 0 0 C 10.7 6.7 22.7 32.7 8.9 51.2 C -7.5 73.2 -58.7 45.3 -42.2 15.4 C -33.7 0 -3.4 -2.1 0 0 " fill="#441911"/>
<path transform="matrix(1,0,0,-1,952.7,1679.3)" d="M 0 0 C 1.7 -54 30 -95.7 106.5 -82.6 C 147.6 -75.6 153.6 -19.6 139 26.1 C 122.6 77.6 102.3 100.1 65.7 100.4 C 17.5 100.7 -1.9 58.1 0 0 " fill="#fdd566"/>
<g opacity=".25">
<clipPath id="cp10">
<path transform="matrix(1,0,0,-1,0,3127)" d="M 958.092 1300.2 L 992.3 1300.2 L 992.3 1352.1 L 958.092 1352.1 Z "/>
</clipPath>
<g clip-path="url(#cp10)">
<path transform="matrix(1,0,0,-1,965.8,1825.1)" d="M 0 0 C -6.8 26.6 -9.3 43 -6.7 50.2 C 3.1 45.2 13.2 26.7 26.5 -1.7 C 17.9 -1.4 9 -.8 0 0 " fill="#904f18"/>
</g>
</g>
<path transform="matrix(1,0,0,-1,1023.3,1921.7)" d="M 0 0 C -30 40.9 -56.2 107 -74.2 151.6 C -83.2 173.8 -94.9 182 -110.7 187.5 C -176.5 140.3 -141.8 -6.6 -99.2 -49.9 C -56.9 -92.9 28.9 -39.5 0 0 " fill="#ffa724"/>
<g opacity=".25">
<clipPath id="cp11">
<path transform="matrix(1,0,0,-1,0,3127)" d="M 842.17 1331.3 L 906.898 1331.3 L 906.898 1548.7 L 842.17 1548.7 Z "/>
</clipPath>
<g clip-path="url(#cp11)">
<path transform="matrix(1,0,0,-1,843.5,1760.8)" d="M 0 0 C -2 18.6 -1.7 40.8 .6 64.1 C 7 99.2 52.5 182.5 61.6 182.5 C 70.8 182.5 42.1 101.5 34.2 57.9 C 29.1 29.7 26.1 -17.4 20.3 -34.9 C 9.2 -26.1 1.5 -14.9 0 0 " fill="#65401d"/>
</g>
</g>
<path transform="matrix(1,0,0,-1,814.2,1608.8)" d="M 0 0 C 34.3 49.4 84.4 91.1 93.8 71.9 C 112.4 34 50.1 -40.7 41.6 -156.5 C 36.5 -226 -34.2 -205.1 -39.2 -169.1 C -45.7 -121.9 -39.3 -56.6 0 0 " fill="#ffa724"/>
<path transform="matrix(1,0,0,-1,1032.5,1802.1)" d="M 0 0 C -13.6 50.9 -25.2 129.5 -30.5 189.7 C 89.8 213.1 178.1 260.1 210.4 243.9 C 268.5 222 257.4 73.6 191.1 57.2 C 167.3 51.4 104.8 12.6 0 0 " fill="#f95006"/>
<g opacity=".199997">
<clipPath id="cp12">
<path transform="matrix(1,0,0,-1,0,3127)" d="M 750.006 1265 L 1054.59 1265 L 1054.59 1530.57 L 750.006 1530.57 Z "/>
</clipPath>
<g clip-path="url(#cp12)">
<path transform="matrix(1,0,0,-1,752.7,1695.4)" d="M 0 0 C 10.5 16.7 34 14.9 73.6 5.7 C 81.3 3.9 99.3 5.9 113.8 7.4 C 125.6 8.6 137 9.6 144.1 9.7 C 149.5 10.2 155.1 10.7 160.4 11.3 C 159.5 11.9 158.4 12.7 156.8 13.7 C 154.7 15.1 152.3 16.7 149.6 18.6 L 143.1 23.1 C 131.6 31 119.7 39.3 113.2 51.7 C 107.6 62.4 104.2 83 114.7 93.6 C 120.5 99.5 129.2 100.6 137.1 96.6 C 150.2 89.9 158.9 87.6 173.3 83.7 C 178.8 82.3 184.9 80.6 192.2 78.5 C 217.3 71.2 253.1 53.8 285.5 12.4 C 290.2 6.4 294 -.9 296.1 -8.6 C 303.7 -36.1 303.8 -53.8 296.5 -74.1 L 295 -78.2 L 278.1 -90 C 223.5 -128.7 186.1 -153.1 169.9 -155.4 C 144.9 -162.3 117.8 -166.6 110.1 -166.6 C 91.6 -166.6 67.7 -147.5 56.4 -136.2 C 46.5 -126.2 43.3 -119.7 42.5 -115.1 C 37.8 -110.4 33.6 -105.8 30.4 -101.7 C 25.3 -95.3 22.8 -86.6 23.6 -79.3 C 19 -75.5 13.9 -71 11.4 -67.8 C 5.9 -61 5.1 -52.4 9.3 -45.3 C 11.5 -41.6 14.8 -38.8 18.5 -36.8 C 4.5 -27.9 .2 -21 -1.6 -15.6 C -3.5 -10.1 -2.9 -4.5 0 0 " fill="#601805"/>
</g>
</g>
<path transform="matrix(1,0,0,-1,823.3,1702.9)" d="M 0 0 C 17.3 -4 59.5 5.2 78.5 3.9 C 74.1 -12.4 70.4 -31.8 69.2 -41.6 C 43.2 -40.9 16.5 -42.4 -2.7 -37.8 C -64.1 -14 -60.6 -1.9 -59.2 .2 C -53.8 8.7 -38.1 8.8 0 0 " fill="#ffc19f"/>
<path transform="matrix(1,0,0,-1,1035.6,1707.5)" d="M 0 0 C -3.9 14 -14.1 27.7 -32.5 28.8 C -46.1 29.6 -80.1 14.9 -102.3 12.9 C -116.1 9.3 -142.7 8.6 -156.4 6 C -157.9 -3.3 -157.3 -18.2 -156.7 -30 C -142.8 -31.5 -142.5 -33 -152.5 -37.6 C -147.5 -64.8 -127.3 -114.5 -116.8 -130.1 C -95.1 -126.9 -19 -70.7 .7 -57.2 C 6.6 -40.8 7.3 -26.6 0 0 " fill="#ffc19f"/>
<path transform="matrix(1,0,0,-1,792.6,1780.3)" d="M 0 0 C -2.2 6.3 -3.2 11.6 -5.8 15.9 C 20.9 9 109.2 11.4 110.3 .9 C 111.8 -13.3 53.7 -22 43.1 -21.2 C 29.2 -18.5 13.2 -8 0 0 " fill="#f29d77"/>
<path transform="matrix(1,0,0,-1,841.8,1793.5)" d="M 0 0 C 11.9 2.2 52.1 13.7 62.6 15.4 C 62.6 15.4 57.1 42.3 55.9 54.3 C 44.3 50.5 -.9 36.9 -11.5 35.5 C -18.7 34.6 -40.7 48.4 -54.6 50.9 C -62.2 52.2 -73.3 46.3 -67.3 38.8 C -61 31.1 -18.5 -3.4 0 0 " fill="#ffc19f"/>
<path transform="matrix(1,0,0,-1,908.1,1809.4)" d="M 0 0 C -9.3 -2.9 -32.8 -4.9 -43.4 -6.4 C -58.1 -8.5 -99.6 22.1 -99.8 2.5 C -99.9 -6.5 -63.5 -38.9 -45.5 -38.8 C -39.3 -38.8 -13.7 -34.8 10.7 -28.1 C 6.5 -19.2 3.8 -13.1 0 0 " fill="#ffc19f"/>
<path transform="matrix(1,0,0,-1,847.7,1836.1)" d="M 0 0 C -9.9 -.4 -39.1 25.4 -39.4 29.1 C -40.2 39.6 29.6 30.5 57.1 36 C 56.9 31.5 59.2 20.3 58.6 13.4 C 53 11.5 19.2 .9 0 0 " fill="#f29d77"/>
<path transform="matrix(1,0,0,-1,848.8,1831)" d="M 0 0 C 17.7 .6 50.7 9.7 68.6 15.1 C 63.5 25.9 58.6 36.1 55.5 49.2 C 39.9 43.8 2.3 33.2 -9 32.7 C -20 32.3 -48 50.4 -57.6 57.7 C -59.4 59.1 -60.6 49.3 -55.1 42.4 C -42.2 26.1 -13.8 -.4 0 0 " fill="#ffc19f"/>
<path transform="matrix(1,0,0,-1,1025.9,1688.9)" d="M 0 0 C -29 37.5 -63.5 52.9 -84.9 59.2 C -111.2 66.8 -122.6 68.1 -142.3 78.2 C -153 83.7 -153.9 63.2 -147.9 51.8 C -141.9 40.4 -128.9 32.9 -115.6 23.4 C -104.6 15.6 -99.9 14.4 -96.7 5.8 C -95 1.3 -99.2 -5.1 -105.8 -9.2 C -80.2 -29.7 .9 -5 0 0 " fill="#ffc19f"/>
<path transform="matrix(1,0,0,-1,1085.7,1808.7)" d="M 0 0 L -90.7 -19.6 L -139.5 197.1 L -48.8 216.8 Z " fill="#f96938"/>
</g>
</g>
</g>
</g>
</svg>
