<?xml version="1.0" encoding="UTF-8" standalone="no"?>
<!DOCTYPE svg PUBLIC "-//W3C//DTD SVG 1.1//EN" "http://www.w3.org/Graphics/SVG/1.1/DTD/svg11.dtd">
<svg xmlns="http://www.w3.org/2000/svg" xmlns:xlink="http://www.w3.org/1999/xlink" version="1.1" width="1340.34pt" height="1345.29pt" viewBox="0 0 1340.34 1345.29">
<g enable-background="new">
<g>
<g id="Layer-1" data-name="background">
<clipPath id="cp0">
<path transform="matrix(1,0,0,-1,0,1345.29)" d="M 0 1345.285 L 1340.34 1345.285 L 1340.34 0 L 0 0 Z "/>
</clipPath>
<g clip-path="url(#cp0)">
<path transform="matrix(1,0,0,-1,983.2137,892.1691)" d="M 0 0 C 68.068 178.871 50.26 255.255 -29.903 629.58 L -712.64 650.704 C -791.022 386.533 -819.144 178.907 -774.27 29.318 C -797.903 118.474 -769.181 425.428 -731.531 473.855 C -780.253 264.469 -780.849 14.359 -716.229 -25.132 C -754.464 45.752 -740.439 250.489 -730.75 275.166 C -731.128 204.64 -731.177 67.677 -696.484 -35.007 C -416.234 -102.858 -170.35 -80.715 -49.632 -33.545 C -34.109 -9.875 -39.25 143.284 -36.8 177.707 C -18.851 118.474 -21.486 29.177 -29.214 -31.184 C 18.666 29.109 18.517 215.526 -14.701 488.939 C 31.711 270.452 39.467 146.378 0 0 " fill="#ad5c49"/>
<path transform="matrix(1,0,0,-1,272.947,977.47708)" d="M 0 0 C 42.795 51.602 146.563 168.404 164.262 180.249 C 170.898 184.689 248.031 198.347 309.798 205.426 C 303.267 179.52 266.431 36.345 232.774 -26.482 C 199.745 -61.36 147.796 -95.432 130.005 -107.709 C 100.835 -90.207 25.285 -31.353 0 0 " fill="#fc4273"/>
<path transform="matrix(1,0,0,-1,1194.9525,612.33798)" d="M 0 0 C 2.188 5.886 -73.326 20.269 -76.493 14.846 C -123.792 -66.187 -251.359 -218.008 -268.45 -238.62 C -249.067 -251.738 -166.341 -252.648 -135.508 -237.612 C -94.715 -217.722 -39.032 -104.989 0 0 " fill="#ffc19f"/>
<path transform="matrix(1,0,0,-1,1006.4525,748.5388)" d="M 0 0 C 3.086 -39.439 10.584 -119.763 12.22 -160.701 C -17.586 -169.802 -149.553 -193.165 -155.149 -194.499 C -231.267 -176.147 -275.238 -66.561 -278.566 -64.503 C -232.556 -35.136 -206.828 -17.59 -191.324 -11.684 C -149.67 -7.369 -73.161 -4.823 0 0 " fill="#fc4273"/>
<path transform="matrix(1,0,0,-1,906.6244,1289.0762)" d="M 0 0 C -143.86 -41.884 -404.34 -60.155 -468.678 -41.723 C -464.677 99.538 -441.084 350.297 -435.331 501.062 C -302.877 522.685 -200.829 520.719 -63.056 529.691 C -60.494 445.455 -14.984 143.86 0 0 " fill="#fc4273"/>
<path transform="matrix(1,0,0,-1,861.3566,1301.5724)" d="M 0 0 C -43.927 -13.184 -306.135 -46.199 -359.459 -35.84 C -360.031 -35.729 -360.512 -35.369 -360.51 -34.786 C -360.425 -16.164 -359.206 245.299 -356.966 372.231 C -356.956 372.782 -356.528 373.227 -355.978 373.257 C -286.917 377.085 -92.015 381.334 -33.902 385.262 C -33.336 385.3 -32.846 384.888 -32.788 384.323 C -24.489 303.25 -21.057 190.36 -.457 -4.053 C -.403 -4.558 .487 .146 0 0 " fill="#224966"/>
<path transform="matrix(1,0,0,-1,537.1703,938.9929)" d="M 0 0 L 14.194 .56 L 12.872 34.076 C 12.804 35.813 14.198 37.32 15.934 37.388 L 25.326 37.755 L 24.713 53.314 L -17.074 51.671 L -16.462 36.111 L -4.629 36.578 C -2.893 36.647 -1.386 35.253 -1.318 33.516 Z M 17.63 -5.685 L -2.933 -6.495 C -4.674 -6.563 -6.176 -5.173 -6.245 -3.437 L -7.566 30.08 L -19.399 29.612 C -21.136 29.544 -22.642 30.938 -22.711 32.674 L -23.573 54.604 C -23.642 56.34 -22.252 57.847 -20.511 57.915 L 27.65 59.813 C 29.387 59.878 30.894 58.488 30.962 56.751 L 31.824 34.822 C 31.893 33.081 30.503 31.579 28.762 31.51 L 19.371 31.139 L 20.692 -2.377 C 20.757 -4.113 19.367 -5.62 17.63 -5.685 " fill="#baebf4"/>
<path transform="matrix(1,0,0,-1,530.6233,943.26766)" d="M 0 0 C 1.608 -8.018 9.404 -13.219 17.413 -11.615 C 25.418 -10.012 30.608 -2.208 28.996 5.814 C 27.388 13.831 19.593 19.033 11.583 17.429 C 3.578 15.826 -1.612 8.021 0 0 " fill="#f0fcff"/>
<path transform="matrix(1,0,0,-1,793.4647,928.87649)" d="M 0 0 L 14.186 .693 L 12.554 34.193 C 12.465 35.93 13.843 37.449 15.58 37.533 L 24.971 37.993 L 24.21 53.544 L -17.562 51.505 L -16.805 35.954 L -4.976 36.53 C -3.235 36.615 -1.72 35.237 -1.636 33.5 Z M 17.683 -5.524 L -2.873 -6.527 C -4.609 -6.611 -6.128 -5.234 -6.213 -3.497 L -7.848 30.007 L -19.677 29.427 C -21.414 29.342 -22.932 30.72 -23.017 32.457 L -24.089 54.378 C -24.173 56.115 -22.796 57.633 -21.059 57.718 L 27.086 60.067 C 28.823 60.152 30.342 58.774 30.426 57.037 L 31.494 35.116 C 31.578 33.379 30.201 31.865 28.464 31.776 L 19.077 31.321 L 20.713 -2.18 C 20.797 -3.92 19.419 -5.435 17.683 -5.524 " fill="#baebf4"/>
<path transform="matrix(1,0,0,-1,779.0815,879.21218)" d="M 0 0 C -.443 3.533 .709 84.103 -9.117 117.422 L 28.416 118.905 C 43.73 68.951 36.901 5.572 37.368 1.825 Z " fill="#224966"/>
<path transform="matrix(1,0,0,-1,522.1143,890.38027)" d="M 0 0 C -.459 3.896 -2.973 78.35 -8.171 112.285 L 27.457 116.443 C 35.221 71.408 36.88 5.975 37.368 1.841 Z " fill="#224966"/>
<path transform="matrix(1,0,0,-1,786.9579,933.2114)" d="M 0 0 C 1.684 -8.005 9.528 -13.134 17.522 -11.454 C 25.515 -9.774 30.628 -1.922 28.94 6.084 C 27.256 14.089 19.411 19.214 11.418 17.534 C 3.429 15.854 -1.684 8.001 0 0 " fill="#f0fcff"/>
<g opacity=".210007">
<clipPath id="cp1">
<path transform="matrix(1,0,0,-1,0,1345.29)" d="M 614.831 235.464 L 757.845 235.464 L 757.845 365.774 L 614.831 365.774 Z "/>
</clipPath>
<g clip-path="url(#cp1)">
<path transform="matrix(1,0,0,-1,617.4581,1094.3152)" d="M 0 0 L 71.997 -15.511 L 140.387 9.625 L 135.121 114.799 L -2.627 114.799 Z "/>
</g>
</g>
<path transform="matrix(1,0,0,-1,622.9657,1087.063)" d="M 0 0 L 66.888 -16.518 L 132.365 7.208 L 127.942 105.879 L -2.333 101.331 Z " fill="#306484"/>
<path transform="matrix(1,0,0,-1,558.7813,788.6666)" d="M 0 0 C -.06 3.211 -.395 9.009 .649 15.664 C 30.152 18.726 64.47 21.663 100.872 23.468 C 144.702 25.636 178.122 25.97 211.082 24.097 C 211.686 22.159 212.4 20.269 212.637 18.207 C 218.826 -35.555 179.109 -72.331 113.756 -74.12 C 54.845 -75.731 1.108 -57.142 0 0 " fill="#ffc19f"/>
<path transform="matrix(1,0,0,-1,579.9128,657.9652)" d="M 0 0 L 1.507 -131.85 C 1.829 -160.197 38.125 -182.779 82.572 -182.271 C 127.023 -181.764 162.796 -158.36 162.469 -130.013 L 160.967 1.837 Z " fill="#ffc19f"/>
<g opacity=".190002">
<clipPath id="cp2">
<path transform="matrix(1,0,0,-1,0,1345.29)" d="M 549.013 547.385 L 775.071 547.385 L 775.071 712.836 L 549.013 712.836 Z "/>
</clipPath>
<g clip-path="url(#cp2)">
<path transform="matrix(1,0,0,-1,771.1889,762.01968)" d="M 0 0 C -16.156 -37.654 -78.124 -47.207 -138.405 -21.337 C -198.685 4.533 -234.454 56.026 -218.294 93.68 C -202.138 131.334 -140.169 140.887 -79.889 115.017 C -19.609 89.147 16.16 37.654 0 0 " fill="#960c0c"/>
</g>
</g>
<path transform="matrix(1,0,0,-1,554.2528,1165.3325)" d="M 0 0 C 6.261 -.447 -1.148 76.066 -7.244 77.58 C -98.301 100.211 -227.548 149.561 -268.816 173.368 C -279.71 146.072 -289.206 88.66 -266.117 63.294 C -235.566 29.733 -111.729 7.965 0 0 " fill="#ffc19f"/>
<path transform="matrix(1,0,0,-1,543.1532,1083.2881)" d="M 0 0 C 12.578 2.836 105.585 15.479 120.218 10.975 C 131.125 7.619 155.902 -7.88 170.519 -18.976 C 179.838 -26.051 172.433 -35.378 156.285 -32.856 C 145.415 -31.16 115.702 -15.306 106.838 -13.811 C 98.357 -12.381 32.977 -8.767 26.103 -12.357 C 23.291 -5.769 -2.591 -12.03 0 0 " fill="#ffc19f"/>
<g opacity=".139999">
<clipPath id="cp3">
<path transform="matrix(1,0,0,-1,0,1345.29)" d="M 614.049 229.259 L 697.782 229.259 L 697.782 260.807 L 614.049 260.807 Z "/>
</clipPath>
<g clip-path="url(#cp3)">
<path transform="matrix(1,0,0,-1,615.2543,1084.5409)" d="M 0 0 C 11.66 .81 55.063 -7.127 60.45 -10.596 C 65.353 -13.751 76.142 -24.387 82.528 -31.49 C 73.374 -28.231 44.262 -17.461 36.675 -13.916 C 31.587 -11.539 -8.614 -.596 0 0 " fill="#991d05"/>
</g>
</g>
<path transform="matrix(1,0,0,-1,514.7736,1084.4363)" d="M 0 0 C -18.021 -3.727 -25.277 -37.735 -5.693 -72.162 C 17.55 -97.443 42.07 -99.183 56.32 -100.005 C 89.135 -101.891 105.706 -105.146 120.589 -108.889 C 132.732 -117.914 137.978 -123.53 146.873 -126.644 C 154.794 -129.42 163.674 -123.683 158.469 -116.79 C 152.272 -108.587 139.513 -92.741 133.373 -88.583 C 126.814 -84.144 115.142 -79.196 97.467 -70.655 C 96.738 -68.278 132.744 -78.793 137.736 -82.314 C 143.562 -86.424 163.581 -106.806 171.74 -111.085 C 177.469 -114.09 186.276 -111.617 187.795 -105.054 C 185.289 -92.814 156.958 -58.999 146.366 -52.799 C 136.378 -46.957 110.489 -39.793 98.64 -35.692 C 110.613 -36.566 134.408 -40.934 146.33 -45.14 C 157.578 -51.461 173.791 -68.092 187.964 -71.678 C 198.822 -74.426 207.234 -66.146 204.793 -62.565 C 200.148 -55.752 177.892 -31.014 160.378 -16.962 C 152.647 -10.761 107.314 -1.048 93.906 .443 C 80.232 1.966 62.476 7.985 0 0 " fill="#ffc19f"/>
<path transform="matrix(1,0,0,-1,979.1042,530.39419)" d="M 0 0 C -10.391 -50.204 -46.405 -78.197 -72.967 -69.986 C -99.526 -61.775 -103.893 -19.033 -98.325 29.87 C -92.749 78.769 -66.686 111.883 -40.14 103.547 C -3.856 92.149 9.766 47.187 0 0 " fill="#f7a981"/>
<path transform="matrix(1,0,0,-1,257.6694,278.745)" d="M 0 0 C 14.395 -282.841 209.289 -414.824 408.349 -392.959 C 607.413 -371.098 733.38 -182.779 686.778 55.607 C 660.905 187.964 553.812 284.001 344.157 266.89 C 192.275 254.493 35.889 179.516 0 0 " fill="#ad5c49"/>
<path transform="matrix(1,0,0,-1,351.2204,254.22913)" d="M 0 0 C -13.706 -42.13 52.904 -395.674 99.224 -440.524 C 148.36 -488.101 336.486 -511.586 373.527 -507.516 C 413.204 -503.157 539.687 -440.657 566.923 -379.446 C 599.138 -307.006 579.88 -.185 563.099 35.91 C 506.38 157.824 395.767 149.992 251.702 134.166 C 116.927 119.364 35.563 109.308 0 0 " fill="#ffc19f"/>
<path transform="matrix(1,0,0,-1,463.3367,583.4426)" d="M 0 0 C 1.039 -14.504 22.038 -24.818 46.904 -23.037 C 71.759 -21.256 91.081 -8.058 90.042 6.446 C 89.002 20.95 68 31.264 43.141 29.484 C 18.275 27.703 -1.035 14.504 0 0 " fill="#ff8a8a"/>
<path transform="matrix(1,0,0,-1,588.994,595.908)" d="M 0 0 C 1.865 25.664 46.655 24.395 105.215 30.898 C 108.277 31.24 120.202 32.473 123.272 32.771 C 181.921 38.424 215.594 48.331 221.009 23.174 C 230.799 -22.288 186.792 -82.605 127.293 -88.97 L 126.262 -89.079 C 62.255 -95.775 -3.586 -49.439 0 0 " fill="#701608"/>
<path transform="matrix(1,0,0,-1,649.9754,674.40719)" d="M 0 0 C 14.605 16.805 35.68 27.638 58.971 30.056 C 81.956 32.441 104.187 26.494 121.765 13.457 C 111.778 5.177 100.328 -1.801 87.758 -6.112 C 80.957 -8.445 73.709 -10.117 66.352 -10.906 L 65.325 -11.011 C 49.463 -12.671 33.492 -11.011 18.485 -6.857 L 17.336 -6.503 C 11.333 -4.782 5.608 -2.474 0 0 " fill="#dd6b5b"/>
<path transform="matrix(1,0,0,-1,706.6097,596.66549)" d="M 0 0 C 40.95 4.246 73.62 21.482 76.001 40.116 L 76.134 41.256 C 76.134 41.256 27.513 36.933 5.516 34.834 C -17.55 32.634 -82.983 24.749 -82.983 24.749 L -82.621 23.666 C -76.432 5.918 -40.918 -4.247 0 0 " fill="#ffffff"/>
<path transform="matrix(1,0,0,-1,849.1158,544.9384)" d="M 0 0 C 2.196 -12.743 19.46 -20.406 38.565 -17.115 C 57.662 -13.827 71.372 -.834 69.18 11.909 C 66.984 24.653 49.717 32.316 30.62 29.028 C 11.515 25.741 -2.192 12.743 0 0 " fill="#ff8a8a"/>
<path transform="matrix(1,0,0,-1,682.2509,535.2811)" d="M 0 0 C 1.591 .161 2.877 1.446 2.985 3.094 C 3.739 14.786 12.087 23.13 24.254 24.347 C 36.486 25.571 46.546 18.92 49.29 7.8 C 49.733 6.023 51.546 4.927 53.314 5.37 C 55.099 5.81 56.187 7.611 55.748 9.395 C 52.235 23.638 39.008 32.505 23.589 30.966 C 8.259 29.431 -2.691 18.404 -3.654 3.525 C -3.771 1.692 -2.381 .113 -.552 -.008 Z " fill="#c4735b"/>
<path transform="matrix(1,0,0,-1,287.9104,591.62539)" d="M 0 0 C 29.773 -56.227 95.976 -76.634 135.48 -62.319 C 166.228 -51.175 160.016 2.925 141.366 52.15 C 121.282 105.162 85.441 131.318 43.093 124.65 C -13.743 115.702 -26.498 50.043 0 0 " fill="#ffc19f"/>
<path transform="matrix(1,0,0,-1,341.4624,577.85458)" d="M 0 0 C 8.59 -25.882 44.934 -43.307 66.852 -30.112 C 74.229 -25.668 40.329 57.851 27.924 56.26 C -.278 52.642 -8.59 25.886 0 0 " fill="#e0956c"/>
<path transform="matrix(1,0,0,-1,311.3183,264.74867)" d="M 0 0 C 28.525 61.517 53.77 132.535 118.828 170.769 C 297.836 275.959 442.748 234.127 498.121 209.454 C 576.717 174.427 641.304 107.503 662.867 -19.161 C 676.162 -97.282 680.699 -118.804 720.968 -133.058 C 666.283 -153.541 659.261 -131.995 648.75 -108.603 C 652.919 -180.18 664.651 -178.657 690.892 -185.918 C 640.236 -203.588 627.469 -175.12 619.564 -126.491 C 606.353 -45.204 599.291 2.337 589.472 22.473 C 583.787 34.125 534.574 100.38 516.461 99.574 C 476.989 97.814 449.698 -16.559 310.1 -24.629 C 375.981 6.378 406.298 54.543 425.23 121.802 C 414.787 114.409 391.5 76.473 381.363 65.949 C 274.618 -44.87 162.224 -43.162 70.619 -63.234 C 94.357 -166.599 94.393 -282.748 16.736 -277.506 C 26.957 -262.588 42.839 -237.512 8.924 -185.289 C 4.565 -152.441 2.776 -69.019 0 0 " fill="#ad5c49"/>
<path transform="matrix(1,0,0,-1,428.6317,354.51643)" d="M 0 0 C 2.208 .411 4.271 1.603 5.737 3.513 C 24.516 27.815 66.243 41.373 102.886 34.983 C 107.97 34.072 112.87 37.501 113.784 42.65 C 114.679 47.771 111.25 52.646 106.117 53.548 C 62.4 61.142 13.892 44.938 -9.178 15.008 C -12.353 10.886 -11.591 4.976 -7.47 1.801 C -5.266 .093 -2.542 -.475 0 0 " fill="#752912"/>
<path transform="matrix(1,0,0,-1,892.2573,302.84596)" d="M 0 0 C 2.494 .04 4.96 1.092 6.712 3.13 C 10 6.914 9.593 12.639 5.81 15.926 C -21.708 39.794 -70.59 45.837 -110.416 30.346 C -115.09 28.513 -117.398 23.255 -115.577 18.594 C -113.748 13.904 -108.478 11.599 -103.825 13.428 C -70.449 26.458 -28.428 21.647 -6.084 2.228 C -4.335 .705 -2.164 -.032 0 0 " fill="#752912"/>
<path transform="matrix(1,0,0,-1,771.5757,507.49385)" d="M 0 0 C 0 0 88.12 -22.473 114.03 33.835 C 145.604 102.455 79.672 146.426 41.973 132.152 C 7.087 118.941 -21.212 78.281 0 0 " fill="#f9feff"/>
<path transform="matrix(1,0,0,-1,882.2697,390.9901)" d="M 0 0 C -18.38 21.567 -40.261 26.542 -62.734 21.277 C -85.707 15.894 -106.987 -6.366 -111.266 -27.34 C -101.432 -3.151 -80.812 7.619 -67.77 12.55 C -47.005 20.443 -17.578 12.191 -2.236 -9.351 C 11.41 -28.517 14.073 -59.265 2.482 -84.446 C 17.566 -66.521 19.153 -22.473 0 0 " fill="#773220"/>
<path transform="matrix(1,0,0,-1,785.6526,435.66658)" d="M 0 0 C -5.016 -23.948 7.562 -49.036 28.098 -56.038 C 48.637 -63.036 69.349 -49.298 74.369 -25.346 C 79.385 -1.398 66.807 23.69 46.272 30.688 C 25.733 37.686 5.02 23.948 0 0 " fill="#63190d"/>
<path transform="matrix(1,0,0,-1,787.8766,428.17286)" d="M 0 0 C -1.394 -6.644 2.099 -13.606 7.796 -15.547 C 13.493 -17.49 19.242 -13.674 20.632 -7.03 C 22.026 -.387 18.533 6.575 12.836 8.517 C 7.139 10.459 1.39 6.644 0 0 " fill="#fefffe"/>
<path transform="matrix(1,0,0,-1,620.3872,521.0712)" d="M 0 0 C 0 0 -96.416 -43.524 -140.637 4.786 C -194.523 63.657 -129.235 122.603 -81.964 118.023 C -38.218 113.78 4.823 81.255 0 0 " fill="#f9feff"/>
<path transform="matrix(1,0,0,-1,462.7606,435.16706)" d="M 0 0 C 15.854 25.471 39.946 35.692 67.307 36.111 C 95.275 36.538 125.545 20.157 135.794 .838 C 118.297 21.913 91.698 27.292 75.344 28.875 C 49.298 31.425 17.292 16.164 4.951 -8.533 C -6.019 -30.511 -1.35 -61.03 18.428 -82.637 C -3.566 -68.938 -16.523 -26.546 0 0 " fill="#773220"/>
<path transform="matrix(1,0,0,-1,490.6163,462.54347)" d="M 0 0 C -6.523 -24.149 7.764 -49.012 31.909 -55.534 C 56.058 -62.057 80.92 -47.771 87.443 -23.621 C 93.966 .524 79.68 25.386 55.53 31.909 C 31.385 38.432 6.523 24.145 0 0 " fill="#63190d"/>
<path transform="matrix(1,0,0,-1,493.4285,454.96907)" d="M 0 0 C -1.809 -6.7 2.155 -13.598 8.855 -15.411 C 15.556 -17.22 22.453 -13.255 24.262 -6.555 C 26.071 .145 22.107 7.042 15.41 8.852 C 8.71 10.66 1.813 6.696 0 0 " fill="#fefffe"/>
<path transform="matrix(1,0,0,-1,296.0245,381.3167)" d="M 0 0 C 3.207 200.595 116.33 317.651 303.98 354.813 C 452.151 384.156 565.823 316.74 601.16 265.408 C 556.399 292.857 481.107 347.541 316.192 321.615 C 209.519 304.847 28.641 216.694 0 0 " fill="#f49000"/>
<path transform="matrix(1,0,0,-1,1219.9962,532.29177)" d="M 0 0 C -22.655 -31.973 -52.186 -63.548 -63.451 -64.825 C -83.144 -67.061 -95.199 -79.41 -93.188 -37.275 C -92.842 -30.084 -70.445 3.046 -77.085 52.642 C -74.16 53.431 -71.243 54.245 -68.141 54.6 C -34.632 58.403 -4.38 34.004 0 0 " fill="#f29d77"/>
<path transform="matrix(1,0,0,-1,1187.4426,629.82339)" d="M 0 0 C 12.103 21.132 28.166 55.53 35.922 69.676 C 35.39 77.754 2.937 89.671 -9.375 93.458 C -30.958 76.714 -62.283 75.461 -69.938 50.704 C -78.273 23.754 -41.598 -6.889 0 0 " fill="#ffc19f"/>
<path transform="matrix(1,0,0,-1,1240.044,508.7105)" d="M 0 0 C -9.851 -11.784 -28.154 16.14 -33.919 38.71 C -40.801 65.647 -48.343 94.506 -56.497 100.622 C -77.846 116.645 -69.14 167.082 -61.686 164.5 C -53.069 161.515 -45.708 143.244 -35.462 128.558 C -21.982 109.244 8.179 55.252 12.3 32.646 C 12.977 28.923 10.552 12.627 0 0 " fill="#ffc19f"/>
<path transform="matrix(1,0,0,-1,1194.191,423.49537)" d="M 0 0 C 13.493 -7.611 27.763 -15.608 34.471 -21.188 C 36.409 -22.799 35.237 -28.085 31.305 -27.034 C 22.981 -24.798 10.955 -22.05 .169 -15.801 C -3.783 -8.114 -7.913 -1.74 -11.595 2.623 C -9.315 3.312 -5.794 3.267 0 0 " fill="#f29d77"/>
<path transform="matrix(1,0,0,-1,1187.5997,193.0221)" d="M 0 0 C -9.472 .379 -17.365 -2.45 -17.614 -6.289 L -17.566 -7.067 L -19.367 -34.487 L 14.959 -35.853 L 16.813 -7.631 C 16.913 -3.836 9.383 -.371 0 0 " fill="#ff8b78"/>
<path transform="matrix(1,0,0,-1,1167.9387,225.06397)" d="M 0 0 L 35.72 -1.535 L 36.292 10.157 L .576 11.688 Z " fill="#d8d7d6"/>
<path transform="matrix(1,0,0,-1,1166.299,581.10598)" d="M 0 0 L 14.689 27.102 L 15.842 44.942 L -18.307 49.032 L -19.637 28.468 L -8.719 .842 C -5.882 .564 -2.909 .423 0 0 " fill="#f9e098"/>
<path transform="matrix(1,0,0,-1,1169.1273,575.8884)" d="M 0 0 L -13.489 .536 C -13.489 .536 -10.858 -10.705 -7.397 -10.898 C -3.884 -11.092 0 0 0 0 "/>
<path transform="matrix(1,0,0,-1,1168.5512,224.88672)" d="M 0 0 L -21.889 -327.751 L -12.691 -318.565 L -4.726 -328.432 L 4.472 -319.25 L 12.437 -329.117 L 34.326 -1.366 Z " fill="#1aa7d3"/>
<path transform="matrix(1,0,0,-1,1168.5512,224.88672)" d="M 0 0 L -21.889 -327.751 L -12.691 -318.565 L 8.582 -.342 Z " fill="#098ab2"/>
<path transform="matrix(1,0,0,-1,1173.0232,544.13668)" d="M 0 0 L 7.965 -9.867 L 29.854 317.884 L 21.269 318.223 Z " fill="#52bcdd"/>
<path transform="matrix(1,0,0,-1,1146.3479,521.5305)" d="M 0 0 C 1.213 1.269 15.781 12.429 20.036 10.37 C 26.309 7.333 30.193 3.098 38.738 -5.06 C 37.767 -9.363 37.658 -12.115 35.857 -16.337 C 43.73 -22.397 76.485 -30.539 77.016 -38.617 C 93.805 .923 102.842 26.792 107.165 38.134 C 114.538 57.504 49.85 93.994 45.087 95.739 C 31.828 100.585 22.969 93.942 -15.882 67.831 C -19.54 62.819 -25.93 51.175 -18.11 48.79 C -27.546 36.373 -24.886 28.347 -15.181 23.597 C -28.863 14.363 -25.354 1.072 -18.605 -8.005 C -13.763 -14.52 -2.554 -18.303 .455 -17.413 C .133 -9.826 -.56 -3.811 0 0 " fill="#ffc19f"/>
<path transform="matrix(1,0,0,-1,1187.0922,449.30445)" d="M 0 0 C 6.035 -3.485 17.268 -9.972 27.505 -17.131 C 28.19 -17.618 28.367 -18.549 27.88 -19.226 C 27.401 -19.899 26.47 -20.064 25.797 -19.597 C 15.656 -12.502 4.496 -6.064 -1.503 -2.591 C -3.533 -1.422 -5.024 -.568 -5.745 -.105 C -8.356 1.857 -40.378 -10.072 -62.428 -29.391 C -62.182 -28.271 -60.01 -24.794 -59.217 -23.714 C -40.382 -8.4 -9.343 5.745 -4.142 2.433 C -3.433 1.982 -1.986 1.148 0 0 " fill="#f29d77"/>
<path transform="matrix(1,0,0,-1,1178.1238,478.46565)" d="M 0 0 C 6.064 -3.497 17.348 -10 27.695 -17.232 C 28.376 -17.719 28.549 -18.642 28.061 -19.331 C 27.582 -20.003 26.651 -20.169 25.97 -19.701 C 15.737 -12.53 4.52 -6.063 -1.495 -2.599 C -3.445 -1.475 -4.863 -.653 -5.576 -.201 C -9.226 2.127 -50.611 -23.593 -51.026 -23.408 C -50.152 -22.308 -50.007 -21.768 -48.935 -20.555 C -32.271 -10.205 -8.227 5.524 -3.964 2.329 C -3.312 1.841 -1.89 1.1 0 0 " fill="#f29d77"/>
</g>
</g>
</g>
</g>
</svg>
