<?xml version="1.0" encoding="UTF-8" standalone="no"?>
<!DOCTYPE svg PUBLIC "-//W3C//DTD SVG 1.1//EN" "http://www.w3.org/Graphics/SVG/1.1/DTD/svg11.dtd">
<svg xmlns="http://www.w3.org/2000/svg" xmlns:xlink="http://www.w3.org/1999/xlink" version="1.1" width="915.269pt" height="1544.72pt" viewBox="0 0 915.269 1544.72">
<g enable-background="new">
<g>
<g id="Layer-1" data-name="Layer 1">
<clipPath id="cp0">
<path transform="matrix(1,0,0,-1,0,1544.72)" d="M 0 1544.721 L 915.269 1544.721 L 915.269 0 L 0 0 Z "/>
</clipPath>
<g clip-path="url(#cp0)">
<path transform="matrix(1,0,0,-1,744.1364,689.4892)" d="M 0 0 C -.698 7.385 -13.89 12.444 -31.446 12.889 C -26.93 20.676 -24.293 29.995 -24.298 40.017 C -24.309 67.276 -43.78 89.366 -67.789 89.356 C -88.449 89.348 -105.72 72.976 -110.137 51.043 C -112.559 55.7 -116.874 59.345 -122.367 60.717 C -132.538 63.255 -142.839 57.066 -145.377 46.895 C -146.924 40.697 -145.215 34.456 -141.35 29.946 C -142.834 30.497 -144.379 30.98 -145.978 31.38 C -161.791 35.324 -176.76 29.901 -179.415 19.265 C -182.07 8.629 -171.403 -3.193 -155.59 -7.14 C -148.191 -8.984 -140.981 -8.781 -135.128 -6.951 C -139.805 -11.791 -141.974 -16.986 -140.592 -21.547 C -137.634 -31.305 -119.545 -34.459 -100.185 -28.592 C -90.806 -25.751 -82.859 -21.311 -77.486 -16.383 C -69.448 -20.151 -56.031 -21.881 -41.091 -20.472 C -17.54 -18.251 .854 -9.086 0 0 " fill="#ffffff"/>
<path transform="matrix(1,0,0,-1,724.0547,511.18116)" d="M 0 0 C 4.75 -.012 9.339 -.243 13.676 -.662 C 12.12 3.953 11.275 8.895 11.274 14.033 C 11.262 39.56 32.04 60.263 57.674 60.273 C 83.315 60.283 104.105 39.597 104.115 14.07 C 104.117 12.132 103.996 10.222 103.765 8.348 C 104.268 8.41 104.779 8.445 105.299 8.445 C 110.012 8.447 114.113 5.831 116.212 1.978 C 119.366 7.49 126.153 10.541 133.129 9.049 C 141.675 7.221 147.268 -.728 145.622 -8.703 C 145.404 -9.758 145.067 -10.759 144.633 -11.699 C 167.089 -13.178 183.274 -17.239 183.26 -21.972 C 183.245 -27.892 157.913 -32.624 126.676 -32.538 C 125.199 -32.535 123.737 -32.52 122.29 -32.495 C 115.406 -40.883 98.405 -46.786 78.531 -46.731 C 72.346 -46.716 66.441 -46.121 61.036 -45.059 C 55.632 -50.468 46.81 -53.982 36.844 -53.954 C 20.438 -53.912 7.158 -44.293 7.191 -32.475 C 7.191 -31.978 7.225 -31.487 7.273 -30.997 C 4.874 -31.108 2.419 -31.162 -.081 -31.155 C -26.92 -31.085 -48.669 -24.049 -48.644 -15.448 C -48.624 -6.844 -26.841 .072 0 0 " fill="#ffffff"/>
<path transform="matrix(1,0,0,-1,808.6832,259.0619)" d="M 0 0 C .024 -58.274 -47.198 -105.532 -105.472 -105.556 C -163.746 -105.579 -211.004 -58.357 -211.028 -.084 C -211.051 58.19 -163.829 105.451 -105.556 105.472 C -47.282 105.496 -.023 58.274 0 0 " fill="#fcb42b"/>
<path transform="matrix(1,0,0,-1,703.1274,153.58972)" d="M 0 0 C -40.642 -.016 -75.495 -23.258 -93.109 -56.938 C -94.413 -63.579 -95.168 -70.42 -95.168 -77.445 C -95.142 -135.718 -47.883 -182.94 10.39 -182.917 C 51.032 -182.899 85.886 -159.656 103.497 -125.979 C 104.803 -119.338 105.558 -112.497 105.556 -105.472 C 105.532 -47.199 58.271 .023 0 0 " fill="#fbcc29"/>
<path transform="matrix(1,0,0,-1,569.7245,282.59718)" d="M 0 0 C 3.18 0 6.105 -2.099 7.006 -5.31 C 8.091 -9.18 5.838 -13.197 1.968 -14.284 C -10.921 -17.904 -19.127 -18.617 -30.487 -19.597 L -37.412 -20.216 C -41.387 -20.687 -44.962 -17.658 -45.338 -13.654 C -45.712 -9.651 -42.777 -6.105 -38.773 -5.731 L -31.744 -5.101 C -20.781 -4.15 -13.542 -3.523 -1.97 -.272 C -1.312 -.086 -.648 -.003 0 0 " fill="#fcb42b"/>
<path transform="matrix(1,0,0,-1,603.2085,335.39857)" d="M 0 0 C 2.234 0 4.443 -1.027 5.869 -2.969 C 8.25 -6.209 7.555 -10.767 4.315 -13.14 C -9.452 -23.25 -20.161 -29.206 -28.438 -31.354 C -32.345 -32.342 -36.304 -30.021 -37.307 -26.138 C -38.319 -22.25 -35.98 -18.277 -32.091 -17.266 C -27.719 -16.134 -19.344 -12.458 -4.301 -1.414 C -3.005 -.46 -1.497 0 0 0 " fill="#fcb42b"/>
<path transform="matrix(1,0,0,-1,761.7591,364.5288)" d="M 0 0 C 2.971 0 5.757 -1.827 6.839 -4.777 C 11.099 -16.422 19.673 -28.485 23.162 -33.131 C 25.574 -36.346 24.923 -40.908 21.711 -43.32 C 18.492 -45.725 13.934 -45.071 11.519 -41.87 C 7.644 -36.704 -1.903 -23.237 -6.831 -9.776 C -8.211 -6 -6.269 -1.821 -2.496 -.442 C -1.67 -.144 -.828 0 0 0 " fill="#fcb42b"/>
<path transform="matrix(1,0,0,-1,703.7677,384.4159)" d="M 0 0 C 4.001 .016 7.288 -3.225 7.32 -7.223 L 7.32 -10.477 C 7.435 -23.632 7.5 -30.238 4.963 -44.75 C 4.267 -48.709 .502 -51.359 -3.457 -50.664 C -7.419 -49.974 -10.064 -46.206 -9.374 -42.244 C -7.064 -29.034 -7.124 -23.256 -7.234 -10.602 L -7.234 -7.333 C -7.265 -3.311 -4.017 -.016 0 0 " fill="#fcb42b"/>
<path transform="matrix(1,0,0,-1,646.9653,373.83729)" d="M 0 0 C 1.184 .003 2.381 -.287 3.491 -.894 C 7.017 -2.82 8.31 -7.244 6.379 -10.769 C .789 -20.985 -5.773 -30.766 -13.132 -39.847 C -15.651 -42.975 -20.245 -43.454 -23.365 -40.921 C -26.488 -38.392 -26.969 -33.811 -24.439 -30.688 C -17.629 -22.281 -11.556 -13.231 -6.387 -3.781 C -5.065 -1.364 -2.574 0 0 0 " fill="#fcb42b"/>
<path transform="matrix(1,0,0,-1,532.2004,217.8269)" d="M 0 0 C .758 0 1.531 -.118 2.289 -.369 L 3.815 -.875 C 16.422 -5.049 16.665 -5.125 30.523 -7.066 C 34.503 -7.626 37.281 -11.3 36.722 -15.28 C 36.165 -19.26 32.467 -22.033 28.511 -21.479 C 13.343 -19.359 12.277 -19.009 -.76 -14.692 L -2.281 -14.185 C -6.097 -12.923 -8.169 -8.807 -6.904 -4.991 C -5.896 -1.936 -3.05 -.003 0 0 " fill="#fcb42b"/>
<path transform="matrix(1,0,0,-1,830.1722,296.573)" d="M 0 0 C -2.838 1.429 -4.505 4.618 -3.868 7.892 C -3.097 11.838 .724 14.412 4.667 13.641 C 17.81 11.078 25.459 8.025 36.045 3.792 L 42.51 1.228 C 46.271 -.138 48.1 -4.453 46.634 -8.198 C 45.171 -11.94 40.953 -13.788 37.208 -12.322 L 30.649 -9.721 C 20.428 -5.64 13.68 -2.945 1.884 -.643 C 1.213 -.512 .58 -.29 0 0 " fill="#fcb42b"/>
<path transform="matrix(1,0,0,-1,802.184,184.90735)" d="M 0 0 C -2.237 0 -4.445 1.027 -5.872 2.969 C -8.253 6.207 -7.558 10.764 -4.317 13.14 C 9.45 23.25 20.159 29.206 28.435 31.354 C 32.345 32.342 36.301 30.021 37.307 26.138 C 38.316 22.249 35.977 18.277 32.089 17.266 C 27.716 16.132 19.341 12.458 4.299 1.414 C 3.003 .46 1.495 0 0 0 " fill="#fcb42b"/>
<path transform="matrix(1,0,0,-1,589.9854,187.70105)" d="M 0 0 C -1.119 0 -2.255 .254 -3.322 .805 L -8.245 3.345 C -18.029 8.415 -22.498 10.73 -34.495 14.36 C -38.342 15.523 -40.519 19.584 -39.353 23.431 C -38.185 27.283 -34.088 29.433 -30.283 28.289 C -16.994 24.272 -11.512 21.429 -1.55 16.268 L 3.324 13.749 C 6.899 11.917 8.31 7.532 6.476 3.954 C 5.187 1.443 2.639 0 0 0 " fill="#fcb42b"/>
<path transform="matrix(1,0,0,-1,643.6308,155.7771)" d="M 0 0 C -2.971 -.003 -5.757 1.827 -6.839 4.777 C -11.099 16.419 -19.673 28.482 -23.162 33.129 C -25.574 36.345 -24.923 40.908 -21.711 43.32 C -18.492 45.725 -13.934 45.071 -11.519 41.87 C -7.644 36.703 1.905 23.237 6.831 9.776 C 8.211 6 6.272 1.821 2.496 .442 C 1.672 .141 .828 0 0 0 " fill="#fcb42b"/>
<path transform="matrix(1,0,0,-1,701.6222,135.89002)" d="M 0 0 C -3.998 -.016 -7.288 3.222 -7.32 7.221 L -7.32 10.477 C -7.432 23.632 -7.5 30.236 -4.963 44.75 C -4.268 48.709 -.502 51.359 3.46 50.664 C 7.419 49.974 10.064 46.205 9.374 42.244 C 7.064 29.034 7.126 23.256 7.234 10.599 L 7.234 7.333 C 7.265 3.308 4.017 .016 0 0 " fill="#fcb42b"/>
<path transform="matrix(1,0,0,-1,758.4271,146.47119)" d="M 0 0 C -1.186 0 -2.383 .29 -3.494 .894 C -7.019 2.822 -8.313 7.247 -6.382 10.772 C -.792 20.987 5.77 30.769 13.129 39.85 C 15.648 42.975 20.245 43.456 23.363 40.924 C 26.486 38.394 26.966 33.813 24.437 30.69 C 17.629 22.283 11.553 13.234 6.384 3.784 C 5.062 1.367 2.572 .003 0 0 " fill="#fcb42b"/>
<path transform="matrix(1,0,0,-1,839.9119,363.7213)" d="M 0 0 C -1.375 0 -2.757 .381 -3.99 1.192 L -9.013 4.516 C -16.767 9.664 -18.162 10.592 -29.423 15.348 C -33.123 16.913 -34.853 21.181 -33.291 24.886 C -31.725 28.579 -27.46 30.301 -23.752 28.757 C -11.663 23.645 -9.447 22.273 -.964 16.639 L 3.993 13.362 C 7.354 11.159 8.292 6.646 6.086 3.285 C 4.688 1.158 2.368 0 0 0 " fill="#fcb42b"/>
<path transform="matrix(1,0,0,-1,873.7644,237.23584)" d="M 0 0 C -.713 -.264 -1.477 -.418 -2.276 -.447 L -3.883 -.499 C -17.156 -.941 -17.41 -.954 -31.082 -3.922 C -35.01 -4.774 -38.888 -2.287 -39.74 1.641 C -40.592 5.566 -38.081 9.447 -34.179 10.296 C -19.215 13.55 -18.092 13.589 -4.367 14.049 L -2.762 14.099 C 1.252 14.232 4.62 11.086 4.754 7.072 C 4.863 3.855 2.862 1.056 0 0 " fill="#fcb42b"/>
<path transform="matrix(1,0,0,-1,146.2456,1461.1682)" d="M 0 0 L 78.91 -10.394 C 80.662 7.778 83.601 62.898 85.811 84.309 L 3.303 91.447 C 2.262 58.158 -.141 11.562 0 0 " fill="#fab999"/>
<path transform="matrix(1,0,0,-1,459.8233,1461.1682)" d="M 0 0 L -78.91 -10.394 C -80.661 7.778 -83.601 62.898 -85.81 84.309 L -3.303 91.447 C -2.262 58.158 .141 11.562 0 0 " fill="#fab999"/>
<path transform="matrix(1,0,0,-1,369.3515,1490.1184)" d="M 0 0 C .102 -2.516 98.939 -6.454 99.18 -3.411 C 101.116 21.101 104.663 54.962 105.83 70.429 L .385 73.119 C 1.274 45.144 -.631 16.107 0 0 " fill="#f6f4b1"/>
<path transform="matrix(1,0,0,-1,497.0732,1461.5908)" d="M 0 0 C -1.459 5.518 -4.517 12.514 -6.876 18.909 C -8.625 23.655 -54.913 23.281 -55.133 11.911 C -55.191 9.002 -55.095 6.431 -54.875 4.1 C -62.794 4.088 -71.379 4.253 -80.447 4.658 C -100.155 5.541 -117.817 7.29 -130.2 9.366 C -131.153 -8.605 -129.841 -39.75 -130.733 -59.731 C -130.733 -59.731 75.409 -100.091 108.195 -70.414 C 117.434 -62.053 65.909 -24.13 0 0 " fill="#ef4d7f"/>
<path transform="matrix(1,0,0,-1,366.6242,1508.7905)" d="M 0 0 C -.041 -4.444 -.116 -8.73 -.284 -12.531 C -.284 -12.531 205.858 -52.892 238.644 -23.215 C 239.945 -22.037 240.02 -20.262 239.038 -18.029 C 181.968 -29.921 51.262 -9.065 0 0 " fill="#af2c59"/>
<path transform="matrix(1,0,0,-1,544.7101,1477.411)" d="M 0 0 C -11.373 2.073 -26.067 -3.049 -35.798 -12.392 C -36.95 -13.501 -36.988 -15.328 -35.879 -16.48 C -35.346 -17.033 -34.643 -17.332 -33.925 -17.363 C -33.163 -17.398 -32.39 -17.132 -31.794 -16.561 C -23.319 -8.42 -10.62 -3.81 -1.028 -5.684 C .591 -5.999 2.047 -4.922 2.331 -3.353 C 2.611 -1.784 1.569 -.278 0 0 M -17.412 2.452 C -15.846 2.145 -14.384 3.379 -14.19 4.963 C -13.996 6.546 -15.119 7.988 -16.703 8.182 C -29.332 9.774 -41.855 5.136 -51.074 -4.456 C -52.18 -5.605 -52.145 -7.435 -50.995 -8.544 C -50.468 -9.048 -49.797 -9.314 -49.119 -9.346 C -48.32 -9.381 -47.507 -9.083 -46.907 -8.46 C -36.029 2.855 -23.771 3.237 -17.412 2.452 M -33.227 9.888 C -31.657 9.563 -30.12 10.504 -29.764 12.059 C -29.408 13.614 -30.381 15.166 -31.936 15.525 C -43.908 18.229 -57.924 12.794 -66.028 2.229 C -67.001 .961 -66.763 -.851 -65.495 -1.821 C -65.009 -2.195 -64.438 -2.389 -63.868 -2.415 C -62.959 -2.455 -62.044 -2.067 -61.448 -1.286 C -54.667 7.545 -43.065 12.186 -33.227 9.888 " fill="#c7d2dd"/>
<path transform="matrix(1,0,0,-1,233.0922,1494.6201)" d="M 0 0 C -.235 -2.507 -95.12 -1.381 -95.384 1.659 C -97.48 25.632 -100.323 63.136 -101.861 76.055 L 3.573 73.035 C 1.173 45.147 1.503 16.049 0 0 " fill="#f6f4b1"/>
<path transform="matrix(1,0,0,-1,109.2705,1463.4113)" d="M 0 0 C 1.456 5.518 4.517 12.514 6.874 18.909 C 8.625 23.655 54.91 23.281 55.133 11.911 C 55.191 9.002 55.092 6.431 54.872 4.1 C 62.794 4.088 71.379 4.253 80.444 4.658 C 100.155 5.541 117.817 7.29 130.2 9.366 C 131.153 -8.605 129.841 -39.75 130.733 -59.731 C 130.733 -59.731 -75.412 -100.091 -108.196 -70.414 C -117.435 -62.053 -65.909 -24.13 0 0 " fill="#ef4d7f"/>
<path transform="matrix(1,0,0,-1,239.7195,1510.6109)" d="M 0 0 C .04 -4.444 .113 -8.73 .284 -12.531 C .284 -12.531 -205.861 -52.892 -238.645 -23.215 C -239.947 -22.037 -240.02 -20.262 -239.038 -18.029 C -181.969 -29.921 -51.262 -9.065 0 0 " fill="#af2c59"/>
<path transform="matrix(1,0,0,-1,59.3029,1482.5842)" d="M 0 0 C .281 -1.569 1.74 -2.646 3.359 -2.331 C 12.951 -.457 25.65 -5.067 34.124 -13.208 C 34.721 -13.779 35.494 -14.045 36.255 -14.01 C 36.971 -13.979 37.677 -13.68 38.21 -13.127 C 39.316 -11.975 39.281 -10.148 38.128 -9.039 C 28.397 .304 13.704 5.426 2.331 3.353 C .761 3.075 -.284 1.569 0 0 M 49.238 -5.107 C 49.837 -5.73 50.651 -6.028 51.45 -5.993 C 52.127 -5.961 52.799 -5.695 53.323 -5.191 C 54.476 -4.082 54.51 -2.252 53.404 -1.103 C 44.186 8.489 31.663 13.127 19.034 11.535 C 17.45 11.341 16.324 9.899 16.521 8.315 C 16.715 6.732 18.177 5.498 19.743 5.805 C 26.098 6.59 38.36 6.208 49.238 -5.107 M 63.775 2.067 C 64.375 1.286 65.29 .898 66.199 .938 C 66.769 .964 67.34 1.158 67.826 1.532 C 69.094 2.502 69.332 4.314 68.359 5.582 C 60.255 16.147 46.238 21.582 34.266 18.878 C 32.711 18.519 31.739 16.967 32.095 15.412 C 32.451 13.857 33.985 12.916 35.558 13.241 C 45.396 15.539 56.997 10.898 63.775 2.067 " fill="#c7d2dd"/>
<path transform="matrix(1,0,0,-1,471.5765,439.41334)" d="M 0 0 C 36.976 87.203 31.148 135.693 -1.567 322.306 L -343.04 335.091 C -387.315 188.972 -389.675 107.07 -388.809 53.432 C -386.46 78.943 -390.412 132.131 -351.401 259.632 C -388.422 98.161 -391.326 46.066 -362.437 17.289 C -380.036 53.052 -359.944 149.328 -354.695 161.353 C -356.188 126.48 -363.863 60.061 -348.606 8.636 C -279.931 -33.771 -87.465 -31.941 -31.354 -14.995 C -25.7 -2.127 -20.932 82.705 -19.083 99.686 C -15.775 76.442 -16.272 15.505 -21.21 -14.205 C 3.586 14.727 14.765 117.981 3.397 253.819 C 23.828 146.497 22.23 71.663 0 0 " fill="#a75e4e"/>
<path transform="matrix(1,0,0,-1,547.034,956.2812)" d="M 0 0 C 2.167 18.264 8.069 45.201 12.783 97.36 C 13.322 103.316 -7.335 115.354 -6.783 109.308 C -3.384 72.096 -24.336 -3.903 0 0 " fill="#dc916d"/>
<path transform="matrix(1,0,0,-1,567.4517,970.88418)" d="M 0 0 C 2.167 18.264 15.14 60.962 7.427 110.456 C 6.475 116.561 -14.67 125.603 -13.886 119.579 C -8.246 76.166 -24.883 .59 0 0 " fill="#dc916d"/>
<path transform="matrix(1,0,0,-1,596.009,974.7522)" d="M 0 0 C 2.166 18.264 .283 119.619 -7.432 169.113 C -8.383 175.218 -50.736 172.785 -55.372 164.267 C -79.153 149.203 -68.809 113.726 -94.73 74.399 C -99.208 67.607 -87.812 65.588 -84.439 66.554 C -75.742 69.047 -72.988 75.661 -54.355 89.27 C -42.999 97.563 -32.394 89.469 -28.308 80.571 C -12.792 39.061 -21.427 -3.284 0 0 " fill="#fab999"/>
<path transform="matrix(1,0,0,-1,97.0295,958.3434)" d="M 0 0 C -3.391 18.077 -11.093 44.556 -19.309 96.278 C -20.247 102.185 -.447 115.586 -.592 109.517 C -1.477 72.16 24.544 -2.255 0 0 " fill="#dc916d"/>
<path transform="matrix(1,0,0,-1,77.6413,974.28768)" d="M 0 0 C -3.391 18.077 -19.21 59.805 -14.846 109.705 C -14.308 115.861 6.181 126.306 5.805 120.243 C 3.099 76.548 24.787 2.264 0 0 " fill="#dc916d"/>
<path transform="matrix(1,0,0,-1,49.4091,980.0696)" d="M 0 0 C -3.391 18.077 -8.335 119.328 -3.97 169.23 C -3.432 175.385 38.988 175.809 44.187 167.622 C 68.929 154.193 60.996 118.101 89.507 80.607 C 94.431 74.132 83.198 71.351 79.767 72.088 C 70.922 73.989 67.729 80.404 48.222 92.727 C 36.334 100.237 26.297 91.447 22.82 82.294 C 10.134 39.833 21.6 -1.834 0 0 " fill="#fab999"/>
<path transform="matrix(1,0,0,-1,460.7823,813.3562)" d="M 0 0 L -311.724 6.503 C -314.055 -161.316 -321.388 -410.735 -324.362 -575.505 L -219.488 -575.505 C -207.931 -446.983 -190.412 -239.141 -176.367 -141.941 C -173.334 -120.953 -131.867 -115.663 -130.281 -142.958 C -124.032 -250.506 -106.265 -446.218 -96.289 -570.235 L 9.141 -565.597 C 8.808 -426.991 3.39 -184.302 0 0 " fill="#1c4d68"/>
<path transform="matrix(1,0,0,-1,168.3956,493.54396)" d="M 0 0 C -33.178 -81.629 -66.807 -278.921 -60.696 -333.499 C -60.067 -339.126 -123.251 -338.686 -123.357 -333.009 C -123.745 -311.874 -112.725 -104.421 -75.441 19.169 C -65.688 17.751 -7.885 -2.977 0 0 " fill="#fab999"/>
<path transform="matrix(1,0,0,-1,64.1857,514.79519)" d="M 0 0 C 14.423 21.438 21.472 30.184 57.093 82.504 C 67.72 98.113 82.013 132.713 147.075 113.259 C 161.41 82.029 137.78 -20.821 128.924 -52.468 C 75.011 -52.787 6.67 -20.406 0 0 " fill="#f0517b"/>
<path transform="matrix(1,0,0,-1,444.464,501.3131)" d="M 0 0 C 38.598 -79.21 85.433 -273.79 83.01 -328.657 C 82.762 -334.312 145.773 -329.62 145.496 -323.949 C 144.46 -302.836 119.499 -96.596 73.98 24.204 C 64.344 22.133 8.067 -2.439 0 0 " fill="#fab999"/>
<path transform="matrix(1,0,0,-1,550.167,515.5785)" d="M 0 0 C -14.206 21.582 -21.166 30.399 -56.257 83.076 C -66.724 98.791 -80.669 133.534 -145.924 114.737 C -160.574 83.654 -137.983 -19.43 -129.447 -51.164 C -75.54 -52.027 -6.875 -20.337 0 0 " fill="#f0517b"/>
<path transform="matrix(1,0,0,-1,470.8842,828.76577)" d="M 0 0 C -11.647 86.143 -33.799 142.566 -37.251 206.037 C -30.44 260.585 -18.34 271.329 -20.477 300.918 C -22.134 323.874 -28.768 351.644 -44.302 428.72 C -65.226 434.131 -111.824 434.388 -163.383 434.347 C -214.945 434.306 -263.346 432.579 -284.263 427.134 C -299.671 350.031 -304.454 323.646 -306.074 300.686 C -308.163 271.094 -290.2 260.377 -283.3 205.837 C -286.651 142.361 -315.789 79.049 -330.739 -2.278 C -243.427 -46.86 -88.403 -40.294 0 0 " fill="#f0517b"/>
<path transform="matrix(1,0,0,-1,376.0691,394.2196)" d="M 0 0 C -42.865 2.523 -89.017 2.458 -134.083 -1.179 C -135.773 -5.828 -136.967 -10.621 -136.971 -15.647 C -137.009 -45.193 -105.899 -68.456 -67.487 -67.605 C -29.07 -66.752 2.1 -42.108 2.134 -12.56 C 2.142 -8.196 1.275 -4.032 0 0 " fill="#fab999"/>
<path transform="matrix(1,0,0,-1,360.6396,345.97315)" d="M 0 0 L .77 -82.347 C .936 -100.052 -21.926 -114.625 -50.294 -114.891 C -78.661 -115.157 -101.791 -101.014 -101.957 -83.307 L -102.729 -.963 Z " fill="#fab999"/>
<path transform="matrix(1,0,0,-1,248.8282,1397.6334)" d="M 0 0 L -120.687 5.985 L -118.653 47.009 L 2.034 41.025 Z " fill="#306784"/>
<path transform="matrix(1,0,0,-1,357.2426,1397.6334)" d="M 0 0 L 120.685 5.985 L 118.652 47.009 L -2.035 41.025 Z " fill="#306784"/>
<g opacity=".110001">
<clipPath id="cp1">
<path transform="matrix(1,0,0,-1,0,1544.72)" d="M 252.267 902.025 L 365.995 902.025 L 365.995 934.067 L 252.267 934.067 Z "/>
</clipPath>
<g clip-path="url(#cp1)">
<path transform="matrix(1,0,0,-1,365.9685,638.6127)" d="M 0 0 C .9 -11.476 -21.569 4.764 -56.37 5.965 C -84.836 6.947 -115.893 -9.731 -113.579 4.816 C -112.405 12.196 -84.535 28.679 -56.341 27.935 C -23.357 27.064 -.921 11.77 0 0 " fill="#1d000b"/>
</g>
</g>
<g opacity=".160004">
<clipPath id="cp2">
<path transform="matrix(1,0,0,-1,0,1544.72)" d="M 251.449 1149.11 L 390.287 1149.11 L 390.287 1248.39 L 251.449 1248.39 Z "/>
</clipPath>
<g clip-path="url(#cp2)">
<path transform="matrix(1,0,0,-1,252.1239,332.13819)" d="M 0 0 C -5.297 -26.321 21.186 -53.853 59.152 -61.494 C 97.12 -69.135 132.192 -53.992 137.488 -27.67 C 142.785 -1.349 116.303 26.184 78.336 33.824 C 40.37 41.465 5.297 26.321 0 0 "/>
</g>
</g>
<path transform="matrix(1,0,0,-1,466.4836,255.54065)" d="M 0 0 C -7.337 -32.477 -36.901 -53.027 -59.52 -50 C -82.139 -46.973 -87.03 -20.394 -83.723 10.872 C -80.407 42.139 -59.376 65.11 -36.763 62.004 C -5.859 57.756 6.896 30.524 0 0 " fill="#f5ac88"/>
<path transform="matrix(1,0,0,-1,122.6185,135.4707)" d="M 0 0 C -19.312 -122.206 83.385 -189.562 182.477 -187.628 C 281.568 -185.693 352.024 -98.464 339.643 21.11 C 332.769 87.503 281.329 130.639 180.201 135.231 C 104.859 138.653 16.788 106.224 0 0 " fill="#a75e4e"/>
<path transform="matrix(1,0,0,-1,168.4697,103.33508)" d="M 0 0 C -8.629 -20.157 8.501 -197.384 29.343 -221.548 C 51.447 -247.182 143.134 -267.113 161.574 -266.754 C 181.324 -266.369 246.448 -241.179 262.589 -212.217 C 281.687 -177.942 285.824 -25.848 279.154 -7.309 C 256.614 55.301 201.741 56.354 130.027 54.955 C 62.935 53.644 22.382 52.301 0 0 " fill="#fab998"/>
<path transform="matrix(1,0,0,-1,119.0742,269.47486)" d="M 0 0 C 9.75 -33.975 43.541 -54.613 68.455 -50.644 C 93.369 -46.672 87.835 54.855 42.54 62.57 C 4.819 68.993 -9.164 31.931 0 0 " fill="#fab998"/>
<path transform="matrix(1,0,0,-1,146.8047,267.3689)" d="M 0 0 C 2.295 -14.397 18.782 -26.214 30.908 -21.941 C 35.635 -20.276 26.438 29.908 18.837 29.735 C 5.983 29.443 -2.294 14.397 0 0 " fill="#dc916d"/>
<path transform="matrix(1,0,0,-1,209.1942,278.36183)" d="M 0 0 C -.134 -7.196 9.759 -13.211 22.096 -13.438 C 34.427 -13.666 44.535 -8.017 44.669 -.823 C 44.801 6.373 34.905 12.389 22.575 12.617 C 10.238 12.844 .132 7.194 0 0 " fill="#f59293"/>
<path transform="matrix(1,0,0,-1,271.6966,283.3744)" d="M 0 0 C 1.953 12.254 23.916 9.872 52.96 10.677 C 54.48 10.719 60.391 10.841 61.913 10.861 C 90.966 11.255 107.916 14.679 109.562 2.384 C 112.538 -19.839 88.475 -47.067 58.975 -47.769 L 58.464 -47.781 C 26.732 -48.462 -3.759 -23.603 0 0 " fill="#6a0d0d"/>
<path transform="matrix(1,0,0,-1,298.4998,323.4911)" d="M 0 0 C 7.857 7.493 18.653 11.863 30.199 12.102 C 41.592 12.338 52.278 8.601 60.391 1.645 C 55.148 -1.938 49.24 -4.836 42.888 -6.409 C 39.448 -7.26 35.818 -7.774 32.173 -7.864 L 31.662 -7.873 C 23.799 -8.044 16.018 -6.612 8.81 -4.024 L 8.257 -3.808 C 5.379 -2.745 2.656 -1.409 0 0 " fill="#dc6f60"/>
<path transform="matrix(1,0,0,-1,289.823,273.75697)" d="M 0 0 L -.135 .537 C -.135 .537 32.342 1.733 43.769 1.875 C 54.667 2.013 78.737 2.165 78.737 2.165 L 78.626 1.621 C 76.704 -7.234 59.95 -14.219 39.65 -14.637 C 19.369 -15.056 2.325 -8.767 0 0 " fill="#ffffff"/>
<path transform="matrix(1,0,0,-1,401.0256,273.18739)" d="M 0 0 C .514 -6.377 8.685 -10.922 18.247 -10.15 C 27.807 -9.377 35.144 -3.581 34.628 2.799 C 34.112 9.176 25.942 13.721 16.382 12.949 C 6.818 12.177 -.516 6.378 0 0 " fill="#f59293"/>
<path transform="matrix(1,0,0,-1,315.0936,261.0724)" d="M 0 0 C .791 .016 1.476 .599 1.595 1.406 C 2.43 7.145 6.881 10.929 12.93 11.047 C 19.013 11.167 23.712 7.487 24.625 1.892 C 24.773 .998 25.624 .387 26.515 .535 C 27.412 .681 28.019 1.527 27.874 2.425 C 26.706 9.59 20.532 14.489 12.864 14.338 C 5.24 14.19 -.597 9.185 -1.664 1.883 C -1.794 .983 -1.171 .149 -.273 .015 Z " fill="#be725e"/>
<path transform="matrix(1,0,0,-1,145.26,143.02259)" d="M 0 0 C -11.936 2.782 10.257 89.064 69.232 115.17 C 165.795 150.309 233.338 133.297 257.909 117.393 C 293.658 94.25 324.093 60.519 331.975 -2.582 C 336.677 -40.212 333.324 -52.522 352.539 -61.334 C 331.646 -67.085 331.035 -62.946 325.071 -52.782 C 322.643 -83.276 323.434 -97.99 335.594 -107.17 C 309.84 -113.629 304.809 -99.03 303.074 -74.71 C 300.173 -34.055 298.576 10.808 294.632 21.17 C 292.348 27.164 271.03 62.009 262.067 62.416 C 242.534 63.302 220.043 -4.94 150.876 -2.714 C 179.03 12.02 194.589 33.26 210.422 63.639 C 204.946 60.458 199.447 56.58 193.982 51.843 C 136.442 1.96 83.88 -9.938 35.148 -4.91 C 42.257 -56.914 48.416 -122.879 -6.686 -124.383 C -.985 -117.483 13.64 -82.7 -.759 -55.454 C -7.428 -59.469 -1.698 -34.146 0 0 " fill="#a75e4e"/>
<path transform="matrix(1,0,0,-1,202.2331,161.89124)" d="M 0 0 C 1.106 .104 2.174 .601 2.983 1.476 C 13.319 12.622 34.488 17.45 52.268 12.673 C 54.734 11.998 57.301 13.472 57.98 15.969 C 58.648 18.451 57.176 21.009 54.684 21.68 C 33.474 27.366 8.843 21.534 -3.858 7.805 C -5.607 5.915 -5.494 2.967 -3.603 1.219 C -2.593 .278 -1.274 -.12 0 0 " fill="#6f2715"/>
<path transform="matrix(1,0,0,-1,433.7668,155.32959)" d="M 0 0 C 1.235 -.013 2.467 .477 3.359 1.463 C 5.033 3.293 4.903 6.132 3.072 7.806 C -10.246 19.955 -34.356 23.551 -54.252 16.38 C -56.588 15.531 -57.794 12.958 -56.952 10.629 C -56.105 8.286 -53.526 7.081 -51.201 7.927 C -34.528 13.963 -13.797 11.06 -2.982 1.175 C -2.136 .4 -1.071 .011 0 0 " fill="#6f2715"/>
<path transform="matrix(1,0,0,-1,364.4617,250.68982)" d="M 0 0 C 0 0 42.438 -14.991 57.71 11.612 C 76.32 44.033 45.774 68.637 26.557 63.276 C 8.774 58.313 -6.979 39.528 0 0 " fill="#f7fcfe"/>
<path transform="matrix(1,0,0,-1,424.1974,198.17932)" d="M 0 0 C -8.103 11.446 -18.666 14.871 -29.977 13.273 C -41.538 11.641 -53.018 1.613 -56.058 -8.536 C -50.135 2.952 -39.495 7.342 -32.847 9.196 C -22.262 12.163 -8.124 6.788 -1.518 -4.51 C 4.357 -14.564 4.306 -29.84 -2.526 -41.738 C 5.704 -33.571 8.444 -11.928 0 0 " fill="#703123"/>
<path transform="matrix(1,0,0,-1,374.5895,215.91028)" d="M 0 0 C -3.536 -11.582 1.551 -24.508 11.362 -28.87 C 21.173 -33.232 31.995 -27.38 35.531 -15.798 C 39.069 -4.216 33.982 8.709 24.171 13.072 C 14.36 17.434 3.538 11.58 0 0 " fill="#5c100d"/>
<path transform="matrix(1,0,0,-1,376.018,212.31519)" d="M 0 0 C -.981 -3.213 .431 -6.799 3.153 -8.009 C 5.876 -9.219 8.878 -7.597 9.859 -4.384 C 10.84 -1.169 9.43 2.417 6.707 3.627 C 3.984 4.837 .981 3.213 0 0 " fill="#fffffe"/>
<path transform="matrix(1,0,0,-1,289.3553,252.78565)" d="M 0 0 C 0 0 -49.455 -17.171 -69.108 8.607 C -93.056 40.018 -58.256 66.174 -35.157 61.815 C -13.782 57.783 5.988 39.837 0 0 " fill="#f7fcfe"/>
<path transform="matrix(1,0,0,-1,215.4765,203.44092)" d="M 0 0 C 8.946 11.85 21.275 15.819 34.779 14.81 C 48.586 13.778 62.778 4.359 66.973 -5.618 C 59.284 5.547 46.411 9.381 38.421 10.885 C 25.695 13.302 9.241 7.2 2.061 -4.425 C -4.324 -14.771 -3.378 -30.023 5.412 -41.55 C -4.821 -33.821 -9.322 -12.351 0 0 " fill="#703123"/>
<path transform="matrix(1,0,0,-1,227.9907,218.1731)" d="M 0 0 C -4.288 -11.612 1.65 -24.501 13.262 -28.789 C 24.874 -33.077 37.765 -27.139 42.053 -15.527 C 46.341 -3.915 40.403 8.976 28.789 13.264 C 17.177 17.552 4.288 11.612 0 0 " fill="#5c100d"/>
<path transform="matrix(1,0,0,-1,229.7138,214.5636)" d="M 0 0 C -1.189 -3.223 .458 -6.798 3.679 -7.989 C 6.902 -9.178 10.477 -7.53 11.668 -4.308 C 12.857 -1.087 11.21 2.49 7.987 3.679 C 4.766 4.868 1.189 3.221 0 0 " fill="#fffffe"/>
<path transform="matrix(1,0,0,-1,142.0902,164.6278)" d="M 0 0 C 10.605 88.927 61.386 144.7 155.532 154.683 C 229.871 162.565 286.512 130.923 301.65 104.052 C 280.804 119.57 242.517 143.231 160.079 137.777 C 106.752 134.249 24.477 100.986 0 0 " fill="#f79224"/>
<path transform="matrix(1,0,0,-1,449.8517,849.3202)" d="M 0 0 C -25.532 -30.891 -251.234 -31.912 -289.532 4.001 C -289.532 4.001 -251.801 86.1 -250.049 183.066 C -248.971 242.766 -255.761 292.64 -254.138 340.814 C -202.758 341.962 -66.118 341.18 -20.915 337.288 C -19.505 292.98 -32.896 231.652 -36.255 159.117 C -38.584 108.835 -2.533 74.002 0 0 " fill="#1c4d68"/>
<path transform="matrix(1,0,0,-1,210.5805,522.4833)" d="M 0 0 L 10.675 -.148 L 11.025 25.064 C 11.041 26.371 12.146 27.446 13.453 27.427 L 20.52 27.331 L 20.679 39.031 L -10.755 39.468 L -10.918 27.764 L -2.017 27.64 C -.707 27.624 .365 26.519 .349 25.211 Z M 13.006 -4.972 L -2.464 -4.759 C -3.772 -4.74 -4.847 -3.637 -4.827 -2.33 L -4.479 22.881 L -13.38 23.005 C -14.687 23.024 -15.762 24.127 -15.743 25.434 L -15.514 41.932 C -15.498 43.239 -14.393 44.311 -13.085 44.295 L 23.144 43.793 C 24.451 43.774 25.526 42.668 25.507 41.362 L 25.278 24.866 C 25.262 23.559 24.157 22.484 22.85 22.503 L 15.783 22.602 L 15.435 -2.609 C 15.415 -3.916 14.313 -4.991 13.006 -4.972 " fill="#addfe9"/>
<path transform="matrix(1,0,0,-1,205.4924,525.43008)" d="M 0 0 C .888 -6.083 6.532 -10.299 12.609 -9.417 C 18.683 -8.531 22.887 -2.88 21.999 3.203 C 21.111 9.289 15.467 13.505 9.393 12.619 C 3.316 11.734 -.888 6.086 0 0 " fill="#e9f6fb"/>
<path transform="matrix(1,0,0,-1,403.4263,524.6427)" d="M 0 0 L 10.675 -.148 L 11.025 25.064 C 11.044 26.371 12.149 27.446 13.456 27.427 L 20.523 27.331 L 20.683 39.034 L -10.752 39.467 L -10.915 27.764 L -2.014 27.643 C -.707 27.624 .368 26.518 .349 25.211 Z M 13.006 -4.972 L -2.461 -4.759 C -3.768 -4.74 -4.844 -3.637 -4.825 -2.33 L -4.475 22.881 L -13.377 23.005 C -14.684 23.024 -15.759 24.127 -15.743 25.434 L -15.514 41.932 C -15.495 43.239 -14.389 44.311 -13.082 44.295 L 23.147 43.793 C 24.454 43.774 25.527 42.672 25.51 41.364 L 25.282 24.866 C 25.262 23.559 24.16 22.484 22.85 22.503 L 15.787 22.602 L 15.437 -2.609 C 15.418 -3.916 14.313 -4.991 13.006 -4.972 " fill="#addfe9"/>
<path transform="matrix(1,0,0,-1,394.6755,487.48866)" d="M 0 0 C -.167 2.674 .432 59.49 -4.948 91.813 L 22.85 92.083 C 30.67 53.249 27.946 2.446 28.123 -.387 Z " fill="#1c4d68"/>
<path transform="matrix(1,0,0,-1,201.6376,485.8258)" d="M 0 0 C -.161 2.947 .472 61.584 -1.835 87.286 L 24.813 89.286 C 28.52 55.131 27.951 2.749 28.124 -.374 Z " fill="#1c4d68"/>
<path transform="matrix(1,0,0,-1,398.3412,527.5898)" d="M 0 0 C .888 -6.083 6.532 -10.299 12.606 -9.413 C 18.683 -8.531 22.886 -2.88 21.999 3.206 C 21.111 9.289 15.467 13.505 9.393 12.62 C 3.316 11.734 -.888 6.086 0 0 " fill="#e9f6fb"/>
<g opacity=".210007">
<clipPath id="cp3">
<path transform="matrix(1,0,0,-1,0,1544.72)" d="M 256.283 884.137 L 363.038 884.137 L 363.038 985.694 L 256.283 985.694 Z "/>
</clipPath>
<g clip-path="url(#cp3)">
<path transform="matrix(1,0,0,-1,256.283,645.55557)" d="M 0 0 L 53.283 -15.027 L 105.776 .614 L 106.755 79.489 L 3.447 86.529 Z "/>
</g>
</g>
<path transform="matrix(1,0,0,-1,260.7553,640.375)" d="M 0 0 L 49.405 -15.54 L 99.646 -.817 L 100.968 73.417 L 3.018 76.131 Z " fill="#306784"/>
</g>
</g>
</g>
</g>
</svg>
