<?xml version="1.0" encoding="UTF-8"?>
<svg xmlns="http://www.w3.org/2000/svg" xmlns:xlink="http://www.w3.org/1999/xlink" width="608.807pt" height="1394.15pt" viewBox="0 0 608.807 1394.15" version="1.1">
<defs>
<filter id="alpha" filterUnits="objectBoundingBox" x="0%" y="0%" width="100%" height="100%">
  <feColorMatrix type="matrix" in="SourceGraphic" values="0 0 0 0 1 0 0 0 0 1 0 0 0 0 1 0 0 0 1 0"/>
</filter>
<mask id="mask0">
  <g filter="url(#alpha)">
<rect x="0" y="0" width="608.807" height="1394.15" style="fill:rgb(0%,0%,0%);fill-opacity:0.350006;stroke:none;"/>
  </g>
</mask>
<clipPath id="clip2">
  <path d="M 0.113281 0.269531 L 115.632812 0.269531 L 115.632812 69.355469 L 0.113281 69.355469 Z M 0.113281 0.269531 "/>
</clipPath>
<clipPath id="clip1">
  <rect x="0" y="0" width="116" height="70"/>
</clipPath>
<g id="surface5" clip-path="url(#clip1)">
<g clip-path="url(#clip2)" clip-rule="nonzero">
<path style=" stroke:none;fill-rule:nonzero;fill:rgb(100%,100%,100%);fill-opacity:1;" d="M 93.511719 54.847656 C 90.199219 61.601562 85.472656 64.691406 79.71875 63.910156 C 72.453125 63.015625 65.132812 56.191406 62.703125 50.324219 C 66.859375 48.976562 72.75 44.886719 72.765625 40.996094 C 72.804688 33.414062 47.183594 34.746094 47.328125 42.332031 C 47.398438 46.050781 53.15625 49.296875 57.476562 50.433594 C 55.632812 56.460938 49.617188 63.523438 42.636719 65.253906 C 36.976562 66.683594 31.675781 64.335938 27.183594 58.210938 C 26.5625 57.351562 25.429688 57.207031 24.609375 57.816406 C 23.78125 58.425781 23.617188 59.578125 24.210938 60.390625 C 30.988281 69.648438 38.339844 70.105469 43.550781 68.84375 C 50.898438 67.011719 57.277344 60.460938 60.21875 54.113281 C 63.875 60.378906 71.453125 66.609375 79.265625 67.597656 C 80.234375 67.714844 81.195312 67.738281 82.136719 67.6875 C 88.238281 67.367188 93.382812 63.480469 96.820312 56.457031 C 97.28125 55.542969 96.878906 54.46875 95.972656 53.996094 C 95.117188 53.550781 93.96875 53.882812 93.511719 54.847656 M 33.449219 19.976562 C 34.167969 21.769531 36.304688 22.632812 37.976562 21.910156 C 39.753906 21.148438 40.644531 19.164062 39.925781 17.367188 C 36.589844 9.050781 28.328125 3.78125 19.359375 4.253906 C 10.386719 4.722656 2.699219 10.839844 0.25 19.460938 C -0.285156 21.324219 0.816406 23.21875 2.664062 23.777344 C 3.027344 23.886719 3.410156 23.929688 3.789062 23.914062 C 5.238281 23.835938 6.554688 22.851562 6.96875 21.378906 C 8.609375 15.621094 13.722656 11.550781 19.722656 11.234375 C 25.695312 10.921875 31.210938 14.433594 33.449219 19.976562 M 94.78125 0.296875 C 85.839844 0.765625 78.148438 6.871094 75.675781 15.492188 C 75.140625 17.347656 76.199219 19.289062 78.058594 19.820312 C 78.449219 19.941406 78.835938 19.972656 79.214844 19.953125 C 80.664062 19.875 81.976562 18.90625 82.394531 17.433594 C 84.058594 11.671875 89.175781 7.589844 95.148438 7.277344 C 101.117188 6.960938 106.636719 10.472656 108.898438 16.03125 C 109.597656 17.824219 111.664062 18.714844 113.453125 17.949219 C 115.246094 17.226562 116.097656 15.1875 115.378906 13.394531 C 112.015625 5.09375 103.726562 -0.171875 94.78125 0.296875 "/>
</g>
</g>
<mask id="mask1">
  <g filter="url(#alpha)">
<rect x="0" y="0" width="608.807" height="1394.15" style="fill:rgb(0%,0%,0%);fill-opacity:0.240005;stroke:none;"/>
  </g>
</mask>
<clipPath id="clip4">
  <path d="M 0.519531 0.492188 L 71.078125 0.492188 L 71.078125 79.882812 L 0.519531 79.882812 Z M 0.519531 0.492188 "/>
</clipPath>
<clipPath id="clip3">
  <rect x="0" y="0" width="72" height="80"/>
</clipPath>
<g id="surface8" clip-path="url(#clip3)">
<g clip-path="url(#clip4)" clip-rule="nonzero">
<path style=" stroke:none;fill-rule:nonzero;fill:rgb(0%,0%,0%);fill-opacity:1;" d="M 71.078125 5.449219 C 67.765625 65.8125 33.207031 86.265625 0.519531 78.207031 C 3.460938 53.453125 7.113281 20.9375 9.578125 0.492188 Z M 71.078125 5.449219 "/>
</g>
</g>
<mask id="mask2">
  <g filter="url(#alpha)">
<rect x="0" y="0" width="608.807" height="1394.15" style="fill:rgb(0%,0%,0%);fill-opacity:0.240005;stroke:none;"/>
  </g>
</mask>
<clipPath id="clip6">
  <path d="M 0.84375 0.777344 L 69.09375 0.777344 L 69.09375 80.019531 L 0.84375 80.019531 Z M 0.84375 0.777344 "/>
</clipPath>
<clipPath id="clip5">
  <rect x="0" y="0" width="70" height="81"/>
</clipPath>
<g id="surface11" clip-path="url(#clip5)">
<g clip-path="url(#clip6)" clip-rule="nonzero">
<path style=" stroke:none;fill-rule:nonzero;fill:rgb(0%,0%,0%);fill-opacity:1;" d="M 0.84375 3.808594 C 2.269531 64.246094 36.167969 85.773438 69.09375 78.738281 C 66.929688 53.90625 64.292969 21.292969 62.46875 0.777344 Z M 0.84375 3.808594 "/>
</g>
</g>
<mask id="mask3">
  <g filter="url(#alpha)">
<rect x="0" y="0" width="608.807" height="1394.15" style="fill:rgb(0%,0%,0%);fill-opacity:0.179993;stroke:none;"/>
  </g>
</mask>
<clipPath id="clip8">
  <path d="M 0.03125 0.742188 L 164.152344 0.742188 L 164.152344 74.875 L 0.03125 74.875 Z M 0.03125 0.742188 "/>
</clipPath>
<clipPath id="clip7">
  <rect x="0" y="0" width="165" height="75"/>
</clipPath>
<g id="surface14" clip-path="url(#clip7)">
<g clip-path="url(#clip8)" clip-rule="nonzero">
<path style=" stroke:none;fill-rule:nonzero;fill:rgb(64.698792%,4.699707%,4.699707%);fill-opacity:1;" d="M 164.152344 13.921875 C 164.183594 9.527344 163.289062 5.328125 162.078125 1.203125 C 116.910156 -0.15625 49.203125 1.394531 1.085938 7.042969 C 0.785156 8.953125 0.046875 10.75 0.0351562 12.71875 C -0.214844 46.714844 36.320312 74.539062 81.640625 74.871094 C 126.960938 75.203125 163.902344 47.917969 164.152344 13.921875 "/>
</g>
</g>
<clipPath id="clip9">
  <path d="M 42 1348 L 608.808594 1348 L 608.808594 1394.148438 L 42 1394.148438 Z M 42 1348 "/>
</clipPath>
<mask id="mask4">
  <g filter="url(#alpha)">
<rect x="0" y="0" width="608.807" height="1394.15" style="fill:rgb(0%,0%,0%);fill-opacity:0.119995;stroke:none;"/>
  </g>
</mask>
<clipPath id="clip11">
  <path d="M 0.425781 0.804688 L 566.808594 0.804688 L 566.808594 46.148438 L 0.425781 46.148438 Z M 0.425781 0.804688 "/>
</clipPath>
<clipPath id="clip10">
  <rect x="0" y="0" width="567" height="47"/>
</clipPath>
<g id="surface17" clip-path="url(#clip10)">
<g clip-path="url(#clip11)" clip-rule="nonzero">
<path style=" stroke:none;fill-rule:nonzero;fill:rgb(0%,0%,0%);fill-opacity:1;" d="M 566.808594 23.476562 C 566.808594 35.996094 440.019531 46.148438 283.613281 46.148438 C 127.214844 46.148438 0.425781 35.996094 0.425781 23.476562 C 0.425781 10.957031 127.214844 0.804688 283.613281 0.804688 C 440.019531 0.804688 566.808594 10.957031 566.808594 23.476562 "/>
</g>
</g>
<mask id="mask5">
  <g filter="url(#alpha)">
<rect x="0" y="0" width="608.807" height="1394.15" style="fill:rgb(0%,0%,0%);fill-opacity:0.190002;stroke:none;"/>
  </g>
</mask>
<clipPath id="clip13">
  <path d="M 0.847656 0.542969 L 239.828125 0.542969 L 239.828125 110.882812 L 0.847656 110.882812 Z M 0.847656 0.542969 "/>
</clipPath>
<clipPath id="clip12">
  <rect x="0" y="0" width="240" height="111"/>
</clipPath>
<g id="surface20" clip-path="url(#clip12)">
<g clip-path="url(#clip13)" clip-rule="nonzero">
<path style=" stroke:none;fill-rule:nonzero;fill:rgb(37.599182%,9.399414%,1.998901%);fill-opacity:1;" d="M 130.25 4.554688 C 168.777344 6.453125 219.660156 19.035156 238.734375 33.269531 C 243.839844 58.621094 229.640625 78.867188 225.707031 93.472656 C 226.15625 99.253906 228.203125 106.773438 228.941406 110.882812 C 192.621094 102.460938 125.808594 84.890625 76.125 65.914062 C 45.785156 63.195312 -3.472656 58.222656 1.148438 9.808594 C 19.109375 -6.367188 104.507812 3.28125 130.25 4.554688 "/>
</g>
</g>
</defs>
<g id="surface1">
<path style=" stroke:none;fill-rule:nonzero;fill:rgb(67.799377%,36.099243%,28.599548%);fill-opacity:1;" d="M 517.683594 604.523438 C 560.550781 487.757812 566.625 406.109375 506.753906 165.410156 L 40.226562 199.679688 C -7.628906 393.871094 -1.972656 496.390625 3.664062 566.277344 C 4.726562 532.8125 -5.058594 463.769531 37.210938 294.285156 C 0.46875 507.90625 0.867188 576.089844 42.421875 611.25 C 15.589844 566.050781 34.8125 438.847656 40.921875 422.730469 C 41.804688 468.332031 36.929688 555.582031 61.886719 621.402344 C 75.820312 631.683594 136.566406 651.265625 155.210938 656.441406 C 208.878906 671.34375 411.863281 642.507812 474.34375 627.460938 C 476.964844 621.96875 482.144531 493.8125 483.523438 476.074219 C 487.191406 482.113281 487.292969 621.320312 488.789062 627.078125 C 519.992188 587.3125 545.324219 449.011719 518.613281 272.785156 C 555.238281 411.078125 541.855469 509.238281 517.683594 604.523438 "/>
<path style=" stroke:none;fill-rule:nonzero;fill:rgb(100%,75.698853%,62.399292%);fill-opacity:1;" d="M 463.398438 1255.347656 C 451.523438 1259.6875 401.824219 1264.289062 386.230469 1264.667969 C 381.871094 1214.710938 360.027344 1016.152344 350.742188 951.136719 C 348.441406 935.019531 311.632812 934.089844 308.414062 950.953125 C 306.425781 961.367188 271.542969 1203.398438 262.804688 1265.445312 C 237.636719 1267.445312 208.117188 1263.328125 186.347656 1256.070312 C 186.347656 1256.070312 207.460938 833.417969 210.164062 768.820312 C 252.589844 762.0625 405.367188 761.347656 450.929688 768.328125 C 458.46875 835.003906 458.140625 1159.925781 463.398438 1255.347656 "/>
<path style=" stroke:none;fill-rule:nonzero;fill:rgb(97.599792%,23.899841%,46.699524%);fill-opacity:1;" d="M 167.910156 912.214844 C 250.941406 950.292969 416.941406 950.816406 486.183594 893.742188 C 472.742188 775.789062 439.042969 599.285156 422.140625 552.453125 C 293.464844 552.941406 249.660156 561.261719 171.78125 579.609375 C 190.765625 692.660156 185.90625 761.867188 167.910156 912.214844 "/>
<path style=" stroke:none;fill-rule:nonzero;fill:rgb(100%,75.698853%,62.399292%);fill-opacity:1;" d="M 472.03125 771.765625 C 473.21875 776.554688 505.792969 792.027344 534.585938 758.71875 C 557.242188 732.503906 515.644531 648.261719 509.199219 628.179688 L 444.6875 645.820312 C 448.925781 689.882812 459.335938 720.527344 472.03125 771.765625 "/>
<path style=" stroke:none;fill-rule:nonzero;fill:rgb(97.599792%,23.899841%,46.699524%);fill-opacity:1;" d="M 558.09375 677.585938 C 536.585938 693.410156 497.03125 712.488281 472.203125 722.601562 C 433.746094 682.058594 393.792969 557.289062 393.417969 553.035156 C 423.660156 552.046875 448.460938 551.871094 458.628906 556.179688 C 477.929688 577.089844 526.839844 638.859375 558.09375 677.585938 "/>
<path style=" stroke:none;fill-rule:nonzero;fill:rgb(13.299561%,28.599548%,39.99939%);fill-opacity:1;" d="M 462.023438 875.066406 C 437.183594 891.3125 253.082031 925.5 217.265625 895.207031 C 217.265625 895.207031 220.746094 742.214844 218.707031 664.945312 C 262.953125 661.546875 393.792969 654.679688 432.941406 654.679688 C 438.382812 700.277344 448.527344 765.238281 462.023438 875.066406 "/>
<path style=" stroke:none;fill-rule:nonzero;fill:rgb(72.898865%,92.199707%,95.698547%);fill-opacity:1;" d="M 236.304688 681.574219 L 245.941406 681.066406 L 244.746094 658.304688 C 244.683594 657.125 245.617188 656.089844 246.796875 656.027344 L 253.175781 655.691406 L 252.621094 645.125 L 224.242188 646.617188 L 224.792969 657.179688 L 232.832031 656.757812 C 234.011719 656.699219 235.046875 657.628906 235.109375 658.808594 Z M 248.335938 685.28125 L 234.367188 686.015625 C 233.183594 686.074219 232.148438 685.144531 232.089844 683.964844 L 230.894531 661.199219 L 222.855469 661.621094 C 221.675781 661.683594 220.640625 660.753906 220.578125 659.574219 L 219.800781 644.679688 C 219.734375 643.5 220.667969 642.464844 221.847656 642.402344 L 254.558594 640.683594 C 255.742188 640.621094 256.773438 641.554688 256.835938 642.734375 L 257.617188 657.628906 C 257.679688 658.808594 256.746094 659.84375 255.566406 659.90625 L 249.1875 660.242188 L 250.382812 683.003906 C 250.445312 684.183594 249.515625 685.21875 248.335938 685.28125 "/>
<path style=" stroke:none;fill-rule:nonzero;fill:rgb(13.299561%,28.599548%,39.99939%);fill-opacity:1;" d="M 226.132812 647.6875 C 225.824219 645.308594 221.960938 599.523438 211.488281 567.601562 L 236.375 563.757812 C 248.839844 597.433594 251.195312 643.832031 251.523438 646.355469 Z M 226.132812 647.6875 "/>
<path style=" stroke:none;fill-rule:nonzero;fill:rgb(94.099426%,98.799133%,100%);fill-opacity:1;" d="M 231.890625 684.535156 C 233.054688 689.972656 238.402344 693.4375 243.828125 692.273438 C 249.253906 691.113281 252.707031 685.765625 251.542969 680.328125 C 250.378906 674.894531 245.035156 671.429688 239.609375 672.589844 C 234.183594 673.75 230.726562 679.101562 231.890625 684.535156 "/>
<path style=" stroke:none;fill-rule:nonzero;fill:rgb(72.898865%,92.199707%,95.698547%);fill-opacity:1;" d="M 409.707031 667.378906 L 419.347656 666.871094 L 418.152344 644.113281 C 418.09375 642.933594 419.023438 641.898438 420.203125 641.835938 L 426.582031 641.5 L 426.03125 630.933594 L 397.644531 632.421875 L 398.199219 642.988281 L 406.238281 642.570312 C 407.417969 642.503906 408.453125 643.4375 408.515625 644.617188 Z M 421.738281 671.089844 L 407.773438 671.820312 C 406.59375 671.882812 405.558594 670.953125 405.496094 669.769531 L 404.300781 647.011719 L 396.261719 647.429688 C 395.082031 647.492188 394.046875 646.5625 393.988281 645.378906 L 393.203125 630.484375 C 393.140625 629.304688 394.074219 628.269531 395.253906 628.207031 L 427.964844 626.492188 C 429.144531 626.429688 430.179688 627.363281 430.242188 628.542969 L 431.023438 643.4375 C 431.085938 644.617188 430.15625 645.652344 428.972656 645.714844 L 422.597656 646.046875 L 423.789062 668.8125 C 423.851562 669.992188 422.917969 671.027344 421.738281 671.089844 "/>
<path style=" stroke:none;fill-rule:nonzero;fill:rgb(13.299561%,28.599548%,39.99939%);fill-opacity:1;" d="M 399.539062 633.496094 C 399.230469 631.117188 390.828125 583.046875 380.355469 551.125 L 406.480469 550.859375 C 418.945312 584.535156 424.601562 629.640625 424.929688 632.164062 Z M 399.539062 633.496094 "/>
<path style=" stroke:none;fill-rule:nonzero;fill:rgb(94.099426%,98.799133%,100%);fill-opacity:1;" d="M 405.296875 670.34375 C 406.460938 675.78125 411.804688 679.242188 417.234375 678.082031 C 422.660156 676.921875 426.113281 671.570312 424.949219 666.136719 C 423.785156 660.703125 418.441406 657.234375 413.015625 658.394531 C 407.585938 659.558594 404.132812 664.90625 405.296875 670.34375 "/>
<use xlink:href="#surface5" transform="matrix(1,0,0,1,276,701)" mask="url(#mask0)"/>
<path style=" stroke:none;fill-rule:nonzero;fill:rgb(13.299561%,28.599548%,39.99939%);fill-opacity:1;" d="M 491.046875 860.253906 C 491.046875 860.253906 374.039062 865.050781 333.960938 864.457031 C 292 863.839844 166.359375 855.171875 166.359375 855.171875 C 166.359375 855.171875 151.460938 983.25 142.363281 1049.828125 C 187.84375 1058.652344 261.101562 1067.75 306.53125 1070.003906 C 315.695312 997.117188 318.335938 956.769531 326.148438 955.714844 C 326.699219 955.640625 327.636719 955.117188 328.792969 954.308594 C 329.929688 955.152344 330.847656 955.707031 331.394531 955.796875 C 339.175781 957.09375 340.542969 997.503906 347.425781 1070.644531 C 392.90625 1069.808594 466.414062 1063.015625 512.148438 1055.617188 C 505.136719 988.785156 491.046875 860.253906 491.046875 860.253906 "/>
<use xlink:href="#surface8" transform="matrix(1,0,0,1,151,891)" mask="url(#mask1)"/>
<path style=" stroke:none;fill-rule:nonzero;fill:rgb(13.299561%,28.599548%,39.99939%);fill-opacity:1;" d="M 213.589844 900.984375 C 207.769531 941.996094 188.988281 974.082031 137.949219 968.960938 C 141.875 940.023438 144.957031 917.3125 146.933594 895.738281 Z M 213.589844 900.984375 "/>
<path style=" stroke:none;fill-rule:nonzero;fill:rgb(18.798828%,39.199829%,51.799011%);fill-opacity:1;" d="M 135.175781 1062.207031 L 313.652344 1076.617188 L 317.234375 1030.101562 L 138.753906 1015.6875 Z M 135.175781 1062.207031 "/>
<use xlink:href="#surface11" transform="matrix(1,0,0,1,436,896)" mask="url(#mask2)"/>
<path style=" stroke:none;fill-rule:nonzero;fill:rgb(13.299561%,28.599548%,39.99939%);fill-opacity:1;" d="M 445.1875 904.609375 C 449.722656 945.78125 467.488281 978.441406 518.664062 974.921875 C 515.648438 945.875 513.273438 923.078125 511.976562 901.453125 Z M 445.1875 904.609375 "/>
<path style=" stroke:none;fill-rule:nonzero;fill:rgb(18.798828%,39.199829%,51.799011%);fill-opacity:1;" d="M 519.109375 1068.214844 L 340.269531 1077.035156 L 338.148438 1030.425781 L 516.988281 1021.609375 Z M 519.109375 1068.214844 "/>
<path style=" stroke:none;fill-rule:nonzero;fill:rgb(18.798828%,39.199829%,51.799011%);fill-opacity:1;" d="M 135.175781 1062.207031 L 313.652344 1076.617188 L 317.234375 1030.101562 L 138.753906 1015.6875 Z M 135.175781 1062.207031 "/>
<path style=" stroke:none;fill-rule:nonzero;fill:rgb(100%,75.698853%,62.399292%);fill-opacity:1;" d="M 384.367188 563.539062 C 384.214844 559.597656 383.238281 555.867188 381.980469 552.222656 C 341.421875 552.886719 280.773438 557.101562 237.863281 564.179688 C 237.679688 565.898438 237.089844 567.546875 237.15625 569.3125 C 238.355469 599.800781 272.277344 623.230469 312.929688 621.636719 C 353.578125 620.042969 385.566406 594.03125 384.367188 563.539062 "/>
<path style=" stroke:none;fill-rule:nonzero;fill:rgb(100%,75.698853%,62.399292%);fill-opacity:1;" d="M 359.007812 476.328125 L 368.730469 565.402344 C 370.824219 584.558594 348.175781 602.75 318.144531 606.03125 C 288.117188 609.308594 262.074219 596.433594 259.984375 577.28125 L 250.257812 488.203125 Z M 359.007812 476.328125 "/>
<use xlink:href="#surface14" transform="matrix(1,0,0,1,238,499)" mask="url(#mask3)"/>
<g clip-path="url(#clip9)" clip-rule="nonzero">
<use xlink:href="#surface17" transform="matrix(1,0,0,1,42,1348)" mask="url(#mask4)"/>
</g>
<path style=" stroke:none;fill-rule:nonzero;fill:rgb(92.89856%,27.099609%,48.999023%);fill-opacity:1;" d="M 388.625 1234.21875 L 406.484375 1233.195312 C 406.207031 1228.261719 401.976562 1224.421875 397.046875 1224.699219 C 392.113281 1224.976562 388.347656 1229.285156 388.625 1234.21875 M 406.484375 1233.195312 L 424.34375 1232.171875 C 424.0625 1227.238281 419.839844 1223.417969 414.90625 1223.695312 C 409.972656 1223.972656 406.207031 1228.261719 406.484375 1233.195312 M 424.34375 1232.171875 L 442.199219 1231.148438 C 441.921875 1226.214844 437.699219 1222.410156 432.765625 1222.6875 C 427.835938 1222.96875 424.0625 1227.238281 424.34375 1232.171875 M 460.058594 1230.125 L 474.808594 1229.28125 C 474.828125 1228.203125 474.863281 1225.832031 474.90625 1222.925781 C 473.203125 1221.414062 470.933594 1220.539062 468.484375 1220.675781 C 463.554688 1220.957031 459.785156 1225.195312 460.058594 1230.125 M 442.199219 1231.148438 L 460.058594 1230.125 C 459.785156 1225.195312 455.554688 1221.40625 450.625 1221.683594 C 445.695312 1221.960938 441.921875 1226.214844 442.199219 1231.148438 M 376.242188 1227.125 C 376.785156 1230.308594 377.253906 1233.09375 377.546875 1234.953125 L 388.625 1234.21875 C 388.347656 1229.285156 384.121094 1225.425781 379.1875 1225.707031 C 378.011719 1225.773438 377.246094 1226.652344 376.242188 1227.125 "/>
<path style=" stroke:none;fill-rule:nonzero;fill:rgb(100%,97.299194%,70.199585%);fill-opacity:1;" d="M 391.675781 1328.203125 C 392.144531 1330.78125 475.992188 1322.789062 476.183594 1319.628906 C 477.789062 1293.253906 474.96875 1239.167969 474.808594 1229.28125 L 377.546875 1234.953125 C 381.867188 1262.097656 388.679688 1311.722656 391.675781 1328.203125 "/>
<path style=" stroke:none;fill-rule:nonzero;fill:rgb(100%,97.299194%,70.199585%);fill-opacity:1;" d="M 461.578125 1272.359375 C 460.21875 1266.152344 402.253906 1276.589844 391.699219 1274.734375 C 391.417969 1289.074219 383.148438 1312.1875 383.554688 1331.671875 C 383.828125 1345.242188 395.109375 1355.15625 407.507812 1357.402344 C 455.378906 1366.082031 581.929688 1392.222656 587.476562 1357.074219 C 592.035156 1328.222656 516.511719 1306.304688 461.578125 1272.359375 "/>
<path style=" stroke:none;fill-rule:nonzero;fill:rgb(97.599792%,23.899841%,46.699524%);fill-opacity:1;" d="M 383.742188 1297.394531 C 384.601562 1296.324219 386.988281 1296.222656 388.761719 1297.957031 C 400.449219 1304.761719 419.019531 1311.746094 434.328125 1316.480469 C 439.542969 1318.09375 444.714844 1319.328125 449.796875 1320.234375 C 454.765625 1305.179688 467.648438 1287.175781 479.5 1279.792969 C 481.976562 1278.238281 485.136719 1279.136719 486.585938 1281.746094 C 488.027344 1284.363281 487.191406 1287.746094 484.71875 1289.277344 C 475.585938 1294.960938 465.097656 1309.359375 460.390625 1321.480469 C 492.257812 1325.4375 516.628906 1325.082031 528.425781 1304.640625 C 565.40625 1326.246094 604.042969 1333.566406 603.027344 1358.277344 C 601.78125 1388.628906 382.945312 1359.84375 382.945312 1359.84375 C 383.371094 1341.589844 383.214844 1313.816406 383.742188 1297.394531 "/>
<path style=" stroke:none;fill-rule:nonzero;fill:rgb(70.999146%,14.898682%,32.199097%);fill-opacity:1;" d="M 382.589844 1348.804688 C 382.640625 1352.863281 382.660156 1356.773438 382.574219 1360.25 C 382.574219 1360.25 571.84375 1394.5625 601.242188 1367.441406 C 602.292969 1366.46875 603.492188 1361.628906 602.960938 1360.070312 C 550.007812 1372.003906 430.546875 1356.109375 382.589844 1348.804688 "/>
<path style=" stroke:none;fill-rule:nonzero;fill:rgb(92.89856%,27.099609%,48.999023%);fill-opacity:1;" d="M 475.304688 1243.460938 C 435.8125 1247.503906 418.945312 1248.023438 379.703125 1248.953125 C 379.496094 1247.5625 379.28125 1246.179688 379.082031 1244.847656 C 418.671875 1243.910156 435.433594 1243.414062 475.148438 1239.351562 C 475.199219 1240.722656 475.246094 1241.898438 475.304688 1243.460938 "/>
<path style=" stroke:none;fill-rule:nonzero;fill:rgb(92.89856%,27.099609%,48.999023%);fill-opacity:1;" d="M 254.183594 1224.699219 C 249.253906 1224.421875 245.027344 1228.261719 244.746094 1233.195312 L 262.605469 1234.222656 C 262.882812 1229.285156 259.117188 1224.976562 254.183594 1224.699219 M 236.324219 1223.691406 C 231.390625 1223.417969 227.167969 1227.238281 226.890625 1232.171875 L 244.746094 1233.195312 C 245.027344 1228.261719 241.257812 1223.972656 236.324219 1223.691406 M 218.464844 1222.6875 C 213.535156 1222.410156 209.308594 1226.214844 209.03125 1231.148438 L 226.890625 1232.171875 C 227.167969 1227.238281 223.398438 1222.96875 218.464844 1222.6875 M 182.746094 1220.675781 C 180.296875 1220.539062 178.027344 1221.414062 176.324219 1222.925781 C 176.367188 1225.832031 176.402344 1228.203125 176.421875 1229.28125 L 191.175781 1230.125 C 191.449219 1225.195312 187.675781 1220.957031 182.746094 1220.675781 M 200.605469 1221.683594 C 195.675781 1221.40625 191.449219 1225.195312 191.175781 1230.125 L 209.03125 1231.148438 C 209.308594 1226.214844 205.535156 1221.960938 200.605469 1221.683594 M 272.042969 1225.707031 C 267.109375 1225.425781 262.882812 1229.285156 262.605469 1234.222656 L 273.683594 1234.953125 C 273.976562 1233.09375 274.445312 1230.308594 274.988281 1227.125 C 273.984375 1226.652344 273.222656 1225.769531 272.042969 1225.707031 "/>
<path style=" stroke:none;fill-rule:nonzero;fill:rgb(100%,97.299194%,70.199585%);fill-opacity:1;" d="M 259.554688 1328.203125 C 259.085938 1330.78125 175.238281 1322.789062 175.046875 1319.628906 C 173.441406 1293.253906 176.261719 1239.167969 176.421875 1229.28125 L 273.683594 1234.953125 C 269.363281 1262.097656 262.550781 1311.722656 259.554688 1328.203125 "/>
<path style=" stroke:none;fill-rule:nonzero;fill:rgb(100%,97.299194%,70.199585%);fill-opacity:1;" d="M 189.652344 1272.359375 C 191.011719 1266.152344 248.976562 1276.589844 259.53125 1274.734375 C 259.8125 1289.074219 268.082031 1312.1875 267.679688 1331.671875 C 267.402344 1345.242188 256.121094 1355.15625 243.722656 1357.402344 C 195.851562 1366.082031 69.300781 1392.222656 63.753906 1357.074219 C 59.199219 1328.222656 134.71875 1306.304688 189.652344 1272.359375 "/>
<path style=" stroke:none;fill-rule:nonzero;fill:rgb(97.599792%,23.899841%,46.699524%);fill-opacity:1;" d="M 267.492188 1297.394531 C 266.628906 1296.324219 264.242188 1296.222656 262.46875 1297.957031 C 250.78125 1304.761719 232.214844 1311.746094 216.90625 1316.480469 C 211.6875 1318.09375 206.515625 1319.328125 201.433594 1320.234375 C 196.464844 1305.179688 183.582031 1287.175781 171.734375 1279.792969 C 169.253906 1278.238281 166.09375 1279.136719 164.648438 1281.746094 C 163.203125 1284.363281 164.039062 1287.746094 166.511719 1289.277344 C 175.644531 1294.960938 186.132812 1309.359375 190.839844 1321.480469 C 158.976562 1325.4375 134.605469 1325.082031 122.804688 1304.640625 C 85.824219 1326.246094 47.1875 1333.566406 48.203125 1358.277344 C 49.449219 1388.628906 268.289062 1359.84375 268.289062 1359.84375 C 267.859375 1341.589844 268.015625 1313.816406 267.492188 1297.394531 "/>
<path style=" stroke:none;fill-rule:nonzero;fill:rgb(70.999146%,14.898682%,32.199097%);fill-opacity:1;" d="M 268.640625 1348.804688 C 268.59375 1352.863281 268.574219 1356.773438 268.65625 1360.25 C 268.65625 1360.25 79.386719 1394.5625 49.992188 1367.441406 C 48.941406 1366.46875 47.738281 1361.628906 48.273438 1360.070312 C 101.222656 1372.003906 220.683594 1356.109375 268.640625 1348.804688 "/>
<path style=" stroke:none;fill-rule:nonzero;fill:rgb(92.89856%,27.099609%,48.999023%);fill-opacity:1;" d="M 175.925781 1243.460938 C 215.417969 1247.503906 232.289062 1248.023438 271.53125 1248.953125 C 271.738281 1247.5625 271.949219 1246.179688 272.152344 1244.847656 C 232.558594 1243.910156 215.796875 1243.414062 176.082031 1239.351562 C 176.03125 1240.722656 175.984375 1241.898438 175.925781 1243.460938 "/>
<path style=" stroke:none;fill-rule:nonzero;fill:rgb(100%,75.698853%,62.399292%);fill-opacity:1;" d="M 522.445312 657.46875 C 520.3125 656.625 516.558594 655.855469 511.578125 655.148438 C 504.929688 653.425781 490.207031 651.988281 483.550781 653.390625 C 460.019531 661.25 411.472656 677.660156 376.613281 692.121094 C 352.28125 702.21875 378.039062 737.121094 402.785156 733.128906 C 420.484375 730.277344 439.316406 718.121094 456.917969 704.269531 C 459.425781 705.441406 461.941406 706.753906 464.476562 708.457031 C 469.789062 712.132812 476.949219 734.832031 487.101562 732.214844 C 493.335938 730.605469 486.183594 707.179688 483.148438 704.109375 C 480.9375 701.878906 472.535156 693.292969 470.847656 692.515625 C 474.820312 694.105469 479.449219 696.332031 483.46875 699.105469 C 488.738281 702.855469 495.601562 725.640625 505.789062 723.15625 C 512.046875 721.625 504.28125 694.09375 497.414062 688.613281 C 495.964844 687.453125 485.90625 681.089844 482.609375 679.679688 C 486.21875 680.714844 498.359375 685.226562 501.609375 687.6875 C 509.8125 693.890625 514.324219 714.730469 524.226562 709.570312 C 528.683594 707.246094 518.796875 681.234375 514.648438 677.730469 C 511.828125 675.351562 501.199219 670.042969 496.996094 668.320312 C 498.199219 668.382812 509.070312 670.386719 514.785156 672.59375 C 520.621094 674.929688 538.449219 696.691406 547.152344 687.292969 C 549.554688 684.703125 531.824219 661.179688 522.445312 657.46875 "/>
<path style=" stroke:none;fill-rule:nonzero;fill:rgb(100%,75.698853%,62.399292%);fill-opacity:1;" d="M 434.722656 716.535156 C 406.191406 734.179688 327.257812 783.914062 287.441406 800.933594 C 256.683594 814.078125 217.847656 752.539062 256.898438 735.511719 C 302.589844 715.59375 369.304688 695.113281 401.195312 686.597656 C 412.957031 685.632812 432.117188 711.816406 434.722656 716.535156 "/>
<path style=" stroke:none;fill-rule:nonzero;fill:rgb(100%,75.698853%,62.399292%);fill-opacity:1;" d="M 319.59375 762.84375 C 322.628906 766.734375 314.667969 801.910156 270.691406 803.972656 C 236.078125 805.59375 196.382812 739.664062 184.574219 722.183594 L 237.453125 663.53125 C 269.480469 694.085938 287.148438 721.203125 319.59375 762.84375 "/>
<use xlink:href="#surface20" transform="matrix(1,0,0,1,261,683)" mask="url(#mask5)"/>
<path style=" stroke:none;fill-rule:nonzero;fill:rgb(100%,75.698853%,62.399292%);fill-opacity:1;" d="M 323.773438 679.4375 C 357.128906 683.039062 463.121094 701.90625 499.019531 714.015625 C 530.710938 724.707031 526.410156 789.105469 483.71875 780.359375 C 434.882812 770.355469 322.742188 731.480469 291.597656 720.539062 C 268.671875 707.863281 285.691406 675.324219 323.773438 679.4375 "/>
<path style=" stroke:none;fill-rule:nonzero;fill:rgb(97.599792%,23.899841%,46.699524%);fill-opacity:1;" d="M 170.40625 774.640625 C 197.859375 762.847656 259.691406 724.417969 281.121094 708.316406 C 194.699219 580.28125 176.03125 583.273438 173.632812 579.671875 C 166.5625 581.59375 132.613281 635.484375 130.917969 650.011719 C 128.890625 667.316406 148.761719 720.042969 170.40625 774.640625 "/>
<path style=" stroke:none;fill-rule:nonzero;fill:rgb(100%,75.698853%,62.399292%);fill-opacity:1;" d="M 200.75 640.710938 C 202.945312 640.046875 206.753906 639.59375 211.773438 639.304688 C 218.542969 638.140625 233.332031 637.9375 239.847656 639.886719 C 262.640625 649.679688 305.554688 666.019531 340.617188 682.109375 C 364.5625 693.097656 350.988281 744.714844 308.460938 735.203125 C 280.261719 728.890625 278.53125 708.082031 262.148438 692.808594 C 259.550781 693.769531 256.933594 694.867188 254.265625 696.355469 C 248.664062 699.574219 239.636719 721.597656 229.738281 718.140625 C 223.660156 716.015625 232.738281 693.273438 236.023438 690.464844 C 238.410156 688.425781 247.5 680.574219 249.25 679.9375 C 245.15625 681.191406 240.359375 683.019531 236.117188 685.453125 C 230.558594 688.75 221.816406 710.882812 211.871094 707.554688 C 205.765625 705.511719 215.796875 678.722656 223.097656 673.832031 C 224.636719 672.800781 235.191406 667.296875 238.59375 666.167969 C 234.910156 666.894531 222.4375 670.378906 218.992188 672.558594 C 210.304688 678.058594 204.070312 698.453125 194.632812 692.480469 C 190.382812 689.792969 202.40625 664.695312 206.832031 661.554688 C 209.839844 659.417969 220.875 655.007812 225.203125 653.644531 C 224.003906 653.605469 213 654.703125 207.121094 656.417969 C 201.113281 658.265625 181.53125 678.464844 173.640625 668.371094 C 171.464844 665.589844 191.09375 643.625 200.75 640.710938 "/>
<path style=" stroke:none;fill-rule:nonzero;fill:rgb(95.698547%,69.398499%,54.899597%);fill-opacity:1;" d="M 527.597656 366.835938 C 523.113281 412.332031 486.320312 445.355469 454.988281 445.074219 C 423.652344 444.789062 412.472656 409.40625 411.671875 366.242188 C 410.878906 323.074219 435.636719 288.199219 466.972656 288.59375 C 509.804688 289.136719 531.808594 324.074219 527.597656 366.835938 "/>
<path style=" stroke:none;fill-rule:nonzero;fill:rgb(67.799377%,36.099243%,28.599548%);fill-opacity:1;" d="M 34.957031 259.1875 C 41.195312 428.957031 184.472656 505.761719 319.164062 486.296875 C 453.859375 466.832031 535.042969 336.007812 497.867188 175.179688 C 477.226562 85.886719 388.398438 21.054688 259.847656 40.519531 C 123.019531 61.234375 30.117188 127.585938 34.957031 259.1875 "/>
<path style=" stroke:none;fill-rule:nonzero;fill:rgb(100%,75.698853%,62.399292%);fill-opacity:1;" d="M 95.679688 210.054688 C 87.34375 238.984375 140.785156 477.5625 173.285156 506.949219 C 207.761719 538.125 336.078125 549.710938 361.140625 546.089844 C 387.984375 542.210938 472.441406 496.824219 489.519531 454.621094 C 509.71875 404.675781 489.523438 196.734375 477.292969 172.605469 C 435.941406 91.121094 360.996094 99.003906 263.519531 113.09375 C 172.324219 126.269531 117.296875 134.988281 95.679688 210.054688 "/>
<path style=" stroke:none;fill-rule:nonzero;fill:rgb(100%,75.698853%,62.399292%);fill-opacity:1;" d="M 56.589844 444.824219 C 75.644531 489.460938 125.191406 511.84375 158.464844 502.203125 C 191.742188 492.558594 166.957031 355.160156 103.929688 352.34375 C 51.441406 349.996094 38.675781 402.871094 56.589844 444.824219 "/>
<path style=" stroke:none;fill-rule:nonzero;fill:rgb(87.799072%,58.399963%,42.399597%);fill-opacity:1;" d="M 94.015625 437.242188 C 99.589844 456.46875 124.0625 469.769531 139.855469 461.890625 C 146.015625 458.820312 124.960938 392.003906 114.632812 393.53125 C 97.167969 396.109375 88.445312 418.015625 94.015625 437.242188 "/>
<path style=" stroke:none;fill-rule:nonzero;fill:rgb(100%,59.199524%,59.199524%);fill-opacity:1;" d="M 170.609375 454.046875 C 171.652344 463.875 186.152344 470.394531 203 468.605469 C 219.839844 466.820312 232.65625 457.410156 231.613281 447.582031 C 230.574219 437.753906 216.066406 431.238281 199.226562 433.023438 C 182.378906 434.808594 169.570312 444.222656 170.609375 454.046875 "/>
<path style=" stroke:none;fill-rule:nonzero;fill:rgb(43.899536%,8.599854%,3.09906%);fill-opacity:1;" d="M 415.152344 421.972656 C 409.867188 406.480469 385.976562 414.035156 345.972656 419.363281 C 343.878906 419.640625 335.75 420.78125 333.65625 421.085938 C 293.726562 426.953125 268.679688 426.257812 267.859375 442.605469 C 266.273438 474.097656 309.546875 502.1875 350.160156 496.628906 L 350.859375 496.527344 C 391.4375 490.71875 425.328125 451.820312 415.152344 421.972656 "/>
<path style=" stroke:none;fill-rule:nonzero;fill:rgb(86.698914%,41.999817%,35.699463%);fill-opacity:1;" d="M 350.945312 497.167969 L 350.238281 497.269531 C 337.066406 499.0625 322.894531 497.242188 309.214844 492.039062 L 308.378906 491.734375 L 308.957031 491.0625 C 318.175781 480.128906 331.652344 472.925781 346.902344 470.789062 C 362.128906 468.65625 377.066406 471.878906 388.960938 479.855469 L 389.695312 480.34375 L 388.980469 480.867188 C 377.226562 489.628906 364.078125 495.28125 350.945312 497.167969 "/>
<path style=" stroke:none;fill-rule:nonzero;fill:rgb(100%,100%,100%);fill-opacity:1;" d="M 342.6875 440.675781 C 314.757812 444.589844 290.292969 439.191406 285.773438 428.105469 L 285.507812 427.429688 L 394.023438 412.226562 L 393.953125 412.957031 C 392.628906 424.855469 370.589844 436.769531 342.6875 440.675781 "/>
<path style=" stroke:none;fill-rule:nonzero;fill:rgb(100%,59.199524%,59.199524%);fill-opacity:1;" d="M 431.117188 414.417969 C 432.902344 423.019531 444.804688 427.824219 457.703125 425.152344 C 470.597656 422.472656 479.613281 413.328125 477.824219 404.726562 C 476.039062 396.121094 464.132812 391.316406 451.238281 393.992188 C 438.339844 396.671875 429.332031 405.816406 431.117188 414.417969 "/>
<path style=" stroke:none;fill-rule:nonzero;fill:rgb(76.899719%,45.098877%,35.699463%);fill-opacity:1;" d="M 322.253906 400.085938 C 323.332031 399.929688 324.164062 399.015625 324.191406 397.894531 C 324.351562 389.933594 329.773438 384.023438 337.996094 382.835938 C 346.265625 381.636719 353.292969 385.851562 355.488281 393.320312 C 355.84375 394.515625 357.105469 395.207031 358.292969 394.851562 C 359.492188 394.5 360.175781 393.246094 359.824219 392.046875 C 357.015625 382.484375 347.769531 376.855469 337.351562 378.363281 C 326.988281 379.859375 319.882812 387.671875 319.667969 397.796875 C 319.644531 399.050781 320.636719 400.078125 321.878906 400.105469 Z M 322.253906 400.085938 "/>
<path style=" stroke:none;fill-rule:nonzero;fill:rgb(45.899963%,16.099548%,7.099915%);fill-opacity:1;" d="M 151.628906 284.109375 C 153.117188 283.78125 154.492188 282.917969 155.445312 281.589844 C 167.632812 264.648438 195.660156 254.472656 220.699219 257.964844 C 224.171875 258.464844 227.417969 256.019531 227.917969 252.503906 C 228.40625 249.003906 225.96875 245.773438 222.460938 245.277344 C 192.589844 241.136719 160.019531 253.265625 145.046875 274.128906 C 142.984375 277.003906 143.640625 280.996094 146.515625 283.058594 C 148.046875 284.167969 149.914062 284.492188 151.628906 284.109375 "/>
<path style=" stroke:none;fill-rule:nonzero;fill:rgb(45.899963%,16.099548%,7.099915%);fill-opacity:1;" d="M 471.652344 235.175781 C 473.335938 234.984375 474.933594 234.109375 475.980469 232.613281 C 477.949219 229.832031 477.292969 225.988281 474.511719 224.019531 C 454.300781 209.726562 420.839844 208.921875 394.949219 222.070312 C 391.910156 223.625 390.703125 227.332031 392.246094 230.367188 C 393.796875 233.410156 397.515625 234.621094 400.539062 233.070312 C 422.234375 222.015625 450.976562 222.449219 467.390625 234.082031 C 468.671875 234.992188 470.191406 235.34375 471.652344 235.175781 "/>
<path style=" stroke:none;fill-rule:nonzero;fill:rgb(97.599792%,99.598694%,100%);fill-opacity:1;" d="M 387.757812 377.550781 C 387.757812 377.550781 448.128906 390.773438 464.421875 351.925781 C 484.273438 304.59375 438.472656 276.253906 413.199219 286.824219 C 389.816406 296.601562 371.535156 324.878906 387.757812 377.550781 "/>
<path style=" stroke:none;fill-rule:nonzero;fill:rgb(46.699524%,19.599915%,12.5%);fill-opacity:1;" d="M 460.238281 295.859375 C 447.253906 281.636719 432.277344 278.765625 417.136719 282.863281 C 401.660156 287.050781 387.722656 302.664062 385.300781 317.007812 C 391.421875 300.347656 405.175781 292.558594 413.917969 288.90625 C 427.835938 283.066406 448.015625 287.988281 458.9375 302.257812 C 468.648438 314.960938 471.171875 335.785156 463.882812 353.15625 C 473.710938 340.628906 473.769531 310.675781 460.238281 295.859375 "/>
<path style=" stroke:none;fill-rule:nonzero;fill:rgb(38.798523%,9.799194%,5.099487%);fill-opacity:1;" d="M 395.5 328.988281 C 392.644531 345.367188 401.773438 362.117188 415.882812 366.394531 C 429.992188 370.671875 443.742188 360.859375 446.597656 344.476562 C 449.449219 328.09375 440.324219 311.347656 426.210938 307.070312 C 412.105469 302.792969 398.351562 312.605469 395.5 328.988281 "/>
<path style=" stroke:none;fill-rule:nonzero;fill:rgb(99.598694%,100%,99.598694%);fill-opacity:1;" d="M 396.835938 323.84375 C 396.042969 328.386719 398.574219 333.039062 402.492188 334.222656 C 406.40625 335.410156 410.222656 332.6875 411.011719 328.140625 C 411.804688 323.597656 409.269531 318.949219 405.359375 317.765625 C 401.441406 316.578125 397.625 319.296875 396.835938 323.84375 "/>
<path style=" stroke:none;fill-rule:nonzero;fill:rgb(97.599792%,99.598694%,100%);fill-opacity:1;" d="M 285.777344 393.164062 C 285.777344 393.164062 221.304688 424.957031 190.148438 393.171875 C 152.183594 354.4375 195.160156 312.890625 227.375 314.90625 C 257.1875 316.769531 287.171875 337.863281 285.777344 393.164062 "/>
<path style=" stroke:none;fill-rule:nonzero;fill:rgb(46.699524%,19.599915%,12.5%);fill-opacity:1;" d="M 176.730469 338.476562 C 186.90625 320.808594 203.03125 313.304688 221.605469 312.386719 C 240.59375 311.449219 261.53125 321.871094 268.941406 334.753906 C 256.566406 320.847656 238.375 317.808594 227.234375 317.117188 C 209.484375 315.984375 188.097656 327.09375 180.289062 344.152344 C 173.351562 359.332031 177.226562 379.957031 191.164062 394.171875 C 175.90625 385.375 166.125 356.886719 176.730469 338.476562 "/>
<path style=" stroke:none;fill-rule:nonzero;fill:rgb(38.798523%,9.799194%,5.099487%);fill-opacity:1;" d="M 197.238281 358.53125 C 193.371094 375.082031 203.648438 391.632812 220.203125 395.507812 C 236.753906 399.378906 253.304688 389.097656 257.175781 372.546875 C 261.050781 355.996094 250.769531 339.4375 234.21875 335.570312 C 217.667969 331.699219 201.109375 341.980469 197.238281 358.53125 "/>
<path style=" stroke:none;fill-rule:nonzero;fill:rgb(99.598694%,100%,99.598694%);fill-opacity:1;" d="M 198.972656 353.320312 C 197.902344 357.914062 200.753906 362.507812 205.34375 363.578125 C 209.9375 364.652344 214.53125 361.800781 215.605469 357.207031 C 216.679688 352.617188 213.828125 348.023438 209.234375 346.949219 C 204.640625 345.875 200.050781 348.730469 198.972656 353.320312 "/>
<path style=" stroke:none;fill-rule:nonzero;fill:rgb(67.799377%,36.099243%,28.599548%);fill-opacity:1;" d="M 67.148438 256.300781 C 50.410156 254.539062 65.996094 133.199219 141.921875 87.613281 C 267.527344 23.332031 361.984375 36.042969 398.632812 52.542969 C 466.164062 82.945312 498.46875 118.796875 519.929688 203.4375 C 532.726562 253.914062 530.25 271.257812 557.929688 280 C 530.433594 291.386719 528.898438 285.847656 519.050781 273.015625 C 520.917969 314.972656 527.609375 333.140625 549.660156 344.539062 C 515.667969 357.714844 499.117188 335.386719 493.324219 302.414062 C 486.421875 263.128906 484.660156 187.410156 477.523438 173.964844 C 473.394531 166.179688 425.921875 125.777344 413.636719 126.746094 C 386.867188 128.859375 367.816406 225.660156 273.1875 234.375 C 309.046875 209.519531 326.640625 177.933594 343.054688 133.851562 C 336.136719 139.113281 329.300781 145.335938 322.660156 152.714844 C 252.730469 230.453125 183.128906 255.597656 115.871094 257.019531 C 134.390625 326.675781 153.988281 415.511719 79.160156 426.917969 C 85.757812 416.546875 99.777344 366.671875 75.53125 331.988281 C 67.128906 338.59375 70.632812 303.113281 67.148438 256.300781 "/>
<path style=" stroke:none;fill-rule:nonzero;fill:rgb(93.699646%,17.999268%,47.099304%);fill-opacity:1;" d="M 58.328125 282.453125 C 59.101562 165.484375 113.640625 83.902344 236.652344 41.851562 C 337.613281 7.335938 410.691406 44.96875 441.246094 77.867188 C 396.285156 43.652344 337.976562 23.4375 236.183594 60.683594 C 142.9375 94.804688 75.136719 159.566406 58.328125 282.453125 "/>
<path style=" stroke:none;fill-rule:nonzero;fill:rgb(100%,26.298523%,52.89917%);fill-opacity:1;" d="M 264.261719 57.363281 C 309.714844 73.398438 354.386719 77.238281 365.515625 73.367188 C 379.058594 68.65625 377.421875 21.683594 347.003906 4.621094 C 324.414062 -8.050781 275.003906 6.757812 258.144531 31.738281 C 249.484375 44.570312 250.160156 52.390625 264.261719 57.363281 "/>
<path style=" stroke:none;fill-rule:nonzero;fill:rgb(100%,26.298523%,52.89917%);fill-opacity:1;" d="M 246.070312 66.25 C 208.582031 106.753906 189.765625 137.445312 176.335938 139.941406 C 159.992188 142.976562 105.796875 82.636719 118.816406 59.796875 C 132.546875 35.710938 212.730469 27.371094 238.328125 38.449219 C 254.347656 45.382812 257.699219 53.679688 246.070312 66.25 "/>
<path style=" stroke:none;fill-rule:nonzero;fill:rgb(84.698486%,10.198975%,38.798523%);fill-opacity:1;" d="M 278.5 53.3125 C 300.65625 49.761719 355.121094 40.449219 357.027344 57.28125 C 359.078125 75.339844 297.632812 59.148438 278.5 53.3125 "/>
<path style=" stroke:none;fill-rule:nonzero;fill:rgb(84.698486%,10.198975%,38.798523%);fill-opacity:1;" d="M 230.664062 72.632812 C 211.503906 81.847656 164.023438 104.003906 173.625 119.488281 C 183.921875 136.097656 219.960938 88.222656 230.664062 72.632812 "/>
<path style=" stroke:none;fill-rule:nonzero;fill:rgb(100%,26.298523%,52.89917%);fill-opacity:1;" d="M 270.128906 43.914062 C 272.492188 53.011719 266.613281 62.414062 257.007812 64.90625 C 247.402344 67.398438 237.695312 62.039062 235.335938 52.9375 C 232.976562 43.835938 238.851562 34.4375 248.460938 31.945312 C 258.066406 29.449219 267.769531 34.8125 270.128906 43.914062 "/>
</g>
</svg>
