<?xml version="1.0" encoding="UTF-8"?>
<svg xmlns="http://www.w3.org/2000/svg" xmlns:xlink="http://www.w3.org/1999/xlink" width="1339.06pt" height="2146.52pt" viewBox="0 0 1339.06 2146.52" version="1.1">
<defs>
<clipPath id="clip1">
  <path d="M 373 1592 L 758 1592 L 758 2146.519531 L 373 2146.519531 Z M 373 1592 "/>
</clipPath>
<filter id="alpha" filterUnits="objectBoundingBox" x="0%" y="0%" width="100%" height="100%">
  <feColorMatrix type="matrix" in="SourceGraphic" values="0 0 0 0 1 0 0 0 0 1 0 0 0 0 1 0 0 0 1 0"/>
</filter>
<mask id="mask0">
  <g filter="url(#alpha)">
<rect x="0" y="0" width="1339.06" height="2146.52" style="fill:rgb(0%,0%,0%);fill-opacity:0.210007;stroke:none;"/>
  </g>
</mask>
<clipPath id="clip3">
  <path d="M 0.957031 0.140625 L 136.046875 0.140625 L 136.046875 145.539062 L 0.957031 145.539062 Z M 0.957031 0.140625 "/>
</clipPath>
<clipPath id="clip2">
  <rect x="0" y="0" width="137" height="146"/>
</clipPath>
<g id="surface5" clip-path="url(#clip2)">
<g clip-path="url(#clip3)" clip-rule="nonzero">
<path style=" stroke:none;fill-rule:nonzero;fill:rgb(0%,0%,0%);fill-opacity:1;" d="M 136.046875 121.914062 L 71.792969 145.542969 L 6.738281 124.359375 L 0.957031 8.867188 L 127.191406 0.136719 Z M 136.046875 121.914062 "/>
</g>
</g>
<clipPath id="clip4">
  <path d="M 960 1558 L 1339.058594 1558 L 1339.058594 1749 L 960 1749 Z M 960 1558 "/>
</clipPath>
<clipPath id="clip5">
  <path d="M 994 1600 L 1339.058594 1600 L 1339.058594 1749 L 994 1749 Z M 994 1600 "/>
</clipPath>
<mask id="mask1">
  <g filter="url(#alpha)">
<rect x="0" y="0" width="1339.06" height="2146.52" style="fill:rgb(0%,0%,0%);fill-opacity:0.190002;stroke:none;"/>
  </g>
</mask>
<clipPath id="clip7">
  <path d="M 0.0273438 0.730469 L 220.773438 0.730469 L 220.773438 192.570312 L 0.0273438 192.570312 Z M 0.0273438 0.730469 "/>
</clipPath>
<clipPath id="clip6">
  <rect x="0" y="0" width="221" height="193"/>
</clipPath>
<g id="surface8" clip-path="url(#clip6)">
<g clip-path="url(#clip7)" clip-rule="nonzero">
<path style=" stroke:none;fill-rule:nonzero;fill:rgb(49.798584%,8.999634%,1.199341%);fill-opacity:1;" d="M 10.007812 29.894531 C -15.289062 67.9375 9.152344 128.660156 64.597656 165.527344 C 120.042969 202.394531 185.496094 201.449219 210.792969 163.40625 C 236.085938 125.367188 211.644531 64.640625 156.199219 27.769531 C 100.757812 -9.097656 35.304688 -8.144531 10.007812 29.894531 "/>
</g>
</g>
<mask id="mask2">
  <g filter="url(#alpha)">
<rect x="0" y="0" width="1339.06" height="2146.52" style="fill:rgb(0%,0%,0%);fill-opacity:0.179993;stroke:none;"/>
  </g>
</mask>
<clipPath id="clip9">
  <path d="M 0.0351562 0.65625 L 33.46875 0.65625 L 33.46875 94.09375 L 0.0351562 94.09375 Z M 0.0351562 0.65625 "/>
</clipPath>
<clipPath id="clip8">
  <rect x="0" y="0" width="34" height="95"/>
</clipPath>
<g id="surface11" clip-path="url(#clip8)">
<g clip-path="url(#clip9)" clip-rule="nonzero">
<path style=" stroke:none;fill-rule:nonzero;fill:rgb(41.999817%,9.399414%,3.09906%);fill-opacity:1;" d="M 1.402344 1.445312 C 10.027344 10.957031 32.679688 53.824219 33.351562 60.832031 C 33.957031 67.207031 32.117188 83.75 30.324219 94.089844 C 26.914062 83.976562 16.417969 51.523438 14.320312 42.5625 C 12.914062 36.554688 -4.96875 -5.585938 1.402344 1.445312 "/>
</g>
</g>
</defs>
<g id="surface1">
<g clip-path="url(#clip1)" clip-rule="nonzero">
<path style=" stroke:none;fill-rule:nonzero;fill:rgb(59.599304%,59.999084%,59.999084%);fill-opacity:1;" d="M 381.953125 2146.519531 C 385.582031 2146.519531 389 2145.332031 390.296875 2143.414062 L 757.25 1598.511719 C 758.890625 1596.097656 756.472656 1593.445312 751.84375 1592.59375 C 747.476562 1591.742188 742.246094 1592.976562 740.5625 1595.425781 L 373.609375 2140.328125 C 371.964844 2142.746094 374.386719 2145.398438 379.011719 2146.246094 C 379.964844 2146.429688 380.960938 2146.519531 381.953125 2146.519531 "/>
</g>
<path style=" stroke:none;fill-rule:nonzero;fill:rgb(65.899658%,65.899658%,65.899658%);fill-opacity:1;" d="M 302.234375 2126.1875 C 305.863281 2126.1875 309.28125 2125 310.578125 2123.082031 L 677.574219 1578.179688 C 679.214844 1575.765625 676.792969 1573.109375 672.167969 1572.261719 C 667.847656 1571.414062 662.570312 1572.648438 660.882812 1575.09375 L 293.890625 2120 C 292.246094 2122.414062 294.667969 2125.066406 299.292969 2125.917969 C 300.246094 2126.097656 301.238281 2126.1875 302.234375 2126.1875 "/>
<path style=" stroke:none;fill-rule:nonzero;fill:rgb(100%,75.698853%,62.399292%);fill-opacity:1;" d="M 773.128906 1308.542969 C 797.976562 1278.910156 826.683594 1258.132812 856.566406 1246.507812 C 896.785156 1230.855469 938.9375 1251.277344 959.445312 1283.226562 C 970.664062 1300.703125 983.398438 1366.246094 974.773438 1433.367188 C 939.871094 1423.710938 846.082031 1413.917969 792.292969 1391 C 808.136719 1367.921875 780.074219 1323.953125 773.128906 1308.542969 "/>
<path style=" stroke:none;fill-rule:nonzero;fill:rgb(59.599304%,59.999084%,59.999084%);fill-opacity:1;" d="M 568.40625 2084.585938 C 564.773438 2084.585938 561.355469 2082.316406 560.058594 2078.664062 L 193.105469 1039.695312 C 191.464844 1035.089844 193.886719 1030.035156 198.511719 1028.410156 C 202.882812 1026.789062 208.109375 1029.144531 209.796875 1033.816406 L 576.75 2072.78125 C 578.390625 2077.386719 575.972656 2082.445312 571.34375 2084.066406 C 570.394531 2084.410156 569.398438 2084.585938 568.40625 2084.585938 "/>
<path style=" stroke:none;fill-rule:nonzero;fill:rgb(41.999817%,9.799194%,9.799194%);fill-opacity:1;" d="M 391.039062 1573.773438 L 454.597656 1633.082031 L 447.261719 1556.433594 L 383.707031 1497.125 Z M 391.039062 1573.773438 "/>
<path style=" stroke:none;fill-rule:nonzero;fill:rgb(82.699585%,19.999695%,19.999695%);fill-opacity:1;" d="M 715.933594 1468.542969 L 383.707031 1497.125 L 447.261719 1556.433594 L 778.136719 1527.847656 Z M 715.933594 1468.542969 "/>
<path style=" stroke:none;fill-rule:nonzero;fill:rgb(62.69989%,9.399414%,9.399414%);fill-opacity:1;" d="M 785.472656 1604.496094 L 454.597656 1633.082031 L 447.261719 1556.433594 L 778.136719 1527.847656 Z M 785.472656 1604.496094 "/>
<path style=" stroke:none;fill-rule:nonzero;fill:rgb(100%,75.698853%,62.399292%);fill-opacity:1;" d="M 931 1253.875 C 934.941406 1264.9375 842.679688 1295.09375 838.042969 1284.261719 C 768.761719 1122.363281 670.371094 924.894531 647.234375 885.558594 L 766.632812 841.738281 C 804.820312 935.828125 878.90625 1107.757812 931 1253.875 "/>
<path style=" stroke:none;fill-rule:nonzero;fill:rgb(67.799377%,36.099243%,28.599548%);fill-opacity:1;" d="M 874.28125 932.765625 C 949.074219 736.222656 929.507812 652.292969 841.421875 240.984375 L 91.238281 217.769531 C 5.109375 508.046875 -25.792969 736.183594 23.519531 900.550781 C -2.453125 802.589844 29.105469 465.308594 70.480469 412.097656 C 16.945312 642.167969 16.285156 916.988281 87.292969 960.382812 C 45.277344 882.496094 60.691406 657.53125 71.335938 630.414062 C 70.921875 707.910156 70.867188 858.402344 108.992188 971.230469 C 264.871094 1059.609375 696.65625 1011.882812 819.742188 969.625 C 836.804688 943.617188 831.15625 775.328125 833.84375 737.5 C 853.570312 802.589844 850.671875 900.707031 842.179688 967.03125 C 894.789062 900.78125 894.632812 695.949219 858.125 395.523438 C 909.125 635.59375 917.652344 771.925781 874.28125 932.765625 "/>
<path style=" stroke:none;fill-rule:nonzero;fill:rgb(96.899414%,66.299438%,50.59967%);fill-opacity:1;" d="M 763.816406 1643.15625 C 763.621094 1645.863281 881.488281 1689.203125 881.890625 1685.9375 C 885.679688 1655.246094 930.570312 1516.402344 953.832031 1394.054688 C 959.199219 1365.824219 949.25 1336.21875 930.191406 1315.984375 C 893.828125 1277.378906 807.941406 1265.207031 807.941406 1265.207031 C 809.601562 1294.667969 769.425781 1564.25 763.816406 1643.15625 "/>
<path style=" stroke:none;fill-rule:nonzero;fill:rgb(96.899414%,92.89856%,94.499207%);fill-opacity:1;" d="M 740.507812 1688.976562 C 739.90625 1691.886719 877.246094 1735.832031 878.738281 1732.382812 C 889.761719 1706.847656 912.164062 1643.941406 918.117188 1628.984375 L 766.367188 1581.382812 C 760.230469 1610.800781 744.367188 1670.320312 740.507812 1688.976562 "/>
<path style=" stroke:none;fill-rule:nonzero;fill:rgb(89.7995%,16.099548%,37.298584%);fill-opacity:1;" d="M 924.097656 1716.617188 C 926.371094 1708.234375 927.65625 1696.679688 929.40625 1686.453125 C 930.710938 1678.863281 869.378906 1644.160156 860.441406 1658.988281 C 858.152344 1662.78125 856.324219 1666.246094 854.84375 1669.488281 C 843.644531 1666.394531 829.28125 1658.359375 810.875 1647.429688 C 785.050781 1632.089844 769.648438 1622.550781 754.898438 1610.394531 C 741.457031 1635.351562 722.628906 1670.320312 706.261719 1695.992188 C 706.261719 1695.992188 947.449219 1905.96875 1013.25 1891.75 C 1031.796875 1887.746094 992.679688 1798.554688 924.097656 1716.617188 "/>
<path style=" stroke:none;fill-rule:nonzero;fill:rgb(63.899231%,9.799194%,21.598816%);fill-opacity:1;" d="M 716.164062 1679.683594 C 712.730469 1685.511719 709.375 1691.105469 706.261719 1695.992188 C 706.261719 1695.992188 947.449219 1905.96875 1013.25 1891.75 C 1015.867188 1891.191406 1017.3125 1888.90625 1017.71875 1885.214844 C 933.40625 1857.503906 776.878906 1730.613281 716.164062 1679.683594 "/>
<path style=" stroke:none;fill-rule:nonzero;fill:rgb(82.699585%,85.499573%,89.7995%);fill-opacity:1;" d="M 975.421875 1779.898438 C 973.855469 1781.75 971.113281 1782.0625 969.21875 1780.417969 C 957.988281 1770.652344 937.738281 1767.078125 920.375 1771.371094 C 919.152344 1771.671875 917.929688 1771.433594 916.953125 1770.808594 C 916.03125 1770.222656 915.328125 1769.292969 915.042969 1768.15625 C 914.460938 1765.796875 915.898438 1763.414062 918.257812 1762.832031 C 938.195312 1757.902344 961.472656 1762.320312 974.894531 1773.703125 C 976.753906 1775.265625 976.984375 1778.042969 975.421875 1779.898438 M 906.597656 1749.195312 C 905.335938 1749.5625 904.039062 1749.335938 903.007812 1748.683594 C 902.136719 1748.125 901.457031 1747.261719 901.148438 1746.199219 C 900.46875 1743.863281 901.820312 1741.421875 904.148438 1740.746094 C 923.601562 1735.105469 943.640625 1738.507812 959.085938 1750.214844 C 961.03125 1751.675781 961.414062 1754.429688 959.953125 1756.371094 C 958.492188 1758.308594 955.625 1758.828125 953.796875 1757.230469 C 946.007812 1751.359375 929.546875 1742.542969 906.597656 1749.195312 M 892.878906 1728.675781 C 891.496094 1729.257812 889.996094 1729.070312 888.828125 1728.328125 C 888.09375 1727.859375 887.488281 1727.167969 887.132812 1726.308594 C 886.195312 1724.0625 887.265625 1721.492188 889.507812 1720.558594 C 908.230469 1712.789062 930.847656 1716.277344 944.585938 1728.945312 C 946.359375 1730.601562 946.464844 1733.386719 944.808594 1735.167969 C 943.15625 1736.945312 940.417969 1737.023438 938.59375 1735.402344 C 927.363281 1724.886719 908.535156 1722.1875 892.878906 1728.675781 "/>
<path style=" stroke:none;fill-rule:nonzero;fill:rgb(8.599854%,22.399902%,30.999756%);fill-opacity:1;" d="M 372.339844 1340.0625 C 373.882812 1361.542969 380.84375 1401.714844 394.96875 1435.40625 C 414.441406 1481.835938 487.648438 1503.476562 542.511719 1510.730469 C 570.910156 1514.480469 774.328125 1474.398438 814.71875 1463.011719 C 815.417969 1436.953125 821.679688 1293.863281 813.265625 1261.039062 C 762.972656 1261.457031 642.332031 1262.3125 557.933594 1268.054688 C 521.621094 1270.523438 410.976562 1294.335938 372.339844 1340.0625 "/>
<path style=" stroke:none;fill-rule:nonzero;fill:rgb(13.299561%,28.599548%,39.99939%);fill-opacity:1;" d="M 464.078125 1397.910156 L 364.839844 1416.929688 C 362.015625 1407.28125 344.390625 1302.75 364.707031 1282.855469 C 381.773438 1266.148438 454.097656 1257.566406 454.097656 1257.566406 Z M 464.078125 1397.910156 "/>
<path style=" stroke:none;fill-rule:nonzero;fill:rgb(100%,75.698853%,62.399292%);fill-opacity:1;" d="M 971.265625 1639.796875 C 973.25 1641.648438 1080.960938 1577.085938 1078.675781 1574.722656 C 1057.15625 1552.511719 977.238281 1430.421875 896.585938 1335.523438 C 877.976562 1313.625 848.6875 1302.796875 820.96875 1304.929688 C 768.089844 1309.007812 713.566406 1362.050781 713.566406 1362.050781 C 737.550781 1379.25 913.355469 1585.90625 971.265625 1639.796875 "/>
<path style=" stroke:none;fill-rule:nonzero;fill:rgb(98.799133%,25.898743%,45.098877%);fill-opacity:1;" d="M 731.71875 1085.480469 C 766.648438 1061.5 835.558594 1000.007812 870.097656 972.835938 C 817.039062 895.660156 765.761719 826.796875 759.449219 824.148438 C 693.703125 796.59375 581.039062 895.394531 572.660156 899.238281 C 604.675781 933.152344 677.859375 1011.835938 731.71875 1085.480469 "/>
<path style=" stroke:none;fill-rule:nonzero;fill:rgb(98.799133%,25.898743%,45.098877%);fill-opacity:1;" d="M 728.148438 818.890625 C 706.085938 813.636719 658.144531 815.589844 574.285156 823.34375 C 484.390625 831.660156 411.492188 847.832031 363.890625 868.300781 C 347.566406 984.929688 360.5625 1200.164062 354.726562 1302.949219 C 444.152344 1322.761719 692.914062 1317.246094 738.601562 1242.949219 C 738.277344 1196.925781 753.605469 920.828125 728.148438 818.890625 "/>
<path style=" stroke:none;fill-rule:nonzero;fill:rgb(100%,75.698853%,62.399292%);fill-opacity:1;" d="M 592.792969 929.238281 C 641.984375 919.15625 688.578125 878 654.175781 808.078125 C 595.019531 815.503906 504.027344 820.851562 442.238281 841.25 C 427.597656 847.792969 428.804688 860.636719 438.714844 871.878906 C 466.558594 903.472656 517.5 944.667969 592.792969 929.238281 "/>
<path style=" stroke:none;fill-rule:nonzero;fill:rgb(13.299561%,28.599548%,39.99939%);fill-opacity:1;" d="M 400.007812 1351.707031 C 444.0625 1360.085938 697.742188 1318.839844 751.753906 1313.957031 C 751.753906 1313.957031 732.289062 1098.882812 730.980469 960.238281 C 663.777344 966.925781 470.359375 979.796875 410.816406 980.597656 C 409.261719 1054.8125 404.328125 1172.890625 400.007812 1351.707031 "/>
<path style=" stroke:none;fill-rule:nonzero;fill:rgb(72.898865%,92.199707%,95.698547%);fill-opacity:1;" d="M 691.839844 944.046875 C 691.699219 942.136719 689.992188 940.671875 688.082031 940.820312 L 675.105469 941.804688 L 673.808594 924.746094 L 719.632812 921.261719 L 720.929688 938.316406 L 710.632812 939.101562 C 708.726562 939.246094 707.261719 940.957031 707.40625 942.859375 L 710.199219 979.613281 L 694.640625 980.792969 Z M 717.453125 982.574219 L 714.65625 945.820312 L 724.953125 945.039062 C 726.863281 944.894531 728.328125 943.1875 728.183594 941.277344 L 726.351562 917.234375 C 726.207031 915.328125 724.5 913.863281 722.59375 914.007812 L 669.785156 918.023438 C 667.878906 918.171875 666.414062 919.878906 666.558594 921.78125 L 668.386719 945.832031 C 668.535156 947.734375 670.242188 949.203125 672.144531 949.058594 L 685.121094 948.070312 L 687.917969 984.816406 C 688.066406 986.726562 689.773438 988.191406 691.675781 988.046875 L 714.222656 986.332031 C 716.132812 986.1875 717.597656 984.476562 717.453125 982.574219 "/>
<path style=" stroke:none;fill-rule:nonzero;fill:rgb(13.299561%,28.599548%,39.99939%);fill-opacity:1;" d="M 676.902344 926.410156 C 676.308594 922.542969 670.707031 847.929688 644.496094 809.347656 L 683.085938 798.550781 C 718.726562 841.988281 717.261719 919.1875 717.890625 923.292969 Z M 676.902344 926.410156 "/>
<path style=" stroke:none;fill-rule:nonzero;fill:rgb(94.099426%,98.799133%,100%);fill-opacity:1;" d="M 687.617188 985.753906 C 689.710938 994.496094 698.480469 999.890625 707.207031 997.808594 C 715.9375 995.722656 721.316406 986.949219 719.226562 978.203125 C 717.136719 969.460938 708.367188 964.0625 699.640625 966.152344 C 690.910156 968.234375 685.527344 977.007812 687.617188 985.753906 "/>
<path style=" stroke:none;fill-rule:nonzero;fill:rgb(72.898865%,92.199707%,95.698547%);fill-opacity:1;" d="M 444.242188 1001.441406 L 428.6875 1002.71875 L 425.667969 965.992188 C 425.507812 964.085938 423.789062 962.628906 421.886719 962.785156 L 411.59375 963.636719 L 410.191406 946.582031 L 455.992188 942.816406 L 457.390625 959.867188 L 444.421875 960.933594 C 442.519531 961.089844 441.0625 962.808594 441.21875 964.710938 Z M 425.769531 1009.996094 L 448.308594 1008.140625 C 450.210938 1007.980469 451.667969 1006.261719 451.511719 1004.359375 L 448.488281 967.628906 L 461.457031 966.5625 C 463.363281 966.40625 464.820312 964.691406 464.664062 962.785156 L 462.6875 938.75 C 462.53125 936.84375 460.8125 935.386719 458.910156 935.546875 L 406.121094 939.890625 C 404.21875 940.042969 402.761719 941.761719 402.921875 943.664062 L 404.894531 967.699219 C 405.054688 969.601562 406.773438 971.058594 408.675781 970.90625 L 418.96875 970.058594 L 421.992188 1006.789062 C 422.148438 1008.691406 423.867188 1010.148438 425.769531 1009.996094 "/>
<path style=" stroke:none;fill-rule:nonzero;fill:rgb(13.299561%,28.599548%,39.99939%);fill-opacity:1;" d="M 453.203125 944.945312 C 453.179688 941.03125 444.738281 873.601562 443.980469 837.90625 L 404.019531 849.839844 C 403.773438 895.875 412.203125 944.164062 412.230469 948.3125 Z M 453.203125 944.945312 "/>
<path style=" stroke:none;fill-rule:nonzero;fill:rgb(94.099426%,98.799133%,100%);fill-opacity:1;" d="M 451.953125 1005.234375 C 451.261719 1014.195312 443.453125 1020.90625 434.507812 1020.21875 C 425.554688 1019.535156 418.863281 1011.714844 419.550781 1002.757812 C 420.238281 993.792969 428.050781 987.082031 437 987.765625 C 445.949219 988.453125 452.640625 996.269531 451.953125 1005.234375 "/>
<use xlink:href="#surface5" transform="matrix(1,0,0,1,530,1042)" mask="url(#mask0)"/>
<path style=" stroke:none;fill-rule:nonzero;fill:rgb(18.798828%,39.199829%,51.799011%);fill-opacity:1;" d="M 664.835938 1156.558594 L 605.355469 1180.808594 L 543.105469 1160.894531 L 537.203125 1052.535156 L 656.757812 1045.480469 Z M 664.835938 1156.558594 "/>
<path style=" stroke:none;fill-rule:nonzero;fill:rgb(13.299561%,28.599548%,39.99939%);fill-opacity:1;" d="M 360.386719 1387.96875 C 362.242188 1414.332031 370.5625 1447.125 385.078125 1480.644531 C 405.082031 1526.84375 478.535156 1547.640625 533.476562 1554.257812 C 561.917969 1557.6875 764.859375 1515.257812 805.117188 1503.402344 C 805.515625 1477.335938 810.121094 1334.1875 801.332031 1301.460938 C 751.046875 1302.464844 630.421875 1304.707031 546.097656 1311.425781 C 509.816406 1314.316406 398.496094 1341.800781 360.386719 1387.96875 "/>
<path style=" stroke:none;fill-rule:nonzero;fill:rgb(100%,100%,100%);fill-opacity:1;" d="M 1020.234375 1716.945312 C 1022.375 1719.007812 1132.964844 1626.46875 1130.84375 1623.367188 C 1115.164062 1600.390625 1073.992188 1547.820312 1064.542969 1534.792969 L 943.15625 1637.550781 C 964.730469 1658.472656 1006.539062 1703.707031 1020.234375 1716.945312 "/>
<g clip-path="url(#clip4)" clip-rule="nonzero">
<path style=" stroke:none;fill-rule:nonzero;fill:rgb(97.599792%,23.899841%,46.699524%);fill-opacity:1;" d="M 1144.011719 1581.167969 C 1138.433594 1574.507812 1129.695312 1566.84375 1122.308594 1559.558594 C 1116.828125 1554.152344 1053.28125 1584.617188 1060.335938 1600.429688 C 1062.136719 1604.476562 1063.933594 1607.953125 1065.746094 1611.023438 C 1056.800781 1618.441406 1042 1625.628906 1022.503906 1634.476562 C 995.152344 1646.890625 978.515625 1654.066406 960.109375 1659.214844 C 972.898438 1684.515625 990.8125 1719.957031 1002.511719 1748.066406 C 1002.511719 1748.066406 1312.691406 1670.300781 1338.671875 1608.199219 C 1345.988281 1590.695312 1250.449219 1571.773438 1144.011719 1581.167969 "/>
</g>
<g clip-path="url(#clip5)" clip-rule="nonzero">
<path style=" stroke:none;fill-rule:nonzero;fill:rgb(69.799805%,14.898682%,31.799316%);fill-opacity:1;" d="M 994.792969 1730.617188 C 997.613281 1736.765625 1000.285156 1742.714844 1002.511719 1748.066406 C 1002.511719 1748.066406 1312.691406 1670.304688 1338.671875 1608.199219 C 1339.703125 1605.730469 1338.65625 1603.234375 1335.859375 1600.796875 C 1264.910156 1654.105469 1071.300781 1709.9375 994.792969 1730.617188 "/>
</g>
<path style=" stroke:none;fill-rule:nonzero;fill:rgb(82.699585%,85.499573%,89.7995%);fill-opacity:1;" d="M 1225.277344 1575.257812 C 1225.902344 1577.601562 1224.585938 1580.027344 1222.15625 1580.644531 C 1207.726562 1584.269531 1193.210938 1598.839844 1186.800781 1615.539062 C 1186.347656 1616.714844 1185.453125 1617.578125 1184.382812 1618.027344 C 1183.375 1618.445312 1182.214844 1618.488281 1181.117188 1618.070312 C 1178.84375 1617.203125 1177.710938 1614.65625 1178.582031 1612.386719 C 1185.945312 1593.214844 1202.882812 1576.648438 1219.894531 1572.144531 C 1222.242188 1571.515625 1224.648438 1572.914062 1225.277344 1575.257812 M 1160.730469 1614.15625 C 1160.308594 1615.40625 1159.378906 1616.339844 1158.253906 1616.808594 C 1157.300781 1617.203125 1156.203125 1617.269531 1155.15625 1616.914062 C 1152.847656 1616.136719 1151.617188 1613.628906 1152.398438 1611.332031 C 1158.898438 1592.148438 1173.152344 1577.65625 1191.585938 1571.679688 C 1193.890625 1570.921875 1196.375 1572.179688 1197.132812 1574.492188 C 1197.886719 1576.796875 1196.671875 1579.445312 1194.316406 1580.035156 C 1185.046875 1583.066406 1168.402344 1591.527344 1160.730469 1614.15625 M 1136.054688 1613.675781 C 1135.738281 1615.140625 1134.726562 1616.269531 1133.445312 1616.800781 C 1132.644531 1617.132812 1131.734375 1617.234375 1130.820312 1617.035156 C 1128.449219 1616.515625 1126.949219 1614.167969 1127.464844 1611.796875 C 1131.800781 1591.996094 1147.597656 1575.433594 1165.847656 1571.417969 C 1168.21875 1570.90625 1170.5625 1572.414062 1171.074219 1574.789062 C 1171.59375 1577.160156 1170.085938 1579.453125 1167.710938 1580.019531 C 1152.667969 1583.21875 1139.679688 1597.117188 1136.054688 1613.675781 "/>
<path style=" stroke:none;fill-rule:nonzero;fill:rgb(100%,75.698853%,62.399292%);fill-opacity:1;" d="M 627.371094 698.992188 L 644.3125 837.734375 C 647.359375 869.890625 623.183594 898.304688 577.304688 903.730469 C 525.277344 909.882812 481.03125 877.167969 461.582031 854.78125 L 442.953125 718.519531 Z M 627.371094 698.992188 "/>
<use xlink:href="#surface8" transform="matrix(1,0,0,1,434,685)" mask="url(#mask1)"/>
<path style=" stroke:none;fill-rule:nonzero;fill:rgb(95.698547%,69.398499%,54.899597%);fill-opacity:1;" d="M 872.472656 514.15625 C 866.367188 587.820312 807.714844 642.132812 757.054688 642.464844 C 706.390625 642.789062 687.421875 585.863281 685.046875 516.101562 C 682.675781 446.339844 721.824219 389.335938 772.5 389.183594 C 841.757812 388.984375 878.207031 444.914062 872.472656 514.15625 "/>
<path style=" stroke:none;fill-rule:nonzero;fill:rgb(67.799377%,36.099243%,28.599548%);fill-opacity:1;" d="M 68.929688 303.539062 C 100.160156 613.160156 321.242188 747.371094 538.503906 712.515625 C 755.769531 677.667969 883.742188 464.132812 819.597656 205.058594 C 783.984375 61.214844 657.566406 -17.746094 433.808594 3.382812 C 267.105469 19.125 98.523438 104.574219 68.929688 303.539062 "/>
<path style=" stroke:none;fill-rule:nonzero;fill:rgb(100%,75.698853%,62.399292%);fill-opacity:1;" d="M 170.257812 271.535156 C 157.515625 318.515625 249.902344 702.878906 303.183594 749.570312 C 359.699219 799.105469 567.441406 814.617188 607.867188 808.128906 C 651.171875 801.183594 786.574219 725.691406 813.121094 657.03125 C 844.527344 575.777344 806.65625 240.109375 786.265625 201.410156 C 717.375 70.710938 596.410156 85.339844 439.167969 110.566406 C 292.066406 134.160156 203.324219 149.636719 170.257812 271.535156 "/>
<path style=" stroke:none;fill-rule:nonzero;fill:rgb(100%,75.698853%,62.399292%);fill-opacity:1;" d="M 112.960938 652.0625 C 144.886719 723.75 225.554688 758.691406 279.105469 742.269531 C 332.65625 725.84375 289.140625 504.335938 187.171875 501.359375 C 102.253906 498.886719 82.953125 584.6875 112.960938 652.0625 "/>
<path style=" stroke:none;fill-rule:nonzero;fill:rgb(87.799072%,58.399963%,42.399597%);fill-opacity:1;" d="M 173.28125 638.867188 C 182.769531 669.816406 222.671875 690.703125 248.011719 677.566406 C 257.890625 672.445312 222.175781 564.953125 205.511719 567.679688 C 177.34375 572.289062 163.792969 607.921875 173.28125 638.867188 "/>
<path style=" stroke:none;fill-rule:nonzero;fill:rgb(100%,59.199524%,59.199524%);fill-opacity:1;" d="M 313.84375 643.777344 C 315.773438 659.632812 339.378906 669.804688 366.570312 666.5 C 393.753906 663.1875 414.238281 647.648438 412.308594 631.789062 C 410.375 615.929688 386.765625 605.757812 359.582031 609.0625 C 332.386719 612.375 311.914062 627.917969 313.84375 643.777344 "/>
<path style=" stroke:none;fill-rule:nonzero;fill:rgb(43.899536%,8.599854%,3.09906%);fill-opacity:1;" d="M 452.808594 635.492188 C 453.320312 607.949219 502.347656 606.40625 565.953125 595.667969 C 569.28125 595.105469 582.234375 593.015625 585.578125 592.5 C 649.328125 582.660156 685.542969 569.898438 692.957031 596.425781 C 706.363281 644.363281 661.863281 711.660156 597.21875 722.3125 L 596.101562 722.496094 C 526.546875 733.792969 451.835938 688.550781 452.808594 635.492188 "/>
<path style=" stroke:none;fill-rule:nonzero;fill:rgb(86.698914%,41.999817%,35.699463%);fill-opacity:1;" d="M 524.125 715.417969 C 539.085938 696.519531 561.472656 683.578125 586.785156 679.488281 C 611.761719 675.449219 636.410156 680.363281 656.394531 693.15625 C 645.972656 702.648438 633.875 710.847656 620.394531 716.265625 C 613.101562 719.199219 605.277344 721.457031 597.289062 722.773438 L 596.171875 722.957031 C 578.9375 725.753906 561.382812 725.011719 544.738281 721.546875 L 543.457031 721.242188 C 536.796875 719.792969 530.402344 717.695312 524.125 715.417969 "/>
<path style=" stroke:none;fill-rule:nonzero;fill:rgb(100%,100%,100%);fill-opacity:1;" d="M 489.691406 608.753906 L 489.230469 607.617188 C 489.230469 607.617188 560.269531 594.957031 585.347656 591.113281 C 609.261719 587.449219 662.136719 579.683594 662.136719 579.683594 L 662.054688 580.910156 C 660.566406 600.972656 625.886719 621.503906 581.390625 628.6875 C 536.925781 635.875 497.511719 627.3125 489.691406 608.753906 "/>
<path style=" stroke:none;fill-rule:nonzero;fill:rgb(100%,59.199524%,59.199524%);fill-opacity:1;" d="M 734.003906 573.160156 C 737.105469 587.027344 756.46875 594.496094 777.257812 589.847656 C 798.039062 585.195312 812.378906 570.1875 809.273438 556.320312 C 806.171875 542.457031 786.804688 534.988281 766.023438 539.636719 C 745.234375 544.289062 730.90625 559.300781 734.003906 573.160156 "/>
<path style=" stroke:none;fill-rule:nonzero;fill:rgb(76.899719%,45.098877%,35.699463%);fill-opacity:1;" d="M 541.335938 573.058594 C 543.070312 572.785156 544.398438 571.289062 544.410156 569.472656 C 544.472656 556.601562 553.085938 546.90625 566.351562 544.78125 C 579.6875 542.644531 591.160156 549.277344 594.890625 561.296875 C 595.5 563.21875 597.550781 564.300781 599.46875 563.695312 C 601.394531 563.097656 602.46875 561.054688 601.871094 559.125 C 597.085938 543.734375 582.003906 534.867188 565.195312 537.566406 C 548.476562 540.242188 537.1875 553.054688 537.097656 569.433594 C 537.089844 571.453125 538.714844 573.09375 540.730469 573.109375 Z M 541.335938 573.058594 "/>
<path style=" stroke:none;fill-rule:nonzero;fill:rgb(67.799377%,36.099243%,28.599548%);fill-opacity:1;" d="M 131.488281 365.960938 C 104.386719 363.527344 126.535156 166.976562 248.136719 91.363281 C 449.589844 -15.703125 603.347656 0.84375 662.277344 28.222656 C 748.019531 68.0625 825.347656 132.828125 862.167969 269.128906 C 884.121094 350.40625 880.554688 378.507812 925.519531 391.953125 C 881.359375 411.046875 878.738281 402.136719 862.484375 381.628906 C 866.566406 449.421875 872.84375 481.527344 902.417969 497.957031 C 847.789062 520.109375 832.21875 489.5625 820.894531 436.636719 C 801.964844 348.144531 784.597656 250.003906 772.726562 228.441406 C 765.855469 215.960938 708.230469 145.9375 688.398438 147.808594 C 645.175781 151.894531 616.800781 308.875 464.039062 325.34375 C 521.390625 284.25 549.042969 232.746094 574.46875 161.066406 C 563.417969 169.753906 552.519531 179.980469 541.972656 192.078125 C 430.871094 319.515625 318.972656 361.90625 210.28125 365.902344 C 241.96875 478.046875 275.878906 621.171875 155.195312 641.492188 C 165.597656 624.5625 187.015625 543.570312 146.941406 488.117188 C 133.519531 499.003906 138.296875 441.554688 131.488281 365.960938 "/>
<path style=" stroke:none;fill-rule:nonzero;fill:rgb(45.899963%,16.099548%,7.099915%);fill-opacity:1;" d="M 262.574219 389.851562 C 264.972656 389.28125 267.175781 387.859375 268.679688 385.683594 C 287.964844 357.988281 333.015625 340.835938 373.574219 345.847656 C 379.207031 346.574219 384.398438 342.539062 385.121094 336.839844 C 385.820312 331.171875 381.792969 326.011719 376.113281 325.296875 C 327.714844 319.347656 275.367188 339.777344 251.683594 373.882812 C 248.421875 378.582031 249.582031 385.019531 254.277344 388.285156 C 256.789062 390.042969 259.8125 390.511719 262.574219 389.851562 "/>
<path style=" stroke:none;fill-rule:nonzero;fill:rgb(45.899963%,16.099548%,7.099915%);fill-opacity:1;" d="M 769.601562 303.933594 C 772.320312 303.578125 774.878906 302.117188 776.535156 299.679688 C 779.648438 295.136719 778.484375 288.933594 773.945312 285.820312 C 740.910156 263.222656 686.789062 262.761719 645.265625 284.671875 C 640.390625 287.257812 638.53125 293.285156 641.105469 298.152344 C 643.691406 303.035156 649.734375 304.894531 654.578125 302.3125 C 689.375 283.898438 735.855469 283.875 762.679688 302.269531 C 764.78125 303.710938 767.246094 304.238281 769.601562 303.933594 "/>
<path style=" stroke:none;fill-rule:nonzero;fill:rgb(97.599792%,99.598694%,100%);fill-opacity:1;" d="M 646.667969 534.992188 C 646.667969 534.992188 744.601562 554.847656 769.964844 491.640625 C 800.871094 414.617188 726.113281 369.953125 685.523438 387.671875 C 647.957031 404.074219 619.121094 450.238281 646.667969 534.992188 "/>
<path style=" stroke:none;fill-rule:nonzero;fill:rgb(46.699524%,19.599915%,12.5%);fill-opacity:1;" d="M 761.792969 401.09375 C 740.445312 378.433594 716.164062 374.167969 691.789062 381.167969 C 666.871094 388.332031 644.730469 413.921875 641.175781 437.175781 C 650.652344 410.085938 672.691406 397.148438 686.730469 391.023438 C 709.09375 381.226562 741.835938 388.675781 759.847656 411.480469 C 775.871094 431.769531 780.472656 465.371094 769.125 493.640625 C 784.699219 473.144531 784.042969 424.714844 761.792969 401.09375 "/>
<path style=" stroke:none;fill-rule:nonzero;fill:rgb(38.798523%,9.799194%,5.099487%);fill-opacity:1;" d="M 658.199219 455.402344 C 654 481.953125 669.175781 508.800781 692.09375 515.363281 C 715.011719 521.925781 736.996094 505.710938 741.195312 479.160156 C 745.398438 452.601562 730.222656 425.757812 707.304688 419.199219 C 684.386719 412.636719 662.402344 428.84375 658.199219 455.402344 "/>
<path style=" stroke:none;fill-rule:nonzero;fill:rgb(99.598694%,100%,99.598694%);fill-opacity:1;" d="M 660.230469 447.050781 C 659.066406 454.417969 663.273438 461.867188 669.636719 463.6875 C 675.992188 465.507812 682.09375 461.007812 683.257812 453.644531 C 684.421875 446.277344 680.210938 438.828125 673.855469 437.007812 C 667.496094 435.1875 661.398438 439.683594 660.230469 447.050781 "/>
<path style=" stroke:none;fill-rule:nonzero;fill:rgb(97.599792%,99.598694%,100%);fill-opacity:1;" d="M 482.191406 562.789062 C 482.191406 562.789062 378.757812 615.816406 327.59375 565.207031 C 265.238281 503.539062 333.675781 435.289062 385.808594 437.738281 C 434.042969 440.003906 483.054688 473.351562 482.191406 562.789062 "/>
<path style=" stroke:none;fill-rule:nonzero;fill:rgb(46.699524%,19.599915%,12.5%);fill-opacity:1;" d="M 304.519531 477.113281 C 320.53125 448.296875 346.410156 435.761719 376.417969 433.816406 C 407.085938 431.816406 441.203125 448.144531 453.503906 468.78125 C 433.148438 446.613281 403.664062 442.160156 385.628906 441.3125 C 356.90625 439.933594 322.613281 458.429688 310.421875 486.207031 C 299.578125 510.921875 306.367188 544.164062 329.253906 566.796875 C 304.363281 552.960938 287.839844 507.148438 304.519531 477.113281 "/>
<path style=" stroke:none;fill-rule:nonzero;fill:rgb(38.798523%,9.799194%,5.099487%);fill-opacity:1;" d="M 336.585938 505.636719 C 330.738281 532.492188 347.773438 559 374.632812 564.839844 C 401.488281 570.683594 427.996094 553.648438 433.835938 526.792969 C 439.679688 499.9375 422.644531 473.433594 395.785156 467.585938 C 368.933594 461.75 342.421875 478.785156 336.585938 505.636719 "/>
<path style=" stroke:none;fill-rule:nonzero;fill:rgb(99.598694%,100%,99.598694%);fill-opacity:1;" d="M 339.257812 497.171875 C 337.636719 504.625 342.367188 511.976562 349.816406 513.597656 C 357.265625 515.21875 364.621094 510.496094 366.238281 503.042969 C 367.859375 495.589844 363.136719 488.234375 355.6875 486.617188 C 348.234375 484.996094 340.878906 489.722656 339.257812 497.171875 "/>
<path style=" stroke:none;fill-rule:nonzero;fill:rgb(95.698547%,56.498718%,0%);fill-opacity:1;" d="M 131.191406 414.4375 C 127.042969 215.644531 221.476562 77.34375 425.378906 26.328125 C 586.390625 -13.957031 720.6875 38.117188 762.269531 92.53125 C 711.648438 64.84375 620.164062 24.644531 440.59375 62.09375 C 324.441406 86.3125 153.820312 184.851562 131.191406 414.4375 "/>
<path style=" stroke:none;fill-rule:nonzero;fill:rgb(65.899658%,65.899658%,65.899658%);fill-opacity:1;" d="M 354.707031 1311.820312 C 352.847656 1311.820312 350.949219 1311.210938 349.347656 1310.003906 L 267.597656 1247.988281 C 263.707031 1245.046875 262.929688 1239.492188 265.914062 1235.578125 C 268.808594 1231.6875 274.386719 1230.929688 278.320312 1233.890625 L 360.070312 1295.910156 C 363.960938 1298.847656 364.738281 1304.402344 361.753906 1308.316406 C 360.027344 1310.605469 357.390625 1311.820312 354.707031 1311.820312 "/>
<path style=" stroke:none;fill-rule:nonzero;fill:rgb(65.899658%,65.899658%,65.899658%);fill-opacity:1;" d="M 439.878906 1546.699219 C 438.148438 1546.699219 436.375 1546.175781 434.863281 1545.117188 L 353.453125 1488.941406 C 349.4375 1486.171875 348.398438 1480.660156 351.167969 1476.617188 C 353.933594 1472.574219 359.464844 1471.5625 363.488281 1474.371094 L 444.890625 1530.550781 C 448.914062 1533.316406 449.949219 1538.828125 447.183594 1542.871094 C 445.449219 1545.359375 442.683594 1546.699219 439.878906 1546.699219 "/>
<path style=" stroke:none;fill-rule:nonzero;fill:rgb(65.899658%,65.899658%,65.899658%);fill-opacity:1;" d="M 282.859375 1101.796875 C 281.128906 1101.796875 279.355469 1101.277344 277.84375 1100.21875 L 196.4375 1044.042969 C 192.417969 1041.273438 191.378906 1035.765625 194.148438 1031.71875 C 196.914062 1027.699219 202.492188 1026.660156 206.46875 1029.472656 L 287.875 1085.652344 C 291.894531 1088.417969 292.929688 1093.929688 290.164062 1097.972656 C 288.4375 1100.457031 285.667969 1101.796875 282.859375 1101.796875 "/>
<path style=" stroke:none;fill-rule:nonzero;fill:rgb(65.899658%,65.899658%,65.899658%);fill-opacity:1;" d="M 650.242188 2143.535156 C 646.613281 2143.535156 643.195312 2141.261719 641.894531 2137.609375 L 274.902344 1098.644531 C 273.261719 1094.039062 275.683594 1088.980469 280.308594 1087.359375 C 284.628906 1085.738281 289.90625 1088.09375 291.59375 1092.761719 L 658.585938 2131.730469 C 660.226562 2136.335938 657.808594 2141.390625 653.179688 2143.015625 C 652.230469 2143.359375 651.238281 2143.535156 650.242188 2143.535156 "/>
<path style=" stroke:none;fill-rule:nonzero;fill:rgb(100%,75.698853%,62.399292%);fill-opacity:1;" d="M 387.65625 1349.03125 C 394.515625 1352.117188 433.34375 1278.796875 427.082031 1274.582031 C 333.582031 1211.570312 205.496094 1078.488281 181.824219 1056.765625 C 181.824219 1056.765625 127.097656 1129.871094 154.625 1184.976562 C 181.605469 1238.988281 286.339844 1303.40625 387.65625 1349.03125 "/>
<path style=" stroke:none;fill-rule:nonzero;fill:rgb(98.799133%,25.898743%,45.098877%);fill-opacity:1;" d="M 173.492188 1052.984375 C 204.085938 1085.832031 247.234375 1138.800781 300.472656 1170.691406 C 320.722656 1151.550781 349.09375 1123.292969 368.160156 1104.882812 C 368.160156 1025.328125 379.253906 861.527344 363.890625 868.300781 C 330.863281 882.867188 230.757812 985.558594 173.492188 1052.984375 "/>
<path style=" stroke:none;fill-rule:nonzero;fill:rgb(100%,75.698853%,62.399292%);fill-opacity:1;" d="M 451.464844 1298.351562 C 462.464844 1307.28125 536.609375 1378.976562 542.667969 1394.664062 C 547.1875 1406.363281 550.652344 1438.285156 551.011719 1458.453125 C 551.238281 1471.304688 538.15625 1471.25 529.351562 1455.597656 C 523.421875 1445.0625 516.910156 1408.636719 512.175781 1399.96875 C 507.644531 1391.675781 466.316406 1332.777344 458.542969 1329.285156 C 462.316406 1322.378906 439.320312 1304.292969 451.464844 1298.351562 "/>
<use xlink:href="#surface11" transform="matrix(1,0,0,1,498,1360)" mask="url(#mask2)"/>
<path style=" stroke:none;fill-rule:nonzero;fill:rgb(100%,75.698853%,62.399292%);fill-opacity:1;" d="M 427.945312 1275.390625 C 412.648438 1262.171875 381.421875 1278.464844 365.019531 1318.777344 C 358.996094 1356.03125 374.164062 1378.382812 383.140625 1391.238281 C 403.820312 1420.847656 412.28125 1437.367188 419.164062 1452.757812 C 419.628906 1469.375 418.347656 1477.722656 421.707031 1487.519531 C 424.691406 1496.242188 435.683594 1500.007812 438.09375 1490.828125 C 440.96875 1479.90625 445.96875 1458.117188 445.386719 1449.988281 C 444.757812 1441.304688 441.09375 1427.867188 436.449219 1406.804688 C 438.003906 1404.5625 453.40625 1442.789062 453.761719 1449.492188 C 454.175781 1457.3125 450.191406 1488.453125 452.042969 1498.40625 C 453.339844 1505.394531 461.46875 1511.3125 468.160156 1508.167969 C 477.027344 1497.683594 486.957031 1450.234375 485.109375 1436.875 C 483.359375 1424.285156 471.941406 1397.0625 467.425781 1384.046875 C 474.816406 1394.976562 487.222656 1418.492188 491.695312 1431.636719 C 493.886719 1445.648438 490.554688 1470.949219 497.089844 1485.621094 C 502.101562 1496.859375 514.964844 1498.492188 516.398438 1493.953125 C 519.121094 1485.308594 525.34375 1449.28125 525.570312 1424.609375 C 525.667969 1413.71875 503.230469 1367.984375 495.40625 1355.394531 C 487.417969 1342.554688 479.015625 1319.535156 427.945312 1275.390625 "/>
</g>
</svg>
