<?xml version="1.0" encoding="utf-8"?>
<!-- Generator: Adobe Illustrator 26.3.1, SVG Export Plug-In . SVG Version: 6.00 Build 0)  -->
<svg version="1.1" id="Layer_1" xmlns="http://www.w3.org/2000/svg" xmlns:xlink="http://www.w3.org/1999/xlink" x="0px" y="0px"
	 viewBox="0 0 1564.3 3127" style="enable-background:new 0 0 1564.3 3127;" xml:space="preserve">
<style type="text/css">
	.st0{fill:#AA3900;}
	.st1{opacity:0.25;fill:#F9951E;}
	.st2{opacity:0.12;}
	.st3{fill:#FFC19F;}
	.st4{fill:#F95006;}
	.st5{fill:#0CA39B;}
	.st6{fill:#057C7C;}
	.st7{opacity:0.22;}
	.st8{opacity:0.25;fill:#440F03;}
	.st9{fill:#FFFFFF;}
	.st10{opacity:0.19;fill:#601805;}
	.st11{fill:#E0956C;}
	.st12{fill:#FF9797;}
	.st13{fill:#C4735B;}
	.st14{fill:#6D1403;}
	.st15{fill:#F9FEFF;}
	.st16{fill:#AD3C23;}
	.st17{fill:#872C04;}
	.st18{fill:#FEFFFE;}
	.st19{fill:#F49000;}
	.st20{fill:#FFA10B;}
	.st21{opacity:0.35;}
	.st22{fill:#C12400;}
	.st23{fill:#701608;}
	.st24{opacity:0.2;fill:#601805;}
	.st25{fill:#F9AC85;}
	.st26{fill:#F29D77;}
	.st27{fill:#F96938;}
	.st28{opacity:0.2;}
	.st29{fill:#CA7D25;}
	.st30{fill:#FFA724;}
	.st31{fill:#441911;}
	.st32{fill:#FDD566;}
	.st33{opacity:0.25;fill:#904F18;}
	.st34{opacity:0.25;fill:#65401D;}
</style>
<g id="DONE_00000015357066417960488720000016270383168286798478_">
	<path class="st0" d="M120.5,1019.2c47.5,2.4,93.6-39.2,85.4-79.1c-52.1-63.2-35.1-79,17.7-210.9C263.6,629,262,380,303.6,288.2
		C384.7,52.8,668.6-8,887.1,12.6c234.8,22.2,431.2,109.8,482.1,325.3c53.1,224.6,64.5,355.5,103.3,430.2c35.1,67.6-2.8,95-10.3,136
		c21.5,48.4,71.1,81.5,102.1,54.4c0.9,31.8-37.5,46.7-59.2,38.4c-10.4-4-18.9-13.8-20.5-14.3c11.9,20.6,37.1,57.6,41.3,85.5
		c7.6,50.3-22.1,135.7-100.2,179.8c28.3-30.3,64.5-80.8,50-123.4c-16.5,82.6-97.6,174.4-226.2,164.8
		c-125,20.8-550.2,57.5-656.8,52.1c-108-5.5-329.7-29.3-385.9-125.4c0.4,24.7,11.6,40.1,23.1,55c-66.9-51-80.2-100.9-74.6-153.9
		c4.3-40.8,35.2-83.8,48.7-107.2C171.9,1046.2,149,1058.7,120.5,1019.2z"/>
	<path class="st1" d="M581,2069.5l-6.1,22.9c-0.5,2-2,3.7-4,4.4l-22.3,8c-5,1.8-5.8,8.5-1.3,11.4l19.9,12.9c1.8,1.1,2.9,3.1,2.9,5.2
		l0.7,23.7c0.2,5.3,6.3,8.1,10.4,4.8l18.4-14.9c1.6-1.3,3.8-1.8,5.8-1.2l22.7,6.7c5.1,1.5,9.7-3.5,7.8-8.4l-8.5-22.1
		c-0.8-2-0.5-4.2,0.7-5.9l13.4-19.5c3-4.4-0.3-10.3-5.6-10l-23.6,1.3c-2.1,0.1-4.1-0.8-5.4-2.5l-14.5-18.7
		C589,2063,582.4,2064.3,581,2069.5z"/>
	<ellipse class="st2" cx="742.9" cy="3046.8" rx="742.9" ry="80.2"/>
	<path class="st3" d="M897.9,2948.5c0.8,5.3,172.2-4.7,172-11.2c-1.6-56.6-3.4-671.8-4.9-704.6H815.2
		C825.6,2288.1,891.8,2910.3,897.9,2948.5z"/>
	<path class="st3" d="M546.5,2948.5c-0.8,5.3-161.9,3.2-161.7-3.3c1.6-56.6,42.1-740.3,43.6-773.1l231.2,14.8
		C649.2,2242.4,552.6,2910.3,546.5,2948.5z"/>
	<path class="st4" d="M1103.3,2790.2c-33.7,1.9-212.5,4.1-256.4,3.1c-7.5-92.8-46.8-509.6-56.2-651c-2.2-33.9-53.2-39.2-63.3-4.7
		c-6.3,21.3-113.5,549.9-130.3,656c-69.6-8.3-192.4-19.1-240.7-30.3l90.9-1017c119.8-9.2,523.8,5.5,651.6,25.1
		C1116,1909.7,1103.3,2604.4,1103.3,2790.2z"/>
	<g>
		<path class="st3" d="M398,2817.7c3.2-13.8,137.6,19.7,161.5,15.8c0.3,31.9,18.3,83.6,16.9,126.9c-1,30.2-26.8,52-54.8,56.7
			c-108.5,18.1-398.3,69.8-409.9-8.5C102.1,2944.3,260.6,2911.1,398,2817.7z"/>
		<path class="st5" d="M255.6,2879.6c-84.7,38.2-195.7,80.6-196.9,132.3c-1.6,71.5,319.6,29,319.6,29
			C377.9,2998,302.9,2903.3,255.6,2879.6z"/>
		<path class="st6" d="M574.1,2998.1c16.4-1.1,20.8,30.7,2.2,35.4c-35.3,5-208,35.8-360.2,41.6c-66.4,2.5-136.6-3.4-150.9-33
			c-1.5-3-7.6-22.2-6.3-25.8c28.3,21.7,93.3,31,153.4,26.4C371.7,3030.2,487.2,3010.3,574.1,2998.1z"/>
	</g>
	<g>
		<path class="st3" d="M1054.9,2817.7c-3.2-13.8-137.6,19.7-161.5,15.8c-0.3,31.9-18.3,83.6-16.9,126.9c1,30.2,26.8,52,54.8,56.7
			c108.5,18.1,398.3,69.8,409.9-8.5C1350.8,2944.3,1192.3,2911.1,1054.9,2817.7z"/>
		<path class="st5" d="M1197.3,2879.6c84.7,38.2,195.7,80.6,196.9,132.3c1.6,71.5-319.6,29-319.6,29
			C1075,2998,1150,2903.3,1197.3,2879.6z"/>
		<path class="st6" d="M878.8,2998.1c-16.4-1.1-20.8,30.7-2.2,35.4c35.3,5,208,35.8,360.2,41.6c66.4,2.5,136.6-3.4,150.9-33
			c1.5-3,7.6-22.2,6.3-25.8c-28.3,21.7-93.3,31-153.4,26.4C1081.2,3030.2,965.7,3010.3,878.8,2998.1z"/>
	</g>
	<path class="st3" d="M248.2,1142c-76.8-48.7,9.1-168.7,18.9-163.8c146,73.6,336.8,148.6,378.1,159.7l-87.2,167.4
		C475,1260.3,370.4,1219.6,248.2,1142z"/>
	<path class="st4" d="M365,1025c-41.3,48.7-57.6,164.2-59.6,224.9c118,48.1,243.2,120.5,252.4,118.8
		c95.4-17.8,150.2-230.6,156.9-241.2C653,1112.8,481.3,1068.5,365,1025z"/>
	
		<rect x="687.4" y="1072" transform="matrix(0.9919 0.1272 -0.1272 0.9919 150.7889 -98.2844)" class="st4" width="314.8" height="118.7"/>
	<path class="st7" d="M1107.3,2009.4c-211,48.4-503.6,30-679-48.5l15.4-172.3c121.9,5.7,439.8,20.6,659.2,34.1
		C1105.2,1869.2,1106.6,1934,1107.3,2009.4z"/>
	<path class="st4" d="M1277.5,1608.3c-26.9,35.6-105.5,36.2-148.1,29.8c-55.7-127.7-130-266.2-130.4-275.3
		c-4.9-95.3,134.9-129,141.1-134.3C1182,1278.8,1243.5,1468.5,1277.5,1608.3z"/>
	<path class="st4" d="M375,1866.8c174.9,118.4,598.8,164.5,761.5,77.3c0,0,15.3-575.3,3.7-715.7C900.7,1021,818,1128,520.3,1131.3
		C480.3,1304.1,428,1610.9,375,1866.8z"/>
	<path class="st3" d="M986.6,1005.1l-22.2,201.7c-4.8,43.4-77.1,54.6-137.4,68.1c-33.9-17.9-113.6-51.8-108.8-95.2L740.4,978
		L986.6,1005.1z"/>
	<path class="st8" d="M995.2,1167.9c-33.6,85.7-86,91.5-168.2,107c-75.6-35.7-96.5-80.7-123.1-143.9h-48.3l9.4,163.8l85-26.9
		c0,0,75.1,15.3,75.9,15.4c0.8,0.1,77.3,4.3,77.3,4.3l75.5,47.5l51.8-160.2L995.2,1167.9z"/>
	<path class="st4" d="M829.3,1275.2c-24.9-2.3-69.3-32.9-69.3-32.9l-80.1,43l-10.2-154l28.4-88.9
		C708.2,1126.9,759.1,1243.9,829.3,1275.2z"/>
	<path class="st4" d="M824.8,1274.6c24.7,4,75.4-14.4,75.4-14.4l66.7,61.8l49.1-149.5l-5.4-90
		C979.4,1161.7,900.6,1262.1,824.8,1274.6z"/>
	<path class="st9" d="M839.4,1348.8c-1.2,9.6-10,16.3-19.5,15.1c-9.6-1.2-16.3-10-15.1-19.5c1.2-9.6,10-16.3,19.5-15.1
		C833.9,1330.5,840.7,1339.2,839.4,1348.8z"/>
	<path class="st9" d="M822.8,1478.9c-1.2,9.6-10,16.3-19.5,15.1c-9.6-1.2-16.3-10-15.1-19.5c1.2-9.6,10-16.3,19.5-15.1
		C817.2,1460.6,824,1469.3,822.8,1478.9z"/>
	<path class="st9" d="M804.5,1621.1c-1.2,9.6-10,16.3-19.5,15.1c-9.6-1.2-16.3-10-15.1-19.5c1.2-9.6,10-16.3,19.5-15.1
		S805.7,1611.5,804.5,1621.1z"/>
	<path class="st9" d="M801.3,1770.4c-0.9,9.6-9.4,16.6-19,15.8c-9.6-0.9-16.6-9.4-15.7-19c0.9-9.6,9.4-16.6,19-15.7
		C795.1,1752.3,802.2,1760.8,801.3,1770.4z"/>
	<path class="st10" d="M723.3,1133.7L740.4,978l246.2,27l-15.5,140.7C909.8,1161.9,804.1,1174.4,723.3,1133.7z"/>
	<g>
		<path class="st3" d="M1412.2,766.5C1390.4,872.7,1290,944.5,1211,939c-79-5.6-99.1-90.5-91.2-192
			c7.9-101.5,78.4-179.6,157.4-173.7C1385.1,581.2,1432.6,666.7,1412.2,766.5z"/>
		<path class="st11" d="M1327.7,790.3c-3.5,46.7-39.7,82.1-80.8,79c-41.2-3.1-71.7-43.4-68.3-90.1c3.5-46.7,39.7-82.1,80.8-79
			C1300.6,703.3,1331.2,743.7,1327.7,790.3z"/>
		<path class="st3" d="M259.8,843.8c35.2,102.5,144,160.8,221.6,145.1c77.6-15.7,86.6-102.5,65.8-202.2
			c-20.9-99.7-100.8-168-178.4-152.1C262.8,656.6,226.7,747.5,259.8,843.8z"/>
		<path class="st11" d="M351.8,853.3c9.4,45.9,49.9,76.3,90.3,68c40.4-8.3,65.6-52.3,56.1-98.1c-9.4-45.9-49.9-76.3-90.3-68
			C367.5,763.5,342.4,807.5,351.8,853.3z"/>
		<path class="st0" d="M287.4,507.2c25.6,359.4,254.2,505.6,558.2,483.9c304-21.6,534.8-200.4,509.2-559.8
			C1329.2,72,1063.4-12.5,795.5,1.4C520.2,15.7,261.8,147.8,287.4,507.2z"/>
		<path class="st3" d="M386.4,388c-43.6,173.9,27.9,533.3,93,598.6c69,69.3,253.1,145.6,384.2,138.4
			c136.4-7.5,309.1-103.9,353.6-187.8c52.6-99.3,82.1-426.4,29.3-573.6c-63.7-177.5-242.6-216.3-456.1-202.4
			C590.7,174.2,424.9,234.3,386.4,388z"/>
		<path class="st12" d="M1203.2,804.5c2.8,20.8-23.8,41.5-59.5,46.3c-35.6,4.8-66.8-8.2-69.5-29c-2.8-20.8,23.9-41.5,59.5-46.3
			C1169.3,770.7,1200.4,783.7,1203.2,804.5z"/>
		<path class="st12" d="M607.3,854.4c-0.2,21-29.4,37.8-65.4,37.5c-35.9-0.2-65-17.5-64.8-38.4c0.2-21,29.4-37.8,65.3-37.5
			C578.4,816.2,607.4,833.4,607.3,854.4z"/>
		<path class="st13" d="M815,800.7c2.4-0.2,4.4-2,4.6-4.5c1.7-17.4,14.6-29.5,32.9-30.7c18.4-1.2,33,9.3,36.6,26
			c0.6,2.7,3.2,4.4,5.9,3.8c2.7-0.6,4.4-3.2,3.8-5.9c-4.5-21.5-23.8-35.4-47-33.9c-23,1.5-39.9,17.4-42.1,39.6
			c-0.3,2.7,1.7,5.2,4.5,5.4L815,800.7z"/>
		<path class="st14" d="M648.5,397.2c-3.3,0.6-6.4,2.5-8.5,5.3c-27.7,36.6-90,57.5-144.8,48.5c-7.6-1.3-14.9,3.9-16.2,11.6
			c-1.3,7.7,3.9,14.9,11.6,16.2c65.5,10.7,137.8-14.2,171.9-59.3c4.7-6.2,3.5-15-2.7-19.7C656.4,397.3,652.3,396.5,648.5,397.2z"/>
		<path class="st0" d="M1291.9,370c-1.1-62-44.5-216-162.1-271.9C978.1,26,688.4,1.2,409.1,196.2C454,347.9,748,388,868.2,372.4
			c-40.3-15.9-95.6-51.9-96.6-81.4C828.6,329.7,1294.4,512,1291.9,370z"/>
		<path class="st14" d="M1001,380.2c-3.9-0.1-7.8,1.4-10.6,4.4c-5.3,5.7-5.1,14.6,0.6,19.9c41.2,38.8,116.6,51.2,179.4,29.7
			c7.4-2.5,11.3-10.6,8.8-17.9c-2.5-7.4-10.6-11.3-17.9-8.8c-52.6,18.1-117.5,8-150.9-23.6C1007.7,381.6,1004.4,380.3,1001,380.2z"
			/>
		<g>
			<path class="st15" d="M946.1,620.1c-30.4,53.1-21.5,108.1,10.4,126.7c48.2,28,156.7,28.4,193.1-20.7
				c35.3-47.5,9.7-126.9-56.6-156.6C1034.9,543.5,975.5,568.7,946.1,620.1z"/>
			<path class="st16" d="M1145.6,589.8c-55.9-73.9-172.6-37.9-200.5,32.1c30.4-53,92.9-73.5,146.6-49.5c33.2,14.9,58.3,44,67.2,78
				c7.1,27.1,3.3,58.5-11.3,78.2C1165.2,715.1,1186.7,644.2,1145.6,589.8z"/>
			<path class="st17" d="M1088,642.9c16.5,33.9,2.4,74.7-31.4,91.3c-33.9,16.5-74.7,2.4-91.3-31.4c-16.5-33.9-2.4-74.7,31.4-91.3
				C1030.7,595,1071.5,609,1088,642.9z"/>
			<path class="st18" d="M1096.3,668.7c4.6,9.4,0.7,20.7-8.7,25.3c-9.4,4.6-20.7,0.7-25.3-8.7c-4.6-9.4-0.7-20.7,8.7-25.3
				C1080.4,655.4,1091.7,659.3,1096.3,668.7z"/>
		</g>
		<path class="st0" d="M1278.6,190.4c-13.8-15.3-124.8,0.8-185.6,14.3c154.8-14.1,123.9,155.4,140.5,298.3
			c11.1,95.5,38.2,177.3,91,165C1313.6,568.8,1293.7,256.3,1278.6,190.4z"/>
		<path class="st0" d="M336.9,252.4c11.7-17,123.9-15.6,185.9-10.2c-155.3,6.4-102.5,170.3-100.2,314.1
			c1.5,96.1-14.7,180.7-68.5,175.5C351.8,632.1,330.6,319.7,336.9,252.4z"/>
		<g>
			<path class="st19" d="M1276.4,310.1C1186.8,127.9,1030,34.4,766.7,50.2c-216,13-378.4,131.1-449.9,331.3
				c102.4-177.5,249.4-271.7,469-280.7C987,92.6,1150,156.3,1276.4,310.1z"/>
			<path class="st20" d="M1148.3,194.4c-49-1.5-120.8-5.4-144.6-26.7c-15-13.5,21.3-87.2,76.9-100.5c29.4-7.1,84.9,38,95.3,86.6
				C1181.1,178.3,1171.7,195.1,1148.3,194.4z"/>
			<path class="st20" d="M1167.4,215.5c18.6,77.2,40.6,127.9,65.3,132.7c39.1,7.7,116.7-51.9,107.7-94.9
				c-9-43.1-101.1-87.9-142.9-79.7C1171.3,178.7,1161.4,190.7,1167.4,215.5z"/>
			<g class="st21">
				<path class="st22" d="M1159,170.4c-5.4-14.3-26.2-51.3-41.5-31C1097.4,166.1,1145.3,171.9,1159,170.4z"/>
			</g>
			<g class="st21">
				<path class="st22" d="M1188.5,192.1c16.6,3.8,68.4,18.3,42.2,38.6C1203.5,251.9,1191.5,208.2,1188.5,192.1z"/>
			</g>
			<path class="st20" d="M1151.5,170.4c-9.6,13.8-8.6,31.2,2.4,38.8c10.9,7.7,27.6,2.7,37.2-11.1c9.6-13.8,8.5-31.2-2.4-38.8
				C1177.8,151.6,1161.1,156.6,1151.5,170.4z"/>
		</g>
		<path class="st23" d="M793.7,998.3c2.8,30.8,38.9,52.7,80.7,48.9c41.8-3.8,73.4-31.8,70.6-62.6c-2.8-30.8-38.9-52.7-80.6-48.9
			C822.5,939.5,790.9,967.5,793.7,998.3z"/>
		<g>
			<path class="st16" d="M1133.7,548.7c-41.7-19.4-85.7-17.2-128.2-2.1c-43.4,15.4-78.9,50.8-81.6,78.2l0.4-0.7
				c-3.9,10.8-4.9,22.9-4.2,35.6c21.4,4.4,46.4,7.3,74.5,7.2c64.4-0.1,120.4-7.3,169-19C1184.9,619.4,1175.6,568.2,1133.7,548.7z"/>
			<path class="st3" d="M1147,531c-43.9-17.7-90.9-14.7-136.5,0.5c-46.7,15.5-85.6,50-89.2,76.2l0.5-0.7c-4.5,10.4-5.9,21.9-5.5,34
				c22.7,3.7,49.2,6,79.2,5.4c68.6-1.4,128.5-9.4,180.7-21.5C1199.5,597.3,1191,548.8,1147,531z"/>
		</g>
		<g>
			<path class="st16" d="M518.6,663.6c36.7-27.8,80.2-34.8,124.9-29c45.7,5.9,87.9,33.1,96.2,59.3c6.1,9.8,9.1,20.8,11.1,33.3
				c-20,8.8-43.8,16.8-71.3,22.7c-63,13.4-119.3,18.1-169.2,16.9C483.4,743.4,481.8,691.4,518.6,663.6z"/>
			<path class="st3" d="M499.9,637c38.4-27.6,84.3-34.5,131.5-28.6c48.3,6,93.1,33.3,102.3,59.4c6.6,9.7,9.8,20.7,12.1,33.3
				c-21,8.7-46.1,16.7-75,22.4C604.3,736.8,545,741.3,492.2,740C463.6,716.5,461.4,664.7,499.9,637z"/>
		</g>
	</g>
	<path class="st24" d="M532.8,606.5c27-17.5,69.6,4.9,98.6,25.7c62.9,31.6,67,41.1,68.9,45.6c7.4,17-21,91.5-31.8,111.4
		c-2.7,5-6.5,8.8-11,11l-3.3,6.7c-5.2,6.3-18.8,20.6-33.6,20.4c-1.4,0-2.6-0.2-3.7-0.4c-1.3,1.1-2.7,2.1-3.9,2.8
		c-4.8,3.7-9.7,6.2-14.6,7.4l-35.5,18.1l14.2-20l-23.3,31.5l0.7-19.4c-11.3,2-24.3-0.3-37.6-7c-19.2,4.8-37.5,8-53.4,9.4
		c-20.6,11.5-52.5,11.2-75.7-0.6c-20.4-10.5-33-28.7-35.5-51.4C348.2,762,524.5,611.9,532.8,606.5z M457.6,837.1L457.6,837.1
		L457.6,837.1z"/>
	<g>
		<path class="st25" d="M687.9,683.3c3.5,8.2-16.3,71.7-31.3,99.5c-6.4,11.8-16.8,9.5-35-14.2c-61.1-8.4-102.3-45-106.8-77
			c-4.5-32.1,6-66.4,51-72.7C574,617.6,682.1,669.9,687.9,683.3z"/>
		<path class="st26" d="M482.7,688.7c-41.3,48.9-79.2,108.6-76.6,126.9c4.5,32.1,70.9,23.7,136.8,3.2c11.2-3.5,31.2-16,54.7-29.7
			c0.1-5,0.2-9.9-0.6-15C589.3,719.6,538.3,681.7,482.7,688.7z"/>
		<path class="st3" d="M643.7,798.3c-6.4,7.8-22.2,22.7-29.2,11.3c-15.8,20-29.6,19.1-41.1,5.7c-15.5,43.7-75.2,2.5-74.8-9.7
			c1.9-54.3,36-47.3,36.9-28.7c0.5,9.9-4.1,12.7-1.4,14.5c2.7-1,8.9-20.6,3.9-26.4c-7.4-8.7-15.7-13.1-32.1-23.3
			c-11.3,7.1-11.8,75.2-49.3,96.2c-27,15.1-85.5,6.7-90.9-41.7c-2.5-22,152-163.7,174.5-178.2c33.9-21.9,121.1,49.6,130.8,68.4
			C681.6,706.8,672.2,721.6,643.7,798.3z"/>
		<g>
			<path class="st26" d="M627.5,706.8c-8-8.1-22.8-23.3-38.4-36.5c-1.1-0.9-2.6-0.8-3.5,0.3c-0.9,1-0.7,2.6,0.3,3.5
				c15.4,13.1,30.1,28.2,38.1,36.2c2.7,2.7,4.7,4.7,5.7,5.7c4.2,3.3-1.6,58.9-23.2,101.7c1.7-0.8,6.3-5.7,7.7-7.4
				c16.5-36.1,26.2-91,18.9-97.9C632.1,711.5,630.1,709.5,627.5,706.8z"/>
			<path class="st26" d="M585,733c-8-8.2-22.9-23.4-38.6-36.8c-1-0.9-2.6-0.8-3.5,0.3c-0.9,1-0.7,2.6,0.3,3.5
				c15.5,13.3,30.4,28.4,38.3,36.5c2.6,2.6,4.5,4.5,5.5,5.5c5.2,4.8-18.6,80.8-18.1,81.4c1.4-1.8,2.2-2.3,3.7-4.5
				c9.6-30.6,24.6-75.1,17.8-80.5C589.3,737.5,587.5,735.5,585,733z"/>
		</g>
	</g>
	<path class="st3" d="M437.5,799.7c1.9-8.8-93.2-29-96.3-20.5c-46.3,126.3-135.8,252.2-139,286.6c-6.5,70,87.4,125.6,147.1,40.2
		C382.6,1058.4,414.2,909.5,437.5,799.7z"/>
	<path class="st4" d="M480.7,925.4c-43.3-29.6-113.4-66.6-168.3-91.8c-62.5,102.7-137,233.2-130.4,276.2
		c14.6,95.1,112.2,135.5,173.8,162.7c10.8-31.1,46.9-100.1,70.4-170C447.3,1039.9,454.9,977.2,480.7,925.4z"/>
	<polygon class="st27" points="489.2,948.8 533.7,867.5 315.5,768.3 270.9,849.6 	"/>
	
		<rect x="833" y="2705.2" transform="matrix(0.9993 -3.718336e-02 3.718336e-02 0.9993 -102.1182 38.2777)" class="st27" width="290.1" height="118.7"/>
	<polygon class="st27" points="632.5,2727.1 611.8,2844 326.2,2793.4 346.9,2676.5 	"/>
	<g class="st28">
		<path d="M803.1,1601.1c19.7-28.4,46.9-57.7,70.2-72.3c-50.1-48.5-70.4-110.9-57.2-177.8c5.6-28.7,15.4-54.6,28.9-77.2
			c-19.6-18.2-28.7-38.9-25.7-59.2c8.5-58.6,54.7-87.5,96.6-90.1c42.6-3.2,76.2,19.7,86.6,57l0.4,1.7c28.3-1.3,57,2.2,85.3,10.5
			c6.6,1.9,12.2,5,18.5,7.3c10.9,8.6,21.9,17.3,33.5,27.4c29.3,35.3,68,138.7,100.4,245.5c-20.2,64.7-60.3,109.4-115.8,126.8
			c1.5,6.1,12.6,50.8,17.5,68.9c-1,60.4-2.1,116.5-3.1,162.5c-2,0.5-3.8,1.4-5.8,1.7c2,2.2,3.7,4.2,5.7,6.3l-2.5,104.1
			c-10,6.2-20.6,11.4-31.1,16.6c-6.9-0.4-14-1.5-21.4-4.5c-37.1-15-67.5-69-84.2-115.6l-6-0.2c11.1,24.2,25.2,52.3,40.6,73.3
			c15.1,20.5,9.9,46.5-13.2,66.1c-15.6,13.2-36.6,21.4-57.4,21.4c-17.8,0-35.4-6-49.2-20.1c-29.2-29.6-55.5-103.1-50.8-169
			c-2.9-1.8-5.7-3.7-8.3-5.8c-10.3,12.9-26,19-43.3,17.7c-25.7-2.3-47.4-21.4-50.6-44.4C757.5,1749.9,753.2,1672.7,803.1,1601.1z"/>
	</g>
	<g>
		<path class="st29" d="M1054.7,1635c11.3-59.1,23-92.4,39-78.3c16,14.1,23.4,95.1,62.6,204.3c23.6,65.5-46.2,73.2-64.8,42
			C1069.7,1766.4,1041.8,1702.6,1054.7,1635z"/>
		<path class="st30" d="M1149.1,1871.8c-50.2-57.3-125.6-132.3-145.2-160.1c-31.1,55.6,27.5,208.7,85.1,232
			C1137,1963.1,1180.9,1908.1,1149.1,1871.8z"/>
		<path class="st30" d="M1114.6,1731.2c-2.6,44.5-52,92.7-113.7,93.2c-61.7,0.5-151.5-7.5-157.4-63.6c-9.2-87.5,27.7-251.4,123-256
			C1041.5,1501.2,1119.7,1643.7,1114.6,1731.2z"/>
		<g>
			<path class="st30" d="M1161,1363.6c24,12.5,73.6,4.1,99.5-10.5c65-36.7,49.9-136.8-33.8-123
				C1174.6,1238.8,1137,1351.1,1161,1363.6z"/>
			<path class="st31" d="M1212.8,1336.1c7.2,7.7,34.5,10.6,53.4-8c22.5-22.1-7.8-60.5-38.4-35.9
				C1212,1305,1210.6,1333.6,1212.8,1336.1z"/>
			<path class="st30" d="M1230.9,1461c-28,103.4-104.6,145.3-190.3,132c-139-21.5-235.1-117.6-211.2-239.5
				c26.7-136.1,139.7-180.6,254.9-146.8C1199.5,1240.6,1267.2,1327.1,1230.9,1461z"/>
			<path class="st32" d="M1144.8,1539.5c20.8-35.5,7-97.2-37.6-112.2c-55.6-18.7-127.8,28.4-121.5,76.3
				C993.9,1566.2,1116.6,1587.5,1144.8,1539.5z"/>
			<path class="st31" d="M1100.8,1517.6c1.4,0.4,3.1-0.3,3.8-1.6c5.4-12.1,11.3-30.5,8.5-49.6c-0.2-1.7-1.9-2.8-3.4-2.6
				c-1.7,0.2-2.8,1.8-2.6,3.4c2.6,17.7-3.1,34.9-8.2,46.2C1098.2,1515,1099.3,1516.9,1100.8,1517.6z"/>
			<path class="st31" d="M1071.7,1526.2c10.4,2.8,23.7-0.7,31.4-8.5c1.1-1.2,1.1-3.1-0.1-4.3c-1.1-1.1-2.9-1.1-4.1,0.1
				c-6.1,6.3-17.3,9-25.6,6.8c0,0-1.1-0.3-1.8-0.5c-6.2-2.3-9.8-7.6-10.2-15.3c-0.1-1.6-1.7-2.8-3.2-2.9c-1.7,0.1-2.9,1.5-2.9,3.2
				c0.6,10.1,5.6,17.4,14.1,20.6C1070.2,1525.7,1070.9,1525.9,1071.7,1526.2z"/>
			<path class="st31" d="M1111.8,1535.5c8.3,2.2,17.1-0.8,21.2-7.6c0.9-1.4,0.4-3.3-1-4.1c-1.1-1-3.3-0.5-4.1,1
				c-3.2,5.3-10.9,6.6-16.1,4.3c-2.7-1-8.8-4.5-7-13.7c0.3-1.6-0.7-3.1-2.3-3.5c-1.7-0.3-3.3,0.7-3.6,2.3c-2.2,11.3,4,18,10.6,20.6
				C1110.3,1535.1,1111,1535.3,1111.8,1535.5z"/>
			<path class="st31" d="M1137.3,1458c-2.9,12-17.9,19.1-26.1,16.9c-11.1-3-33.6-20.2-30.4-32.1
				C1084.3,1429.6,1140.6,1444.6,1137.3,1458z"/>
			<path class="st31" d="M1054.5,1392.9c-2.9,11.2-14.4,18-25.6,15c-11.2-2.9-18-14.4-15-25.6c2.9-11.2,14.4-18,25.6-15
				C1050.7,1370.2,1057.4,1381.6,1054.5,1392.9z"/>
			<path class="st31" d="M1177.3,1425.7c-2.9,11.2-12.5,18.4-21.4,16.1c-8.9-2.3-13.7-13.3-10.8-24.5c2.9-11.2,12.5-18.4,21.4-16.1
				C1175.4,1403.5,1180.2,1414.5,1177.3,1425.7z"/>
			<path class="st31" d="M1208.2,1347.7c-2.1,5.4-10.4,7.3-18.6,4.2c-8.2-3.1-13.2-10.1-11.1-15.5c2.1-5.4,10.4-7.3,18.6-4.2
				C1205.3,1335.3,1210.3,1342.2,1208.2,1347.7z"/>
			<path class="st31" d="M1060.3,1300.8c-0.5,5.8-9.1,9.8-19.3,9c-10.2-0.8-18.1-6.2-17.6-12c0.5-5.8,9.1-9.8,19.3-9
				C1052.9,1289.7,1060.7,1295,1060.3,1300.8z"/>
			<path class="st30" d="M966.4,1294.4c23.2-25.7,30.9-80.4,22.9-109.3c-20.1-72.8-143.3-60.7-156.6,31.5
				C824.4,1274,943.2,1320.1,966.4,1294.4z"/>
			<path class="st31" d="M935.8,1252.9c10.7-6.7,22.7-32.7,8.9-51.2c-16.4-22-67.6,5.9-51.1,35.8
				C902.1,1252.9,932.4,1255,935.8,1252.9z"/>
		</g>
		<path class="st32" d="M952.7,1679.3c1.7,54,30,95.7,106.5,82.6c41.1-7,47.1-63,32.5-108.7c-16.4-51.5-36.7-74-73.3-74.3
			C970.2,1578.6,950.8,1621.2,952.7,1679.3z"/>
		<path class="st33" d="M965.8,1825.1c-6.8-26.6-9.3-43-6.7-50.2c9.8,5,19.9,23.5,33.2,51.9C983.7,1826.5,974.8,1825.9,965.8,1825.1
			z"/>
		<path class="st30" d="M1023.3,1921.7c-30-40.9-56.2-107-74.2-151.6c-9-22.2-20.7-30.4-36.5-35.9c-65.8,47.2-31.1,194.1,11.5,237.4
			C966.4,2014.6,1052.2,1961.2,1023.3,1921.7z"/>
		<path class="st34" d="M843.5,1760.8c-2-18.6-1.7-40.8,0.6-64.1c6.4-35.1,51.9-118.4,61-118.4c9.2,0-19.5,81-27.4,124.6
			c-5.1,28.2-8.1,75.3-13.9,92.8C852.7,1786.9,845,1775.7,843.5,1760.8z"/>
		<path class="st30" d="M814.2,1608.8c34.3-49.4,84.4-91.1,93.8-71.9c18.6,37.9-43.7,112.6-52.2,228.4
			c-5.1,69.5-75.8,48.6-80.8,12.6C768.5,1730.7,774.9,1665.4,814.2,1608.8z"/>
	</g>
	<path class="st4" d="M1032.5,1802.1c-13.6-50.9-25.2-129.5-30.5-189.7c120.3-23.4,208.6-70.4,240.9-54.2
		c58.1,21.9,47,170.3-19.3,186.7C1199.8,1750.7,1137.3,1789.5,1032.5,1802.1z"/>
	<path class="st24" d="M752.7,1695.4c10.5-16.7,34-14.9,73.6-5.7c7.7,1.8,25.7-0.2,40.2-1.7c11.8-1.2,23.2-2.2,30.3-2.3
		c5.4-0.5,11-1,16.3-1.6c-0.9-0.6-2-1.4-3.6-2.4c-2.1-1.4-4.5-3-7.2-4.9l-6.5-4.5c-11.5-7.9-23.4-16.2-29.9-28.6
		c-5.6-10.7-9-31.3,1.5-41.9c5.8-5.9,14.5-7,22.4-3c13.1,6.7,21.8,9,36.2,12.9c5.5,1.4,11.6,3.1,18.9,5.2
		c25.1,7.3,60.9,24.7,93.3,66.1c4.7,6,8.5,13.3,10.6,21c7.6,27.5,7.7,45.2,0.4,65.5l-1.5,4.1l-16.9,11.8
		c-54.6,38.7-92,63.1-108.2,65.4c-25,6.9-52.1,11.2-59.8,11.2c-18.5,0-42.4-19.1-53.7-30.4c-9.9-10-13.1-16.5-13.9-21.1
		c-4.7-4.7-8.9-9.3-12.1-13.4c-5.1-6.4-7.6-15.1-6.8-22.4c-4.6-3.8-9.7-8.3-12.2-11.5c-5.5-6.8-6.3-15.4-2.1-22.5
		c2.2-3.7,5.5-6.5,9.2-8.5c-14-8.9-18.3-15.8-20.1-21.2C749.2,1705.5,749.8,1699.9,752.7,1695.4z"/>
	<g>
		<path class="st3" d="M823.3,1702.9c17.3,4,59.5-5.2,78.5-3.9c-4.4,16.3-8.1,35.7-9.3,45.5c-26-0.7-52.7,0.8-71.9-3.8
			c-61.4-23.8-57.9-35.9-56.5-38C769.5,1694.2,785.2,1694.1,823.3,1702.9z"/>
		<path class="st3" d="M1035.6,1707.5c-3.9-14-14.1-27.7-32.5-28.8c-13.6-0.8-47.6,13.9-69.8,15.9c-13.8,3.6-40.4,4.3-54.1,6.9
			c-1.5,9.3-0.9,24.2-0.3,36c13.9,1.5,14.2,3,4.2,7.6c5,27.2,25.2,76.9,35.7,92.5c21.7-3.2,97.8-59.4,117.5-72.9
			C1042.2,1748.3,1042.9,1734.1,1035.6,1707.5z"/>
		<g>
			<path class="st26" d="M792.6,1780.3c-2.2-6.3-3.2-11.6-5.8-15.9c26.7,6.9,115,4.5,116.1,15c1.5,14.2-56.6,22.9-67.2,22.1
				C821.8,1798.8,805.8,1788.3,792.6,1780.3z"/>
			<path class="st3" d="M841.8,1793.5c11.9-2.2,52.1-13.7,62.6-15.4c0,0-5.5-26.9-6.7-38.9c-11.6,3.8-56.8,17.4-67.4,18.8
				c-7.2,0.9-29.2-12.9-43.1-15.4c-7.6-1.3-18.7,4.6-12.7,12.1C780.8,1762.4,823.3,1796.9,841.8,1793.5z"/>
			<path class="st3" d="M908.1,1809.4c-9.3,2.9-32.8,4.9-43.4,6.4c-14.7,2.1-56.2-28.5-56.4-8.9c-0.1,9,36.3,41.4,54.3,41.3
				c6.2,0,31.8-4,56.2-10.7C914.6,1828.6,911.9,1822.5,908.1,1809.4z"/>
			<path class="st26" d="M847.7,1836.1c-9.9,0.4-39.1-25.4-39.4-29.1c-0.8-10.5,69-1.4,96.5-6.9c-0.2,4.5,2.1,15.7,1.5,22.6
				C900.7,1824.6,866.9,1835.2,847.7,1836.1z"/>
			<path class="st3" d="M848.8,1831c17.7-0.6,50.7-9.7,68.6-15.1c-5.1-10.8-10-21-13.1-34.1c-15.6,5.4-53.2,16-64.5,16.5
				c-11,0.4-39-17.7-48.6-25c-1.8-1.4-3,8.4,2.5,15.3C806.6,1804.9,835,1831.4,848.8,1831z"/>
		</g>
		<path class="st3" d="M1025.9,1688.9c-29-37.5-63.5-52.9-84.9-59.2c-26.3-7.6-37.7-8.9-57.4-19c-10.7-5.5-11.6,15-5.6,26.4
			c6,11.4,19,18.9,32.3,28.4c11,7.8,15.7,9,18.9,17.6c1.7,4.5-2.5,10.9-9.1,15C945.7,1718.6,1026.8,1693.9,1025.9,1688.9z"/>
	</g>
	<polygon class="st27" points="1085.7,1808.7 995,1828.3 946.2,1611.6 1036.9,1591.9 	"/>
</g>
</svg>
