<?xml version="1.0" encoding="UTF-8" standalone="no"?>
<!DOCTYPE svg PUBLIC "-//W3C//DTD SVG 1.1//EN" "http://www.w3.org/Graphics/SVG/1.1/DTD/svg11.dtd">
<svg xmlns="http://www.w3.org/2000/svg" xmlns:xlink="http://www.w3.org/1999/xlink" version="1.1" width="915.269pt" height="1544.72pt" viewBox="0 0 915.269 1544.72">
<g enable-background="new">
<g>
<g id="Layer-1" data-name="Layer 5">
<path transform="matrix(1,0,0,-1,0,1544.72)" d="M 1.376 0 L 915.269 0 L 915.269 1543.804 L 1.376 1543.804 Z " fill="#100838"/>
<clipPath id="cp0">
<path transform="matrix(1,0,0,-1,0,1544.72)" d="M 0 1544.721 L 915.269 1544.721 L 915.269 0 L 0 0 Z "/>
</clipPath>
<g clip-path="url(#cp0)">
<g opacity=".25">
<clipPath id="cp1">
<path transform="matrix(1,0,0,-1,0,1544.72)" d="M 439.25 660.898 L 625.591 660.898 L 625.591 786.163 L 439.25 786.163 Z "/>
</clipPath>
<g clip-path="url(#cp1)">
<path transform="matrix(1,0,0,-1,625.5607,851.13839)" d="M 0 0 C -.72 7.649 -14.391 12.891 -32.581 13.354 C -27.899 21.423 -25.17 31.078 -25.175 41.462 C -25.186 69.705 -45.361 92.59 -70.236 92.582 C -91.639 92.573 -109.537 75.61 -114.112 52.885 C -116.622 57.71 -121.093 61.487 -126.784 62.909 C -137.319 65.538 -147.996 59.126 -150.625 48.588 C -152.228 42.163 -150.457 35.697 -146.452 31.027 C -147.99 31.598 -149.59 32.099 -151.247 32.51 C -167.631 36.599 -183.14 30.981 -185.891 19.958 C -188.64 8.938 -177.587 -3.309 -161.203 -7.397 C -153.541 -9.309 -146.07 -9.098 -140.005 -7.202 C -144.852 -12.217 -147.097 -17.599 -145.667 -22.324 C -142.602 -32.435 -123.857 -35.705 -103.802 -29.627 C -94.084 -26.681 -85.85 -22.081 -80.284 -16.974 C -71.955 -20.878 -58.054 -22.671 -42.575 -21.211 C -18.174 -18.91 .888 -9.414 0 0 " fill="#ffffff"/>
</g>
</g>
<g opacity=".25">
<clipPath id="cp2">
<path transform="matrix(1,0,0,-1,0,1544.72)" d="M 37.5966 1000.93 L 412.106 1000.93 L 412.106 1185.4 L 37.5966 1185.4 Z "/>
</clipPath>
<g clip-path="url(#cp2)">
<path transform="matrix(1,0,0,-1,116.1554,456.65455)" d="M 0 0 C 7.671 -.022 15.079 -.395 22.083 -1.07 C 19.571 6.385 18.206 14.364 18.203 22.66 C 18.187 63.886 51.74 97.317 93.139 97.333 C 134.544 97.35 168.121 63.946 168.138 22.72 C 168.138 19.592 167.943 16.508 167.569 13.479 C 168.381 13.579 169.207 13.638 170.049 13.638 C 177.66 13.641 184.28 9.417 187.673 3.195 C 192.763 12.095 203.726 17.02 214.993 14.61 C 228.791 11.659 237.823 -1.175 235.165 -14.055 C 234.813 -15.758 234.268 -17.375 233.567 -18.894 C 269.836 -21.285 295.97 -27.84 295.951 -35.483 C 295.926 -45.044 255.014 -52.685 204.569 -52.549 C 202.186 -52.541 199.825 -52.52 197.488 -52.479 C 186.371 -66.023 158.913 -75.556 126.822 -75.469 C 116.831 -75.442 107.297 -74.484 98.565 -72.767 C 89.839 -81.502 75.591 -87.177 59.497 -87.131 C 33.006 -87.063 11.556 -71.53 11.61 -52.447 C 11.613 -51.642 11.667 -50.849 11.743 -50.061 C 7.871 -50.237 3.904 -50.324 -.13 -50.313 C -43.476 -50.199 -78.599 -38.841 -78.559 -24.948 C -78.526 -11.052 -43.346 .116 0 0 " fill="#ffffff"/>
</g>
</g>
<path transform="matrix(1,0,0,-1,691.684,322.3579)" d="M 0 0 C -51.813 0 -93.822 42.003 -93.822 93.822 C -93.822 133.109 -69.651 166.708 -35.386 180.685 C -40.538 181.321 -45.751 181.76 -51.071 181.76 C -120.93 181.76 -177.56 125.127 -177.56 55.271 C -177.56 -14.589 -120.93 -71.221 -51.071 -71.221 C 12.219 -71.221 64.501 -24.68 73.796 36.009 C 56.622 14.115 29.984 0 0 0 " fill="#ff9700"/>
<path transform="matrix(1,0,0,-1,656.2982,141.67334)" d="M 0 0 C -5.155 .636 -10.367 1.075 -15.685 1.075 C -76.544 1.075 -127.293 -41.93 -139.38 -99.188 C -135.933 -172.627 -75.8 -231.247 -1.508 -231.247 C 32.229 -231.247 62.735 -218.708 86.763 -198.663 C 98.027 -182.891 106.12 -164.685 109.182 -144.676 C 92.01 -166.567 65.373 -180.685 35.386 -180.685 C -16.427 -180.685 -58.436 -138.681 -58.436 -86.863 C -58.436 -47.575 -34.262 -13.974 0 0 " fill="#ffbe06"/>
<g opacity=".570007">
<clipPath id="cp3">
<path transform="matrix(1,0,0,-1,0,1544.72)" d="M 92.8997 456.796 L 829.91 456.796 L 829.91 1475.59 L 92.8997 1475.59 Z "/>
</clipPath>
<g clip-path="url(#cp3)">
<path transform="matrix(1,0,0,-1,344.153,304.74366)" d="M 0 0 L 3.487 11.061 L 6.563 -.26 C 7.102 -2.255 8.624 -3.837 10.595 -4.457 L 21.655 -7.947 L 10.338 -11.02 C 8.339 -11.561 6.758 -13.08 6.135 -15.054 L 2.651 -26.115 L -.425 -14.794 C -.964 -12.799 -2.486 -11.215 -4.457 -10.592 L -15.52 -7.107 L -4.2 -4.034 C -2.204 -3.495 -.62 -1.974 0 0 " fill="#ffedc0"/>
<path transform="matrix(1,0,0,-1,151.5602,89.61804)" d="M 0 0 L 6.458 20.489 L 12.146 -.479 C 13.148 -4.172 15.964 -7.105 19.617 -8.253 L 40.103 -14.708 L 19.14 -20.402 C 15.444 -21.401 12.515 -24.217 11.361 -27.87 L 4.909 -48.353 L -.785 -27.39 C -1.787 -23.694 -4.603 -20.765 -8.253 -19.614 L -28.739 -13.159 L -7.774 -7.468 C -4.08 -6.466 -1.151 -3.65 0 0 " fill="#ffedc0"/>
<path transform="matrix(1,0,0,-1,735.03,113.553348)" d="M 0 0 L 4.492 14.256 L 8.453 -.333 C 9.149 -2.908 11.109 -4.944 13.652 -5.746 L 27.91 -10.24 L 13.319 -14.199 C 10.746 -14.9 8.708 -16.858 7.906 -19.4 L 3.414 -33.656 L -.547 -19.067 C -1.246 -16.495 -3.203 -14.456 -5.746 -13.655 L -20.004 -9.16 L -5.413 -5.201 C -2.843 -4.503 -.802 -2.542 0 0 " fill="#ffedc0"/>
<path transform="matrix(1,0,0,-1,784.5874,659.1435)" d="M 0 0 L 6.458 20.486 L 12.149 -.474 C 13.148 -4.172 15.964 -7.099 19.617 -8.253 L 40.1 -14.708 L 19.14 -20.399 C 15.444 -21.401 12.515 -24.217 11.361 -27.867 L 4.906 -48.355 L -.782 -27.388 C -1.787 -23.694 -4.603 -20.765 -8.253 -19.614 L -28.739 -13.159 L -7.773 -7.468 C -4.078 -6.466 -1.148 -3.65 0 0 " fill="#ffedc0"/>
<path transform="matrix(1,0,0,-1,108.4198,199.36048)" d="M 0 0 L 3.487 11.066 L 6.558 -.26 C 7.102 -2.253 8.624 -3.837 10.592 -4.457 L 21.658 -7.944 L 10.335 -11.015 C 8.339 -11.559 6.758 -13.078 6.135 -15.049 L 2.651 -26.115 L -.422 -14.794 C -.967 -12.796 -2.486 -11.215 -4.459 -10.592 L -15.52 -7.107 L -4.2 -4.034 C -2.204 -3.493 -.62 -1.971 0 0 " fill="#ffedc0"/>
<path transform="matrix(1,0,0,-1,578.5378,921.21908)" d="M 0 0 L 3.487 11.061 L 6.561 -.26 C 7.102 -2.255 8.624 -3.839 10.595 -4.462 L 21.656 -7.947 L 10.338 -11.02 C 8.339 -11.562 6.758 -13.081 6.138 -15.054 L 2.651 -26.115 L -.425 -14.794 C -.964 -12.796 -2.486 -11.218 -4.459 -10.598 L -15.52 -7.107 L -4.2 -4.034 C -2.201 -3.493 -.623 -1.974 0 0 " fill="#ffedc0"/>
<path transform="matrix(1,0,0,-1,269.9561,826.26577)" d="M 0 0 L 3.487 11.063 L 6.558 -.26 C 7.102 -2.253 8.624 -3.839 10.592 -4.459 L 21.658 -7.944 L 10.335 -11.017 C 8.339 -11.559 6.758 -13.078 6.135 -15.052 L 2.651 -26.115 L -.422 -14.792 C -.967 -12.796 -2.486 -11.215 -4.459 -10.595 L -15.52 -7.105 L -4.2 -4.034 C -2.204 -3.49 -.62 -1.974 0 0 " fill="#ffedc0"/>
<path transform="matrix(1,0,0,-1,799.5308,1051.2958)" d="M 0 0 L 4.89 15.517 L 9.203 -.363 C 9.964 -3.16 12.095 -5.38 14.859 -6.252 L 30.379 -11.142 L 14.499 -15.452 C 11.7 -16.213 9.479 -18.347 8.607 -21.111 L 3.718 -36.629 L -.593 -20.748 C -1.351 -17.952 -3.487 -15.731 -6.249 -14.859 L -21.769 -9.969 L -5.889 -5.659 C -3.089 -4.898 -.872 -2.767 0 0 " fill="#ffedc0"/>
<path transform="matrix(1,0,0,-1,137.7703,698.12509)" d="M 0 0 L 4.495 14.258 L 8.453 -.333 C 9.154 -2.903 11.112 -4.944 13.655 -5.743 L 27.91 -10.237 L 13.321 -14.199 C 10.749 -14.895 8.71 -16.855 7.909 -19.395 L 3.414 -33.656 L -.544 -19.064 C -1.243 -16.492 -3.203 -14.453 -5.743 -13.654 L -20.001 -9.16 L -5.413 -5.199 C -2.838 -4.497 -.801 -2.54 0 0 " fill="#ffedc0"/>
</g>
</g>
<path transform="matrix(1,0,0,-1,752.6091,1083.2359)" d="M 0 0 C 0 0 9.592 -20.737 13.179 -40.197 C 43.525 .776 61.558 47.539 -.685 238.112 L -379.552 194.05 C -364.991 44.12 -402.875 -65.196 -305.8 -99.682 C -305.602 -97.885 -303.903 -89.316 -301.526 -89.412 C -298.301 -89.541 -294.033 -98.978 -292.492 -101.008 C -242.582 -103.675 -74.983 -90.379 -35.449 -73.112 C -21.716 -67.114 -10.134 -60.091 -.644 -51.101 C -.972 -28.496 0 0 0 0 " fill="#af4935"/>
<path transform="matrix(1,0,0,-1,518.074,1354.127)" d="M 0 0 C 2.962 -1.575 26.281 34.28 23.546 36.212 C -17.336 65.1 -79.859 127.994 -89.917 138.165 C -89.917 138.165 -133.723 98.35 -114.703 77.556 C -95.674 56.755 -59.559 31.678 0 0 " fill="#ffc19f"/>
<path transform="matrix(1,0,0,-1,412.4635,1225.5449)" d="M 0 0 C 0 0 45.764 -52.555 53.497 -59.525 C 67.02 -50.777 95.776 -28.362 108.097 -19.479 C 110.02 -4.104 108.774 85.94 108.774 85.94 C 108.774 85.94 76.471 73.563 71.957 69.365 C 55.649 54.201 0 0 0 0 " fill="#ff3e71"/>
<g opacity=".119995">
<clipPath id="cp4">
<path transform="matrix(1,0,0,-1,0,1544.72)" d="M 316.368 12.1445 L 688.63 12.1445 L 688.63 82.1486 L 316.368 82.1486 Z "/>
</clipPath>
<g clip-path="url(#cp4)">
<path transform="matrix(1,0,0,-1,316.3859,1512.5615)" d="M 0 0 C 1.408 -17.463 85.874 -24.911 188.66 -16.634 C 291.448 -8.356 373.634 12.513 372.227 29.976 C 370.821 47.439 286.355 54.888 183.567 46.61 C 80.779 38.332 -1.405 17.463 0 0 "/>
</g>
</g>
<path transform="matrix(1,0,0,-1,778.9791,1259.0549)" d="M 0 0 C -19.598 36.491 -58.713 97.062 -66.14 102.648 L -133.306 58.781 C -126.641 44.433 -44.979 -25.909 -28.781 -32.853 C -23.002 -37.318 4.161 -20.448 0 0 " fill="#e4a78e"/>
<path transform="matrix(1,0,0,-1,780.123,1233.3484)" d="M 0 0 C -14.863 -14.393 -53.773 -42.793 -75.789 -58.736 C -94.073 -34.329 -131.765 18.197 -132.503 20.529 C -145.73 62.332 -143.783 97.653 -143.551 99.73 C -107.853 97.392 -82.344 94.795 -75.191 89.901 C -59.776 75.825 -26.95 27.346 0 0 " fill="#ff3e71"/>
<path transform="matrix(1,0,0,-1,727.0685,1393.0737)" d="M 0 0 C -34.958 -16.298 -127.423 -23.236 -178.222 -3.236 C -219.184 12.892 -215.466 33.272 -243.126 58.258 C -225.744 91.215 -237.253 156.7 -228.831 239.705 C -179.44 254.412 -118.597 268.267 -45.615 253.857 C -18.675 222.91 -2.796 61.473 0 0 " fill="#ff3e71"/>
<path transform="matrix(1,0,0,-1,633.2766,1133.3117)" d="M 0 0 C .81 -2.403 1.352 -4.892 1.505 -7.474 C 2.785 -29.011 -20.523 -47.918 -50.552 -49.702 C -80.583 -51.485 -105.969 -35.473 -107.249 -13.936 C -107.332 -12.543 -107.036 -11.203 -106.917 -9.836 C -75.076 -.94 -42.194 3.3 0 0 " fill="#ffc19f"/>
<path transform="matrix(1,0,0,-1,619.7726,1087.9243)" d="M 0 0 L 4.259 -58.468 C 5.173 -71.041 -13.026 -82.552 -36.391 -84.175 C -59.757 -85.797 -79.44 -76.92 -80.356 -64.347 L -84.615 -5.877 Z " fill="#ffc19f"/>
<path transform="matrix(1,0,0,-1,690.2797,1139.0271)" d="M 0 0 C -9.719 2.097 -41.507 5.148 -53.707 5.409 C -49.735 -25.815 -57.077 -59.446 -117.47 -66.314 C -95.363 -116.583 -73.886 -212.278 -55.574 -221.74 C -18.788 -240.747 34.263 -239.205 47.21 -234.468 C 38.683 -159.311 12.79 -26.525 0 0 " fill="#ff3e71"/>
<path transform="matrix(1,0,0,-1,522.9955,1144.8169)" d="M 0 0 C -8.867 -2.101 -16.942 -4.814 -24.758 -7.629 C -29.838 -58.032 -30.525 -141.429 -31.813 -175.687 C -6.838 -175.851 27.869 -134.478 49.814 -60.524 C 35.13 -56.971 -4.187 -43.233 0 0 " fill="#ff3e71"/>
<path transform="matrix(1,0,0,-1,638.1351,1395.9271)" d="M 0 0 C -2.577 -1.571 -6.596 -4.967 -8.475 -4.997 C -35.881 26.179 -119.894 99.684 -138.941 123.502 C -169.092 161.205 -251.533 156.57 -248.92 94.606 C -232.497 72.646 -133.51 -71.674 -121.701 -85.487 C -107.932 -101.593 -75.361 -102.724 -46.482 -95.91 C -8.494 -86.945 9.647 -56.478 0 0 " fill="#224a66"/>
<g opacity=".300003">
<clipPath id="cp5">
<path transform="matrix(1,0,0,-1,0,1544.72)" d="M 470.213 133.63 L 527.293 133.63 L 527.293 246.004 L 470.213 246.004 Z "/>
</clipPath>
<g clip-path="url(#cp5)">
<path transform="matrix(1,0,0,-1,527.2927,1401.3576)" d="M 0 0 C -9.424 -3.189 -50.522 -9.974 -55.345 -9.726 C -60.716 25.383 -52.034 94.209 -50.575 102.641 C -50.575 102.641 -2.607 27.907 0 0 " fill="#420000"/>
</g>
</g>
<path transform="matrix(1,0,0,-1,480.4233,1459.0518)" d="M 0 0 C -.013 -1.884 -70.386 -4.537 -70.664 -2.271 C -73.099 17.437 -74.638 57.424 -75.835 68.872 L -.668 71.77 C -1.35 51.998 .104 13.61 0 0 " fill="#ffc19f"/>
<path transform="matrix(1,0,0,-1,485.1734,1467.4591)" d="M 0 0 C -.004 -1.157 -77.403 -8.641 -77.724 -7.276 C -80.509 4.61 -83.309 33.665 -84.691 40.584 L -1.127 43.956 C -1.161 30.776 .04 8.354 0 0 " fill="#fff9e1"/>
<path transform="matrix(1,0,0,-1,391.4454,1459.7662)" d="M 0 0 C 1.123 4.119 3.451 9.334 5.252 14.106 C 6.589 17.644 41.211 17.095 41.311 8.59 C 41.337 6.413 41.25 4.491 41.071 2.747 C 46.995 2.692 53.42 2.766 60.203 3.017 C 74.953 3.562 88.174 4.767 97.449 6.249 C 98.057 -7.2 96.894 -30.491 97.447 -45.443 C 97.447 -45.443 -56.993 -74.434 -81.343 -52.045 C -88.206 -45.734 -49.442 -17.665 0 0 " fill="#f73e6e"/>
<path transform="matrix(1,0,0,-1,488.752,1495.832)" d="M 0 0 C .004 -3.325 .034 -6.53 .14 -9.377 C .14 -9.377 -154.299 -38.368 -178.649 -15.979 C -179.617 -15.088 -179.663 -13.759 -178.915 -12.096 C -136.294 -21.322 -38.398 -6.483 0 0 " fill="#d32955"/>
<path transform="matrix(1,0,0,-1,353.9571,1473.8165)" d="M 0 0 C .2 -1.176 1.286 -1.99 2.498 -1.763 C 9.685 -.419 19.158 -3.94 25.449 -10.081 C 25.892 -10.51 26.468 -10.714 27.038 -10.693 C 27.573 -10.674 28.103 -10.455 28.505 -10.042 C 29.34 -9.188 29.323 -7.82 28.469 -6.985 C 21.244 .062 10.28 3.978 1.763 2.494 C .587 2.294 -.202 1.174 0 0 M 36.801 -4.108 C 37.246 -4.578 37.852 -4.805 38.451 -4.782 C 38.958 -4.765 39.461 -4.567 39.857 -4.195 C 40.724 -3.372 40.761 -2.003 39.942 -1.138 C 33.1 6.094 23.761 9.634 14.306 8.518 C 13.119 8.38 12.269 7.31 12.405 6.124 C 12.543 4.937 13.629 4.006 14.801 4.225 C 19.562 4.778 28.73 4.418 36.801 -4.108 M 47.718 1.174 C 48.16 .587 48.842 .291 49.525 .315 C 49.95 .332 50.378 .474 50.743 .748 C 51.698 1.469 51.887 2.824 51.167 3.776 C 45.166 11.726 34.711 15.875 25.741 13.921 C 24.575 13.661 23.84 12.507 24.097 11.342 C 24.354 10.176 25.498 9.462 26.674 9.696 C 34.046 11.359 42.7 7.82 47.718 1.174 " fill="#d3dae5"/>
<path transform="matrix(1,0,0,-1,488.4033,1410.4537)" d="M 0 0 C -9.373 -2.596 -84.755 -5.713 -89.429 -5.165 C -92.363 30.201 -98.693 86.488 -99.403 116.56 L -3.126 116.56 C -1.727 84.3 -.714 28.009 0 0 " fill="#224a66"/>
<g opacity=".199997">
<clipPath id="cp6">
<path transform="matrix(1,0,0,-1,0,1544.72)" d="M 372.324 25.6861 L 595.616 25.6861 L 595.616 280.34 L 372.324 280.34 Z "/>
</clipPath>
<g clip-path="url(#cp6)">
<path transform="matrix(1,0,0,-1,372.3239,1519.0338)" d="M 0 0 L 2.586 5.669 C 2.586 5.669 27.835 25.662 44.386 34.207 C 44.522 35.5 44.996 36.738 45.764 37.82 C 46.967 39.483 48.734 40.573 50.714 40.886 C 52.674 41.209 54.811 41.296 57.039 41.107 C 57.792 44.114 60.352 46.489 63.607 46.848 C 65.279 47.027 67.02 47.067 68.878 46.957 C 69.078 47.59 69.374 48.213 69.754 48.792 C 70.871 50.497 72.576 51.664 74.547 52.072 C 77.317 52.659 80.271 52.683 83.494 52.223 C 84.211 54.169 85.046 56.24 85.903 58.309 L 87.743 62.884 C 88.291 64.247 89.218 65.189 90.247 65.844 L 98.238 66.28 C 98.499 73.012 129.528 202.27 137.174 225.055 C 146.944 247.908 144.797 256.201 162.517 254.421 C 187.905 251.869 238.767 40.361 218.721 31.069 C 192.67 18.99 24.697 .868 14.242 .583 C 9.568 .455 1.114 .151 0 0 "/>
</g>
</g>
<g opacity=".350006">
<clipPath id="cp7">
<path transform="matrix(1,0,0,-1,0,1544.72)" d="M 515.606 48.9378 L 640.69 48.9378 L 640.69 269.071 L 515.606 269.071 Z "/>
</clipPath>
<g clip-path="url(#cp7)">
<path transform="matrix(1,0,0,-1,516.4338,1481.4138)" d="M 0 0 C -4.518 5.284 10.733 211.192 15.16 205.655 C 34.205 181.836 119.126 83.915 121.701 85.487 C 131.348 29.009 113.209 -1.459 75.219 -10.423 C 46.34 -17.238 13.772 -16.109 0 0 " fill="#420000"/>
</g>
</g>
<path transform="matrix(1,0,0,-1,548.7552,1482.6237)" d="M 0 0 C -.521 -1.812 -69.014 14.552 -68.674 16.81 C -65.721 36.449 -56.452 75.376 -54.53 86.724 L 18.652 69.306 C 12.679 50.446 3.759 13.083 0 0 " fill="#ffc19f"/>
<path transform="matrix(1,0,0,-1,550.9156,1491.9728)" d="M 0 0 C -.323 -1.112 -80.341 13.07 -80.29 14.473 C -79.846 26.68 -74.721 55.419 -74.22 62.459 L 10.886 42.615 C 7.246 29.94 2.324 8.031 0 0 " fill="#fff9e1"/>
<path transform="matrix(1,0,0,-1,465.1695,1469.292)" d="M 0 0 C 1.033 4.14 3.251 9.405 4.95 14.214 C 6.211 17.78 40.837 17.969 41.12 9.466 C 41.19 7.291 41.143 5.367 41.003 3.621 C 46.927 3.691 53.348 3.904 60.125 4.297 C 74.86 5.156 88.053 6.643 97.294 8.322 C 98.189 -5.112 97.521 -28.42 98.391 -43.357 C 98.391 -43.357 -55.394 -75.631 -80.218 -53.765 C -87.213 -47.603 -49.055 -18.715 0 0 " fill="#f73e6e"/>
<path transform="matrix(1,0,0,-1,563.2202,1503.2782)" d="M 0 0 C .077 -3.323 .174 -6.528 .34 -9.37 C .34 -9.37 -153.444 -41.645 -178.268 -19.779 C -179.253 -18.911 -179.327 -17.584 -178.615 -15.904 C -135.809 -24.22 -38.249 -7.299 0 0 " fill="#d32955"/>
<path transform="matrix(1,0,0,-1,427.9874,1484.1397)" d="M 0 0 C .228 -1.172 1.329 -1.96 2.537 -1.71 C 9.692 -.211 19.236 -3.532 25.658 -9.534 C 26.111 -9.955 26.691 -10.147 27.261 -10.113 C 27.797 -10.083 28.32 -9.853 28.715 -9.432 C 29.53 -8.56 29.485 -7.193 28.613 -6.377 C 21.239 .515 10.195 4.197 1.71 2.532 C .538 2.307 -.227 1.172 0 0 M 36.882 -3.323 C 37.335 -3.783 37.948 -3.997 38.545 -3.961 C 39.051 -3.932 39.551 -3.725 39.94 -3.343 C 40.788 -2.503 40.795 -1.133 39.957 -.285 C 32.964 6.798 23.551 10.14 14.121 8.82 C 12.938 8.658 12.111 7.569 12.273 6.387 C 12.434 5.203 13.542 4.295 14.71 4.542 C 19.455 5.194 28.63 5.031 36.882 -3.323 M 47.684 2.192 C 48.139 1.614 48.828 1.331 49.508 1.371 C 49.933 1.397 50.359 1.548 50.718 1.831 C 51.656 2.571 51.815 3.929 51.075 4.867 C 44.907 12.687 34.367 16.61 25.439 14.467 C 24.28 14.184 23.568 13.013 23.853 11.854 C 24.133 10.693 25.292 10.004 26.464 10.264 C 33.797 12.081 42.523 8.728 47.684 2.192 " fill="#d3dae5"/>
<g opacity=".199997">
<clipPath id="cp8">
<path transform="matrix(1,0,0,-1,0,1544.72)" d="M 492.086 381.944 L 623.336 381.944 L 623.336 479.969 L 492.086 479.969 Z "/>
</clipPath>
<g clip-path="url(#cp8)">
<path transform="matrix(1,0,0,-1,494.7055,1143.1542)" d="M 0 0 C 10.104 -21.66 46.504 -26.059 81.3 -9.828 C 116.096 6.404 136.115 37.123 126.011 58.783 C 115.907 80.441 79.508 84.842 44.711 68.61 C 9.915 52.379 -10.104 21.66 0 0 " fill="#720808"/>
</g>
</g>
<path transform="matrix(1,0,0,-1,760.0745,881.5699)" d="M 0 0 C 13.791 -129.354 -54.577 -183.72 -162.959 -206.265 C -268.125 -228.142 -387.851 -129.902 -387.234 -2.896 C -386.892 67.622 -327.224 127.925 -224.844 135.56 C -115.871 143.685 -11.299 106.001 0 0 " fill="#af4935"/>
<path transform="matrix(1,0,0,-1,691.9828,850.73477)" d="M 0 0 C 6.062 -16.632 -3.294 -186.023 -26.449 -219.744 C -46.774 -249.343 -95.14 -284.769 -173.374 -292.641 C -231.193 -298.458 -286.821 -256.318 -296.34 -215.338 C -304.386 -180.701 -299.447 -167.382 -301.677 -143.487 C -304.69 -111.229 -306.123 -96.326 -308.084 -81.517 C -310.578 -62.665 -318.641 -31.624 -308.902 -6.9 C -291.475 37.35 -228.974 68.897 -151.503 75.187 C -79.027 81.07 -21.947 60.218 0 0 " fill="#ffc19f"/>
<path transform="matrix(1,0,0,-1,683.0057,973.56509)" d="M 0 0 C 18.973 42.421 32.893 102.914 27.958 161.539 C 22.991 220.541 -205.712 221.251 -247.134 176.884 C -253.362 170.216 -70.382 159.683 -63.208 154.048 C -17.167 117.899 -18.735 21.658 0 0 " fill="#af4935"/>
<path transform="matrix(1,0,0,-1,734.3339,1009.4161)" d="M 0 0 C -11.661 -36.504 -48.947 -57.784 -75.821 -52.678 C -102.695 -47.571 -93.424 62.283 -44.088 69.182 C -2.998 74.93 10.963 34.312 0 0 " fill="#ffc19f"/>
<path transform="matrix(1,0,0,-1,702.4611,1006.39688)" d="M 0 0 C -2.951 -15.53 -21.199 -27.805 -34.203 -22.785 C -39.274 -20.827 -27.69 33.263 -19.455 32.832 C -5.535 32.102 2.951 15.53 0 0 " fill="#e0956c"/>
<path transform="matrix(1,0,0,-1,558.1491,1044.4379)" d="M 0 0 C -4.369 13.289 -24.765 8.401 -53.431 6.047 C -54.932 5.924 -60.76 5.397 -62.259 5.25 C -90.883 2.432 -107.985 4.376 -108.059 -9.619 C -108.191 -34.909 -84.321 -59.633 -55.121 -58.608 C -26.021 -57.588 8.582 -26.117 0 0 " fill="#701608"/>
<path transform="matrix(1,0,0,-1,476.8533,1096.4677)" d="M 0 0 C 7.759 -4.295 16.619 -6.915 26.174 -6.579 C 36.478 -6.217 47.407 -1.916 56.929 4.493 C 48.349 11.852 35.951 15.194 24.669 13.938 C 14.369 12.794 5.005 7.801 0 0 " fill="#dd6b5b"/>
<path transform="matrix(1,0,0,-1,499.3259,1056.6703)" d="M 0 0 C -21.184 -1.909 -38.702 2.524 -41.828 12.243 L -42.011 12.838 C -35.932 15.758 -17.659 16.466 -6.74 17.533 C 5.173 18.701 39.483 21.443 39.483 21.443 L 39.408 20.825 C 38.101 10.708 21.165 1.909 0 0 " fill="#ffffff"/>
<path transform="matrix(1,0,0,-1,625.9366,1033.6259)" d="M 0 0 C 1.503 -7.657 -7.916 -15.951 -21.044 -18.53 C -34.167 -21.105 -46.029 -16.991 -47.533 -9.334 C -49.036 -1.678 -39.61 6.619 -26.489 9.196 C -13.361 11.773 -1.503 7.657 0 0 " fill="#ff8a8a"/>
<path transform="matrix(1,0,0,-1,426.3162,1051.6204)" d="M 0 0 C .138 -6.936 -6.409 -12.692 -14.625 -12.855 C -22.838 -13.019 -29.613 -7.529 -29.751 -.591 C -29.889 6.345 -23.338 12.101 -15.126 12.264 C -6.91 12.428 -.138 6.936 0 0 " fill="#ff8a8a"/>
<path transform="matrix(1,0,0,-1,502.9703,1026.0881)" d="M 0 0 C -.855 -.07 -1.656 .485 -1.873 1.344 C -3.398 7.442 -8.609 11.042 -15.15 10.51 C -21.724 9.976 -26.393 5.496 -26.77 -.638 C -26.833 -1.62 -27.684 -2.373 -28.66 -2.309 C -29.644 -2.25 -30.393 -1.403 -30.331 -.419 C -29.851 7.438 -23.725 13.395 -15.437 14.067 C -7.197 14.737 -.355 9.972 1.59 2.211 C 1.829 1.255 1.248 .287 .293 .047 Z " fill="#c4735b"/>
<path transform="matrix(1,0,0,-1,449.2459,976.1634)" d="M 0 0 C 10.223 -17.093 10.757 -36.795 3.715 -44.866 C -6.896 -57.031 -33.925 -62.449 -45.443 -47.042 C -56.601 -32.122 -54.197 -3.077 -39.136 10.555 C -25.951 22.487 -9.894 16.542 0 0 " fill="#f9feff"/>
<path transform="matrix(1,0,0,-1,398.0028,975.30648)" d="M 0 0 C 10.242 28.611 41.128 21.703 51.588 -1.437 C 41.371 15.647 24.767 19.762 12.577 8.739 C 5.043 1.918 .236 -9.526 -.289 -21.869 C -.706 -31.711 1.801 -42.508 6.434 -48.706 C 1.369 -44.826 -7.531 -21.039 0 0 " fill="#843923"/>
<path transform="matrix(1,0,0,-1,431.6149,990.78787)" d="M 0 0 C 4.605 -12.041 1.527 -26.43 -6.876 -32.134 C -15.279 -37.839 -25.824 -32.702 -30.429 -20.661 C -35.035 -8.618 -31.956 5.769 -23.553 11.473 C -15.15 17.18 -4.605 12.043 0 0 " fill="#461d14"/>
<path transform="matrix(1,0,0,-1,430.0329,988.77847)" d="M 0 0 C 1.278 -3.34 .425 -7.333 -1.907 -8.915 C -4.238 -10.5 -7.163 -9.073 -8.441 -5.732 C -9.719 -2.392 -8.864 1.601 -6.534 3.183 C -4.204 4.767 -1.278 3.34 0 0 " fill="#fefffe"/>
<path transform="matrix(1,0,0,-1,531.7068,968.8448)" d="M 0 0 C -9.351 -18.839 -6.115 -38.301 4.253 -44.822 C 19.874 -54.647 54.611 -54.56 65.91 -37.123 C 76.854 -20.231 68.113 7.818 46.657 18.197 C 27.873 27.282 9.049 18.229 0 0 " fill="#f9feff"/>
<path transform="matrix(1,0,0,-1,595.361,957.75198)" d="M 0 0 C -18.418 26.057 -55.521 13.089 -63.967 -11.733 C -54.624 7.095 -34.758 14.456 -17.393 6.068 C -6.662 .874 1.593 -9.404 4.688 -21.424 C 7.157 -31.01 6.17 -42.121 1.624 -49.136 C 7.166 -44.309 13.544 -19.162 0 0 " fill="#843923"/>
<path transform="matrix(1,0,0,-1,570.8026,977.92819)" d="M 0 0 C 5.533 -11.96 1.32 -26.449 -9.407 -32.36 C -20.134 -38.273 -33.314 -33.37 -38.847 -21.409 C -44.38 -9.451 -40.167 5.037 -29.44 10.95 C -18.713 16.861 -5.533 11.96 0 0 " fill="#461d14"/>
<path transform="matrix(1,0,0,-1,568.8549,975.95278)" d="M 0 0 C 1.535 -3.317 .366 -7.338 -2.609 -8.977 C -5.586 -10.617 -9.243 -9.258 -10.778 -5.939 C -12.313 -2.622 -11.144 1.399 -8.167 3.038 C -5.192 4.68 -1.535 3.319 0 0 " fill="#fefffe"/>
<path transform="matrix(1,0,0,-1,375.0157,822.987)" d="M 0 0 C 38.235 34.39 82.093 48.543 134.737 51.016 C 193.982 53.797 271.846 35.583 316.193 -14.259 C 307.507 8.528 289.219 30.822 278.79 38.054 C 285.968 38.628 311.596 52.338 365.484 38.341 C 336.799 90.013 296.763 82.248 281.835 61.881 C 287.257 98.831 265.124 126.928 216.352 111.323 C 257.062 91.885 269.249 54.084 273.306 42.049 C 235.212 66.478 193.854 79.255 141.663 72.178 C 79.391 63.735 35.675 42.472 0 0 " fill="#ffaa00"/>
<path transform="matrix(1,0,0,-1,357.0891,819.95907)" d="M 0 0 C 8.428 -3.021 18.471 -.808 22.237 2.49 C 11.592 25.93 19.179 57.237 46.827 63.256 C 49.274 2.981 226.21 82.068 280.923 6.049 C 279.262 6.03 288.443 -5.934 276.366 -17.608 C 260.715 -34.799 219.452 -63.05 172.621 -62.123 C 190.709 -55.989 226.794 -35.073 226.027 -25.188 C 200.856 -38.369 162.589 -56.903 99.295 -61.806 C 39.574 -66.433 -8.239 -45.27 0 0 " fill="#af4935"/>
<path transform="matrix(1,0,0,-1,633.6401,814.79647)" d="M 0 0 C -3.109 -43.937 -9.785 -92.831 -11.452 -107.379 C -13.291 -123.447 10.521 -194.681 76.42 -157.927 C -9.049 -142.471 99.45 -32.526 0 0 " fill="#af4935"/>
<path transform="matrix(1,0,0,-1,606.341,914.12948)" d="M 0 0 C -1.299 -.008 -2.6 .444 -3.64 1.367 C -16.965 13.115 -42.143 16.245 -62.253 8.607 C -65.04 7.531 -68.198 8.945 -69.28 11.769 C -70.348 14.578 -68.936 17.72 -66.118 18.796 C -42.126 27.892 -12.806 23.999 3.57 9.528 C 5.824 7.536 6.039 4.095 4.044 1.841 C 2.981 .629 1.497 .011 0 0 " fill="#72221a"/>
<path transform="matrix(1,0,0,-1,388.5473,933.27438)" d="M 0 0 C -1.193 -.176 -2.462 .185 -3.474 1.125 C -5.371 2.868 -5.671 5.932 -4.146 7.974 C 6.936 22.794 29.757 29.868 50.108 24.818 C 52.498 24.218 54.052 21.616 53.586 19 C 53.114 16.374 50.797 14.735 48.419 15.335 C 31.36 19.594 11.709 13.714 2.713 1.661 C 2.009 .717 1.035 .153 0 0 " fill="#72221a"/>
<path transform="matrix(1,0,0,-1,623.3361,1332.2846)" d="M 0 0 C -25.778 5.604 -79.779 8.089 -111.463 37.801 C -111.463 37.801 -124.583 54.674 -125.549 61.544 C -132.428 110.461 -128.348 82.099 -127.005 121.954 C -84.497 122.904 28.549 122.257 65.946 119.038 C 67.113 82.381 58.274 63.687 55.494 3.677 C 53.568 -37.922 14.579 -2.416 0 0 " fill="#224a66"/>
<path transform="matrix(1,0,0,-1,508.6307,1221.8936)" d="M 0 0 L 8.832 -.122 L 9.121 20.736 C 9.134 21.817 10.049 22.707 11.13 22.691 L 16.976 22.611 L 17.109 32.291 L -8.898 32.652 L -9.033 22.97 L -1.669 22.868 C -.585 22.854 .302 21.94 .289 20.858 Z M 10.76 -4.114 L -2.039 -3.937 C -3.12 -3.921 -4.01 -3.009 -3.994 -1.928 L -3.705 18.93 L -11.069 19.033 C -12.151 19.049 -13.04 19.961 -13.024 21.042 L -12.835 34.691 C -12.822 35.773 -11.907 36.66 -10.826 36.646 L 19.148 36.231 C 20.229 36.215 21.119 35.301 21.103 34.219 L 20.913 20.573 C 20.9 19.491 19.985 18.602 18.904 18.617 L 13.058 18.699 L 12.769 -2.158 C 12.753 -3.24 11.841 -4.13 10.76 -4.114 " fill="#bde2ed"/>
<path transform="matrix(1,0,0,-1,504.4212,1224.3316)" d="M 0 0 C .734 -5.033 5.404 -8.52 10.432 -7.791 C 15.457 -7.058 18.935 -2.383 18.2 2.65 C 17.466 7.685 12.796 11.173 7.771 10.44 C 2.744 9.708 -.734 5.035 0 0 " fill="#f0f9fd"/>
<path transform="matrix(1,0,0,-1,668.1765,1223.6799)" d="M 0 0 L 8.832 -.122 L 9.121 20.736 C 9.137 21.817 10.051 22.707 11.133 22.691 L 16.979 22.611 L 17.111 32.294 L -8.895 32.652 L -9.03 22.97 L -1.666 22.87 C -.585 22.854 .305 21.939 .289 20.858 Z M 10.76 -4.114 L -2.036 -3.937 C -3.118 -3.921 -4.007 -3.009 -3.992 -1.928 L -3.703 18.93 L -11.067 19.033 C -12.148 19.048 -13.038 19.961 -13.024 21.042 L -12.835 34.691 C -12.819 35.773 -11.905 36.66 -10.823 36.646 L 19.15 36.231 C 20.232 36.215 21.119 35.303 21.105 34.222 L 20.916 20.572 C 20.9 19.491 19.988 18.601 18.904 18.617 L 13.061 18.699 L 12.772 -2.159 C 12.756 -3.24 11.841 -4.13 10.76 -4.114 " fill="#bde2ed"/>
<path transform="matrix(1,0,0,-1,660.9368,1192.9417)" d="M 0 0 C -.149 1.637 .12 36.4 -4.46 56.2 L 18.534 56.254 C 25.159 32.461 23.108 1.385 23.266 -.349 Z " fill="#224a66"/>
<path transform="matrix(1,0,0,-1,501.2321,1191.5659)" d="M 0 0 C -.149 1.589 .061 33.192 -1.985 47.059 L 20.048 47.994 C 23.297 29.564 23.107 1.332 23.267 -.352 Z " fill="#224a66"/>
<path transform="matrix(1,0,0,-1,663.9695,1226.1182)" d="M 0 0 C .734 -5.033 5.404 -8.52 10.429 -7.788 C 15.457 -7.058 18.934 -2.383 18.2 2.652 C 17.466 7.685 12.796 11.173 7.771 10.44 C 2.743 9.708 -.734 5.035 0 0 " fill="#f0f9fd"/>
<g opacity=".210007">
<clipPath id="cp9">
<path transform="matrix(1,0,0,-1,0,1544.72)" d="M 546.441 210.02 L 634.762 210.02 L 634.762 292.594 L 546.441 292.594 Z "/>
</clipPath>
<g clip-path="url(#cp9)">
<path transform="matrix(1,0,0,-1,546.4414,1323.714)" d="M 0 0 L 43.073 -10.986 L 86.501 1.954 L 88.321 65.763 L 2.852 71.588 Z "/>
</g>
</g>
<path transform="matrix(1,0,0,-1,550.1415,1319.428)" d="M 0 0 L 40.874 -12.857 L 82.44 -.676 L 83.534 60.74 L 2.497 62.985 Z " fill="#306484"/>
<path transform="matrix(1,0,0,-1,665.683,1228.4431)" d="M 0 0 C 24.609 -31.741 52.057 -54.647 76.146 -69.367 C 108.244 -88.984 132.947 -36.916 104.963 -22.845 C 81.819 -11.203 51.264 5.065 26.872 25.4 C 22.166 29.323 -3.855 4.973 0 0 " fill="#ffc19f"/>
<path transform="matrix(1,0,0,-1,634.8671,1185.4776)" d="M 0 0 C -.604 -4.801 4.669 -9.419 11.782 -10.314 C 18.892 -11.21 25.147 -8.044 25.751 -3.243 C 26.357 1.559 21.082 6.177 13.969 7.072 C 6.859 7.967 .604 4.801 0 0 " fill="#e4a78e"/>
<path transform="matrix(1,0,0,-1,646.7083,1158.9439)" d="M 0 0 C 3.094 .47 13.293 -1.405 20.871 -3.88 C 3.604 8.275 -6.37 -3.289 -6.972 .668 C -7.601 4.814 -2.681 12.941 2.864 13.785 C 6.774 14.38 20.944 12.016 29.189 9.117 C 16.763 19.847 3.268 13.938 3.817 17.801 C 4.408 21.952 10.132 26.383 15.737 26.6 C 23.493 26.902 46.661 15.547 48.649 10.346 C 50.926 4.393 50.507 -18.613 47.335 -37.546 C 43.646 -59.559 35.409 -82.712 21.596 -80.973 C -6.092 -77.481 8.456 -52.515 14.042 -35.838 C -3.287 -20.45 -9.432 -28.503 -11.658 -29.3 C -13.06 -25.347 -9.409 -15.717 -.3 -14.382 C 2.082 -14.033 8.679 -15.065 15.048 -16.683 C .153 -6.264 -8.203 -16.781 -8.784 -12.957 C -9.413 -8.813 -5.041 -.768 0 0 " fill="#ffc19f"/>
<path transform="matrix(1,0,0,-1,721.2318,1395.8889)" d="M 0 0 C -2.943 -1.159 -11.246 -3.036 -12.194 -3.387 C -40.257 27.197 -79.767 98.002 -99.316 121.408 C -130.264 158.462 -190.782 159.111 -207.46 106.917 C -190.573 85.312 -152.726 -73.433 -140.625 -86.99 C -126.515 -102.799 -82.412 -106.815 -53.684 -99.386 C -15.896 -89.616 10.848 -56.261 0 0 " fill="#224a66"/>
<g opacity=".160004">
<clipPath id="cp10">
<path transform="matrix(1,0,0,-1,0,1544.72)" d="M 513.746 54.8479 L 603.983 54.8479 L 603.983 226.899 L 513.746 226.899 Z "/>
</clipPath>
<g clip-path="url(#cp10)">
<path transform="matrix(1,0,0,-1,590.5981,1489.8721)" d="M 0 0 C -19.438 2.228 -51.902 96.222 -76.852 146.842 L 13.002 172.051 C 15.475 137.404 5.371 26.893 0 0 " fill="#420000"/>
</g>
</g>
<path transform="matrix(1,0,0,-1,570.3624,1438.95)" d="M 0 0 C -10.91 1.571 -82.321 21.331 -87.143 23.625 C -78.415 60.716 -63.799 124.565 -55.755 151.558 L 40.382 117.744 C 32.551 94.141 10.84 27.216 0 0 " fill="#224a66"/>
</g>
</g>
</g>
</g>
</svg>
