<?xml version="1.0" encoding="UTF-8" standalone="no"?>
<svg
   xmlns:dc="http://purl.org/dc/elements/1.1/"
   xmlns:cc="http://creativecommons.org/ns#"
   xmlns:rdf="http://www.w3.org/1999/02/22-rdf-syntax-ns#"
   xmlns:svg="http://www.w3.org/2000/svg"
   xmlns="http://www.w3.org/2000/svg"
   viewBox="0 0 4317.1602 3233.48"
   height="3233.48"
   width="4317.1602"
   xml:space="preserve"
   id="svg2"
   version="1.1"><metadata
     id="metadata8"><rdf:RDF><cc:Work
         rdf:about=""><dc:format>image/svg+xml</dc:format><dc:type
           rdf:resource="http://purl.org/dc/dcmitype/StillImage" /></cc:Work></rdf:RDF></metadata><defs
     id="defs6"><clipPath
       id="clipPath18"
       clipPathUnits="userSpaceOnUse"><path
         id="path16"
         d="M 0,2425.111 H 3237.874 V 0 H 0 Z" /></clipPath><clipPath
       id="clipPath30"
       clipPathUnits="userSpaceOnUse"><path
         id="path28"
         d="M 196.654,130.219 H 1052.61 V 9.7856 H 196.654 Z" /></clipPath><clipPath
       id="clipPath74"
       clipPathUnits="userSpaceOnUse"><path
         id="path72"
         d="M 421.054,913.037 H 952.295 V 718.355 H 421.054 Z" /></clipPath><clipPath
       id="clipPath258"
       clipPathUnits="userSpaceOnUse"><path
         id="path256"
         d="M 394.296,1219.43 H 745.762 V 963.227 H 394.296 Z" /></clipPath><clipPath
       id="clipPath286"
       clipPathUnits="userSpaceOnUse"><path
         id="path284"
         d="M 625.443,1431.22 H 823.544 V 1180.37 H 625.443 Z" /></clipPath><clipPath
       id="clipPath310"
       clipPathUnits="userSpaceOnUse"><path
         id="path308"
         d="M 563.875,988.046 H 739.797 V 844.645 H 563.875 Z" /></clipPath><clipPath
       id="clipPath338"
       clipPathUnits="userSpaceOnUse"><path
         id="path336"
         d="m 1675.14,121.238 h 861.67 V 0 h -861.67 z" /></clipPath><clipPath
       id="clipPath382"
       clipPathUnits="userSpaceOnUse"><path
         id="path380"
         d="m 1903.53,909.285 h 513.72 V 713.302 h -513.72 z" /></clipPath><clipPath
       id="clipPath606"
       clipPathUnits="userSpaceOnUse"><path
         id="path604"
         d="m 1462.54,1426.06 h 105.91 v -146.35 h -105.91 z" /></clipPath><clipPath
       id="clipPath626"
       clipPathUnits="userSpaceOnUse"><path
         id="path624"
         d="m 1513.84,1417.34 h 74.43 v -58.95 h -74.43 z" /></clipPath></defs><g
     transform="matrix(1.3333333,0,0,-1.3333333,0,3233.48)"
     id="g10"><g
       id="g12"><g
         clip-path="url(#clipPath18)"
         id="g14"><g
           transform="translate(50.2149,1578.3264)"
           id="g20"><path
             id="path22"
             style="fill:#752912;fill-opacity:1;fill-rule:nonzero;stroke:none"
             d="m 0,0 c -23.767,37.744 -21.709,78.625 -0.682,125.217 11.826,26.19 34.042,50.956 49.409,78.787 C 38.846,123.231 -12.861,56.507 0,0 m 1131.507,53.205 c -15.34,5.529 -62.535,26.419 -67.47,104.971 -1.819,29.089 -22.627,34.643 -40.994,39.561 -25.046,6.705 -46.681,12.492 -36.55,67.117 12.684,68.303 -14.211,118.658 -70.158,131.447 -43.366,9.891 -93.325,38.173 -138.47,77.368 -19.32,24.039 -35.784,47.64 -47.456,65.216 C 503.101,531.064 211.658,377.019 111.587,304.713 L 49.002,297.664 C 55.456,240.234 13.912,177.661 -5.957,133.64 -30.027,80.316 -33.874,29.307 0.417,-15.335 13.999,-33.05 25.069,-49.058 22.748,-65.646 20.786,-79.68 8.993,-94.154 -13.316,-109.87 c -22.085,-15.558 -34.021,-31.564 -36.433,-48.904 -3.432,-24.462 12.756,-45.556 27.016,-64.153 10.055,-13.122 14.488,-35.607 13.422,-47.984 -3.922,-45.669 -14.429,-64.537 0.017,-92.573 -9.656,31.057 3.484,51.792 7.803,90.158 1.611,14.325 -1.258,36.365 -19.964,60.606 -13.287,17.219 -23.17,31.777 -20.259,52.622 2.083,14.917 12.884,29.053 33.041,43.253 24.584,17.331 37.127,33.184 39.466,49.894 0.879,6.317 -0.174,12.441 -1.951,18.499 20.124,-26.545 25.883,-50.914 -19.935,-87.613 -84.216,-67.46 24.632,-111.443 17.761,-144.175 -11.79,-56.192 -16.353,-67.645 -2.901,-105.864 15.412,-43.799 52.528,-62.737 85.249,-64.119 -1.326,7.163 -42.193,40.684 -32.791,115.35 14.887,-36.115 71.662,-115.596 82.098,-115.407 166.396,3.011 647.628,76.648 798.229,201.764 28.772,23.902 3.943,98.409 7.826,121.537 2.814,16.744 64.799,-107.036 72.904,-92.127 109.662,201.744 63.816,244.742 45.273,242.29 -25.794,-3.41 -41.271,-9.5 -42.977,116.041 -0.827,60.885 -96.441,5.471 -77.481,107.736 11.367,61.304 -11.086,105.508 -66.995,126.474 -19.594,7.349 -39.21,21.137 -58.087,37.62 26.519,-12.104 52.692,-21.284 76.682,-26.76 51.893,-11.848 76.744,-53.492 64.827,-117.726 -11.588,-62.485 18.444,-70.525 42.582,-76.981 18.661,-4.998 33.579,-8.925 34.842,-31.835 4.826,-87.786 67.225,-103.925 75.559,-104.548" /></g><g
           id="g24"><g
             id="g26" /><g
             id="g38"><g
               style="opacity:0.16000402"
               id="g36"
               clip-path="url(#clipPath30)"><g
                 id="g34"
                 transform="translate(196.6539,70.0023)"><path
                   id="path32"
                   style="fill:#000000;fill-opacity:1;fill-rule:nonzero;stroke:none"
                   d="m 0,0 c 0,-33.257 191.613,-60.217 427.979,-60.217 236.366,0 427.978,26.96 427.978,60.217 0,33.257 -191.612,60.217 -427.978,60.217 C 191.613,60.217 0,33.257 0,0" /></g></g></g></g><g
           transform="translate(526.6161,130.0695)"
           id="g40"><path
             id="path42"
             style="fill:#ffc19f;fill-opacity:1;fill-rule:nonzero;stroke:none"
             d="m 0,0 c -4.473,-12.514 -77.604,5.68 -76.614,19.049 12.83,173.369 40.746,582.214 44.751,625.537 L 138.988,613.333 C 138.988,613.333 21.774,60.933 0,0" /></g><g
           transform="translate(548.9111,140.9588)"
           id="g44"><path
             id="path46"
             style="fill:#fff3b8;fill-opacity:1;fill-rule:nonzero;stroke:none"
             d="m 0,0 c -0.741,-2.617 -113.881,9.164 -114.079,12.412 -1.655,27.112 0.477,88.537 -0.213,100.536 L 23.317,99.84 C 16.401,72.217 4.74,16.751 0,0" /></g><g
           transform="translate(391.0442,185.346)"
           id="g48"><path
             id="path50"
             style="fill:#e2511e;fill-opacity:1;fill-rule:nonzero;stroke:none"
             d="M 0,0 C 2.011,7.364 6.178,16.686 9.404,25.217 11.796,31.541 73.703,30.53 73.876,15.322 73.92,11.429 73.76,7.991 73.441,4.877 84.033,4.771 95.52,4.9 107.65,5.343 c 26.373,0.96 50.016,3.104 66.601,5.745 1.076,-24.05 -1.025,-65.693 -0.05,-92.426 0,0 -276.173,-51.707 -319.694,-11.65 C -157.759,-81.698 -88.422,-31.545 0,0" /></g><g
           transform="translate(565.0009,120.7707)"
           id="g52"><path
             id="path54"
             style="fill:#892910;fill-opacity:1;fill-rule:nonzero;stroke:none"
             d="m 0,0 c 0.006,-5.945 0.058,-11.675 0.244,-16.763 0,0 -276.172,-51.706 -319.694,-11.65 -1.73,1.592 -1.81,3.968 -0.471,6.944 C -243.721,-38.006 -68.662,-11.558 0,0" /></g><g
           transform="translate(323.9981,160.2533)"
           id="g56"><path
             id="path58"
             style="fill:#d3dae5;fill-opacity:1;fill-rule:nonzero;stroke:none"
             d="m 0,0 c 0.359,-2.102 2.299,-3.557 4.467,-3.153 12.851,2.397 29.785,-3.909 41.03,-14.891 0.79,-0.771 1.824,-1.134 2.842,-1.097 0.957,0.034 1.903,0.425 2.625,1.16 1.492,1.529 1.463,3.974 -0.064,5.467 C 37.987,0.093 18.389,7.106 3.154,4.459 1.052,4.103 -0.36,2.102 0,0 m 65.803,-7.377 c 0.793,-0.84 1.876,-1.246 2.948,-1.207 0.905,0.032 1.808,0.383 2.515,1.05 1.552,1.469 1.618,3.919 0.152,5.469 C 59.193,10.867 42.496,17.208 25.587,15.218 23.465,14.974 21.946,13.061 22.188,10.94 22.432,8.818 24.374,7.15 26.472,7.544 34.983,8.527 51.376,7.879 65.803,-7.377 M 85.327,2.06 c 0.79,-1.052 2.011,-1.582 3.228,-1.538 0.762,0.028 1.527,0.283 2.181,0.776 1.706,1.285 2.045,3.707 0.759,5.413 C 80.772,20.931 62.084,28.355 46.04,24.869 43.957,24.409 42.638,22.344 43.1,20.261 43.557,18.177 45.602,16.899 47.706,17.316 60.89,20.281 76.357,13.948 85.327,2.06" /></g><g
           transform="translate(689.7072,121.0592)"
           id="g60"><path
             id="path62"
             style="fill:#ffc19f;fill-opacity:1;fill-rule:nonzero;stroke:none"
             d="m 0,0 c 1.411,-13.214 76.77,-12.686 78.944,0.543 28.199,171.542 96.973,575.526 103.243,618.581 L 8.772,628.822 C 8.772,628.822 -6.874,64.34 0,0" /></g><g
           transform="translate(897.3496,916.3454)"
           id="g64"><path
             id="path66"
             style="fill:#2a535e;fill-opacity:1;fill-rule:nonzero;stroke:none"
             d="m 0,0 c 0,0 80.131,-231.771 115.196,-303.149 -114.609,-96.448 -503.238,-138.01 -673.113,7.217 10.114,38.527 107.411,196.199 122.698,257.346 z" /></g><g
           id="g68"><g
             id="g70" /><g
             id="g82"><g
               style="opacity:0.22999603"
               id="g80"
               clip-path="url(#clipPath74)"><g
                 id="g78"
                 transform="translate(421.0535,783.1275)"><path
                   id="path76"
                   style="fill:#000000;fill-opacity:1;fill-rule:nonzero;stroke:none"
                   d="M 0,0 C 179.463,-82.38 463.258,-82.896 531.241,-20.138 507.671,52.137 472.806,129.91 472.806,129.91 L 61.493,119.947 C 50.486,97.767 17.737,37.885 0,0" /></g></g></g></g><g
           transform="translate(410.9128,809.6643)"
           id="g84"><path
             id="path86"
             style="fill:#28afc6;fill-opacity:1;fill-rule:nonzero;stroke:none"
             d="M 0,0 C 282.7,-107.767 514.687,-10.66 541.382,19.154 493.731,260.714 443.588,457.703 356.666,524.398 236.85,528.646 45.904,472.579 -20.2,433.158 122.709,235.349 32.126,82.565 0,0" /></g><g
           transform="translate(531.0236,1297.6427)"
           id="g88"><path
             id="path90"
             style="fill:#e0956c;fill-opacity:1;fill-rule:nonzero;stroke:none"
             d="M 0,0 C 54.247,15.282 129.563,29.525 190.665,35.99 195.117,6.713 185.763,-60.968 118.284,-75.188 40.984,-91.476 9.695,-41.481 0,0" /></g><g
           transform="translate(533.6217,1376.7618)"
           id="g92"><path
             id="path94"
             style="fill:#e0956c;fill-opacity:1;fill-rule:nonzero;stroke:none"
             d="m 0,0 20.66,-103.314 c 4.443,-22.213 43.179,-33.202 86.517,-24.535 43.34,8.667 74.87,33.708 70.427,55.922 L 156.942,31.387 Z" /></g><g
           transform="translate(680.7146,141.4648)"
           id="g96"><path
             id="path98"
             style="fill:#fff3b8;fill-opacity:1;fill-rule:nonzero;stroke:none"
             d="m 0,0 c 0.312,-2.671 114.416,-2.58 115.137,0.62 6.021,26.717 13.83,88.4 16.452,100.229 H -6.994 C -4.597,72.747 -1.994,17.099 0,0" /></g><g
           transform="translate(847.028,178.3701)"
           id="g100"><path
             id="path102"
             style="fill:#e2511e;fill-opacity:1;fill-rule:nonzero;stroke:none"
             d="m 0,0 c -1.993,7.367 -6.137,16.701 -9.342,25.239 -2.376,6.331 -64.285,5.473 -64.495,-9.735 -0.053,-3.891 0.096,-7.331 0.408,-10.445 -10.592,-0.079 -22.077,0.076 -34.208,0.55 -26.369,1.025 -50.008,3.228 -66.587,5.911 -1.135,-24.047 0.864,-65.696 -0.178,-92.428 0,0 276.044,-52.39 319.665,-12.441 C 157.556,-82.09 88.344,-31.765 0,0" /></g><g
           transform="translate(672.9116,114.2253)"
           id="g104"><path
             id="path106"
             style="fill:#892910;fill-opacity:1;fill-rule:nonzero;stroke:none"
             d="m 0,0 c -0.021,-5.943 -0.087,-11.675 -0.286,-16.763 0,0 276.044,-52.39 319.665,-12.441 1.733,1.587 1.819,3.962 0.488,6.941 C 243.626,-38.611 68.634,-11.728 0,0" /></g><g
           transform="translate(910.868,157.5768)"
           id="g108"><path
             id="path110"
             style="fill:#d3dae5;fill-opacity:1;fill-rule:nonzero;stroke:none"
             d="m 0,0 c -15.227,2.685 -34.843,-4.28 -47.787,-16.853 -1.532,-1.49 -1.567,-3.936 -0.077,-5.467 0.719,-0.738 1.663,-1.13 2.622,-1.167 1.018,-0.04 2.052,0.321 2.845,1.09 11.271,10.954 28.22,17.217 41.067,14.788 2.166,-0.409 4.109,1.041 4.474,3.142 C 3.508,-2.364 2.102,-0.361 0,0 m -23.308,3.144 c 2.095,-0.399 4.042,1.264 4.29,3.384 0.249,2.12 -1.268,4.039 -3.388,4.287 -16.905,2.033 -33.616,-4.268 -45.874,-17.169 -1.469,-1.545 -1.409,-3.995 0.139,-5.469 0.707,-0.67 1.607,-1.022 2.512,-1.058 1.071,-0.041 2.156,0.363 2.952,1.2 14.464,15.22 30.858,15.828 39.369,14.825 m -21.211,9.824 c 2.102,-0.423 4.15,0.851 4.613,2.932 0.466,2.082 -0.846,4.151 -2.929,4.618 -16.034,3.524 -34.741,-3.854 -45.5,-18.047 -1.29,-1.702 -0.957,-4.125 0.746,-5.415 0.652,-0.494 1.417,-0.75 2.179,-0.78 1.218,-0.047 2.44,0.479 3.233,1.528 8.998,11.866 24.482,18.162 37.658,15.164" /></g><g
           transform="translate(792.9425,1191.0356)"
           id="g112"><path
             id="path114"
             style="fill:#ffb8b6;fill-opacity:1;fill-rule:nonzero;stroke:none"
             d="M 0,0 C 10.044,-11.555 11.882,-34.868 7.719,-47.922 0.648,-70.094 -22.348,-78.57 -38.829,-64.876 -46.21,-58.743 -13.351,-23.221 0,0" /></g><g
           transform="translate(790.5382,1163.2427)"
           id="g116"><path
             id="path118"
             style="fill:#e08686;fill-opacity:1;fill-rule:nonzero;stroke:none"
             d="M 0,0 C 3.635,-6.724 0.802,-20.419 -3.648,-28.121 -11.209,-41.208 -25.295,-46.351 -32.129,-38.413 -35.189,-34.858 -11.198,-13.746 0,0" /></g><g
           transform="translate(575.1786,1135.4395)"
           id="g120"><path
             id="path122"
             style="fill:#ffb8b6;fill-opacity:1;fill-rule:nonzero;stroke:none"
             d="m 0,0 c -3.109,-15.002 6.686,-36.231 16.695,-45.566 17.004,-15.862 41.196,-11.967 48.87,8.06 C 69.002,-28.536 22.992,-13.692 0,0" /></g><g
           transform="translate(590.8615,1112.3899)"
           id="g124"><path
             id="path126"
             style="fill:#e08686;fill-opacity:1;fill-rule:nonzero;stroke:none"
             d="m 0,0 c 0.117,-7.646 9.281,-18.197 16.926,-22.729 12.988,-7.697 27.784,-5.268 29.861,5.006 C 47.718,-13.122 16.482,-6.489 0,0" /></g><g
           transform="translate(647.9549,973.2465)"
           id="g128"><path
             id="path130"
             style="fill:#ffb8b6;fill-opacity:1;fill-rule:nonzero;stroke:none"
             d="M 0,0 C 36.439,-23.603 113.455,-11.57 148.803,26.929 176.991,57.628 169.833,98.71 132.718,135.908 99.184,169.518 46.954,183.4 5.504,145.775 -25.983,117.19 -56.195,36.401 0,0" /></g><g
           transform="translate(674.3423,1021.5071)"
           id="g132"><path
             id="path134"
             style="fill:#773733;fill-opacity:1;fill-rule:nonzero;stroke:none"
             d="m 0,0 c 2.407,-4.495 7.946,-6.184 12.37,-3.773 4.425,2.412 6.062,8.01 3.653,12.505 C 13.616,13.227 8.077,14.917 3.651,12.505 -0.772,10.093 -2.409,4.495 0,0" /></g><g
           transform="translate(743.0825,1040.6477)"
           id="g136"><path
             id="path138"
             style="fill:#773733;fill-opacity:1;fill-rule:nonzero;stroke:none"
             d="m 0,0 c 2.407,-4.495 7.947,-6.184 12.372,-3.773 4.425,2.412 6.06,8.01 3.653,12.505 C 13.616,13.227 8.078,14.917 3.653,12.505 -0.772,10.093 -2.407,4.495 0,0" /></g><g
           transform="translate(651.6759,1076.1238)"
           id="g140"><path
             id="path142"
             style="fill:#8e4d4c;fill-opacity:1;fill-rule:nonzero;stroke:none"
             d="M 0,0 C 1.554,-2.024 5.421,-1.617 8.641,0.907 11.858,3.432 13.208,7.12 11.654,9.144 10.101,11.167 6.233,10.761 3.015,8.235 -0.204,5.711 -1.553,2.024 0,0" /></g><g
           transform="translate(736.0932,1102.5895)"
           id="g144"><path
             id="path146"
             style="fill:#8e4d4c;fill-opacity:1;fill-rule:nonzero;stroke:none"
             d="m 0,0 c 0.081,-2.555 3.455,-4.539 7.535,-4.431 4.082,0.108 7.324,2.267 7.244,4.822 C 14.698,2.944 11.324,4.928 7.244,4.82 3.163,4.714 -0.08,2.555 0,0" /></g><g
           transform="translate(688.7573,997.9309)"
           id="g148"><path
             id="path150"
             style="fill:#fff0f0;fill-opacity:1;fill-rule:nonzero;stroke:none"
             d="M 0,0 C 2.163,-17.386 22.483,-30.776 46.972,-24.34 67.58,-18.923 83.479,7.89 70.394,23.202 56.01,40.037 -3.249,26.127 0,0" /></g><g
           transform="translate(713.9565,998.9088)"
           id="g152"><path
             id="path154"
             style="fill:#8e4d4c;fill-opacity:1;fill-rule:nonzero;stroke:none"
             d="m 0,0 c 1.404,0.104 2.847,0.508 4.267,1.224 3.199,1.611 6.008,4.783 7.025,8.714 2.302,-2.731 5.687,-4.843 9.131,-5.351 4.763,-0.694 8.65,1.689 10.671,6.557 0.306,0.735 -0.039,1.587 -0.767,1.901 -0.719,0.312 -1.567,-0.027 -1.873,-0.765 -1.925,-4.634 -5.22,-5.175 -7.634,-4.825 -4.067,0.598 -8.158,4.087 -9.28,7.682 -0.072,0.463 -0.174,0.932 -0.302,1.406 -0.193,0.73 -0.892,1.189 -1.654,1.05 C 8.848,17.45 8.35,16.757 8.438,16.003 8.495,15.513 8.599,15.022 8.741,14.53 9.47,9.54 6.397,5.539 2.98,3.819 0.346,2.497 -3.348,2.204 -5.792,5.38 -6.285,6.017 -7.185,6.118 -7.802,5.637 -8.424,5.146 -8.532,4.237 -8.046,3.604 -6.045,1.015 -3.125,-0.235 0,0" /></g><g
           transform="translate(710.4042,1019.7568)"
           id="g156"><path
             id="path158"
             style="fill:#773733;fill-opacity:1;fill-rule:nonzero;stroke:none"
             d="M 0,0 C 1.099,-4.913 11.352,-6.757 13.723,-5.782 16.617,-4.591 23.967,1.345 22.867,6.257 21.768,11.17 -1.099,4.914 0,0" /></g><g
           transform="translate(984.3294,1703.8109)"
           id="g160"><path
             id="path162"
             style="fill:#f4b18c;fill-opacity:1;fill-rule:nonzero;stroke:none"
             d="m 0,0 c 3.397,-81.112 -53.109,-148.302 -108.278,-155.574 -55.167,-7.267 -83.6,52.182 -95.71,127.882 -12.095,75.703 22.791,143.159 77.99,150.238 C -50.549,132.215 -3.197,76.235 0,0" /></g><g
           transform="translate(106.6677,1784.6344)"
           id="g164"><path
             id="path166"
             style="fill:#752912;fill-opacity:1;fill-rule:nonzero;stroke:none"
             d="M 0,0 C 49.752,-286.281 305.303,-411.181 538.628,-343.18 771.956,-275.178 885.42,-32.234 783.093,230.84 726.278,376.908 554.686,463.769 332.198,397.366 95.383,326.688 -38.567,221.918 0,0" /></g><g
           transform="translate(185.9894,1872.4087)"
           id="g168"><path
             id="path170"
             style="fill:#ffc19f;fill-opacity:1;fill-rule:nonzero;stroke:none"
             d="m 0,0 c -7.48,-52.936 145.633,-459.194 210.066,-502.808 68.347,-46.269 296.848,-34.831 340.019,-22.249 46.245,13.477 183.501,114.215 203.064,192.66 23.139,92.831 -63.922,453.462 -91.418,492.853 C 568.826,293.485 439,261.042 271.085,212.105 113.999,166.324 19.402,137.35 0,0" /></g><g
           transform="translate(386.7181,1478.0945)"
           id="g172"><path
             id="path174"
             style="fill:#ff9797;fill-opacity:1;fill-rule:nonzero;stroke:none"
             d="m 0,0 c 4.1,-17.062 31.134,-25.196 60.387,-18.167 29.24,7.025 49.635,26.554 45.537,43.616 -4.1,17.059 -31.141,25.192 -60.383,18.167 C 16.29,36.589 -4.098,17.059 0,0" /></g><g
           transform="translate(836.2645,1607.9272)"
           id="g176"><path
             id="path178"
             style="fill:#ff9797;fill-opacity:1;fill-rule:nonzero;stroke:none"
             d="M 0,0 C 5.127,-14.738 27.192,-20.453 49.289,-12.765 71.375,-5.082 85.135,13.097 80.008,27.834 74.882,42.569 52.809,48.284 30.722,40.601 8.627,32.914 -5.127,14.736 0,0" /></g><g
           transform="translate(631.5056,1594.4414)"
           id="g180"><path
             id="path182"
             style="fill:#c67f75;fill-opacity:1;fill-rule:nonzero;stroke:none"
             d="m 0,0 c 1.851,0.539 3.094,2.349 2.86,4.328 -1.685,14.037 6.378,25.776 20.542,29.904 14.243,4.151 27.647,-1.517 33.357,-14.103 0.919,-2.014 3.308,-2.912 5.311,-1.996 2.02,0.916 2.912,3.292 1.996,5.312 C 56.756,39.566 39.107,47.17 21.156,41.939 3.305,36.737 -7.251,21.239 -5.115,3.375 c 0.267,-2.203 2.264,-3.771 4.464,-3.511 z" /></g><g
           transform="translate(440.0979,1834.6097)"
           id="g184"><path
             id="path186"
             style="fill:#8c2f22;fill-opacity:1;fill-rule:nonzero;stroke:none"
             d="m 0,0 c -2.311,-1.413 -4.121,-3.646 -4.953,-6.427 -10.72,-35.482 -51.935,-68.715 -96.001,-77.273 -6.125,-1.158 -10.175,-7.135 -8.99,-13.332 1.196,-6.156 7.157,-10.18 13.334,-8.991 52.557,10.244 100.279,49.378 113.417,93.051 C 18.614,-6.96 15.212,-0.626 9.2,1.181 5.98,2.162 2.665,1.628 0,0" /></g><g
           transform="translate(832.5671,1930.7124)"
           id="g188"><path
             id="path190"
             style="fill:#8c2f22;fill-opacity:1;fill-rule:nonzero;stroke:none"
             d="m 0,0 c 2.962,0.521 5.699,2.247 7.399,5.008 3.194,5.136 1.617,11.881 -3.52,15.074 -37.346,23.182 -96.747,21.044 -141.24,-5.022 -5.221,-3.076 -6.967,-9.781 -3.907,-14.991 3.077,-5.236 9.797,-6.977 14.99,-3.907 37.279,21.903 88.269,24.196 118.604,5.325 C -5.301,0.009 -2.57,-0.453 0,0" /></g><g
           transform="translate(732.39,2153.5911)"
           id="g192"><path
             id="path194"
             style="fill:#752912;fill-opacity:1;fill-rule:nonzero;stroke:none"
             d="m 0,0 c -73.161,11.165 -194.176,-12.154 -297.601,-47.625 -112.433,-38.562 -222.871,-93.945 -270.615,-155.129 -31.581,-40.473 -11.458,-254.625 2.542,-231.639 16.024,26.301 46.08,55.205 84.441,83.731 -2.308,23.57 8.673,88.141 12.019,97.358 1.841,-12.237 12.474,-53.875 18.364,-75.982 48.933,32.635 107.147,63.727 165.876,88.654 -9.352,22.429 -8.539,56.15 -9.034,57.733 9.38,-4.406 34.706,-31.524 45.528,-43.05 8.964,3.394 17.893,6.62 26.761,9.662 81.3,27.883 143.214,43.447 194.374,50.737 -27.684,69.731 -35.857,91.694 -34.609,86.716 13.98,-11.947 40.34,-51.271 52.981,-84.392 19.349,2.11 37.159,2.984 53.958,2.874 -5.767,21.095 -12.907,55.973 -14.257,61.839 7.67,-1.605 35.691,-42.89 47.631,-63.389 28.824,-2.488 55.511,-7.718 83.381,-14.172 C 192.181,-183.125 58.969,-8.999 0,0" /></g><g
           transform="translate(741.0984,1650.2979)"
           id="g196"><path
             id="path198"
             style="fill:#f9feff;fill-opacity:1;fill-rule:nonzero;stroke:none"
             d="M 0,0 C 0,0 109.432,-8.279 128.449,64.064 151.622,152.22 64.063,190.692 22.243,165.84 -16.455,142.845 -41.582,88.6 0,0" /></g><g
           transform="translate(848.29,1811.9154)"
           id="g200"><path
             id="path202"
             style="fill:#773220;fill-opacity:1;fill-rule:nonzero;stroke:none"
             d="m 0,0 c -26.356,21.785 -53.402,23.124 -79.008,12.166 -26.177,-11.203 -46.814,-42.11 -47.512,-67.934 6.63,30.808 28.88,47.916 43.35,56.508 23.027,13.722 59.728,10.069 82.469,-12.322 C 19.524,-31.508 29.123,-67.495 20.616,-99.849 34.791,-75.386 27.467,-22.703 0,0" /></g><g
           transform="translate(772.343,1757.5146)"
           id="g204"><path
             id="path206"
             style="fill:#63190d;fill-opacity:1;fill-rule:nonzero;stroke:none"
             d="m 0,0 c -0.954,-29.512 19.244,-56.697 45.115,-60.721 25.873,-4.023 47.619,16.64 48.573,46.152 C 94.644,14.943 74.445,42.128 48.573,46.152 22.702,50.175 0.954,29.512 0,0" /></g><g
           transform="translate(773.4172,1766.889)"
           id="g208"><path
             id="path210"
             style="fill:#fefffe;fill-opacity:1;fill-rule:nonzero;stroke:none"
             d="m 0,0 c -0.265,-8.188 5.34,-15.73 12.517,-16.847 7.178,-1.116 13.212,4.617 13.477,12.805 0.265,8.188 -5.34,15.73 -12.517,16.847 C 6.298,13.921 0.265,8.188 0,0" /></g><g
           transform="translate(565.6505,1597.5691)"
           id="g212"><path
             id="path214"
             style="fill:#f9feff;fill-opacity:1;fill-rule:nonzero;stroke:none"
             d="m 0,0 c 0,0 -105.484,-71.896 -168.147,-23.726 -76.358,58.698 -11.093,142.408 46.051,146.849 C -69.218,127.233 -11.261,97.579 0,0" /></g><g
           transform="translate(360.3456,1666.694)"
           id="g216"><path
             id="path218"
             style="fill:#773220;fill-opacity:1;fill-rule:nonzero;stroke:none"
             d="m 0,0 c 13.515,33.588 40.009,50.776 72.441,56.996 33.153,6.359 72.554,-6.779 88.775,-27.595 C 136.013,50.789 103.274,51.619 83.507,50.078 52.019,47.664 17.168,22.832 7.668,-9.105 -0.775,-37.516 11.159,-72.816 39.184,-94.355 10.179,-82.674 -14.084,-35.003 0,0" /></g><g
           transform="translate(425.3633,1654.2675)"
           id="g220"><path
             id="path222"
             style="fill:#63190d;fill-opacity:1;fill-rule:nonzero;stroke:none"
             d="m 0,0 c -2.703,-30.062 19.478,-56.624 49.54,-59.326 30.063,-2.702 56.625,19.478 59.326,49.54 2.703,30.064 -19.477,56.625 -49.54,59.328 C 29.264,52.244 2.702,30.064 0,0" /></g><g
           transform="translate(427.1239,1663.8578)"
           id="g224"><path
             id="path226"
             style="fill:#fefffe;fill-opacity:1;fill-rule:nonzero;stroke:none"
             d="m 0,0 c -0.75,-8.34 5.403,-15.71 13.745,-16.46 8.34,-0.748 15.709,5.405 16.46,13.745 C 30.953,5.627 24.8,12.996 16.46,13.745 8.118,14.495 0.749,8.342 0,0" /></g><g
           transform="translate(73.044,1726.2213)"
           id="g228"><path
             id="path230"
             style="fill:#f9951e;fill-opacity:1;fill-rule:nonzero;stroke:none"
             d="M 0,0 C 0,0 -4.375,-66.469 31.242,-54.802 66.86,-43.134 87.119,-7.381 76.493,25.057 65.868,57.494 28.38,74.331 -7.236,62.665 -42.853,50.998 0,0 0,0" /></g><g
           transform="translate(264.2889,1788.8673)"
           id="g232"><path
             id="path234"
             style="fill:#f9951e;fill-opacity:1;fill-rule:nonzero;stroke:none"
             d="M 0,0 C 0,0 42.853,-50.998 7.236,-62.665 -28.38,-74.333 -65.869,-57.494 -76.493,-25.057 -87.119,7.38 -66.86,43.134 -31.242,54.802 4.375,66.468 0,0 0,0" /></g><g
           transform="translate(192.5363,1764.4537)"
           id="g236"><path
             id="path238"
             style="fill:#f9951e;fill-opacity:1;fill-rule:nonzero;stroke:none"
             d="m 0,0 c 5.048,-15.414 -1.854,-31.511 -15.418,-35.954 -13.563,-4.443 -28.651,4.45 -33.701,19.864 -5.048,15.414 1.854,31.51 15.418,35.953 C -20.138,24.306 -5.05,15.412 0,0" /></g><g
           transform="translate(175.4611,1449.9095)"
           id="g240"><path
             id="path242"
             style="fill:#ffc19f;fill-opacity:1;fill-rule:nonzero;stroke:none"
             d="M 0,0 C 44.571,-73.763 137.244,-100.839 193.359,-75.638 249.476,-50.432 171.837,185.021 60.311,174.352 -32.567,165.466 -41.896,69.328 0,0" /></g><g
           transform="translate(239.3929,1472.5182)"
           id="g244"><path
             id="path246"
             style="fill:#e0956c;fill-opacity:1;fill-rule:nonzero;stroke:none"
             d="M 0,0 C 14.564,-32.428 60.89,-49.749 86.713,-31.977 96.783,-25.047 43.196,87.219 25.412,81.976 -4.656,73.111 -14.564,32.428 0,0" /></g><g
           transform="translate(653.0075,1542.6077)"
           id="g248"><path
             id="path250"
             style="fill:#934341;fill-opacity:1;fill-rule:nonzero;stroke:none"
             d="m 0,0 c -0.839,0.003 -1.656,-0.022 -2.474,-0.083 -18.93,-1.626 -34.906,-19.186 -38.993,-50.301 -0.556,-4.388 1.125,-8.631 3.772,-9.46 2.667,-0.91 5.279,2.032 5.857,6.401 3.107,23.813 15.361,41.301 29.768,42.535 14.878,0.79 26.642,-9.764 31.52,-38.296 0.743,-4.301 3.403,-6.63 6.048,-5.387 2.622,1.282 4.14,5.808 3.421,10.068 C 32.075,-4.202 11.634,-0.05 0,0" /></g><g
           id="g252"><g
             id="g254" /><g
             id="g266"><g
               style="opacity:0.24000501"
               id="g264"
               clip-path="url(#clipPath258)"><g
                 id="g262"
                 transform="translate(745.7619,1182.4943)"><path
                   id="path260"
                   style="fill:#000000;fill-opacity:1;fill-rule:nonzero;stroke:none"
                   d="m 0,0 c -5.816,6.65 -41.446,3.231 -73.995,23.177 -31.755,-81.961 -44.333,-132.15 -90.306,-138.721 -53.213,-7.604 -117.48,80.154 -183.126,152.482 -8.029,-21.628 -3.732,-73.713 9.731,-117.29 29.18,-94.439 129.354,-145.653 189.36,-138.202 C -62.338,-207.878 -0.601,-107.303 0,0" /></g></g></g></g><g
           transform="translate(735.1182,1185.585)"
           id="g268"><path
             id="path270"
             style="fill:#ffc19f;fill-opacity:1;fill-rule:nonzero;stroke:none"
             d="m 0,0 c -5.896,6.918 -40.795,17.706 -74.083,38.2 -34.209,-87.045 -43.81,-116.431 -91.421,-124.152 -55.108,-8.937 -107.309,56.532 -173.895,131.742 -8.664,-22.964 -7.104,-78.564 8.047,-123.618 31.105,-92.49 130.891,-132.405 193.21,-125.71 C -63.603,-195.53 -19.457,-100.458 0,0" /></g><g
           transform="translate(747.0772,863.9895)"
           id="g272"><path
             id="path274"
             style="fill:#ffc19f;fill-opacity:1;fill-rule:nonzero;stroke:none"
             d="m 0,0 c -26.688,-3.785 -26.14,27.923 -41.471,55.655 106.083,44.296 142.343,77.446 152.117,111.94 11.718,41.357 15.389,164.882 -12.508,261.381 24.035,-4.969 56.99,-35.397 73.24,-62.183 44.421,-73.226 54.877,-148.095 43.67,-216.176 C 202.87,76.644 112.398,9.373 0,0" /></g><g
           transform="translate(844.6046,1098.765)"
           id="g276"><path
             id="path278"
             style="fill:#28afc6;fill-opacity:1;fill-rule:nonzero;stroke:none"
             d="M 0,0 C 47.883,4.02 121.676,36.674 143.748,49.928 121.676,92.271 56.189,197.9 27.861,217.471 -1.542,237.786 -65.364,237.112 -89.054,235.002 -67.946,154.122 0,0 0,0" /></g><g
           id="g280"><g
             id="g282" /><g
             id="g294"><g
               style="opacity:0.24000501"
               id="g292"
               clip-path="url(#clipPath286)"><g
                 id="g290"
                 transform="translate(805.7581,1252.1414)"><path
                   id="path288"
                   style="fill:#000000;fill-opacity:1;fill-rule:nonzero;stroke:none"
                   d="m 0,0 c 10.38,11.79 13.31,35.509 -10.55,38.342 1.171,20.49 -0.344,32.106 -15.067,35.926 33.797,32.061 57.325,81.162 34.073,104.287 -8.474,8.423 -110.175,-86.622 -121.159,-88.046 -13.048,-1.692 -30.747,43.634 -58.09,44.104 -10.416,0.181 -15.408,-91.27 1.606,-133.611 11.584,-28.827 82.337,-77.736 114.084,-72.365 C -14.885,-64.562 40.955,-13.936 0,0" /></g></g></g></g><g
           transform="translate(818.1552,1255.4082)"
           id="g296"><path
             id="path298"
             style="fill:#ffc19f;fill-opacity:1;fill-rule:nonzero;stroke:none"
             d="m 0,0 c -3.441,5.658 -11.099,7.887 -20.4,7.023 9.699,11.017 13.615,22.893 8.648,30.551 -4.387,6.76 -14.581,8.602 -26.546,5.948 8.447,10.173 11.758,20.667 7.373,27.427 -4.391,6.769 -15.35,8.016 -28.102,4.431 31.719,29.83 76.414,78.652 53.551,101.264 -8.331,8.237 -81.118,-69.939 -111.479,-98.044 -11.981,-8.543 -23.272,-9.718 -29.776,10.91 -10.398,26.176 -22.228,38.21 -36.459,41.836 -9.796,2.498 0.945,-73.915 6.575,-117.35 -0.242,-7.777 0.733,-15.866 3.138,-24.847 9.763,-36.473 34.828,-62.218 65.708,-65.454 16.126,-1.688 42.213,5.832 83.836,35.602 l 0.478,0.256 C -4.082,-28.661 6.42,-10.552 0,0" /></g><g
           transform="translate(396.5555,1007.7031)"
           id="g300"><path
             id="path302"
             style="fill:#28afc6;fill-opacity:1;fill-rule:nonzero;stroke:none"
             d="M 0,0 C 64.896,-14.406 153.999,54.612 161.212,91.165 137.066,137.535 92.552,219.57 -6.233,234.91 -36.569,171.177 0,0 0,0" /></g><g
           id="g304"><g
             id="g306" /><g
             id="g318"><g
               style="opacity:0.16999799"
               id="g316"
               clip-path="url(#clipPath310)"><g
                 id="g314"
                 transform="translate(567.4599,891.1935)"><path
                   id="path312"
                   style="fill:#000000;fill-opacity:1;fill-rule:nonzero;stroke:none"
                   d="m 0,0 c 2.025,-3.561 4.066,-13.006 18.975,-16.001 4.622,-0.929 -4.906,-0.562 -3.302,-4.211 6.001,-13.653 39.087,-23.163 73.964,-25.883 69.024,-5.382 79.209,38.462 80.939,59.094 1.743,20.773 18.398,83.854 -99.982,83.854 C 63.873,81.377 101.441,60.594 94.654,60.989 80.3,61.825 73.997,63.688 54.556,59.332 11.423,49.668 -12.832,25.281 -0.28,14.748 4.048,11.117 65.701,13.655 66.733,11.002 67.764,8.35 -1.521,2.674 0,0" /></g></g></g></g><g
           transform="translate(585.5056,883.6065)"
           id="g320"><path
             id="path322"
             style="fill:#ffc19f;fill-opacity:1;fill-rule:nonzero;stroke:none"
             d="m 0,0 c 2.008,-3.319 5.52,-10.462 33.488,-8.399 4.62,0.34 -20.524,-5.525 -15.636,-8.605 C 31.49,-25.597 55.118,-34.223 89.983,-36.766 158.984,-41.8 203.139,-11.46 204.484,7.819 205.431,21.388 125.758,99.682 71.05,90.22 65.547,89.269 102.306,62.96 97.591,58.99 91.139,53.56 74.296,59.319 54.834,55.265 11.657,46.274 -18.296,30.768 -5.794,20.951 -1.482,17.566 74.05,23.451 75.068,20.98 76.088,18.509 -1.509,2.492 0,0" /></g><g
           transform="translate(1031.3488,2043.1045)"
           id="g324"><path
             id="path326"
             style="fill:#969696;fill-opacity:1;fill-rule:nonzero;stroke:none"
             d="m 0,0 c -16.247,-1.534 -30.253,3.496 -42.048,15.063 -11.795,11.568 -16.322,25.476 -13.556,41.696 2.138,13.329 8.676,24.143 19.641,32.416 10.94,8.275 23.313,11.267 37.12,8.954 C 11.267,96.293 20.194,92.47 27.914,86.636 35.659,80.826 40.69,72.704 42.979,62.292 46.348,47.58 43.733,33.926 35.156,21.376 26.581,8.802 14.862,1.685 0,0 m -34.705,259.42 c -9.808,0.327 -20.949,2.49 -33.423,6.565 -12.499,4.048 -22.407,9.229 -29.775,15.515 -8.425,6.741 -11.737,14.529 -9.431,23.213 5.439,20.479 17.604,37.748 35.284,52.157 17.704,14.411 37.118,22.609 58.268,24.596 25.275,2.138 48.285,-2.062 69.057,-12.65 20.747,-10.562 37.296,-24.671 49.644,-42.274 12.322,-17.629 19.44,-37.32 21.376,-59.073 1.91,-21.754 -3.345,-42.577 -15.743,-62.494 -12.726,-20.697 -35.312,-35.341 -67.8,-43.683 -7.816,-2.008 -11.342,-8.651 -10.587,-19.993 0.478,-4.427 -3.823,-7.772 -12.851,-9.984 -9.054,-2.238 -19.037,-3.446 -30.002,-3.672 -10.94,-0.251 -20.898,0.553 -29.876,2.415 -8.954,1.836 -13.053,4.727 -12.298,8.726 -3.219,19.615 -3.395,35.686 -0.578,48.259 2.842,12.55 8.022,23.288 15.515,32.165 9.506,11.191 21.905,18.811 37.246,22.885 15.314,4.05 24.551,8.873 27.562,14.587 6.103,11.582 0.277,19.339 -17.126,23.086 -17.378,3.746 -27.136,0.351 -29.297,-10.211 -1.685,-7.368 -6.741,-10.737 -15.165,-10.135" /></g><g
           transform="translate(1618.0654,1677.573)"
           id="g328"><path
             id="path330"
             style="fill:#752912;fill-opacity:1;fill-rule:nonzero;stroke:none"
             d="M 0,0 C -16.174,41.888 -6.227,81.877 23.561,123.833 40.313,147.42 67.054,167.586 87.622,192.106 62.227,114.222 -1.768,58.314 0,0 m 1128.113,-166.435 c -14.085,8.434 -56.666,38.203 -46.337,116.76 3.832,29.089 -15.65,38.604 -32.841,47.018 -23.446,11.47 -43.7,21.375 -23.12,73.378 25.75,65.019 8.928,119.973 -43.867,143.434 -40.927,18.164 -84.808,55.776 -121.822,103.231 -14.431,27.488 -26.128,53.989 -34.258,73.613 -226.071,36.267 -543.801,-59.507 -656.655,-111.57 l -63.193,5.15 C 101.281,226.595 48.129,172.819 19.981,133.177 -14.118,85.157 -27.79,35.51 -2.555,-15.23 7.433,-35.358 15.272,-53.316 9.768,-69.254 5.113,-82.738 -9.339,-94.755 -34.418,-105.962 c -24.83,-11.095 -39.72,-24.597 -45.457,-41.261 -8.126,-23.501 3.784,-47.474 14.271,-68.606 7.395,-14.909 7.422,-37.979 3.974,-50 -12.713,-44.356 -26.747,-60.964 -17.9,-91.456 -3.529,32.55 13.465,50.491 25.156,87.556 4.366,13.839 5.797,36.17 -7.991,63.736 -9.794,19.583 -16.741,35.877 -9.828,55.907 4.944,14.332 18.349,26.208 41.011,36.334 27.64,12.363 43.1,25.597 48.646,41.652 2.091,6.072 2.234,12.324 1.651,18.654 14.744,-30.119 15.716,-55.308 -36.65,-82.694 -96.252,-50.345 2.766,-114.863 -10.357,-145.869 -22.523,-53.231 -29.247,-63.661 -23.356,-104.021 6.75,-46.252 39.751,-72.145 71.807,-79.841 0.076,7.331 -33.808,48.356 -10.068,120.298 7.717,-38.559 51.38,-131.353 61.725,-133.187 164.965,-29.229 651.668,-46.337 824.662,48.118 33.049,18.044 22.941,96.456 31.253,118.552 6.022,15.997 43.3,-118.283 54.192,-105.123 147.382,178.077 110.411,229.429 91.62,230.595 -26.143,1.624 -42.612,-1.396 -19.999,122.956 10.966,60.308 -94.215,24.07 -55.692,121.427 23.094,58.363 9.469,106.376 -41.705,137.91 -17.935,11.053 -34.645,28.47 -50.104,48.408 23.856,-17.09 47.935,-31.225 70.576,-41.279 48.971,-21.747 65.462,-67.697 41.257,-128.846 -23.541,-59.487 4.57,-73.24 27.167,-84.292 17.469,-8.549 31.446,-15.315 28.257,-38.193 -12.221,-87.659 46.299,-115.678 54.413,-117.908" /></g><g
           id="g332"><g
             id="g334" /><g
             id="g346"><g
               style="opacity:0.16000402"
               id="g344"
               clip-path="url(#clipPath338)"><g
                 id="g342"
                 transform="translate(1675.1366,60.6191)"><path
                   id="path340"
                   style="fill:#000000;fill-opacity:1;fill-rule:nonzero;stroke:none"
                   d="m 0,0 c 0,-33.479 192.892,-60.619 430.836,-60.619 237.945,0 430.836,27.14 430.836,60.619 0,33.479 -192.891,60.619 -430.836,60.619 C 192.892,60.619 0,33.479 0,0" /></g></g></g></g><g
           transform="translate(2007.3004,121.0873)"
           id="g348"><path
             id="path350"
             style="fill:#ffc19f;fill-opacity:1;fill-rule:nonzero;stroke:none"
             d="m 0,0 c -4.501,-12.597 -78.122,5.717 -77.125,19.176 12.917,174.528 41.019,586.102 45.05,629.716 L 139.917,617.428 C 139.917,617.428 21.921,61.34 0,0" /></g><g
           transform="translate(2029.7448,133.8748)"
           id="g352"><path
             id="path354"
             style="fill:#fff3b8;fill-opacity:1;fill-rule:nonzero;stroke:none"
             d="m 0,0 c -0.746,-2.635 -114.641,9.225 -114.841,12.495 -1.666,27.292 0.48,89.129 -0.214,101.208 L 23.474,100.506 C 16.51,72.698 4.773,16.864 0,0" /></g><g
           transform="translate(1870.8245,176.7337)"
           id="g356"><path
             id="path358"
             style="fill:#e2511e;fill-opacity:1;fill-rule:nonzero;stroke:none"
             d="m 0,0 c 2.024,7.411 6.219,16.797 9.466,25.384 2.409,6.367 64.729,5.35 64.902,-9.961 0.045,-3.918 -0.115,-7.379 -0.438,-10.514 10.663,-0.105 22.227,0.022 34.438,0.468 26.55,0.967 50.35,3.124 67.048,5.785 1.083,-24.211 -1.033,-66.132 -0.052,-93.045 0,0 -278.018,-52.051 -321.83,-11.726 C -158.814,-82.245 -89.014,-31.757 0,0" /></g><g
           transform="translate(2045.9426,111.7263)"
           id="g360"><path
             id="path362"
             style="fill:#892910;fill-opacity:1;fill-rule:nonzero;stroke:none"
             d="m 0,0 c 0.006,-5.985 0.059,-11.753 0.246,-16.875 0,0 -278.018,-52.052 -321.83,-11.727 -1.741,1.602 -1.821,3.993 -0.473,6.989 C -245.348,-38.26 -69.12,-11.635 0,0" /></g><g
           transform="translate(1803.3301,151.4723)"
           id="g364"><path
             id="path366"
             style="fill:#d3dae5;fill-opacity:1;fill-rule:nonzero;stroke:none"
             d="m 0,0 c 0.363,-2.116 2.315,-3.58 4.496,-3.174 12.939,2.414 29.984,-3.934 41.304,-14.99 0.796,-0.777 1.836,-1.142 2.862,-1.105 0.964,0.035 1.916,0.427 2.642,1.168 1.503,1.539 1.474,4.001 -0.064,5.504 C 38.241,0.093 18.512,7.155 3.175,4.489 1.059,4.131 -0.362,2.117 0,0 m 66.243,-7.426 c 0.799,-0.846 1.889,-1.254 2.968,-1.216 0.911,0.034 1.818,0.386 2.531,1.059 1.563,1.478 1.629,3.945 0.154,5.504 C 59.588,10.94 42.78,17.324 25.759,15.32 23.622,15.075 22.092,13.149 22.338,11.012 22.582,8.877 24.536,7.199 26.648,7.596 35.217,8.584 51.72,7.932 66.243,-7.426 m 19.654,9.499 c 0.794,-1.058 2.024,-1.591 3.25,-1.546 0.767,0.028 1.538,0.284 2.196,0.779 1.718,1.295 2.058,3.733 0.763,5.449 C 81.31,21.07 62.498,28.544 46.348,25.036 c -2.097,-0.464 -3.424,-2.543 -2.961,-4.641 0.462,-2.096 2.52,-3.383 4.637,-2.963 13.273,2.985 28.843,-3.391 37.873,-15.359" /></g><g
           transform="translate(2176.6646,107.1295)"
           id="g368"><path
             id="path370"
             style="fill:#ffc19f;fill-opacity:1;fill-rule:nonzero;stroke:none"
             d="m 0,0 c 2.222,-13.191 77.913,-8.074 79.294,5.35 17.896,174.088 62.424,583.807 66.103,627.452 H -29.447 C -29.447,632.802 -10.821,64.234 0,0" /></g><g
           transform="translate(2364.1174,912.6141)"
           id="g372"><path
             id="path374"
             style="fill:#2a535e;fill-opacity:1;fill-rule:nonzero;stroke:none"
             d="m 0,0 c 0,0 77.49,-233.318 111.398,-305.173 -110.83,-97.094 -486.647,-138.932 -650.922,7.265 9.782,38.785 103.87,197.509 118.655,259.065 z" /></g><g
           id="g376"><g
             id="g378" /><g
             id="g390"><g
               style="opacity:0.22999603"
               id="g388"
               clip-path="url(#clipPath382)"><g
                 id="g386"
                 transform="translate(1903.525,778.5069)"><path
                   id="path384"
                   style="fill:#000000;fill-opacity:1;fill-rule:nonzero;stroke:none"
                   d="m 0,0 c 173.547,-82.93 447.985,-83.45 513.728,-20.272 -22.795,72.757 -56.51,151.05 -56.51,151.05 L 59.467,120.748 C 48.821,98.419 17.152,38.138 0,0" /></g></g></g></g><g
           transform="translate(2591.0337,874.0488)"
           id="g392"><path
             id="path394"
             style="fill:#ffc19f;fill-opacity:1;fill-rule:nonzero;stroke:none"
             d="m 0,0 c 21.712,16.275 41.539,39.483 32.751,70.146 -133.915,99.371 -210.34,213.152 -259.058,301.765 -13.597,-20.63 -29.806,-115.626 -17.022,-144.458 C -195.686,120.015 -91.898,42.149 0,0" /></g><g
           transform="translate(1540.2483,1255.5917)"
           id="g396"><path
             id="path398"
             style="fill:#ffc19f;fill-opacity:1;fill-rule:nonzero;stroke:none"
             d="m 0,0 c -1.619,18.494 46.235,65.192 66.348,58.026 33.656,-62.256 64.343,-106.019 118.439,-114.804 54.568,-8.861 105.667,11.805 151.342,58.306 23.734,-39.055 45.171,-89.567 42.536,-121.827 -27.568,-20.099 -92.161,-47.993 -182.782,-41.755 C 95.913,-155.173 46.716,-82.646 0,0" /></g><g
           transform="translate(1886.9203,787.2613)"
           id="g400"><path
             id="path402"
             style="fill:#28afc6;fill-opacity:1;fill-rule:nonzero;stroke:none"
             d="M 0,0 C 284.59,-108.489 501.069,7.229 527.943,37.241 479.974,280.416 484.755,435.634 397.251,502.777 309.867,520.275 148.969,533.292 -4.203,475.768 85.318,255.11 36.371,109.731 0,0" /></g><g
           transform="translate(2031.5779,1299.2421)"
           id="g404"><path
             id="path406"
             style="fill:#e0956c;fill-opacity:1;fill-rule:nonzero;stroke:none"
             d="M 0,0 C 56.158,8.075 128.003,7.177 198.557,-1.129 199.126,-30.934 177.318,-85.416 108.096,-90.68 28.801,-96.709 4.188,-42.678 0,0" /></g><g
           transform="translate(2051.7866,1393.3606)"
           id="g408"><path
             id="path410"
             style="fill:#e0956c;fill-opacity:1;fill-rule:nonzero;stroke:none"
             d="m 0,0 2.77,-106.026 c 0.596,-22.798 37.134,-40.343 81.61,-39.181 44.478,1.162 80.05,20.592 79.455,43.389 L 161.064,4.208 Z" /></g><g
           transform="translate(2162.4302,134.3838)"
           id="g412"><path
             id="path414"
             style="fill:#fff3b8;fill-opacity:1;fill-rule:nonzero;stroke:none"
             d="m 0,0 c 0.313,-2.688 115.178,-2.598 115.904,0.624 6.064,26.895 13.924,88.991 16.564,100.899 H -7.041 C -4.628,73.233 -2.009,17.213 0,0" /></g><g
           transform="translate(2329.8533,169.7104)"
           id="g416"><path
             id="path418"
             style="fill:#e2511e;fill-opacity:1;fill-rule:nonzero;stroke:none"
             d="m 0,0 c -2.006,7.417 -6.177,16.813 -9.404,25.408 -2.392,6.372 -64.714,5.51 -64.926,-9.801 -0.055,-3.917 0.096,-7.379 0.411,-10.515 -10.663,-0.079 -22.227,0.079 -34.436,0.554 -26.547,1.033 -50.342,3.249 -67.032,5.95 -1.143,-24.207 0.868,-66.133 -0.179,-93.044 0,0 277.885,-52.741 321.799,-12.524 C 158.608,-82.639 88.934,-31.977 0,0" /></g><g
           transform="translate(2154.5737,105.138)"
           id="g420"><path
             id="path422"
             style="fill:#892910;fill-opacity:1;fill-rule:nonzero;stroke:none"
             d="m 0,0 c -0.021,-5.985 -0.087,-11.753 -0.287,-16.875 0,0 277.886,-52.741 321.8,-12.525 1.744,1.598 1.83,3.989 0.491,6.988 C 245.252,-38.869 69.093,-11.807 0,0" /></g><g
           transform="translate(2394.1208,148.7781)"
           id="g424"><path
             id="path426"
             style="fill:#d3dae5;fill-opacity:1;fill-rule:nonzero;stroke:none"
             d="m 0,0 c -15.331,2.705 -35.077,-4.308 -48.108,-16.966 -1.54,-1.499 -1.576,-3.962 -0.077,-5.504 0.725,-0.742 1.675,-1.137 2.639,-1.174 1.025,-0.04 2.066,0.322 2.865,1.097 11.346,11.027 28.408,17.333 41.34,14.887 2.181,-0.412 4.137,1.049 4.504,3.164 C 3.531,-2.381 2.114,-0.363 0,0 m -23.465,3.165 c 2.11,-0.401 4.068,1.272 4.318,3.407 0.251,2.135 -1.275,4.064 -3.41,4.316 -17.017,2.046 -33.84,-4.297 -46.18,-17.286 -1.478,-1.554 -1.419,-4.021 0.139,-5.503 0.711,-0.675 1.618,-1.03 2.53,-1.066 1.078,-0.041 2.17,0.366 2.971,1.209 14.56,15.321 31.065,15.933 39.632,14.923 m -21.353,9.889 c 2.117,-0.425 4.178,0.856 4.644,2.953 0.469,2.097 -0.852,4.178 -2.948,4.647 -16.142,3.549 -34.973,-3.878 -45.804,-18.165 -1.298,-1.715 -0.964,-4.154 0.751,-5.453 0.656,-0.497 1.426,-0.756 2.192,-0.785 1.227,-0.048 2.458,0.482 3.255,1.539 9.06,11.945 24.646,18.282 37.91,15.264" /></g><g
           transform="translate(2283.6831,1133.9629)"
           id="g428"><path
             id="path430"
             style="fill:#ffb8b6;fill-opacity:1;fill-rule:nonzero;stroke:none"
             d="m 0,0 c 7.736,-13.331 5.129,-36.728 -1.463,-48.842 -11.2,-20.579 -35.543,-24.594 -49.236,-7.927 C -56.833,-49.305 -17.606,-20.423 0,0" /></g><g
           transform="translate(2276.031,1106.9423)"
           id="g432"><path
             id="path434"
             style="fill:#e08686;fill-opacity:1;fill-rule:nonzero;stroke:none"
             d="m 0,0 c 2.317,-7.338 -3.082,-20.339 -8.944,-27.109 -9.958,-11.502 -24.86,-13.914 -30.11,-4.77 C -41.405,-27.782 -13.68,-11.465 0,0" /></g><g
           transform="translate(2057.844,1120.329)"
           id="g436"><path
             id="path438"
             style="fill:#ffb8b6;fill-opacity:1;fill-rule:nonzero;stroke:none"
             d="M 0,0 C -5.921,-14.242 -0.266,-37.087 7.858,-48.218 21.659,-67.126 46.313,-67.866 57.701,-49.523 62.801,-41.307 20.132,-17.901 0,0" /></g><g
           transform="translate(2068.9729,1094.5646)"
           id="g440"><path
             id="path442"
             style="fill:#e08686;fill-opacity:1;fill-rule:nonzero;stroke:none"
             d="M 0,0 C -1.334,-7.583 5.723,-19.75 12.422,-25.682 23.801,-35.757 38.889,-36.164 42.893,-26.401 44.686,-22.029 15.064,-9.543 0,0" /></g><g
           transform="translate(2099.0103,946.1682)"
           id="g444"><path
             id="path446"
             style="fill:#ffb8b6;fill-opacity:1;fill-rule:nonzero;stroke:none"
             d="m 0,0 c 31.545,-30.252 109.967,-32.971 152.222,-1.619 33.692,25 34.414,66.973 4.781,110.792 -26.775,39.592 -75.776,63.23 -123.894,33.899 C -3.446,120.788 -48.648,46.652 0,0" /></g><g
           transform="translate(2134.2554,988.8717)"
           id="g448"><path
             id="path450"
             style="fill:#773733;fill-opacity:1;fill-rule:nonzero;stroke:none"
             d="m 0,0 c 1.527,-4.9 6.683,-7.622 11.515,-6.078 4.832,1.545 7.512,6.769 5.985,11.669 -1.527,4.9 -6.683,7.623 -11.515,6.078 C 1.153,10.124 -1.527,4.9 0,0" /></g><g
           transform="translate(2205.8467,994.7484)"
           id="g452"><path
             id="path454"
             style="fill:#773733;fill-opacity:1;fill-rule:nonzero;stroke:none"
             d="m 0,0 c 1.528,-4.902 6.683,-7.622 11.515,-6.078 4.834,1.545 7.513,6.769 5.985,11.669 -1.527,4.9 -6.682,7.623 -11.515,6.078 C 1.153,10.124 -1.527,4.9 0,0" /></g><g
           transform="translate(2122.2136,1047.168)"
           id="g456"><path
             id="path458"
             style="fill:#8e4d4c;fill-opacity:1;fill-rule:nonzero;stroke:none"
             d="m 0,0 c 1.153,-2.295 5.052,-2.628 8.714,-0.743 3.661,1.887 5.695,5.275 4.544,7.571 C 12.105,9.124 8.204,9.456 4.543,7.571 0.883,5.686 -1.151,2.296 0,0" /></g><g
           transform="translate(2210.6936,1057.3116)"
           id="g460"><path
             id="path462"
             style="fill:#8e4d4c;fill-opacity:1;fill-rule:nonzero;stroke:none"
             d="m 0,0 c -0.404,-2.542 2.554,-5.143 6.609,-5.81 4.056,-0.669 7.67,0.849 8.075,3.391 C 15.09,0.123 12.131,2.724 8.077,3.391 4.021,4.06 0.406,2.54 0,0" /></g><g
           transform="translate(2144.0337,962.8277)"
           id="g464"><path
             id="path466"
             style="fill:#fff0f0;fill-opacity:1;fill-rule:nonzero;stroke:none"
             d="M 0,0 C -1.161,-17.599 16.384,-34.693 41.817,-32.977 63.22,-31.535 84.027,-8.043 73.997,9.578 62.971,28.951 1.746,26.445 0,0" /></g><g
           transform="translate(2169.1309,959.0105)"
           id="g468"><path
             id="path470"
             style="fill:#8e4d4c;fill-opacity:1;fill-rule:nonzero;stroke:none"
             d="m 0,0 c 1.408,-0.163 2.91,-0.037 4.45,0.401 3.468,0.985 6.849,3.589 8.599,7.282 1.758,-3.136 4.705,-5.866 8.013,-7.023 4.577,-1.591 8.872,0.028 11.792,4.458 0.443,0.668 0.265,1.575 -0.396,2.024 -0.651,0.445 -1.554,0.272 -1.996,-0.4 -2.783,-4.216 -6.143,-4.126 -8.463,-3.323 -3.909,1.364 -7.291,5.59 -7.717,9.357 0.016,0.472 0.004,0.954 -0.031,1.447 -0.053,0.76 -0.656,1.346 -1.437,1.352 C 12.06,15.573 11.435,14.983 11.379,14.221 11.344,13.726 11.352,13.219 11.4,12.708 11.173,7.636 7.377,4.263 3.672,3.211 0.817,2.404 -2.891,2.815 -4.705,6.418 -5.072,7.143 -5.94,7.412 -6.643,7.056 -7.352,6.687 -7.63,5.81 -7.269,5.091 -5.783,2.151 -3.134,0.362 0,0" /></g><g
           transform="translate(2169.5762,980.2964)"
           id="g472"><path
             id="path474"
             style="fill:#773733;fill-opacity:1;fill-rule:nonzero;stroke:none"
             d="m 0,0 c 0.155,-5.066 9.941,-8.834 12.469,-8.321 3.087,0.629 11.48,5.102 11.326,10.167 C 23.64,6.912 -0.154,5.066 0,0" /></g><g
           transform="translate(2565.1628,1620.7489)"
           id="g476"><path
             id="path478"
             style="fill:#f4b18c;fill-opacity:1;fill-rule:nonzero;stroke:none"
             d="m 0,0 c -12.344,-80.79 -81.17,-136.229 -137.077,-132.736 -55.906,3.498 -72.489,67.731 -69.802,144.858 2.704,77.129 50.222,137.017 106.125,133.327 C -24.347,140.398 11.596,75.931 0,0" /></g><g
           transform="translate(1713.7655,1870.4587)"
           id="g480"><path
             id="path482"
             style="fill:#752912;fill-opacity:1;fill-rule:nonzero;stroke:none"
             d="M 0,0 C -6.258,-292.446 222.026,-465.293 465.69,-443.275 709.354,-421.255 868.466,-203.21 818.294,76.484 790.436,231.781 637.732,350.801 405.085,328.264 157.457,304.273 4.851,226.697 0,0" /></g><g
           transform="translate(1809.1165,1941.8191)"
           id="g484"><path
             id="path486"
             style="fill:#ffc19f;fill-opacity:1;fill-rule:nonzero;stroke:none"
             d="m 0,0 c -17.637,-50.847 54.995,-481.824 110.208,-537.38 58.563,-58.938 286.513,-91.862 331.597,-87.789 48.294,4.365 203.386,77.317 237.896,151.027 40.825,87.23 24.615,460.347 5.077,504.582 C 618.743,179.841 484.209,172.918 308.855,157.071 144.81,142.248 45.75,131.932 0,0" /></g><g
           transform="translate(1923.5577,1508.5284)"
           id="g488"><path
             id="path490"
             style="fill:#ff9797;fill-opacity:1;fill-rule:nonzero;stroke:none"
             d="M 0,0 C 0.882,-17.642 26.115,-30.717 56.364,-29.203 86.6,-27.691 110.41,-12.163 109.526,5.479 108.645,23.119 83.404,36.195 53.168,34.683 22.919,33.169 -0.883,17.64 0,0" /></g><g
           transform="translate(2392.4622,1553.3713)"
           id="g492"><path
             id="path494"
             style="fill:#ff9797;fill-opacity:1;fill-rule:nonzero;stroke:none"
             d="m 0,0 c 2.33,-15.534 23.098,-25.292 46.389,-21.796 23.28,3.493 40.274,18.92 37.943,34.453 C 82.001,28.189 61.227,37.95 37.945,34.455 14.656,30.959 -2.332,15.532 0,0" /></g><g
           transform="translate(2195.4412,1580.9896)"
           id="g496"><path
             id="path498"
             style="fill:#c67f75;fill-opacity:1;fill-rule:nonzero;stroke:none"
             d="m 0,0 c 1.934,0.175 3.511,1.721 3.662,3.721 1.052,14.193 11.292,24.23 26.082,25.568 14.874,1.343 27.019,-6.851 30.224,-20.39 0.518,-2.166 2.705,-3.517 4.86,-2.999 2.174,0.512 3.514,2.689 3.001,4.861 C 63.726,28.102 47.764,39.03 29.017,37.336 10.375,35.651 -3.052,22.384 -4.4,4.323 -4.563,2.095 -2.894,0.158 -0.67,-0.01 Z" /></g><g
           transform="translate(1922.2573,1823.1953)"
           id="g500"><path
             id="path502"
             style="fill:#8c2f22;fill-opacity:1;fill-rule:nonzero;stroke:none"
             d="m 0,0 c 2.685,0.469 5.205,1.891 7.013,4.188 23.141,29.27 74.012,45.172 118.439,36.913 6.165,-1.178 12.164,2.925 13.342,9.166 1.156,6.206 -2.942,12.176 -9.165,13.342 C 76.626,73.426 17.482,54.401 -10.95,18.355 -14.862,13.391 -14.016,6.204 -9.052,2.29 -6.399,0.182 -3.097,-0.542 0,0" /></g><g
           transform="translate(2461.2188,1872.3289)"
           id="g504"><path
             id="path506"
             style="fill:#8c2f22;fill-opacity:1;fill-rule:nonzero;stroke:none"
             d="m 0,0 c 3.027,0.058 6.019,1.349 8.139,3.83 3.974,4.612 3.455,11.566 -1.157,15.54 -33.541,28.864 -92.954,35.973 -141.259,16.964 -5.671,-2.247 -8.45,-8.646 -6.217,-14.303 2.247,-5.685 8.659,-8.462 14.302,-6.216 C -85.71,31.804 -34.637,26.158 -7.402,2.672 -5.27,0.833 -2.626,-0.05 0,0" /></g><g
           transform="translate(2403.325,2113.8464)"
           id="g508"><path
             id="path510"
             style="fill:#752912;fill-opacity:1;fill-rule:nonzero;stroke:none"
             d="m 0,0 c -70.115,25.189 -194.179,25.575 -303.217,10.551 -118.537,-16.334 -238.357,-49.674 -297.365,-100.877 -39.032,-33.87 -60.6,-249.327 -42.321,-229.328 20.921,22.883 56.208,45.619 99.624,66.374 2.282,23.733 25.628,85.395 30.718,93.855 -0.55,-12.445 1.895,-55.639 3.436,-78.617 54.656,22.77 118.184,42.218 181.027,55.478 -4.899,23.966 2.431,57.123 2.247,58.783 8.414,-6.17 28.185,-37.862 36.645,-51.341 9.514,1.618 18.959,3.075 28.308,4.364 85.713,11.811 149.891,15.204 201.843,12.504 -13.855,74.247 -17.678,97.523 -17.407,92.365 11.499,-14.507 29.926,-58.459 36.006,-93.626 19.524,-1.66 37.287,-4.242 53.862,-7.605 -1.616,21.958 -1.919,57.797 -2.116,63.852 7.265,-3.07 26.957,-49.278 34.785,-71.84 27.994,-8.038 53.346,-18.369 79.63,-30.139 C 154.412,-218.104 56.513,-20.302 0,0" /></g><g
           transform="translate(2314.5193,1614.958)"
           id="g512"><path
             id="path514"
             style="fill:#f9feff;fill-opacity:1;fill-rule:nonzero;stroke:none"
             d="M 0,0 C 0,0 106.504,-29.36 139.293,38.429 179.248,121.031 100.194,175.985 54.071,159.53 11.389,144.301 -23.933,95.576 0,0" /></g><g
           transform="translate(2451.6936,1753.8737)"
           id="g516"><path
             id="path518"
             style="fill:#773220;fill-opacity:1;fill-rule:nonzero;stroke:none"
             d="m 0,0 c -21.822,26.623 -48.28,33.18 -75.697,27.31 -28.03,-6 -54.398,-32.54 -60.086,-57.916 12.512,29.153 37.804,41.747 53.761,47.434 25.405,9.101 60.955,-1.611 79.087,-28.135 C 13.188,-34.905 15.707,-72.315 1.04,-102.629 19.778,-81.208 22.74,-27.744 0,0" /></g><g
           transform="translate(2328.2744,1699.649)"
           id="g520"><path
             id="path522"
             style="fill:#63190d;fill-opacity:1;fill-rule:nonzero;stroke:none"
             d="m 0,0 c -6.656,-28.971 8.037,-59.737 32.816,-68.72 24.78,-8.98 50.262,7.222 56.919,36.193 C 96.39,-3.557 81.697,27.21 56.917,36.191 32.137,45.173 6.655,28.969 0,0" /></g><g
           transform="translate(2331.3594,1707.0747)"
           id="g524"><path
             id="path526"
             style="fill:#fefffe;fill-opacity:1;fill-rule:nonzero;stroke:none"
             d="m 0,0 c -1.846,-8.038 2.23,-16.574 9.105,-19.065 6.875,-2.493 13.944,2.003 15.791,10.041 1.846,8.037 -2.23,16.574 -9.105,19.066 C 8.916,12.533 1.846,8.038 0,0" /></g><g
           transform="translate(2130.9873,1596.8235)"
           id="g528"><path
             id="path530"
             style="fill:#f9feff;fill-opacity:1;fill-rule:nonzero;stroke:none"
             d="m 0,0 c 0,0 -118.121,-50.609 -170.703,9.106 -64.074,72.766 16.603,142.831 73.915,136.16 C -43.754,139.092 7.761,98.579 0,0" /></g><g
           transform="translate(1941.5472,1704.8495)"
           id="g532"><path
             id="path534"
             style="fill:#773220;fill-opacity:1;fill-rule:nonzero;stroke:none"
             d="M 0,0 C 19.852,30.566 49.353,42.417 82.595,42.285 116.578,42.15 152.959,21.545 164.955,-2.159 144.196,23.849 112.015,31.006 92.188,33.307 60.613,37.019 21.378,19.231 5.812,-10.479 -8.028,-36.914 -3.071,-74.095 20.447,-100.799 -5.946,-83.645 -20.688,-31.854 0,0" /></g><g
           transform="translate(1975.4565,1670.665)"
           id="g536"><path
             id="path538"
             style="fill:#63190d;fill-opacity:1;fill-rule:nonzero;stroke:none"
             d="m 0,0 c -8.488,-29.176 8.282,-59.709 37.459,-68.197 29.176,-8.488 59.709,8.282 68.197,37.458 8.488,29.177 -8.284,59.71 -37.46,68.198 C 39.02,45.947 8.488,29.176 0,0" /></g><g
           transform="translate(1979.0518,1679.7982)"
           id="g540"><path
             id="path542"
             style="fill:#fefffe;fill-opacity:1;fill-rule:nonzero;stroke:none"
             d="m 0,0 c -2.355,-8.094 2.298,-16.566 10.392,-18.92 8.095,-2.356 16.566,2.297 18.922,10.392 C 31.668,-0.433 27.015,8.038 18.92,10.392 10.826,12.748 2.354,8.094 0,0" /></g><g
           transform="translate(1669.2422,1819.2612)"
           id="g544"><path
             id="path546"
             style="fill:#f9951e;fill-opacity:1;fill-rule:nonzero;stroke:none"
             d="m 0,0 c 0,0 -17.186,-64.818 20.258,-60.186 37.445,4.633 64.378,36.033 60.16,70.134 C 76.198,44.05 42.424,67.938 4.98,63.306 -32.464,58.673 0,0 0,0" /></g><g
           transform="translate(1870.2979,1844.1335)"
           id="g548"><path
             id="path550"
             style="fill:#f9951e;fill-opacity:1;fill-rule:nonzero;stroke:none"
             d="m 0,0 c 0,0 32.465,-58.674 -4.979,-63.306 -37.445,-4.632 -71.22,19.256 -75.438,53.358 -4.219,34.101 22.715,65.501 60.159,70.134 C 17.188,64.818 0,0 0,0" /></g><g
           transform="translate(1794.6882,1833.9026)"
           id="g552"><path
             id="path554"
             style="fill:#f9951e;fill-opacity:1;fill-rule:nonzero;stroke:none"
             d="m 0,0 c 2.005,-16.204 -7.929,-30.77 -22.189,-32.533 -14.259,-1.765 -27.445,9.941 -29.448,26.144 -2.005,16.206 7.929,30.772 22.189,32.535 C -15.189,27.91 -2.005,16.204 0,0" /></g><g
           transform="translate(1716.9421,1526.4706)"
           id="g556"><path
             id="path558"
             style="fill:#ffc19f;fill-opacity:1;fill-rule:nonzero;stroke:none"
             d="M 0,0 C 29.755,-81.497 116.066,-126.181 176.382,-112.145 236.696,-98.106 205.567,149.524 93.325,160.568 -0.148,169.767 -27.97,76.597 0,0" /></g><g
           transform="translate(1784.4764,1536.4323)"
           id="g560"><path
             id="path562"
             style="fill:#e0956c;fill-opacity:1;fill-rule:nonzero;stroke:none"
             d="M 0,0 C 8.111,-34.855 50.524,-60.933 79.474,-48.373 90.764,-43.476 59.554,77.804 40.971,76.065 9.55,73.127 -8.112,34.855 0,0" /></g><g
           transform="translate(2329.5305,1520.5525)"
           id="g564"><path
             id="path566"
             style="fill:#701608;fill-opacity:1;fill-rule:nonzero;stroke:none"
             d="m 0,0 c 11.159,-33.357 -47.246,-83.604 -103.914,-84.51 -56.358,-0.903 -97.537,37.122 -99.614,71.645 2.299,19.116 39.421,16.059 94.705,20.45 C -53.605,11.971 -6.788,20.292 0,0" /></g><g
           transform="translate(2229.2322,1467.5662)"
           id="g568"><path
             id="path570"
             style="fill:#dd6b5b;fill-opacity:1;fill-rule:nonzero;stroke:none"
             d="m 0,0 c -25.964,-1.919 -45.382,-8.661 -57.321,-19.792 15.373,-7.316 35.868,-13.827 57.539,-12.154 24.398,1.884 45.536,6.768 60.126,21.646 C 53.056,-0.913 23.227,1.718 0,0" /></g><g
           transform="translate(2300.3262,1533.4761)"
           id="g572"><path
             id="path574"
             style="fill:#ffffff;fill-opacity:1;fill-rule:nonzero;stroke:none"
             d="m 0,0 c -19.578,3.447 -49.033,-2.077 -76.555,-4.264 -31.054,-2.465 -54.156,-0.911 -73.213,-6.017 8.769,-13.594 35.679,-20.748 71.452,-18.262 C -37.01,-25.673 -4.073,-15.597 0,0" /></g><g
           transform="translate(2322.7471,1059.4467)"
           id="g576"><path
             id="path578"
             style="fill:#28afc6;fill-opacity:1;fill-rule:nonzero;stroke:none"
             d="M 0,0 C 57.553,-1.557 135.427,57.996 154.266,78.962 122.13,118.443 56.521,183.88 28.003,203.583 -1.595,224.033 -31.845,229.346 -57.977,234.166 -36.726,152.746 0,0 0,0" /></g><g
           transform="translate(1770.0363,1208.0989)"
           id="g580"><path
             id="path582"
             style="fill:#28afc6;fill-opacity:1;fill-rule:nonzero;stroke:none"
             d="m 0,0 c 0,-33.128 39.918,-116.02 59.798,-157.414 46.163,12.194 104.565,30.889 126.53,47.94 C 224.764,-79.64 161.723,32.771 112.681,54.93 79.254,36.831 23.195,9.181 0,0" /></g><g
           transform="translate(2757.6787,821.1557)"
           id="g584"><path
             id="path586"
             style="fill:#e0956c;fill-opacity:1;fill-rule:nonzero;stroke:none"
             d="m 0,0 c -23.8,13.763 -57.094,38.237 -126.044,75.266 -7.874,4.23 -38.112,-20.265 -29.579,-23.373 C -106.06,33.841 -25.103,-29.943 0,0" /></g><g
           transform="translate(2791.4961,844.3295)"
           id="g588"><path
             id="path590"
             style="fill:#e0956c;fill-opacity:1;fill-rule:nonzero;stroke:none"
             d="M 0,0 C -23.801,13.761 -74.158,58.138 -147.723,74.472 -156.797,76.487 -183.096,49.9 -174.562,46.791 -124.999,28.74 -21.241,-24.202 0,0" /></g><g
           transform="translate(2815.9097,886.1853)"
           id="g592"><path
             id="path594"
             style="fill:#ffc19f;fill-opacity:1;fill-rule:nonzero;stroke:none"
             d="m 0,0 c -23.801,13.763 -165.158,68.678 -238.723,85.011 -9.074,2.015 -31.036,-60.035 -22.358,-72.05 3.559,-34.913 57.939,-54.25 94.993,-116.682 6.4,-10.784 16.796,5.646 17.713,11.403 2.364,14.84 -2.176,18.731 -8.545,55.243 -3.882,22.252 18.33,34.881 33.357,36.107 C -58.799,-5.991 -15.781,-21.136 0,0" /></g><g
           transform="translate(1558.2245,1413.6908)"
           id="g596"><path
             id="path598"
             style="fill:#ffc19f;fill-opacity:1;fill-rule:nonzero;stroke:none"
             d="m 0,0 c -29.508,36.293 -87.054,113.65 -95.952,106.825 -26.301,-20.166 13.772,-76.251 42.125,-110.416 3.112,-3.749 5.926,-7.113 8.611,-10.285 -26.687,-34.704 -47.865,-81.215 -65.241,-96.751 41.452,-39.643 68.379,-51.319 85.706,-51.687 31.672,-0.675 66.009,20.365 74.886,57.854 6.594,27.855 5.115,49.283 -13.395,96.167 C 27.746,-6.667 12.101,-6.313 0,0" /></g><g
           id="g600"><g
             id="g602" /><g
             id="g614"><g
               style="opacity:0.13999903"
               id="g612"
               clip-path="url(#clipPath606)"><g
                 id="g610"
                 transform="translate(1562.2413,1309.7585)"><path
                   id="path608"
                   style="fill:#6b1808;fill-opacity:1;fill-rule:nonzero;stroke:none"
                   d="M 0,0 C -26.389,-40.45 -73.762,-36.719 -99.702,-8.599 -92.42,-2.264 -61.78,68.37 -70.65,115.233 -38.691,125.024 -3.369,64.411 6.205,70.934 -10.749,52.705 -16.714,24.189 0,0" /></g></g></g></g><g
           transform="translate(1529.2065,1403.6448)"
           id="g616"><path
             id="path618"
             style="fill:#ffc19f;fill-opacity:1;fill-rule:nonzero;stroke:none"
             d="m 0,0 c -16.744,18.407 -37.874,26.452 -47.198,17.973 -8.398,-7.64 -4.267,-26.063 8.853,-43.101 -15.748,9.072 -31.423,10.601 -38.299,2.457 -7.396,-8.763 -2.133,-25.709 11.557,-40.53 -13.177,2.005 -24.21,-0.839 -27.914,-8.526 -5.473,-11.354 6.99,-28.702 27.834,-38.746 20.845,-10.046 42.178,-8.987 47.649,2.369 2.999,6.222 0.469,14.234 -5.737,21.87 6.684,-0.432 12.31,1.172 15.724,5.215 6.371,7.544 3.353,21.166 -6.332,34.264 C -2.79,-52.828 7.62,-53.973 13.434,-48.684 22.758,-40.203 16.742,-18.407 0,0" /></g><g
           id="g620"><g
             id="g622" /><g
             id="g634"><g
               style="opacity:0.21000701"
               id="g632"
               clip-path="url(#clipPath626)"><g
                 id="g630"
                 transform="translate(1514.1938,1386.0621)"><path
                   id="path628"
                   style="fill:#541000;fill-opacity:1;fill-rule:nonzero;stroke:none"
                   d="M 0,0 C 2.551,-13.87 13.891,-32.208 35.047,-26.648 54.62,-21.503 76.423,-1.554 73.874,12.317 71.323,26.188 51.816,34.226 30.304,30.27 8.793,26.315 -2.549,13.871 0,0" /></g></g></g></g><g
           transform="translate(1514.1938,1386.0621)"
           id="g636"><path
             id="path638"
             style="fill:#ffc19f;fill-opacity:1;fill-rule:nonzero;stroke:none"
             d="M 0,0 C 2.426,-13.194 22.808,-20.503 45.525,-16.327 68.242,-12.15 84.691,1.932 82.265,15.127 79.838,28.32 59.456,35.63 36.74,31.453 14.023,27.277 -2.425,13.194 0,0" /></g><g
           transform="translate(1438.8831,1666.6038)"
           id="g640"><path
             id="path642"
             style="fill:#919191;fill-opacity:1;fill-rule:nonzero;stroke:none"
             d="m 0,0 c -3.107,0.439 -5.945,-1.759 -6.406,-4.838 l -7.007,-50.758 c -0.424,-3.106 1.737,-5.97 4.852,-6.401 2.141,-0.297 4.173,0.647 5.359,2.279 0.536,0.734 0.898,1.607 1.043,2.558 L 4.853,-6.4 C 5.276,-3.296 3.111,-0.432 0,0 m -113.904,-99.298 c -3.146,0.313 -5.923,-1.995 -6.196,-5.082 -0.305,-3.125 1.975,-5.908 5.097,-6.212 l 50.997,-5.045 c 2.078,-0.196 3.999,0.747 5.142,2.317 0.583,0.796 0.963,1.736 1.063,2.774 0.301,3.127 -1.975,5.908 -5.094,6.222 z m 40.628,66.72 c -2.274,2.15 -5.852,2.057 -8.021,-0.204 -2.074,-2.284 -2.076,-5.862 0.21,-8.031 l 37.138,-35.323 c 2.274,-2.149 5.851,-2.055 8.017,0.202 l 0.48,0.586 c 1.652,2.265 1.401,5.463 -0.687,7.45 z" /></g><g
           transform="translate(2703.5383,1964.3671)"
           id="g644"><path
             id="path646"
             style="fill:#ffc408;fill-opacity:1;fill-rule:nonzero;stroke:none"
             d="m 0,0 c 2.777,-6.539 9.661,-8.501 15.844,-5.797 l 98.159,45.602 c 5.797,2.705 8.58,9.698 5.797,15.458 -3.008,6.225 -10.047,8.888 -15.844,6.183 L 5.797,15.844 C 0,13.14 -2.638,6.213 0,0 m 515.14,0 c -2.777,-6.539 -9.662,-8.501 -15.458,-5.797 l -98.16,45.602 c -6.183,2.705 -8.431,9.629 -5.796,15.458 2.78,6.149 9.661,8.888 15.458,6.183 L 509.343,15.844 C 515.14,13.14 517.778,6.213 515.14,0 m 7.342,110.911 c 0,-6.569 -5.796,-11.979 -12.367,-11.593 l -84.632,2.32 c -6.57,0 -11.593,5.409 -11.593,11.979 0.386,6.569 5.797,11.594 12.366,11.594 l 84.633,-2.32 c 6.569,0 11.593,-5.797 11.593,-11.98 M 255.831,385.678 c 6.569,0 11.593,-5.41 11.593,-11.979 v -84.634 c 0,-6.569 -5.024,-11.979 -11.593,-11.979 -6.57,0 -11.98,5.41 -11.98,11.979 v 84.634 c 0,6.569 5.41,11.979 11.98,11.979 M 69.948,307.616 c -5.025,-4.251 -5.025,-11.98 -0.773,-16.619 l 57.58,-62.218 c 4.639,-4.637 11.973,-5.014 17.005,-0.386 4.63,4.259 5.024,11.98 0.386,16.618 l -57.58,62.218 c -4.253,4.637 -11.982,5.023 -16.618,0.387 m 79.608,81.927 c -6.94,-1.984 -9.661,-8.888 -7.729,-15.072 l 33.622,-102.796 c 1.933,-6.183 8.888,-9.661 15.071,-7.341 6.183,1.932 9.661,8.501 7.729,14.684 l -34.007,102.796 c -1.932,6.183 -8.102,9.612 -14.686,7.729 M -17.777,228.393 c -3.401,-6.609 0,-13.14 5.797,-15.844 l 98.158,-45.602 c 5.797,-2.705 12.753,0 15.846,5.797 2.704,6.182 0,13.139 -5.797,15.844 L -1.932,234.19 c -5.797,2.704 -12.681,0.35 -15.845,-5.797 m 462.969,79.223 c 5.023,-4.251 5.411,-11.98 0.772,-16.619 l -57.58,-62.218 c -4.638,-4.637 -11.981,-5.023 -16.618,-0.386 -5.024,4.25 -5.411,11.98 -0.772,16.618 l 57.58,62.218 c 4.638,4.637 11.98,5.023 16.618,0.387 m -79.609,81.927 c 6.925,-2.043 9.662,-8.888 7.729,-15.072 L 339.69,271.675 c -1.932,-6.183 -8.888,-9.661 -15.07,-7.341 -6.185,1.932 -9.662,8.501 -7.343,14.684 l 33.62,102.796 c 1.933,6.183 8.472,9.562 14.686,7.729 m 167.333,-161.15 c 3.402,-6.609 0.386,-13.14 -5.797,-15.844 L 428.96,166.947 c -5.796,-2.705 -12.673,0.037 -15.456,5.797 -3.008,6.224 -0.388,13.139 5.409,15.844 l 98.159,45.602 c 5.797,2.704 12.681,0.35 15.844,-5.797 M -7.343,110.911 c 0.386,-6.569 5.797,-11.979 12.366,-11.593 l 84.633,2.32 c 6.571,0 11.594,5.409 11.594,11.979 -0.386,6.569 -5.797,11.594 -12.366,11.594 l -84.633,-2.32 c -6.569,0 -11.594,-5.797 -11.594,-11.98" /></g><g
           transform="translate(3074.3088,2092.3535)"
           id="g648"><path
             id="path650"
             style="fill:#ffc408;fill-opacity:1;fill-rule:nonzero;stroke:none"
             d="m 0,0 c 0,63.741 -51.587,115.329 -115.329,115.329 -63.741,0 -115.329,-51.588 -115.329,-115.329 0,-41.325 21.878,-77.786 54.828,-98.044 v -32.139 h 118.842 v 30.79 C -22.958,-79.406 0,-42.405 0,0 m -75.626,-139.098 h -84.808 c -3.242,0 -5.941,-2.97 -5.941,-6.211 v -4.592 c 0,-3.511 2.699,-6.211 5.941,-6.211 h 84.808 c 3.512,0 6.213,2.7 6.213,6.211 v 4.592 c 0,3.241 -2.701,6.211 -6.213,6.211 m 0,-26.198 h -84.808 c -3.242,0 -5.941,-2.701 -5.941,-6.212 v -4.591 c 0,-3.242 2.699,-6.213 5.941,-6.213 h 84.808 c 3.242,0 6.213,2.971 6.213,6.213 v 4.591 c 0,3.511 -2.971,6.212 -6.213,6.212 m -23.227,-25.659 h -41.325 c 0,-5.671 9.184,-10.263 20.798,-10.263 11.344,0 20.527,4.592 20.527,10.263" /></g><g
           transform="translate(2980.3545,2045.2172)"
           id="g652"><path
             id="path654"
             style="fill:#ffffff;fill-opacity:1;fill-rule:nonzero;stroke:none"
             d="m 0,0 c -5.569,-3.93 -13.289,-2.586 -17.219,2.973 -1.901,2.698 -2.641,5.977 -2.071,9.235 0.558,3.244 2.345,6.08 5.044,7.982 2.107,1.481 4.567,2.254 7.096,2.254 0.716,0 1.423,-0.056 2.14,-0.181 3.245,-0.558 6.081,-2.346 7.982,-5.046 C 4.875,14.519 5.615,11.24 5.057,7.994 4.487,4.737 2.699,1.901 0,0 m -36.942,2.631 c -3.94,-1.47 -8.324,-1.435 -12.424,0.228 -8.313,3.358 -12.595,12.241 -9.543,19.791 2.255,5.579 7.892,8.906 14.041,8.906 2.164,0 4.396,-0.41 6.56,-1.288 8.302,-3.358 12.583,-12.241 9.531,-19.791 -1.457,-3.61 -4.349,-6.389 -8.165,-7.846 m 47.067,19.62 c -3.247,4.613 -8.098,7.675 -13.655,8.633 -5.523,0.99 -11.137,-0.296 -15.75,-3.542 -0.762,-0.537 -1.399,-1.18 -2.068,-1.795 -2.619,5.56 -7.367,10.275 -13.681,12.829 -12.766,5.125 -27.114,-0.432 -31.988,-12.446 -4.851,-12.025 1.594,-26.01 14.371,-31.181 3.2,-1.285 6.537,-1.935 9.851,-1.935 3.052,0 6.092,0.546 8.963,1.651 1.363,0.518 2.626,1.182 3.836,1.912 v -79.424 h 8.747 v 77.555 c 3.945,-3.57 9.003,-5.498 14.155,-5.498 4.202,0 8.449,1.242 12.127,3.838 4.613,3.246 7.676,8.096 8.644,13.655 0.957,5.557 -0.306,11.148 -3.552,15.748" /></g></g></g></g></svg>