<?xml version="1.0" encoding="UTF-8" standalone="no"?>
<!DOCTYPE svg PUBLIC "-//W3C//DTD SVG 1.1//EN" "http://www.w3.org/Graphics/SVG/1.1/DTD/svg11.dtd">
<svg xmlns="http://www.w3.org/2000/svg" xmlns:xlink="http://www.w3.org/1999/xlink" version="1.1" width="1570pt" height="2215.8pt" viewBox="0 0 1570 2215.8">
<g enable-background="new">
<g>
<g id="Layer-1" data-name="background">
<clipPath id="cp0">
<path transform="matrix(1,0,0,-1,0,2215.8)" d="M 0 2215.8 L 1570 2215.8 L 1570 0 L 0 0 Z "/>
</clipPath>
<g clip-path="url(#cp0)">
<path transform="matrix(1,0,0,-1,334.4,531.19998)" d="M 0 0 C 20.5 54.5 48.1 57.5 78.2 114.8 C 96.5 149.7 98.9 227.2 185.6 361.6 C 266.6 367.3 678.8 323.5 886.1 277.2 C 974.4 113.9 891.8 47 956.5 -65 C 1011.5 -160.4 949.5 -262.5 887.6 -300.2 C 879.1 -305.4 911.6 -274.5 893.6 -215 C 881.6 -269 861.4 -314.3 838.8 -322.2 C 706.2 -368.7 512.8 -372 398 -357.3 C 257.3 -339.3 187.9 -302 136.5 -268 C 124.1 -259.8 119.6 -208.2 116.6 -169.1 C 110 -173.8 101.7 -218.9 110.3 -256.1 C 49.8 -240.3 -43 -114.1 0 0 " fill="#ad5c49"/>
<path transform="matrix(1,0,0,-1,302.7,1289.1)" d="M 0 0 C -6.1 -3.4 -49.4 75.8 -43.7 79.8 C 51.4 146.7 206.3 258.3 233.7 277.9 C 259.6 217 264.6 186.2 241.4 143.1 C 224.4 111.5 96.2 53.6 0 0 " fill="#ffc19f"/>
<path transform="matrix(1,0,0,-1,432.2,1053.3)" d="M 0 0 C 35.2 -32.8 103.6 -89.1 145.5 -107.1 C 169.1 22.6 165.4 172.1 166.4 178.8 C 162.3 178.8 152.3 176.1 147.4 173.2 C 114 145.2 65.9 70.6 0 0 " fill="#ed3b61"/>
<path transform="matrix(1,0,0,-1,183.2,1209.4)" d="M 0 0 C -12.7 -6.8 -29.9 -24.6 -50.1 -48 C -53.7 -52.1 -61.7 -73.4 -67.6 -91.4 C -70.4 -99.7 -75.9 -114 -71 -115 C -66.2 -115.9 -56 -114.4 -52.1 -103.5 C -50.1 -120.2 -49.4 -138.1 -45.3 -138.4 C -32.6 -139.2 -27.1 -128.1 -26.1 -113.3 C -24.1 -126.2 -21.4 -142.8 -13.4 -143.7 C -3.1 -144.8 -1.1 -138.3 -.1 -127.2 C 23.8 -134.5 43.1 -70.8 84.5 -74 C 104.1 -75.5 75.5 -97.2 97.8 -112.2 C 121.1 -95.9 132.4 -80.6 129.4 -26.9 C 127.6 5.5 137.4 26.4 126.4 25.4 C 102.3 23.3 15.5 8.2 0 0 " fill="#ffc19f"/>
<path transform="matrix(1,0,0,-1,181.3,1335.2)" d="M 0 0 L -.4 0 C -1.1 .2 -1.5 .9 -1.3 1.6 C 3.1 16.1 11.2 40.4 14 43.8 C 19 49.8 33 62.1 46.6 72.5 C 47.2 72.9 48 72.8 48.4 72.3 C 48.8 71.7 48.7 70.9 48.1 70.5 C 34.6 60.2 20.8 48.1 16 42.2 C 13.8 39.6 6.6 18.7 1.2 .9 C 1.1 .4 .6 0 0 0 " fill="#f29d77"/>
<path transform="matrix(1,0,0,-1,129.4,1314.2)" d="M 0 0 C -.2 -.7 2.4 -1.4 2.6 -.9 C 9.4 17.4 18.2 40.3 21.9 44.7 C 33.2 57.8 43.2 68 51.5 75.1 C 52 75.6 52.1 76.5 51.6 77 C 51.2 77.6 50.3 77.7 49.7 77.2 C 41.3 70 31.2 59.7 19.8 46.5 C 14.7 40.4 2.6 6.7 0 0 M 42.2 35.6 C 39.3 32.1 28.6 1 26.2 -6.5 C 26 -7.2 26.4 -8 27.1 -8.2 L 27.7 -8.4 C 28.2 -8.3 28.6 -7.8 28.8 -7.3 C 31.8 2.8 42 31.1 44.3 33.9 C 49.1 39.7 61.7 52.5 73.6 63.3 C 74.1 63.8 74.2 64.7 73.7 65.2 C 73.2 65.8 72.4 65.8 71.7 65.3 C 59.8 54.4 47.1 41.4 42.2 35.6 " fill="#f29d77"/>
<path transform="matrix(1,0,0,-1,1305.9,1491.2)" d="M 0 0 C 12.1 5.4 62.7 -106.8 50.6 -112.3 C -57.5 -161.3 -199.9 -251.8 -257.3 -270.5 C -281.6 -278.4 -334.7 -267.9 -352.2 -233.6 C -365.7 -207.2 -388.1 -160.2 -388.1 -160.2 C -301.6 -129 -90 -39.6 0 0 " fill="#ffc19f"/>
<g opacity=".119995">
<clipPath id="cp1">
<path transform="matrix(1,0,0,-1,0,2215.8)" d="M 446.7 .0000152588 L 1519.1 .0000152588 L 1519.1 68.3999 L 446.7 68.3999 Z "/>
</clipPath>
<g clip-path="url(#cp1)">
<path transform="matrix(1,0,0,-1,446.7,2181.6)" d="M 0 0 C 0 -18.9 240.1 -34.2 536.2 -34.2 C 832.3 -34.2 1072.4 -18.9 1072.4 0 C 1072.4 18.9 832.3 34.2 536.2 34.2 C 240.1 34.2 0 18.9 0 0 "/>
</g>
</g>
<path transform="matrix(1,0,0,-1,649.2,2034.3)" d="M 0 0 C -9.3 74.7 -28.1 248 -42.6 342.2 L 114.3 344.8 C 118.1 243.8 123 61.4 124.2 -5.1 Z " fill="#ffc19f"/>
<path transform="matrix(1,0,0,-1,462.5,1625.6)" d="M 0 0 C 6.8 -6.5 58.1 -30.6 62.3 -32.9 C 61.4 -35.2 59.7 -46.7 57.9 -51.8 C 124.9 -86.4 227.8 -97.2 321.1 -90.6 C 459.6 -80.8 523 -53.7 623.8 9.3 C 622.6 11.6 616.3 25.7 615.9 27.1 C 618.4 28 663.1 56.1 669.2 60.8 C 669.2 60.8 545.5 263.4 528.4 289.6 C 414.4 261.6 192.2 245.4 99.5 264.1 C 80.6 210.5 18.4 44.2 0 0 " fill="#68295f"/>
<g opacity=".5">
<clipPath id="cp2">
<path transform="matrix(1,0,0,-1,0,2215.8)" d="M 502.7 557.3 L 560.1 557.3 L 560.1 709.2 L 502.7 709.2 Z "/>
</clipPath>
<g clip-path="url(#cp2)">
<path transform="matrix(1,0,0,-1,502.7,1647.7)" d="M 0 0 L 22.1 -10.8 L 57.4 141.1 Z " fill="#150028"/>
</g>
</g>
<g opacity=".5">
<clipPath id="cp3">
<path transform="matrix(1,0,0,-1,0,2215.8)" d="M 1025.9 616.4 L 1095.7 616.4 L 1095.7 743.4 L 1025.9 743.4 Z "/>
</clipPath>
<g clip-path="url(#cp3)">
<path transform="matrix(1,0,0,-1,1078.4,1599.4)" d="M 0 0 L 17.3 11.2 L -52.5 127 Z " fill="#150028"/>
</g>
</g>
<g opacity=".350006">
<clipPath id="cp4">
<path transform="matrix(1,0,0,-1,0,2215.8)" d="M 537.1 757.46 L 1039.4 757.46 L 1039.4 879.7 L 537.1 879.7 Z "/>
</clipPath>
<g clip-path="url(#cp4)">
<path transform="matrix(1,0,0,-1,991,1336.1)" d="M 0 0 C -114 -28 -327 -19.3 -419.7 -.6 C -428.1 -21.4 -449.4 -82.4 -453.9 -94.1 C -329.8 -142.8 -139.9 -121.7 48.4 -80.7 C 36.9 -62.7 3.7 -5.8 0 0 "/>
</g>
</g>
<path transform="matrix(1,0,0,-1,1395.2,820.4)" d="M 0 0 C 10.9 7.9 -40.4 93.9 -50.6 87.9 C -179.8 12.3 -255.4 -21.2 -439.7 -46.4 C -423.3 -85.4 -413.6 -144 -396.9 -182.8 C -216.1 -129.2 -118.4 -86.5 0 0 " fill="#ffc19f"/>
<path transform="matrix(1,0,0,-1,1136.4,824.1)" d="M 0 0 C 13.2 -39.1 31 -127.3 42 -168.6 C -44.4 -197.7 -116 -216.9 -122.5 -215.3 C -189.8 -198.4 -229.1 -52.2 -233.4 -44.3 C -186.2 -40.7 -85 -25.9 0 0 " fill="#ed3b61"/>
<path transform="matrix(1,0,0,-1,1039,1402.2)" d="M 0 0 C -159.9 -46.1 -371.4 -57.1 -511.5 7.3 C -511.5 7.3 -469.2 424.5 -445.4 526.1 C -395.5 534.4 -306.1 541.3 -218.9 541.1 C -143.8 540.9 -82.5 535.9 -26.3 539.5 C -23.4 379.5 -20.9 188.7 0 0 " fill="#ed3b61"/>
<path transform="matrix(1,0,0,-1,901.8,863.6)" d="M 0 0 C -31 .8 -64 1.9 -100.5 1.9 C -147.3 1.9 -190.6 -.6 -229.4 -3.6 C -228.2 -60.1 -175.9 -104.9 -112.5 -103.6 C -49.5 -102.3 .5 -56 0 0 " fill="#ffc19f"/>
<path transform="matrix(1,0,0,-1,698.9,747.1)" d="M 0 0 L -1.6 -141.1 C -1.9 -171.4 36.3 -196.5 83.9 -197 C 131.5 -197.5 170.3 -173.4 170.6 -143 L 172.2 -1.9 Z " fill="#ffc19f"/>
<g opacity=".190002">
<clipPath id="cp5">
<path transform="matrix(1,0,0,-1,0,2215.8)" d="M 634.322 1331.7 L 904.378 1331.7 L 904.378 1540.45 L 634.322 1540.45 Z "/>
</clipPath>
<g clip-path="url(#cp5)">
<path transform="matrix(1,0,0,-1,637,815.7999)" d="M 0 0 C 14.7 -54.1 85.9 -81.8 159 -61.8 C 232.1 -41.9 279.4 18.1 264.7 72.1 C 250 126.2 178.8 153.9 105.7 134 C 32.6 114 -14.7 54 0 0 " fill="#960c0c"/>
</g>
</g>
<path transform="matrix(1,0,0,-1,1188.5,1569.9)" d="M 0 0 C 4.1 -6.6 12.8 -8.7 19.5 -4.6 L 4.8 19.5 C -1.9 15.4 -4.1 6.7 0 0 M 14.6 -24 C 18.7 -30.6 27.4 -32.7 34 -28.6 L 19.3 -4.5 C 12.8 -8.7 10.6 -17.4 14.6 -24 M 29.3 -48.1 C 33.4 -54.7 42.1 -56.8 48.7 -52.7 L 34 -28.6 C 27.4 -32.7 25.3 -41.4 29.3 -48.1 M 58.7 -96.1 C 60.7 -99.4 63.9 -101.6 67.4 -102.4 L 75.5 -96.6 L 63.4 -76.7 C 56.7 -80.8 54.6 -89.5 58.7 -96.1 M 44 -72.1 C 48.1 -78.7 56.7 -80.8 63.4 -76.8 L 48.7 -52.7 C 42.1 -56.8 39.9 -65.5 44 -72.1 M -14.7 24.1 C -10.6 17.5 -1.9 15.4 4.8 19.5 L -4.2 34.5 C -6.9 33.2 -10.9 31.3 -15.5 29.2 C -15.2 27.4 -15.7 25.6 -14.7 24.1 " fill="#ed457d"/>
<path transform="matrix(1,0,0,-1,1317.7,1470.3)" d="M 0 0 C 3.8 1.7 68.4 -114.1 64.5 -117.2 C 31.8 -142.9 -40.8 -187.6 -53.8 -196.3 L -133.5 -65.2 C -94.4 -46.4 -24 -10.9 0 0 " fill="#fff8b3"/>
<path transform="matrix(1,0,0,-1,1306.9,1611.5)" d="M 0 0 C -9.3 -3.6 -45.7 81.7 -57.3 94 C -38.7 106.8 -15.4 137.6 10.6 154 C 28.7 165.4 51.5 159.1 65.2 144.7 C 118 89.2 261.9 -54.7 220.4 -92.4 C 186.3 -123.3 92.1 -42.9 0 0 " fill="#fff8b3"/>
<path transform="matrix(1,0,0,-1,1272.5,1487.4)" d="M 0 0 C -.7 -2.1 1.3 -5.3 5.1 -6.1 C 24.2 -15.6 49.4 -34 68.9 -50 C 75.5 -55.5 81.6 -61.2 87.2 -67.1 C 71.7 -86.7 59.1 -119.2 59.7 -141.2 C 59.8 -145.8 63.7 -149.2 68.4 -148.8 C 73.1 -148.4 76.8 -144.4 76.7 -139.8 C 76.3 -122.9 86.2 -96.6 98 -79.9 C 130.8 -118.4 151.4 -150.8 134.7 -184 C 195.1 -214 238.2 -258.5 269.8 -235.8 C 308.7 -207.9 81.5 55.2 81.5 55.2 C 57.8 38.7 21.1 14.9 0 0 " fill="#f93d77"/>
<path transform="matrix(1,0,0,-1,1339.1,1441.4)" d="M 0 0 C 5.4 3.4 10.5 6.8 15 9.9 C 15 9.9 223.8 -209.5 213.6 -271.6 C 213.2 -273.8 207.9 -279.6 205.4 -280.2 C 175.4 -200.3 51.1 -56.8 0 0 " fill="#b52652"/>
<path transform="matrix(1,0,0,-1,1282.8,1654.5)" d="M 0 0 C -30.1 54.8 -44.5 77.1 -78.5 128.8 L -84.4 125.9 C -50.2 73.8 -35.8 51.6 -5.5 -3.5 Z " fill="#ed457d"/>
<path transform="matrix(1,0,0,-1,648.1,1963.8)" d="M 0 0 L 28.2 1 C 27.9 8.8 21.4 15 13.7 14.7 C 5.8 14.4 -.3 7.7 0 0 M 28.1 .9 L 56.2 1.9 C 55.9 9.7 49.4 15.8 41.7 15.6 C 33.9 15.3 27.9 8.7 28.1 .9 M 56.3 1.9 L 84.5 2.9 C 84.2 10.7 77.7 16.8 70 16.6 C 62.1 16.2 56 9.6 56.3 1.9 M 112.6 3.8 L 135.9 4.6 L 136.3 14.6 C 133.7 17 130.1 18.5 126.3 18.4 C 118.4 18.1 112.3 11.6 112.6 3.8 M 84.4 2.8 L 112.5 3.8 C 112.2 11.6 105.7 17.7 98 17.4 C 90.2 17.2 84.2 10.6 84.4 2.8 M -19.3 11.6 C -18.6 6.6 -17.9 2.2 -17.5 -.8 L 0 0 C -.3 7.8 -6.8 14 -14.5 13.7 C -16.4 13.6 -17.7 12.3 -19.3 11.6 " fill="#ed457d"/>
<path transform="matrix(1,0,0,-1,649.4,2111.9)" d="M 0 0 C .6 -4.1 132.9 5.5 133.3 10.4 C 136.8 51.9 134.3 137.1 134.4 152.7 L -18.9 147.3 C -13 104.4 -4.1 26 0 0 " fill="#fff8b3"/>
<path transform="matrix(1,0,0,-1,666.9,2025.3)" d="M 0 0 C 2.1 9.8 93.4 -6.7 110 -3.7 C 110.4 -26.3 123.5 -62.7 122.8 -93.4 C 122.4 -114.8 104.6 -130.4 85.1 -133.9 C 9.7 -147.6 -189.6 -188.7 -198.3 -133.4 C -205.5 -87.9 -86.5 -53.4 0 0 " fill="#fff8b3"/>
<path transform="matrix(1,0,0,-1,789.4,2064.7)" d="M 0 0 C -1.4 1.7 -5.1 1.8 -7.9 -.9 C -26.3 -11.6 -55.5 -22.6 -79.6 -30.1 C -87.8 -32.6 -96 -34.6 -104 -36 C -111.8 -12.3 -132.1 16.1 -150.8 27.7 C -154.7 30.1 -159.7 28.7 -162 24.6 C -164.3 20.5 -163 15.2 -159.1 12.7 C -144.7 3.7 -128.2 -18.9 -120.8 -38 C -171 -44.2 -209.4 -43.7 -227.9 -11.5 C -286.1 -45.5 -347 -57.1 -345.4 -96 C -343.4 -143.8 1.2 -98.5 1.2 -98.5 C .6 -69.6 .9 -25.8 0 0 " fill="#f93d77"/>
<path transform="matrix(1,0,0,-1,791.2,2145.6)" d="M 0 0 C -.1 -6.4 -.1 -12.5 0 -18 C 0 -18 -298 -72 -344.3 -29.3 C -346 -27.8 -347.8 -20.1 -347 -17.7 C -263.6 -36.6 -75.5 -11.5 0 0 " fill="#b52652"/>
<path transform="matrix(1,0,0,-1,784.2,1981.6)" d="M 0 0 C -62.3 -4.9 -88.9 -5.1 -150.7 -5.2 L -151.5 1.3 C -89.1 1.3 -62.7 1.5 -.1 6.5 Z " fill="#ed457d"/>
<path transform="matrix(1,0,0,-1,425.4,579)" d="M 0 0 C 10.2 -53.9 48.2 -84.5 76.7 -76.3 C 105.3 -68 110.8 -22.4 105.7 30.1 C 100.7 82.5 73.4 118.4 44.8 110 C 5.9 98.5 -9.6 50.6 0 0 " fill="#f7a981"/>
<path transform="matrix(1,0,0,-1,453.5,319.40003)" d="M 0 0 C -28.4 -241.3 114.5 -366.9 338.4 -387.7 C 562.4 -408.4 764.5 -330.3 786.9 -88.4 C 809.3 153.5 631 249.8 416.2 270.1 C 161.8 294 25.4 216.5 0 0 " fill="#ad5c49"/>
<path transform="matrix(1,0,0,-1,474.2,642.6)" d="M 0 0 C 38.2 -126.8 119.2 -194.6 238.5 -200.2 C 461.9 -210.8 606.3 -86.8 675.8 171.3 C 749.8 446.3 557.8 475.7 360.3 494 C 228.4 506.2 118.1 513.8 55.4 431 C 16.8 379.9 -18.8 62.1 0 0 " fill="#fbc1a0"/>
<path transform="matrix(1,0,0,-1,644.8,466.79994)" d="M 0 0 C 16.8 -37.4 9.5 -75.5 -10.7 -87.9 C -41.1 -106.5 -107.4 -104.8 -127.9 -70 C -147.8 -36.3 -129.6 18.4 -88 37.9 C -51.7 54.8 -16.3 36.2 0 0 " fill="#f9fdff"/>
<path transform="matrix(1,0,0,-1,523.9,442.19996)" d="M 0 0 C 36.6 50.4 106.7 23.3 121.4 -25.9 C 104.6 11.5 67.1 26.9 33.5 11.2 C 12.7 1.5 -3.6 -18.4 -10.2 -41.8 C -15.5 -60.5 -14.2 -82.4 -5.9 -96.4 C -16.2 -86.8 -26.9 -37.1 0 0 " fill="#843923"/>
<path transform="matrix(1,0,0,-1,631.9,488.59999)" d="M 0 0 C 5.7 -25.2 -7.8 -51.5 -30.2 -58.7 C -52.6 -65.9 -75.3 -51.3 -81 -26.1 C -86.7 -.9 -73.2 25.4 -50.8 32.6 C -28.4 39.8 -5.7 25.2 0 0 " fill="#461d14"/>
<path transform="matrix(1,0,0,-1,629,484)" d="M 0 0 C 1.6 -7 -2.2 -14.3 -8.4 -16.3 C -14.6 -18.3 -20.9 -14.2 -22.5 -7.3 C -24.1 -.3 -20.3 7 -14.1 9 C -7.8 11 -1.5 7 0 0 " fill="#fefffe"/>
<path transform="matrix(1,0,0,-1,812.2,486.09999)" d="M 0 0 C -27.8 -32.3 -28.9 -71.1 -9.5 -88 C 19.8 -113.5 94 -127.9 125.3 -99.1 C 155.6 -71.2 148.6 -13.6 107.1 15.5 C 70.8 40.8 26.9 31.3 0 0 " fill="#f9fdff"/>
<path transform="matrix(1,0,0,-1,952.7,491.59999)" d="M 0 0 C -28.5 57.9 -113.1 48.6 -141.4 4.4 C -113.7 36.7 -68.2 42.5 -34.6 19 C -13.8 4.5 -.5 -18.8 1.2 -43.2 C 2.5 -62.7 -4.2 -83.6 -16.8 -95.2 C -3.1 -88.2 21 -42.5 0 0 " fill="#843923"/>
<path transform="matrix(1,0,0,-1,921.1,520.69998)" d="M 0 0 C 6.9 -25.3 -8.1 -51.4 -33.5 -58.3 C -58.8 -65.2 -84.9 -50.2 -91.8 -24.8 C -98.7 .5 -83.7 26.6 -58.3 33.5 C -32.9 40.3 -6.8 25.3 0 0 " fill="#461d14"/>
<path transform="matrix(1,0,0,-1,917.8,516.1)" d="M 0 0 C 1.9 -7 -2.3 -14.3 -9.3 -16.2 C -16.3 -18.1 -23.6 -13.9 -25.5 -6.9 C -27.4 .1 -23.2 7.4 -16.2 9.3 C -9.2 11.2 -1.9 7.1 0 0 " fill="#fefffe"/>
<path transform="matrix(1,0,0,-1,533.9,348)" d="M 0 0 C 3.1 -.4 6.4 .2 9.3 2.1 C 31.4 17 69.6 16.6 98.2 1.2 C 104.6 -2.3 112.7 .2 116.2 6.6 C 119.7 13.1 117.2 21.2 110.8 24.6 C 73.5 44.7 24.6 44.4 -5.6 24.2 C -11.7 20.1 -13.3 11.8 -9.2 5.7 C -7 2.5 -3.6 .5 0 0 " fill="#5d1f12"/>
<path transform="matrix(1,0,0,-1,966.7,404.09999)" d="M 0 0 C 4 -.5 8.2 .6 11.5 3.4 C 17.6 8.7 18.3 17.9 13 24 C -13 54.2 -64.8 68.7 -110.2 58.2 C -118.1 56.4 -123 48.6 -121.2 40.7 C -119.4 32.8 -111.5 27.9 -103.7 29.7 C -68.8 37.8 -28.3 27 -9.2 4.9 C -6.7 2.1 -3.4 .4 0 0 " fill="#5d1f12"/>
<path transform="matrix(1,0,0,-1,674,578.69998)" d="M 0 0 C 1.6 -.2 3.2 .8 3.6 2.4 C 6.9 13.7 17 20.1 29.2 18.6 C 41.5 17.1 49.9 8.3 50.2 -3.2 C 50.2 -5 51.8 -6.5 53.6 -6.5 C 55.5 -6.5 56.9 -4.9 56.9 -3.1 C 56.6 11.7 45.5 23.3 30 25.2 C 14.6 27.1 1.4 18.6 -2.9 4.2 C -3.4 2.4 -2.4 .6 -.6 0 Z " fill="#c4735b"/>
<path transform="matrix(1,0,0,-1,1035.8,483.5)" d="M 0 0 C -9.3 -100.1 48.5 -178.1 98.9 -182.6 C 104.7 -123.3 148.7 120.8 159.4 239.7 C 142.9 242.3 75.8 251.1 -29.9 267.6 C 88.7 213.4 10.6 113.5 0 0 " fill="#ad5c49"/>
<path transform="matrix(1,0,0,-1,823.8,662.1)" d="M 0 0 C -1.7 26.8 -49.5 26.2 -111.8 33.9 C -115.1 34.3 -127.8 35.8 -131 36.1 C -193.5 43 -229.2 53.8 -235.3 27.7 C -246.2 -19.6 -200 -83.2 -136.6 -90.9 L -135.5 -91 C -67.4 -98.9 3.3 -51.6 0 0 " fill="#701608"/>
<path transform="matrix(1,0,0,-1,757.9,743)" d="M 0 0 C -15.4 17.8 -37.7 29.4 -62.5 32.3 C -87 35.2 -110.7 29.3 -129.6 16 C -119 7.2 -106.9 -.3 -93.6 -5 C -86.4 -7.5 -78.7 -9.4 -70.8 -10.4 L -69.7 -10.5 C -52.8 -12.5 -35.8 -11 -19.7 -6.9 L -18.5 -6.6 C -12.1 -4.8 -6 -2.5 0 0 " fill="#dd6b5b"/>
<path transform="matrix(1,0,0,-1,786.7,637.6)" d="M 0 0 L .4 1.1 C .4 1.1 -69.3 10.4 -93.8 13.1 C -117.2 15.6 -169 20.9 -169 20.9 L -168.9 19.7 C -166.6 .2 -131.9 -18.3 -88.3 -23.4 C -44.7 -28.5 -6.8 -18.4 0 0 " fill="#ffffff"/>
<path transform="matrix(1,0,0,-1,983.3,657.4)" d="M 0 0 C -1 -15.6 -23.5 -26.7 -50.1 -25 C -76.8 -23.3 -97.6 -9.2 -96.5 6.3 C -95.5 21.9 -73 33 -46.4 31.3 C -19.7 29.6 1.1 15.6 0 0 " fill="#ff8a8a"/>
<path transform="matrix(1,0,0,-1,570.4,609.4)" d="M 0 0 C -2.3 -13.7 -20.7 -22 -41.2 -18.6 C -61.7 -15.2 -76.5 -1.4 -74.2 12.3 C -71.9 26 -53.5 34.3 -33 30.9 C -12.5 27.5 2.3 13.7 0 0 " fill="#ff8a8a"/>
<path transform="matrix(1,0,0,-1,1090.7,321.5)" d="M 0 0 C 29.8 -.1 60.3 .4 90.2 -3.2 C 92.7 28.3 91.4 56.3 83.3 74.4 C -22.1 195.8 -357.6 271.6 -529.2 205.3 C -630 166.4 -660.6 68.1 -661.5 11.6 C -622.4 29.5 -519 30.3 -433.7 25 C -418.6 42.7 -401.7 110 -401.7 110 C -401.7 110 -397.9 46.7 -411.3 23 C -373 18.1 -267.9 9 -220.9 1.4 C -205.3 20.3 -190.2 72.4 -190.2 72.4 C -190.2 72.4 -187.3 22.7 -196.4 -.9 C -185.7 -3.5 -155.8 -6.1 -142.6 -7.6 C -89.4 12.6 -84 83.6 -44 76.9 C -11.8 71.6 -.5 37.5 0 0 " fill="#ad5c49"/>
<path transform="matrix(1,0,0,-1,1163.3,305.59999)" d="M 0 0 C -21.5 124.3 -135.4 225.9 -307.3 254.2 C -441 276.2 -563.3 261.6 -646.5 163.3 C -548.8 234.1 -444.7 230.2 -324.9 209.3 C -221.3 191.2 -60.7 118.5 0 0 " fill="#f49000"/>
<path transform="matrix(1,0,0,-1,1137.1,232.80005)" d="M 0 0 C -21.1 -74.6 110.9 -185.3 236.9 -95.3 C 150.6 34.7 78.7 30.8 0 0 " fill="#ffa10b"/>
<g opacity=".279999">
<clipPath id="cp6">
<path transform="matrix(1,0,0,-1,0,2215.8)" d="M 1138.58 1924.23 L 1245.8 1924.23 L 1245.8 1986.86 L 1138.58 1986.86 Z "/>
</clipPath>
<g clip-path="url(#cp6)">
<path transform="matrix(1,0,0,-1,1140.9,236.30005)" d="M 0 0 C 5.1 16.8 71.8 5.4 104.9 -40.1 C 49.8 -72.3 -15.5 -50.6 0 0 " fill="#6c0b2a"/>
</g>
</g>
<path transform="matrix(1,0,0,-1,1149.3,216.5)" d="M 0 0 C -95.1 -27.5 -195.9 106.2 -24.4 216.5 C 10.9 92.4 42.2 53.3 0 0 " fill="#ffa10b"/>
<g opacity=".279999">
<clipPath id="cp7">
<path transform="matrix(1,0,0,-1,0,2215.8)" d="M 1084.78 2007.41 L 1134.39 2007.41 L 1134.39 2110.6 L 1084.78 2110.6 Z "/>
</clipPath>
<g clip-path="url(#cp7)">
<path transform="matrix(1,0,0,-1,1131.4,207)" d="M 0 0 C 14.8 23.9 -29.9 56 -34.5 101.8 C -54.1 77.9 -54.7 -13.7 0 0 " fill="#6c0b2a"/>
</g>
</g>
<path transform="matrix(1,0,0,-1,1099.9,243.19995)" d="M 0 0 C 10.1 -16.1 32.2 -21 49.5 -11 C 66.7 -.9 72.6 20.3 62.5 36.4 C 52.4 52.5 30.3 57.4 13 47.4 C -4.3 37.4 -10.1 16.2 0 0 " fill="#ffa10b"/>
<path transform="matrix(1,0,0,-1,1174.6,669.2999)" d="M 0 0 C -32.9 -59.6 -104.1 -80.2 -146.1 -64.1 C -178.8 -51.6 -171.1 6.2 -150.2 58.5 C -127.7 114.8 -88.9 142.1 -43.7 134.2 C 16.9 123.5 29.3 53 0 0 " fill="#ffc19f"/>
<path transform="matrix(1,0,0,-1,1117.6,653.6)" d="M 0 0 C -9.7 -27.5 -48.9 -45.5 -72.1 -31 C -79.9 -26.1 -42.1 62.6 -28.8 60.7 C 1.3 56.3 9.6 27.5 0 0 " fill="#e0956c"/>
<path transform="matrix(1,0,0,-1,1473.4,789.5)" d="M 0 0 C 3.2 -5.8 13.2 -7.9 28.9 -11.6 C 42.4 -14.8 62.9 -19 69.8 -26.9 C 77.2 -35.4 68.2 -42.8 52 -44.7 C 25.3 -47.8 -35.3 -52.5 -65.5 -52.7 C -117 -56.3 -165.9 -18.4 -167.8 30 C -170.6 102.6 -167.3 130.9 -167.4 175.6 C -167.4 186.6 -144.8 177 -139 163 C -126.6 133.2 -131.9 122.4 -124.3 107.7 C -116.9 93.3 -104.1 96.9 -91.5 106.2 C -43.6 168.5 -22.7 209.5 .6 205.2 C 19.3 198.6 -7.9 151.1 -41.1 99.1 C 13.5 138.1 60.4 164.8 68.4 149.1 C 77.8 130.5 31.4 96 -8 60.9 C 43.1 63.1 95.4 79.9 96.6 53.2 C 97.5 33.5 -8.9 16.5 0 0 " fill="#ffc19f"/>
<g opacity=".389999">
<clipPath id="cp8">
<path transform="matrix(1,0,0,-1,0,2215.8)" d="M 683.127 1038.5 L 858.138 1038.5 L 858.138 1193.24 L 683.127 1193.24 Z "/>
</clipPath>
<g clip-path="url(#cp8)">
<path transform="matrix(1,0,0,-1,683.3,1063.9)" d="M 0 0 C 2.7 28.6 23.7 42.9 49.1 41.2 C 67.1 40 81.6 22.3 88.1 4.7 C 96.8 21.3 113.5 36.9 131.6 35.7 C 157 34 175.8 17.1 174.8 -11.6 C 173.3 -53.3 80.3 -113.4 80.3 -113.4 C 80.3 -113.4 -4.5 -47.7 0 0 " fill="#ffffff"/>
</g>
</g>
<path transform="matrix(1,0,0,-1,80,447.90003)" d="M 0 0 C 3.4 -3.6 8.4 -3.1 11.8 .2 L 64.6 54.5 C 67.7 57.7 67.8 63 64.5 66.1 C 61 69.4 55.7 69.4 52.6 66.2 L -.2 11.9 C -3.3 8.6 -3.3 3.4 0 0 M 336.9 128.6 C 336.7 123.6 332.7 120.6 328.2 120.9 L 252.6 126.2 C 247.9 126.4 244.7 130.4 244.9 134.9 C 245.2 139.6 249 143.1 253.5 142.8 L 329.1 137.5 C 333.6 137.2 337.1 133.3 336.9 128.6 M 314 203 C 315.6 198.7 313.2 193.7 308.8 192.3 L 252.9 172.7 C 248.6 171.1 244 173.3 242.3 177.6 C 240.9 182 243.2 186.6 247.5 188.3 L 303.4 207.9 C 307.7 209.6 312.4 207 314 203 M 71 316.1 C 75.3 317.7 79.9 315.5 81.6 311.2 L 102.7 255.9 C 104.3 251.6 102.4 246.8 98.1 245.2 C 93.8 243.6 88.9 245.7 87.3 250 L 66.2 305.3 C 64.5 309.6 66.7 314.4 71 316.1 M -31.1 218.6 C -33.3 214.6 -31.4 209.5 -27.5 207.5 L 25.7 181.2 C 29.9 179.3 34.8 180.9 36.9 185.2 C 38.9 189.1 37.2 194.3 33 196.2 L -20.2 222.5 C -24 224.5 -29.2 222.8 -31.1 218.6 M .5 292.1 C -3.5 289.1 -3.6 283.9 -.8 280.3 L 46.9 221.5 C 49.7 217.9 55.1 217.4 58.6 220.5 C 62.2 223.3 62.8 228.5 60 232 L 12.1 290.7 C 9.3 294.2 4.4 294.9 .5 292.1 M -68.6 144.9 C -69.2 139.7 -65.3 136.3 -60.9 136 L 14.7 130.7 C 19.2 130.4 23 133.9 23.6 138.4 C 23.8 143.1 20.3 147 15.9 147.3 L -59.7 152.6 C -64.2 153 -68.1 149.7 -68.6 144.9 M 214.3 312.3 C 218.6 310.8 220.8 305.8 219 301.6 L 196.9 246.5 C 195 242.3 190.3 240.2 186.1 242.1 C 181.8 243.6 179.6 248.6 181.4 252.8 L 203.5 307.9 C 205.4 312.1 210.1 314.2 214.3 312.3 M 141.8 346 C 146.8 346.4 150.3 342.6 150.6 338.1 L 154.3 262.5 C 154.6 258 150.9 254 146.3 253.9 C 141.8 253.6 137.9 257 137.8 261.7 L 134.1 337.3 C 133.9 341.8 137.3 345.7 141.8 346 M 291.5 282.4 C 295.4 278.9 295 273.9 291.7 270.6 L 238.9 216.3 C 235.8 213.1 230.6 213.2 227.3 216.2 C 223.8 219.5 223.8 224.7 226.9 227.9 L 279.7 282.2 C 282.8 285.5 287.9 285.6 291.5 282.4 M -32.5 70.7 C -30.6 66.5 -25.7 64.3 -21.5 66.2 L 33.3 88.8 C 37.6 90.4 39.5 95.2 37.9 99.5 C 36 103.7 31.2 105.6 26.9 104 L -27.9 81.4 C -32.2 79.8 -34 74.7 -32.5 70.7 " fill="#ffc408"/>
<path transform="matrix(1,0,0,-1,290.5,271.59999)" d="M 0 0 C -15.9 41.6 -62.5 62.5 -104.2 46.6 C -145.9 30.7 -166.7 -15.9 -150.8 -57.6 C -140.5 -84.6 -117.1 -103 -90.5 -108 L -82.5 -129 L -4.8 -99.3 L -12.5 -79.2 C 4.8 -57.7 10.6 -27.8 0 0 M -14.7 -109.9 L -70.2 -131.1 C -72.3 -131.9 -73.3 -134.5 -72.5 -136.6 L -71.4 -139.6 C -70.5 -141.9 -68.1 -143 -66 -142.2 L -10.5 -121 C -8.2 -120.1 -7.1 -117.7 -8 -115.4 L -9.1 -112.4 C -9.9 -110.3 -12.4 -109 -14.7 -109.9 M -8.2 -127 L -63.7 -148.2 C -65.8 -149 -66.9 -151.5 -66 -153.7 L -64.9 -156.7 C -64.1 -158.8 -61.6 -160.1 -59.5 -159.3 L -4 -138.1 C -1.9 -137.3 -.7 -134.6 -1.5 -132.5 L -2.6 -129.5 C -3.4 -127.2 -6.1 -126.2 -8.2 -127 M -17 -149.6 L -44 -159.9 C -42.6 -163.6 -35.4 -164.3 -27.8 -161.4 C -20.4 -158.6 -15.5 -153.3 -17 -149.6 " fill="#ffc408"/>
<path transform="matrix(1,0,0,-1,240.8,325.90003)" d="M 0 0 C -2.7 -4 -8 -5 -12 -2.4 C -13.9 -1.1 -15.2 .8 -15.7 3.1 C -16.1 5.4 -15.7 7.7 -14.4 9.6 C -13.4 11.1 -12 12.2 -10.3 12.8 C -9.8 13 -9.4 13.1 -8.9 13.2 C -6.6 13.6 -4.3 13.2 -2.4 11.9 C -.5 10.6 .8 8.7 1.3 6.4 C 1.8 4.2 1.3 1.9 0 0 M -24.8 -7.5 C -27 -9.4 -29.9 -10.5 -33 -10.5 C -39.3 -10.4 -44.3 -5.6 -44.2 .1 C -44.1 4.3 -41.3 7.9 -37.2 9.4 C -35.8 9.9 -34.2 10.2 -32.6 10.2 C -26.3 10.1 -21.3 5.3 -21.4 -.4 C -21.4 -3.1 -22.6 -5.6 -24.8 -7.5 M 1.1 17.1 C -2.2 19.3 -6.1 20.1 -10 19.3 C -13.9 18.6 -17.2 16.3 -19.4 13.1 C -19.8 12.6 -20 12 -20.3 11.4 C -23.4 14.4 -27.7 16.3 -32.5 16.4 C -42.1 16.6 -50.1 9.3 -50.3 .3 C -50.5 -8.8 -42.8 -16.3 -33.1 -16.5 C -30.7 -16.5 -28.3 -16.1 -26.2 -15.3 C -24.2 -14.5 -22.4 -13.4 -20.8 -12 C -20 -11.3 -19.4 -10.6 -18.8 -9.8 L 1 -61.7 L 6.7 -59.5 L -12.7 -8.8 C -9.2 -10.1 -5.4 -10.1 -2.1 -8.9 C .6 -7.9 3.1 -6 4.9 -3.4 C 7.1 -.1 7.9 3.8 7.1 7.7 C 6.6 11.5 4.4 14.9 1.1 17.1 " fill="#ffffff"/>
</g>
</g>
</g>
</g>
</svg>
