<?xml version="1.0" encoding="UTF-8" standalone="no"?>
<!DOCTYPE svg PUBLIC "-//W3C//DTD SVG 1.1//EN" "http://www.w3.org/Graphics/SVG/1.1/DTD/svg11.dtd">
<svg xmlns="http://www.w3.org/2000/svg" xmlns:xlink="http://www.w3.org/1999/xlink" version="1.1" width="994.777pt" height="1544.72pt" viewBox="0 0 994.777 1544.72">
<g enable-background="new">
<g>
<g id="Layer-1" data-name="Layer 1">
<clipPath id="cp0">
<path transform="matrix(1,0,0,-1,0,1544.72)" d="M 0 1544.721 L 994.777 1544.721 L 994.777 0 L 0 0 Z "/>
</clipPath>
<g clip-path="url(#cp0)">
<path transform="matrix(1,0,0,-1,534.6796,1461.1682)" d="M 0 0 L 78.91 -10.394 C 80.662 7.778 83.601 62.898 85.811 84.309 L 3.303 91.447 C 2.262 58.158 -.141 11.562 0 0 " fill="#fab999"/>
<path transform="matrix(1,0,0,-1,848.2573,1461.1682)" d="M 0 0 L -78.91 -10.394 C -80.661 7.778 -83.601 62.898 -85.81 84.309 L -3.303 91.447 C -2.262 58.158 .141 11.562 0 0 " fill="#fab999"/>
<path transform="matrix(1,0,0,-1,757.7855,1490.1184)" d="M 0 0 C .102 -2.516 98.939 -6.454 99.18 -3.411 C 101.116 21.101 104.663 54.962 105.83 70.429 L .385 73.119 C 1.274 45.144 -.631 16.107 0 0 " fill="#f6f4b1"/>
<path transform="matrix(1,0,0,-1,885.5072,1461.5908)" d="M 0 0 C -1.459 5.518 -4.517 12.514 -6.876 18.909 C -8.625 23.655 -54.913 23.281 -55.133 11.911 C -55.191 9.002 -55.095 6.431 -54.875 4.1 C -62.794 4.088 -71.379 4.253 -80.447 4.658 C -100.155 5.541 -117.817 7.29 -130.2 9.366 C -131.153 -8.605 -129.841 -39.75 -130.733 -59.731 C -130.733 -59.731 75.409 -100.091 108.195 -70.414 C 117.434 -62.053 65.909 -24.13 0 0 " fill="#ef4d7f"/>
<path transform="matrix(1,0,0,-1,755.0582,1508.7905)" d="M 0 0 C -.041 -4.444 -.116 -8.73 -.284 -12.531 C -.284 -12.531 205.858 -52.892 238.644 -23.215 C 239.945 -22.037 240.02 -20.262 239.038 -18.029 C 181.968 -29.921 51.262 -9.065 0 0 " fill="#af2c59"/>
<path transform="matrix(1,0,0,-1,933.1441,1477.411)" d="M 0 0 C -11.373 2.073 -26.067 -3.049 -35.798 -12.392 C -36.95 -13.501 -36.988 -15.328 -35.879 -16.48 C -35.346 -17.033 -34.643 -17.332 -33.925 -17.363 C -33.163 -17.398 -32.39 -17.132 -31.794 -16.561 C -23.319 -8.42 -10.62 -3.81 -1.028 -5.684 C .591 -5.999 2.047 -4.922 2.331 -3.353 C 2.611 -1.784 1.569 -.278 0 0 M -17.413 2.452 C -15.846 2.145 -14.384 3.379 -14.19 4.963 C -13.996 6.546 -15.119 7.988 -16.703 8.182 C -29.333 9.774 -41.855 5.136 -51.074 -4.456 C -52.18 -5.605 -52.145 -7.435 -50.995 -8.544 C -50.468 -9.048 -49.797 -9.314 -49.119 -9.346 C -48.32 -9.381 -47.507 -9.083 -46.907 -8.46 C -36.029 2.855 -23.771 3.237 -17.413 2.452 M -33.227 9.888 C -31.657 9.563 -30.12 10.504 -29.764 12.059 C -29.408 13.614 -30.381 15.166 -31.936 15.525 C -43.908 18.229 -57.924 12.794 -66.028 2.229 C -67.001 .961 -66.763 -.851 -65.495 -1.821 C -65.009 -2.195 -64.438 -2.389 -63.868 -2.415 C -62.959 -2.455 -62.044 -2.067 -61.448 -1.286 C -54.667 7.545 -43.065 12.186 -33.227 9.888 " fill="#c7d2dd"/>
<path transform="matrix(1,0,0,-1,621.5262,1494.6201)" d="M 0 0 C -.235 -2.507 -95.12 -1.381 -95.384 1.659 C -97.48 25.632 -100.323 63.136 -101.861 76.055 L 3.573 73.035 C 1.173 45.147 1.503 16.049 0 0 " fill="#f6f4b1"/>
<path transform="matrix(1,0,0,-1,497.7045,1463.4113)" d="M 0 0 C 1.456 5.518 4.517 12.514 6.874 18.909 C 8.625 23.655 54.91 23.281 55.133 11.911 C 55.191 9.002 55.092 6.431 54.872 4.1 C 62.794 4.088 71.379 4.253 80.444 4.658 C 100.155 5.541 117.817 7.29 130.2 9.366 C 131.153 -8.605 129.841 -39.75 130.733 -59.731 C 130.733 -59.731 -75.412 -100.091 -108.196 -70.414 C -117.435 -62.053 -65.909 -24.13 0 0 " fill="#ef4d7f"/>
<path transform="matrix(1,0,0,-1,628.1535,1510.6109)" d="M 0 0 C .04 -4.444 .113 -8.73 .284 -12.531 C .284 -12.531 -205.861 -52.892 -238.645 -23.215 C -239.947 -22.037 -240.02 -20.262 -239.038 -18.029 C -181.969 -29.921 -51.262 -9.065 0 0 " fill="#af2c59"/>
<path transform="matrix(1,0,0,-1,447.7369,1482.5842)" d="M 0 0 C .281 -1.569 1.74 -2.646 3.359 -2.331 C 12.951 -.457 25.65 -5.067 34.124 -13.208 C 34.721 -13.779 35.494 -14.045 36.255 -14.01 C 36.971 -13.979 37.677 -13.68 38.21 -13.127 C 39.316 -11.975 39.281 -10.148 38.128 -9.039 C 28.397 .304 13.704 5.426 2.331 3.353 C .761 3.075 -.284 1.569 0 0 M 49.238 -5.107 C 49.837 -5.73 50.651 -6.028 51.45 -5.993 C 52.127 -5.961 52.799 -5.695 53.323 -5.191 C 54.475 -4.082 54.51 -2.252 53.404 -1.103 C 44.186 8.489 31.663 13.127 19.034 11.535 C 17.45 11.341 16.324 9.899 16.521 8.315 C 16.715 6.732 18.177 5.498 19.743 5.805 C 26.098 6.59 38.36 6.208 49.238 -5.107 M 63.775 2.067 C 64.375 1.286 65.29 .898 66.199 .938 C 66.769 .964 67.34 1.158 67.826 1.532 C 69.094 2.502 69.332 4.314 68.359 5.582 C 60.255 16.147 46.238 21.582 34.266 18.878 C 32.711 18.519 31.739 16.967 32.095 15.412 C 32.451 13.857 33.985 12.916 35.558 13.241 C 45.396 15.539 56.997 10.898 63.775 2.067 " fill="#c7d2dd"/>
<path transform="matrix(1,0,0,-1,860.0105,439.41334)" d="M 0 0 C 36.976 87.203 31.148 135.693 -1.567 322.306 L -343.04 335.091 C -387.315 188.972 -389.675 107.07 -388.809 53.432 C -386.46 78.943 -390.412 132.131 -351.401 259.632 C -388.422 98.161 -391.326 46.066 -362.437 17.289 C -380.036 53.052 -359.944 149.328 -354.695 161.353 C -356.188 126.48 -363.863 60.061 -348.606 8.636 C -279.931 -33.771 -87.465 -31.941 -31.354 -14.995 C -25.7 -2.127 -20.932 82.705 -19.083 99.686 C -15.775 76.442 -16.272 15.505 -21.21 -14.205 C 3.586 14.727 14.765 117.981 3.397 253.819 C 23.828 146.497 22.23 71.663 0 0 " fill="#a75e4e"/>
<path transform="matrix(1,0,0,-1,935.468,956.2812)" d="M 0 0 C 2.167 18.264 8.068 45.201 12.783 97.36 C 13.322 103.316 -7.335 115.354 -6.783 109.308 C -3.384 72.096 -24.336 -3.903 0 0 " fill="#dc916d"/>
<path transform="matrix(1,0,0,-1,955.8857,970.88418)" d="M 0 0 C 2.167 18.264 15.14 60.962 7.427 110.456 C 6.475 116.561 -14.67 125.603 -13.886 119.579 C -8.246 76.166 -24.883 .59 0 0 " fill="#dc916d"/>
<path transform="matrix(1,0,0,-1,984.443,974.7522)" d="M 0 0 C 2.166 18.264 .283 119.619 -7.432 169.113 C -8.383 175.218 -50.735 172.785 -55.372 164.267 C -79.153 149.203 -68.809 113.726 -94.73 74.399 C -99.208 67.607 -87.812 65.588 -84.439 66.554 C -75.742 69.047 -72.988 75.661 -54.355 89.27 C -42.999 97.563 -32.394 89.469 -28.308 80.571 C -12.792 39.061 -21.427 -3.284 0 0 " fill="#fab999"/>
<path transform="matrix(1,0,0,-1,849.2162,813.3562)" d="M 0 0 L -311.724 6.503 C -314.055 -161.316 -321.388 -410.735 -324.362 -575.505 L -219.488 -575.505 C -207.931 -446.983 -190.412 -239.141 -176.367 -141.941 C -173.334 -120.953 -131.867 -115.663 -130.281 -142.958 C -124.032 -250.506 -106.265 -446.218 -96.289 -570.235 L 9.141 -565.597 C 8.808 -426.991 3.39 -184.302 0 0 " fill="#1c4d68"/>
<path transform="matrix(1,0,0,-1,64.7866,522.8957)" d="M 0 0 C 16.923 7.203 41.123 20.424 89.865 39.581 C 95.431 41.768 112.78 25.317 106.822 24.152 C 70.151 16.975 3.081 -24.454 0 0 " fill="#dc916d"/>
<path transform="matrix(1,0,0,-1,45.0426,507.39405)" d="M 0 0 C 16.923 7.203 54.268 31.633 103.938 38.113 C 110.065 38.912 124.676 21.152 118.673 20.214 C 75.421 13.451 7.546 -23.719 0 0 " fill="#dc916d"/>
<path transform="matrix(1,0,0,-1,33.3192,481.06837)" d="M 0 0 C 16.923 7.203 114.737 33.826 164.408 40.305 C 170.535 41.104 180.08 -.23 173.204 -7.07 C 165.415 -34.122 128.462 -34.145 97.985 -70.057 C 92.721 -76.26 87.587 -65.889 87.568 -62.38 C 87.521 -53.333 93.098 -48.834 100.933 -27.131 C 105.708 -13.906 94.964 -5.996 85.276 -4.571 C 41.081 -1.322 2.858 -21.488 0 0 " fill="#fab999"/>
<path transform="matrix(1,0,0,-1,534.052,492.53858)" d="M 0 0 C -86.857 14.829 -286.763 5.202 -338.747 -12.514 C -344.105 -14.339 -357.277 47.458 -351.756 48.783 C -331.2 53.712 -126.238 87.605 2.48 77.799 C 3.195 67.969 -4.604 7.059 0 0 " fill="#fab999"/>
<path transform="matrix(1,0,0,-1,455.8118,394.7445)" d="M 0 0 C 27.863 -3.403 35.002 -3.532 92.474 -4.426 C 98.807 -4.525 125.798 -3.815 132.424 -3.795 C 155.259 -3.729 146.987 -71.526 144.549 -116.466 C 117.544 -137.715 12.02 -138.825 -20.821 -137.625 C -33.755 -85.286 -18.277 -11.263 0 0 " fill="#f0517b"/>
<path transform="matrix(1,0,0,-1,832.8979,501.3131)" d="M 0 0 C 38.598 -79.21 85.433 -273.79 83.01 -328.657 C 82.762 -334.312 145.773 -329.62 145.496 -323.949 C 144.46 -302.836 119.499 -96.596 73.98 24.204 C 64.344 22.133 8.067 -2.439 0 0 " fill="#fab999"/>
<path transform="matrix(1,0,0,-1,938.601,515.5785)" d="M 0 0 C -14.206 21.582 -21.166 30.399 -56.257 83.076 C -66.724 98.791 -80.669 133.534 -145.924 114.737 C -160.574 83.654 -137.983 -19.43 -129.447 -51.164 C -75.54 -52.027 -6.876 -20.337 0 0 " fill="#f0517b"/>
<path transform="matrix(1,0,0,-1,859.3181,828.76577)" d="M 0 0 C -11.647 86.143 -33.799 142.566 -37.251 206.037 C -30.439 260.585 -18.34 271.329 -20.477 300.918 C -22.134 323.874 -28.768 351.644 -44.302 428.72 C -65.226 434.131 -111.824 434.388 -163.383 434.347 C -214.945 434.306 -263.346 432.579 -284.263 427.134 C -299.67 350.031 -304.454 323.646 -306.074 300.686 C -308.163 271.094 -290.199 260.377 -283.3 205.837 C -286.651 142.361 -315.789 79.049 -330.739 -2.278 C -243.427 -46.86 -88.403 -40.294 0 0 " fill="#f0517b"/>
<path transform="matrix(1,0,0,-1,764.5031,394.2196)" d="M 0 0 C -42.865 2.523 -89.017 2.458 -134.083 -1.179 C -135.773 -5.828 -136.967 -10.621 -136.971 -15.647 C -137.009 -45.193 -105.899 -68.456 -67.487 -67.605 C -29.07 -66.752 2.1 -42.108 2.134 -12.56 C 2.142 -8.196 1.275 -4.032 0 0 " fill="#fab999"/>
<path transform="matrix(1,0,0,-1,749.0735,345.97315)" d="M 0 0 L .77 -82.347 C .936 -100.052 -21.926 -114.625 -50.294 -114.891 C -78.661 -115.157 -101.791 -101.014 -101.957 -83.307 L -102.729 -.963 Z " fill="#fab999"/>
<path transform="matrix(1,0,0,-1,637.2623,1397.6334)" d="M 0 0 L -120.687 5.985 L -118.653 47.009 L 2.034 41.025 Z " fill="#306784"/>
<path transform="matrix(1,0,0,-1,745.6765,1397.6334)" d="M 0 0 L 120.685 5.985 L 118.652 47.009 L -2.035 41.025 Z " fill="#306784"/>
<g opacity=".110001">
<clipPath id="cp1">
<path transform="matrix(1,0,0,-1,0,1544.72)" d="M 640.701 902.025 L 754.429 902.025 L 754.429 934.067 L 640.701 934.067 Z "/>
</clipPath>
<g clip-path="url(#cp1)">
<path transform="matrix(1,0,0,-1,754.4025,638.6127)" d="M 0 0 C .9 -11.476 -21.569 4.764 -56.37 5.965 C -84.836 6.947 -115.893 -9.731 -113.579 4.816 C -112.405 12.196 -84.535 28.679 -56.341 27.935 C -23.357 27.064 -.921 11.77 0 0 " fill="#1d000b"/>
</g>
</g>
<g opacity=".160004">
<clipPath id="cp2">
<path transform="matrix(1,0,0,-1,0,1544.72)" d="M 639.883 1149.11 L 778.721 1149.11 L 778.721 1248.39 L 639.883 1248.39 Z "/>
</clipPath>
<g clip-path="url(#cp2)">
<path transform="matrix(1,0,0,-1,640.5579,332.13819)" d="M 0 0 C -5.297 -26.321 21.186 -53.853 59.152 -61.494 C 97.12 -69.135 132.192 -53.992 137.488 -27.67 C 142.785 -1.349 116.303 26.184 78.336 33.824 C 40.37 41.465 5.297 26.321 0 0 "/>
</g>
</g>
<path transform="matrix(1,0,0,-1,854.9175,255.54065)" d="M 0 0 C -7.337 -32.477 -36.901 -53.027 -59.52 -50 C -82.139 -46.973 -87.03 -20.394 -83.723 10.872 C -80.406 42.139 -59.376 65.11 -36.763 62.004 C -5.859 57.756 6.896 30.524 0 0 " fill="#f5ac88"/>
<path transform="matrix(1,0,0,-1,511.0525,135.4707)" d="M 0 0 C -19.312 -122.206 83.385 -189.562 182.477 -187.628 C 281.568 -185.693 352.024 -98.464 339.643 21.11 C 332.769 87.503 281.329 130.639 180.201 135.231 C 104.859 138.653 16.788 106.224 0 0 " fill="#a75e4e"/>
<path transform="matrix(1,0,0,-1,556.9036,103.33508)" d="M 0 0 C -8.629 -20.157 8.501 -197.384 29.343 -221.548 C 51.447 -247.182 143.134 -267.113 161.574 -266.754 C 181.324 -266.369 246.448 -241.179 262.589 -212.217 C 281.687 -177.942 285.824 -25.848 279.154 -7.309 C 256.614 55.301 201.741 56.354 130.027 54.955 C 62.935 53.644 22.382 52.301 0 0 " fill="#fab998"/>
<path transform="matrix(1,0,0,-1,507.5082,269.47486)" d="M 0 0 C 9.75 -33.975 43.541 -54.613 68.455 -50.644 C 93.369 -46.672 87.835 54.855 42.54 62.57 C 4.819 68.993 -9.164 31.931 0 0 " fill="#fab998"/>
<path transform="matrix(1,0,0,-1,535.2387,267.3689)" d="M 0 0 C 2.295 -14.397 18.782 -26.214 30.908 -21.941 C 35.635 -20.276 26.438 29.908 18.837 29.735 C 5.983 29.443 -2.294 14.397 0 0 " fill="#dc916d"/>
<path transform="matrix(1,0,0,-1,597.6282,278.36183)" d="M 0 0 C -.134 -7.196 9.758 -13.211 22.096 -13.438 C 34.427 -13.666 44.535 -8.017 44.669 -.823 C 44.801 6.373 34.905 12.389 22.575 12.617 C 10.238 12.844 .132 7.194 0 0 " fill="#f59293"/>
<path transform="matrix(1,0,0,-1,660.1306,283.3744)" d="M 0 0 C 1.953 12.254 23.916 9.872 52.96 10.677 C 54.48 10.719 60.391 10.841 61.913 10.861 C 90.966 11.255 107.916 14.679 109.562 2.384 C 112.538 -19.839 88.475 -47.067 58.975 -47.769 L 58.464 -47.781 C 26.732 -48.462 -3.759 -23.603 0 0 " fill="#6a0d0d"/>
<path transform="matrix(1,0,0,-1,686.9338,323.4911)" d="M 0 0 C 7.857 7.493 18.653 11.863 30.199 12.102 C 41.592 12.338 52.278 8.601 60.391 1.645 C 55.148 -1.938 49.24 -4.836 42.888 -6.409 C 39.448 -7.26 35.818 -7.774 32.173 -7.864 L 31.662 -7.873 C 23.799 -8.044 16.018 -6.612 8.81 -4.024 L 8.257 -3.808 C 5.379 -2.745 2.656 -1.409 0 0 " fill="#dc6f60"/>
<path transform="matrix(1,0,0,-1,678.257,273.75697)" d="M 0 0 L -.135 .537 C -.135 .537 32.342 1.733 43.769 1.875 C 54.667 2.013 78.737 2.165 78.737 2.165 L 78.626 1.621 C 76.704 -7.234 59.95 -14.219 39.65 -14.637 C 19.369 -15.056 2.325 -8.767 0 0 " fill="#ffffff"/>
<path transform="matrix(1,0,0,-1,789.4595,273.18739)" d="M 0 0 C .514 -6.377 8.685 -10.922 18.247 -10.15 C 27.807 -9.377 35.144 -3.581 34.628 2.799 C 34.112 9.176 25.942 13.721 16.382 12.949 C 6.818 12.177 -.516 6.378 0 0 " fill="#f59293"/>
<path transform="matrix(1,0,0,-1,703.5276,261.0724)" d="M 0 0 C .791 .016 1.476 .599 1.595 1.406 C 2.43 7.145 6.881 10.929 12.93 11.047 C 19.013 11.167 23.712 7.487 24.625 1.892 C 24.773 .998 25.624 .387 26.515 .535 C 27.412 .681 28.019 1.527 27.874 2.425 C 26.706 9.59 20.532 14.489 12.864 14.338 C 5.24 14.19 -.597 9.185 -1.664 1.883 C -1.794 .983 -1.171 .149 -.273 .015 Z " fill="#be725e"/>
<path transform="matrix(1,0,0,-1,533.694,143.02259)" d="M 0 0 C -11.936 2.782 10.257 89.064 69.232 115.17 C 165.795 150.309 233.338 133.297 257.909 117.393 C 293.658 94.25 324.093 60.519 331.975 -2.582 C 336.677 -40.212 333.324 -52.522 352.539 -61.334 C 331.646 -67.085 331.035 -62.946 325.071 -52.782 C 322.643 -83.276 323.434 -97.99 335.594 -107.17 C 309.84 -113.629 304.809 -99.03 303.074 -74.71 C 300.173 -34.055 298.576 10.808 294.632 21.17 C 292.348 27.164 271.03 62.009 262.067 62.416 C 242.534 63.302 220.043 -4.94 150.876 -2.714 C 179.03 12.02 194.589 33.26 210.422 63.639 C 204.946 60.458 199.447 56.58 193.982 51.843 C 136.443 1.96 83.88 -9.938 35.148 -4.91 C 42.257 -56.914 48.416 -122.879 -6.686 -124.383 C -.985 -117.483 13.64 -82.7 -.759 -55.454 C -7.428 -59.469 -1.698 -34.146 0 0 " fill="#a75e4e"/>
<path transform="matrix(1,0,0,-1,590.6671,161.89124)" d="M 0 0 C 1.106 .104 2.174 .601 2.983 1.476 C 13.319 12.622 34.488 17.45 52.268 12.673 C 54.734 11.998 57.301 13.472 57.979 15.969 C 58.648 18.451 57.176 21.009 54.684 21.68 C 33.474 27.366 8.843 21.534 -3.858 7.805 C -5.607 5.915 -5.494 2.967 -3.603 1.219 C -2.593 .278 -1.274 -.12 0 0 " fill="#6f2715"/>
<path transform="matrix(1,0,0,-1,822.2009,155.32959)" d="M 0 0 C 1.235 -.013 2.467 .477 3.359 1.463 C 5.033 3.293 4.903 6.132 3.072 7.806 C -10.246 19.955 -34.356 23.551 -54.252 16.38 C -56.588 15.531 -57.794 12.958 -56.952 10.629 C -56.105 8.286 -53.526 7.081 -51.201 7.927 C -34.528 13.963 -13.797 11.06 -2.982 1.175 C -2.136 .4 -1.071 .011 0 0 " fill="#6f2715"/>
<path transform="matrix(1,0,0,-1,752.8957,250.68982)" d="M 0 0 C 0 0 42.438 -14.991 57.71 11.612 C 76.32 44.033 45.774 68.637 26.557 63.276 C 8.774 58.313 -6.979 39.528 0 0 " fill="#f7fcfe"/>
<path transform="matrix(1,0,0,-1,812.6314,198.17932)" d="M 0 0 C -8.103 11.446 -18.666 14.871 -29.977 13.273 C -41.538 11.641 -53.018 1.613 -56.058 -8.536 C -50.135 2.952 -39.495 7.342 -32.847 9.196 C -22.262 12.163 -8.124 6.788 -1.518 -4.51 C 4.357 -14.564 4.306 -29.84 -2.526 -41.738 C 5.704 -33.571 8.444 -11.928 0 0 " fill="#703123"/>
<path transform="matrix(1,0,0,-1,763.0235,215.91028)" d="M 0 0 C -3.536 -11.582 1.551 -24.508 11.362 -28.87 C 21.173 -33.232 31.995 -27.38 35.531 -15.798 C 39.069 -4.216 33.982 8.709 24.171 13.072 C 14.36 17.434 3.538 11.58 0 0 " fill="#5c100d"/>
<path transform="matrix(1,0,0,-1,764.452,212.31519)" d="M 0 0 C -.981 -3.213 .431 -6.799 3.153 -8.009 C 5.876 -9.219 8.878 -7.597 9.859 -4.384 C 10.84 -1.169 9.43 2.417 6.707 3.627 C 3.984 4.837 .981 3.213 0 0 " fill="#fffffe"/>
<path transform="matrix(1,0,0,-1,677.7894,252.78565)" d="M 0 0 C 0 0 -49.455 -17.171 -69.108 8.607 C -93.056 40.018 -58.256 66.174 -35.157 61.815 C -13.782 57.783 5.988 39.837 0 0 " fill="#f7fcfe"/>
<path transform="matrix(1,0,0,-1,603.9105,203.44092)" d="M 0 0 C 8.946 11.85 21.275 15.819 34.779 14.81 C 48.586 13.778 62.778 4.359 66.973 -5.618 C 59.284 5.547 46.411 9.381 38.421 10.885 C 25.695 13.302 9.241 7.2 2.061 -4.425 C -4.324 -14.771 -3.378 -30.023 5.412 -41.55 C -4.821 -33.821 -9.322 -12.351 0 0 " fill="#703123"/>
<path transform="matrix(1,0,0,-1,616.4247,218.1731)" d="M 0 0 C -4.288 -11.612 1.65 -24.501 13.262 -28.789 C 24.874 -33.077 37.765 -27.139 42.053 -15.527 C 46.341 -3.915 40.403 8.976 28.789 13.264 C 17.177 17.552 4.288 11.612 0 0 " fill="#5c100d"/>
<path transform="matrix(1,0,0,-1,618.1478,214.5636)" d="M 0 0 C -1.189 -3.223 .458 -6.798 3.679 -7.989 C 6.902 -9.178 10.477 -7.53 11.668 -4.308 C 12.857 -1.087 11.21 2.49 7.987 3.679 C 4.766 4.868 1.189 3.221 0 0 " fill="#fffffe"/>
<path transform="matrix(1,0,0,-1,530.5242,164.6278)" d="M 0 0 C 10.605 88.927 61.386 144.7 155.532 154.683 C 229.871 162.565 286.512 130.923 301.65 104.052 C 280.804 119.57 242.517 143.231 160.079 137.777 C 106.752 134.249 24.477 100.986 0 0 " fill="#f79224"/>
<path transform="matrix(1,0,0,-1,838.2856,849.3202)" d="M 0 0 C -25.532 -30.891 -251.234 -31.912 -289.532 4.001 C -289.532 4.001 -251.801 86.1 -250.049 183.066 C -248.971 242.766 -255.761 292.64 -254.138 340.814 C -202.758 341.962 -66.118 341.18 -20.915 337.288 C -19.505 292.98 -32.896 231.652 -36.255 159.117 C -38.584 108.835 -2.533 74.002 0 0 " fill="#1c4d68"/>
<path transform="matrix(1,0,0,-1,599.0145,522.4833)" d="M 0 0 L 10.675 -.148 L 11.025 25.064 C 11.041 26.371 12.146 27.446 13.453 27.427 L 20.52 27.331 L 20.679 39.031 L -10.755 39.468 L -10.918 27.764 L -2.017 27.64 C -.707 27.624 .365 26.519 .349 25.211 Z M 13.006 -4.972 L -2.464 -4.759 C -3.772 -4.74 -4.847 -3.637 -4.827 -2.33 L -4.479 22.881 L -13.38 23.005 C -14.687 23.024 -15.762 24.127 -15.743 25.434 L -15.514 41.932 C -15.498 43.239 -14.393 44.311 -13.085 44.295 L 23.144 43.793 C 24.451 43.774 25.526 42.668 25.507 41.362 L 25.278 24.866 C 25.262 23.559 24.157 22.484 22.85 22.503 L 15.783 22.602 L 15.435 -2.609 C 15.415 -3.916 14.313 -4.991 13.006 -4.972 " fill="#addfe9"/>
<path transform="matrix(1,0,0,-1,593.9263,525.43008)" d="M 0 0 C .888 -6.083 6.532 -10.299 12.609 -9.417 C 18.683 -8.531 22.887 -2.88 21.999 3.203 C 21.111 9.289 15.467 13.505 9.393 12.619 C 3.316 11.734 -.888 6.086 0 0 " fill="#e9f6fb"/>
<path transform="matrix(1,0,0,-1,791.8602,524.6427)" d="M 0 0 L 10.675 -.148 L 11.025 25.064 C 11.044 26.371 12.149 27.446 13.456 27.427 L 20.523 27.331 L 20.683 39.034 L -10.752 39.467 L -10.915 27.764 L -2.014 27.643 C -.707 27.624 .368 26.518 .349 25.211 Z M 13.006 -4.972 L -2.461 -4.759 C -3.768 -4.74 -4.844 -3.637 -4.825 -2.33 L -4.475 22.881 L -13.377 23.005 C -14.683 23.024 -15.759 24.127 -15.743 25.434 L -15.514 41.932 C -15.495 43.239 -14.389 44.311 -13.082 44.295 L 23.147 43.793 C 24.454 43.774 25.527 42.672 25.51 41.364 L 25.282 24.866 C 25.262 23.559 24.16 22.484 22.85 22.503 L 15.787 22.602 L 15.437 -2.609 C 15.418 -3.916 14.313 -4.991 13.006 -4.972 " fill="#addfe9"/>
<path transform="matrix(1,0,0,-1,783.1095,487.48866)" d="M 0 0 C -.167 2.674 .432 59.49 -4.948 91.813 L 22.85 92.083 C 30.67 53.249 27.946 2.446 28.123 -.387 Z " fill="#1c4d68"/>
<path transform="matrix(1,0,0,-1,590.0716,485.8258)" d="M 0 0 C -.161 2.947 .472 61.584 -1.835 87.286 L 24.813 89.286 C 28.52 55.131 27.951 2.749 28.124 -.374 Z " fill="#1c4d68"/>
<path transform="matrix(1,0,0,-1,786.7752,527.5898)" d="M 0 0 C .888 -6.083 6.532 -10.299 12.606 -9.413 C 18.683 -8.531 22.886 -2.88 21.999 3.206 C 21.111 9.289 15.467 13.505 9.393 12.62 C 3.316 11.734 -.888 6.086 0 0 " fill="#e9f6fb"/>
<g opacity=".210007">
<clipPath id="cp3">
<path transform="matrix(1,0,0,-1,0,1544.72)" d="M 644.717 884.137 L 751.472 884.137 L 751.472 985.694 L 644.717 985.694 Z "/>
</clipPath>
<g clip-path="url(#cp3)">
<path transform="matrix(1,0,0,-1,644.7169,645.55557)" d="M 0 0 L 53.283 -15.027 L 105.776 .614 L 106.755 79.489 L 3.447 86.529 Z "/>
</g>
</g>
<path transform="matrix(1,0,0,-1,649.1893,640.375)" d="M 0 0 L 49.405 -15.54 L 99.646 -.817 L 100.969 73.417 L 3.018 76.131 Z " fill="#306784"/>
</g>
</g>
</g>
</g>
</svg>
