<?xml version="1.0" encoding="utf-8"?>
<!-- Generator: Adobe Illustrator 26.3.1, SVG Export Plug-In . SVG Version: 6.00 Build 0)  -->
<svg version="1.1" id="background" xmlns="http://www.w3.org/2000/svg" xmlns:xlink="http://www.w3.org/1999/xlink" x="0px" y="0px"
	 viewBox="0 0 1570 2215.8" style="enable-background:new 0 0 1570 2215.8;" xml:space="preserve">
<style type="text/css">
	.st0{fill:#AD5C49;}
	.st1{fill:#FFC19F;}
	.st2{fill:#ED3B61;}
	.st3{fill:#F29D77;}
	.st4{opacity:0.12;}
	.st5{fill:#68295F;}
	.st6{opacity:0.5;fill:#150028;}
	.st7{opacity:0.35;}
	.st8{opacity:0.19;fill:#960C0C;}
	.st9{fill:#ED457D;}
	.st10{fill:#FFF8B3;}
	.st11{fill:#F93D77;}
	.st12{fill:#B52652;}
	.st13{fill:#F7A981;}
	.st14{fill:#FBC1A0;}
	.st15{fill:#F9FDFF;}
	.st16{fill:#843923;}
	.st17{fill:#461D14;}
	.st18{fill:#FEFFFE;}
	.st19{fill:#5D1F12;}
	.st20{fill:#C4735B;}
	.st21{fill:#701608;}
	.st22{fill:#DD6B5B;}
	.st23{fill:#FFFFFF;}
	.st24{fill:#FF8A8A;}
	.st25{fill:#F49000;}
	.st26{fill:#FFA10B;}
	.st27{opacity:0.28;fill:#6C0B2A;}
	.st28{fill:#E0956C;}
	.st29{opacity:0.39;fill:#FFFFFF;}
	.st30{fill:#FFC408;}
</style>
<g>
	<g id="DONE_00000100365733741782334380000016802774899058046345_">
		<path class="st0" d="M334.4,531.2c20.5-54.5,48.1-57.5,78.2-114.8c18.3-34.9,20.7-112.4,107.4-246.8c81-5.7,493.2,38.1,700.5,84.4
			c88.3,163.3,5.7,230.2,70.4,342.2c55,95.4-7,197.5-68.9,235.2c-8.5,5.2,24-25.7,6-85.2c-12,54-32.2,99.3-54.8,107.2
			c-132.6,46.5-326,49.8-440.8,35.1c-140.7-18-210.1-55.3-261.5-89.3c-12.4-8.2-16.9-59.8-19.9-98.9c-6.6,4.7-14.9,49.8-6.3,87
			C384.2,771.5,291.4,645.3,334.4,531.2z"/>
		<g>
			<path class="st1" d="M302.7,1289.1c-6.1,3.4-49.4-75.8-43.7-79.8c95.1-66.9,250-178.5,277.4-198.1c25.9,60.9,30.9,91.7,7.7,134.8
				C527.1,1177.6,398.9,1235.5,302.7,1289.1z"/>
			<path class="st2" d="M432.2,1053.3c35.2,32.8,103.6,89.1,145.5,107.1c23.6-129.7,19.9-279.2,20.9-285.9c-4.1,0-14.1,2.7-19,5.6
				C546.2,908.1,498.1,982.7,432.2,1053.3z"/>
			<g>
				<path class="st1" d="M183.2,1209.4c-12.7,6.8-29.9,24.6-50.1,48c-3.6,4.1-11.6,25.4-17.5,43.4c-2.8,8.3-8.3,22.6-3.4,23.6
					c4.8,0.9,15-0.6,18.9-11.5c2,16.7,2.7,34.6,6.8,34.9c12.7,0.8,18.2-10.3,19.2-25.1c2,12.9,4.7,29.5,12.7,30.4
					c10.3,1.1,12.3-5.4,13.3-16.5c23.9,7.3,43.2-56.4,84.6-53.2c19.6,1.5-9,23.2,13.3,38.2c23.3-16.3,34.6-31.6,31.6-85.3
					c-1.8-32.4,8-53.3-3-52.3C285.5,1186.1,198.7,1201.2,183.2,1209.4z"/>
				<path class="st3" d="M181.3,1335.2c-0.1,0-0.3,0-0.4,0c-0.7-0.2-1.1-0.9-0.9-1.6c4.4-14.5,12.5-38.8,15.3-42.2
					c5-6,19-18.3,32.6-28.7c0.6-0.4,1.4-0.3,1.8,0.2c0.4,0.6,0.3,1.4-0.3,1.8c-13.5,10.3-27.3,22.4-32.1,28.3
					c-2.2,2.6-9.4,23.5-14.8,41.3C182.4,1334.8,181.9,1335.2,181.3,1335.2z"/>
				<path class="st3" d="M171.6,1278.6c-2.9,3.5-13.6,34.6-16,42.1c-0.2,0.7,0.2,1.5,0.9,1.7l0.6,0.2c0.5-0.1,0.9-0.6,1.1-1.1
					c3-10.1,13.2-38.4,15.5-41.2c4.8-5.8,17.4-18.6,29.3-29.4c0.5-0.5,0.6-1.4,0.1-1.9c-0.5-0.6-1.3-0.6-2-0.1
					C189.2,1259.8,176.5,1272.8,171.6,1278.6z M129.4,1314.2c-0.2,0.7,2.4,1.4,2.6,0.9c6.8-18.3,15.6-41.2,19.3-45.6
					c11.3-13.1,21.3-23.3,29.6-30.4c0.5-0.5,0.6-1.4,0.1-1.9c-0.4-0.6-1.3-0.7-1.9-0.2c-8.4,7.2-18.5,17.5-29.9,30.7
					C144.1,1273.8,132,1307.5,129.4,1314.2z"/>
			</g>
		</g>
		<path class="st1" d="M1305.9,1491.2c12.1-5.4,62.7,106.8,50.6,112.3c-108.1,49-250.5,139.5-307.9,158.2
			c-24.3,7.9-77.4-2.6-94.9-36.9c-13.5-26.4-35.9-73.4-35.9-73.4C1004.3,1620.2,1215.9,1530.8,1305.9,1491.2z"/>
		<path class="st4" d="M446.7,2181.6c0,18.9,240.1,34.2,536.2,34.2s536.2-15.3,536.2-34.2c0-18.9-240.1-34.2-536.2-34.2
			S446.7,2162.7,446.7,2181.6z"/>
		<path class="st1" d="M649.2,2034.3c-9.3-74.7-28.1-248-42.6-342.2l156.9-2.6c3.8,101,8.7,283.4,9.9,349.9L649.2,2034.3z"/>
		<g>
			<path class="st5" d="M462.5,1625.6c6.8,6.5,58.1,30.6,62.3,32.9c-0.9,2.3-2.6,13.8-4.4,18.9c67,34.6,169.9,45.4,263.2,38.8
				c138.5-9.8,201.9-36.9,302.7-99.9c-1.2-2.3-7.5-16.4-7.9-17.8c2.5-0.9,47.2-29,53.3-33.7c0,0-123.7-202.6-140.8-228.8
				c-114,28-336.2,44.2-428.9,25.5C543.1,1415.1,480.9,1581.4,462.5,1625.6z"/>
			<polygon class="st6" points="502.7,1647.7 524.8,1658.5 560.1,1506.6 			"/>
			<polygon class="st6" points="1078.4,1599.4 1095.7,1588.2 1025.9,1472.4 			"/>
			<path class="st7" d="M991,1336.1c-114,28-327,19.3-419.7,0.6c-8.4,20.8-29.7,81.8-34.2,93.5c124.1,48.7,314,27.6,502.3-13.4
				C1027.9,1398.8,994.7,1341.9,991,1336.1z"/>
		</g>
		<path class="st1" d="M1395.2,820.4c10.9-7.9-40.4-93.9-50.6-87.9c-129.2,75.6-204.8,109.1-389.1,134.3
			c16.4,39,26.1,97.6,42.8,136.4C1179.1,949.6,1276.8,906.9,1395.2,820.4z"/>
		<path class="st2" d="M1136.4,824.1c13.2,39.1,31,127.3,42,168.6c-86.4,29.1-158,48.3-164.5,46.7c-67.3-16.9-106.6-163.1-110.9-171
			C950.2,864.8,1051.4,850,1136.4,824.1z"/>
		<path class="st2" d="M1039,1402.2c-159.9,46.1-371.4,57.1-511.5-7.3c0,0,42.3-417.2,66.1-518.8c49.9-8.3,139.3-15.2,226.5-15
			c75.1,0.2,136.4,5.2,192.6,1.6C1015.6,1022.7,1018.1,1213.5,1039,1402.2z"/>
		<path class="st1" d="M901.8,863.6c-31-0.8-64-1.9-100.5-1.9c-46.8,0-90.1,2.5-128.9,5.5c1.2,56.5,53.5,101.3,116.9,100
			C852.3,965.9,902.3,919.6,901.8,863.6z"/>
		<path class="st1" d="M698.9,747.1l-1.6,141.1c-0.3,30.3,37.9,55.4,85.5,55.9c47.6,0.5,86.4-23.6,86.7-54l1.6-141.1L698.9,747.1z"
			/>
		<path class="st8" d="M637,815.8c14.7,54.1,85.9,81.8,159,61.8c73.1-19.9,120.4-79.9,105.7-133.9c-14.7-54.1-85.9-81.8-159-61.9
			C669.6,701.8,622.3,761.8,637,815.8z"/>
		<g>
			<path class="st9" d="M1173.8,1545.8c4.1,6.6,12.8,8.7,19.5,4.6l-9-15c-2.7,1.3-6.7,3.2-11.3,5.3
				C1173.3,1542.5,1172.8,1544.3,1173.8,1545.8z M1232.5,1642c4.1,6.6,12.7,8.7,19.4,4.7l-14.7-24.1
				C1230.6,1626.7,1228.4,1635.4,1232.5,1642z M1247.2,1666c2,3.3,5.2,5.5,8.7,6.3l8.1-5.8l-12.1-19.9
				C1245.2,1650.7,1243.1,1659.4,1247.2,1666z M1217.8,1618c4.1,6.6,12.8,8.7,19.4,4.6l-14.7-24.1
				C1215.9,1602.6,1213.8,1611.3,1217.8,1618z M1203.1,1593.9c4.1,6.6,12.8,8.7,19.4,4.6l-14.7-24.1
				C1201.3,1578.6,1199.1,1587.3,1203.1,1593.9z M1188.5,1569.9c4.1,6.6,12.8,8.7,19.5,4.6l-14.7-24.1
				C1186.6,1554.5,1184.4,1563.2,1188.5,1569.9z"/>
			<path class="st10" d="M1317.7,1470.3c3.8-1.7,68.4,114.1,64.5,117.2c-32.7,25.7-105.3,70.4-118.3,79.1l-79.7-131.1
				C1223.3,1516.7,1293.7,1481.2,1317.7,1470.3z"/>
			<path class="st10" d="M1306.9,1611.5c-9.3,3.6-45.7-81.7-57.3-94c18.6-12.8,41.9-43.6,67.9-60c18.1-11.4,40.9-5.1,54.6,9.3
				c52.8,55.5,196.7,199.4,155.2,237.1C1493.2,1734.8,1399,1654.4,1306.9,1611.5z"/>
			<path class="st11" d="M1272.5,1487.4c-0.7,2.1,1.3,5.3,5.1,6.1c19.1,9.5,44.3,27.9,63.8,43.9c6.6,5.5,12.7,11.2,18.3,17.1
				c-15.5,19.6-28.1,52.1-27.5,74.1c0.1,4.6,4,8,8.7,7.6c4.7-0.4,8.4-4.4,8.3-9c-0.4-16.9,9.5-43.2,21.3-59.9
				c32.8,38.5,53.4,70.9,36.7,104.1c60.4,30,103.5,74.5,135.1,51.8c38.9-27.9-188.3-291-188.3-291
				C1330.3,1448.7,1293.6,1472.5,1272.5,1487.4z"/>
			<path class="st12" d="M1339.1,1441.4c5.4-3.4,10.5-6.8,15-9.9c0,0,208.8,219.4,198.6,281.5c-0.4,2.2-5.7,8-8.2,8.6
				C1514.5,1641.7,1390.2,1498.2,1339.1,1441.4z"/>
			<path class="st9" d="M1282.8,1654.5c-30.1-54.8-44.5-77.1-78.5-128.8l-5.9,2.9c34.2,52.1,48.6,74.3,78.9,129.4L1282.8,1654.5z"/>
		</g>
		<g>
			<path class="st9" d="M628.8,1952.2c0.7,5,1.4,9.4,1.8,12.4l17.5-0.8c-0.3-7.8-6.8-14-14.5-13.7
				C631.7,1950.2,630.4,1951.5,628.8,1952.2z M732.5,1961l28.1-1c-0.3-7.8-6.8-13.9-14.5-13.6C738.3,1946.6,732.3,1953.2,732.5,1961
				z M760.7,1960l23.3-0.8l0.4-10c-2.6-2.4-6.2-3.9-10-3.8C766.5,1945.7,760.4,1952.2,760.7,1960z M704.4,1961.9l28.2-1
				c-0.3-7.8-6.8-13.9-14.5-13.7C710.2,1947.6,704.1,1954.2,704.4,1961.9z M676.2,1962.9l28.1-1c-0.3-7.8-6.8-13.9-14.5-13.7
				C682,1948.5,676,1955.1,676.2,1962.9z M648.1,1963.8l28.2-1c-0.3-7.8-6.8-14-14.5-13.7C653.9,1949.4,647.8,1956.1,648.1,1963.8z"
				/>
			<path class="st10" d="M649.4,2111.9c0.6,4.1,132.9-5.5,133.3-10.4c3.5-41.5,1-126.7,1.1-142.3l-153.3,5.4
				C636.4,2007.5,645.3,2085.9,649.4,2111.9z"/>
			<path class="st10" d="M666.9,2025.3c2.1-9.8,93.4,6.7,110,3.7c0.4,22.6,13.5,59,12.8,89.7c-0.4,21.4-18.2,37-37.7,40.5
				c-75.4,13.7-274.7,54.8-283.4-0.5C461.4,2113.2,580.4,2078.7,666.9,2025.3z"/>
			<path class="st11" d="M789.4,2064.7c-1.4-1.7-5.1-1.8-7.9,0.9c-18.4,10.7-47.6,21.7-71.7,29.2c-8.2,2.5-16.4,4.5-24.4,5.9
				c-7.8-23.7-28.1-52.1-46.8-63.7c-3.9-2.4-8.9-1-11.2,3.1c-2.3,4.1-1,9.4,2.9,11.9c14.4,9,30.9,31.6,38.3,50.7
				c-50.2,6.2-88.6,5.7-107.1-26.5c-58.2,34-119.1,45.6-117.5,84.5c2,47.8,346.6,2.5,346.6,2.5
				C790,2134.3,790.3,2090.5,789.4,2064.7z"/>
			<path class="st12" d="M791.2,2145.6c-0.1,6.4-0.1,12.5,0,18c0,0-298,54-344.3,11.3c-1.7-1.5-3.5-9.2-2.7-11.6
				C527.6,2182.2,715.7,2157.1,791.2,2145.6z"/>
			<path class="st9" d="M784.2,1981.6c-62.3,4.9-88.9,5.1-150.7,5.2l-0.8-6.5c62.4,0,88.8-0.2,151.4-5.2L784.2,1981.6z"/>
		</g>
		<g>
			<path class="st13" d="M425.4,579c10.2,53.9,48.2,84.5,76.7,76.3c28.6-8.3,34.1-53.9,29-106.4c-5-52.4-32.3-88.3-60.9-79.9
				C431.3,480.5,415.8,528.4,425.4,579z"/>
			<path class="st0" d="M453.5,319.4C425.1,560.7,568,686.3,791.9,707.1c224,20.7,426.1-57.4,448.5-299.3
				c22.4-241.9-155.9-338.2-370.7-358.5C615.3,25.4,478.9,102.9,453.5,319.4z"/>
			<path class="st14" d="M474.2,642.6c38.2,126.8,119.2,194.6,238.5,200.2c223.4,10.6,367.8-113.4,437.3-371.5
				c74-275-118-304.4-315.5-322.7c-131.9-12.2-242.2-19.8-304.9,63C491,262.7,455.4,580.5,474.2,642.6z"/>
			<g>
				<path class="st15" d="M644.8,466.8c16.8,37.4,9.5,75.5-10.7,87.9c-30.4,18.6-96.7,16.9-117.2-17.9
					c-19.9-33.7-1.7-88.4,39.9-107.9C593.1,412,628.5,430.6,644.8,466.8z"/>
				<path class="st16" d="M523.9,442.2c36.6-50.4,106.7-23.3,121.4,25.9c-16.8-37.4-54.3-52.8-87.9-37.1
					c-20.8,9.7-37.1,29.6-43.7,53c-5.3,18.7-4,40.6,4.3,54.6C507.7,529,497,479.3,523.9,442.2z"/>
				<path class="st17" d="M631.9,488.6c5.7,25.2-7.8,51.5-30.2,58.7c-22.4,7.2-45.1-7.4-50.8-32.6c-5.7-25.2,7.8-51.5,30.2-58.7
					C603.5,448.8,626.2,463.4,631.9,488.6z"/>
				<path class="st18" d="M629,484c1.6,7-2.2,14.3-8.4,16.3c-6.2,2-12.5-2.1-14.1-9c-1.6-7,2.2-14.3,8.4-16.3
					C621.2,473,627.5,477,629,484z"/>
			</g>
			<g>
				<path class="st15" d="M812.2,486.1c-27.8,32.3-28.9,71.1-9.5,88c29.3,25.5,103.5,39.9,134.8,11.1
					c30.3-27.9,23.3-85.5-18.2-114.6C883,445.3,839.1,454.8,812.2,486.1z"/>
				<path class="st16" d="M952.7,491.6c-28.5-57.9-113.1-48.6-141.4-4.4c27.7-32.3,73.2-38.1,106.8-14.6
					c20.8,14.5,34.1,37.8,35.8,62.2c1.3,19.5-5.4,40.4-18,52C949.6,579.8,973.7,534.1,952.7,491.6z"/>
				<path class="st17" d="M921.1,520.7c6.9,25.3-8.1,51.4-33.5,58.3c-25.3,6.9-51.4-8.1-58.3-33.5c-6.9-25.3,8.1-51.4,33.5-58.3
					C888.2,480.4,914.3,495.4,921.1,520.7z"/>
				<path class="st18" d="M917.8,516.1c1.9,7-2.3,14.3-9.3,16.2c-7,1.9-14.3-2.3-16.2-9.3c-1.9-7,2.3-14.3,9.3-16.2
					C908.6,504.9,915.9,509,917.8,516.1z"/>
			</g>
			<path class="st19" d="M533.9,348c3.1,0.4,6.4-0.2,9.3-2.1c22.1-14.9,60.3-14.5,88.9,0.9c6.4,3.5,14.5,1,18-5.4
				c3.5-6.5,1-14.6-5.4-18c-37.3-20.1-86.2-19.8-116.4,0.4c-6.1,4.1-7.7,12.4-3.6,18.5C526.9,345.5,530.3,347.5,533.9,348z"/>
			<path class="st19" d="M966.7,404.1c4,0.5,8.2-0.6,11.5-3.4c6.1-5.3,6.8-14.5,1.5-20.6c-26-30.2-77.8-44.7-123.2-34.2
				c-7.9,1.8-12.8,9.6-11,17.5c1.8,7.9,9.7,12.8,17.5,11c34.9-8.1,75.4,2.7,94.5,24.8C960,402,963.3,403.7,966.7,404.1z"/>
			<path class="st20" d="M674,578.7c1.6,0.2,3.2-0.8,3.6-2.4c3.3-11.3,13.4-17.7,25.6-16.2c12.3,1.5,20.7,10.3,21,21.8
				c0,1.8,1.6,3.3,3.4,3.3c1.9,0,3.3-1.6,3.3-3.4c-0.3-14.8-11.4-26.4-26.9-28.3c-15.4-1.9-28.6,6.6-32.9,21
				c-0.5,1.8,0.5,3.6,2.3,4.2L674,578.7z"/>
			<path class="st0" d="M1035.8,483.5c-9.3,100.1,48.5,178.1,98.9,182.6c5.8-59.3,49.8-303.4,60.5-422.3
				c-16.5-2.6-83.6-11.4-189.3-27.9C1124.5,270.1,1046.4,370,1035.8,483.5z"/>
			<g>
				<path class="st21" d="M823.8,662.1c-1.7-26.8-49.5-26.2-111.8-33.9c-3.3-0.4-16-1.9-19.2-2.2c-62.5-6.9-98.2-17.7-104.3,8.4
					c-10.9,47.3,35.3,110.9,98.7,118.6l1.1,0.1C756.4,761,827.1,713.7,823.8,662.1z"/>
				<path class="st22" d="M757.9,743c-15.4-17.8-37.7-29.4-62.5-32.3c-24.5-2.9-48.2,3-67.1,16.3c10.6,8.8,22.7,16.3,36,21
					c7.2,2.5,14.9,4.4,22.8,5.4l1.1,0.1c16.9,2,33.9,0.5,50-3.6l1.2-0.3C745.8,747.8,751.9,745.5,757.9,743z"/>
				<path class="st23" d="M786.7,637.6l0.4-1.1c0,0-69.7-9.3-94.2-12c-23.4-2.5-75.2-7.8-75.2-7.8l0.1,1.2c2.3,19.5,37,38,80.6,43.1
					C742,666.1,779.9,656,786.7,637.6z"/>
			</g>
			<path class="st24" d="M983.3,657.4c-1,15.6-23.5,26.7-50.1,25c-26.7-1.7-47.5-15.8-46.4-31.3c1-15.6,23.5-26.7,50.1-25
				C963.6,627.8,984.4,641.8,983.3,657.4z"/>
			<path class="st24" d="M570.4,609.4c-2.3,13.7-20.7,22-41.2,18.6c-20.5-3.4-35.3-17.2-33-30.9c2.3-13.7,20.7-22,41.2-18.6
				C557.9,581.9,572.7,595.7,570.4,609.4z"/>
			<path class="st0" d="M1090.7,321.5c29.8,0.1,60.3-0.4,90.2,3.2c2.5-31.5,1.2-59.5-6.9-77.6C1068.6,125.7,733.1,49.9,561.5,116.2
				c-100.8,38.9-131.4,137.2-132.3,193.7c39.1-17.9,142.5-18.7,227.8-13.4c15.1-17.7,32-85,32-85s3.8,63.3-9.6,87
				c38.3,4.9,143.4,14,190.4,21.6c15.6-18.9,30.7-71,30.7-71s2.9,49.7-6.2,73.3c10.7,2.6,40.6,5.2,53.8,6.7
				c53.2-20.2,58.6-91.2,98.6-84.5C1078.9,249.9,1090.2,284,1090.7,321.5z"/>
			<path class="st25" d="M1163.3,305.6C1141.8,181.3,1027.9,79.7,856,51.4c-133.7-22-256-7.4-339.2,90.9
				c97.7-70.8,201.8-66.9,321.6-46C942,114.4,1102.6,187.1,1163.3,305.6z"/>
			<g>
				<path class="st26" d="M1137.1,232.8C1116,307.4,1248,418.1,1374,328.1C1287.7,198.1,1215.8,202,1137.1,232.8z"/>
				<path class="st27" d="M1140.9,236.3c5.1-16.8,71.8-5.4,104.9,40.1C1190.7,308.6,1125.4,286.9,1140.9,236.3z"/>
				<path class="st26" d="M1149.3,216.5C1054.2,244,953.4,110.3,1124.9,0C1160.2,124.1,1191.5,163.2,1149.3,216.5z"/>
				<path class="st27" d="M1131.4,207c14.8-23.9-29.9-56-34.5-101.8C1077.3,129.1,1076.7,220.7,1131.4,207z"/>
				<path class="st26" d="M1099.9,243.2c10.1,16.1,32.2,21,49.5,11c17.2-10.1,23.1-31.3,13-47.4c-10.1-16.1-32.2-21-49.5-11
					C1095.6,205.8,1089.8,227,1099.9,243.2z"/>
			</g>
			<g>
				<path class="st1" d="M1174.6,669.3c-32.9,59.6-104.1,80.2-146.1,64.1c-32.7-12.5-25-70.3-4.1-122.6
					c22.5-56.3,61.3-83.6,106.5-75.7C1191.5,545.8,1203.9,616.3,1174.6,669.3z"/>
				<path class="st28" d="M1117.6,653.6c-9.7,27.5-48.9,45.5-72.1,31c-7.8-4.9,30-93.6,43.3-91.7
					C1118.9,597.3,1127.2,626.1,1117.6,653.6z"/>
			</g>
		</g>
		<path class="st1" d="M1473.4,789.5c3.2,5.8,13.2,7.9,28.9,11.6c13.5,3.2,34,7.4,40.9,15.3c7.4,8.5-1.6,15.9-17.8,17.8
			c-26.7,3.1-87.3,7.8-117.5,8c-51.5,3.6-100.4-34.3-102.3-82.7c-2.8-72.6,0.5-100.9,0.4-145.6c0-11,22.6-1.4,28.4,12.6
			c12.4,29.8,7.1,40.6,14.7,55.3c7.4,14.4,20.2,10.8,32.8,1.5c47.9-62.3,68.8-103.3,92.1-99c18.7,6.6-8.5,54.1-41.7,106.1
			c54.6-39,101.5-65.7,109.5-50c9.4,18.6-37,53.1-76.4,88.2c51.1-2.2,103.4-19,104.6,7.7C1570.9,756,1464.5,773,1473.4,789.5z"/>
		<path class="st29" d="M683.3,1063.9c2.7-28.6,23.7-42.9,49.1-41.2c18,1.2,32.5,18.9,39,36.5c8.7-16.6,25.4-32.2,43.5-31
			c25.4,1.7,44.2,18.6,43.2,47.3c-1.5,41.7-94.5,101.8-94.5,101.8S678.8,1111.6,683.3,1063.9z"/>
	</g>
	<g>
		<path class="st30" d="M47.5,377.2c1.9,4.2,6.8,6.4,11,4.5l54.8-22.6c4.3-1.6,6.2-6.4,4.6-10.7c-1.9-4.2-6.7-6.1-11-4.5l-54.8,22.6
			C47.8,368.1,46,373.2,47.5,377.2z M371.5,165.5c3.9,3.5,3.5,8.5,0.2,11.8l-52.8,54.3c-3.1,3.2-8.3,3.1-11.6,0.1
			c-3.5-3.3-3.5-8.5-0.4-11.7l52.8-54.3C362.8,162.4,367.9,162.3,371.5,165.5z M221.8,101.9c5-0.4,8.5,3.4,8.8,7.9l3.7,75.6
			c0.3,4.5-3.4,8.5-8,8.6c-4.5,0.3-8.4-3.1-8.5-7.8l-3.7-75.6C213.9,106.1,217.3,102.2,221.8,101.9z M294.3,135.6
			c4.3,1.5,6.5,6.5,4.7,10.7l-22.1,55.1c-1.9,4.2-6.6,6.3-10.8,4.4c-4.3-1.5-6.5-6.5-4.7-10.7l22.1-55.1
			C285.4,135.8,290.1,133.7,294.3,135.6z M11.4,303c-0.6,5.2,3.3,8.6,7.7,8.9l75.6,5.3c4.5,0.3,8.3-3.2,8.9-7.7
			c0.2-4.7-3.3-8.6-7.7-8.9l-75.6-5.3C15.8,294.9,11.9,298.2,11.4,303z M80.5,155.8c-4,3-4.1,8.2-1.3,11.8l47.7,58.8
			c2.8,3.6,8.2,4.1,11.7,1c3.6-2.8,4.2-8,1.4-11.5l-47.9-58.7C89.3,153.7,84.4,153,80.5,155.8z M48.9,229.3c-2.2,4-0.3,9.1,3.6,11.1
			l53.2,26.3c4.2,1.9,9.1,0.3,11.2-4c2-3.9,0.3-9.1-3.9-11l-53.2-26.3C56,223.4,50.8,225.1,48.9,229.3z M151,131.8
			c4.3-1.6,8.9,0.6,10.6,4.9l21.1,55.3c1.6,4.3-0.3,9.1-4.6,10.7c-4.3,1.6-9.2-0.5-10.8-4.8l-21.1-55.3
			C144.5,138.3,146.7,133.5,151,131.8z M394,244.9c1.6,4.3-0.8,9.3-5.2,10.7l-55.9,19.6c-4.3,1.6-8.9-0.6-10.6-4.9
			c-1.4-4.4,0.9-9,5.2-10.7l55.9-19.6C387.7,238.3,392.4,240.9,394,244.9z M416.9,319.3c-0.2,5-4.2,8-8.7,7.7l-75.6-5.3
			c-4.7-0.2-7.9-4.2-7.7-8.7c0.3-4.7,4.1-8.2,8.6-7.9l75.6,5.3C413.6,310.7,417.1,314.6,416.9,319.3z M80,447.9
			c3.4,3.6,8.4,3.1,11.8-0.2l52.8-54.3c3.1-3.2,3.2-8.5-0.1-11.6c-3.5-3.3-8.8-3.3-11.9-0.1l-52.8,54.3
			C76.7,439.3,76.7,444.5,80,447.9z"/>
		<path class="st30" d="M273.5,421.2l-27,10.3c1.4,3.7,8.6,4.4,16.2,1.5C270.1,430.2,275,424.9,273.5,421.2z M282.3,398.6
			l-55.5,21.2c-2.1,0.8-3.2,3.3-2.3,5.5l1.1,3c0.8,2.1,3.3,3.4,5.4,2.6l55.5-21.2c2.1-0.8,3.3-3.5,2.5-5.6l-1.1-3
			C287.1,398.8,284.4,397.8,282.3,398.6z M275.8,381.5l-55.5,21.2c-2.1,0.8-3.1,3.4-2.3,5.5l1.1,3c0.9,2.3,3.3,3.4,5.4,2.6
			l55.5-21.2c2.3-0.9,3.4-3.3,2.5-5.6l-1.1-3C280.6,381.9,278.1,380.6,275.8,381.5z M290.5,271.6C274.6,230,228,209.1,186.3,225
			c-41.7,15.9-62.5,62.5-46.6,104.2c10.3,27,33.7,45.4,60.3,50.4l8,21l77.7-29.7l-7.7-20.1C295.3,329.3,301.1,299.4,290.5,271.6z"/>
		<path class="st23" d="M241.9,308.8c-3.3-2.2-7.2-3-11.1-2.2c-3.9,0.7-7.2,3-9.4,6.2c-0.4,0.5-0.6,1.1-0.9,1.7
			c-3.1-3-7.4-4.9-12.2-5c-9.6-0.2-17.6,7.1-17.8,16.1c-0.2,9.1,7.5,16.6,17.2,16.8c2.4,0,4.8-0.4,6.9-1.2c2-0.8,3.8-1.9,5.4-3.3
			c0.8-0.7,1.4-1.4,2-2.2l19.8,51.9l5.7-2.2l-19.4-50.7c3.5,1.3,7.3,1.3,10.6,0.1c2.7-1,5.2-2.9,7-5.5c2.2-3.3,3-7.2,2.2-11.1
			C247.4,314.4,245.2,311,241.9,308.8z M216,333.4c-2.2,1.9-5.1,3-8.2,3c-6.3-0.1-11.3-4.9-11.2-10.6c0.1-4.2,2.9-7.8,7-9.3
			c1.4-0.5,3-0.8,4.6-0.8c6.3,0.1,11.3,4.9,11.2,10.6C219.4,329,218.2,331.5,216,333.4z M240.8,325.9c-2.7,4-8,5-12,2.4
			c-1.9-1.3-3.2-3.2-3.7-5.5c-0.4-2.3,0-4.6,1.3-6.5c1-1.5,2.4-2.6,4.1-3.2c0.5-0.2,0.9-0.3,1.4-0.4c2.3-0.4,4.6,0,6.5,1.3
			c1.9,1.3,3.2,3.2,3.7,5.5C242.6,321.7,242.1,324,240.8,325.9z"/>
	</g>
</g>
</svg>
