<?xml version="1.0" encoding="UTF-8" standalone="no"?>
<svg
   xmlns:dc="http://purl.org/dc/elements/1.1/"
   xmlns:cc="http://creativecommons.org/ns#"
   xmlns:rdf="http://www.w3.org/1999/02/22-rdf-syntax-ns#"
   xmlns:svg="http://www.w3.org/2000/svg"
   xmlns="http://www.w3.org/2000/svg"
   viewBox="0 0 1529.4933 2343.7732"
   height="2343.7732"
   width="1529.4933"
   xml:space="preserve"
   id="svg2"
   version="1.1"><metadata
     id="metadata8"><rdf:RDF><cc:Work
         rdf:about=""><dc:format>image/svg+xml</dc:format><dc:type
           rdf:resource="http://purl.org/dc/dcmitype/StillImage" /></cc:Work></rdf:RDF></metadata><defs
     id="defs6"><clipPath
       id="clipPath18"
       clipPathUnits="userSpaceOnUse"><path
         id="path16"
         d="M 0,1757.826 H 1147.125 V 0 H 0 Z" /></clipPath><clipPath
       id="clipPath34"
       clipPathUnits="userSpaceOnUse"><path
         id="path32"
         d="m 294.134,466.441 h 188.57 v -100.07 h -188.57 z" /></clipPath><clipPath
       id="clipPath58"
       clipPathUnits="userSpaceOnUse"><path
         id="path56"
         d="m 1008.95,1084.12 h 121.48 V 975.193 h -121.48 z" /></clipPath><clipPath
       id="clipPath78"
       clipPathUnits="userSpaceOnUse"><path
         id="path76"
         d="m 1000.39,1085.2 h 63.43 v -50.78 h -63.43 z" /></clipPath><clipPath
       id="clipPath130"
       clipPathUnits="userSpaceOnUse"><path
         id="path128"
         d="M 582.939,1101.28 H 740.398 V 991.272 H 582.939 Z" /></clipPath><clipPath
       id="clipPath158"
       clipPathUnits="userSpaceOnUse"><path
         id="path156"
         d="M 381.024,620.446 H 680.97 V 549.028 H 381.024 Z" /></clipPath><clipPath
       id="clipPath274"
       clipPathUnits="userSpaceOnUse"><path
         id="path272"
         d="m 361.208,1580.72 h 88.186 v -46.99 h -88.186 z" /></clipPath><clipPath
       id="clipPath294"
       clipPathUnits="userSpaceOnUse"><path
         id="path292"
         d="m 458.332,1671.31 h 45.431 v -79.33 h -45.431 z" /></clipPath><clipPath
       id="clipPath362"
       clipPathUnits="userSpaceOnUse"><path
         id="path360"
         d="M 526.712,861.508 H 665.871 V 735.052 H 526.712 Z" /></clipPath><clipPath
       id="clipPath378"
       clipPathUnits="userSpaceOnUse"><path
         id="path376"
         d="M 27.9181,100.37 H 1128.6 V 0 H 27.9181 Z" /></clipPath></defs><g
     transform="matrix(1.3333333,0,0,-1.3333333,0,2343.7733)"
     id="g10"><g
       id="g12"><g
         clip-path="url(#clipPath18)"
         id="g14"><g
           transform="translate(930.9832,1547.9362)"
           id="g20"><path
             id="path22"
             style="fill:#ad5c49;fill-opacity:1;fill-rule:nonzero;stroke:none"
             d="m 0,0 c 43.781,-124.553 29.028,-169.97 35.062,-199.404 9.975,-48.632 29.714,-54.66 33.396,-100.356 7.825,-97.13 -85.078,-176.508 -135.056,-181.825 15.237,29.835 19.246,68.106 15.271,72.816 -11.22,-31.75 -27.016,-73.051 -38.15,-79.306 -69.234,-38.913 -145.527,-56.057 -264.857,-53.576 -95.96,1.997 -228.652,25.152 -311.898,88.969 -14.809,11.355 -18.421,51.338 -11.541,98.624 -32.944,-47.876 -16.096,-78.677 -21.396,-73.084 -38.574,40.703 -56.847,135.104 16.534,205.883 83.947,80.973 26.478,106.812 150.469,250.776 C -363.704,34.845 -57.358,15.378 0,0" /></g><g
           transform="translate(198.5259,501.0204)"
           id="g24"><path
             id="path26"
             style="fill:#ffc19f;fill-opacity:1;fill-rule:nonzero;stroke:none"
             d="m 0,0 -53.87,-100.818 c 150.365,-53.008 230.247,-85.689 268.497,-53.442 5.251,4.427 74.168,53.556 85.15,76.521 -7.287,41.162 -84.136,111.966 -87.748,112.504 -3.612,0.539 -50.14,-57.682 -50.81,-57.554 C 152.345,-50.243 59.29,-15.409 0,0" /></g><g
           id="g28"><g
             id="g30" /><g
             id="g42"><g
               style="opacity:0.19000202"
               id="g40"
               clip-path="url(#clipPath34)"><g
                 id="g38"
                 transform="translate(482.7043,411.0982)"><path
                   id="path36"
                   style="fill:#4c0606;fill-opacity:1;fill-rule:nonzero;stroke:none"
                   d="m 0,0 c -62.792,22.279 -97.558,34.403 -157.824,49.195 l -30.746,6.148 c 8.712,-42.463 37.553,-71.835 92.444,-91.965 24.86,-9.119 30.856,-8.681 54.108,-7.445 z" /></g></g></g></g><g
           transform="translate(1071.2247,957.5731)"
           id="g44"><path
             id="path46"
             style="fill:#ffc19f;fill-opacity:1;fill-rule:nonzero;stroke:none"
             d="m 0,0 c 3.819,4.237 -50.199,50.071 -54.48,46.286 -63.959,-56.571 -180.921,-130.184 -201.578,-143.202 0,0 40.61,-70.455 87.438,-58.859 C -124.632,-144.879 -96.723,-107.267 0,0" /></g><g
           transform="translate(1022.7236,1079.4176)"
           id="g48"><path
             id="path50"
             style="fill:#ffc19f;fill-opacity:1;fill-rule:nonzero;stroke:none"
             d="m 0,0 c 22.203,4.002 41.576,2.108 39.855,-1.287 27.82,-23.786 59.063,-47.773 76.031,-57.13 -25.757,-51.848 -57.965,-69.176 -72.357,-73.451 -20.722,-6.165 -55.084,4.368 -67.795,29.777 -5.983,11.955 -12.742,41.013 -4.944,86.144 C -21.996,-12.397 -9.043,-8.364 0,0" /></g><g
           id="g52"><g
             id="g54" /><g
             id="g66"><g
               style="opacity:0.13999903"
               id="g64"
               clip-path="url(#clipPath58)"><g
                 id="g62"
                 transform="translate(1036.2247,988.1947)"><path
                   id="path60"
                   style="fill:#6b1808;fill-opacity:1;fill-rule:nonzero;stroke:none"
                   d="M 0,0 C 28.503,-28.852 73.688,-4.661 94.208,23.804 87.124,27.575 42.918,53.097 42.702,95.908 14.533,96.806 -18.263,54.549 -27.278,57.938 -10.223,46.141 9.982,24.984 0,0" /></g></g></g></g><g
           transform="translate(1143.3984,1051.9186)"
           id="g68"><path
             id="path70"
             style="fill:#ffc19f;fill-opacity:1;fill-rule:nonzero;stroke:none"
             d="m 0,0 c -6.242,5.21 -15.326,0.783 -24.314,-8.805 8.122,12.114 10.792,24.1 5.706,29.804 -6.048,6.783 -20.957,2.294 -34.865,-9.81 7.522,13.936 8.957,27.42 2.481,32.875 -6.97,5.869 -20.702,0.49 -32.83,-11.983 1.788,11.369 2.25,25.422 -4.972,28.134 -13.218,4.962 -26.75,-10.765 -35.121,-29.107 -8.37,-18.345 -7.087,-45.903 1.998,-49.992 4.975,-2.242 14.05,2.443 18.977,14.005 -0.435,-5.738 0.787,-10.468 3.999,-13.176 6,-5.052 17.024,-1.767 27.713,7.197 -5.041,-9.785 -6.1,-18.746 -1.912,-23.445 4.206,-4.717 15.278,-5.448 30.594,6.166 -5.155,-8.285 -8.356,-17.483 -4.52,-21.837 4.696,-5.335 16.617,-8.619 32.42,5.768 C 2.001,-29.041 8.488,-7.077 0,0" /></g><g
           id="g72"><g
             id="g74" /><g
             id="g86"><g
               style="opacity:0.13999903"
               id="g84"
               clip-path="url(#clipPath78)"><g
                 id="g82"
                 transform="translate(1063.8203,1065.9063)"><path
                   id="path80"
                   style="fill:#6b1808;fill-opacity:1;fill-rule:nonzero;stroke:none"
                   d="m 0,0 c 0.128,-12.656 -6.335,-31.281 -24.828,-31.488 -17.114,-0.193 -38.478,11.942 -38.606,24.598 -0.127,12.652 14.795,24.28 33.327,25.967 C -11.576,20.76 -0.128,12.652 0,0" /></g></g></g></g><g
           transform="translate(1063.8203,1065.9063)"
           id="g88"><path
             id="path90"
             style="fill:#ffc19f;fill-opacity:1;fill-rule:nonzero;stroke:none"
             d="m 0,0 c 0.124,-12.038 -15.644,-23.241 -35.217,-25.022 -19.57,-1.777 -35.532,6.535 -35.652,18.573 C -70.99,5.589 -55.226,16.789 -35.652,18.57 -16.082,20.353 -0.117,12.035 0,0" /></g><g
           transform="translate(853.7444,781.5414)"
           id="g92"><path
             id="path94"
             style="fill:#ed3b61;fill-opacity:1;fill-rule:nonzero;stroke:none"
             d="m 0,0 c -44.943,13.577 -129.76,32.882 -176.898,49.005 9.527,55.198 81.5,146.87 82.68,149.678 C -19.353,172.53 14.851,158.694 39.831,145.241 33.244,110.231 14.201,44.247 0,0" /></g><g
           transform="translate(671.4504,271.2811)"
           id="g96"><path
             id="path98"
             style="fill:#ffc19f;fill-opacity:1;fill-rule:nonzero;stroke:none"
             d="M 0,0 114.309,0.756 C 89.15,158.197 83.871,250.196 37.281,268.428 c -6.397,2.501 -86.562,33.426 -111.984,32.119 -32.699,-26.043 -58.258,-127.362 -57.006,-130.795 1.249,-3.429 74.613,-16.541 74.82,-17.193 C -56.685,151.907 -18.842,56.737 0,0" /></g><g
           transform="translate(330.0659,651.9786)"
           id="g100"><path
             id="path102"
             style="fill:#68295f;fill-opacity:1;fill-rule:nonzero;stroke:none"
             d="m 0,0 c -10.313,-6.045 -75.483,-121.644 -87.269,-131.892 -4.047,-4.268 46.69,-54.739 81.376,-84.86 27.671,-32.796 119.45,-90.188 218.236,-36.739 31.543,17.065 30.014,69.165 40.123,110.324 14.351,58.417 138.496,30.335 78.305,51.958 -31.266,11.231 -109.457,30.611 -123.842,36.114 -12.093,4.624 -17.355,16.372 -16.862,27.12 z" /></g><g
           transform="translate(676.3223,551.571)"
           id="g104"><path
             id="path106"
             style="fill:#ed3b61;fill-opacity:1;fill-rule:nonzero;stroke:none"
             d="m 0,0 c -134.504,46.49 -158.611,2.039 -276.467,30.608 -34.358,8.329 -81.848,29.145 -94.287,57.903 0,0 135.266,329.529 168.659,403.728 36.787,-1.487 92.751,-3.912 140.859,-15.167 C -2.277,463.277 51.168,443.807 87.535,427.197 84.45,366.613 -3.843,115.027 0,0" /></g><g
           transform="translate(146.0604,829.2248)"
           id="g108"><path
             id="path110"
             style="fill:#ffc19f;fill-opacity:1;fill-rule:nonzero;stroke:none"
             d="m 0,0 c -2.677,-5.162 62.547,-36.573 65.794,-31.736 48.522,72.281 144.982,174.997 162.017,193.156 0,0 -60.402,52.161 -103.648,28.696 C 83.539,168.072 67.75,130.764 0,0" /></g><g
           transform="translate(304.2612,886.1861)"
           id="g112"><path
             id="path114"
             style="fill:#ed3b61;fill-opacity:1;fill-rule:nonzero;stroke:none"
             d="m 0,0 159.428,-8.174 c 31.757,51.168 50.037,124.26 45.948,163.469 -38.309,5.2 -121.665,2.264 -203.361,-3.767 z" /></g><g
           transform="translate(557.5835,1038.2174)"
           id="g116"><path
             id="path118"
             style="fill:#ffc19f;fill-opacity:1;fill-rule:nonzero;stroke:none"
             d="m 0,0 c -0.501,-1.453 -2.378,-7.86 -2.757,-9.368 -9.092,-36.894 23.469,-76.476 72.743,-88.411 49.274,-11.931 96.595,8.302 105.686,45.196 l 1.498,6.083 C 122.213,-26.902 58.414,-6.531 0,0" /></g><g
           transform="translate(745.9255,1099.1396)"
           id="g120"><path
             id="path122"
             style="fill:#ffc19f;fill-opacity:1;fill-rule:nonzero;stroke:none"
             d="m 0,0 -30.628,-116.534 c -6.587,-25.057 -44.258,-37.04 -84.133,-26.751 -39.879,10.286 -66.864,38.944 -60.277,64 l 30.632,116.535 z" /></g><g
           id="g124"><g
             id="g126" /><g
             id="g138"><g
               style="opacity:0.19000202"
               id="g136"
               clip-path="url(#clipPath130)"><g
                 id="g134"
                 transform="translate(740.3981,1074.2076)"><path
                   id="path132"
                   style="fill:#4c0606;fill-opacity:1;fill-rule:nonzero;stroke:none"
                   d="M 0,0 C -47.338,10.879 -102.202,21.406 -147.084,27.071 L -157.459,-12.4 c 9.861,-30.022 40.88,-56.8 82.311,-66.781 18.77,-4.524 37.105,-4.717 53.839,-1.877 z" /></g></g></g></g><g
           transform="translate(183.693,702.6845)"
           id="g140"><path
             id="path142"
             style="fill:#ffc19f;fill-opacity:1;fill-rule:nonzero;stroke:none"
             d="m 0,0 c 2.139,-3.982 37.912,-13.549 64.984,22.989 14.101,19.025 11.399,61.292 -18.398,105.359 -2.736,4.041 -7.038,-5.603 -11.527,-11.303 -4.486,-5.696 -51.237,-92.261 -42.18,-84.722 8.926,7.435 19.339,26.85 24.987,7.49 C 24.615,16.668 -5.527,10.261 0,0" /></g><g
           transform="translate(201.9624,714.0981)"
           id="g144"><path
             id="path146"
             style="fill:#e0956c;fill-opacity:1;fill-rule:nonzero;stroke:none"
             d="M 0,0 C -9.737,5.082 13.074,66.039 22.807,60.96 32.543,55.881 32.654,43.512 28.175,28.286 23.114,11.065 9.737,-5.075 0,0" /></g><g
           transform="translate(244.491,785.8198)"
           id="g148"><path
             id="path150"
             style="fill:#ffc19f;fill-opacity:1;fill-rule:nonzero;stroke:none"
             d="m 0,0 c -8.081,-19.529 -45.579,-37.422 -12.732,-73.609 6.194,-6.825 -19.656,-25.187 -33.233,-18.183 -6.021,4.492 -8.512,-4.082 -22.441,3.854 -8.626,4.92 -12.342,11.117 -16.762,10.944 -18.459,-0.704 -15.868,14.788 -23.776,15.309 -11.323,0.753 -15.098,10.762 -16.52,16.89 -3.992,17.244 11.517,50.754 26.223,89.435 9.16,24.094 60.08,24.473 66.877,18.963 C -4.351,40.897 5.32,12.863 0,0" /></g><g
           id="g152"><g
             id="g154" /><g
             id="g166"><g
               style="opacity:0.19000202"
               id="g164"
               clip-path="url(#clipPath158)"><g
                 id="g162"
                 transform="translate(680.9698,620.4462)"><path
                   id="path160"
                   style="fill:#4c0606;fill-opacity:1;fill-rule:nonzero;stroke:none"
                   d="m 0,0 c -20.495,-57.903 -103.841,-26.195 -166.398,-32.823 -59.836,-6.342 -105.49,-2.791 -133.548,-2.543 4.737,-23.093 55.795,-25.556 106.487,-24.883 43.695,0.576 83.649,-0.183 111.611,-3.32 19.739,-2.215 49.132,1.294 63.241,-6.593 4.882,-2.729 9.54,-0.442 13.735,1.497 0,0 -1.784,45.227 4.872,68.665" /></g></g></g></g><g
           transform="translate(979.5706,1261.7496)"
           id="g168"><path
             id="path170"
             style="fill:#f4b18c;fill-opacity:1;fill-rule:nonzero;stroke:none"
             d="m 0,0 c -9.202,-57.124 -54.846,-96.909 -91.226,-94.998 -36.38,1.926 -46.266,47.076 -43.391,101.522 2.871,54.446 34.696,97.165 71.066,95.105 C -13.839,98.814 8.657,53.69 0,0" /></g><g
           transform="translate(971.4796,1423.5901)"
           id="g172"><path
             id="path174"
             style="fill:#ad5c49;fill-opacity:1;fill-rule:nonzero;stroke:none"
             d="m 0,0 c -1.073,-194.408 -126.861,-280.231 -306.775,-274.797 -179.923,5.438 -332.831,87.265 -326.958,281.591 5.872,194.321 157.068,259.595 329.488,251.645 C -94.297,248.758 0.963,174.452 0,0" /></g><g
           transform="translate(923.4205,1168.9257)"
           id="g176"><path
             id="path178"
             style="fill:#fbc1a0;fill-opacity:1;fill-rule:nonzero;stroke:none"
             d="m 0,0 c -42.76,-96.995 -126.803,-142.74 -209.034,-135.704 -178.361,15.26 -281.067,126.043 -311.019,337.882 -31.905,225.651 123.463,230.212 282.157,225.416 C -131.927,424.392 -43.55,419.6 -1.898,347.733 23.803,303.39 20.936,47.497 0,0" /></g><g
           transform="translate(805.088,1325.2112)"
           id="g180"><path
             id="path182"
             style="fill:#f9fdfe;fill-opacity:1;fill-rule:nonzero;stroke:none"
             d="m 0,0 c -16.989,-28.096 -14.94,-59.073 -0.138,-70.856 22.303,-17.755 75.127,-22.879 94.877,2.73 19.128,24.807 9.971,70.072 -21.12,89.573 C 46.4,38.523 16.445,27.188 0,0" /></g><g
           transform="translate(903.5015,1332.9572)"
           id="g184"><path
             id="path186"
             style="fill:#843923;fill-opacity:1;fill-rule:nonzero;stroke:none"
             d="M 0,0 C -24.163,43.609 -82.48,28.907 -98.983,-8.698 -82,19.38 -50.713,27.91 -25.55,12.138 -9.999,2.377 1.035,-14.971 3.971,-34.272 6.311,-49.66 3.174,-66.915 -4.768,-77.218 4.365,-70.497 17.769,-32.067 0,0" /></g><g
           transform="translate(834.088,1308.8671)"
           id="g188"><path
             id="path190"
             style="fill:#461d14;fill-opacity:1;fill-rule:nonzero;stroke:none"
             d="M 0,0 C -6.977,-19.47 1.19,-41.656 18.238,-49.557 35.286,-57.458 54.763,-48.08 61.74,-28.614 68.716,-9.143 60.553,13.042 43.502,20.943 26.454,28.845 6.977,19.467 0,0" /></g><g
           transform="translate(836.8137,1312.2139)"
           id="g192"><path
             id="path194"
             style="fill:#fefffe;fill-opacity:1;fill-rule:nonzero;stroke:none"
             d="m 0,0 c -1.936,-5.4 0.331,-11.555 5.062,-13.746 4.73,-2.194 10.133,0.407 12.069,5.81 1.935,5.4 -0.331,11.555 -5.062,13.75 C 7.339,8.005 1.936,5.403 0,0" /></g><g
           transform="translate(670.2117,1326.2946)"
           id="g196"><path
             id="path198"
             style="fill:#f9fdfe;fill-opacity:1;fill-rule:nonzero;stroke:none"
             d="m 0,0 c 18.88,-28.379 15.992,-59.318 -1.094,-70.849 -25.749,-17.379 -86.078,-21.609 -108.15,4.33 -21.375,25.122 -10.134,70.228 25.667,89.205 C -52.234,39.299 -18.276,27.461 0,0" /></g><g
           transform="translate(558.1179,1335.7002)"
           id="g200"><path
             id="path202"
             style="fill:#843923;fill-opacity:1;fill-rule:nonzero;stroke:none"
             d="M 0,0 C 28.327,43.194 94.573,27.513 112.725,-10.368 93.856,17.993 58.328,27.047 29.352,11.703 11.445,2.208 -1.446,-14.954 -5.134,-34.203 -8.074,-49.55 -4.799,-66.857 4.075,-77.291 -6.224,-70.414 -20.83,-31.764 0,0" /></g><g
           transform="translate(602.3647,1311.5066)"
           id="g204"><path
             id="path206"
             style="fill:#461d14;fill-opacity:1;fill-rule:nonzero;stroke:none"
             d="m 0,0 c -7.929,-19.456 1.422,-41.659 20.878,-49.584 19.456,-7.929 41.656,1.421 49.584,20.877 C 78.388,-9.25 69.041,12.949 49.585,20.878 30.128,28.803 7.925,19.456 0,0" /></g><g
           transform="translate(605.47,1314.8534)"
           id="g208"><path
             id="path210"
             style="fill:#fefffe;fill-opacity:1;fill-rule:nonzero;stroke:none"
             d="m 0,0 c -2.201,-5.4 0.393,-11.559 5.793,-13.76 5.396,-2.198 11.559,0.397 13.756,5.793 2.198,5.4 -0.393,11.559 -5.793,13.757 C 8.357,7.991 2.198,5.396 0,0" /></g><g
           transform="translate(904.816,1413.0081)"
           id="g212"><path
             id="path214"
             style="fill:#752912;fill-opacity:1;fill-rule:nonzero;stroke:none"
             d="m 0,0 c -2.526,-0.038 -5.075,0.814 -7.139,2.601 -16.082,13.978 -46.451,17.4 -70.717,7.957 -5.435,-2.146 -11.645,0.597 -13.791,6.072 -2.129,5.476 0.597,11.659 6.072,13.791 31.564,12.308 70.432,7.329 92.41,-11.724 C 11.272,14.836 11.741,8.101 7.894,3.664 5.821,1.276 2.926,0.041 0,0" /></g><g
           transform="translate(555.5163,1410.7653)"
           id="g216"><path
             id="path218"
             style="fill:#752912;fill-opacity:1;fill-rule:nonzero;stroke:none"
             d="m 0,0 c -3.216,-0.028 -6.424,1.259 -8.764,3.83 -4.333,4.782 -3.981,12.19 0.797,16.541 23.649,21.461 66.188,27.864 101.233,15.133 6.066,-2.208 9.212,-8.916 7.007,-14.999 C 98.079,14.436 91.309,11.321 85.271,13.498 58.373,23.307 25.084,18.759 7.777,3.033 5.552,1.018 2.774,0.021 0,0" /></g><g
           transform="translate(763.6808,1226.0353)"
           id="g220"><path
             id="path222"
             style="fill:#c4735b;fill-opacity:1;fill-rule:nonzero;stroke:none"
             d="m 0,0 c -1.29,0.038 -2.398,1.004 -2.577,2.322 -1.263,9.371 -8.454,15.62 -18.315,15.92 -9.916,0.3 -17.645,-5.617 -19.232,-14.726 -0.259,-1.456 -1.652,-2.439 -3.105,-2.181 -1.459,0.252 -2.436,1.643 -2.181,3.106 2.03,11.662 12.18,19.542 24.681,19.166 C -8.302,23.231 1.132,14.968 2.743,3.043 2.94,1.573 1.911,0.221 0.442,0.021 Z" /></g><g
           transform="translate(489.3945,1336.9113)"
           id="g224"><path
             id="path226"
             style="fill:#ad5c49;fill-opacity:1;fill-rule:nonzero;stroke:none"
             d="m 0,0 c 0.535,-55.219 -25.819,-99 -66.301,-97.661 -40.483,1.338 -69.21,124.953 -66.057,220.368 3.613,109.275 83.874,183.039 184.886,108.126 C -46.462,176.408 -0.811,83.408 0,0" /></g><g
           transform="translate(347.6624,1242.0138)"
           id="g228"><path
             id="path230"
             style="fill:#fbc1a0;fill-opacity:1;fill-rule:nonzero;stroke:none"
             d="M 0,0 C 16.938,-62.106 77.981,-100.508 123.449,-93.876 168.917,-87.241 161.281,97.789 78.978,112.925 10.434,125.533 -15.923,58.372 0,0" /></g><g
           transform="translate(402.2774,1236.9556)"
           id="g232"><path
             id="path234"
             style="fill:#e0956c;fill-opacity:1;fill-rule:nonzero;stroke:none"
             d="m 0,0 c 3.833,-26.274 33.575,-48.191 55.761,-40.703 8.649,2.919 -6.894,94.531 -20.74,94.4 C 11.603,53.477 -3.833,26.274 0,0" /></g><g
           transform="translate(637.5684,1188.6719)"
           id="g236"><path
             id="path238"
             style="fill:#701608;fill-opacity:1;fill-rule:nonzero;stroke:none"
             d="m 0,0 c 4.237,21.547 42.045,15.837 92.32,15.281 2.629,-0.027 12.856,-0.213 15.492,-0.279 50.261,-1.284 79.81,3.623 81.793,-18.245 3.585,-39.524 -39.934,-86.058 -90.988,-85.296 l -0.887,0.018 C 42.822,-87.569 -8.153,-41.504 0,0" /></g><g
           transform="translate(681.0975,1115.8667)"
           id="g240"><path
             id="path242"
             style="fill:#dd6b5b;fill-opacity:1;fill-rule:nonzero;stroke:none"
             d="M 0,0 C 14.112,12.725 33.085,19.719 53.062,19.356 72.781,18.998 90.995,11.659 104.534,-1.204 95.218,-7.183 84.798,-11.907 73.702,-14.26 67.699,-15.53 61.388,-16.196 55.077,-16.103 l -0.883,0.014 C 40.586,-15.851 27.23,-12.79 14.95,-7.722 l -0.938,0.421 C 9.105,-5.22 4.493,-2.674 0,0" /></g><g
           transform="translate(669.5839,1204.4536)"
           id="g244"><path
             id="path246"
             style="fill:#ffffff;fill-opacity:1;fill-rule:nonzero;stroke:none"
             d="m 0,0 -0.197,0.959 c 0,0 56.24,-0.096 76.007,-0.621 18.853,-0.5 60.481,-1.87 60.481,-1.87 L 136.06,-2.484 C 132.116,-18.021 102.661,-29.238 67.53,-28.596 32.433,-27.958 3.405,-15.671 0,0" /></g><g
           transform="translate(517.5629,1211.0713)"
           id="g248"><path
             id="path250"
             style="fill:#f69597;fill-opacity:1;fill-rule:nonzero;stroke:none"
             d="m 0,0 c -0.711,-12.456 16.023,-23.542 37.377,-24.759 21.347,-1.218 39.237,7.887 39.948,20.343 C 78.039,8.039 61.298,19.125 39.955,20.343 18.597,21.564 0.711,12.452 0,0" /></g><g
           transform="translate(850.2183,1207.1897)"
           id="g252"><path
             id="path254"
             style="fill:#f69597;fill-opacity:1;fill-rule:nonzero;stroke:none"
             d="M 0,0 C 0.466,-11.086 14.315,-19.505 30.932,-18.804 47.545,-18.107 60.643,-8.557 60.177,2.526 59.712,13.608 45.858,22.03 29.248,21.333 12.628,20.633 -0.462,11.082 0,0" /></g><g
           transform="translate(465.1732,1490.264)"
           id="g256"><path
             id="path258"
             style="fill:#ad5c49;fill-opacity:1;fill-rule:nonzero;stroke:none"
             d="m 0,0 c -23.69,2.812 -47.89,6.235 -71.949,6.293 1.121,25.288 4.84,47.404 13.104,60.995 95.563,85.999 381.143,125.488 517.941,43.084 64.686,-38.968 72.97,-109.637 60.943,-162.565 -29.269,18.021 -108.651,31.764 -172.637,37.619 -10.241,15.554 -17.555,62.678 -17.555,62.678 0,0 -9.257,-41.155 -0.894,-61.291 -30.884,-0.183 -115.175,-3.889 -153.28,-5.269 -10.506,16.551 -17.435,57.445 -17.435,57.445 0,0 -7.131,-39.189 -2.242,-58.811 -8.767,-1.046 -32.733,-0.197 -43.391,-0.069 C 72.346,1.315 73.578,49.626 38.288,53.435 12.145,51.41 4.078,29.724 0,0" /></g><g
           transform="translate(420.0603,1512.905)"
           id="g260"><path
             id="path262"
             style="fill:#f49000;fill-opacity:1;fill-rule:nonzero;stroke:none"
             d="m 0,0 c 28.431,96.491 111.069,171.187 247.477,176.491 106.091,4.126 194.312,-28.98 245.867,-90.83 -64.866,51.172 -149.457,53.583 -236.389,48.142 C 143.84,126.72 54.578,70.355 0,0" /></g><g
           transform="translate(460.4325,1573.6685)"
           id="g264"><path
             id="path266"
             style="fill:#ffa10b;fill-opacity:1;fill-rule:nonzero;stroke:none"
             d="M 0,0 C 8.308,-61.454 -108.716,-134.3 -198.376,-48.787 -115.351,44.457 -58.876,33.289 0,0" /></g><g
           id="g268"><g
             id="g270" /><g
             id="g282"><g
               style="opacity:0.27999902"
               id="g280"
               clip-path="url(#clipPath274)"><g
                 id="g278"
                 transform="translate(448.8499,1572.4023)"><path
                   id="path276"
                   style="fill:#6c0b2a;fill-opacity:1;fill-rule:nonzero;stroke:none"
                   d="M 0,0 C -2.184,13.908 -56.278,12.342 -87.642,-19.957 -47.57,-51.669 6.562,-41.804 0,0" /></g></g></g></g><g
           transform="translate(444.4334,1589.0328)"
           id="g284"><path
             id="path286"
             style="fill:#ffa10b;fill-opacity:1;fill-rule:nonzero;stroke:none"
             d="M 0,0 C 72.236,-32.457 167.164,62.044 43.767,168.793 1.794,74.485 -27.395,46.973 0,0" /></g><g
           id="g288"><g
             id="g290" /><g
             id="g302"><g
               style="opacity:0.27999902"
               id="g300"
               clip-path="url(#clipPath294)"><g
                 id="g298"
                 transform="translate(459.6872,1594.5291)"><path
                   id="path296"
                   style="fill:#6c0b2a;fill-opacity:1;fill-rule:nonzero;stroke:none"
                   d="M 0,0 C -9.064,20.571 29.994,41.007 38.792,76.776 51.672,55.664 41.845,-16.969 0,0" /></g></g></g></g><g
           transform="translate(480.6134,1562.3446)"
           id="g304"><path
             id="path306"
             style="fill:#ffa10b;fill-opacity:1;fill-rule:nonzero;stroke:none"
             d="m 0,0 c -9.802,-11.635 -27.906,-13.025 -40.438,-3.105 -12.531,9.916 -14.746,27.388 -4.944,39.023 9.799,11.634 27.903,13.025 40.438,3.108 C 7.587,29.107 9.802,11.634 0,0" /></g><g
           transform="translate(751.5978,349.693)"
           id="g308"><path
             id="path310"
             style="fill:#f93d77;fill-opacity:1;fill-rule:nonzero;stroke:none"
             d="m 0,0 c -6.307,-1.591 -10.109,-8.077 -8.519,-14.388 l 22.848,5.735 C 12.739,-2.346 6.307,1.587 0,0 m -22.841,-5.759 c -6.311,-1.587 -10.116,-8.056 -8.525,-14.363 l 22.847,5.734 c -1.59,6.311 -8.015,10.22 -14.322,8.629 m -22.844,-5.755 c -6.308,-1.59 -10.12,-8.035 -8.53,-14.346 l 22.849,5.738 c -1.591,6.307 -8.009,10.195 -14.319,8.608 m -45.682,-11.517 c -3.137,-0.79 -5.646,-2.784 -7.191,-5.351 1.197,-3.637 2.173,-6.601 2.622,-7.95 l 18.873,4.737 c -1.594,6.308 -7.998,10.155 -14.304,8.564 m 22.841,5.755 c -6.308,-1.587 -10.131,-8.011 -8.537,-14.319 l 22.848,5.735 c -1.59,6.311 -8.005,10.178 -14.311,8.584 M 22.844,5.759 C 16.534,4.168 12.739,-2.346 14.329,-8.653 l 14.212,3.433 c -0.362,2.449 -0.869,6.134 -1.439,10.354 -1.449,0.197 -2.753,1.004 -4.258,0.625" /></g><g
           transform="translate(799.0432,221.7104)"
           id="g312"><path
             id="path314"
             style="fill:#fff8b3;fill-opacity:1;fill-rule:nonzero;stroke:none"
             d="m 0,0 c 0.421,-3.419 -108.105,-26.34 -109.589,-22.444 -12.386,32.519 -30.107,101.605 -33.792,114.095 l 124.477,31.111 C -13.66,86.945 -2.715,21.892 0,0" /></g><g
           transform="translate(765.0092,287.3319)"
           id="g316"><path
             id="path318"
             style="fill:#fff8b3;fill-opacity:1;fill-rule:nonzero;stroke:none"
             d="m 0,0 c -3.982,7.353 -73.547,-26.954 -87.579,-28.444 4.861,-18.253 2.815,-50.513 10.413,-75.031 5.289,-17.069 23.176,-25.515 39.685,-23.845 63.748,6.438 233.428,19.418 227.655,65.925 C 185.437,-23.224 81.879,-22.976 0,0" /></g><g
           transform="translate(675.6046,227.3102)"
           id="g320"><path
             id="path322"
             style="fill:#f93d77;fill-opacity:1;fill-rule:nonzero;stroke:none"
             d="m 0,0 c 0.7,1.67 3.685,2.664 6.562,1.115 17.266,-4.355 43.309,-6.439 64.411,-6.86 7.187,-0.145 14.181,0.18 20.94,0.884 0.818,20.86 10.568,48.338 22.876,61.991 2.57,2.871 6.897,2.885 9.678,0.107 2.781,-2.784 2.953,-7.369 0.383,-10.206 -9.492,-10.52 -17.524,-32.56 -19.07,-49.615 41.77,6.59 72.484,15.913 79.978,46.075 C 240.422,29.607 291.99,34.407 299.698,2.764 309.166,-36.107 21.723,-79.326 21.723,-79.326 15.623,-56.071 5.31,-20.974 0,0" /></g><g
           transform="translate(692.8632,161.8232)"
           id="g324"><path
             id="path326"
             style="fill:#b52652;fill-opacity:1;fill-rule:nonzero;stroke:none"
             d="m 0,0 c 1.539,-5.113 2.984,-10.058 4.148,-14.488 0,0 252.031,25.464 279.364,70.49 0.977,1.611 0.732,8.174 -0.507,9.954 C 220.33,31.581 63.355,8.215 0,0" /></g><g
           transform="translate(660.6165,295.3436)"
           id="g328"><path
             id="path330"
             style="fill:#f93d77;fill-opacity:1;fill-rule:nonzero;stroke:none"
             d="m 0,0 c 51.223,10.444 72.633,16.427 122.317,30.69 -0.286,1.826 -0.562,3.644 -0.835,5.4 C 71.352,21.703 50.092,15.737 -1.421,5.227 -0.949,3.481 -0.538,1.987 0,0" /></g><g
           transform="translate(227.6673,396.3826)"
           id="g332"><path
             id="path334"
             style="fill:#f93d77;fill-opacity:1;fill-rule:nonzero;stroke:none"
             d="M 0,0 C 1.608,6.3 -2.28,12.739 -8.584,14.35 L -14.44,-8.467 C -8.139,-10.078 -1.611,-6.304 0,0 M 5.831,22.82 C 7.442,29.128 3.575,35.556 -2.733,37.167 L -8.584,14.35 C -2.28,12.739 4.22,16.52 5.831,22.82 m 5.835,22.828 c 1.607,6.3 -2.24,12.724 -8.543,14.336 L -2.733,37.167 c 6.308,-1.611 12.784,2.177 14.399,8.481 m 11.662,45.644 c 0.797,3.133 0.241,6.29 -1.277,8.874 -3.767,0.68 -6.838,1.232 -8.236,1.484 L 8.978,82.801 c 6.304,-1.608 12.738,2.191 14.35,8.491 m -5.835,-22.82 c 1.611,6.3 -2.211,12.721 -8.515,14.329 L 3.123,59.984 c 6.303,-1.612 12.762,2.184 14.37,8.488 M -5.834,-22.827 c 1.611,6.307 -2.305,12.749 -8.606,14.36 l -3.76,-14.129 c 2.326,-0.849 5.81,-2.163 9.788,-3.675 0.863,1.18 2.195,1.943 2.578,3.444" /></g><g
           transform="translate(92.5499,415.7113)"
           id="g336"><path
             id="path338"
             style="fill:#fff8b3;fill-opacity:1;fill-rule:nonzero;stroke:none"
             d="M 0,0 C -3.209,1.256 28.399,107.581 32.529,107.025 67.019,102.409 136.194,85.04 148.932,82.321 L 116.917,-41.925 C 82.935,-29.455 20.536,-8.057 0,0" /></g><g
           transform="translate(166.4587,414.3346)"
           id="g340"><path
             id="path342"
             style="fill:#fff8b3;fill-opacity:1;fill-rule:nonzero;stroke:none"
             d="m 0,0 c 8.36,-0.01 11.379,77.494 16.758,90.54 -18.362,4.433 -45.741,21.616 -70.914,26.626 -17.528,3.492 -33.479,-8.205 -39.882,-23.511 -24.743,-59.103 -94.246,-214.437 -50.613,-231.54 C -108.844,-151.924 -59.242,-61.019 0,0" /></g><g
           transform="translate(156.332,521.536)"
           id="g344"><path
             id="path346"
             style="fill:#f93d77;fill-opacity:1;fill-rule:nonzero;stroke:none"
             d="m 0,0 c 1.135,-1.411 0.583,-4.51 -2.15,-6.297 -12.062,-13.101 -26.312,-34.996 -36.742,-53.345 -3.554,-6.249 -6.603,-12.549 -9.212,-18.829 17.948,-10.661 37.449,-32.336 43.584,-49.667 1.294,-3.626 -0.756,-7.439 -4.523,-8.557 -3.775,-1.118 -7.884,0.918 -9.154,4.531 -4.717,13.359 -20.264,30.932 -34.513,40.42 -14.129,-39.858 -20.582,-71.301 2.36,-92.272 -38.274,-41.424 -58.645,-89.039 -90.136,-80.727 -38.682,10.213 60.401,283.478 60.401,283.478 C -56.734,13.008 -20.968,5.334 0,0" /></g><g
           transform="translate(90.5413,537.5972)"
           id="g348"><path
             id="path350"
             style="fill:#b52652;fill-opacity:1;fill-rule:nonzero;stroke:none"
             d="m 0,0 c -5.227,1.087 -10.265,2.174 -14.712,3.264 0,0 -97.803,-233.673 -71.262,-279.172 0.951,-1.625 6.838,-4.541 8.994,-4.299 C -77.311,-208.723 -22.993,-59.604 0,0" /></g><g
           transform="translate(223.2823,502.2694)"
           id="g352"><path
             id="path354"
             style="fill:#f93d77;fill-opacity:1;fill-rule:nonzero;stroke:none"
             d="m 0,0 c -15.247,-50.005 -20.198,-71.673 -31.357,-122.148 1.743,-0.621 3.475,-1.246 5.148,-1.843 11.258,50.924 16.151,72.457 31.481,122.749 C 3.509,-0.828 2.004,-0.473 0,0" /></g><g
           id="g356"><g
             id="g358" /><g
             id="g370"><g
               style="opacity:0.38999903"
               id="g368"
               clip-path="url(#clipPath362)"><g
                 id="g366"
                 transform="translate(527.3721,832.2507)"><path
                   id="path364"
                   style="fill:#ffffff;fill-opacity:1;fill-rule:nonzero;stroke:none"
                   d="m 0,0 c 4.592,22.548 22.575,32.071 42.611,28.541 14.243,-2.508 24.225,-17.838 27.855,-32.388 8.381,12.435 23,23.431 37.242,20.923 20.037,-3.53 33.593,-18.608 30.298,-41.383 -4.786,-33.065 -83.984,-72.892 -83.984,-72.892 0,0 -61.689,59.591 -54.022,97.199" /></g></g></g></g><g
           id="g372"><g
             id="g374" /><g
             id="g386"><g
               style="opacity:0.11000103"
               id="g384"
               clip-path="url(#clipPath378)"><g
                 id="g382"
                 transform="translate(1128.6001,50.1848)"><path
                   id="path380"
                   style="fill:#000000;fill-opacity:1;fill-rule:nonzero;stroke:none"
                   d="m 0,0 c 0,-27.716 -246.394,-50.185 -550.343,-50.185 -303.945,0 -550.339,22.469 -550.339,50.185 0,27.716 246.394,50.185 550.339,50.185 C -246.394,50.185 0,27.716 0,0" /></g></g></g></g></g></g></g></svg>