<?xml version="1.0" encoding="UTF-8" standalone="no"?>
<!DOCTYPE svg PUBLIC "-//W3C//DTD SVG 1.1//EN" "http://www.w3.org/Graphics/SVG/1.1/DTD/svg11.dtd">
<svg xmlns="http://www.w3.org/2000/svg" xmlns:xlink="http://www.w3.org/1999/xlink" version="1.1" width="128pt" height="128.21pt" viewBox="0 0 128 128.21">
<g enable-background="new">
<g>
<g id="Layer-1" data-name="Layer 1">
<clipPath id="cp0">
<path transform="matrix(1,0,0,-1,0,128.21)" d="M 0 128.21 L 128 128.21 L 128 0 L 0 0 Z "/>
</clipPath>
<g clip-path="url(#cp0)">
<path transform="matrix(1,0,0,-1,64,17.104905)" d="M 0 0 C 25.957 0 47 -21.043 47 -47 C 47 -72.957 25.957 -94 0 -94 C -25.957 -94 -47 -72.957 -47 -47 C -47 -21.043 -25.957 0 0 0 " fill="#f93d77"/>
<path transform="matrix(1,0,0,-1,97,42.104906)" d="M 0 0 C 0 2.209 -1.791 4 -4 4 C -6.209 4 -8 2.209 -8 0 Z M -8 -13 C -8 -15.209 -6.209 -17 -4 -17 C -1.791 -17 0 -15.209 0 -13 Z M -8 -13 L 0 -13 L 0 0 L -8 0 Z " fill="#245080"/>
<path transform="matrix(1,0,0,-1,93,59.104906)" d="M 0 0 C 2.209 0 4 1.791 4 4 C 4 6.209 2.209 8 0 8 Z M -14 8 C -16.209 8 -18 6.209 -18 4 C -18 1.791 -16.209 0 -14 0 Z M 0 8 L -14 8 L -14 0 L 0 0 Z " fill="#245080"/>
</g>
<clipPath id="cp1">
<path transform="matrix(1,0,0,-1,0,128.21)" d="M 0 64.105 C 0 28.759 28.654 .105 64 .105 C 99.346 .105 128 28.759 128 64.105 C 128 99.451 99.346 128.105 64 128.105 C 28.654 128.105 0 99.451 0 64.105 "/>
</clipPath>
<g clip-path="url(#cp1)">
<path transform="matrix(1,0,0,-1,118,64.104907)" d="M 0 0 C 0 -29.823 -24.177 -54 -54 -54 L -54 -74 C -13.131 -74 20 -40.869 20 0 Z M -54 -54 C -83.823 -54 -108 -29.823 -108 0 L -128 0 C -128 -40.869 -94.869 -74 -54 -74 Z M -108 0 C -108 29.823 -83.823 54 -54 54 L -54 74 C -94.869 74 -128 40.869 -128 0 Z M -54 54 C -24.177 54 0 29.823 0 0 L 20 0 C 20 40.869 -13.131 74 -54 74 Z " fill="#70ad47"/>
</g>
<clipPath id="cp2">
<path transform="matrix(1,0,0,-1,0,128.21)" d="M 0 128.21 L 128 128.21 L 128 0 L 0 0 Z "/>
</clipPath>
<g clip-path="url(#cp2)">
<path transform="matrix(1,0,0,-1,84.6213,83.73971)" d="M 0 0 L -2.964 2.686 Z M -38.084 -3.768 L -35.703 -.554 Z M -49.069 13.55 L -52.991 12.766 Z M -45.583 33.76 L -49.016 35.812 Z M -29.431 46.396 L -28.264 42.57 Z M -8.976 44.917 L -10.681 41.299 Z M 3.379 19.135 C 3.379 13.055 1.118 7.192 -2.964 2.686 L 2.964 -2.686 C 8.38 3.292 11.379 11.069 11.379 19.135 Z M -2.964 2.686 C -7.047 -1.82 -12.658 -4.648 -18.709 -5.246 L -17.921 -13.207 C -9.895 -12.413 -2.451 -8.663 2.964 -2.686 Z M -18.709 -5.246 C -24.76 -5.845 -30.817 -4.172 -35.703 -.554 L -40.464 -6.982 C -33.983 -11.783 -25.948 -14.001 -17.921 -13.207 Z M -35.703 -.554 C -40.589 3.065 -43.955 8.371 -45.146 14.334 L -52.991 12.766 C -51.411 4.857 -46.946 -2.182 -40.464 -6.982 Z M -45.146 14.334 C -46.338 20.296 -45.27 26.488 -42.15 31.707 L -49.016 35.812 C -53.155 28.89 -54.572 20.675 -52.991 12.766 Z M -42.15 31.707 C -39.03 36.926 -34.081 40.798 -28.264 42.57 L -30.597 50.223 C -38.312 47.871 -44.877 42.735 -49.016 35.812 Z M -28.264 42.57 C -22.448 44.343 -16.181 43.89 -10.681 41.299 L -7.271 48.536 C -14.568 51.973 -22.882 52.574 -30.597 50.223 Z M -10.681 41.299 C -5.18 38.708 -.84 34.164 1.497 28.551 L 8.883 31.625 C 5.783 39.071 .025 45.099 -7.271 48.536 Z " fill="#245080"/>
</g>
</g>
</g>
</g>
</svg>
