<?xml version="1.0" encoding="UTF-8" standalone="no"?>
<!DOCTYPE svg PUBLIC "-//W3C//DTD SVG 1.1//EN" "http://www.w3.org/Graphics/SVG/1.1/DTD/svg11.dtd">
<svg xmlns="http://www.w3.org/2000/svg" xmlns:xlink="http://www.w3.org/1999/xlink" version="1.1" width="128pt" height="128.21pt" viewBox="0 0 128 128.21">
<g enable-background="new">
<g>
<g id="Layer-1" data-name="Layer 1">
<clipPath id="cp0">
<path transform="matrix(1,0,0,-1,0,128.21)" d="M 0 128.21 L 128 128.21 L 128 0 L 0 0 Z "/>
</clipPath>
<g clip-path="url(#cp0)">
<path transform="matrix(1,0,0,-1,111,64.104907)" d="M 0 0 C 0 -25.957 -21.043 -47 -47 -47 C -72.957 -47 -94 -25.957 -94 0 C -94 25.957 -72.957 47 -47 47 C -21.043 47 0 25.957 0 0 " fill="#ffa4c0"/>
<path transform="matrix(1,0,0,-1,96,78.104907)" d="M 0 0 C 0 2.209 -1.791 4 -4 4 C -6.209 4 -8 2.209 -8 0 Z M -8 -13 C -8 -15.209 -6.209 -17 -4 -17 C -1.791 -17 0 -15.209 0 -13 Z M -8 -13 L 0 -13 L 0 0 L -8 0 Z " fill="#56799f"/>
<path transform="matrix(1,0,0,-1,92,95.104907)" d="M 0 0 C 2.209 0 4 1.791 4 4 C 4 6.209 2.209 8 0 8 Z M -14 8 C -16.209 8 -18 6.209 -18 4 C -18 1.791 -16.209 0 -14 0 Z M 0 8 L -14 8 L -14 0 L 0 0 Z " fill="#56799f"/>
<path transform="matrix(1,0,0,-1,41,60.104906)" d="M 0 0 C -2.209 0 -4 -1.791 -4 -4 C -4 -6.209 -2.209 -8 0 -8 Z M 46 -8 C 48.209 -8 50 -6.209 50 -4 C 50 -1.791 48.209 0 46 0 Z M 0 -8 L 46 -8 L 46 0 L 0 0 Z " fill="#56799f"/>
<path transform="matrix(1,0,0,-1,69,41.104906)" d="M 0 0 C 0 2.209 -1.791 4 -4 4 C -6.209 4 -8 2.209 -8 0 Z M -8 -46 C -8 -48.209 -6.209 -50 -4 -50 C -1.791 -50 0 -48.209 0 -46 Z M -8 -46 L 0 -46 L 0 0 L -8 0 Z " fill="#56799f"/>
</g>
<clipPath id="cp1">
<path transform="matrix(1,0,0,-1,0,128.21)" d="M 0 64.105 C 0 28.759 28.654 .105 64 .105 C 99.346 .105 128 28.759 128 64.105 C 128 99.451 99.346 128.105 64 128.105 C 28.654 128.105 0 99.451 0 64.105 "/>
</clipPath>
<g clip-path="url(#cp1)">
<path transform="matrix(1,0,0,-1,118,64.104907)" d="M 0 0 C 0 -29.823 -24.177 -54 -54 -54 L -54 -74 C -13.131 -74 20 -40.869 20 0 Z M -54 -54 C -83.823 -54 -108 -29.823 -108 0 L -128 0 C -128 -40.869 -94.869 -74 -54 -74 Z M -108 0 C -108 29.823 -83.823 54 -54 54 L -54 74 C -94.869 74 -128 40.869 -128 0 Z M -54 54 C -24.177 54 0 29.823 0 0 L 20 0 C 20 40.869 -13.131 74 -54 74 Z " fill="#c4c4c4"/>
</g>
</g>
</g>
</g>
</svg>
