<?xml version="1.0" encoding="UTF-8"?>
<svg xmlns="http://www.w3.org/2000/svg" xmlns:xlink="http://www.w3.org/1999/xlink" width="302.172pt" height="302.172pt" viewBox="0 0 302.172 302.172" version="1.1">
<defs>
<clipPath id="clip1">
  <path d="M 213 0 L 302.171875 0 L 302.171875 302.171875 L 213 302.171875 Z M 213 0 "/>
</clipPath>
<clipPath id="clip2">
  <path d="M 3.542969 118.414062 C 1.800781 131.917969 0.683594 145.652344 0.230469 159.519531 C 4.609375 239.035156 70.476562 302.171875 151.085938 302.171875 C 234.527344 302.171875 302.171875 234.527344 302.171875 151.085938 C 302.171875 67.644531 234.527344 0 151.085938 0 C 78.863281 0 18.476562 50.683594 3.542969 118.414062 "/>
</clipPath>
<clipPath id="clip3">
  <path d="M 116 142 L 302.171875 142 L 302.171875 302.171875 L 116 302.171875 Z M 116 142 "/>
</clipPath>
<clipPath id="clip4">
  <path d="M 3.542969 118.414062 C 1.800781 131.917969 0.683594 145.652344 0.230469 159.519531 C 4.609375 239.035156 70.476562 302.171875 151.085938 302.171875 C 234.527344 302.171875 302.171875 234.527344 302.171875 151.085938 C 302.171875 67.644531 234.527344 0 151.085938 0 C 78.863281 0 18.476562 50.683594 3.542969 118.414062 "/>
</clipPath>
<clipPath id="clip5">
  <path d="M 226 203 L 302.171875 203 L 302.171875 302.171875 L 226 302.171875 Z M 226 203 "/>
</clipPath>
<clipPath id="clip6">
  <path d="M 3.542969 118.414062 C 1.800781 131.917969 0.683594 145.652344 0.230469 159.519531 C 4.609375 239.035156 70.476562 302.171875 151.085938 302.171875 C 234.527344 302.171875 302.171875 234.527344 302.171875 151.085938 C 302.171875 67.644531 234.527344 0 151.085938 0 C 78.863281 0 18.476562 50.683594 3.542969 118.414062 "/>
</clipPath>
<clipPath id="clip7">
  <path d="M 19 47 L 178 47 L 178 201 L 19 201 Z M 19 47 "/>
</clipPath>
<clipPath id="clip8">
  <path d="M 3.542969 118.414062 C 1.800781 131.917969 0.683594 145.652344 0.230469 159.519531 C 4.609375 239.035156 70.476562 302.171875 151.085938 302.171875 C 234.527344 302.171875 302.171875 234.527344 302.171875 151.085938 C 302.171875 67.644531 234.527344 0 151.085938 0 C 78.863281 0 18.476562 50.683594 3.542969 118.414062 "/>
</clipPath>
<clipPath id="clip9">
  <path d="M 275 246 L 302.171875 246 L 302.171875 302.171875 L 275 302.171875 Z M 275 246 "/>
</clipPath>
<clipPath id="clip10">
  <path d="M 3.542969 118.414062 C 1.800781 131.917969 0.683594 145.652344 0.230469 159.519531 C 4.609375 239.035156 70.476562 302.171875 151.085938 302.171875 C 234.527344 302.171875 302.171875 234.527344 302.171875 151.085938 C 302.171875 67.644531 234.527344 0 151.085938 0 C 78.863281 0 18.476562 50.683594 3.542969 118.414062 "/>
</clipPath>
<clipPath id="clip11">
  <path d="M 222 0 L 302.171875 0 L 302.171875 161 L 222 161 Z M 222 0 "/>
</clipPath>
<clipPath id="clip12">
  <path d="M 3.542969 118.414062 C 1.800781 131.917969 0.683594 145.652344 0.230469 159.519531 C 4.609375 239.035156 70.476562 302.171875 151.085938 302.171875 C 234.527344 302.171875 302.171875 234.527344 302.171875 151.085938 C 302.171875 67.644531 234.527344 0 151.085938 0 C 78.863281 0 18.476562 50.683594 3.542969 118.414062 "/>
</clipPath>
<clipPath id="clip13">
  <path d="M 262 61 L 302.171875 61 L 302.171875 132 L 262 132 Z M 262 61 "/>
</clipPath>
<clipPath id="clip14">
  <path d="M 3.542969 118.414062 C 1.800781 131.917969 0.683594 145.652344 0.230469 159.519531 C 4.609375 239.035156 70.476562 302.171875 151.085938 302.171875 C 234.527344 302.171875 302.171875 234.527344 302.171875 151.085938 C 302.171875 67.644531 234.527344 0 151.085938 0 C 78.863281 0 18.476562 50.683594 3.542969 118.414062 "/>
</clipPath>
<clipPath id="clip15">
  <path d="M 255 0 L 302.171875 0 L 302.171875 195 L 255 195 Z M 255 0 "/>
</clipPath>
<clipPath id="clip16">
  <path d="M 3.542969 118.414062 C 1.800781 131.917969 0.683594 145.652344 0.230469 159.519531 C 4.609375 239.035156 70.476562 302.171875 151.085938 302.171875 C 234.527344 302.171875 302.171875 234.527344 302.171875 151.085938 C 302.171875 67.644531 234.527344 0 151.085938 0 C 78.863281 0 18.476562 50.683594 3.542969 118.414062 "/>
</clipPath>
<clipPath id="clip17">
  <path d="M 296 0 L 302.171875 0 L 302.171875 252 L 296 252 Z M 296 0 "/>
</clipPath>
<clipPath id="clip18">
  <path d="M 3.542969 118.414062 C 1.800781 131.917969 0.683594 145.652344 0.230469 159.519531 C 4.609375 239.035156 70.476562 302.171875 151.085938 302.171875 C 234.527344 302.171875 302.171875 234.527344 302.171875 151.085938 C 302.171875 67.644531 234.527344 0 151.085938 0 C 78.863281 0 18.476562 50.683594 3.542969 118.414062 "/>
</clipPath>
<clipPath id="clip19">
  <path d="M 244 0 L 302.171875 0 L 302.171875 103 L 244 103 Z M 244 0 "/>
</clipPath>
<clipPath id="clip20">
  <path d="M 3.542969 118.414062 C 1.800781 131.917969 0.683594 145.652344 0.230469 159.519531 C 4.609375 239.035156 70.476562 302.171875 151.085938 302.171875 C 234.527344 302.171875 302.171875 234.527344 302.171875 151.085938 C 302.171875 67.644531 234.527344 0 151.085938 0 C 78.863281 0 18.476562 50.683594 3.542969 118.414062 "/>
</clipPath>
</defs>
<g id="surface1">
<g clip-path="url(#clip1)" clip-rule="nonzero">
<g clip-path="url(#clip2)" clip-rule="nonzero">
<path style=" stroke:none;fill-rule:nonzero;fill:rgb(67.799377%,36.099243%,28.599548%);fill-opacity:1;" d="M 243.132812 337.839844 C 197.613281 224.589844 205.800781 92.664062 264.980469 -85.476562 L 265.980469 -80.210938 C 266.832031 -83.449219 267.625 -86.621094 268.511719 -89.894531 L 708.75 -77.558594 C 709.414062 -74.316406 710.046875 -71.179688 710.695312 -67.976562 L 715.550781 -71.007812 C 770.8125 111.292969 775.4375 220.523438 771.066406 288.875 C 769.359375 256.210938 765.628906 141.695312 719.710938 -23.054688 C 760.878906 184.90625 774.078125 298.410156 732.761719 333.507812 C 759.011719 288.875 737.179688 164.992188 730.699219 149.367188 C 730.675781 193.917969 737.253906 279.042969 713.28125 343.78125 C 605.832031 403.089844 358.769531 393.003906 296.675781 357.25 C 293.921875 351.933594 286.265625 226.867188 284.53125 209.566406 C 280.941406 215.53125 283.476562 351.492188 282.074219 357.140625 C 243.78125 321.335938 208.1875 211.300781 245.230469 11.671875 C 211.390625 147.960938 222.785156 249.933594 243.132812 337.839844 "/>
</g>
</g>
<g clip-path="url(#clip3)" clip-rule="nonzero">
<g clip-path="url(#clip4)" clip-rule="nonzero">
<path style=" stroke:none;fill-rule:nonzero;fill:rgb(100%,75.698853%,62.399292%);fill-opacity:1;" d="M 116.816406 187.871094 C 111.308594 184.097656 143.71875 139.414062 149.464844 142.851562 C 235.40625 194.265625 346.621094 252.332031 370.402344 262.71875 L 330.0625 322.746094 C 281.074219 292.179688 189.574219 237.753906 116.816406 187.871094 "/>
</g>
</g>
<g clip-path="url(#clip5)" clip-rule="nonzero">
<g clip-path="url(#clip6)" clip-rule="nonzero">
<path style=" stroke:none;fill-rule:nonzero;fill:rgb(98.799133%,25.898743%,45.098877%);fill-opacity:1;" d="M 269.898438 203.957031 C 257.839844 224.816406 237.527344 273.25 226.449219 295.652344 C 272.578125 322.273438 311.328125 341.488281 315.21875 341.300781 C 355.710938 339.347656 389.648438 263.234375 393.003906 259.214844 C 368.269531 249.644531 315.574219 228.570312 269.898438 203.957031 "/>
</g>
</g>
<g clip-path="url(#clip7)" clip-rule="nonzero">
<g clip-path="url(#clip8)" clip-rule="nonzero">
<path style=" stroke:none;fill-rule:nonzero;fill:rgb(100%,75.698853%,62.399292%);fill-opacity:1;" d="M 74.121094 167.511719 C 72.085938 170.8125 66.144531 171.675781 56.917969 173.339844 C 48.929688 174.777344 36.875 176.570312 32.578125 180.96875 C 27.992188 185.667969 32.984375 190.320312 42.355469 191.921875 C 57.832031 194.5625 92.996094 199.265625 110.613281 200.347656 C 140.515625 204.109375 170.234375 183.609375 172.894531 155.441406 C 176.882812 113.199219 175.84375 96.570312 177.34375 70.519531 C 177.710938 64.101562 164.199219 68.988281 160.386719 76.929688 C 152.222656 93.921875 154.933594 100.351562 150.042969 108.722656 C 145.273438 116.882812 137.910156 114.359375 130.871094 108.550781 C 104.960938 70.664062 94.113281 46.085938 80.351562 47.878906 C 69.242188 51.152344 83.585938 79.675781 101.226562 111.09375 C 70.671875 86.628906 44.148438 69.53125 39.007812 78.441406 C 32.925781 88.984375 58.851562 110.589844 80.726562 132.339844 C 51 129.421875 21.027344 117.925781 19.488281 133.488281 C 18.359375 144.863281 79.839844 158.203125 74.121094 167.511719 "/>
</g>
</g>
<g clip-path="url(#clip9)" clip-rule="nonzero">
<g clip-path="url(#clip10)" clip-rule="nonzero">
<path style=" stroke:none;fill-rule:nonzero;fill:rgb(98.799133%,25.898743%,45.098877%);fill-opacity:1;" d="M 565.734375 572.210938 C 474.3125 598.5 353.144531 579.757812 275.199219 542.960938 C 286.636719 505.097656 318.3125 296.25 329.445312 246.8125 C 381.960938 254.722656 503.917969 265.523438 558.957031 278.046875 C 563.070312 349.90625 561.621094 472.386719 565.734375 572.210938 "/>
</g>
</g>
<g clip-path="url(#clip11)" clip-rule="nonzero">
<g clip-path="url(#clip12)" clip-rule="nonzero">
<path style=" stroke:none;fill-rule:nonzero;fill:rgb(100%,75.698853%,62.399292%);fill-opacity:1;" d="M 223.421875 77.960938 C 227.707031 124.46875 266.480469 159.589844 299.804688 160.578125 C 333.125 161.566406 345.390625 125.988281 346.695312 82.070312 C 347.996094 38.15625 322.039062 1.636719 288.714844 0.761719 C 243.160156 -0.429688 219.398438 34.246094 223.421875 77.960938 "/>
</g>
</g>
<g clip-path="url(#clip13)" clip-rule="nonzero">
<g clip-path="url(#clip14)" clip-rule="nonzero">
<path style=" stroke:none;fill-rule:nonzero;fill:rgb(87.799072%,58.399963%,42.399597%);fill-opacity:1;" d="M 262.367188 95.53125 C 261.800781 114.789062 275.105469 130.808594 292.089844 131.3125 C 309.066406 131.8125 323.300781 116.609375 323.863281 97.351562 C 324.433594 78.097656 311.128906 62.082031 294.15625 61.578125 C 277.167969 61.070312 262.941406 76.277344 262.367188 95.53125 "/>
</g>
</g>
<g clip-path="url(#clip15)" clip-rule="nonzero">
<g clip-path="url(#clip16)" clip-rule="nonzero">
<path style=" stroke:none;fill-rule:nonzero;fill:rgb(67.799377%,36.099243%,28.599548%);fill-opacity:1;" d="M 714.613281 15.320312 C 689.800781 161.480469 586.109375 211.515625 456.527344 189.519531 C 326.945312 167.523438 234.824219 84.316406 259.636719 -61.84375 C 284.445312 -208.003906 393.488281 -224.488281 523.070312 -202.488281 C 652.652344 -180.492188 739.425781 -130.84375 714.613281 15.320312 "/>
</g>
</g>
<g clip-path="url(#clip17)" clip-rule="nonzero">
<g clip-path="url(#clip18)" clip-rule="nonzero">
<path style=" stroke:none;fill-rule:nonzero;fill:rgb(100%,75.698853%,62.399292%);fill-opacity:1;" d="M 676.828125 -51.941406 C 683.726562 -25.566406 639.722656 189.277344 609.640625 215.15625 C 577.734375 242.613281 464.964844 254.9375 442.355469 251.097656 C 418.132812 246.988281 317.40625 201.679688 302.886719 163.085938 C 285.710938 117.417969 307.5625 -76.640625 319.179688 -98.210938 C 358.429688 -171.0625 426.105469 -162.253906 514.046875 -147.324219 C 596.316406 -133.355469 658.929688 -120.386719 676.828125 -51.941406 "/>
</g>
</g>
<g clip-path="url(#clip19)" clip-rule="nonzero">
<g clip-path="url(#clip20)" clip-rule="nonzero">
<path style=" stroke:none;fill-rule:nonzero;fill:rgb(67.799377%,36.099243%,28.599548%);fill-opacity:1;" d="M 715.898438 58.023438 C 691.578125 45.929688 691.992188 18.824219 695.445312 -23.832031 C 710.464844 -25.40625 705.605469 -131.992188 637.847656 -173.695312 C 549.21875 -228.253906 428.859375 -231.820312 373.441406 -202.558594 C 314.433594 -171.40625 298.464844 -124.746094 281.605469 -68.753906 C 267.921875 -23.308594 281.980469 13.039062 244.023438 36.089844 C 283.503906 42.632812 311.347656 13.472656 321.890625 -15.152344 C 333.601562 -46.945312 322.335938 -79.074219 328.828125 -91.316406 C 332.585938 -98.402344 379.554688 -125.6875 390.5625 -124.78125 C 414.546875 -122.804688 426.078125 -52.371094 510.859375 -44.234375 C 478.878906 -66.960938 463.324219 -95.777344 448.917969 -135.988281 C 455.085938 -131.175781 461.171875 -125.496094 467.074219 -118.753906 C 529.230469 -47.765625 603.417969 -22.515625 663.707031 -21.082031 C 658.875 41.878906 626.628906 70.355469 699.300781 102.636719 C 693.460938 93.171875 686.480469 65.933594 687.402344 45.128906 C 694.890625 51.160156 700.636719 68.628906 715.898438 58.023438 "/>
</g>
</g>
</g>
</svg>
