<?xml version="1.0" encoding="UTF-8"?>
<svg xmlns="http://www.w3.org/2000/svg" xmlns:xlink="http://www.w3.org/1999/xlink" width="302.172pt" height="302.172pt" viewBox="0 0 302.172 302.172" version="1.1">
<defs>
<clipPath id="clip1">
  <path d="M 0 0 L 89 0 L 89 302.171875 L 0 302.171875 Z M 0 0 "/>
</clipPath>
<clipPath id="clip2">
  <path d="M 0 151.085938 C 0 234.527344 67.644531 302.171875 151.085938 302.171875 C 231.695312 302.171875 297.5625 239.035156 301.941406 159.519531 C 301.488281 145.652344 300.371094 131.917969 298.632812 118.414062 C 283.695312 50.683594 223.308594 0 151.085938 0 C 67.644531 0 0 67.644531 0 151.085938 "/>
</clipPath>
<clipPath id="clip3">
  <path d="M 0 142 L 186 142 L 186 302.171875 L 0 302.171875 Z M 0 142 "/>
</clipPath>
<clipPath id="clip4">
  <path d="M 0 151.085938 C 0 234.527344 67.644531 302.171875 151.085938 302.171875 C 231.695312 302.171875 297.5625 239.035156 301.941406 159.519531 C 301.488281 145.652344 300.371094 131.917969 298.632812 118.414062 C 283.695312 50.683594 223.308594 0 151.085938 0 C 67.644531 0 0 67.644531 0 151.085938 "/>
</clipPath>
<clipPath id="clip5">
  <path d="M 0 203 L 76 203 L 76 302.171875 L 0 302.171875 Z M 0 203 "/>
</clipPath>
<clipPath id="clip6">
  <path d="M 0 151.085938 C 0 234.527344 67.644531 302.171875 151.085938 302.171875 C 231.695312 302.171875 297.5625 239.035156 301.941406 159.519531 C 301.488281 145.652344 300.371094 131.917969 298.632812 118.414062 C 283.695312 50.683594 223.308594 0 151.085938 0 C 67.644531 0 0 67.644531 0 151.085938 "/>
</clipPath>
<clipPath id="clip7">
  <path d="M 124 47 L 283 47 L 283 201 L 124 201 Z M 124 47 "/>
</clipPath>
<clipPath id="clip8">
  <path d="M 0 151.085938 C 0 234.527344 67.644531 302.171875 151.085938 302.171875 C 231.695312 302.171875 297.5625 239.035156 301.941406 159.519531 C 301.488281 145.652344 300.371094 131.917969 298.632812 118.414062 C 283.695312 50.683594 223.308594 0 151.085938 0 C 67.644531 0 0 67.644531 0 151.085938 "/>
</clipPath>
<clipPath id="clip9">
  <path d="M 0 246 L 27 246 L 27 302.171875 L 0 302.171875 Z M 0 246 "/>
</clipPath>
<clipPath id="clip10">
  <path d="M 0 151.085938 C 0 234.527344 67.644531 302.171875 151.085938 302.171875 C 231.695312 302.171875 297.5625 239.035156 301.941406 159.519531 C 301.488281 145.652344 300.371094 131.917969 298.632812 118.414062 C 283.695312 50.683594 223.308594 0 151.085938 0 C 67.644531 0 0 67.644531 0 151.085938 "/>
</clipPath>
<clipPath id="clip11">
  <path d="M 0 0 L 80 0 L 80 161 L 0 161 Z M 0 0 "/>
</clipPath>
<clipPath id="clip12">
  <path d="M 0 151.085938 C 0 234.527344 67.644531 302.171875 151.085938 302.171875 C 231.695312 302.171875 297.5625 239.035156 301.941406 159.519531 C 301.488281 145.652344 300.371094 131.917969 298.632812 118.414062 C 283.695312 50.683594 223.308594 0 151.085938 0 C 67.644531 0 0 67.644531 0 151.085938 "/>
</clipPath>
<clipPath id="clip13">
  <path d="M 0 61 L 40 61 L 40 132 L 0 132 Z M 0 61 "/>
</clipPath>
<clipPath id="clip14">
  <path d="M 0 151.085938 C 0 234.527344 67.644531 302.171875 151.085938 302.171875 C 231.695312 302.171875 297.5625 239.035156 301.941406 159.519531 C 301.488281 145.652344 300.371094 131.917969 298.632812 118.414062 C 283.695312 50.683594 223.308594 0 151.085938 0 C 67.644531 0 0 67.644531 0 151.085938 "/>
</clipPath>
<clipPath id="clip15">
  <path d="M 0 0 L 47 0 L 47 195 L 0 195 Z M 0 0 "/>
</clipPath>
<clipPath id="clip16">
  <path d="M 0 151.085938 C 0 234.527344 67.644531 302.171875 151.085938 302.171875 C 231.695312 302.171875 297.5625 239.035156 301.941406 159.519531 C 301.488281 145.652344 300.371094 131.917969 298.632812 118.414062 C 283.695312 50.683594 223.308594 0 151.085938 0 C 67.644531 0 0 67.644531 0 151.085938 "/>
</clipPath>
<clipPath id="clip17">
  <path d="M 0 0 L 6 0 L 6 252 L 0 252 Z M 0 0 "/>
</clipPath>
<clipPath id="clip18">
  <path d="M 0 151.085938 C 0 234.527344 67.644531 302.171875 151.085938 302.171875 C 231.695312 302.171875 297.5625 239.035156 301.941406 159.519531 C 301.488281 145.652344 300.371094 131.917969 298.632812 118.414062 C 283.695312 50.683594 223.308594 0 151.085938 0 C 67.644531 0 0 67.644531 0 151.085938 "/>
</clipPath>
<clipPath id="clip19">
  <path d="M 0 0 L 59 0 L 59 103 L 0 103 Z M 0 0 "/>
</clipPath>
<clipPath id="clip20">
  <path d="M 0 151.085938 C 0 234.527344 67.644531 302.171875 151.085938 302.171875 C 231.695312 302.171875 297.5625 239.035156 301.941406 159.519531 C 301.488281 145.652344 300.371094 131.917969 298.632812 118.414062 C 283.695312 50.683594 223.308594 0 151.085938 0 C 67.644531 0 0 67.644531 0 151.085938 "/>
</clipPath>
</defs>
<g id="surface1">
<g clip-path="url(#clip1)" clip-rule="nonzero">
<g clip-path="url(#clip2)" clip-rule="nonzero">
<path style=" stroke:none;fill-rule:nonzero;fill:rgb(67.799377%,36.099243%,28.599548%);fill-opacity:1;" d="M 59.042969 337.839844 C 104.558594 224.589844 96.371094 92.664062 37.191406 -85.476562 L 36.191406 -80.210938 C 35.339844 -83.449219 34.546875 -86.621094 33.660156 -89.894531 L -406.578125 -77.558594 C -407.242188 -74.316406 -407.871094 -71.179688 -408.523438 -67.976562 L -413.375 -71.007812 C -468.640625 111.292969 -473.265625 220.523438 -468.894531 288.875 C -467.1875 256.210938 -463.457031 141.695312 -417.539062 -23.054688 C -458.707031 184.90625 -471.90625 298.410156 -430.589844 333.507812 C -456.839844 288.875 -435.007812 164.992188 -428.527344 149.367188 C -428.503906 193.917969 -435.082031 279.042969 -411.109375 343.78125 C -303.660156 403.089844 -56.59375 393.003906 5.496094 357.25 C 8.25 351.933594 15.90625 226.867188 17.640625 209.566406 C 21.230469 215.53125 18.695312 351.492188 20.097656 357.140625 C 58.390625 321.335938 93.984375 211.300781 56.941406 11.671875 C 90.78125 147.960938 79.386719 249.933594 59.042969 337.839844 "/>
</g>
</g>
<g clip-path="url(#clip3)" clip-rule="nonzero">
<g clip-path="url(#clip4)" clip-rule="nonzero">
<path style=" stroke:none;fill-rule:nonzero;fill:rgb(100%,75.698853%,62.399292%);fill-opacity:1;" d="M 185.355469 187.871094 C 190.863281 184.097656 158.453125 139.414062 152.707031 142.851562 C 66.765625 194.265625 -44.449219 252.332031 -68.230469 262.71875 L -27.890625 322.746094 C 21.097656 292.179688 112.601562 237.753906 185.355469 187.871094 "/>
</g>
</g>
<g clip-path="url(#clip5)" clip-rule="nonzero">
<g clip-path="url(#clip6)" clip-rule="nonzero">
<path style=" stroke:none;fill-rule:nonzero;fill:rgb(98.799133%,25.898743%,45.098877%);fill-opacity:1;" d="M 32.273438 203.957031 C 44.332031 224.816406 64.644531 273.25 75.722656 295.652344 C 29.59375 322.273438 -9.15625 341.488281 -13.046875 341.300781 C -53.535156 339.347656 -87.476562 263.234375 -90.832031 259.214844 C -66.097656 249.644531 -13.402344 228.570312 32.273438 203.957031 "/>
</g>
</g>
<g clip-path="url(#clip7)" clip-rule="nonzero">
<g clip-path="url(#clip8)" clip-rule="nonzero">
<path style=" stroke:none;fill-rule:nonzero;fill:rgb(100%,75.698853%,62.399292%);fill-opacity:1;" d="M 228.054688 167.511719 C 230.085938 170.8125 236.027344 171.675781 245.253906 173.339844 C 253.242188 174.777344 265.296875 176.570312 269.59375 180.96875 C 274.179688 185.667969 269.1875 190.320312 259.816406 191.921875 C 244.339844 194.5625 209.175781 199.265625 191.558594 200.347656 C 161.65625 204.109375 131.9375 183.609375 129.277344 155.441406 C 125.289062 113.199219 126.328125 96.570312 124.828125 70.519531 C 124.460938 64.101562 137.972656 68.988281 141.785156 76.929688 C 149.949219 93.921875 147.238281 100.351562 152.128906 108.722656 C 156.898438 116.882812 164.261719 114.359375 171.300781 108.550781 C 197.210938 70.664062 208.058594 46.085938 221.820312 47.878906 C 232.929688 51.152344 218.585938 79.675781 200.945312 111.09375 C 231.503906 86.628906 258.023438 69.53125 263.164062 78.441406 C 269.246094 88.984375 243.320312 110.589844 221.445312 132.339844 C 251.171875 129.421875 281.144531 117.925781 282.683594 133.488281 C 283.8125 144.863281 222.332031 158.203125 228.054688 167.511719 "/>
</g>
</g>
<g clip-path="url(#clip9)" clip-rule="nonzero">
<g clip-path="url(#clip10)" clip-rule="nonzero">
<path style=" stroke:none;fill-rule:nonzero;fill:rgb(98.799133%,25.898743%,45.098877%);fill-opacity:1;" d="M -263.5625 572.210938 C -172.140625 598.5 -50.972656 579.757812 26.972656 542.960938 C 15.539062 505.097656 -16.140625 296.25 -27.273438 246.8125 C -79.789062 254.722656 -201.746094 265.523438 -256.785156 278.046875 C -260.898438 349.90625 -259.449219 472.386719 -263.5625 572.210938 "/>
</g>
</g>
<g clip-path="url(#clip11)" clip-rule="nonzero">
<g clip-path="url(#clip12)" clip-rule="nonzero">
<path style=" stroke:none;fill-rule:nonzero;fill:rgb(100%,75.698853%,62.399292%);fill-opacity:1;" d="M 78.75 77.960938 C 74.464844 124.46875 35.691406 159.589844 2.367188 160.578125 C -30.953125 161.566406 -43.21875 125.988281 -44.523438 82.070312 C -45.824219 38.15625 -19.867188 1.636719 13.457031 0.761719 C 59.011719 -0.429688 82.777344 34.246094 78.75 77.960938 "/>
</g>
</g>
<g clip-path="url(#clip13)" clip-rule="nonzero">
<g clip-path="url(#clip14)" clip-rule="nonzero">
<path style=" stroke:none;fill-rule:nonzero;fill:rgb(87.799072%,58.399963%,42.399597%);fill-opacity:1;" d="M 39.804688 95.53125 C 40.371094 114.789062 27.066406 130.808594 10.082031 131.3125 C -6.894531 131.8125 -21.125 116.609375 -21.691406 97.351562 C -22.261719 78.097656 -8.957031 62.082031 8.015625 61.578125 C 25.003906 61.070312 39.230469 76.277344 39.804688 95.53125 "/>
</g>
</g>
<g clip-path="url(#clip15)" clip-rule="nonzero">
<g clip-path="url(#clip16)" clip-rule="nonzero">
<path style=" stroke:none;fill-rule:nonzero;fill:rgb(67.799377%,36.099243%,28.599548%);fill-opacity:1;" d="M -412.441406 15.320312 C -387.628906 161.480469 -283.9375 211.515625 -154.355469 189.519531 C -24.773438 167.523438 67.347656 84.316406 42.535156 -61.84375 C 17.726562 -208.003906 -91.316406 -224.488281 -220.898438 -202.488281 C -350.480469 -180.492188 -437.25 -130.84375 -412.441406 15.320312 "/>
</g>
</g>
<g clip-path="url(#clip17)" clip-rule="nonzero">
<g clip-path="url(#clip18)" clip-rule="nonzero">
<path style=" stroke:none;fill-rule:nonzero;fill:rgb(100%,75.698853%,62.399292%);fill-opacity:1;" d="M -374.65625 -51.941406 C -381.554688 -25.566406 -337.546875 189.277344 -307.46875 215.15625 C -275.558594 242.613281 -162.792969 254.9375 -140.183594 251.097656 C -115.960938 246.988281 -15.234375 201.679688 -0.714844 163.085938 C 16.460938 117.417969 -5.390625 -76.640625 -17.003906 -98.210938 C -56.257812 -171.0625 -123.933594 -162.253906 -211.875 -147.324219 C -294.144531 -133.355469 -356.757812 -120.386719 -374.65625 -51.941406 "/>
</g>
</g>
<g clip-path="url(#clip19)" clip-rule="nonzero">
<g clip-path="url(#clip20)" clip-rule="nonzero">
<path style=" stroke:none;fill-rule:nonzero;fill:rgb(67.799377%,36.099243%,28.599548%);fill-opacity:1;" d="M -413.726562 58.023438 C -389.40625 45.929688 -389.820312 18.824219 -393.273438 -23.832031 C -408.292969 -25.40625 -403.433594 -131.992188 -335.675781 -173.695312 C -247.046875 -228.253906 -126.6875 -231.820312 -71.265625 -202.558594 C -12.261719 -171.40625 3.707031 -124.746094 20.566406 -68.753906 C 34.25 -23.308594 20.191406 13.039062 58.148438 36.089844 C 18.667969 42.632812 -9.175781 13.472656 -19.71875 -15.152344 C -31.429688 -46.945312 -20.164062 -79.074219 -26.65625 -91.316406 C -30.414062 -98.402344 -77.382812 -125.6875 -88.386719 -124.78125 C -112.375 -122.804688 -123.90625 -52.371094 -208.6875 -44.234375 C -176.707031 -66.960938 -161.152344 -95.777344 -146.746094 -135.988281 C -152.914062 -131.175781 -158.996094 -125.496094 -164.902344 -118.753906 C -227.058594 -47.765625 -301.246094 -22.515625 -361.535156 -21.082031 C -356.703125 41.878906 -324.457031 70.355469 -397.128906 102.636719 C -391.289062 93.171875 -384.308594 65.933594 -385.226562 45.128906 C -392.71875 51.160156 -398.464844 68.628906 -413.726562 58.023438 "/>
</g>
</g>
</g>
</svg>
