<?xml version="1.0" encoding="UTF-8" standalone="no"?>
<!DOCTYPE svg PUBLIC "-//W3C//DTD SVG 1.1//EN" "http://www.w3.org/Graphics/SVG/1.1/DTD/svg11.dtd">
<svg xmlns="http://www.w3.org/2000/svg" xmlns:xlink="http://www.w3.org/1999/xlink" version="1.1" width="128pt" height="128pt" viewBox="0 0 128 128">
<g enable-background="new">
<path transform="matrix(1,0,0,-1,17,111)" d="M 94 47 C 94 21.042618 72.95738 0 47 0 C 21.042616 0 0 21.042618 0 47 C 0 72.95738 21.042616 94 47 94 C 72.95738 94 94 72.95738 94 47 Z " fill="#ffe493"/>
<clipPath id="cp0">
<path transform="matrix(1,0,0,-1,0,128)" d="M 128 64 C 128 28.653779 99.34622 0 64 0 C 28.653777 0 0 28.653779 0 64 C 0 99.34622 28.653777 128 64 128 C 99.34622 128 128 99.34622 128 64 Z " fill-rule="evenodd"/>
</clipPath>
<g clip-path="url(#cp0)">
<path transform="matrix(1,0,0,-1,0,128)" d="M 118 64 C 118 34.17662 93.82338 10 64 10 L 64 -10 C 104.86907 -10 138 23.130928 138 64 L 118 64 Z M 64 10 C 34.176626 10 10 34.17662 10 64 L -10 64 C -10 23.130928 23.130928 -10 64 -10 L 64 10 Z M 10 64 C 10 93.82338 34.176626 118 64 118 L 64 138 C 23.130928 138 -10 104.86907 -10 64 L 10 64 Z M 64 118 C 93.82338 118 118 93.82338 118 64 L 138 64 C 138 104.86907 104.86907 138 64 138 L 64 118 Z " fill="#c4c4c4"/>
</g>
<path transform="matrix(1,0,0,-1,41,72.123538)" d="M -2.973176 10.799395 C -4.451013 9.157354 -4.317899 6.628195 -2.675859 5.150358 C -1.033819 3.672522 1.49534 3.805635 2.973176 5.447676 L -2.973176 10.799395 Z M 42.026826 5.447676 C 43.50466 3.805635 46.03382 3.672522 47.67586 5.150358 C 49.3179 6.628195 49.451017 9.157354 47.97318 10.799395 L 42.026826 5.447676 Z M 21.013413 31.471772 L 18.040236 34.14763 L 21.013413 31.471772 Z M 23.98659 31.471772 L 26.959765 34.14763 L 23.98659 31.471772 Z M 2.973176 5.447676 L 23.98659 28.795912 L 18.040236 34.14763 L -2.973176 10.799395 L 2.973176 5.447676 Z M 21.013413 28.795912 L 42.026826 5.447676 L 47.97318 10.799395 L 26.959765 34.14763 L 21.013413 28.795912 Z M 23.98659 28.795912 C 23.192103 27.913149 21.807896 27.913153 21.013413 28.795912 L 26.959765 34.14763 C 24.576313 36.79591 20.423693 36.795915 18.040236 34.14763 L 23.98659 28.795912 Z " fill="#ff82a3"/>
<path transform="matrix(1,0,0,-1,41,97.123538)" d="M -2.973176 10.799395 C -4.451013 9.157354 -4.317899 6.628195 -2.675859 5.150358 C -1.033819 3.672522 1.49534 3.805635 2.973176 5.447676 L -2.973176 10.799395 Z M 42.026826 5.447676 C 43.50466 3.805635 46.03382 3.672522 47.67586 5.150358 C 49.3179 6.628195 49.451017 9.157354 47.97318 10.799395 L 42.026826 5.447676 Z M 21.013413 31.471772 L 18.040236 34.14763 L 21.013413 31.471772 Z M 23.98659 31.471772 L 26.959765 34.14763 L 23.98659 31.471772 Z M 2.973176 5.447676 L 23.98659 28.795912 L 18.040236 34.14763 L -2.973176 10.799395 L 2.973176 5.447676 Z M 21.013413 28.795912 L 42.026826 5.447676 L 47.97318 10.799395 L 26.959765 34.14763 L 21.013413 28.795912 Z M 23.98659 28.795912 C 23.192103 27.913149 21.807896 27.913153 21.013413 28.795912 L 26.959765 34.14763 C 24.576313 36.79591 20.423693 36.795915 18.040236 34.14763 L 23.98659 28.795912 Z " fill="#ff82a3"/>
</g>
</svg>
