<?xml version="1.0" encoding="UTF-8" standalone="no"?>
<!DOCTYPE svg PUBLIC "-//W3C//DTD SVG 1.1//EN" "http://www.w3.org/Graphics/SVG/1.1/DTD/svg11.dtd">
<svg xmlns="http://www.w3.org/2000/svg" xmlns:xlink="http://www.w3.org/1999/xlink" version="1.1" width="128pt" height="128.21pt" viewBox="0 0 128 128.21">
<g enable-background="new">
<g>
<g id="Layer-1" data-name="Layer 1">
<clipPath id="cp0">
<path transform="matrix(1,0,0,-1,0,128.21)" d="M 0 128.21 L 128 128.21 L 128 0 L 0 0 Z "/>
</clipPath>
<g clip-path="url(#cp0)">
<path transform="matrix(1,0,0,-1,64,17.104905)" d="M 0 0 C 25.957 0 47 -21.043 47 -47 C 47 -72.958 25.957 -94 0 -94 C -25.957 -94 -47 -72.958 -47 -47 C -47 -21.043 -25.957 0 0 0 " fill="#ffc000"/>
</g>
<clipPath id="cp1">
<path transform="matrix(1,0,0,-1,0,128.21)" d="M 0 64.105 C 0 28.759 28.654 .105 64 .105 C 99.346 .105 128 28.759 128 64.105 C 128 99.451 99.346 128.105 64 128.105 C 28.654 128.105 0 99.451 0 64.105 "/>
</clipPath>
<g clip-path="url(#cp1)">
<path transform="matrix(1,0,0,-1,118,64.104907)" d="M 0 0 C 0 -29.823 -24.177 -54 -54 -54 L -54 -74 C -13.131 -74 20 -40.869 20 0 Z M -54 -54 C -83.823 -54 -108 -29.823 -108 0 L -128 0 C -128 -40.869 -94.869 -74 -54 -74 Z M -108 0 C -108 29.823 -83.823 54 -54 54 L -54 74 C -94.869 74 -128 40.869 -128 0 Z M -54 54 C -24.177 54 0 29.823 0 0 L 20 0 C 20 40.869 -13.131 74 -54 74 Z " fill="#70ad47"/>
</g>
<clipPath id="cp2">
<path transform="matrix(1,0,0,-1,0,128.21)" d="M 0 128.21 L 128 128.21 L 128 0 L 0 0 Z "/>
</clipPath>
<g clip-path="url(#cp2)">
<path transform="matrix(1,0,0,-1,58.7891,89.97891)" d="M 0 0 C 1.562 -1.562 4.095 -1.562 5.657 0 C 7.219 1.562 7.219 4.095 5.657 5.657 Z M -17.732 29.046 C -19.294 30.608 -21.827 30.608 -23.389 29.046 C -24.951 27.483 -24.951 24.951 -23.389 23.389 Z M 5.657 5.657 L -17.732 29.046 L -23.389 23.389 L 0 0 Z " fill="#ed457d"/>
<path transform="matrix(1,0,0,-1,42,60.261606)" d="M 0 0 C -2.209 0 -4 -1.791 -4 -4 C -4 -6.209 -2.209 -8 0 -8 Z M 46 -8 C 48.209 -8 50 -6.209 50 -4 C 50 -1.791 48.209 0 46 0 Z M 0 -8 L 46 -8 L 46 0 L 0 0 Z " fill="#ed457d"/>
<path transform="matrix(1,0,0,-1,35.1715,60.665208)" d="M 0 0 C -1.562 -1.562 -1.562 -4.095 0 -5.657 C 1.562 -7.219 4.095 -7.219 5.657 -5.657 Z M 29.046 17.732 C 30.608 19.294 30.608 21.827 29.046 23.389 C 27.483 24.951 24.951 24.951 23.389 23.389 Z M 5.657 -5.657 L 29.046 17.732 L 23.389 23.389 L 0 0 Z " fill="#ed457d"/>
</g>
</g>
</g>
</g>
</svg>
