<?xml version="1.0" encoding="UTF-8" standalone="no"?>
<!DOCTYPE svg PUBLIC "-//W3C//DTD SVG 1.1//EN" "http://www.w3.org/Graphics/SVG/1.1/DTD/svg11.dtd">
<svg xmlns="http://www.w3.org/2000/svg" xmlns:xlink="http://www.w3.org/1999/xlink" version="1.1" width="128pt" height="128.21pt" viewBox="0 0 128 128.21">
<g enable-background="new">
<g>
<g id="Layer-1" data-name="Layer 1">
<clipPath id="cp0">
<path transform="matrix(1,0,0,-1,0,128.21)" d="M 0 128.21 L 128 128.21 L 128 0 L 0 0 Z "/>
</clipPath>
<g clip-path="url(#cp0)">
<path transform="matrix(1,0,0,-1,111,64.104907)" d="M 0 0 C 0 -25.957 -21.043 -47 -47 -47 C -72.957 -47 -94 -25.957 -94 0 C -94 25.957 -72.957 47 -47 47 C -21.043 47 0 25.957 0 0 " fill="#ffc000"/>
</g>
<clipPath id="cp1">
<path transform="matrix(1,0,0,-1,0,128.21)" d="M 0 64.105 C 0 28.759 28.654 .105 64 .105 C 99.346 .105 128 28.759 128 64.105 C 128 99.451 99.346 128.105 64 128.105 C 28.654 128.105 0 99.451 0 64.105 "/>
</clipPath>
<g clip-path="url(#cp1)">
<path transform="matrix(1,0,0,-1,118,64.104907)" d="M 0 0 C 0 -29.823 -24.177 -54 -54 -54 L -54 -74 C -13.131 -74 20 -40.869 20 0 Z M -54 -54 C -83.823 -54 -108 -29.823 -108 0 L -128 0 C -128 -40.869 -94.869 -74 -54 -74 Z M -108 0 C -108 29.823 -83.823 54 -54 54 L -54 74 C -94.869 74 -128 40.869 -128 0 Z M -54 54 C -24.177 54 0 29.823 0 0 L 20 0 C 20 40.869 -13.131 74 -54 74 Z " fill="#70ad47"/>
</g>
<clipPath id="cp2">
<path transform="matrix(1,0,0,-1,0,128.21)" d="M 0 128.21 L 128 128.21 L 128 0 L 0 0 Z "/>
</clipPath>
<g clip-path="url(#cp2)">
<path transform="matrix(1,0,0,-1,76.0022,89.018009)" d="M 0 0 C 1.933 0 3.5 1.567 3.5 3.5 C 3.5 5.433 1.933 7 0 7 Z M -32.385 7 C -34.318 7 -35.885 5.433 -35.885 3.5 C -35.885 1.567 -34.318 0 -32.385 0 Z M 0 7 L -32.385 7 L -32.385 0 L 0 0 Z " fill="#245080"/>
<path transform="matrix(1,0,0,-1,73.2153,85.35251)" d="M 0 0 C 0 -1.933 1.567 -3.5 3.5 -3.5 C 5.433 -3.5 7 -1.933 7 0 Z M 7 32.385 C 7 34.318 5.433 35.885 3.5 35.885 C 1.567 35.885 0 34.318 0 32.385 Z M 7 32.385 L 0 32.385 L 0 0 L 7 0 Z " fill="#245080"/>
<path transform="matrix(1,0,0,-1,62.3985,41.76371)" d="M 0 0 C -1.293 -1.437 -1.177 -3.65 .26 -4.943 C 1.697 -6.236 3.91 -6.12 5.203 -4.683 Z M 23.4 -4.683 C 24.693 -6.12 26.906 -6.236 28.343 -4.943 C 29.78 -3.65 29.896 -1.437 28.603 0 Z M 15.788 9.007 L 13.187 6.666 Z M 5.203 -4.683 L 15.417 6.666 L 10.214 11.348 L 0 0 Z M 13.187 6.666 L 23.4 -4.683 L 28.603 0 L 18.39 11.348 Z M 15.417 6.666 C 14.821 6.004 13.783 6.004 13.187 6.666 L 18.39 11.348 C 16.205 13.776 12.398 13.776 10.214 11.348 Z " fill="#245080"/>
<path transform="matrix(1,0,0,-1,62.3985,54.763605)" d="M 0 0 C -1.293 -1.437 -1.177 -3.65 .26 -4.943 C 1.697 -6.236 3.91 -6.12 5.203 -4.683 Z M 23.4 -4.683 C 24.693 -6.12 26.906 -6.236 28.343 -4.943 C 29.78 -3.65 29.896 -1.437 28.603 0 Z M 15.788 9.007 L 13.187 6.666 Z M 5.203 -4.683 L 15.417 6.666 L 10.214 11.348 L 0 0 Z M 13.187 6.666 L 23.4 -4.683 L 28.603 0 L 18.39 11.348 Z M 15.417 6.666 C 14.821 6.003 13.783 6.003 13.187 6.666 L 18.39 11.348 C 16.205 13.776 12.398 13.776 10.214 11.348 Z " fill="#245080"/>
<path transform="matrix(1,0,0,-1,49.6587,100.1069)" d="M 0 0 C 1.437 -1.293 3.65 -1.177 4.943 .26 C 6.236 1.697 6.12 3.91 4.683 5.203 Z M 4.683 23.4 C 6.12 24.693 6.236 26.906 4.943 28.343 C 3.65 29.78 1.437 29.896 0 28.603 Z M -9.007 15.788 L -6.666 13.187 Z M 4.683 5.203 L -6.666 15.417 L -11.348 10.214 L 0 0 Z M -6.666 13.187 L 4.683 23.4 L 0 28.603 L -11.348 18.39 Z M -6.666 15.417 C -6.004 14.821 -6.004 13.783 -6.666 13.187 L -11.348 18.39 C -13.776 16.205 -13.776 12.398 -11.348 10.214 Z " fill="#245080"/>
</g>
</g>
</g>
</g>
</svg>
