<?xml version="1.0" encoding="UTF-8"?>
<svg xmlns="http://www.w3.org/2000/svg" xmlns:xlink="http://www.w3.org/1999/xlink" width="302.172pt" height="302.172pt" viewBox="0 0 302.172 302.172" version="1.1">
<defs>
<clipPath id="clip1">
  <path d="M 173 0 L 302.171875 0 L 302.171875 177 L 173 177 Z M 173 0 "/>
</clipPath>
<clipPath id="clip2">
  <path d="M 150.566406 0 C 67.535156 0.277344 0.277344 67.535156 0 150.566406 L 0 151.605469 C 0.277344 234.636719 67.535156 301.894531 150.566406 302.171875 L 151.605469 302.171875 C 234.636719 301.894531 301.894531 234.636719 302.171875 151.605469 L 302.171875 150.566406 C 301.894531 67.535156 234.636719 0.277344 151.605469 0 Z M 150.566406 0 "/>
</clipPath>
<clipPath id="clip3">
  <path d="M 139 0 L 302.171875 0 L 302.171875 27 L 139 27 Z M 139 0 "/>
</clipPath>
<clipPath id="clip4">
  <path d="M 150.566406 0 C 67.535156 0.277344 0.277344 67.535156 0 150.566406 L 0 151.605469 C 0.277344 234.636719 67.535156 301.894531 150.566406 302.171875 L 151.605469 302.171875 C 234.636719 301.894531 301.894531 234.636719 302.171875 151.605469 L 302.171875 150.566406 C 301.894531 67.535156 234.636719 0.277344 151.605469 0 Z M 150.566406 0 "/>
</clipPath>
<clipPath id="clip5">
  <path d="M 134 0 L 274 0 L 274 32 L 134 32 Z M 134 0 "/>
</clipPath>
<clipPath id="clip6">
  <path d="M 150.566406 0 C 67.535156 0.277344 0.277344 67.535156 0 150.566406 L 0 151.605469 C 0.277344 234.636719 67.535156 301.894531 150.566406 302.171875 L 151.605469 302.171875 C 234.636719 301.894531 301.894531 234.636719 302.171875 151.605469 L 302.171875 150.566406 C 301.894531 67.535156 234.636719 0.277344 151.605469 0 Z M 150.566406 0 "/>
</clipPath>
<clipPath id="clip7">
  <path d="M 289 0 L 302.171875 0 L 302.171875 32 L 289 32 Z M 289 0 "/>
</clipPath>
<clipPath id="clip8">
  <path d="M 150.566406 0 C 67.535156 0.277344 0.277344 67.535156 0 150.566406 L 0 151.605469 C 0.277344 234.636719 67.535156 301.894531 150.566406 302.171875 L 151.605469 302.171875 C 234.636719 301.894531 301.894531 234.636719 302.171875 151.605469 L 302.171875 150.566406 C 301.894531 67.535156 234.636719 0.277344 151.605469 0 Z M 150.566406 0 "/>
</clipPath>
<clipPath id="clip9">
  <path d="M 134 0 L 274 0 L 274 32 L 134 32 Z M 134 0 "/>
</clipPath>
<clipPath id="clip10">
  <path d="M 150.566406 0 C 67.535156 0.277344 0.277344 67.535156 0 150.566406 L 0 151.605469 C 0.277344 234.636719 67.535156 301.894531 150.566406 302.171875 L 151.605469 302.171875 C 234.636719 301.894531 301.894531 234.636719 302.171875 151.605469 L 302.171875 150.566406 C 301.894531 67.535156 234.636719 0.277344 151.605469 0 Z M 150.566406 0 "/>
</clipPath>
<clipPath id="clip11">
  <path d="M 62 240 L 302.171875 240 L 302.171875 275 L 62 275 Z M 62 240 "/>
</clipPath>
<clipPath id="clip12">
  <path d="M 150.566406 0 C 67.535156 0.277344 0.277344 67.535156 0 150.566406 L 0 151.605469 C 0.277344 234.636719 67.535156 301.894531 150.566406 302.171875 L 151.605469 302.171875 C 234.636719 301.894531 301.894531 234.636719 302.171875 151.605469 L 302.171875 150.566406 C 301.894531 67.535156 234.636719 0.277344 151.605469 0 Z M 150.566406 0 "/>
</clipPath>
<filter id="alpha" filterUnits="objectBoundingBox" x="0%" y="0%" width="100%" height="100%">
  <feColorMatrix type="matrix" in="SourceGraphic" values="0 0 0 0 1 0 0 0 0 1 0 0 0 0 1 0 0 0 1 0"/>
</filter>
<mask id="mask0">
  <g filter="url(#alpha)">
<rect x="0" y="0" width="302.172" height="302.172" style="fill:rgb(0%,0%,0%);fill-opacity:0.119995;stroke:none;"/>
  </g>
</mask>
<clipPath id="clip14">
  <path d="M 0.957031 0.0625 L 240.171875 0.0625 L 240.171875 34.832031 L 0.957031 34.832031 Z M 0.957031 0.0625 "/>
</clipPath>
<clipPath id="clip15">
  <path d="M 88.566406 -240 C 5.535156 -239.722656 -61.722656 -172.464844 -62 -89.433594 L -62 -88.394531 C -61.722656 -5.363281 5.535156 61.894531 88.566406 62.171875 L 89.605469 62.171875 C 172.636719 61.894531 239.894531 -5.363281 240.171875 -88.394531 L 240.171875 -89.433594 C 239.894531 -172.464844 172.636719 -239.722656 89.605469 -240 Z M 88.566406 -240 "/>
</clipPath>
<clipPath id="clip13">
  <rect x="0" y="0" width="241" height="35"/>
</clipPath>
<g id="surface8" clip-path="url(#clip13)">
<g clip-path="url(#clip14)" clip-rule="nonzero">
<g clip-path="url(#clip15)" clip-rule="nonzero">
<path style=" stroke:none;fill-rule:nonzero;fill:rgb(0%,0%,0%);fill-opacity:1;" d="M 435.242188 17.445312 C 435.242188 27.046875 338.023438 34.832031 218.097656 34.832031 C 98.175781 34.832031 0.957031 27.046875 0.957031 17.445312 C 0.957031 7.84375 98.175781 0.0625 218.097656 0.0625 C 338.023438 0.0625 435.242188 7.84375 435.242188 17.445312 "/>
</g>
</g>
</g>
<clipPath id="clip16">
  <path d="M 165 141 L 242 141 L 242 153 L 165 153 Z M 165 141 "/>
</clipPath>
<clipPath id="clip17">
  <path d="M 150.566406 0 C 67.535156 0.277344 0.277344 67.535156 0 150.566406 L 0 151.605469 C 0.277344 234.636719 67.535156 301.894531 150.566406 302.171875 L 151.605469 302.171875 C 234.636719 301.894531 301.894531 234.636719 302.171875 151.605469 L 302.171875 150.566406 C 301.894531 67.535156 234.636719 0.277344 151.605469 0 Z M 150.566406 0 "/>
</clipPath>
<clipPath id="clip18">
  <path d="M 164 148 L 241 148 L 241 225 L 164 225 Z M 164 148 "/>
</clipPath>
<clipPath id="clip19">
  <path d="M 150.566406 0 C 67.535156 0.277344 0.277344 67.535156 0 150.566406 L 0 151.605469 C 0.277344 234.636719 67.535156 301.894531 150.566406 302.171875 L 151.605469 302.171875 C 234.636719 301.894531 301.894531 234.636719 302.171875 151.605469 L 302.171875 150.566406 C 301.894531 67.535156 234.636719 0.277344 151.605469 0 Z M 150.566406 0 "/>
</clipPath>
<clipPath id="clip20">
  <path d="M 79 179 L 236 179 L 236 261 L 79 261 Z M 79 179 "/>
</clipPath>
<clipPath id="clip21">
  <path d="M 150.566406 0 C 67.535156 0.277344 0.277344 67.535156 0 150.566406 L 0 151.605469 C 0.277344 234.636719 67.535156 301.894531 150.566406 302.171875 L 151.605469 302.171875 C 234.636719 301.894531 301.894531 234.636719 302.171875 151.605469 L 302.171875 150.566406 C 301.894531 67.535156 234.636719 0.277344 151.605469 0 Z M 150.566406 0 "/>
</clipPath>
<clipPath id="clip22">
  <path d="M 67 186 L 237 186 L 237 258 L 67 258 Z M 67 186 "/>
</clipPath>
<clipPath id="clip23">
  <path d="M 150.566406 0 C 67.535156 0.277344 0.277344 67.535156 0 150.566406 L 0 151.605469 C 0.277344 234.636719 67.535156 301.894531 150.566406 302.171875 L 151.605469 302.171875 C 234.636719 301.894531 301.894531 234.636719 302.171875 151.605469 L 302.171875 150.566406 C 301.894531 67.535156 234.636719 0.277344 151.605469 0 Z M 150.566406 0 "/>
</clipPath>
<clipPath id="clip24">
  <path d="M 67 240 L 237 240 L 237 263 L 67 263 Z M 67 240 "/>
</clipPath>
<clipPath id="clip25">
  <path d="M 150.566406 0 C 67.535156 0.277344 0.277344 67.535156 0 150.566406 L 0 151.605469 C 0.277344 234.636719 67.535156 301.894531 150.566406 302.171875 L 151.605469 302.171875 C 234.636719 301.894531 301.894531 234.636719 302.171875 151.605469 L 302.171875 150.566406 C 301.894531 67.535156 234.636719 0.277344 151.605469 0 Z M 150.566406 0 "/>
</clipPath>
<clipPath id="clip26">
  <path d="M 165 156 L 240 156 L 240 164 L 165 164 Z M 165 156 "/>
</clipPath>
<clipPath id="clip27">
  <path d="M 150.566406 0 C 67.535156 0.277344 0.277344 67.535156 0 150.566406 L 0 151.605469 C 0.277344 234.636719 67.535156 301.894531 150.566406 302.171875 L 151.605469 302.171875 C 234.636719 301.894531 301.894531 234.636719 302.171875 151.605469 L 302.171875 150.566406 C 301.894531 67.535156 234.636719 0.277344 151.605469 0 Z M 150.566406 0 "/>
</clipPath>
</defs>
<g id="surface1">
<g clip-path="url(#clip1)" clip-rule="nonzero">
<g clip-path="url(#clip2)" clip-rule="nonzero">
<path style=" stroke:none;fill-rule:nonzero;fill:rgb(100%,75.698853%,62.399292%);fill-opacity:1;" d="M 385.746094 168.402344 C 376.644531 171.730469 338.53125 175.257812 326.578125 175.546875 C 323.234375 137.246094 306.484375 -15.003906 299.363281 -64.859375 C 297.601562 -77.21875 269.378906 -77.929688 266.90625 -64.996094 C 265.382812 -57.015625 238.636719 128.570312 231.9375 176.144531 C 212.640625 177.679688 190.003906 174.519531 173.3125 168.957031 C 173.3125 168.957031 189.503906 -155.121094 191.574219 -204.652344 C 224.105469 -209.835938 341.25 -210.382812 376.183594 -205.03125 C 381.96875 -153.90625 381.714844 95.234375 385.746094 168.402344 "/>
</g>
</g>
<g clip-path="url(#clip3)" clip-rule="nonzero">
<g clip-path="url(#clip4)" clip-rule="nonzero">
<path style=" stroke:none;fill-rule:nonzero;fill:rgb(13.299561%,28.599548%,39.99939%);fill-opacity:1;" d="M 406.949219 -134.546875 C 406.949219 -134.546875 317.230469 -130.867188 286.496094 -131.320312 C 254.324219 -131.792969 157.984375 -138.441406 157.984375 -138.441406 C 157.984375 -138.441406 146.5625 -40.234375 139.585938 10.816406 C 174.457031 17.582031 230.628906 24.554688 265.464844 26.285156 C 272.492188 -29.601562 274.515625 -60.542969 280.507812 -61.347656 C 280.929688 -61.40625 281.648438 -61.808594 282.535156 -62.425781 C 283.40625 -61.777344 284.109375 -61.355469 284.53125 -61.285156 C 290.496094 -60.292969 291.546875 -29.304688 296.824219 26.777344 C 331.695312 26.136719 388.058594 20.925781 423.125 15.253906 C 417.75 -35.988281 406.949219 -134.546875 406.949219 -134.546875 "/>
</g>
</g>
<g clip-path="url(#clip5)" clip-rule="nonzero">
<g clip-path="url(#clip6)" clip-rule="nonzero">
<path style=" stroke:none;fill-rule:nonzero;fill:rgb(18.798828%,39.199829%,51.799011%);fill-opacity:1;" d="M 134.078125 20.304688 L 270.925781 31.359375 L 273.671875 -4.308594 L 136.820312 -15.363281 Z M 134.078125 20.304688 "/>
</g>
</g>
<g clip-path="url(#clip7)" clip-rule="nonzero">
<g clip-path="url(#clip8)" clip-rule="nonzero">
<path style=" stroke:none;fill-rule:nonzero;fill:rgb(18.798828%,39.199829%,51.799011%);fill-opacity:1;" d="M 428.464844 24.914062 L 291.335938 31.675781 L 289.707031 -4.0625 L 426.835938 -10.820312 Z M 428.464844 24.914062 "/>
</g>
</g>
<g clip-path="url(#clip9)" clip-rule="nonzero">
<g clip-path="url(#clip10)" clip-rule="nonzero">
<path style=" stroke:none;fill-rule:nonzero;fill:rgb(18.798828%,39.199829%,51.799011%);fill-opacity:1;" d="M 134.078125 20.304688 L 270.925781 31.359375 L 273.671875 -4.308594 L 136.820312 -15.363281 Z M 134.078125 20.304688 "/>
</g>
</g>
<g clip-path="url(#clip11)" clip-rule="nonzero">
<g clip-path="url(#clip12)" clip-rule="nonzero">
<use xlink:href="#surface8" transform="matrix(1,0,0,1,62,240)" mask="url(#mask0)"/>
</g>
</g>
<g clip-path="url(#clip16)" clip-rule="nonzero">
<g clip-path="url(#clip17)" clip-rule="nonzero">
<path style=" stroke:none;fill-rule:nonzero;fill:rgb(92.89856%,27.099609%,48.999023%);fill-opacity:1;" d="M 225.328125 144.902344 C 221.546875 144.6875 218.304688 147.632812 218.089844 151.417969 L 231.785156 152.203125 C 231.996094 148.417969 229.109375 145.113281 225.328125 144.902344 M 211.632812 144.128906 C 207.851562 143.917969 204.609375 146.847656 204.398438 150.632812 L 218.089844 151.417969 C 218.304688 147.632812 215.414062 144.34375 211.632812 144.128906 M 197.9375 143.359375 C 194.15625 143.148438 190.917969 146.0625 190.703125 149.847656 L 204.398438 150.632812 C 204.609375 146.847656 201.71875 143.574219 197.9375 143.359375 M 170.550781 141.816406 C 168.671875 141.710938 166.933594 142.382812 165.625 143.542969 C 165.660156 145.769531 165.6875 147.585938 165.699219 148.414062 L 177.011719 149.0625 C 177.226562 145.28125 174.332031 142.03125 170.550781 141.816406 M 184.246094 142.589844 C 180.464844 142.378906 177.226562 145.28125 177.011719 149.0625 L 190.703125 149.847656 C 190.917969 146.0625 188.027344 142.800781 184.246094 142.589844 M 239.023438 145.671875 C 235.238281 145.457031 231.996094 148.417969 231.785156 152.203125 L 240.28125 152.761719 C 240.503906 151.339844 240.863281 149.203125 241.277344 146.761719 C 240.507812 146.398438 239.925781 145.722656 239.023438 145.671875 "/>
</g>
</g>
<g clip-path="url(#clip18)" clip-rule="nonzero">
<g clip-path="url(#clip19)" clip-rule="nonzero">
<path style=" stroke:none;fill-rule:nonzero;fill:rgb(100%,97.299194%,70.199585%);fill-opacity:1;" d="M 229.445312 224.265625 C 229.085938 226.242188 164.792969 220.113281 164.648438 217.691406 C 163.414062 197.46875 165.578125 155.996094 165.699219 148.414062 L 240.28125 152.761719 C 236.96875 173.578125 231.742188 211.628906 229.445312 224.265625 "/>
</g>
</g>
<g clip-path="url(#clip20)" clip-rule="nonzero">
<g clip-path="url(#clip21)" clip-rule="nonzero">
<path style=" stroke:none;fill-rule:nonzero;fill:rgb(100%,97.299194%,70.199585%);fill-opacity:1;" d="M 175.84375 181.445312 C 176.886719 176.6875 221.335938 184.691406 229.429688 183.265625 C 229.644531 194.261719 235.984375 211.984375 235.675781 226.925781 C 235.460938 237.332031 226.8125 244.929688 217.304688 246.652344 C 180.597656 253.3125 83.566406 273.355469 79.308594 246.402344 C 75.820312 224.28125 133.722656 207.472656 175.84375 181.445312 "/>
</g>
</g>
<g clip-path="url(#clip22)" clip-rule="nonzero">
<g clip-path="url(#clip23)" clip-rule="nonzero">
<path style=" stroke:none;fill-rule:nonzero;fill:rgb(97.599792%,23.899841%,46.699524%);fill-opacity:1;" d="M 235.53125 200.640625 C 234.871094 199.820312 233.039062 199.746094 231.679688 201.074219 C 222.71875 206.289062 208.484375 211.648438 196.742188 215.277344 C 192.742188 216.515625 188.777344 217.460938 184.882812 218.15625 C 181.070312 206.613281 171.191406 192.804688 162.105469 187.148438 C 160.203125 185.953125 157.78125 186.640625 156.675781 188.644531 C 155.566406 190.652344 156.207031 193.242188 158.101562 194.417969 C 165.105469 198.777344 173.148438 209.816406 176.757812 219.109375 C 152.324219 222.144531 133.636719 221.871094 124.589844 206.199219 C 96.234375 222.765625 66.609375 228.375 67.386719 247.324219 C 68.34375 270.597656 236.140625 248.527344 236.140625 248.527344 C 235.8125 234.53125 235.933594 213.234375 235.53125 200.640625 "/>
</g>
</g>
<g clip-path="url(#clip24)" clip-rule="nonzero">
<g clip-path="url(#clip25)" clip-rule="nonzero">
<path style=" stroke:none;fill-rule:nonzero;fill:rgb(70.999146%,14.898682%,32.199097%);fill-opacity:1;" d="M 236.414062 240.0625 C 236.375 243.171875 236.359375 246.171875 236.421875 248.835938 C 236.421875 248.835938 91.296875 275.148438 68.757812 254.351562 C 67.953125 253.605469 67.03125 249.894531 67.441406 248.699219 C 108.042969 257.847656 199.640625 245.664062 236.414062 240.0625 "/>
</g>
</g>
<g clip-path="url(#clip26)" clip-rule="nonzero">
<g clip-path="url(#clip27)" clip-rule="nonzero">
<path style=" stroke:none;fill-rule:nonzero;fill:rgb(92.89856%,27.099609%,48.999023%);fill-opacity:1;" d="M 165.320312 159.289062 C 195.601562 162.390625 208.539062 162.785156 238.628906 163.496094 C 238.789062 162.433594 238.949219 161.371094 239.105469 160.351562 C 208.746094 159.632812 195.890625 159.25 165.441406 156.136719 C 165.402344 157.1875 165.367188 158.089844 165.320312 159.289062 "/>
</g>
</g>
</g>
</svg>
