<?xml version="1.0" encoding="UTF-8"?>
<svg xmlns="http://www.w3.org/2000/svg" xmlns:xlink="http://www.w3.org/1999/xlink" width="302.172pt" height="302.172pt" viewBox="0 0 302.172 302.172" version="1.1">
<defs>
<clipPath id="clip1">
  <path d="M 0 0 L 129 0 L 129 177 L 0 177 Z M 0 0 "/>
</clipPath>
<clipPath id="clip2">
  <path d="M 150.566406 0 C 67.535156 0.277344 0.277344 67.535156 0 150.566406 L 0 151.605469 C 0.277344 234.636719 67.535156 301.894531 150.566406 302.171875 L 151.605469 302.171875 C 234.636719 301.894531 301.894531 234.636719 302.171875 151.605469 L 302.171875 150.566406 C 301.894531 67.535156 234.636719 0.277344 151.605469 0 Z M 150.566406 0 "/>
</clipPath>
<clipPath id="clip3">
  <path d="M 0 0 L 163 0 L 163 27 L 0 27 Z M 0 0 "/>
</clipPath>
<clipPath id="clip4">
  <path d="M 150.566406 0 C 67.535156 0.277344 0.277344 67.535156 0 150.566406 L 0 151.605469 C 0.277344 234.636719 67.535156 301.894531 150.566406 302.171875 L 151.605469 302.171875 C 234.636719 301.894531 301.894531 234.636719 302.171875 151.605469 L 302.171875 150.566406 C 301.894531 67.535156 234.636719 0.277344 151.605469 0 Z M 150.566406 0 "/>
</clipPath>
<clipPath id="clip5">
  <path d="M 28 0 L 169 0 L 169 32 L 28 32 Z M 28 0 "/>
</clipPath>
<clipPath id="clip6">
  <path d="M 150.566406 0 C 67.535156 0.277344 0.277344 67.535156 0 150.566406 L 0 151.605469 C 0.277344 234.636719 67.535156 301.894531 150.566406 302.171875 L 151.605469 302.171875 C 234.636719 301.894531 301.894531 234.636719 302.171875 151.605469 L 302.171875 150.566406 C 301.894531 67.535156 234.636719 0.277344 151.605469 0 Z M 150.566406 0 "/>
</clipPath>
<clipPath id="clip7">
  <path d="M 0 0 L 13 0 L 13 32 L 0 32 Z M 0 0 "/>
</clipPath>
<clipPath id="clip8">
  <path d="M 150.566406 0 C 67.535156 0.277344 0.277344 67.535156 0 150.566406 L 0 151.605469 C 0.277344 234.636719 67.535156 301.894531 150.566406 302.171875 L 151.605469 302.171875 C 234.636719 301.894531 301.894531 234.636719 302.171875 151.605469 L 302.171875 150.566406 C 301.894531 67.535156 234.636719 0.277344 151.605469 0 Z M 150.566406 0 "/>
</clipPath>
<clipPath id="clip9">
  <path d="M 28 0 L 169 0 L 169 32 L 28 32 Z M 28 0 "/>
</clipPath>
<clipPath id="clip10">
  <path d="M 150.566406 0 C 67.535156 0.277344 0.277344 67.535156 0 150.566406 L 0 151.605469 C 0.277344 234.636719 67.535156 301.894531 150.566406 302.171875 L 151.605469 302.171875 C 234.636719 301.894531 301.894531 234.636719 302.171875 151.605469 L 302.171875 150.566406 C 301.894531 67.535156 234.636719 0.277344 151.605469 0 Z M 150.566406 0 "/>
</clipPath>
<clipPath id="clip11">
  <path d="M 0 240 L 240 240 L 240 275 L 0 275 Z M 0 240 "/>
</clipPath>
<clipPath id="clip12">
  <path d="M 150.566406 0 C 67.535156 0.277344 0.277344 67.535156 0 150.566406 L 0 151.605469 C 0.277344 234.636719 67.535156 301.894531 150.566406 302.171875 L 151.605469 302.171875 C 234.636719 301.894531 301.894531 234.636719 302.171875 151.605469 L 302.171875 150.566406 C 301.894531 67.535156 234.636719 0.277344 151.605469 0 Z M 150.566406 0 "/>
</clipPath>
<filter id="alpha" filterUnits="objectBoundingBox" x="0%" y="0%" width="100%" height="100%">
  <feColorMatrix type="matrix" in="SourceGraphic" values="0 0 0 0 1 0 0 0 0 1 0 0 0 0 1 0 0 0 1 0"/>
</filter>
<mask id="mask0">
  <g filter="url(#alpha)">
<rect x="0" y="0" width="302.172" height="302.172" style="fill:rgb(0%,0%,0%);fill-opacity:0.119995;stroke:none;"/>
  </g>
</mask>
<clipPath id="clip14">
  <path d="M 0 0.0625 L 239.214844 0.0625 L 239.214844 34.832031 L 0 34.832031 Z M 0 0.0625 "/>
</clipPath>
<clipPath id="clip15">
  <path d="M 150.566406 -240 C 67.535156 -239.722656 0.277344 -172.464844 0 -89.433594 L 0 -88.394531 C 0.277344 -5.363281 67.535156 61.894531 150.566406 62.171875 L 151.605469 62.171875 C 234.636719 61.894531 301.894531 -5.363281 302.171875 -88.394531 L 302.171875 -89.433594 C 301.894531 -172.464844 234.636719 -239.722656 151.605469 -240 Z M 150.566406 -240 "/>
</clipPath>
<clipPath id="clip13">
  <rect x="0" y="0" width="240" height="35"/>
</clipPath>
<g id="surface5" clip-path="url(#clip13)">
<g clip-path="url(#clip14)" clip-rule="nonzero">
<g clip-path="url(#clip15)" clip-rule="nonzero">
<path style=" stroke:none;fill-rule:nonzero;fill:rgb(0%,0%,0%);fill-opacity:1;" d="M -195.070312 17.445312 C -195.070312 27.046875 -97.851562 34.832031 22.074219 34.832031 C 141.996094 34.832031 239.214844 27.046875 239.214844 17.445312 C 239.214844 7.84375 141.996094 0.0625 22.074219 0.0625 C -97.851562 0.0625 -195.070312 7.84375 -195.070312 17.445312 "/>
</g>
</g>
</g>
<clipPath id="clip16">
  <path d="M 60 141 L 137 141 L 137 153 L 60 153 Z M 60 141 "/>
</clipPath>
<clipPath id="clip17">
  <path d="M 150.566406 0 C 67.535156 0.277344 0.277344 67.535156 0 150.566406 L 0 151.605469 C 0.277344 234.636719 67.535156 301.894531 150.566406 302.171875 L 151.605469 302.171875 C 234.636719 301.894531 301.894531 234.636719 302.171875 151.605469 L 302.171875 150.566406 C 301.894531 67.535156 234.636719 0.277344 151.605469 0 Z M 150.566406 0 "/>
</clipPath>
<clipPath id="clip18">
  <path d="M 61 148 L 138 148 L 138 225 L 61 225 Z M 61 148 "/>
</clipPath>
<clipPath id="clip19">
  <path d="M 150.566406 0 C 67.535156 0.277344 0.277344 67.535156 0 150.566406 L 0 151.605469 C 0.277344 234.636719 67.535156 301.894531 150.566406 302.171875 L 151.605469 302.171875 C 234.636719 301.894531 301.894531 234.636719 302.171875 151.605469 L 302.171875 150.566406 C 301.894531 67.535156 234.636719 0.277344 151.605469 0 Z M 150.566406 0 "/>
</clipPath>
<clipPath id="clip20">
  <path d="M 66 179 L 224 179 L 224 261 L 66 261 Z M 66 179 "/>
</clipPath>
<clipPath id="clip21">
  <path d="M 150.566406 0 C 67.535156 0.277344 0.277344 67.535156 0 150.566406 L 0 151.605469 C 0.277344 234.636719 67.535156 301.894531 150.566406 302.171875 L 151.605469 302.171875 C 234.636719 301.894531 301.894531 234.636719 302.171875 151.605469 L 302.171875 150.566406 C 301.894531 67.535156 234.636719 0.277344 151.605469 0 Z M 150.566406 0 "/>
</clipPath>
<clipPath id="clip22">
  <path d="M 66 186 L 235 186 L 235 258 L 66 258 Z M 66 186 "/>
</clipPath>
<clipPath id="clip23">
  <path d="M 150.566406 0 C 67.535156 0.277344 0.277344 67.535156 0 150.566406 L 0 151.605469 C 0.277344 234.636719 67.535156 301.894531 150.566406 302.171875 L 151.605469 302.171875 C 234.636719 301.894531 301.894531 234.636719 302.171875 151.605469 L 302.171875 150.566406 C 301.894531 67.535156 234.636719 0.277344 151.605469 0 Z M 150.566406 0 "/>
</clipPath>
<clipPath id="clip24">
  <path d="M 65 240 L 235 240 L 235 263 L 65 263 Z M 65 240 "/>
</clipPath>
<clipPath id="clip25">
  <path d="M 150.566406 0 C 67.535156 0.277344 0.277344 67.535156 0 150.566406 L 0 151.605469 C 0.277344 234.636719 67.535156 301.894531 150.566406 302.171875 L 151.605469 302.171875 C 234.636719 301.894531 301.894531 234.636719 302.171875 151.605469 L 302.171875 150.566406 C 301.894531 67.535156 234.636719 0.277344 151.605469 0 Z M 150.566406 0 "/>
</clipPath>
<clipPath id="clip26">
  <path d="M 63 156 L 137 156 L 137 164 L 63 164 Z M 63 156 "/>
</clipPath>
<clipPath id="clip27">
  <path d="M 150.566406 0 C 67.535156 0.277344 0.277344 67.535156 0 150.566406 L 0 151.605469 C 0.277344 234.636719 67.535156 301.894531 150.566406 302.171875 L 151.605469 302.171875 C 234.636719 301.894531 301.894531 234.636719 302.171875 151.605469 L 302.171875 150.566406 C 301.894531 67.535156 234.636719 0.277344 151.605469 0 Z M 150.566406 0 "/>
</clipPath>
</defs>
<g id="surface1">
<g clip-path="url(#clip1)" clip-rule="nonzero">
<g clip-path="url(#clip2)" clip-rule="nonzero">
<path style=" stroke:none;fill-rule:nonzero;fill:rgb(100%,75.698853%,62.399292%);fill-opacity:1;" d="M -83.574219 168.402344 C -74.472656 171.730469 -36.359375 175.257812 -24.40625 175.546875 C -21.0625 137.246094 -4.3125 -15.003906 2.808594 -64.859375 C 4.570312 -77.21875 32.796875 -77.929688 35.265625 -64.996094 C 36.789062 -57.015625 63.535156 128.570312 70.234375 176.144531 C 89.53125 177.679688 112.167969 174.519531 128.859375 168.957031 C 128.859375 168.957031 112.671875 -155.121094 110.597656 -204.652344 C 78.066406 -209.835938 -39.078125 -210.382812 -74.011719 -205.03125 C -79.792969 -153.90625 -79.542969 95.234375 -83.574219 168.402344 "/>
</g>
</g>
<g clip-path="url(#clip3)" clip-rule="nonzero">
<g clip-path="url(#clip4)" clip-rule="nonzero">
<path style=" stroke:none;fill-rule:nonzero;fill:rgb(13.299561%,28.599548%,39.99939%);fill-opacity:1;" d="M -104.777344 -134.546875 C -104.777344 -134.546875 -15.054688 -130.867188 15.675781 -131.320312 C 47.847656 -131.792969 144.1875 -138.441406 144.1875 -138.441406 C 144.1875 -138.441406 155.613281 -40.234375 162.585938 10.816406 C 127.714844 17.582031 71.542969 24.554688 36.707031 26.285156 C 29.679688 -29.601562 27.65625 -60.542969 21.664062 -61.347656 C 21.242188 -61.40625 20.523438 -61.808594 19.636719 -62.425781 C 18.765625 -61.777344 18.0625 -61.355469 17.640625 -61.285156 C 11.675781 -60.292969 10.625 -29.304688 5.347656 26.777344 C -29.523438 26.136719 -85.886719 20.925781 -120.953125 15.253906 C -115.578125 -35.988281 -104.777344 -134.546875 -104.777344 -134.546875 "/>
</g>
</g>
<g clip-path="url(#clip5)" clip-rule="nonzero">
<g clip-path="url(#clip6)" clip-rule="nonzero">
<path style=" stroke:none;fill-rule:nonzero;fill:rgb(18.798828%,39.199829%,51.799011%);fill-opacity:1;" d="M 168.097656 20.304688 L 31.246094 31.359375 L 28.5 -4.308594 L 165.351562 -15.363281 Z M 168.097656 20.304688 "/>
</g>
</g>
<g clip-path="url(#clip7)" clip-rule="nonzero">
<g clip-path="url(#clip8)" clip-rule="nonzero">
<path style=" stroke:none;fill-rule:nonzero;fill:rgb(18.798828%,39.199829%,51.799011%);fill-opacity:1;" d="M -126.292969 24.914062 L 10.839844 31.675781 L 12.464844 -4.0625 L -124.664062 -10.820312 Z M -126.292969 24.914062 "/>
</g>
</g>
<g clip-path="url(#clip9)" clip-rule="nonzero">
<g clip-path="url(#clip10)" clip-rule="nonzero">
<path style=" stroke:none;fill-rule:nonzero;fill:rgb(18.798828%,39.199829%,51.799011%);fill-opacity:1;" d="M 168.097656 20.304688 L 31.246094 31.359375 L 28.5 -4.308594 L 165.351562 -15.363281 Z M 168.097656 20.304688 "/>
</g>
</g>
<g clip-path="url(#clip11)" clip-rule="nonzero">
<g clip-path="url(#clip12)" clip-rule="nonzero">
<use xlink:href="#surface5" transform="matrix(1,0,0,1,0,240)" mask="url(#mask0)"/>
</g>
</g>
<g clip-path="url(#clip16)" clip-rule="nonzero">
<g clip-path="url(#clip17)" clip-rule="nonzero">
<path style=" stroke:none;fill-rule:nonzero;fill:rgb(92.89856%,27.099609%,48.999023%);fill-opacity:1;" d="M 76.84375 144.902344 C 80.625 144.6875 83.867188 147.632812 84.082031 151.417969 L 70.386719 152.203125 C 70.175781 148.417969 73.0625 145.113281 76.84375 144.902344 M 90.539062 144.128906 C 94.320312 143.917969 97.5625 146.847656 97.773438 150.632812 L 84.082031 151.417969 C 83.867188 147.632812 86.757812 144.34375 90.539062 144.128906 M 104.234375 143.359375 C 108.015625 143.148438 111.253906 146.0625 111.46875 149.847656 L 97.773438 150.632812 C 97.5625 146.847656 100.453125 143.574219 104.234375 143.359375 M 131.621094 141.816406 C 133.5 141.710938 135.242188 142.382812 136.546875 143.542969 C 136.511719 145.769531 136.484375 147.585938 136.472656 148.414062 L 125.160156 149.0625 C 124.949219 145.28125 127.839844 142.03125 131.621094 141.816406 M 117.925781 142.589844 C 121.707031 142.378906 124.949219 145.28125 125.160156 149.0625 L 111.46875 149.847656 C 111.253906 146.0625 114.144531 142.800781 117.925781 142.589844 M 63.148438 145.671875 C 66.933594 145.457031 70.175781 148.417969 70.386719 152.203125 L 61.890625 152.761719 C 61.667969 151.339844 61.308594 149.203125 60.894531 146.761719 C 61.664062 146.398438 62.246094 145.722656 63.148438 145.671875 "/>
</g>
</g>
<g clip-path="url(#clip18)" clip-rule="nonzero">
<g clip-path="url(#clip19)" clip-rule="nonzero">
<path style=" stroke:none;fill-rule:nonzero;fill:rgb(100%,97.299194%,70.199585%);fill-opacity:1;" d="M 72.726562 224.265625 C 73.085938 226.242188 137.378906 220.113281 137.523438 217.691406 C 138.757812 197.46875 136.59375 155.996094 136.472656 148.414062 L 61.890625 152.761719 C 65.207031 173.578125 70.429688 211.628906 72.726562 224.265625 "/>
</g>
</g>
<g clip-path="url(#clip20)" clip-rule="nonzero">
<g clip-path="url(#clip21)" clip-rule="nonzero">
<path style=" stroke:none;fill-rule:nonzero;fill:rgb(100%,97.299194%,70.199585%);fill-opacity:1;" d="M 126.328125 181.445312 C 125.285156 176.6875 80.835938 184.691406 72.742188 183.265625 C 72.527344 194.261719 66.191406 211.984375 66.496094 226.925781 C 66.710938 237.332031 75.359375 244.929688 84.867188 246.652344 C 121.574219 253.3125 218.605469 273.355469 222.863281 246.402344 C 226.355469 224.28125 168.449219 207.472656 126.328125 181.445312 "/>
</g>
</g>
<g clip-path="url(#clip22)" clip-rule="nonzero">
<g clip-path="url(#clip23)" clip-rule="nonzero">
<path style=" stroke:none;fill-rule:nonzero;fill:rgb(97.599792%,23.899841%,46.699524%);fill-opacity:1;" d="M 66.640625 200.640625 C 67.300781 199.820312 69.132812 199.746094 70.492188 201.074219 C 79.453125 206.289062 93.6875 211.648438 105.429688 215.277344 C 109.429688 216.515625 113.394531 217.460938 117.292969 218.15625 C 121.101562 206.613281 130.980469 192.804688 140.066406 187.148438 C 141.96875 185.953125 144.390625 186.640625 145.5 188.644531 C 146.605469 190.652344 145.964844 193.242188 144.070312 194.417969 C 137.066406 198.777344 129.023438 209.816406 125.414062 219.109375 C 149.847656 222.144531 168.535156 221.871094 177.582031 206.199219 C 205.9375 222.765625 235.5625 228.375 234.785156 247.324219 C 233.832031 270.597656 66.03125 248.527344 66.03125 248.527344 C 66.359375 234.53125 66.238281 213.234375 66.640625 200.640625 "/>
</g>
</g>
<g clip-path="url(#clip24)" clip-rule="nonzero">
<g clip-path="url(#clip25)" clip-rule="nonzero">
<path style=" stroke:none;fill-rule:nonzero;fill:rgb(70.999146%,14.898682%,32.199097%);fill-opacity:1;" d="M 65.757812 240.0625 C 65.796875 243.171875 65.8125 246.171875 65.75 248.835938 C 65.75 248.835938 210.875 275.148438 233.414062 254.351562 C 234.21875 253.605469 235.140625 249.894531 234.734375 248.699219 C 194.128906 257.847656 102.53125 245.664062 65.757812 240.0625 "/>
</g>
</g>
<g clip-path="url(#clip26)" clip-rule="nonzero">
<g clip-path="url(#clip27)" clip-rule="nonzero">
<path style=" stroke:none;fill-rule:nonzero;fill:rgb(92.89856%,27.099609%,48.999023%);fill-opacity:1;" d="M 136.851562 159.289062 C 106.570312 162.390625 93.632812 162.785156 63.542969 163.496094 C 63.386719 162.433594 63.222656 161.371094 63.066406 160.351562 C 93.425781 159.632812 106.28125 159.25 136.730469 156.136719 C 136.769531 157.1875 136.804688 158.089844 136.851562 159.289062 "/>
</g>
</g>
</g>
</svg>
