<?xml version="1.0" encoding="UTF-8" standalone="no"?>
<!DOCTYPE svg PUBLIC "-//W3C//DTD SVG 1.1//EN" "http://www.w3.org/Graphics/SVG/1.1/DTD/svg11.dtd">
<svg xmlns="http://www.w3.org/2000/svg" xmlns:xlink="http://www.w3.org/1999/xlink" version="1.1" width="128pt" height="128.21pt" viewBox="0 0 128 128.21">
<g enable-background="new">
<g>
<g id="Layer-1" data-name="Layer 1">
<clipPath id="cp0">
<path transform="matrix(1,0,0,-1,0,128.21)" d="M 0 128.21 L 128 128.21 L 128 0 L 0 0 Z "/>
</clipPath>
<g clip-path="url(#cp0)">
<path transform="matrix(1,0,0,-1,17,64.104907)" d="M 0 0 C 0 25.957 21.043 47 47 47 C 72.957 47 94 25.957 94 0 C 94 -25.957 72.957 -47 47 -47 C 21.043 -47 0 -25.957 0 0 " fill="#00b0f0"/>
</g>
<clipPath id="cp1">
<path transform="matrix(1,0,0,-1,0,128.21)" d="M 0 64.105 C 0 28.759 28.654 .105 64 .105 C 99.346 .105 128 28.759 128 64.105 C 128 99.451 99.346 128.105 64 128.105 C 28.654 128.105 0 99.451 0 64.105 "/>
</clipPath>
<g clip-path="url(#cp1)">
<path transform="matrix(1,0,0,-1,10,64.104907)" d="M 0 0 C 0 29.823 24.177 54 54 54 L 54 74 C 13.131 74 -20 40.869 -20 0 Z M 54 54 C 83.823 54 108 29.823 108 0 L 128 0 C 128 40.869 94.869 74 54 74 Z M 108 0 C 108 -29.823 83.823 -54 54 -54 L 54 -74 C 94.869 -74 128 -40.869 128 0 Z M 54 -54 C 24.177 -54 0 -29.823 0 0 L -20 0 C -20 -40.869 13.131 -74 54 -74 Z " fill="#70ad47"/>
</g>
<clipPath id="cp2">
<path transform="matrix(1,0,0,-1,0,128.21)" d="M 0 128.21 L 128 128.21 L 128 0 L 0 0 Z "/>
</clipPath>
<g clip-path="url(#cp2)">
<path transform="matrix(1,0,0,-1,88.9731,68.78081)" d="M 0 0 C 1.478 1.642 1.345 4.171 -.297 5.649 C -1.939 7.127 -4.469 6.994 -5.946 5.352 Z M -45 5.352 C -46.478 6.994 -49.007 7.127 -50.649 5.649 C -52.291 4.171 -52.424 1.642 -50.946 0 Z M -23.987 -20.672 L -21.013 -23.348 Z M -26.96 -20.672 L -29.933 -23.348 Z M -5.946 5.352 L -26.96 -17.997 L -21.013 -23.348 L 0 0 Z M -23.987 -17.997 L -45 5.352 L -50.946 0 L -29.933 -23.348 Z M -26.96 -17.997 C -26.165 -17.114 -24.781 -17.114 -23.987 -17.997 L -29.933 -23.348 C -27.549 -25.997 -23.397 -25.997 -21.013 -23.348 Z " fill="#ffffff"/>
<path transform="matrix(1,0,0,-1,88.9731,43.780809)" d="M 0 0 C 1.478 1.642 1.345 4.171 -.297 5.649 C -1.939 7.127 -4.469 6.994 -5.946 5.352 Z M -45 5.352 C -46.478 6.994 -49.007 7.127 -50.649 5.649 C -52.291 4.171 -52.424 1.642 -50.946 0 Z M -23.987 -20.672 L -21.013 -23.348 Z M -26.96 -20.672 L -29.933 -23.348 Z M -5.946 5.352 L -26.96 -17.997 L -21.013 -23.348 L 0 0 Z M -23.987 -17.997 L -45 5.352 L -50.946 0 L -29.933 -23.348 Z M -26.96 -17.997 C -26.165 -17.114 -24.781 -17.114 -23.987 -17.997 L -29.933 -23.348 C -27.549 -25.997 -23.397 -25.997 -21.013 -23.348 Z " fill="#ffffff"/>
</g>
</g>
</g>
</g>
</svg>
