<?xml version="1.0" encoding="UTF-8" standalone="no"?>
<!DOCTYPE svg PUBLIC "-//W3C//DTD SVG 1.1//EN" "http://www.w3.org/Graphics/SVG/1.1/DTD/svg11.dtd">
<svg xmlns="http://www.w3.org/2000/svg" xmlns:xlink="http://www.w3.org/1999/xlink" version="1.1" width="128pt" height="128.21pt" viewBox="0 0 128 128.21">
<g enable-background="new">
<g>
<g id="Layer-1" data-name="Layer 1">
<clipPath id="cp0">
<path transform="matrix(1,0,0,-1,0,128.21)" d="M 0 128.21 L 128 128.21 L 128 0 L 0 0 Z "/>
</clipPath>
<g clip-path="url(#cp0)">
<path transform="matrix(1,0,0,-1,111,64.104907)" d="M 0 0 C 0 -25.957 -21.043 -47 -47 -47 C -72.957 -47 -94 -25.957 -94 0 C -94 25.957 -72.957 47 -47 47 C -21.043 47 0 25.957 0 0 " fill="#00b0f0"/>
</g>
<clipPath id="cp1">
<path transform="matrix(1,0,0,-1,0,128.21)" d="M 0 64.105 C 0 28.759 28.654 .105 64 .105 C 99.346 .105 128 28.759 128 64.105 C 128 99.451 99.346 128.105 64 128.105 C 28.654 128.105 0 99.451 0 64.105 "/>
</clipPath>
<g clip-path="url(#cp1)">
<path transform="matrix(1,0,0,-1,118,64.104907)" d="M 0 0 C 0 -29.823 -24.177 -54 -54 -54 L -54 -74 C -13.131 -74 20 -40.869 20 0 Z M -54 -54 C -83.823 -54 -108 -29.823 -108 0 L -128 0 C -128 -40.869 -94.869 -74 -54 -74 Z M -108 0 C -108 29.823 -83.823 54 -54 54 L -54 74 C -94.869 74 -128 40.869 -128 0 Z M -54 54 C -24.177 54 0 29.823 0 0 L 20 0 C 20 40.869 -13.131 74 -54 74 Z " fill="#70ad47"/>
</g>
<clipPath id="cp2">
<path transform="matrix(1,0,0,-1,0,128.21)" d="M 0 128.21 L 128 128.21 L 128 0 L 0 0 Z "/>
</clipPath>
<g clip-path="url(#cp2)">
<path transform="matrix(1,0,0,-1,52.9403,76.6723)" d="M 0 0 C 1.933 0 3.5 1.567 3.5 3.5 C 3.5 5.433 1.933 7 0 7 Z M -17.798 7 C -19.731 7 -21.298 5.433 -21.298 3.5 C -21.298 1.567 -19.731 0 -17.798 0 Z M 0 7 L -17.798 7 L -17.798 0 L 0 0 Z " fill="#ffffff"/>
<path transform="matrix(1,0,0,-1,75.6572,77.42421)" d="M 0 0 C -1.933 0 -3.5 1.567 -3.5 3.5 C -3.5 5.433 -1.933 7 0 7 Z M 17.566 7 C 19.499 7 21.066 5.433 21.066 3.5 C 21.066 1.567 19.499 0 17.566 0 Z M 0 7 L 17.566 7 L 17.566 0 L 0 0 Z " fill="#ffffff"/>
<path transform="matrix(1,0,0,-1,31.5471,72.8813)" d="M 0 0 C 0 -1.933 1.567 -3.5 3.5 -3.5 C 5.433 -3.5 7 -1.933 7 0 Z M 7 17.798 C 7 19.731 5.433 21.298 3.5 21.298 C 1.567 21.298 0 19.731 0 17.798 Z M 7 17.798 L 0 17.798 L 0 0 L 7 0 Z " fill="#ffffff"/>
<path transform="matrix(1,0,0,-1,97.2484,73.39931)" d="M 0 0 C 0 -1.933 -1.567 -3.5 -3.5 -3.5 C -5.433 -3.5 -7 -1.933 -7 0 Z M -7 17.566 C -7 19.499 -5.433 21.066 -3.5 21.066 C -1.567 21.066 0 19.499 0 17.566 Z M -7 17.566 L 0 17.566 L 0 0 L -7 0 Z " fill="#ffffff"/>
<path transform="matrix(1,0,0,-1,33.5562,69.992008)" d="M 0 0 C -1.293 -1.437 -1.177 -3.65 .26 -4.943 C 1.697 -6.236 3.91 -6.12 5.203 -4.683 Z M 54 -4.683 C 55.293 -6.12 57.506 -6.236 58.943 -4.943 C 60.38 -3.65 60.496 -1.437 59.203 0 Z M 28.115 26.007 L 30.716 23.665 Z M 31.088 26.007 L 28.487 23.665 Z M 5.203 -4.683 L 30.716 23.665 L 25.513 28.348 L 0 0 Z M 28.487 23.665 L 54 -4.683 L 59.203 0 L 33.69 28.348 Z M 30.716 23.665 C 30.121 23.003 29.082 23.003 28.487 23.665 L 33.69 28.348 C 31.505 30.776 27.698 30.776 25.513 28.348 Z " fill="#ffffff"/>
</g>
</g>
</g>
</g>
</svg>
