<?xml version="1.0" encoding="UTF-8" standalone="no"?>
<svg
   xmlns:dc="http://purl.org/dc/elements/1.1/"
   xmlns:cc="http://creativecommons.org/ns#"
   xmlns:rdf="http://www.w3.org/1999/02/22-rdf-syntax-ns#"
   xmlns:svg="http://www.w3.org/2000/svg"
   xmlns="http://www.w3.org/2000/svg"
   viewBox="0 0 59.333332 73.333336"
   height="73.333336"
   width="59.333332"
   xml:space="preserve"
   id="svg2"
   version="1.1"><metadata
     id="metadata8"><rdf:RDF><cc:Work
         rdf:about=""><dc:format>image/svg+xml</dc:format><dc:type
           rdf:resource="http://purl.org/dc/dcmitype/StillImage" /></cc:Work></rdf:RDF></metadata><defs
     id="defs6" /><g
     transform="matrix(1.3333333,0,0,-1.3333333,0,73.333333)"
     id="g10"><g
       transform="translate(3,-3)"
       id="g12"><path
         id="path14"
         style="fill:#245080;fill-opacity:1;fill-rule:nonzero;stroke:none"
         d="m 33,26.5 c 0,1.656855 -1.343145,3 -3,3 -1.656855,0 -3,-1.343145 -3,-3 z M 10.5,43 c 1.656855,0 3,1.343147 3,3 0,1.656853 -1.343145,3 -3,3 z M -3,44 V 8 H 3 V 44 Z M 2,3 H 28 V 9 H 2 Z M 33,8 V 26.5 H 27 V 8 Z M 2,43 h 8.5 v 6 H 2 Z M 28,3 c 2.761423,0 5,2.238575 5,5 h -6 c 0,0.552284 0.447716,1 1,1 z M -3,8 C -3,5.238579 -0.761424,3 2,3 V 9 C 2.552286,9 3,8.552284 3,8 Z M 3,44 C 3,43.447716 2.552285,43 2,43 v 6 c -2.761424,0 -5,-2.238575 -5,-5 z" /></g><g
       transform="translate(23,37.5)"
       id="g16"><path
         id="path18"
         style="fill:#245080;fill-opacity:1;fill-rule:nonzero;stroke:none"
         d="M 0,9 C -1.656854,9 -3,7.656854 -3,6 -3,4.343146 -1.656854,3 0,3 Z M 18.5,3 c 1.656855,0 3,1.343146 3,3 0,1.656854 -1.343145,3 -3,3 z M 0,3 H 18.5 V 9 H 0 Z" /></g><g
       transform="rotate(-90,30,22)"
       id="g20"><path
         id="path22"
         style="fill:#245080;fill-opacity:1;fill-rule:nonzero;stroke:none"
         d="m 0,27.5 c -1.656854,0 -3,-1.343145 -3,-3 0,-1.656855 1.343146,-3 3,-3 z m 18.5,-6 c 1.656855,0 3,1.343145 3,3 0,1.656855 -1.343145,3 -3,3 z M 0,21.5 h 18.5 v 6 H 0 Z" /></g></g></svg>