<?xml version="1.0" encoding="UTF-8" standalone="no"?>
<svg
   xmlns:dc="http://purl.org/dc/elements/1.1/"
   xmlns:cc="http://creativecommons.org/ns#"
   xmlns:rdf="http://www.w3.org/1999/02/22-rdf-syntax-ns#"
   xmlns:svg="http://www.w3.org/2000/svg"
   xmlns="http://www.w3.org/2000/svg"
   viewBox="0 0 74.666664 77.333984"
   height="77.333984"
   width="74.666664"
   xml:space="preserve"
   id="svg2"
   version="1.1"><metadata
     id="metadata8"><rdf:RDF><cc:Work
         rdf:about=""><dc:format>image/svg+xml</dc:format><dc:type
           rdf:resource="http://purl.org/dc/dcmitype/StillImage" /></cc:Work></rdf:RDF></metadata><defs
     id="defs6" /><g
     transform="matrix(1.3333333,0,0,-1.3333333,0,77.333984)"
     id="g10"><g
       transform="translate(4,-4.271484)"
       id="g12"><path
         id="path14"
         style="fill:#245080;fill-opacity:1;fill-rule:nonzero;stroke:none"
         d="m 51.999996,32.345558 c 0,2.209137 -1.790859,4 -4,4 -2.209137,0 -4,-1.790863 -4,-4 z m -7.692306,12.962963 0.567398,-3.959552 c 1.7598,0.252174 3.141987,1.635559 3.392643,3.395572 z m -13.490473,2.107701 c -2.186802,-0.313363 -3.705523,-2.340149 -3.392159,-4.526947 0.313366,-2.186802 2.340149,-3.705521 4.526951,-3.392159 z m 19.296667,10.291282 c 0.311478,2.187073 -1.208988,4.212544 -3.396061,4.524021 -2.187069,0.311478 -4.212543,-1.208992 -4.524021,-3.396061 z M 43.999996,32.345558 c 0,-9.320976 -7.83683,-20.074074 -19.999998,-20.074074 v -8 c 17.375292,0 27.999998,15.172829 27.999998,28.074074 z M 23.999998,12.271484 C 11.83683,12.271484 4,23.024582 4,32.345558 H -4 C -4,19.444313 6.624709,4.271484 23.999998,4.271484 Z M 4,32.345558 c 0,9.320976 7.83683,20.074074 19.999998,20.074074 v 8 C 6.624709,60.419632 -4,45.246803 -4,32.345558 Z m 19.999998,20.074074 c 7.604799,0 13.851412,-4.623314 16.976339,-9.32518 l 6.662705,4.428139 C 43.379356,53.931839 34.856735,60.419632 23.999998,60.419632 Z m 7.952011,-12.922516 12.923079,1.851853 -1.134793,7.919105 -12.923078,-1.851852 z m 16.315722,5.247425 1.846153,12.962963 -7.920082,1.12796 -1.846153,-12.962963 z" /></g></g></svg>