<?xml version="1.0" encoding="UTF-8" standalone="no"?>
<!DOCTYPE svg PUBLIC "-//W3C//DTD SVG 1.1//EN" "http://www.w3.org/Graphics/SVG/1.1/DTD/svg11.dtd">
<svg xmlns="http://www.w3.org/2000/svg" xmlns:xlink="http://www.w3.org/1999/xlink" version="1.1" width="281.7pt" height="142pt" viewBox="0 0 281.7 142">
<g enable-background="new">
<g>
<g id="Layer-1" data-name="Layer 1">
<clipPath id="cp0">
<path transform="matrix(1,0,0,-1,0,142)" d="M 0 142 L 281.7 142 L 281.7 0 L 0 0 Z "/>
</clipPath>
<g clip-path="url(#cp0)">
<path transform="matrix(1,0,0,-1,10,0)" d="M 0 0 L 211 0 C 216.5 0 221 -4.5 221 -10 L 221 -132 C 221 -137.5 216.5 -142 211 -142 L 0 -142 C -5.5 -142 -10 -137.5 -10 -132 L -10 -10 C -10 -4.5 -5.5 0 0 0 " fill="#baebf4"/>
<path transform="matrix(1,0,0,-1,10,0)" d="M 0 0 L 6 0 C 11.5 0 16 -4.5 16 -10 L 16 -132 C 16 -137.5 11.5 -142 6 -142 L 0 -142 C -5.5 -142 -10 -137.5 -10 -132 L -10 -10 C -10 -4.5 -5.5 0 0 0 " fill="#00b0f0"/>
<path transform="matrix(1,0,0,-1,202.5,34)" d="M 0 0 C 1.3 3.5 3.1 3.7 5 7.4 C 6.2 9.6 6.3 14.6 11.9 23.2 C 17.1 23.6 43.5 20.8 56.8 17.8 C 62.5 7.3 57.2 3 61.3 -4.1 C 64.8 -10.2 60.8 -16.8 56.9 -19.2 C 56.4 -19.5 58.4 -17.6 57.3 -13.7 C 56.5 -17.2 55.2 -20.1 53.8 -20.6 C 45.3 -23.6 32.9 -23.8 25.6 -22.8 C 16.6 -21.6 12.1 -19.3 8.8 -17.1 C 8 -16.6 7.7 -13.3 7.5 -10.8 C 7.1 -11.1 6.5 -14 7.1 -16.4 C 3.2 -15.4 -2.8 -7.4 0 0 " fill="#ad5c49"/>
<path transform="matrix(1,0,0,-1,200.4,82.6)" d="M 0 0 C -.4 -.2 -3.2 4.9 -2.8 5.1 C 3.3 9.4 13.2 16.5 15 17.8 C 16.7 13.9 17 11.9 15.5 9.2 C 14.4 7.1 6.2 3.4 0 0 " fill="#ffc19f"/>
<path transform="matrix(1,0,0,-1,208.7,67.5)" d="M 0 0 C 2.3 -2.1 6.6 -5.7 9.3 -6.9 C 10.8 1.4 10.6 11 10.6 11.4 C 10.3 11.4 9.7 11.2 9.4 11 C 7.3 9.3 4.3 4.5 0 0 " fill="#ed3b61"/>
<path transform="matrix(1,0,0,-1,192.8,77.5)" d="M 0 0 C -.8 -.4 -1.9 -1.6 -3.2 -3.1 C -3.4 -3.4 -3.9 -4.7 -4.3 -5.9 C -4.5 -6.4 -4.8 -7.4 -4.5 -7.4 C -4.2 -7.5 -3.5 -7.4 -3.3 -6.7 C -3.2 -7.8 -3.1 -8.9 -2.9 -8.9 C -2.1 -8.9 -1.7 -8.2 -1.7 -7.3 C -1.6 -8.1 -1.4 -9.2 -.9 -9.2 C -.2 -9.3 -.1 -8.9 0 -8.1 C 1.5 -8.6 2.8 -4.5 5.4 -4.7 C 6.7 -4.8 4.8 -6.2 6.3 -7.1 C 7.8 -6.1 8.5 -5.1 8.3 -1.6 C 8.2 .5 8.8 1.8 8.1 1.8 C 6.5 1.5 1 .5 0 0 " fill="#ffc19f"/>
<path transform="matrix(1,0,0,-1,192.7,85.6)" d="M 0 0 C 0 0 -.1 0 0 0 C -.1 0 -.1 .1 -.1 .1 C .2 1 .7 2.6 .9 2.8 C 1.2 3.2 2.1 4 3 4.6 L 3.1 4.6 L 3.1 4.5 C 2.2 3.8 1.4 3.1 1 2.7 C .8 2.6 .4 1.2 0 0 C 0 .1 0 0 0 0 " fill="#f29d77"/>
<path transform="matrix(1,0,0,-1,189.3,84.2)" d="M 0 0 L .2 -.1 C .6 1.1 1.2 2.5 1.4 2.8 C 2.1 3.6 2.8 4.3 3.3 4.7 L 3.3 4.8 L 3.2 4.8 C 2.7 4.3 2 3.7 1.3 2.8 C 1 2.6 .2 .4 0 0 M 2.7 2.3 C 2.5 2.1 1.8 .1 1.7 -.4 C 1.7 -.4 1.7 -.5 1.8 -.5 C 1.8 -.5 1.9 -.5 1.9 -.4 C 2.1 .2 2.7 2.1 2.9 2.2 C 3.2 2.6 4 3.4 4.8 4.1 L 4.8 4.2 L 4.7 4.2 C 3.9 3.5 3.1 2.6 2.7 2.3 " fill="#f29d77"/>
<path transform="matrix(1,0,0,-1,264.7,95.6)" d="M 0 0 C .8 .3 4 -6.8 3.2 -7.2 C -3.7 -10.3 -12.9 -16.1 -16.5 -17.3 C -18.1 -17.8 -21.5 -17.1 -22.6 -14.9 C -23.5 -13.2 -24.9 -10.2 -24.9 -10.2 C -19.3 -8.2 -5.7 -2.5 0 0 " fill="#ffc19f"/>
<g opacity=".119995">
<clipPath id="cp1">
<path transform="matrix(1,0,0,-1,0,142)" d="M 209.7 .0000152588 L 278.5 .0000152588 L 278.5 4.40001 L 209.7 4.40001 Z "/>
</clipPath>
<g clip-path="url(#cp1)">
<path transform="matrix(1,0,0,-1,209.7,139.8)" d="M 0 0 C 0 -1.2 15.4 -2.2 34.4 -2.2 C 53.4 -2.2 68.8 -1.2 68.8 0 C 68.8 1.2 53.4 2.2 34.4 2.2 C 15.4 2.2 0 1.2 0 0 "/>
</g>
</g>
<path transform="matrix(1,0,0,-1,222.6,130.4)" d="M 0 0 C -.6 4.8 -1.8 15.9 -2.7 21.9 L 7.4 22.1 C 7.6 15.6 8 3.9 8 -.3 Z " fill="#ffc19f"/>
<path transform="matrix(1,0,0,-1,210.7,104.2)" d="M 0 0 C .4 -.4 3.7 -2 4 -2.1 C 3.9 -2.2 3.8 -3 3.7 -3.3 C 8 -5.5 14.6 -6.2 20.6 -5.8 C 29.5 -5.2 33.5 -3.4 40 .6 C 39.9 .7 39.5 1.6 39.5 1.7 C 39.7 1.8 42.5 3.6 42.9 3.9 C 42.9 3.9 35 16.9 33.9 18.6 C 26.6 16.8 12.4 15.8 6.4 17 C 5.1 13.5 1.2 2.9 0 0 " fill="#68295f"/>
<g opacity=".5">
<clipPath id="cp2">
<path transform="matrix(1,0,0,-1,0,142)" d="M 213.3 35.7 L 216.9 35.7 L 216.9 45.4 L 213.3 45.4 Z "/>
</clipPath>
<g clip-path="url(#cp2)">
<path transform="matrix(1,0,0,-1,213.3,105.6)" d="M 0 0 L 1.4 -.7 L 3.6 9 Z " fill="#150028"/>
</g>
</g>
<g opacity=".5">
<clipPath id="cp3">
<path transform="matrix(1,0,0,-1,0,142)" d="M 246.8 39.5 L 251.3 39.5 L 251.3 47.6 L 246.8 47.6 Z "/>
</clipPath>
<g clip-path="url(#cp3)">
<path transform="matrix(1,0,0,-1,250.1,102.5)" d="M 0 0 L 1.2 .7 L -3.3 8.1 Z " fill="#150028"/>
</g>
</g>
<g opacity=".350006">
<clipPath id="cp4">
<path transform="matrix(1,0,0,-1,0,142)" d="M 215.4 48.5992 L 247.6 48.5992 L 247.6 56.4 L 215.4 56.4 Z "/>
</clipPath>
<g clip-path="url(#cp4)">
<path transform="matrix(1,0,0,-1,244.5,85.6)" d="M 0 0 C -7.3 -1.8 -21 -1.2 -26.9 0 C -27.4 -1.3 -28.8 -5.2 -29.1 -6 C -21.1 -9.1 -9 -7.8 3.1 -5.1 C 2.4 -4 .3 -.4 0 0 "/>
</g>
</g>
<path transform="matrix(1,0,0,-1,270.5,52.6)" d="M 0 0 C .7 .5 -2.6 6 -3.2 5.6 C -11.5 .8 -16.3 -1.4 -28.1 -3 C -27 -5.5 -26.4 -9.3 -25.4 -11.7 C -13.9 -8.3 -7.6 -5.5 0 0 " fill="#ffc19f"/>
<path transform="matrix(1,0,0,-1,253.9,52.800004)" d="M 0 0 C .8 -2.5 2 -8.2 2.7 -10.8 C -2.8 -12.7 -7.4 -13.9 -7.8 -13.8 C -12.1 -12.7 -14.6 -3.3 -14.9 -2.8 C -12 -2.6 -5.5 -1.7 0 0 " fill="#ed3b61"/>
<path transform="matrix(1,0,0,-1,247.6,89.9)" d="M 0 0 C -10.2 -3 -23.8 -3.7 -32.8 .5 C -32.8 .5 -30.1 27.2 -28.6 33.7 C -25.4 34.2 -19.7 34.7 -14.1 34.7 C -9.3 34.7 -5.4 34.4 -1.8 34.6 C -1.5 24.4 -1.3 12.1 0 0 " fill="#ed3b61"/>
<path transform="matrix(1,0,0,-1,238.8,55.300004)" d="M 0 0 C -2 0 -4.1 .1 -6.4 .1 C -9.4 .1 -12.2 -.1 -14.7 -.3 C -14.6 -3.9 -11.3 -6.8 -7.2 -6.7 C -3.1 -6.6 .1 -3.6 0 0 " fill="#ffc19f"/>
<path transform="matrix(1,0,0,-1,225.8,47.9)" d="M 0 0 L -.1 -9 C -.1 -10.9 2.3 -12.5 5.4 -12.6 C 8.4 -12.6 10.9 -11.1 11 -9.1 L 11.1 -.1 Z " fill="#ffc19f"/>
<g opacity=".190002">
<clipPath id="cp5">
<path transform="matrix(1,0,0,-1,0,142)" d="M 221.712 85.3172 L 239.059 85.3172 L 239.059 98.6828 L 221.712 98.6828 Z "/>
</clipPath>
<g clip-path="url(#cp5)">
<path transform="matrix(1,0,0,-1,221.9,52.300004)" d="M 0 0 C .9 -3.5 5.5 -5.2 10.2 -4 C 14.9 -2.7 17.9 1.1 17 4.6 C 16.1 8.1 11.5 9.8 6.8 8.6 C 2.1 7.3 -1 3.5 0 0 " fill="#960c0c"/>
</g>
</g>
<path transform="matrix(1,0,0,-1,257.2,100.6)" d="M 0 0 C .3 -.4 .8 -.6 1.2 -.3 L .3 1.2 C -.1 1 -.3 .4 0 0 M .9 -1.5 C 1.2 -1.9 1.7 -2.1 2.1 -1.8 L 1.2 -.3 C .8 -.6 .7 -1.1 .9 -1.5 M 1.9 -3.1 C 2.2 -3.5 2.7 -3.7 3.1 -3.4 L 2.2 -1.9 C 1.8 -2.1 1.6 -2.7 1.9 -3.1 M 3.8 -6.2 C 3.9 -6.4 4.1 -6.5 4.4 -6.6 L 4.9 -6.2 L 4.1 -4.9 C 3.6 -5.2 3.5 -5.7 3.8 -6.2 M 2.8 -4.6 C 3.1 -5 3.6 -5.2 4 -4.9 L 3.1 -3.4 C 2.7 -3.6 2.6 -4.2 2.8 -4.6 M -.9 1.5 C -.6 1.1 -.1 .9 .3 1.2 L -.3 2.2 C -.5 2.1 -.7 2 -1 1.9 C -1 1.7 -1 1.6 -.9 1.5 " fill="#ed457d"/>
<path transform="matrix(1,0,0,-1,265.5,94.2)" d="M 0 0 C .2 .1 4.4 -7.3 4.1 -7.5 C 2 -9.1 -2.7 -12 -3.5 -12.6 L -8.6 -4.2 C -6.1 -3 -1.6 -.7 0 0 " fill="#fff8b3"/>
<path transform="matrix(1,0,0,-1,264.8,103.3)" d="M 0 0 C -.6 -.2 -2.9 5.2 -3.7 6 C -2.5 6.8 -1 8.8 .7 9.8 C 1.9 10.5 3.3 10.1 4.2 9.2 C 7.6 5.6 16.8 -3.6 14.1 -6 C 11.9 -7.9 5.9 -2.7 0 0 " fill="#fff8b3"/>
<path transform="matrix(1,0,0,-1,262.6,95.3)" d="M 0 0 C 0 -.1 .1 -.3 .3 -.4 C 1.5 -1 3.1 -2.2 4.4 -3.2 C 4.8 -3.6 5.2 -3.9 5.6 -4.3 C 4.6 -5.6 3.8 -7.6 3.8 -9 C 3.8 -9.3 4.1 -9.5 4.4 -9.5 C 4.7 -9.5 4.9 -9.2 4.9 -8.9 C 4.9 -7.8 5.5 -6.1 6.3 -5.1 C 8.4 -7.6 9.7 -9.6 8.7 -11.8 C 12.6 -13.7 15.3 -16.6 17.4 -15.1 C 19.9 -13.3 5.3 3.5 5.3 3.5 C 3.7 2.5 1.3 .9 0 0 " fill="#f93d77"/>
<path transform="matrix(1,0,0,-1,266.9,92.4)" d="M 0 0 C .3 .2 .7 .4 1 .6 C 1 .6 14.4 -13.5 13.7 -17.4 C 13.7 -17.5 13.3 -17.9 13.2 -18 C 11.2 -12.8 3.2 -3.6 0 0 " fill="#b52652"/>
<path transform="matrix(1,0,0,-1,263.2,106)" d="M 0 0 C -1.9 3.5 -2.9 4.9 -5 8.3 L -5.4 8.1 C -3.2 4.8 -2.3 3.3 -.3 -.2 Z " fill="#ed457d"/>
<path transform="matrix(1,0,0,-1,222.6,125.9)" d="M 0 0 L 1.8 .1 C 1.8 .6 1.4 1 .9 1 C .3 1 0 .5 0 0 M 1.8 .1 L 3.6 .2 C 3.6 .7 3.2 1.1 2.7 1.1 C 2.1 1 1.8 .6 1.8 .1 M 3.6 .2 L 5.4 .3 C 5.4 .8 5 1.2 4.5 1.2 C 4 1.1 3.6 .7 3.6 .2 M 7.2 .3 L 8.7 .4 L 8.7 1 C 8.5 1.2 8.3 1.3 8.1 1.2 C 7.6 1.2 7.2 .8 7.2 .3 M 5.4 .2 L 7.2 .3 C 7.2 .8 6.8 1.2 6.3 1.2 C 5.8 1.1 5.4 .7 5.4 .2 M -1.3 .8 C -1.3 .5 -1.2 .2 -1.2 0 L -.1 0 C -.1 .5 -.5 .9 -1 .9 C -1.1 .9 -1.2 .8 -1.3 .8 " fill="#ed457d"/>
<path transform="matrix(1,0,0,-1,222.7,135.3)" d="M 0 0 C 0 -.3 8.5 .3 8.5 .7 C 8.7 3.4 8.6 8.8 8.6 9.8 L -1.2 9.5 C -.9 6.6 -.3 1.6 0 0 " fill="#fff8b3"/>
<path transform="matrix(1,0,0,-1,223.8,129.8)" d="M 0 0 C .1 .6 6 -.4 7.1 -.2 C 7.1 -1.6 8 -4 7.9 -5.9 C 7.9 -7.3 6.7 -8.3 5.5 -8.5 C .7 -9.4 -12.1 -12 -12.7 -8.5 C -13.2 -5.6 -5.6 -3.4 0 0 " fill="#fff8b3"/>
<path transform="matrix(1,0,0,-1,231.6,132.3)" d="M 0 0 C -.1 .1 -.3 .1 -.5 -.1 C -1.7 -.8 -3.6 -1.5 -5.1 -2 C -5.6 -2.2 -6.1 -2.3 -6.7 -2.4 C -7.2 -.9 -8.5 .9 -9.7 1.7 C -10 1.9 -10.3 1.8 -10.4 1.5 C -10.5 1.2 -10.5 .9 -10.2 .7 C -9.3 .1 -8.2 -1.3 -7.7 -2.5 C -10.9 -2.9 -13.4 -2.9 -14.6 -.8 C -18.3 -3 -22.2 -3.7 -22.1 -6.2 C -22 -9.3 .1 -6.4 .1 -6.4 C .1 -4.5 .1 -1.7 0 0 " fill="#f93d77"/>
<path transform="matrix(1,0,0,-1,231.7,137.5)" d="M 0 0 L 0 -1.2 C 0 -1.2 -19.1 -4.7 -22.1 -1.9 C -22.2 -1.8 -22.3 -1.3 -22.3 -1.2 C -16.8 -2.3 -4.8 -.7 0 0 " fill="#b52652"/>
<path transform="matrix(1,0,0,-1,231.3,127)" d="M 0 0 C -4 -.3 -5.7 -.3 -9.7 -.3 L -9.8 .1 C -5.8 .1 -4.1 .1 -.1 .4 Z " fill="#ed457d"/>
<path transform="matrix(1,0,0,-1,208.3,37.1)" d="M 0 0 C .7 -3.5 3.1 -5.4 4.9 -4.9 C 6.7 -4.4 7.1 -1.4 6.8 1.9 C 6.5 5.3 4.7 7.6 2.9 7 C .4 6.3 -.6 3.2 0 0 " fill="#f7a981"/>
<path transform="matrix(1,0,0,-1,210.1,20.5)" d="M 0 0 C -1.8 -15.5 7.3 -23.5 21.7 -24.8 C 36.1 -26.1 49 -21.1 50.4 -5.6 C 51.8 9.9 40.4 16.1 26.6 17.4 C 10.4 18.9 1.6 13.9 0 0 " fill="#ad5c49"/>
<path transform="matrix(1,0,0,-1,211.4,41.199998)" d="M 0 0 C 2.4 -8.1 7.6 -12.5 15.3 -12.8 C 29.6 -13.5 38.9 -5.5 43.3 11 C 48 28.6 35.7 30.5 23.1 31.7 C 14.6 32.5 7.6 33 3.6 27.7 C 1.1 24.4 -1.2 4 0 0 " fill="#fbc1a0"/>
<path transform="matrix(1,0,0,-1,222.4,29.900002)" d="M 0 0 C 1.1 -2.4 .6 -4.8 -.7 -5.6 C -2.6 -6.8 -6.9 -6.7 -8.2 -4.5 C -9.5 -2.3 -8.3 1.2 -5.6 2.4 C -3.3 3.5 -1.1 2.3 0 0 " fill="#f9fdff"/>
<path transform="matrix(1,0,0,-1,214.6,28.300004)" d="M 0 0 C 2.3 3.2 6.8 1.5 7.8 -1.7 C 6.7 .7 4.3 1.7 2.2 .7 C .9 .1 -.2 -1.2 -.6 -2.7 C -.9 -3.9 -.9 -5.3 -.3 -6.2 C -1 -5.6 -1.7 -2.4 0 0 " fill="#843923"/>
<path transform="matrix(1,0,0,-1,221.5,31.300004)" d="M 0 0 C .4 -1.6 -.5 -3.3 -1.9 -3.8 C -3.3 -4.3 -4.8 -3.3 -5.2 -1.7 C -5.6 -.1 -4.7 1.6 -3.3 2.1 C -1.8 2.5 -.3 1.6 0 0 " fill="#461d14"/>
<path transform="matrix(1,0,0,-1,221.4,31)" d="M 0 0 C .1 -.4 -.1 -.9 -.5 -1 C -.9 -1.1 -1.3 -.9 -1.4 -.4 C -1.5 0 -1.3 .5 -.9 .6 C -.6 .7 -.1 .4 0 0 " fill="#fefffe"/>
<path transform="matrix(1,0,0,-1,233.1,31.199997)" d="M 0 0 C -1.8 -2.1 -1.9 -4.6 -.6 -5.6 C 1.3 -7.2 6 -8.2 8 -6.3 C 9.9 -4.5 9.5 -.8 6.8 1 C 4.5 2.7 1.7 2.1 0 0 " fill="#f9fdff"/>
<path transform="matrix(1,0,0,-1,242.1,31.5)" d="M 0 0 C -1.8 3.7 -7.2 3.1 -9.1 .3 C -7.3 2.4 -4.4 2.7 -2.3 1.2 C -1 .3 -.1 -1.2 0 -2.8 C .1 -4 -.3 -5.4 -1.2 -6.1 C -.2 -5.7 1.3 -2.7 0 0 " fill="#843923"/>
<path transform="matrix(1,0,0,-1,240.1,33.4)" d="M 0 0 C .4 -1.6 -.5 -3.3 -2.1 -3.7 C -3.7 -4.1 -5.4 -3.2 -5.8 -1.6 C -6.2 0 -5.3 1.7 -3.7 2.1 C -2.1 2.6 -.5 1.7 0 0 " fill="#461d14"/>
<path transform="matrix(1,0,0,-1,239.9,33.1)" d="M 0 0 C .1 -.5 -.1 -.9 -.6 -1 C -1.1 -1.1 -1.5 -.9 -1.6 -.4 C -1.7 .1 -1.5 .5 -1 .6 C -.6 .7 -.2 .5 0 0 " fill="#fefffe"/>
<path transform="matrix(1,0,0,-1,215.3,22.300004)" d="M 0 0 C .2 0 .4 0 .6 .1 C 2 1.1 4.5 1 6.3 0 C 6.7 -.2 7.2 -.1 7.5 .3 C 7.7 .7 7.6 1.2 7.2 1.5 C 4.8 2.8 1.7 2.8 -.3 1.5 C -.7 1.2 -.8 .7 -.5 .3 C -.5 .2 -.3 0 0 0 " fill="#5d1f12"/>
<path transform="matrix(1,0,0,-1,243,25.900002)" d="M 0 0 C .3 0 .5 0 .7 .2 C 1.1 .5 1.1 1.1 .8 1.5 C -.9 3.4 -4.2 4.4 -7.1 3.7 C -7.6 3.6 -7.9 3.1 -7.8 2.6 C -7.7 2.1 -7.2 1.8 -6.7 1.9 C -4.5 2.4 -1.9 1.7 -.6 .3 C -.4 .1 -.2 0 0 0 " fill="#5d1f12"/>
<path transform="matrix(1,0,0,-1,224.2,37.1)" d="M 0 0 C .1 0 .2 .1 .2 .2 C .4 .9 1.1 1.3 1.8 1.2 C 2.6 1.1 3.1 .5 3.1 -.2 C 3.1 -.3 3.2 -.4 3.3 -.4 C 3.4 -.4 3.5 -.3 3.5 -.2 C 3.5 .7 2.8 1.5 1.8 1.6 C .8 1.7 0 1.2 -.3 .3 C -.2 .2 -.1 .1 0 0 " fill="#c4735b"/>
<path transform="matrix(1,0,0,-1,247.4,31)" d="M 0 0 C -.6 -6.4 3.1 -11.4 6.3 -11.7 C 6.7 -7.9 9.5 7.7 10.2 15.4 C 9.1 15.6 4.8 16.1 -1.9 17.2 C 5.7 13.7 .7 7.3 0 0 " fill="#ad5c49"/>
<path transform="matrix(1,0,0,-1,233.8,42.4)" d="M 0 0 C -.1 1.7 -3.2 1.7 -7.2 2.2 C -7.4 2.2 -8.2 2.3 -8.4 2.3 C -12.4 2.7 -14.7 3.4 -15.1 1.8 C -15.8 -1.2 -12.8 -5.3 -8.8 -5.8 L -8.7 -5.8 C -4.3 -6.4 .2 -3.3 0 0 " fill="#701608"/>
<path transform="matrix(1,0,0,-1,229.6,47.6)" d="M 0 0 C -1 1.1 -2.4 1.9 -4 2.1 C -5.6 2.3 -7.1 1.9 -8.3 1.1 C -7.6 .5 -6.8 .1 -6 -.2 C -5.5 -.4 -5 -.5 -4.5 -.5 L -4.4 -.5 C -3.3 -.6 -2.2 -.5 -1.2 -.3 L -1.1 -.3 C -.8 -.3 -.4 -.2 0 0 " fill="#dd6b5b"/>
<path transform="matrix(1,0,0,-1,231.5,40.9)" d="M 0 0 L 0 0 C 0 .1 -4.4 .7 -6 .8 C -7.5 1 -10.8 1.3 -10.8 1.3 L -10.8 1.2 C -10.7 0 -8.4 -1.2 -5.6 -1.6 C -2.9 -1.8 -.5 -1.1 0 0 " fill="#ffffff"/>
<path transform="matrix(1,0,0,-1,244.1,42.1)" d="M 0 0 C -.1 -1 -1.5 -1.7 -3.2 -1.6 C -4.9 -1.5 -6.2 -.6 -6.2 .4 C -6.1 1.4 -4.7 2.1 -3 2 C -1.3 1.9 0 1 0 0 " fill="#ff8a8a"/>
<path transform="matrix(1,0,0,-1,217.6,39.1)" d="M 0 0 C -.1 -.9 -1.3 -1.4 -2.6 -1.2 C -3.9 -1 -4.9 -.1 -4.7 .8 C -4.6 1.7 -3.4 2.2 -2.1 2 C -.8 1.8 .1 .9 0 0 " fill="#ff8a8a"/>
<path transform="matrix(1,0,0,-1,250.9,20.599999)" d="M 0 0 C 1.9 0 3.9 0 5.8 -.2 C 6 1.8 5.9 3.6 5.4 4.8 C -1.4 12.5 -22.9 17.4 -33.9 13.2 C -40.4 10.7 -42.3 4.4 -42.4 .8 C -39.9 1.9 -33.3 2 -27.8 1.7 C -26.8 2.8 -25.7 7.1 -25.7 7.1 C -25.7 7.1 -25.5 3 -26.3 1.5 C -23.8 1.2 -17.1 .6 -14.1 .1 C -13.1 1.3 -12.1 4.7 -12.1 4.7 C -12.1 4.7 -11.9 1.5 -12.5 0 C -11.8 -.2 -9.9 -.3 -9.1 -.4 C -5.7 .9 -5.3 5.4 -2.8 5 C -.7 4.6 0 2.4 0 0 " fill="#ad5c49"/>
<path transform="matrix(1,0,0,-1,255.6,19.599999)" d="M 0 0 C -1.4 8 -8.7 14.5 -19.7 16.3 C -28.3 17.7 -36.1 16.8 -41.4 10.5 C -35.1 15 -28.5 14.8 -20.8 13.4 C -14.2 12.3 -3.9 7.6 0 0 " fill="#f49000"/>
<path transform="matrix(1,0,0,-1,253.9,14.900002)" d="M 0 0 C -1.4 -4.8 7.1 -11.9 15.2 -6.1 C 9.7 2.2 5.1 2 0 0 " fill="#ffa10b"/>
<g opacity=".279999">
<clipPath id="cp6">
<path transform="matrix(1,0,0,-1,0,142)" d="M 254.047 123.307 L 260.9 123.307 L 260.9 127.373 L 254.047 127.373 Z "/>
</clipPath>
<g clip-path="url(#cp6)">
<path transform="matrix(1,0,0,-1,254.2,15.099998)" d="M 0 0 C .3 1.1 4.6 .3 6.7 -2.6 C 3.1 -4.7 -1 -3.3 0 0 " fill="#6c0b2a"/>
</g>
</g>
<path transform="matrix(1,0,0,-1,254.7,13.899994)" d="M 0 0 C -6.1 -1.8 -12.6 6.8 -1.6 13.9 C .7 5.9 2.7 3.4 0 0 " fill="#ffa10b"/>
<g opacity=".279999">
<clipPath id="cp7">
<path transform="matrix(1,0,0,-1,0,142)" d="M 250.546 128.625 L 253.709 128.625 L 253.709 135.2 L 250.546 135.2 Z "/>
</clipPath>
<g clip-path="url(#cp7)">
<path transform="matrix(1,0,0,-1,253.5,13.300003)" d="M 0 0 C 1 1.5 -1.9 3.6 -2.2 6.5 C -3.4 5 -3.5 -.8 0 0 " fill="#6c0b2a"/>
</g>
</g>
<path transform="matrix(1,0,0,-1,251.5,15.599998)" d="M 0 0 C .6 -1 2.1 -1.3 3.2 -.7 C 4.3 -.1 4.7 1.3 4 2.3 C 3.4 3.3 1.9 3.6 .8 3 C -.2 2.4 -.6 1 0 0 " fill="#ffa10b"/>
<path transform="matrix(1,0,0,-1,256.3,42.9)" d="M 0 0 C -2.1 -3.8 -6.7 -5.1 -9.4 -4.1 C -11.5 -3.3 -11 .4 -9.7 3.8 C -8.3 7.4 -5.8 9.2 -2.9 8.7 C 1.1 7.9 1.9 3.4 0 0 " fill="#ffc19f"/>
<path transform="matrix(1,0,0,-1,252.7,41.9)" d="M 0 0 C -.6 -1.8 -3.1 -2.9 -4.6 -2 C -5.1 -1.7 -2.7 4 -1.8 3.9 C 0 3.6 .6 1.8 0 0 " fill="#e0956c"/>
<path transform="matrix(1,0,0,-1,275.5,50.6)" d="M 0 0 C .2 -.4 .8 -.5 1.8 -.7 C 2.7 -.9 4 -1.2 4.4 -1.7 C 4.9 -2.2 4.3 -2.7 3.3 -2.8 C 1.6 -3 -2.3 -3.3 -4.2 -3.3 C -7.5 -3.5 -10.6 -1.1 -10.8 2 C -11 6.7 -10.8 8.5 -10.8 11.3 C -10.8 12 -9.4 11.4 -9 10.5 C -8.2 8.6 -8.5 7.9 -8.1 7 C -7.6 6.1 -6.8 6.3 -6 6.9 C -2.9 10.9 -1.6 13.5 -.1 13.2 C 1.1 12.8 -.6 9.7 -2.8 6.4 C .7 8.9 3.7 10.6 4.2 9.6 C 4.8 8.4 1.8 6.2 -.7 3.9 C 2.6 4 5.9 5.1 6 3.4 C 6.2 2.2 -.6 1.1 0 0 " fill="#ffc19f"/>
<g opacity=".389999">
<clipPath id="cp8">
<path transform="matrix(1,0,0,-1,0,142)" d="M 224.788 66.6 L 236 66.6 L 236 76.4075 L 224.788 76.4075 Z "/>
</clipPath>
<g clip-path="url(#cp8)">
<path transform="matrix(1,0,0,-1,224.8,68.2)" d="M 0 0 C .2 1.8 1.5 2.7 3.1 2.6 C 4.3 2.5 5.2 1.4 5.6 .3 C 6.2 1.4 7.2 2.4 8.4 2.3 C 10 2.2 11.2 1.1 11.2 -.7 C 11.1 -3.4 5.1 -7.2 5.1 -7.2 C 5.1 -7.2 -.3 -3 0 0 " fill="#ffffff"/>
</g>
</g>
<path transform="matrix(1,0,0,-1,186.2,28.699997)" d="M 0 0 C .2 -.2 .5 -.2 .8 0 L 4.2 3.5 C 4.4 3.7 4.4 4 4.2 4.2 C 4 4.4 3.6 4.4 3.4 4.2 L 0 .7 C -.2 .5 -.2 .2 0 0 M 21.6 8.2 C 21.6 7.9 21.3 7.7 21 7.7 L 16.2 8 C 15.9 8 15.7 8.3 15.7 8.6 C 15.7 8.9 16 9.1 16.2 9.1 L 21 8.8 C 21.3 8.8 21.6 8.5 21.6 8.2 M 20.1 13 C 20.2 12.7 20 12.4 19.8 12.3 L 16.2 11 C 15.9 10.9 15.6 11 15.5 11.3 C 15.4 11.6 15.6 11.9 15.8 12 L 19.4 13.3 C 19.7 13.4 20 13.3 20.1 13 M 4.5 20.3 C 4.8 20.4 5.1 20.3 5.2 20 L 6.6 16.5 C 6.7 16.2 6.6 15.9 6.3 15.8 C 6 15.7 5.7 15.8 5.6 16.1 L 4.2 19.6 C 4.1 19.8 4.2 20.1 4.5 20.3 M -2 14 C -2.1 13.7 -2 13.4 -1.8 13.3 L 1.6 11.6 C 1.9 11.5 2.2 11.6 2.3 11.9 C 2.4 12.2 2.3 12.5 2.1 12.6 L -1.3 14.3 C -1.6 14.4 -1.9 14.3 -2 14 M 0 18.7 C -.3 18.5 -.3 18.2 -.1 17.9 L 3 14.1 C 3.2 13.9 3.5 13.8 3.7 14 C 3.9 14.2 4 14.5 3.8 14.7 L .7 18.5 C .6 18.9 .2 18.9 0 18.7 M -4.4 9.3 C -4.4 9 -4.2 8.7 -3.9 8.7 L .9 8.4 C 1.2 8.4 1.4 8.6 1.5 8.9 C 1.5 9.2 1.3 9.5 1 9.5 L -3.8 9.8 C -4.1 9.8 -4.4 9.6 -4.4 9.3 M 13.7 20 C 14 19.9 14.1 19.6 14 19.3 L 12.6 15.8 C 12.5 15.5 12.2 15.4 11.9 15.5 C 11.6 15.6 11.5 15.9 11.6 16.2 L 13 19.7 C 13.1 20 13.4 20.1 13.7 20 M 9.1 22.2 C 9.4 22.2 9.6 22 9.7 21.7 L 9.9 16.9 C 9.9 16.6 9.7 16.4 9.4 16.4 C 9.1 16.4 8.9 16.6 8.9 16.9 L 8.7 21.7 C 8.5 21.9 8.8 22.1 9.1 22.2 M 18.6 18.1 C 18.8 17.9 18.8 17.6 18.6 17.3 L 15.2 13.8 C 15 13.6 14.7 13.6 14.5 13.8 C 14.3 14 14.3 14.3 14.5 14.6 L 17.9 18.1 C 18.1 18.3 18.4 18.3 18.6 18.1 M -2.1 4.5 C -2 4.2 -1.7 4.1 -1.4 4.2 L 2.1 5.7 C 2.4 5.8 2.5 6.1 2.4 6.4 C 2.3 6.7 2 6.8 1.7 6.7 L -1.8 5.2 C -2.1 5.1 -2.2 4.8 -2.1 4.5 " fill="#ffc408"/>
<path transform="matrix(1,0,0,-1,199.7,17.400002)" d="M 0 0 C -1 2.7 -4 4 -6.7 3 C -9.4 2 -10.7 -1 -9.7 -3.7 C -9 -5.4 -7.5 -6.6 -5.8 -6.9 L -5.3 -8.2 L -.3 -6.3 L -.8 -5 C .3 -3.7 .6 -1.8 0 0 M -1 -7 L -4.6 -8.4 C -4.7 -8.5 -4.8 -8.6 -4.7 -8.8 L -4.6 -9 C -4.5 -9.1 -4.4 -9.2 -4.3 -9.2 L -.7 -7.8 C -.6 -7.7 -.5 -7.6 -.5 -7.4 L -.6 -7.2 C -.7 -7.1 -.8 -7 -1 -7 M -.6 -8.1 L -4.2 -9.5 C -4.3 -9.6 -4.4 -9.7 -4.3 -9.9 L -4.2 -10.1 C -4.1 -10.2 -4 -10.3 -3.9 -10.3 L -.3 -8.9 C -.2 -8.8 -.1 -8.7 -.1 -8.5 L -.2 -8.3 C -.3 -8.2 -.4 -8.1 -.6 -8.1 M -1.1 -9.6 L -2.8 -10.3 C -2.7 -10.5 -2.3 -10.6 -1.8 -10.4 C -1.4 -10.2 -1 -9.8 -1.1 -9.6 " fill="#ffc408"/>
<path transform="matrix(1,0,0,-1,196.5,20.900002)" d="M 0 0 C -.2 -.3 -.5 -.3 -.8 -.2 C -.9 -.1 -1 0 -1 .2 C -1 .3 -1 .5 -.9 .6 C -.8 .7 -.7 .8 -.6 .8 L -.5 .8 C -.4 .8 -.2 .8 -.1 .7 C 0 .6 .1 .5 .1 .3 C .1 .3 .1 .1 0 0 M -1.6 -.5 C -1.7 -.6 -1.9 -.7 -2.1 -.7 C -2.5 -.7 -2.8 -.4 -2.8 0 C -2.8 .3 -2.6 .5 -2.4 .6 C -2.3 .6 -2.2 .7 -2.1 .7 C -1.7 .7 -1.4 .4 -1.4 0 C -1.4 -.2 -1.5 -.3 -1.6 -.5 M 0 1.1 C -.2 1.2 -.5 1.3 -.7 1.2 C -.9 1.2 -1.2 1 -1.3 .8 C -1.3 .8 -1.3 .7 -1.4 .7 C -1.6 .9 -1.9 1 -2.2 1 C -2.8 1 -3.3 .5 -3.3 0 C -3.3 -.6 -2.8 -1.1 -2.2 -1.1 C -2 -1.1 -1.9 -1.1 -1.8 -1 C -1.7 -1 -1.6 -.9 -1.5 -.8 L -1.4 -.7 L -.1 -4 L .3 -3.9 L -.9 -.6 C -.7 -.7 -.4 -.7 -.2 -.6 C 0 -.5 .1 -.4 .2 -.2 C .3 0 .4 .3 .3 .5 C .4 .8 .3 1 0 1.1 " fill="#ffffff"/>
</g>
</g>
</g>
</g>
</svg>
