<svg xmlns="http://www.w3.org/2000/svg" viewBox="0 0 281.7 142" xmlns:v="https://vecta.io/nano"><path d="M10,0h211c5.5,0,10,4.5,10,10v122c0,5.5-4.5,10-10,10H10c-5.5,0-10-4.5-10-10V10C0,4.5,4.5,0,10,0z" fill="#baebf4"/><path d="M10,0h6c5.5,0,10,4.5,10,10v122c0,5.5-4.5,10-10,10h-6c-5.5,0-10-4.5-10-10V10C0,4.5,4.5,0,10,0z" fill="#00b0f0"/><path d="M202.5 34c1.3-3.5 3.1-3.7 5-7.4 1.2-2.2 1.3-7.2 6.9-15.8 5.2-.4 31.6 2.4 44.9 5.4 5.7 10.5.4 14.8 4.5 21.9 3.5 6.1-.5 12.7-4.4 15.1-.5.3 1.5-1.6.4-5.5-.8 3.5-2.1 6.4-3.5 6.9-8.5 3-20.9 3.2-28.2 2.2-9-1.2-13.5-3.5-16.8-5.7-.8-.5-1.1-3.8-1.3-6.3-.4.3-1 3.2-.4 5.6-3.9-1-9.9-9-7.1-16.4z" fill="#ad5c49"/><path d="M200.4 82.6c-.4.2-3.2-4.9-2.8-5.1l17.8-12.7c1.7 3.9 2 5.9.5 8.6-1.1 2.1-9.3 5.8-15.5 9.2z" fill="#ffc19f"/><path d="M208.7 67.5c2.3 2.1 6.6 5.7 9.3 6.9 1.5-8.3 1.3-17.9 1.3-18.3-.3 0-.9.2-1.2.4-2.1 1.7-5.1 6.5-9.4 11z" fill="#ed3b61"/><path d="M192.8 77.5c-.8.4-1.9 1.6-3.2 3.1-.2.3-.7 1.6-1.1 2.8-.2.5-.5 1.5-.2 1.5a.99.99 0 0 0 1.2-.7c.1 1.1.2 2.2.4 2.2.8 0 1.2-.7 1.2-1.6.1.8.3 1.9.8 1.9.7.1.8-.3.9-1.1 1.5.5 2.8-3.6 5.4-3.4 1.3.1-.6 1.5.9 2.4 1.5-1 2.2-2 2-5.5-.1-2.1.5-3.4-.2-3.4l-8.1 1.8z" fill="#ffc19f"/><path d="M192.7 85.6s-.1 0 0 0c-.1 0-.1-.1-.1-.1l1-2.7c.3-.4 1.2-1.2 2.1-1.8h.1v.1l-2.1 1.8c-.2.1-.6 1.5-1 2.7 0-.1 0 0 0 0zm-.7-3.7c-.2.2-.9 2.2-1 2.7 0 0 0 .1.1.1h0s.1 0 .1-.1c.2-.6.8-2.5 1-2.6.3-.4 1.1-1.2 1.9-1.9V80h-.1l-2 1.9zm-2.7 2.3l.2.1c.4-1.2 1-2.6 1.2-2.9.7-.8 1.4-1.5 1.9-1.9v-.1h-.1c-.5.5-1.2 1.1-1.9 2-.3.2-1.1 2.4-1.3 2.8z" fill="#f29d77"/><path d="M264.7 95.6c.8-.3 4 6.8 3.2 7.2-6.9 3.1-16.1 8.9-19.7 10.1-1.6.5-5-.2-6.1-2.4-.9-1.7-2.3-4.7-2.3-4.7 5.6-2 19.2-7.7 24.9-10.2z" fill="#ffc19f"/><path d="M209.7 139.8c0 1.2 15.4 2.2 34.4 2.2s34.4-1 34.4-2.2-15.4-2.2-34.4-2.2-34.4 1-34.4 2.2z" opacity=".12"/><path d="M222.6 130.4l-2.7-21.9 10.1-.2.6 22.4-8-.3z" fill="#ffc19f"/><path d="M210.7 104.2c.4.4 3.7 2 4 2.1-.1.1-.2.9-.3 1.2 4.3 2.2 10.9 2.9 16.9 2.5 8.9-.6 12.9-2.4 19.4-6.4-.1-.1-.5-1-.5-1.1.2-.1 3-1.9 3.4-2.2l-9-14.7c-7.3 1.8-21.5 2.8-27.5 1.6l-6.4 17z" fill="#68295f"/><path d="M213.3 105.6l1.4.7 2.2-9.7zm36.8-3.1l1.2-.7-4.5-7.4z" opacity=".5" fill="#150028"/><path d="M244.5 85.6c-7.3 1.8-21 1.2-26.9 0-.5 1.3-1.9 5.2-2.2 6 8 3.1 20.1 1.8 32.2-.9-.7-1.1-2.8-4.7-3.1-5.1z" opacity=".35"/><path d="M270.5 52.6c.7-.5-2.6-6-3.2-5.6-8.3 4.8-13.1 7-24.9 8.6 1.1 2.5 1.7 6.3 2.7 8.7 11.5-3.4 17.8-6.2 25.4-11.7z" fill="#ffc19f"/><g fill="#ed3b61"><path d="M253.9 52.8c.8 2.5 2 8.2 2.7 10.8-5.5 1.9-10.1 3.1-10.5 3-4.3-1.1-6.8-10.5-7.1-11 2.9-.2 9.4-1.1 14.9-2.8z"/><path d="M247.6 89.9c-10.2 3-23.8 3.7-32.8-.5 0 0 2.7-26.7 4.2-33.2 3.2-.5 8.9-1 14.5-1 4.8 0 8.7.3 12.3.1.3 10.2.5 22.5 1.8 34.6z"/></g><g fill="#ffc19f"><path d="M238.8 55.3c-2 0-4.1-.1-6.4-.1l-8.3.4c.1 3.6 3.4 6.5 7.5 6.4s7.3-3.1 7.2-6.7z"/><path d="M225.8 47.9l-.1 9c0 1.9 2.4 3.5 5.5 3.6 3 0 5.5-1.5 5.6-3.5l.1-9-11.1-.1z"/></g><path d="M221.9 52.3c.9 3.5 5.5 5.2 10.2 4 4.7-1.3 7.7-5.1 6.8-8.6s-5.5-5.2-10.2-4c-4.7 1.3-7.8 5.1-6.8 8.6z" opacity=".19" fill="#960c0c"/><path d="M256.3 99.1c.3.4.8.6 1.2.3l-.6-1c-.2.1-.4.2-.7.3 0 .2 0 .3.1.4zm3.7 6.1c.3.4.8.6 1.2.3l-.9-1.5c-.4.2-.5.8-.3 1.2zm1 1.6c.1.2.3.3.6.4l.5-.4-.8-1.3c-.5.3-.6.8-.3 1.3zm-1.9-3.1c.3.4.8.6 1.2.3l-.9-1.5c-.4.2-.6.8-.3 1.2zm-1-1.6c.3.4.8.6 1.2.3l-.9-1.5c-.4.3-.5.8-.3 1.2zm-.9-1.5c.3.4.8.6 1.2.3l-.9-1.5c-.4.2-.6.8-.3 1.2z" fill="#ed457d"/><g fill="#fff8b3"><path d="M265.5 94.2c.2-.1 4.4 7.3 4.1 7.5-2.1 1.6-6.8 4.5-7.6 5.1l-5.1-8.4 8.6-4.2z"/><path d="M264.8 103.3c-.6.2-2.9-5.2-3.7-6 1.2-.8 2.7-2.8 4.4-3.8 1.2-.7 2.6-.3 3.5.6 3.4 3.6 12.6 12.8 9.9 15.2-2.2 1.9-8.2-3.3-14.1-6z"/></g><path d="M262.6 95.3c0 .1.1.3.3.4 1.2.6 2.8 1.8 4.1 2.8l1.2 1.1c-1 1.3-1.8 3.3-1.8 4.7 0 .3.3.5.6.5s.5-.3.5-.6c0-1.1.6-2.8 1.4-3.8 2.1 2.5 3.4 4.5 2.4 6.7 3.9 1.9 6.6 4.8 8.7 3.3 2.5-1.8-12.1-18.6-12.1-18.6-1.6 1-4 2.6-5.3 3.5z" fill="#f93d77"/><path d="M266.9 92.4l1-.6s13.4 14.1 12.7 18c0 .1-.4.5-.5.6-2-5.2-10-14.4-13.2-18z" fill="#b52652"/><path d="M263.2 106l-5-8.3-.4.2 5.1 8.3.3-.2zm-41.9 19.1c0 .3.1.6.1.8h1.1c0-.5-.4-.9-.9-.9-.1 0-.2.1-.3.1zm6.7.6l1.8-.1c0-.5-.4-.9-.9-.9-.5.1-.9.5-.9 1zm1.8-.1l1.5-.1v-.6c-.2-.2-.4-.3-.6-.2-.5 0-.9.4-.9.9zm-3.6.1l1.8-.1c0-.5-.4-.9-.9-.9-.5.1-.9.5-.9 1zm-1.8.1l1.8-.1c0-.5-.4-.9-.9-.9-.6.1-.9.5-.9 1zm-1.8.1l1.8-.1c0-.5-.4-.9-.9-.9-.6 0-.9.5-.9 1z" fill="#ed457d"/><g fill="#fff8b3"><path d="M222.7 135.3c0 .3 8.5-.3 8.5-.7.2-2.7.1-8.1.1-9.1l-9.8.3 1.2 9.5z"/><path d="M223.8 129.8c.1-.6 6 .4 7.1.2 0 1.4.9 3.8.8 5.7 0 1.4-1.2 2.4-2.4 2.6-4.8.9-17.6 3.5-18.2 0-.5-2.9 7.1-5.1 12.7-8.5z"/></g><path d="M231.6 132.3c-.1-.1-.3-.1-.5.1-1.2.7-3.1 1.4-4.6 1.9-.5.2-1 .3-1.6.4-.5-1.5-1.8-3.3-3-4.1-.3-.2-.6-.1-.7.2s-.1.6.2.8c.9.6 2 2 2.5 3.2-3.2.4-5.7.4-6.9-1.7-3.7 2.2-7.6 2.9-7.5 5.4.1 3.1 22.2.2 22.2.2 0-1.9 0-4.7-.1-6.4z" fill="#f93d77"/><path d="M231.7 137.5v1.2s-19.1 3.5-22.1.7c-.1-.1-.2-.6-.2-.7 5.5 1.1 17.5-.5 22.3-1.2z" fill="#b52652"/><path d="M231.3 127l-9.7.3-.1-.4 9.7-.3.1.4z" fill="#ed457d"/><path d="M208.3 37.1c.7 3.5 3.1 5.4 4.9 4.9s2.2-3.5 1.9-6.8c-.3-3.4-2.1-5.7-3.9-5.1-2.5.7-3.5 3.8-2.9 7z" fill="#f7a981"/><path d="M210.1 20.5c-1.8 15.5 7.3 23.5 21.7 24.8s27.3-3.7 28.7-19.2-10-21.7-23.8-23c-16.2-1.5-25 3.5-26.6 17.4z" fill="#ad5c49"/><path d="M211.4 41.2c2.4 8.1 7.6 12.5 15.3 12.8 14.3.7 23.6-7.3 28-23.8 4.7-17.6-7.6-19.5-20.2-20.7-8.5-.8-15.5-1.3-19.5 4-2.5 3.3-4.8 23.7-3.6 27.7z" fill="#fbc1a0"/><path d="M222.4 29.9c1.1 2.4.6 4.8-.7 5.6-1.9 1.2-6.2 1.1-7.5-1.1s-.1-5.7 2.6-6.9c2.3-1.1 4.5.1 5.6 2.4z" fill="#f9fdff"/><path d="M214.6 28.3c2.3-3.2 6.8-1.5 7.8 1.7-1.1-2.4-3.5-3.4-5.6-2.4-1.3.6-2.4 1.9-2.8 3.4-.3 1.2-.3 2.6.3 3.5-.7-.6-1.4-3.8.3-6.2z" fill="#843923"/><path d="M221.5 31.3c.4 1.6-.5 3.3-1.9 3.8s-2.9-.5-3.3-2.1.5-3.3 1.9-3.8a2.62 2.62 0 0 1 3.3 2.1z" fill="#461d14"/><path d="M221.4 31c.1.4-.1.9-.5 1s-.8-.1-.9-.6c-.1-.4.1-.9.5-1 .3-.1.8.2.9.6z" fill="#fefffe"/><path d="M233.1 31.2c-1.8 2.1-1.9 4.6-.6 5.6 1.9 1.6 6.6 2.6 8.6.7 1.9-1.8 1.5-5.5-1.2-7.3-2.3-1.7-5.1-1.1-6.8 1z" fill="#f9fdff"/><path d="M242.1 31.5c-1.8-3.7-7.2-3.1-9.1-.3 1.8-2.1 4.7-2.4 6.8-.9 1.3.9 2.2 2.4 2.3 4 .1 1.2-.3 2.6-1.2 3.3 1-.4 2.5-3.4 1.2-6.1z" fill="#843923"/><path d="M240.1 33.4c.4 1.6-.5 3.3-2.1 3.7s-3.3-.5-3.7-2.1.5-3.3 2.1-3.7c1.6-.5 3.2.4 3.7 2.1z" fill="#461d14"/><path d="M239.9 33.1c.1.5-.1.9-.6 1s-.9-.1-1-.6.1-.9.6-1c.4-.1.8.1 1 .6z" fill="#fefffe"/><path d="M215.3 22.3c.2 0 .4 0 .6-.1 1.4-1 3.9-.9 5.7.1.4.2.9.1 1.2-.3.2-.4.1-.9-.3-1.2-2.4-1.3-5.5-1.3-7.5 0-.4.3-.5.8-.2 1.2 0 .1.2.3.5.3zm27.7 3.6c.3 0 .5 0 .7-.2.4-.3.4-.9.1-1.3-1.7-1.9-5-2.9-7.9-2.2-.5.1-.8.6-.7 1.1s.6.8 1.1.7c2.2-.5 4.8.2 6.1 1.6.2.2.4.3.6.3z" fill="#5d1f12"/><path d="M224.2 37.1c.1 0 .2-.1.2-.2.2-.7.9-1.1 1.6-1 .8.1 1.3.7 1.3 1.4 0 .1.1.2.2.2s.2-.1.2-.2c0-.9-.7-1.7-1.7-1.8s-1.8.4-2.1 1.3l.3.3h0z" fill="#c4735b"/><path d="M247.4 31c-.6 6.4 3.1 11.4 6.3 11.7.4-3.8 3.2-19.4 3.9-27.1-1.1-.2-5.4-.7-12.1-1.8 7.6 3.5 2.6 9.9 1.9 17.2z" fill="#ad5c49"/><path d="M233.8 42.4c-.1-1.7-3.2-1.7-7.2-2.2-.2 0-1-.1-1.2-.1-4-.4-6.3-1.1-6.7.5-.7 3 2.3 7.1 6.3 7.6h.1c4.4.6 8.9-2.5 8.7-5.8z" fill="#701608"/><path d="M229.6 47.6c-1-1.1-2.4-1.9-4-2.1s-3.1.2-4.3 1c.7.6 1.5 1 2.3 1.3.5.2 1 .3 1.5.3h.1c1.1.1 2.2 0 3.2-.2h.1c.3 0 .7-.1 1.1-.3z" fill="#dd6b5b"/><path d="M231.5 40.9h0c0-.1-4.4-.7-6-.8l-4.8-.5v.1c.1 1.2 2.4 2.4 5.2 2.8 2.7.2 5.1-.5 5.6-1.6z" fill="#fff"/><path d="M244.1 42.1c-.1 1-1.5 1.7-3.2 1.6s-3-1-3-2c.1-1 1.5-1.7 3.2-1.6s3 1 3 2zm-26.5-3c-.1.9-1.3 1.4-2.6 1.2s-2.3-1.1-2.1-2c.1-.9 1.3-1.4 2.6-1.2s2.2 1.1 2.1 2z" fill="#ff8a8a"/><path d="M250.9 20.6l5.8.2c.2-2 .1-3.8-.4-5C249.5 8.1 228 3.2 217 7.4c-6.5 2.5-8.4 8.8-8.5 12.4 2.5-1.1 9.1-1.2 14.6-.9 1-1.1 2.1-5.4 2.1-5.4s.2 4.1-.6 5.6c2.5.3 9.2.9 12.2 1.4 1-1.2 2-4.6 2-4.6s.2 3.2-.4 4.7c.7.2 2.6.3 3.4.4 3.4-1.3 3.8-5.8 6.3-5.4 2.1.4 2.8 2.6 2.8 5z" fill="#ad5c49"/><path d="M255.6 19.6c-1.4-8-8.7-14.5-19.7-16.3-8.6-1.4-16.4-.5-21.7 5.8 6.3-4.5 12.9-4.3 20.6-2.9 6.6 1.1 16.9 5.8 20.8 13.4z" fill="#f49000"/><path d="M253.9 14.9c-1.4 4.8 7.1 11.9 15.2 6.1-5.5-8.3-10.1-8.1-15.2-6.1z" fill="#ffa10b"/><path d="M254.2 15.1c.3-1.1 4.6-.3 6.7 2.6-3.6 2.1-7.7.7-6.7-2.6z" opacity=".28" fill="#6c0b2a"/><path d="M254.7 13.9c-6.1 1.8-12.6-6.8-1.6-13.9 2.3 8 4.3 10.5 1.6 13.9z" fill="#ffa10b"/><path d="M253.5 13.3c1-1.5-1.9-3.6-2.2-6.5-1.2 1.5-1.3 7.3 2.2 6.5z" opacity=".28" fill="#6c0b2a"/><path d="M251.5 15.6c.6 1 2.1 1.3 3.2.7s1.5-2 .8-3c-.6-1-2.1-1.3-3.2-.7-1 .6-1.4 2-.8 3z" fill="#ffa10b"/><path d="M256.3 42.9c-2.1 3.8-6.7 5.1-9.4 4.1-2.1-.8-1.6-4.5-.3-7.9 1.4-3.6 3.9-5.4 6.8-4.9 4 .8 4.8 5.3 2.9 8.7z" fill="#ffc19f"/><path d="M252.7 41.9c-.6 1.8-3.1 2.9-4.6 2-.5-.3 1.9-6 2.8-5.9 1.8.3 2.4 2.1 1.8 3.9z" fill="#e0956c"/><path d="M275.5 50.6c.2.4.8.5 1.8.7.9.2 2.2.5 2.6 1 .5.5-.1 1-1.1 1.1-1.7.2-5.6.5-7.5.5-3.3.2-6.4-2.2-6.6-5.3v-9.3c0-.7 1.4-.1 1.8.8.8 1.9.5 2.6.9 3.5.5.9 1.3.7 2.1.1 3.1-4 4.4-6.6 5.9-6.3 1.2.4-.5 3.5-2.7 6.8 3.5-2.5 6.5-4.2 7-3.2.6 1.2-2.4 3.4-4.9 5.7 3.3-.1 6.6-1.2 6.7.5.2 1.2-6.6 2.3-6 3.4z" fill="#ffc19f"/><path d="M224.8 68.2c.2-1.8 1.5-2.7 3.1-2.6 1.2.1 2.1 1.2 2.5 2.3.6-1.1 1.6-2.1 2.8-2 1.6.1 2.8 1.2 2.8 3-.1 2.7-6.1 6.5-6.1 6.5s-5.4-4.2-5.1-7.2z" opacity=".39" fill="#fff"/><path d="M184.1 24.2c.1.3.4.4.7.3l3.5-1.5c.3-.1.4-.4.3-.7s-.4-.4-.7-.3l-3.5 1.5c-.3.1-.4.4-.3.7zm20.7-13.6c.2.2.2.5 0 .8l-3.4 3.5c-.2.2-.5.2-.7 0s-.2-.5 0-.8l3.4-3.5c.2-.2.5-.2.7 0zm-9.5-4.1c.3 0 .5.2.6.5l.2 4.8a.5.5 0 1 1-1 0l-.2-4.8c-.2-.2.1-.4.4-.5zm4.6 2.2c.3.1.4.4.3.7l-1.4 3.5c-.1.3-.4.4-.7.3s-.4-.4-.3-.7l1.4-3.5c.1-.3.4-.4.7-.3zm-18.1 10.7c0 .3.2.6.5.6l4.8.3c.3 0 .5-.2.6-.5 0-.3-.2-.6-.5-.6l-4.8-.3c-.3 0-.6.2-.6.5zm4.4-9.4c-.3.2-.3.5-.1.8l3.1 3.8c.2.2.5.3.7.1s.3-.5.1-.7l-3.1-3.8c-.1-.4-.5-.4-.7-.2zm-2 4.7c-.1.3 0 .6.2.7l3.4 1.7c.3.1.6 0 .7-.3s0-.6-.2-.7l-3.4-1.7c-.3-.1-.6 0-.7.3zm6.5-6.3c.3-.1.6 0 .7.3l1.4 3.5c.1.3 0 .6-.3.7s-.6 0-.7-.3l-1.4-3.5c-.1-.2 0-.5.3-.7zm15.6 7.3c.1.3-.1.6-.3.7l-3.6 1.3c-.3.1-.6 0-.7-.3s.1-.6.3-.7l3.6-1.3c.3-.1.6 0 .7.3zm1.5 4.8c0 .3-.3.5-.6.5l-4.8-.3c-.3 0-.5-.3-.5-.6s.3-.5.5-.5l4.8.3a.65.65 0 0 1 .6.6zm-21.6 8.2c.2.2.5.2.8 0l3.4-3.5c.2-.2.2-.5 0-.7a.61.61 0 0 0-.8 0l-3.4 3.5c-.2.2-.2.5 0 .7zm12.4-1.7l-1.7.7c.1.2.5.3 1 .1.4-.2.8-.6.7-.8zm.5-1.5l-3.6 1.4c-.1.1-.2.2-.1.4l.1.2c.1.1.2.2.3.2l3.6-1.4c.1-.1.2-.2.2-.4l-.1-.2c-.1-.1-.2-.2-.4-.2zm-.4-1.1l-3.6 1.4c-.1.1-.2.2-.1.4l.1.2c.1.1.2.2.3.2l3.6-1.4c.1-.1.2-.2.2-.4l-.1-.2c-.1-.1-.2-.2-.4-.2zm1-7c-1-2.7-4-4-6.7-3s-4 4-3 6.7c.7 1.7 2.2 2.9 3.9 3.2l.5 1.3 5-1.9-.5-1.3c1.1-1.3 1.4-3.2.8-5z" fill="#ffc408"/><path d="M196.5 19.8c-.2-.1-.5-.2-.7-.1-.2 0-.5.2-.6.4 0 0 0 .1-.1.1-.2-.2-.5-.3-.8-.3-.6 0-1.1.5-1.1 1a1.11 1.11 0 0 0 1.1 1.1c.2 0 .3 0 .4-.1.1 0 .2-.1.3-.2l.1-.1 1.3 3.3.4-.1-1.2-3.3c.2.1.5.1.7 0a.78.78 0 0 0 .4-.4c.1-.2.2-.5.1-.7.1-.3 0-.5-.3-.6zm-1.6 1.6c-.1.1-.3.2-.5.2a.68.68 0 0 1-.7-.7c0-.3.2-.5.4-.6.1 0 .2-.1.3-.1a.68.68 0 0 1 .7.7c0 .2-.1.3-.2.5zm1.6-.5c-.2.3-.5.3-.8.2-.1-.1-.2-.2-.2-.4 0-.1 0-.3.1-.4s.2-.2.3-.2h.1c.1 0 .3 0 .4.1s.2.2.2.4c0 0 0 .2-.1.3z" fill="#fff"/></svg>