<?xml version="1.0" encoding="UTF-8" standalone="no"?>
<!DOCTYPE svg PUBLIC "-//W3C//DTD SVG 1.1//EN" "http://www.w3.org/Graphics/SVG/1.1/DTD/svg11.dtd">
<svg xmlns="http://www.w3.org/2000/svg" xmlns:xlink="http://www.w3.org/1999/xlink" version="1.1" width="44pt" height="46pt" viewBox="0 0 44 46">
<g enable-background="new">
<g id="Layer-1" data-name="Layer 1">
<clipPath id="cp0">
<path transform="matrix(1,0,0,-1,0,46)" d="M 0 46 L 44 46 L 44 0 L 0 0 Z "/>
</clipPath>
<g clip-path="url(#cp0)">
<path transform="matrix(1,0,0,-1,21.9916,13.799999)" d="M 0 0 C -2.406 0 -4.713 -.969 -6.414 -2.695 C -8.115 -4.42 -9.07 -6.76 -9.07 -9.2 C -9.07 -11.64 -8.115 -13.98 -6.414 -15.705 C -4.713 -17.431 -2.406 -18.4 0 -18.4 C 2.406 -18.4 4.713 -17.431 6.414 -15.705 C 8.114 -13.98 9.07 -11.64 9.07 -9.2 C 9.07 -6.76 8.114 -4.42 6.414 -2.695 C 4.713 -.969 2.406 0 0 0 M 4.136 -32.2 L -4.118 -32.2 C -4.635 -32.2 -5.137 -32.021 -5.54 -31.692 C -5.943 -31.363 -6.223 -30.905 -6.333 -30.392 L -7.256 -26.059 C -8.487 -25.512 -9.655 -24.828 -10.737 -24.019 L -14.902 -25.364 C -15.395 -25.524 -15.927 -25.507 -16.41 -25.318 C -16.892 -25.128 -17.297 -24.777 -17.555 -24.322 L -21.691 -17.075 C -21.947 -16.62 -22.043 -16.09 -21.964 -15.573 C -21.884 -15.055 -21.634 -14.58 -21.253 -14.225 L -18.022 -11.235 C -18.169 -9.881 -18.169 -8.514 -18.022 -7.16 L -21.253 -4.177 C -21.634 -3.822 -21.885 -3.347 -21.964 -2.828 C -22.044 -2.31 -21.948 -1.78 -21.691 -1.325 L -17.564 5.927 C -17.306 6.382 -16.901 6.733 -16.419 6.923 C -15.936 7.112 -15.404 7.128 -14.911 6.969 L -10.746 5.624 C -10.193 6.038 -9.617 6.424 -9.023 6.773 C -8.449 7.1 -7.859 7.397 -7.256 7.661 L -6.331 11.99 C -6.221 12.502 -5.941 12.961 -5.539 13.29 C -5.136 13.62 -4.635 13.799 -4.118 13.8 L 4.136 13.8 C 4.653 13.799 5.154 13.62 5.557 13.29 C 5.959 12.961 6.239 12.502 6.349 11.99 L 7.283 7.659 C 8.513 7.109 9.68 6.425 10.764 5.619 L 14.932 6.964 C 15.424 7.123 15.956 7.107 16.438 6.917 C 16.92 6.728 17.324 6.377 17.582 5.923 L 21.709 -1.329 C 22.235 -2.266 22.054 -3.45 21.272 -4.179 L 18.04 -7.169 C 18.187 -8.523 18.187 -9.89 18.04 -11.245 L 21.272 -14.235 C 22.054 -14.966 22.235 -16.148 21.709 -17.084 L 17.582 -24.336 C 17.324 -24.791 16.92 -25.142 16.437 -25.332 C 15.954 -25.521 15.422 -25.538 14.929 -25.378 L 10.764 -24.033 C 9.683 -24.841 8.516 -25.524 7.286 -26.07 L 6.349 -30.392 C 6.238 -30.904 5.959 -31.363 5.556 -31.691 C 5.154 -32.02 4.653 -32.2 4.136 -32.2 " fill="#ff4387"/>
</g>
</g>
</g>
</svg>
