<svg width="44" height="46" viewBox="0 0 44 46" fill="none" xmlns="http://www.w3.org/2000/svg">
<path d="M26.1276 46H17.8738C17.3567 46.0001 16.855 45.8209 16.4521 45.4921C16.0491 45.1632 15.7691 44.7046 15.6584 44.1922L14.7355 39.859C13.5044 39.3118 12.337 38.6276 11.2549 37.8189L7.08946 39.1644C6.59642 39.3239 6.06443 39.3075 5.58183 39.118C5.09923 38.9284 4.69507 38.5772 4.43646 38.1225L0.300495 30.8752C0.044594 30.4201 -0.0514647 29.8904 0.0280344 29.3727C0.107533 28.8551 0.357883 28.3801 0.738127 28.0255L3.96935 25.0355C3.8224 23.6811 3.8224 22.3143 3.96935 20.9599L0.738127 17.9768C0.357345 17.6221 0.106654 17.1467 0.0271423 16.6285C-0.0523697 16.1103 0.0440135 15.5801 0.300495 15.1248L4.42739 7.8729C4.686 7.41823 5.09016 7.06696 5.57276 6.87743C6.05536 6.6879 6.58735 6.67152 7.08039 6.831L11.2458 8.1765C11.7991 7.7625 12.3751 7.3761 12.9691 7.0265C13.5428 6.6999 14.1324 6.4032 14.7355 6.1387L15.6607 1.8101C15.7708 1.29765 16.0503 0.838782 16.4529 0.509562C16.8554 0.180343 17.3567 0.000551922 17.8738 0H26.1276C26.6447 0.000551922 27.146 0.180343 27.5485 0.509562C27.9511 0.838782 28.2306 1.29765 28.3407 1.8101L29.2749 6.141C30.5045 6.69132 31.6715 7.37535 32.7556 8.1811L36.9233 6.8356C37.416 6.67671 37.9475 6.69339 38.4296 6.88289C38.9117 7.07239 39.3155 7.42332 39.574 7.8775L43.7009 15.1294C44.227 16.0655 44.0456 17.25 43.2633 17.9791L40.032 20.9691C40.179 22.3235 40.179 23.6903 40.032 25.0447L43.2633 28.0347C44.0456 28.7661 44.227 29.9483 43.7009 30.8844L39.574 38.1363C39.3154 38.591 38.9112 38.9422 38.4286 39.1318C37.946 39.3213 37.414 39.3377 36.921 39.1782L32.7556 37.8327C31.6743 38.6408 30.5076 39.3243 29.2772 39.8705L28.3407 44.1922C28.2301 44.7042 27.9504 45.1626 27.5479 45.4913C27.1455 45.8201 26.6444 45.9996 26.1276 46ZM21.9916 13.8C19.5861 13.8 17.2791 14.7693 15.5781 16.4946C13.8771 18.2199 12.9215 20.56 12.9215 23C12.9215 25.44 13.8771 27.78 15.5781 29.5054C17.2791 31.2307 19.5861 32.2 21.9916 32.2C24.3972 32.2 26.7042 31.2307 28.4052 29.5054C30.1061 27.78 31.0617 25.44 31.0617 23C31.0617 20.56 30.1061 18.2199 28.4052 16.4946C26.7042 14.7693 24.3972 13.8 21.9916 13.8Z" fill="#FF4387"/>
</svg>
