<svg width="35" height="36" viewBox="0 0 35 36" fill="none" xmlns="http://www.w3.org/2000/svg">
<path d="M28.2258 22.5C31.9742 22.5 35 25.515 35 29.25C35 32.985 31.9742 36 28.2258 36C24.4774 36 21.4516 32.985 21.4516 29.25C21.4516 28.71 21.5194 28.215 21.6548 27.6975L11.7645 22.5225C10.5226 23.895 8.76129 24.75 6.77419 24.75C3.02581 24.75 0 21.735 0 18C0 14.265 3.02581 11.25 6.77419 11.25C8.76129 11.25 10.5226 12.1275 11.7645 13.4775L21.6548 8.3025C21.5194 7.785 21.4516 7.29 21.4516 6.75C21.4516 3.015 24.4774 0 28.2258 0C31.9742 0 35 3.015 35 6.75C35 10.485 31.9742 13.5 28.2258 13.5C26.2387 13.5 24.4774 12.6225 23.2355 11.2725L13.3452 16.4475C13.6187 17.4646 13.6187 18.5354 13.3452 19.5525L23.2355 24.7275C24.4774 23.355 26.2387 22.5 28.2258 22.5Z" fill="#245080"/>
</svg>
