<svg width="34" height="31" viewBox="0 0 34 31" fill="none" xmlns="http://www.w3.org/2000/svg">
<path d="M20.9288 1.19248C20.9288 0.98154 20.8743 0.774361 20.7708 0.592091C20.6672 0.409822 20.5183 0.258987 20.3394 0.154983C20.1604 0.0509793 19.9577 -0.00247087 19.752 8.77265e-05C19.5463 0.00264632 19.3449 0.0611221 19.1685 0.169547L7.81807 7.14888H3.48813C1.56036 7.14888 0 8.74647 0 10.7256V20.2682C0 22.2449 1.55803 23.8449 3.48813 23.8449H7.81807L19.1661 30.829C19.3426 30.9381 19.5443 30.997 19.7503 30.9999C19.9564 31.0028 20.1594 30.9494 20.3388 30.8453C20.5181 30.7413 20.6673 30.5902 20.7709 30.4076C20.8746 30.225 20.9291 30.0174 20.9288 29.8061V1.19248ZM30.7119 15.4897L34 18.859L32.3559 20.5448L29.0678 17.1756L25.7796 20.5448L24.1356 18.859L27.4237 15.4897L24.1356 12.1205L25.7796 10.4347L29.0678 13.8039L32.3582 10.4347L34 12.1205L30.7119 15.4897Z" fill="#F93D77"/>
</svg>
