<svg width="35" height="31" viewBox="0 0 35 31" fill="none" xmlns="http://www.w3.org/2000/svg">
<path d="M20.4073 0.155448C20.5871 0.259275 20.7367 0.410006 20.8408 0.592245C20.9449 0.774484 20.9999 0.981701 21 1.19273V29.8075C21 30.0184 20.9453 30.2256 20.8414 30.4079C20.7375 30.5902 20.5881 30.741 20.4085 30.845C20.229 30.949 20.0256 31.0025 19.8192 30.9999C19.6128 30.9974 19.4107 30.9389 19.2337 30.8304L7.84467 23.8461H3.5C2.57174 23.8461 1.6815 23.4692 1.02513 22.7984C0.368749 22.1276 0 21.2179 0 20.2692L0 10.7238C0.000618569 9.7756 0.369641 8.86643 1.02595 8.19616C1.68226 7.52588 2.57215 7.14937 3.5 7.14937H7.84467L19.2313 0.169755C19.4086 0.0611512 19.6108 0.00259832 19.8174 8.45e-05C20.0241 -0.00242932 20.2276 0.0511863 20.4073 0.155448ZM32.326 7.49751L31.5 6.65576L29.8503 8.34165L30.6693 9.18101L30.6763 9.18578L30.723 9.23824C31.0741 9.67704 31.3762 10.1545 31.6237 10.6618C32.137 11.7086 32.6667 13.3135 32.6667 15.4906C32.6667 17.6677 32.1347 19.2725 31.6237 20.3193C31.4269 20.7259 31.195 21.1138 30.9307 21.4782C30.8496 21.5877 30.764 21.6935 30.674 21.7953L30.6693 21.8025L29.8503 22.6371L31.5 24.3254L32.326 23.4836L31.5 22.6395L32.326 23.4836L32.3283 23.4788L32.333 23.4741L32.3447 23.4622L32.3773 23.4288L32.4777 23.3143C32.5593 23.2189 32.669 23.083 32.7973 22.9089C33.054 22.5608 33.383 22.0505 33.7097 21.3852C34.363 20.0498 35 18.0802 35 15.4906C35 12.9009 34.3653 10.9337 33.7097 9.59593C33.4514 9.06129 33.1469 8.55134 32.7997 8.07219C32.6672 7.89278 32.5263 7.72009 32.3773 7.55474L32.3447 7.51897L32.333 7.50705L32.3283 7.50228C32.3283 7.4999 32.3237 7.49751 31.5 8.34165L32.326 7.49751Z" fill="#70AD47"/>
</svg>
