<svg width="124" height="70" viewBox="0 0 124 70" fill="none" xmlns="http://www.w3.org/2000/svg">
<rect width="21" height="52" transform="matrix(-1 0 0 1 94 18)" fill="#70AD47"/>
<rect width="21" height="20" transform="matrix(-1 0 0 1 32 50)" fill="#C4C4C4"/>
<rect width="20" height="42" transform="matrix(-1 0 0 1 63 28)" fill="#FFC000"/>
<rect width="20" height="64" transform="matrix(-1 0 0 1 124 6)" fill="#245080"/>
<path d="M37.1977 37.4292C34.9424 39.6429 32.1323 41.2082 29.0629 41.9605C25.9935 42.7128 22.7781 42.6242 19.7547 41.7042C16.7313 40.7842 14.0116 39.0667 11.8815 36.7322C9.75138 34.3977 8.28951 31.5325 7.64956 28.4377C7.0096 25.3429 7.2152 22.1329 8.24474 19.145C9.27428 16.1572 11.0897 13.5019 13.5003 11.4582C15.9108 9.41455 18.8274 8.05803 21.9434 7.53125C25.0595 7.00446 28.2599 7.32687 31.2083 8.46458L24.8756 24.8756L37.1977 37.4292Z" fill="#E86989"/>
</svg>
