<?xml version="1.0" encoding="UTF-8" standalone="no"?>
<!DOCTYPE svg PUBLIC "-//W3C//DTD SVG 1.1//EN" "http://www.w3.org/Graphics/SVG/1.1/DTD/svg11.dtd">
<svg xmlns="http://www.w3.org/2000/svg" xmlns:xlink="http://www.w3.org/1999/xlink" version="1.1" width="124pt" height="70pt" viewBox="0 0 124 70">
<g enable-background="new">
<g id="Layer-1" data-name="Layer 1">
<path transform="matrix(1,0,0,-1,0,70)" d="M 73 0 L 94 0 L 94 52 L 73 52 Z " fill="#70ad47"/>
<path transform="matrix(1,0,0,-1,0,70)" d="M 11 0 L 32.001 0 L 32.001 20 L 11 20 Z " fill="#c4c4c4"/>
<path transform="matrix(1,0,0,-1,0,70)" d="M 43 0 L 63 0 L 63 42 L 43 42 Z " fill="#ffc000"/>
<path transform="matrix(1,0,0,-1,0,70)" d="M 104 0 L 124 0 L 124 64 L 104 64 Z " fill="#245080"/>
<clipPath id="cp0">
<path transform="matrix(1,0,0,-1,0,70)" d="M 0 70 L 124 70 L 124 0 L 0 0 Z "/>
</clipPath>
<g clip-path="url(#cp0)">
<path transform="matrix(1,0,0,-1,37.1977,37.4292)" d="M 0 0 C -2.255 -2.214 -5.065 -3.779 -8.135 -4.531 C -11.204 -5.284 -14.42 -5.195 -17.443 -4.275 C -20.466 -3.355 -23.186 -1.637 -25.316 .697 C -27.446 3.031 -28.908 5.897 -29.548 8.992 C -30.188 12.086 -29.983 15.296 -28.953 18.284 C -27.923 21.272 -26.108 23.927 -23.697 25.971 C -21.287 28.015 -18.37 29.371 -15.254 29.898 C -12.138 30.425 -8.938 30.102 -5.989 28.965 L -12.322 12.554 Z " fill="#e86989"/>
</g>
</g>
</g>
</svg>
