<?xml version="1.0" encoding="UTF-8" standalone="no"?>
<!DOCTYPE svg PUBLIC "-//W3C//DTD SVG 1.1//EN" "http://www.w3.org/Graphics/SVG/1.1/DTD/svg11.dtd">
<svg xmlns="http://www.w3.org/2000/svg" xmlns:xlink="http://www.w3.org/1999/xlink" version="1.1" width="281.7pt" height="142pt" viewBox="0 0 281.7 142">
<g enable-background="new">
<g>
<g id="Layer-1" data-name="Layer 1">
<clipPath id="cp0">
<path transform="matrix(1,0,0,-1,0,142)" d="M 0 142 L 281.7 142 L 281.7 0 L 0 0 Z "/>
</clipPath>
<g clip-path="url(#cp0)">
<path transform="matrix(1,0,0,-1,10,0)" d="M 0 0 L 194 0 C 199.5 0 204 -4.5 204 -10 L 204 -132 C 204 -137.5 199.5 -142 194 -142 L 0 -142 C -5.5 -142 -10 -137.5 -10 -132 L -10 -10 C -10 -4.5 -5.5 0 0 0 " fill="#bbea9b"/>
<path transform="matrix(1,0,0,-1,10,0)" d="M 0 0 L 6 0 C 11.5 0 16 -4.5 16 -10 L 16 -132 C 16 -137.5 11.5 -142 6 -142 L 0 -142 C -5.5 -142 -10 -137.5 -10 -132 L -10 -10 C -10 -4.5 -5.5 0 0 0 " fill="#70ad47"/>
<path transform="matrix(1,0,0,-1,161.7,139)" d="M 0 0 L 0 -1.5 C 0 -2.3 .7 -3.1 1.6 -3.1 L 118.3 -3.1 C 119.2 -3.1 119.9 -2.4 119.9 -1.5 L 119.9 0 Z " fill="#129e93"/>
<path transform="matrix(1,0,0,-1,280,140.6)" d="M 0 0 L -116.7 0 C -117.9 0 -118.7 1.3 -118.2 2.3 L -110 18.6 C -109.7 19.2 -109.2 19.5 -108.5 19.5 L -8.1 19.5 C -7.5 19.5 -6.9 19.2 -6.6 18.6 L 1.6 2.4 C 2 1.3 1.2 0 0 0 " fill="#1dccc3"/>
<g opacity=".160004">
<clipPath id="cp1">
<path transform="matrix(1,0,0,-1,0,142)" d="M 181.682 4.89496 L 266.195 4.89496 L 266.195 14.2611 L 181.682 14.2611 Z "/>
</clipPath>
<g clip-path="url(#cp1)">
<path transform="matrix(1,0,0,-1,262.9,131.1)" d="M 0 0 C 2.1 -.4 8.4 -6.2 -5.2 -6 C -17.6 -5.8 -63.6 -3.9 -77.3 -2.7 C -79.4 -2.5 -81 .5 -81.2 1.3 C -81.8 3.3 -66.9 3.5 -60 3.3 C -40.4 2.9 -5.9 1 0 0 "/>
</g>
</g>
<path transform="matrix(1,0,0,-1,191.5,66.6)" d="M 0 0 C -5.5 13.6 -4.5 29.3 2.7 50.6 L 2.8 50 C 2.9 50.4 3 50.8 3.1 51.2 L 56.4 49.7 C 56.5 49.3 56.6 48.9 56.6 48.6 L 57.2 49 C 63.9 27.2 64.5 14.1 63.9 6 C 63.7 9.9 63.2 23.6 57.7 43.3 C 62.7 18.4 64.3 4.9 59.3 .7 C 62.5 6 59.8 20.8 59.1 22.7 C 59.1 17.4 59.9 7.2 57 -.5 C 44 -7.6 14 -6.4 6.5 -2.1 C 6.2 -1.5 5.2 13.5 5 15.6 C 4.6 14.9 4.9 -1.4 4.7 -2 C .1 2.3 -4.3 15.4 .2 39.3 C -3.8 22.7 -2.5 10.5 0 0 " fill="#ad5c49"/>
<path transform="matrix(1,0,0,-1,202.9,127.2)" d="M 0 0 L -8.1 -.3 L -9.1 12.7 L .7 12.9 Z " fill="#ffc19f"/>
<path transform="matrix(1,0,0,-1,205.7,99.1)" d="M 0 0 C -.4 -8.4 -.7 -17.5 -.9 -21.6 C -2.6 -21.9 -9.9 -21.9 -12 -21.8 C -12.2 -19.8 -12.7 -13.1 -13.3 -4.3 C -13 -.6 -11.1 1.7 -8.1 2.4 C -5.3 3.1 -1.5 .7 0 0 " fill="#ad2d00"/>
<path transform="matrix(1,0,0,-1,249.6,122.6)" d="M 0 0 C 2.2 -1.6 5.5 -4.7 5.9 -5.1 C 6.1 -5.3 12.2 -1.9 12 -1.6 C 10.3 1 8.3 3.5 6.6 5.4 C 5.7 4.7 .8 .8 0 0 " fill="#ffc19f"/>
<path transform="matrix(1,0,0,-1,260.9,128.1)" d="M 0 0 C -.3 -2 -2.2 -3.5 -4.2 -3.2 C -6.3 -2.9 -7.8 -1.1 -7.5 .9 C -7.2 2.9 -5.3 4.4 -3.3 4.1 C -1.3 3.9 .2 2 0 0 " fill="#ffc19f"/>
<path transform="matrix(1,0,0,-1,254,129.2)" d="M 0 0 C 1.2 -4.8 2.3 -6.5 3.1 -7.3 C 3.8 -8 5.3 -8.1 5.7 -7.2 C 6 -6.6 5.1 -5.7 4.9 -4.9 C 5.2 -5.4 5.9 -6.6 6.6 -7.3 C 7.1 -7.8 8.1 -8.2 8.5 -7.2 C 8.8 -7.8 10.1 -7.5 9.9 -6.4 C 10.1 -6.9 11.3 -7.1 11.5 -6 C 12.4 -6.4 12.8 -5.5 12.6 -4.8 C 12.2 -3.6 8.8 3.5 7.1 6 C 6.2 7.2 -.7 2.5 0 0 " fill="#ffc19f"/>
<path transform="matrix(1,0,0,-1,262.2,136.4)" d="M 0 0 C -.2 .4 -.6 1.3 -.9 2.3 C -.9 2.4 -.9 2.5 -.8 2.5 C -.7 2.5 -.6 2.5 -.6 2.4 C -.4 1.5 .1 .6 .2 .2 C .2 .1 .2 0 .1 0 C .1 -.1 0 -.1 0 0 " fill="#f29d77"/>
<path transform="matrix(1,0,0,-1,263.6,135.7)" d="M 0 0 C -.2 .4 -.3 .6 -.5 1.6 C -.5 1.7 -.5 1.8 -.4 1.8 C -.3 1.8 -.3 1.8 -.2 1.7 C .1 .7 .2 .5 .3 .1 C .3 0 .3 -.1 .2 -.1 C .1 -.1 0 -.1 0 0 " fill="#f29d77"/>
<path transform="matrix(1,0,0,-1,265.2,135.3)" d="M 0 0 C -.2 .4 -.2 .2 -.5 1.2 C -.5 1.3 -.5 1.4 -.4 1.4 C -.3 1.4 -.2 1.4 -.2 1.3 C .1 .3 .1 .5 .2 .1 C .2 0 .2 -.1 .1 -.1 C .1 -.1 0 -.1 0 0 " fill="#f29d77"/>
<path transform="matrix(1,0,0,-1,232.4,85.8)" d="M 0 0 C -1.4 0 -14.1 -.1 -14.7 -.1 C -18.7 -1.9 -34.4 -10.3 -36.9 -11.8 C -35.8 -14.5 -32.6 -19.9 -30.9 -23.2 C -29.7 -22.8 -14.8 -16 -12.7 -15.4 C -10 -14.6 -8 -14.6 -5.4 -17.4 C 1.9 -24.3 14.8 -37.2 18.2 -40.6 C 19.9 -39.3 25 -35.1 26.1 -33.8 C 20.3 -25.4 4.2 -5 0 0 " fill="#ad2d00"/>
<g opacity=".25">
<clipPath id="cp2">
<path transform="matrix(1,0,0,-1,0,142)" d="M 205 44.7584 L 240.8 44.7584 L 240.8 56.2 L 205 56.2 Z "/>
</clipPath>
<g clip-path="url(#cp2)">
<path transform="matrix(1,0,0,-1,240.8,96.2)" d="M 0 0 C -3.5 4.4 -6.5 8.1 -8.1 10.1 C -9 10.2 -22.7 10.4 -23.1 10.4 C -25.2 9.4 -30.7 6.6 -35.8 3.9 C -27.4 -.7 -13.5 -2.3 0 0 "/>
</g>
</g>
<path transform="matrix(1,0,0,-1,205,92.2)" d="M 0 0 C 2.9 -.3 6.1 -1.7 11.7 -3.3 C 18.1 -5.1 26.9 -4.6 34.8 -1.8 C 34.8 -1.8 32 27.3 30.5 34.2 C 22.8 36.3 9.5 35.4 2.5 34.2 C 1.6 26.3 1.7 16.9 .5 5.7 C .4 4.8 1.7 4.1 .6 3.4 C -.4 2.8 -.2 2.1 .3 1.7 C 1.3 1 -.2 .9 0 0 " fill="#ff4a69"/>
<path transform="matrix(1,0,0,-1,229.8,58.300004)" d="M 0 0 C 0 .5 -.1 .9 -.2 1.3 C -4.9 1.6 -11.9 1.7 -17 1.2 C -17 1 -17.1 .8 -17.1 .6 C -17.2 -2.9 -13.5 -5.9 -8.8 -6.1 C -4.1 -6.1 -.2 -3.5 0 0 " fill="#ffc19f"/>
<path transform="matrix(1,0,0,-1,227.2,48.6)" d="M 0 0 L 0 -9.9 C 0 -12 -2.8 -13.7 -6.2 -13.7 C -9.6 -13.7 -12.3 -11.9 -12.2 -9.8 L -12.2 0 Z " fill="#ffc19f"/>
<g opacity=".190002">
<clipPath id="cp3">
<path transform="matrix(1,0,0,-1,0,142)" d="M 215 82.1 L 232.4 82.1 L 232.4 90.5598 L 215 90.5598 Z "/>
</clipPath>
<g clip-path="url(#cp3)">
<path transform="matrix(1,0,0,-1,232.4,57)" d="M 0 0 C -.9 0 -1.7 -.1 -2.3 -.1 C -3.2 0 -4.2 .1 -5.2 .1 L -5.2 5.5 C -9.2 5.6 -13.7 5.6 -17.4 5.3 L -17.4 .7 C -15.8 -1.4 -12.9 -2.9 -9.4 -2.9 C -3.8 -2.8 -1.2 -1.5 0 0 " fill="#a32107"/>
</g>
</g>
<path transform="matrix(1,0,0,-1,178.3,61.300004)" d="M 0 0 C -.8 .2 .7 6.6 1.5 6.5 C 13.5 4.8 28.7 3.6 31.8 3.6 L 30.1 -4.9 C 23.2 -3.8 10.5 -2.1 0 0 " fill="#ffc19f"/>
<path transform="matrix(1,0,0,-1,196.2,56.300004)" d="M 0 0 C -.4 -2.8 -1 -9.1 -.9 -12.1 C 5.5 -13 11.3 -13.5 11.7 -13.3 C 16.2 -11.3 16.6 -1.3 16.8 -.8 C 13.3 -.6 6.3 -.6 0 0 " fill="#ff4a69"/>
<path transform="matrix(1,0,0,-1,264.5,61.300004)" d="M 0 0 C .8 .2 -.7 6.6 -1.5 6.5 C -13.5 4.8 -28.7 3.6 -31.8 3.6 L -30.1 -4.9 C -23.2 -3.8 -10.5 -2.1 0 0 " fill="#ffc19f"/>
<path transform="matrix(1,0,0,-1,246.6,56.300004)" d="M 0 0 C .4 -2.8 1 -9.1 .9 -12.1 C -5.5 -13 -11.3 -13.5 -11.7 -13.3 C -16.2 -11.3 -16.6 -1.3 -16.8 -.8 C -13.3 -.6 -6.3 -.6 0 0 " fill="#ff4a69"/>
<path transform="matrix(1,0,0,-1,164.4,58.800004)" d="M 0 0 C 1.9 .1 4.8 .6 10.3 .8 C 10.9 .8 12.1 -1.6 11.4 -1.6 C 7.7 -1.1 .6 -2.6 0 0 " fill="#e0956c"/>
<path transform="matrix(1,0,0,-1,163,56.300004)" d="M 0 0 C 1.9 .1 6.5 1.3 11.6 0 C 12.2 -.2 13.1 -2.6 12.4 -2.5 C 8.7 -2.1 .6 -2.1 0 0 " fill="#e0956c"/>
<path transform="matrix(1,0,0,-1,162.8,52.9)" d="M 0 0 C 1.9 .1 12.5 -.9 17.7 -2.1 C 18.3 -2.3 17.8 -6.8 16.8 -7.3 C 15.5 -9.4 11.5 -8.9 7.2 -11.6 C 6.5 -12.1 6.3 -10.7 6.4 -10.3 C 6.7 -9.3 7.1 -9.2 8.7 -7.1 C 9.6 -5.8 8.6 -4.4 7.7 -3.8 C 3.5 -2.2 .3 -1.8 0 0 " fill="#ffc19f"/>
<path transform="matrix(1,0,0,-1,278.3,58.800004)" d="M 0 0 C -1.9 .1 -4.8 .6 -10.3 .8 C -10.9 .8 -12.1 -1.6 -11.4 -1.6 C -7.7 -1.1 -.6 -2.6 0 0 " fill="#e0956c"/>
<path transform="matrix(1,0,0,-1,279.7,56.300004)" d="M 0 0 C -1.9 .1 -6.5 1.3 -11.6 0 C -12.2 -.2 -13.1 -2.6 -12.4 -2.5 C -8.8 -2.1 -.6 -2.1 0 0 " fill="#e0956c"/>
<path transform="matrix(1,0,0,-1,279.9,52.9)" d="M 0 0 C -1.9 .1 -12.5 -.9 -17.7 -2.1 C -18.3 -2.3 -17.8 -6.8 -16.8 -7.3 C -15.5 -9.4 -11.5 -8.9 -7.2 -11.6 C -6.5 -12.1 -6.3 -10.7 -6.4 -10.3 C -6.7 -9.3 -7.1 -9.2 -8.7 -7.1 C -9.6 -5.8 -8.6 -4.4 -7.7 -3.8 C -3.5 -2.2 -.3 -1.8 0 0 " fill="#ffc19f"/>
<path transform="matrix(1,0,0,-1,195.7,121.6)" d="M 0 0 C .9 -.3 6 -1.2 7.3 -1.4 C 7.3 -4.7 8.2 -5.9 7.9 -7.7 C 7.6 -9.2 6.4 -10.3 5 -10.5 C 3.6 -10.7 1.9 -10.8 -.3 -11 C -4 -11.4 -8.5 -13.2 -11.7 -11.8 C -12.1 -11.6 -13.4 -10.6 -13 -10.1 C -12.6 -9.6 -9.6 -9.4 -9.8 -9 C -9.9 -8.7 -12.7 -9.5 -13.7 -9.2 C -14.2 -9 -14.6 -8 -13.8 -7.8 C -13.8 -7.8 -14.1 -7.3 -14 -7 C -13.8 -6.6 -13 -6.6 -13 -6.4 C -13.1 -5.2 -10.3 -5.1 -7.9 -4.3 C -4.3 -3 -1.8 -1.9 0 0 " fill="#ffc19f"/>
<path transform="matrix(1,0,0,-1,182,129.5)" d="M 0 0 C .4 .1 2.7 .5 3.5 .8 C 3.6 .8 3.6 .9 3.6 1 C 3.6 1.1 3.5 1.1 3.4 1.1 C 2.6 .9 .3 .4 -.1 .3 C -.2 .3 -.2 .2 -.2 .2 C -.2 .1 -.1 0 0 0 " fill="#f29d77"/>
<path transform="matrix(1,0,0,-1,182.9,128)" d="M 0 0 C .4 .1 1.2 .2 2.1 .5 C 2.2 .5 2.2 .6 2.2 .6 C 2.2 .7 2.1 .7 2 .7 C 1.1 .5 .3 .3 0 .2 C -.1 .2 -.1 .1 -.1 .1 C -.2 0 -.1 0 0 0 " fill="#f29d77"/>
<path transform="matrix(1,0,0,-1,191.3,39.800004)" d="M 0 0 C 1.3 -5.4 6.6 -8.9 10.6 -8.5 C 14.6 -8.1 15.5 -3.6 14.9 1.6 C 14.3 6.8 10.6 10.7 6.6 10.2 C 1 9.6 -1.2 5.1 0 0 " fill="#ffc19f"/>
<path transform="matrix(1,0,0,-1,196.3,41.300004)" d="M 0 0 C .3 -2.3 2.1 -4 4.2 -3.7 C 6.2 -3.5 7.7 -1.4 7.4 .9 C 7.1 3.2 5.3 4.9 3.2 4.6 C 1.1 4.4 -.3 2.3 0 0 " fill="#e0956c"/>
<path transform="matrix(1,0,0,-1,250.8,41.5)" d="M 0 0 C -1.6 -5.4 -7 -8.6 -11 -7.9 C -15 -7.2 -15.6 -2.8 -14.7 2.4 C -13.8 7.6 -9.9 11.3 -5.9 10.6 C -.5 9.6 1.5 5 0 0 " fill="#ffc19f"/>
<path transform="matrix(1,0,0,-1,245.7,42.6)" d="M 0 0 C -.4 -2.3 -2.3 -3.8 -4.4 -3.5 C -6.4 -3.2 -7.8 -1.1 -7.4 1.2 C -7 3.5 -5.1 5 -3 4.7 C -1 4.4 .4 2.3 0 0 " fill="#e0956c"/>
<path transform="matrix(1,0,0,-1,249.1,24.099999)" d="M 0 0 C -.5 -17.7 -12.1 -25.4 -28 -25 C -43.9 -24.6 -56.4 -16.3 -55.9 1.4 C -55.4 19.1 -42.6 22.9 -26.7 22.5 C -10.7 22.1 .5 17.7 0 0 " fill="#ad5c49"/>
<path transform="matrix(1,0,0,-1,243.5,16.800004)" d="M 0 0 C 1.3 -3 -.3 -29.2 -3.5 -32.8 C -6.9 -36.6 -20.2 -40 -23 -39.9 C -26 -39.8 -38.8 -36.2 -41.2 -31.8 C -44 -26.7 -44.7 -3.3 -43.7 -.6 C -40.2 8.7 -32 8.8 -21.2 8.5 C -11.1 8.3 -3.4 7.8 0 0 " fill="#ffc19f"/>
<path transform="matrix(1,0,0,-1,221.4,47.800004)" d="M 0 0 L 0 0 C -2.5 -.1 -4.6 .6 -5.8 1.7 C -5.9 1.9 -5.9 2.1 -5.8 2.2 C -5.6 2.3 -5.4 2.3 -5.2 2.2 C -4.3 1.2 -2.3 .7 -.1 .7 L 0 .7 C 2.2 .8 4.1 1.5 5 2.5 C 5.1 2.7 5.4 2.7 5.6 2.5 C 5.8 2.4 5.8 2.1 5.6 2 C 4.5 .9 2.4 .1 0 0 " fill="#934341"/>
<path transform="matrix(1,0,0,-1,203.2,40.6)" d="M 0 0 C -.1 -1 1.3 -2 3.1 -2.1 C 4.9 -2.2 6.4 -1.5 6.5 -.5 C 6.6 .5 5.2 1.5 3.4 1.6 C 1.6 1.8 .1 1 0 0 " fill="#ff9797"/>
<path transform="matrix(1,0,0,-1,233,41.1)" d="M 0 0 C .1 -1 1.6 -1.8 3.4 -1.6 C 5.2 -1.5 6.6 -.5 6.5 .5 C 6.4 1.5 4.9 2.3 3.1 2.1 C 1.4 2 0 1 0 0 " fill="#ff9797"/>
<path transform="matrix(1,0,0,-1,223.2,40.199998)" d="M 0 0 C -.1 0 -.2 .1 -.2 .2 C -.3 1.1 -1 1.6 -1.9 1.6 C -2.8 1.6 -3.5 1 -3.6 .2 C -3.6 .1 -3.7 0 -3.9 0 C -4 0 -4.1 .1 -4.1 .3 C -3.9 1.4 -3 2.1 -1.9 2.1 C -.8 2.1 .1 1.4 .3 .3 C .3 .2 .2 0 0 0 " fill="#c4735b"/>
<path transform="matrix(1,0,0,-1,238,24.099999)" d="M 0 0 C -.2 0 -.3 .1 -.4 .2 C -1.9 1.9 -5.1 2.7 -7.8 2.1 C -8.2 2 -8.6 2.2 -8.6 2.6 C -8.7 3 -8.5 3.3 -8.1 3.4 C -4.9 4.1 -1.2 3.1 .6 1 C .9 .7 .8 .3 .5 0 C .4 .1 .2 0 0 0 " fill="#773220"/>
<path transform="matrix(1,0,0,-1,204.5,24.400002)" d="M 0 0 C -.2 0 -.4 0 -.5 .2 C -.8 .5 -.8 .9 -.5 1.2 C 1.4 3.2 5.1 4.1 8.3 3.2 C 8.7 3.1 8.9 2.7 8.8 2.3 C 8.7 1.9 8.3 1.7 7.9 1.8 C 5.2 2.5 2 1.8 .5 .2 C .4 0 .2 0 0 0 " fill="#773220"/>
<path transform="matrix(1,0,0,-1,250,29.199997)" d="M 0 0 C -3.1 1 -3.5 4.2 -3.9 9.3 C -2.1 9.7 -4.5 22.3 -13.4 26.1 C -25 31.1 -39.5 29.5 -45.6 25.1 C -52.1 20.4 -53.3 14.6 -54.3 7.7 C -55.2 2.1 -52.9 -2 -57 -5.3 C -52.2 -5.4 -49.3 -1.5 -48.5 2.1 C -47.6 6.1 -49.5 9.7 -49 11.2 C -48.7 12.1 -43.5 16.1 -42.2 16.2 C -39.3 16.4 -36.7 8.2 -26.4 8.7 C -30.6 10.9 -33 14 -35.4 18.5 C -34.6 18 -33.8 17.5 -32.9 16.8 C -24.2 9.4 -14.9 7.7 -7.6 8.6 C -7.1 1.1 -10.5 -2.8 -1.2 -5.4 C -2.1 -4.4 -3.4 -1.3 -3.6 1.2 C -2.6 .5 -1.6 -1.5 0 0 " fill="#ad5c49"/>
<path transform="matrix(1,0,0,-1,227,31.400002)" d="M 0 0 C -1.7 -2.5 -1.5 -5.2 0 -6.3 C 2.3 -7.9 7.7 -8.3 9.7 -6.1 C 11.7 -3.9 10.7 .1 7.5 1.8 C 4.7 3.4 1.7 2.4 0 0 " fill="#f9feff"/>
<path transform="matrix(1,0,0,-1,237,30.699997)" d="M 0 0 C -2.5 3.9 -8.4 2.6 -10.1 -.7 C -8.4 1.8 -5.2 2.5 -2.6 1.1 C -1 .2 .1 -1.3 .4 -3 C .6 -4.4 .3 -5.9 -.5 -6.8 C .5 -6.2 1.8 -2.9 0 0 " fill="#7c3929"/>
<path transform="matrix(1,0,0,-1,227.6,33)" d="M 0 0 C -.7 -1.7 .1 -3.7 1.9 -4.4 C 3.6 -5.1 5.6 -4.3 6.3 -2.6 C 7 -.9 6.2 1.1 4.4 1.8 C 2.7 2.5 .7 1.7 0 0 " fill="#63190d"/>
<path transform="matrix(1,0,0,-1,227.9,32.699998)" d="M 0 0 C -.2 -.5 0 -1 .5 -1.2 C 1 -1.4 1.5 -1.2 1.7 -.7 C 1.9 -.2 1.7 .3 1.2 .5 C .8 .7 .2 .5 0 0 " fill="#fefffe"/>
<path transform="matrix(1,0,0,-1,215.1,31.300004)" d="M 0 0 C 1.7 -2.5 1.4 -5.2 -.1 -6.3 C -2.4 -7.8 -7.8 -8.2 -9.8 -5.9 C -11.7 -3.7 -10.7 .3 -7.5 2 C -4.7 3.5 -1.6 2.5 0 0 " fill="#f9feff"/>
<path transform="matrix(1,0,0,-1,205.1,30.400002)" d="M 0 0 C 2.5 3.8 8.5 2.4 10.1 -.9 C 8.4 1.6 5.2 2.4 2.6 1.1 C 1 .3 -.2 -1.2 -.5 -2.9 C -.8 -4.3 -.5 -5.8 .3 -6.7 C -.6 -6.2 -1.9 -2.8 0 0 " fill="#7c3929"/>
<path transform="matrix(1,0,0,-1,208.1,32.800004)" d="M 0 0 C -.7 -1.7 .1 -3.7 1.9 -4.4 C 3.6 -5.1 5.6 -4.3 6.3 -2.6 C 7 -.9 6.2 1.1 4.4 1.8 C 2.7 2.5 .7 1.7 0 0 " fill="#63190d"/>
<path transform="matrix(1,0,0,-1,208.4,32.5)" d="M 0 0 C -.2 -.5 0 -1 .5 -1.2 C 1 -1.4 1.5 -1.2 1.7 -.7 C 1.9 -.2 1.7 .3 1.2 .5 C .7 .7 .2 .4 0 0 " fill="#fefffe"/>
<path transform="matrix(1,0,0,-1,194.8,19.800004)" d="M 0 0 C 4.2 12.2 12.8 18.8 27.3 18.9 C 39.2 19 48.2 12.4 52.8 -.5 C 46.6 9.9 38.2 15 26.1 14.7 C 15.1 14.3 6.3 9.8 0 0 " fill="#ff4a69"/>
<g opacity=".520004">
<clipPath id="cp4">
<path transform="matrix(1,0,0,-1,0,142)" d="M 216.099 59.7 L 228.901 59.7 L 228.901 70.7 L 216.099 70.7 Z "/>
</clipPath>
<g clip-path="url(#cp4)">
<path transform="matrix(1,0,0,-1,228.9,74.5)" d="M 0 0 C -.1 2.1 -1.5 3.2 -3.4 3.2 C -4.7 3.2 -5.9 2 -6.4 .8 C -7 2 -8.1 3.2 -9.4 3.2 C -11.3 3.2 -12.7 2.1 -12.8 0 C -12.9 -3 -6.4 -7.8 -6.4 -7.8 C -6.4 -7.8 .1 -3.5 0 0 " fill="#ffffff"/>
</g>
</g>
</g>
</g>
</g>
</g>
</svg>
