<svg xmlns="http://www.w3.org/2000/svg" viewBox="0 0 281.7 142"><style>.W{fill:#ffc19f}.X{fill:#ff4a69}.Y{fill:#e0956c}.Z{fill:#ad5c49}</style><path d="M10 0h194c5.5 0 10 4.5 10 10v122c0 5.5-4.5 10-10 10H10c-5.5 0-10-4.5-10-10V10C0 4.5 4.5 0 10 0z" fill="#bbea9b"/><path d="M10 0h6c5.5 0 10 4.5 10 10v122c0 5.5-4.5 10-10 10h-6c-5.5 0-10-4.5-10-10V10C0 4.5 4.5 0 10 0z" fill="#70ad47"/><path d="M161.7 139v1.5c0 .8.7 1.6 1.6 1.6H280a1.58 1.58 0 0 0 1.6-1.6V139H161.7z" fill="#129e93"/><path d="M280 140.6H163.3c-1.2 0-2-1.3-1.5-2.3L170 122c.3-.6.8-.9 1.5-.9h100.4c.6 0 1.2.3 1.5.9l8.2 16.2c.4 1.1-.4 2.4-1.6 2.4z" fill="#1dccc3"/><path d="M262.9 131.1c2.1.4 8.4 6.2-5.2 6-12.4-.2-58.4-2.1-72.1-3.3-2.1-.2-3.7-3.2-3.9-4-.6-2 14.3-2.2 21.2-2 19.6.4 54.1 2.3 60 3.3z" opacity=".16"/><path d="M191.5 66.6C186 53 187 37.3 194.2 16l.1.6.3-1.2 53.3 1.5c.1.4.2.8.2 1.1l.6-.4c6.7 21.8 7.3 34.9 6.7 43-.2-3.9-.7-17.6-6.2-37.3 5 24.9 6.6 38.4 1.6 42.6 3.2-5.3.5-20.1-.2-22 0 5.3.8 15.5-2.1 23.2-13 7.1-43 5.9-50.5 1.6-.3-.6-1.3-15.6-1.5-17.7-.4.7-.1 17-.3 17.6-4.6-4.3-9-17.4-4.5-41.3-4 16.6-2.7 28.8-.2 39.3z" class="Z"/><path d="m202.9 127.2-8.1.3-1-13 9.8-.2z" class="W"/><path d="m205.7 99.1-.9 21.6c-1.7.3-9 .3-11.1.2-.2-2-.7-8.7-1.3-17.5.3-3.7 2.2-6 5.2-6.7 2.8-.7 6.6 1.7 8.1 2.4z" fill="#ad2d00"/><g class="W"><path d="M249.6 122.6c2.2 1.6 5.5 4.7 5.9 5.1.2.2 6.3-3.2 6.1-3.5-1.7-2.6-3.7-5.1-5.4-7l-6.6 5.4z"/><path d="M260.9 128.1c-.3 2-2.2 3.5-4.2 3.2-2.1-.3-3.6-2.1-3.3-4.1s2.2-3.5 4.2-3.2c2 .2 3.5 2.1 3.3 4.1z"/><path d="M254 129.2c1.2 4.8 2.3 6.5 3.1 7.3.7.7 2.2.8 2.6-.1.3-.6-.6-1.5-.8-2.3.3.5 1 1.7 1.7 2.4.5.5 1.5.9 1.9-.1.3.6 1.6.3 1.4-.8.2.5 1.4.7 1.6-.4.9.4 1.3-.5 1.1-1.2-.4-1.2-3.8-8.3-5.5-10.8-.9-1.2-7.8 3.5-7.1 6z"/></g><path d="M262.2 136.4c-.2-.4-.6-1.3-.9-2.3 0-.1 0-.2.1-.2s.2 0 .2.1c.2.9.7 1.8.8 2.2 0 .1 0 .2-.1.2 0 .1-.1.1-.1 0zm1.4-.7c-.2-.4-.3-.6-.5-1.6 0-.1 0-.2.1-.2s.1 0 .2.1l.5 1.6c0 .1 0 .2-.1.2s-.2 0-.2-.1zm1.6-.4c-.2-.4-.2-.2-.5-1.2 0-.1 0-.2.1-.2s.2 0 .2.1l.4 1.2c0 .1 0 .2-.1.2 0 0-.1 0-.1-.1z" fill="#f29d77"/><path d="m232.4 85.8-14.7.1c-4 1.8-19.7 10.2-22.2 11.7 1.1 2.7 4.3 8.1 6 11.4 1.2-.4 16.1-7.2 18.2-7.8 2.7-.8 4.7-.8 7.3 2 7.3 6.9 20.2 19.8 23.6 23.2 1.7-1.3 6.8-5.5 7.9-6.8-5.8-8.4-21.9-28.8-26.1-33.8z" fill="#ad2d00"/><path d="m240.8 96.2-8.1-10.1c-.9-.1-14.6-.3-15-.3-2.1 1-7.6 3.8-12.7 6.5 8.4 4.6 22.3 6.2 35.8 3.9z" opacity=".25"/><path d="M205 92.2c2.9.3 6.1 1.7 11.7 3.3 6.4 1.8 15.2 1.3 23.1-1.5 0 0-2.8-29.1-4.3-36-7.7-2.1-21-1.2-28 0-.9 7.9-.8 17.3-2 28.5-.1.9 1.2 1.6.1 2.3-1 .6-.8 1.3-.3 1.7 1 .7-.5.8-.3 1.7z" class="X"/><g class="W"><path d="M229.8 58.3c0-.5-.1-.9-.2-1.3-4.7-.3-11.7-.4-16.8.1 0 .2-.1.4-.1.6-.1 3.5 3.6 6.5 8.3 6.7 4.7 0 8.6-2.6 8.8-6.1z"/><path d="M227.2 48.6v9.9c0 2.1-2.8 3.8-6.2 3.8s-6.1-1.8-6-3.9v-9.8h12.2z"/></g><path d="m232.4 57-2.3.1-2.9-.2v-5.4c-4-.1-8.5-.1-12.2.2v4.6c1.6 2.1 4.5 3.6 8 3.6 5.6-.1 8.2-1.4 9.4-2.9z" opacity=".19" fill="#a32107"/><path d="M178.3 61.3c-.8-.2.7-6.6 1.5-6.5 12 1.7 27.2 2.9 30.3 2.9l-1.7 8.5c-6.9-1.1-19.6-2.8-30.1-4.9z" class="W"/><path d="M196.2 56.3c-.4 2.8-1 9.1-.9 12.1 6.4.9 12.2 1.4 12.6 1.2 4.5-2 4.9-12 5.1-12.5-3.5-.2-10.5-.2-16.8-.8z" class="X"/><path d="M264.5 61.3c.8-.2-.7-6.6-1.5-6.5-12 1.7-27.2 2.9-30.3 2.9l1.7 8.5c6.9-1.1 19.6-2.8 30.1-4.9z" class="W"/><path d="M246.6 56.3c.4 2.8 1 9.1.9 12.1-6.4.9-12.2 1.4-12.6 1.2-4.5-2-4.9-12-5.1-12.5 3.5-.2 10.5-.2 16.8-.8z" class="X"/><g class="Y"><path d="M164.4 58.8c1.9-.1 4.8-.6 10.3-.8.6 0 1.8 2.4 1.1 2.4-3.7-.5-10.8 1-11.4-1.6z"/><path d="M163 56.3c1.9-.1 6.5-1.3 11.6 0 .6.2 1.5 2.6.8 2.5-3.7-.4-11.8-.4-12.4-2.5z"/></g><path d="M162.8 52.9c1.9-.1 12.5.9 17.7 2.1.6.2.1 4.7-.9 5.2-1.3 2.1-5.3 1.6-9.6 4.3-.7.5-.9-.9-.8-1.3.3-1 .7-1.1 2.3-3.2.9-1.3-.1-2.7-1-3.3-4.2-1.6-7.4-2-7.7-3.8z" class="W"/><g class="Y"><path d="M278.3 58.8c-1.9-.1-4.8-.6-10.3-.8-.6 0-1.8 2.4-1.1 2.4 3.7-.5 10.8 1 11.4-1.6z"/><path d="M279.7 56.3c-1.9-.1-6.5-1.3-11.6 0-.6.2-1.5 2.6-.8 2.5 3.6-.4 11.8-.4 12.4-2.5z"/></g><path d="M279.9 52.9c-1.9-.1-12.5.9-17.7 2.1-.6.2-.1 4.7.9 5.2 1.3 2.1 5.3 1.6 9.6 4.3.7.5.9-.9.8-1.3-.3-1-.7-1.1-2.3-3.2-.9-1.3.1-2.7 1-3.3 4.2-1.6 7.4-2 7.7-3.8zm-84.2 68.7c.9.3 6 1.2 7.3 1.4 0 3.3.9 4.5.6 6.3-.3 1.5-1.5 2.6-2.9 2.8l-5.3.5c-3.7.4-8.2 2.2-11.4.8-.4-.2-1.7-1.2-1.3-1.7s3.4-.7 3.2-1.1c-.1-.3-2.9.5-3.9.2-.5-.2-.9-1.2-.1-1.4 0 0-.3-.5-.2-.8.2-.4 1-.4 1-.6-.1-1.2 2.7-1.3 5.1-2.1 3.6-1.3 6.1-2.4 7.9-4.3z" class="W"/><path d="m182 129.5 3.5-.8c.1 0 .1-.1.1-.2s-.1-.1-.2-.1l-3.5.8c-.1 0-.1.1-.1.1 0 .1.1.2.2.2zm.9-1.5c.4-.1 1.2-.2 2.1-.5.1 0 .1-.1.1-.1 0-.1-.1-.1-.2-.1l-2 .5c-.1 0-.1.1-.1.1-.1.1 0 .1.1.1z" fill="#f29d77"/><path d="M191.3 39.8c1.3 5.4 6.6 8.9 10.6 8.5s4.9-4.9 4.3-10.1-4.3-9.1-8.3-8.6c-5.6.6-7.8 5.1-6.6 10.2z" class="W"/><path d="M196.3 41.3c.3 2.3 2.1 4 4.2 3.7 2-.2 3.5-2.3 3.2-4.6s-2.1-4-4.2-3.7c-2.1.2-3.5 2.3-3.2 4.6z" class="Y"/><path d="M250.8 41.5c-1.6 5.4-7 8.6-11 7.9s-4.6-5.1-3.7-10.3 4.8-8.9 8.8-8.2c5.4 1 7.4 5.6 5.9 10.6z" class="W"/><path d="M245.7 42.6c-.4 2.3-2.3 3.8-4.4 3.5-2-.3-3.4-2.4-3-4.7s2.3-3.8 4.4-3.5c2 .3 3.4 2.4 3 4.7z" class="Y"/><path d="M249.1 24.1c-.5 17.7-12.1 25.4-28 25s-28.4-8.7-27.9-26.4 13.3-21.5 29.2-21.1c16 .4 27.2 4.8 26.7 22.5z" class="Z"/><path d="M243.5 16.8c1.3 3-.3 29.2-3.5 32.8-3.4 3.8-16.7 7.2-19.5 7.1-3-.1-15.8-3.7-18.2-8.1-2.8-5.1-3.5-28.5-2.5-31.2 3.5-9.3 11.7-9.4 22.5-9.1 10.1.2 17.8.7 21.2 8.5z" class="W"/><path d="M221.4 47.8c-2.5.1-4.6-.6-5.8-1.7-.1-.2-.1-.4 0-.5.2-.1.4-.1.6 0 .9 1 2.9 1.5 5.1 1.5h.1c2.2-.1 4.1-.8 5-1.8.1-.2.4-.2.6 0 .2.1.2.4 0 .5-1.1 1.1-3.2 1.9-5.6 2z" fill="#934341"/><path d="M203.2 40.6c-.1 1 1.3 2 3.1 2.1s3.3-.6 3.4-1.6-1.3-2-3.1-2.1c-1.8-.2-3.3.6-3.4 1.6zm29.8.5c.1 1 1.6 1.8 3.4 1.6 1.8-.1 3.2-1.1 3.1-2.1s-1.6-1.8-3.4-1.6c-1.7.1-3.1 1.1-3.1 2.1z" fill="#ff9797"/><path d="M223.2 40.2c-.1 0-.2-.1-.2-.2-.1-.9-.8-1.4-1.7-1.4s-1.6.6-1.7 1.4c0 .1-.1.2-.3.2-.1 0-.2-.1-.2-.3.2-1.1 1.1-1.8 2.2-1.8s2 .7 2.2 1.8c0 .1-.1.3-.3.3z" fill="#c4735b"/><path d="M238 24.1c-.2 0-.3-.1-.4-.2-1.5-1.7-4.7-2.5-7.4-1.9-.4.1-.8-.1-.8-.5-.1-.4.1-.7.5-.8 3.2-.7 6.9.3 8.7 2.4.3.3.2.7-.1 1-.1-.1-.3 0-.5 0zm-33.5.3c-.2 0-.4 0-.5-.2-.3-.3-.3-.7 0-1 1.9-2 5.6-2.9 8.8-2 .4.1.6.5.5.9s-.5.6-.9.5c-2.7-.7-5.9 0-7.4 1.6-.1.2-.3.2-.5.2z" fill="#773220"/><path d="M250 29.2c-3.1-1-3.5-4.2-3.9-9.3 1.8-.4-.6-13-9.5-16.8-11.6-5-26.1-3.4-32.2 1-6.5 4.7-7.7 10.5-8.7 17.4-.9 5.6 1.4 9.7-2.7 13 4.8.1 7.7-3.8 8.5-7.4.9-4-1-7.6-.5-9.1.3-.9 5.5-4.9 6.8-5 2.9-.2 5.5 8 15.8 7.5-4.2-2.2-6.6-5.3-9-9.8.8.5 1.6 1 2.5 1.7 8.7 7.4 18 9.1 25.3 8.2.5 7.5-2.9 11.4 6.4 14-.9-1-2.2-4.1-2.4-6.6 1 .7 2 2.7 3.6 1.2z" class="Z"/><path d="M227 31.4c-1.7 2.5-1.5 5.2 0 6.3 2.3 1.6 7.7 2 9.7-.2s1-6.2-2.2-7.9c-2.8-1.6-5.8-.6-7.5 1.8z" fill="#f9feff"/><path d="M237 30.7c-2.5-3.9-8.4-2.6-10.1.7 1.7-2.5 4.9-3.2 7.5-1.8 1.6.9 2.7 2.4 3 4.1.2 1.4-.1 2.9-.9 3.8 1-.6 2.3-3.9.5-6.8z" fill="#7c3929"/><path d="M227.6 33a3.35 3.35 0 0 0 1.9 4.4c1.7.7 3.7-.1 4.4-1.8a3.35 3.35 0 0 0-1.9-4.4c-1.7-.7-3.7.1-4.4 1.8z" fill="#63190d"/><path d="M227.9 32.7a.88.88 0 0 0 .5 1.2.88.88 0 0 0 1.2-.5.88.88 0 0 0-.5-1.2c-.4-.2-1 0-1.2.5z" fill="#fefffe"/><path d="M215.1 31.3c1.7 2.5 1.4 5.2-.1 6.3-2.3 1.5-7.7 1.9-9.7-.4-1.9-2.2-.9-6.2 2.3-7.9 2.8-1.5 5.9-.5 7.5 2z" fill="#f9feff"/><path d="M205.1 30.4c2.5-3.8 8.5-2.4 10.1.9-1.7-2.5-4.9-3.3-7.5-2-1.6.8-2.8 2.3-3.1 4-.3 1.4 0 2.9.8 3.8-.9-.5-2.2-3.9-.3-6.7z" fill="#7c3929"/><path d="M208.1 32.8a3.35 3.35 0 0 0 1.9 4.4c1.7.7 3.7-.1 4.4-1.8a3.35 3.35 0 0 0-1.9-4.4c-1.7-.7-3.7.1-4.4 1.8z" fill="#63190d"/><path d="M208.4 32.5a.88.88 0 0 0 .5 1.2.88.88 0 0 0 1.2-.5.88.88 0 0 0-.5-1.2c-.5-.2-1 .1-1.2.5z" fill="#fefffe"/><path d="M194.8 19.8C199 7.6 207.6 1 222.1.9 234 .8 243 7.4 247.6 20.3 241.4 9.9 233 4.8 220.9 5.1c-11 .4-19.8 4.9-26.1 14.7z" class="X"/><path d="M228.9 74.5c-.1-2.1-1.5-3.2-3.4-3.2-1.3 0-2.5 1.2-3 2.4-.6-1.2-1.7-2.4-3-2.4-1.9 0-3.3 1.1-3.4 3.2-.1 3 6.4 7.8 6.4 7.8s6.5-4.3 6.4-7.8z" opacity=".52" fill="#fff"/></svg>