<?xml version="1.0" encoding="UTF-8" standalone="no"?>
<!DOCTYPE svg PUBLIC "-//W3C//DTD SVG 1.1//EN" "http://www.w3.org/Graphics/SVG/1.1/DTD/svg11.dtd">
<svg xmlns="http://www.w3.org/2000/svg" xmlns:xlink="http://www.w3.org/1999/xlink" version="1.1" width="128pt" height="128pt" viewBox="0 0 128 128">
<g enable-background="new">
<path transform="matrix(1,0,0,-1,17,111)" d="M 94 47 C 94 21.042618 72.95738 0 47 0 C 21.042616 0 0 21.042618 0 47 C 0 72.95738 21.042616 94 47 94 C 72.95738 94 94 72.95738 94 47 Z " fill="#ffe493"/>
<clipPath id="cp0">
<path transform="matrix(1,0,0,-1,0,128)" d="M 128 64 C 128 28.653779 99.34622 0 64 0 C 28.653777 0 0 28.653779 0 64 C 0 99.34622 28.653777 128 64 128 C 99.34622 128 128 99.34622 128 64 Z " fill-rule="evenodd"/>
</clipPath>
<g clip-path="url(#cp0)">
<path transform="matrix(1,0,0,-1,0,128)" d="M 118 64 C 118 34.17662 93.82338 10 64 10 L 64 -10 C 104.86907 -10 138 23.130928 138 64 L 118 64 Z M 64 10 C 34.176626 10 10 34.17662 10 64 L -10 64 C -10 23.130928 23.130928 -10 64 -10 L 64 10 Z M 10 64 C 10 93.82338 34.176626 118 64 118 L 64 138 C 23.130928 138 -10 104.86907 -10 64 L 10 64 Z M 64 118 C 93.82338 118 118 93.82338 118 64 L 138 64 C 138 104.86907 104.86907 138 64 138 L 64 118 Z " fill="#c4c4c4"/>
</g>
<path transform="matrix(.707107,-.707107,-.707107,-.707107,64.53847,88.81288)" d="M 4 42.702638 C 1.790861 42.702638 0 40.911775 0 38.702638 C 0 36.493497 1.790861 34.702638 4 34.702638 L 4 42.702638 Z M 37.076604 34.702638 C 39.285745 34.702638 41.076604 36.493497 41.076604 38.702638 C 41.076604 40.911775 39.285745 42.702638 37.076604 42.702638 L 37.076604 34.702638 Z M 4 34.702638 L 37.076604 34.702638 L 37.076604 42.702638 L 4 42.702638 L 4 34.702638 Z " fill="#ff82a3"/>
<path transform="matrix(.707107,.707107,.707107,-.707107,33.461877,59.538125)" d="M 4 42.70215 C 1.790861 42.70215 0 40.911287 0 38.70215 C 0 36.493009 1.790861 34.70215 4 34.70215 L 4 42.70215 Z M 37.076604 34.70215 C 39.285745 34.70215 41.076604 36.493009 41.076604 38.70215 C 41.076604 40.911287 39.285745 42.70215 37.076604 42.70215 L 37.076604 34.70215 Z M 4 34.70215 L 37.076604 34.70215 L 37.076604 42.70215 L 4 42.70215 L 4 34.70215 Z " fill="#ff82a3"/>
<path transform="matrix(.707107,-.707107,-.707107,-.707107,64.53847,118.113178)" d="M 4 42.702638 C 1.790861 42.702638 0 40.911775 0 38.702638 C 0 36.493497 1.790861 34.702638 4 34.702638 L 4 42.702638 Z M 37.076604 34.702638 C 39.285745 34.702638 41.076604 36.493497 41.076604 38.702638 C 41.076604 40.911775 39.285745 42.702638 37.076604 42.702638 L 37.076604 34.702638 Z M 4 34.702638 L 37.076604 34.702638 L 37.076604 42.702638 L 4 42.702638 L 4 34.702638 Z " fill="#ff82a3"/>
<path transform="matrix(.707107,.707107,.707107,-.707107,39.260217,89.038127)" d="M 0 38.70215 C -2.209139 38.70215 -4 36.91129 -4 34.70215 C -4 32.493009 -2.209139 30.702149 0 30.702149 L 0 38.70215 Z M 33.076604 30.702149 C 35.285745 30.702149 37.076604 32.493009 37.076604 34.70215 C 37.076604 36.91129 35.285745 38.70215 33.076604 38.70215 L 33.076604 30.702149 Z M 0 30.702149 L 33.076604 30.702149 L 33.076604 38.70215 L 0 38.70215 L 0 30.702149 Z " fill="#ff82a3"/>
</g>
</svg>
