<?xml version="1.0" encoding="UTF-8" standalone="no"?>
<!DOCTYPE svg PUBLIC "-//W3C//DTD SVG 1.1//EN" "http://www.w3.org/Graphics/SVG/1.1/DTD/svg11.dtd">
<svg xmlns="http://www.w3.org/2000/svg" xmlns:xlink="http://www.w3.org/1999/xlink" version="1.1" width="128pt" height="128pt" viewBox="0 0 128 128">
<g enable-background="new">
<g id="Layer-1" data-name="Layer 1">
<clipPath id="cp0">
<path transform="matrix(1,0,0,-1,0,128)" d="M 0 128 L 128 128 L 128 0 L 0 0 Z "/>
</clipPath>
<g clip-path="url(#cp0)">
<path transform="matrix(1,0,0,-1,111,64)" d="M 0 0 C 0 -25.957 -21.043 -47 -47 -47 C -72.957 -47 -94 -25.957 -94 0 C -94 25.957 -72.957 47 -47 47 C -21.043 47 0 25.957 0 0 " fill="#ffc000"/>
</g>
<clipPath id="cp1">
<path transform="matrix(1,0,0,-1,0,128)" d="M 64 128 C 28.654 128 0 99.346 0 64 C 0 28.654 28.654 0 64 0 C 99.346 0 128 28.654 128 64 C 128 99.346 99.346 128 64 128 Z "/>
</clipPath>
<g clip-path="url(#cp1)">
<path transform="matrix(1,0,0,-1,118,64)" d="M 0 0 C 0 -29.823 -24.177 -54 -54 -54 L -54 -74 C -13.131 -74 20 -40.869 20 0 Z M -54 -54 C -83.823 -54 -108 -29.823 -108 0 L -128 0 C -128 -40.869 -94.869 -74 -54 -74 Z M -108 0 C -108 29.823 -83.823 54 -54 54 L -54 74 C -94.869 74 -128 40.869 -128 0 Z M -54 54 C -24.177 54 0 29.823 0 0 L 20 0 C 20 40.869 -13.131 74 -54 74 Z " fill="#70ad47"/>
</g>
<clipPath id="cp2">
<path transform="matrix(1,0,0,-1,0,128)" d="M 0 128 L 128 128 L 128 0 L 0 0 Z "/>
</clipPath>
<g clip-path="url(#cp2)">
<path transform="matrix(1,0,0,-1,37.1716,55.7891)" d="M 0 0 C -1.562 -1.562 -1.562 -4.095 0 -5.657 C 1.562 -7.219 4.095 -7.219 5.657 -5.657 Z M 29.046 17.732 C 30.608 19.294 30.608 21.827 29.046 23.389 C 27.483 24.951 24.951 24.951 23.389 23.389 Z M 5.657 -5.657 L 29.046 17.732 L 23.389 23.389 L 0 0 Z " fill="#ed457d"/>
<path transform="matrix(1,0,0,-1,66.4853,32.1716)" d="M 0 0 C -1.562 1.562 -4.095 1.562 -5.657 0 C -7.219 -1.562 -7.219 -4.095 -5.657 -5.657 Z M 17.732 -29.046 C 19.294 -30.608 21.827 -30.608 23.389 -29.046 C 24.951 -27.483 24.951 -24.951 23.389 -23.389 Z M -5.657 -5.657 L 17.732 -29.046 L 23.389 -23.389 L 0 0 Z " fill="#ed457d"/>
<path transform="matrix(1,0,0,-1,37.1716,85.0894)" d="M 0 0 C -1.562 -1.562 -1.562 -4.095 0 -5.657 C 1.562 -7.219 4.095 -7.219 5.657 -5.657 Z M 29.046 17.732 C 30.608 19.294 30.608 21.827 29.046 23.389 C 27.483 24.951 24.951 24.951 23.389 23.389 Z M 5.657 -5.657 L 29.046 17.732 L 23.389 23.389 L 0 0 Z " fill="#ed457d"/>
<path transform="matrix(1,0,0,-1,66.6268,61.6716)" d="M 0 0 C -1.562 1.562 -4.095 1.562 -5.657 0 C -7.219 -1.562 -7.219 -4.095 -5.657 -5.657 Z M 17.732 -29.046 C 19.294 -30.608 21.827 -30.608 23.389 -29.046 C 24.951 -27.483 24.951 -24.951 23.389 -23.389 Z M -5.657 -5.657 L 17.732 -29.046 L 23.389 -23.389 L 0 0 Z " fill="#ed457d"/>
</g>
</g>
</g>
</svg>
